<svg width="18" height="18" viewBox="0 0 18 18" fill="none" xmlns="http://www.w3.org/2000/svg">
<path d="M8.1 12.6H9.9V9.9H12.6V8.1H9.9V5.4H8.1V8.1H5.4V9.9H8.1V12.6ZM9 18C8.76 18 8.53125 17.9587 8.31375 17.8763C8.09625 17.7938 7.905 17.6625 7.74 17.4825L0.5625 10.2825C0.3975 10.1025 0.2625 9.90375 0.1575 9.68625C0.0525 9.46875 0 9.24 0 9C0 8.76 0.0525 8.53125 0.1575 8.31375C0.2625 8.09625 0.3975 7.905 0.5625 7.74L7.74 0.54C7.92 0.36 8.115 0.225 8.325 0.135C8.535 0.045 8.76 0 9 0C9.24 0 9.4725 0.045 9.6975 0.135C9.9225 0.225 10.1175 0.36 10.2825 0.54L17.4375 7.74C17.6025 7.92 17.7375 8.115 17.8425 8.325C17.9475 8.535 18 8.76 18 9C18 9.24 17.9513 9.46875 17.8537 9.68625C17.7562 9.90375 17.6175 10.1025 17.4375 10.2825L10.2825 17.4825C10.1175 17.6475 9.9225 17.775 9.6975 17.865C9.4725 17.955 9.24 18 9 18ZM9 16.2L16.1775 9L9 1.8L1.8225 9L9 16.2Z" fill="#2881FF"/>
</svg>
