<svg width="32" height="33" viewBox="0 0 32 33" fill="none" xmlns="http://www.w3.org/2000/svg">
<path d="M23.9006 16.5C23.489 15.9677 23.0072 15.4976 22.4647 15.0992C22.0818 14.819 21.667 14.5731 21.2267 14.3708C21.399 14.1591 21.5553 13.9319 21.6925 13.6984C22.1839 12.8735 22.4615 11.9179 22.4615 10.8969C22.4615 9.87585 22.1807 8.92021 21.6925 8.09531C21.1884 7.2455 20.4609 6.53577 19.5897 6.04394C19.143 5.7918 18.6612 5.59881 18.1539 5.46807V2.49219H15.2821V5.29375H13.8462V2.49219H10.9744V5.29375H6.66667V8.09531H8.10257V24.9047H6.66667V27.7062H10.9744V30.5078H13.8462V27.7062H15.2821V30.5078H18.1539V27.7062C18.6452 27.7062 19.1271 27.6595 19.5897 27.5661C20.6491 27.3576 21.6255 26.9187 22.4615 26.3085C23.004 25.9101 23.489 25.437 23.8974 24.9078C24.7973 23.7373 25.3333 22.2805 25.3333 20.7054C25.3333 19.1303 24.8005 17.6704 23.9006 16.5ZM10.9776 8.09531H16.7211C17.2444 8.09531 17.7358 8.23227 18.157 8.47196C19.0154 8.95445 19.5929 9.86029 19.5929 10.8969C19.5929 11.9334 19.0154 12.8393 18.157 13.3218C17.7358 13.5615 17.2444 13.6984 16.7211 13.6984H10.9776V8.09531ZM19.5929 24.665C19.143 24.8206 18.6612 24.9047 18.157 24.9047H10.9776V16.5H18.157C18.6612 16.5 19.143 16.584 19.5929 16.7397C21.2682 17.3187 22.4647 18.8751 22.4647 20.7023C22.4647 22.5296 21.2682 24.0891 19.5929 24.665Z" fill="white"/>
</svg>
