<svg width="168" height="49" viewBox="0 0 168 49" fill="none" xmlns="http://www.w3.org/2000/svg">
<path d="M0 12C0 5.37258 5.37258 0 12 0H156C162.627 0 168 5.37258 168 12V37C168 43.6274 162.627 49 156 49H12C5.37259 49 0 43.6274 0 37V12Z" fill="#23291E"/>
<path d="M12 1H156C162.075 1 167 5.92487 167 12V37C167 43.0751 162.075 48 156 48H12C5.92487 48 1 43.0751 1 37V12C1 5.92487 5.92487 1 12 1Z" stroke="#A4F40F" stroke-opacity="0.2" stroke-width="2"/>
<path d="M30.7743 29.5L27.4235 25.0504H26.5186V29.5H24.6742V19.3182H26.5186V23.5043H26.981L30.6003 19.3182H32.8723L28.8503 23.9616L33.0463 29.5H30.7743ZM34.7777 32.3636C34.5324 32.3636 34.3054 32.3438 34.0966 32.304C33.8911 32.2675 33.727 32.2244 33.6044 32.1747L34.022 30.7727C34.2839 30.849 34.5175 30.8854 34.723 30.8821C34.9285 30.8788 35.1091 30.8142 35.2649 30.6882C35.424 30.5656 35.5582 30.3601 35.6676 30.0717L35.8217 29.6591L33.0526 21.8636H34.9616L36.7216 27.6307H36.8011L38.5661 21.8636H40.4801L37.4226 30.4247C37.2801 30.8291 37.0911 31.1754 36.8558 31.4638C36.6205 31.7554 36.3321 31.9775 35.9908 32.13C35.6527 32.2857 35.2483 32.3636 34.7777 32.3636ZM41.7255 29.5V21.8636H48.1737V29.5H46.4386V23.3402H43.4457V29.5H41.7255ZM51.7594 27.0639L54.8169 21.8636H56.6664V29.5H54.9263V24.2947L51.8787 29.5H50.0243V21.8636H51.7594V27.0639ZM57.6594 23.3402V21.8636H64.3413V23.3402H61.8704V29.5H60.1303V23.3402H57.6594ZM66.9924 24.3494H69.2445C70.2189 24.3494 70.973 24.5864 71.5066 25.0604C72.0402 25.5343 72.3087 26.1558 72.312 26.9247C72.3087 27.4252 72.186 27.8693 71.9441 28.2571C71.7054 28.6449 71.3574 28.9498 70.9 29.1719C70.446 29.3906 69.8941 29.5 69.2445 29.5H65.7743V21.8636H67.5094V28.0234H69.2445C69.6356 28.0234 69.9571 27.924 70.209 27.7251C70.4609 27.523 70.5868 27.2644 70.5868 26.9496C70.5868 26.6181 70.4609 26.348 70.209 26.1392C69.9571 25.9304 69.6356 25.826 69.2445 25.826H66.9924V24.3494ZM80.658 29.6491C79.8957 29.6491 79.2411 29.4818 78.6942 29.147C78.1507 28.8123 77.7314 28.3499 77.4364 27.7599C77.1448 27.1667 76.9989 26.4839 76.9989 25.7116C76.9989 24.9361 77.1481 24.2517 77.4464 23.6584C77.7447 23.0618 78.1656 22.5978 78.7092 22.2663C79.256 21.9316 79.9023 21.7642 80.6481 21.7642C81.2679 21.7642 81.8164 21.8786 82.2937 22.1072C82.7743 22.3326 83.1571 22.6525 83.4421 23.0668C83.7272 23.4777 83.8896 23.9583 83.9293 24.5085H82.2092C82.1396 24.1406 81.9738 23.834 81.712 23.5888C81.4535 23.3402 81.1071 23.2159 80.6729 23.2159C80.305 23.2159 79.9819 23.3153 79.7035 23.5142C79.4251 23.7098 79.208 23.9915 79.0522 24.3594C78.8997 24.7273 78.8235 25.1681 78.8235 25.6818C78.8235 26.2022 78.8997 26.6496 79.0522 27.0241C79.2047 27.3954 79.4184 27.6821 79.6935 27.8842C79.9719 28.0831 80.2984 28.1825 80.6729 28.1825C80.9381 28.1825 81.1751 28.1328 81.3839 28.0334C81.596 27.9306 81.7733 27.7831 81.9158 27.5909C82.0584 27.3987 82.1561 27.165 82.2092 26.8899H83.9293C83.8862 27.4302 83.7272 27.9091 83.4521 28.3267C83.177 28.741 82.8024 29.0658 82.3285 29.3011C81.8545 29.5331 81.2977 29.6491 80.658 29.6491ZM85.4071 29.5V21.8636H87.2069V24.946H87.8631L90.16 21.8636H92.3276L89.4988 25.6122L92.3574 29.5H90.1799L88.0868 26.6214H87.2069V29.5H85.4071ZM95.1129 27.0639L98.1705 21.8636H100.02V29.5H98.2798V24.2947L95.2322 29.5H93.3778V21.8636H95.1129V27.0639ZM107.113 24.9361V26.4126H103.046V24.9361H107.113ZM103.603 21.8636V29.5H101.868V21.8636H103.603ZM108.291 21.8636V29.5H106.561V21.8636H108.291ZM111.33 24.3494H113.582C114.557 24.3494 115.311 24.5864 115.844 25.0604C116.378 25.5343 116.647 26.1558 116.65 26.9247C116.647 27.4252 116.524 27.8693 116.282 28.2571C116.043 28.6449 115.695 28.9498 115.238 29.1719C114.784 29.3906 114.232 29.5 113.582 29.5H110.112V21.8636H111.847V28.0234H113.582C113.973 28.0234 114.295 27.924 114.547 27.7251C114.799 27.523 114.925 27.2644 114.925 26.9496C114.925 26.6181 114.799 26.348 114.547 26.1392C114.295 25.9304 113.973 25.826 113.582 25.826H111.33V24.3494ZM117.599 29.5V21.8636H119.399V29.5H117.599Z" fill="#A4F40F"/>
<g clip-path="url(#clip0_1193_15829)">
<path d="M136.137 26.14L136.137 25.3356C136.137 25.0801 136.086 24.8657 135.986 24.6987C135.847 24.4683 135.619 24.3362 135.36 24.3362C135.106 24.3362 134.854 24.4597 134.611 24.7031L131.954 27.3601C131.37 27.9435 131.37 28.8927 131.954 29.4761L134.611 32.1331C134.854 32.3766 135.106 32.5 135.36 32.5C135.747 32.5 136.137 32.1909 136.137 31.5006L136.137 30.77C139.91 30.5472 143.032 27.6523 143.496 23.8622C143.522 23.6505 143.402 23.4479 143.204 23.3694C143.148 23.3472 143.089 23.3364 143.031 23.3364C142.885 23.3364 142.743 23.4049 142.653 23.5283C141.408 25.2292 139.409 26.2448 137.306 26.2448C136.917 26.2448 136.525 26.2096 136.137 26.14Z" fill="#A4F40F"/>
<path d="M129.805 25.6306C130.003 25.7092 130.229 25.6438 130.355 25.4716C131.6 23.7708 133.599 22.7552 135.702 22.7552C136.092 22.7552 136.483 22.7904 136.871 22.86L136.871 23.6644C136.871 24.3547 137.262 24.6638 137.648 24.6638C137.902 24.6638 138.154 24.5403 138.398 24.2968L141.055 21.6399C141.638 21.0565 141.638 20.1073 141.055 19.5238L138.398 16.8669C138.154 16.6234 137.902 16.5 137.648 16.5C137.262 16.5 136.871 16.8091 136.871 17.4994L136.871 18.23C133.099 18.4528 129.976 21.3477 129.512 25.1377C129.486 25.3495 129.606 25.5521 129.805 25.6306Z" fill="#A4F40F"/>
</g>
<defs>
<clipPath id="clip0_1193_15829">
<rect width="16" height="16" fill="white" transform="translate(144.5 32.5) rotate(-180)"/>
</clipPath>
</defs>
</svg>
