<svg width="32" height="32" viewBox="0 0 32 32" fill="none" xmlns="http://www.w3.org/2000/svg">
<path d="M28.3701 11.2778C27.329 10.1279 25.7595 9.45973 23.584 9.22664V8.04565C23.584 5.91675 22.6827 3.86555 21.0977 2.43593C19.4971 0.975225 17.4149 0.291492 15.2549 0.493504C11.541 0.85091 8.41754 4.44051 8.41754 8.32536V9.22664C6.24203 9.45973 4.67255 10.1279 3.63141 11.2778C2.12409 12.9561 2.17071 15.1938 2.34164 16.7477L3.4294 25.4031C3.75573 28.4333 4.98334 31.5412 11.6653 31.5412H20.3363C27.0182 31.5412 28.2458 28.4333 28.5721 25.4187L29.6599 16.7322C29.8308 15.1938 29.8619 12.9561 28.3701 11.2778ZM15.4724 2.65348C17.0264 2.51362 18.5026 2.99535 19.6525 4.03648C20.7869 5.06208 21.424 6.52279 21.424 8.04565V9.1334H10.5775V8.32536C10.5775 5.55934 12.8618 2.90211 15.4724 2.65348ZM10.4377 17.7888H10.4221C9.56746 17.7888 8.86819 17.0896 8.86819 16.2349C8.86819 15.3802 9.56746 14.681 10.4221 14.681C11.2923 14.681 11.9916 15.3802 11.9916 16.2349C11.9916 17.0896 11.2923 17.7888 10.4377 17.7888ZM21.3152 17.7888H21.2997C20.445 17.7888 19.7458 17.0896 19.7458 16.2349C19.7458 15.3802 20.445 14.681 21.2997 14.681C22.1699 14.681 22.8692 15.3802 22.8692 16.2349C22.8692 17.0896 22.1699 17.7888 21.3152 17.7888Z" fill="#71717D"/>
</svg>
