<svg width="28" height="32" viewBox="0 0 28 32" fill="none" xmlns="http://www.w3.org/2000/svg">
<path d="M26.3701 11.2778C25.329 10.1279 23.7595 9.45973 21.584 9.22664V8.04565C21.584 5.91675 20.6827 3.86555 19.0977 2.43593C17.4971 0.975225 15.4149 0.291492 13.2549 0.493504C9.54096 0.85091 6.41754 4.44051 6.41754 8.32536V9.22664C4.24203 9.45973 2.67255 10.1279 1.63141 11.2778C0.124092 12.9561 0.17071 15.1938 0.341644 16.7477L1.4294 25.4031C1.75573 28.4333 2.98334 31.5412 9.66528 31.5412H18.3363C25.0182 31.5412 26.2458 28.4333 26.5721 25.4187L27.6599 16.7322C27.8308 15.1938 27.8619 12.9561 26.3701 11.2778ZM13.4724 2.65348C15.0264 2.51362 16.5026 2.99535 17.6525 4.03648C18.7869 5.06208 19.424 6.52279 19.424 8.04565V9.1334H8.57752V8.32536C8.57752 5.55934 10.8618 2.90211 13.4724 2.65348ZM8.43767 17.7888H8.42213C7.56746 17.7888 6.86819 17.0896 6.86819 16.2349C6.86819 15.3802 7.56746 14.681 8.42213 14.681C9.29233 14.681 9.9916 15.3802 9.9916 16.2349C9.9916 17.0896 9.29233 17.7888 8.43767 17.7888ZM19.3152 17.7888H19.2997C18.445 17.7888 17.7458 17.0896 17.7458 16.2349C17.7458 15.3802 18.445 14.681 19.2997 14.681C20.1699 14.681 20.8692 15.3802 20.8692 16.2349C20.8692 17.0896 20.1699 17.7888 19.3152 17.7888Z" fill="white"/>
</svg>
