<svg width="16" height="19" viewBox="0 0 16 19" fill="none" xmlns="http://www.w3.org/2000/svg">
<path d="M5.64719 15.0592C5.12953 15.0592 4.68639 14.8749 4.31775 14.5062C3.94911 14.1376 3.76479 13.6944 3.76479 13.1768V1.8824C3.76479 1.36474 3.94911 0.92159 4.31775 0.552954C4.68639 0.184318 5.12953 0 5.64719 0H14.118C14.6356 0 15.0788 0.184318 15.4474 0.552954C15.8161 0.92159 16.0004 1.36474 16.0004 1.8824V13.1768C16.0004 13.6944 15.8161 14.1376 15.4474 14.5062C15.0788 14.8749 14.6356 15.0592 14.118 15.0592H5.64719ZM5.64719 13.1768H14.118V1.8824H5.64719V13.1768ZM1.8824 18.824C1.36474 18.824 0.92159 18.6397 0.552954 18.271C0.184318 17.9024 0 17.4592 0 16.9416V3.76479H1.8824V16.9416H12.2356V18.824H1.8824Z" fill="#A4F40F"/>
</svg>
