<svg width="16" height="16" viewBox="0 0 16 16" fill="none" xmlns="http://www.w3.org/2000/svg">
<path d="M6.16934 12.393C5.76656 12.393 5.42176 12.2496 5.13493 11.9627C4.8481 11.6759 4.70469 11.3311 4.70469 10.9283V2.14043C4.70469 1.73765 4.8481 1.39285 5.13493 1.10602C5.42176 0.819195 5.76656 0.675781 6.16934 0.675781H12.7603C13.163 0.675781 13.5078 0.819195 13.7947 1.10602C14.0815 1.39285 14.2249 1.73765 14.2249 2.14043V10.9283C14.2249 11.3311 14.0815 11.6759 13.7947 11.9627C13.5078 12.2496 13.163 12.393 12.7603 12.393H6.16934ZM6.16934 10.9283H12.7603V2.14043H6.16934V10.9283ZM3.24004 15.3223C2.83726 15.3223 2.49246 15.1789 2.20563 14.892C1.9188 14.6052 1.77539 14.2604 1.77539 13.8576V3.60508H3.24004V13.8576H11.2956V15.3223H3.24004Z" fill="#A4F40F"/>
</svg>
