<svg width="168" height="49" viewBox="0 0 168 49" fill="none" xmlns="http://www.w3.org/2000/svg">
<rect x="1" y="1" width="166" height="47" rx="15" fill="#272739"/>
<rect x="1" y="1" width="166" height="47" rx="15" stroke="#2881FF" stroke-width="2"/>
<path d="M134.937 13.3535C137.787 13.3535 139.708 16.2486 138.591 18.8539L138.591 18.8541L136.122 24.6054C135.507 26.037 134.109 26.9739 132.551 27.0052H115.509L115.509 27.0057L113.979 30.5699L113.979 30.5702H130.554C131.977 30.5703 132.939 32.0176 132.381 33.3191L132.381 33.3195L131.38 35.6488H105.424L109.281 26.6635L109.281 26.6633L109.341 26.5275C110.622 23.6953 113.456 21.8661 116.588 21.8661H130.923L130.923 21.8655L132.426 18.366L132.426 18.3656H112.845L114.997 13.3535H134.937ZM114.338 17.3878H133.919L131.832 22.249L131.831 22.25L131.575 22.8439H116.588C113.805 22.8439 111.286 24.4955 110.19 27.046L106.917 34.671H130.727L131.472 32.9368C131.755 32.275 131.264 31.5481 130.554 31.548H112.485L114.601 26.6223L114.601 26.6213L114.858 26.0274H132.536C133.701 26.002 134.75 25.3007 135.213 24.2229L137.682 18.4716C138.525 16.5048 137.072 14.3313 134.937 14.3313H115.651L114.338 17.3878Z" fill="#E38717"/>
<path fill-rule="evenodd" clip-rule="evenodd" d="M33.9253 13.9629C32.7224 13.9629 31.636 14.6669 31.1599 15.7522L29.2083 20.2617C28.7856 21.2395 29.5145 22.3229 30.593 22.3229H36.9476C37.2498 22.3229 37.5224 22.1449 37.6389 21.8731L38.271 20.4182H31.5846L33.3723 16.2939L32.4024 15.8422H39.7604C40.0626 15.8422 40.3352 15.6642 40.4518 15.3924L41.072 13.9629H33.9253ZM50.3184 20.5218C49.8463 21.615 48.7579 22.3229 47.551 22.3229H40.835C39.7565 22.3229 39.0295 21.2376 39.4523 20.2598L41.4039 15.76C41.876 14.6688 42.9644 13.9609 44.1693 13.9609H50.8853C51.9639 13.9609 52.6908 15.0463 52.2681 16.024L50.3184 20.5218ZM48.1199 19.9684L49.9076 15.8422H42.6878L43.6123 16.2939L41.8246 20.4182H47.4305C47.7308 20.4182 48.0014 20.2422 48.1199 19.9684ZM56.2048 34.768H54.7767L57.5895 28.2854C57.4789 28.2854 54.4784 28.2854 54.4784 28.2854L55.3002 26.4061H63.9382L63.3673 27.7378C63.231 28.0566 62.8419 28.2854 62.4626 28.2854H60.0053L57.5895 33.8665C57.3545 34.4141 56.8093 34.768 56.2048 34.768ZM84.4755 32.4429H83.715L81.6488 32.4409L80.6216 34.768H78.2473L81.8839 26.4081H84.2523L82.5397 30.3544L88.1634 26.5391C88.2898 26.453 88.4379 26.4081 88.592 26.4081H92.1515L85.8503 30.7181L88.6947 34.77H86.0932L84.4755 32.4429ZM79.9323 26.4061H77.4987L73.8681 34.768H75.6399C76.0211 34.768 76.4281 34.5197 76.5644 34.2009L78.6819 29.3003L79.9323 26.4061ZM72.8132 34.768H70.277L69.232 32.8633H64.7441L64.3076 33.8685C64.0705 34.4141 63.5253 34.768 62.9229 34.768H61.4769L65.1056 26.4081H73.1747C74.2552 26.4081 74.9841 27.4934 74.5594 28.4712L72.995 32.0752C72.7876 32.5544 72.3095 32.8633 71.7821 32.8633L72.8132 34.768ZM73.6073 30.6262L72.2641 28.2873L65.6113 28.2932L66.5318 28.7312L65.55 31.0036H70.593C70.8952 31.0036 71.1678 30.8256 71.2863 30.5519L72.2641 28.2854L73.6073 30.6262ZM93.7673 29.8792H99.2231L98.7095 31.0584C98.591 31.3302 98.3184 31.5062 98.0182 31.5062H93.0562L92.4656 32.8614H99.1303L98.5041 34.3163C98.3856 34.5901 98.115 34.768 97.8128 34.768H90.35C89.8108 34.768 89.4473 34.2244 89.6587 33.7355L92.4439 27.3056C92.6809 26.76 93.2241 26.4061 93.8266 26.4061H101.931L101.313 27.8356C101.194 28.1094 100.922 28.2854 100.622 28.2854H93.3249L94.2651 28.7273L93.7673 29.8792ZM54.19 20.4182L56.9634 13.9648H55.5155C54.913 13.9648 54.3698 14.3188 54.1328 14.8644L51.7861 20.2617C51.3614 21.2395 52.0903 22.3248 53.1688 22.3248H59.3278C60.5367 22.3248 61.6271 21.615 62.0992 20.5199L64.9278 13.9648L63.4957 13.9629C62.8913 13.9629 62.3461 14.3169 62.109 14.8644L59.9046 19.9645C59.7881 20.2383 59.5135 20.4182 59.2113 20.4182H54.19ZM79.0157 22.3248H77.5876L80.4024 15.8422C80.2918 15.8422 77.2913 15.8422 77.2913 15.8422L78.113 13.9629H86.751L86.1802 15.2946C86.0439 15.6134 85.6547 15.8422 85.2755 15.8422H82.8182L80.4024 21.4233C80.1653 21.9689 79.6202 22.3248 79.0157 22.3248ZM105.27 20.4182L106.303 22.3229H103.766L102.719 20.4182H98.2315L97.795 21.4233C97.5579 21.9689 97.0127 22.3229 96.4103 22.3229H94.9624L98.591 13.9629H106.66C107.741 13.9629 108.47 15.0482 108.045 16.026L106.48 19.6301C106.277 20.1092 105.799 20.4182 105.27 20.4182ZM105.753 15.8422L104.776 18.1087C104.657 18.3824 104.385 18.5604 104.082 18.5604H99.0394L100.019 16.2881L99.0987 15.85L105.753 15.8422ZM94.3994 17.436H88.9298L89.4295 16.2841L88.4873 15.8422H95.7999C96.1021 15.8422 96.3747 15.6642 96.4932 15.3924L97.1135 13.9629H88.9891C88.3846 13.9629 87.8394 14.3168 87.6024 14.8624L84.8093 21.2923C84.5979 21.7812 84.9614 22.3229 85.5026 22.3229H92.9831C93.2853 22.3229 93.5579 22.1449 93.6765 21.8712L94.3046 20.4162H87.6241L88.2167 19.061H93.1905C93.4908 19.061 93.7634 18.885 93.8839 18.6132L94.3994 17.436ZM65.7574 21.4233C65.5204 21.9689 64.9752 22.3229 64.3728 22.3229H62.9249L66.5555 13.9629L68.3688 13.9609C68.6473 13.9609 68.9041 14.1115 69.0345 14.356L71.9303 19.7435L74.0597 14.8624C74.2967 14.3188 74.8399 13.9648 75.4424 13.9648L76.912 13.9629L73.473 21.8731C73.3545 22.1449 73.0819 22.3229 72.7797 22.3229H71.2389C70.9604 22.3229 70.7036 22.1723 70.5732 21.9298L67.7841 16.7535L65.7574 21.4233ZM48.9041 32.8633L49.4848 31.5257H44.9653H44.4123C43.3337 31.5257 42.6048 30.4424 43.0256 29.4665L43.2508 28.9444L43.5668 28.213C44.0389 27.1179 45.1293 26.4061 46.3402 26.4061H54.0755L53.4572 27.8356C53.3387 28.1094 53.0661 28.2873 52.7639 28.2873H44.7698L45.716 28.7391L45.3446 29.5995H50.4113C51.4918 29.5995 52.2207 30.6848 51.796 31.6626L51.229 32.9689C50.755 34.0601 49.6646 34.768 48.4597 34.768H40.7224L41.3584 33.3112C41.4769 33.0393 41.7495 32.8633 42.0498 32.8633H48.9041Z" fill="white"/>
<g clip-path="url(#clip0_1193_15831)">
<path d="M166.5 14V23L166.281 22.6718C165.168 21.0026 163.295 20 161.289 20H156.5C152.082 20 148.5 16.4183 148.5 12V7.07107C148.5 5.74499 147.973 4.47321 147.036 3.53553L145.5 2H154.5C161.127 2 166.5 7.37258 166.5 14Z" fill="#2881FF"/>
<path d="M161.7 8L155.792 14L153.3 11.4615" stroke="white" stroke-width="2"/>
</g>
<defs>
<clipPath id="clip0_1193_15831">
<rect width="21" height="21" fill="white" transform="translate(145.5 2)"/>
</clipPath>
</defs>
</svg>
