<svg width="168" height="49" viewBox="0 0 168 49" fill="none" xmlns="http://www.w3.org/2000/svg">
<rect x="0.5" y="0.5" width="167" height="48" rx="15.5" fill="#1A1A1F"/>
<rect x="0.5" y="0.5" width="167" height="48" rx="15.5" stroke="#222229"/>
<g style="mix-blend-mode:luminosity">
<path d="M40.9805 36.6223L40.6112 36.3015L39.9744 36.252C39.4199 36.2089 39.2912 36.1837 38.9786 36.0572L38.6197 35.9118L38.3121 36.0406C38.0515 36.1496 37.9265 36.1731 37.4944 36.1941L36.9844 36.2188L36.9182 36.0598C36.8818 35.9723 36.8305 35.9008 36.8041 35.9008C36.7778 35.9008 36.5128 35.9789 36.2152 36.0744L35.6741 36.248L35.4614 36.1398C35.1978 36.0058 35.1822 36.0059 34.727 36.1452L34.3559 36.2589L33.9976 36.1834C33.6152 36.1029 33.4933 36.1097 32.347 36.2758L31.903 36.3401L31.6736 36.1813C31.4664 36.0379 31.4242 36.025 31.2361 36.0471C31.0468 36.0693 31.0237 36.062 30.9802 35.9662C30.9414 35.8807 30.9512 35.8174 31.0325 35.6301C31.1258 35.415 31.1369 35.294 31.1963 33.8547C31.2518 32.5098 31.2519 32.2521 31.1976 31.8611C31.1274 31.3551 31.1275 31.3549 31.4255 31.4097C31.5314 31.4292 31.6257 31.4375 31.635 31.4282C31.6444 31.4189 31.6746 30.7485 31.7021 29.9384C31.7479 28.5925 31.7354 28.1832 31.6486 28.1813C31.6318 28.181 31.5455 28.1172 31.4568 28.0396L31.2956 27.8986L31.1594 27.1136C31.0845 26.6819 31.0126 26.1195 30.9997 25.8638C30.9781 25.4368 30.984 25.3862 31.0726 25.2424C31.1256 25.1563 31.1833 25.0858 31.2007 25.0858C31.2182 25.0858 31.2899 25.1465 31.3601 25.2206C31.4303 25.2948 31.5447 25.3965 31.6143 25.4467L31.7409 25.538L31.7118 24.7634C31.6874 24.1145 31.6678 23.954 31.5909 23.7745C31.539 23.6535 31.51 23.5184 31.5242 23.4639C31.5411 23.399 31.4931 23.2652 31.3768 23.0539L31.2044 22.7403L31.2628 22.2264C31.3103 21.8081 31.311 21.649 31.2667 21.3711C31.2023 20.9672 31.0646 20.5336 30.9161 20.2669L30.8092 20.0749L30.8982 19.3754L30.9873 18.676L30.8951 18.2941L30.803 17.9121L30.9123 17.5011L31.0216 17.0901L30.9378 16.847C30.7635 16.3411 30.7601 16.2695 30.8957 15.965C31.1324 15.4331 31.1653 14.786 31.0028 13.8565C30.9472 13.5387 30.9135 13.447 30.8255 13.3745C30.6701 13.2465 30.7199 13.0413 30.9422 12.8936C31.0725 12.807 31.1017 12.7636 31.0858 12.6803C31.0678 12.5857 31.0799 12.5763 31.2116 12.5826C31.2918 12.5865 31.6863 12.5517 32.0884 12.5054L32.8194 12.4212L33.6741 12.5442L34.5289 12.6671L35.629 12.6174L36.7291 12.5676L36.9758 12.7158L37.2225 12.864L38.0843 12.8924C39.2162 12.9297 39.6831 12.8522 40.3462 12.5168C40.6223 12.3772 40.9592 12.2504 41.255 12.1748L41.725 12.0547L42.2623 12.2229L42.7995 12.3912L43.2549 12.2381L43.7102 12.0851L44.2243 12.2452C44.5741 12.3542 44.9288 12.5087 45.3339 12.7287L45.9293 13.0519L46.6337 13.0399L47.338 13.0279L47.3716 12.9189C47.3901 12.859 47.4463 12.6676 47.4965 12.4937L47.5878 12.1776H48.1014C48.4802 12.1776 48.8017 12.2113 49.3268 12.3062C49.7184 12.377 50.2413 12.467 50.4889 12.5062L50.939 12.5776L51.1863 12.4662C51.3433 12.3955 51.581 12.338 51.8372 12.3089C52.1993 12.2677 52.2659 12.2719 52.4865 12.349C52.6217 12.3963 52.9278 12.4658 53.1668 12.5034C53.5497 12.5638 53.6708 12.5648 54.1878 12.5119L54.7743 12.4519L55.1001 12.6867C55.2793 12.8159 55.4563 12.9455 55.4933 12.9748C55.5329 13.006 55.5809 13.1608 55.6095 13.3495L55.6584 13.6711L55.4179 14.1071C55.2284 14.4506 55.1899 14.5511 55.2365 14.5808C55.269 14.6014 55.3198 14.6186 55.3493 14.619C55.3788 14.6194 55.457 14.7016 55.5231 14.8017L55.6432 14.9838L55.6571 16.2735C55.6707 17.5282 55.6049 20.1892 55.5592 20.235C55.5468 20.2476 55.3811 20.2397 55.1911 20.2175L54.8457 20.1771L54.7939 20.4528C54.7654 20.6045 54.7542 20.8046 54.7689 20.8975C54.792 21.0419 54.7707 21.1102 54.6221 21.3688C54.5266 21.5352 54.4484 21.6861 54.4484 21.7042C54.4484 21.7597 54.7098 22.0843 54.9807 22.3651L55.2377 22.6316L55.1426 22.9523L55.0475 23.2729L55.1674 24.0595C55.3056 24.9651 55.299 25.0573 55.0311 25.9652C54.9108 26.3727 54.8878 26.501 54.93 26.5272C54.9602 26.5459 55.1159 26.5744 55.276 26.5905L55.5672 26.6199L55.5956 27.6953C55.7468 33.4331 55.7579 34.1871 55.7061 35.2249C55.6775 35.8005 55.6484 36.2779 55.6416 36.2857C55.6348 36.2936 55.2876 36.1496 54.8701 35.9658L54.1108 35.6317L53.7692 35.779L53.4275 35.9264L53.3893 36.166L53.351 36.4057L52.6942 36.5472L52.0373 36.6887L51.5811 36.5203C51.1323 36.3546 51.1195 36.3526 50.7887 36.3951C50.5053 36.4315 50.4124 36.4261 50.1972 36.3607L49.942 36.2831L49.5791 36.4475L49.2163 36.612L48.4979 36.6309C48.1029 36.6413 47.6037 36.6316 47.3886 36.6094C46.9237 36.5616 45.8685 36.6645 45.0631 36.8363C44.6074 36.9335 44.5161 36.9396 44.0493 36.9043C43.7671 36.8829 43.2887 36.833 42.9861 36.7934L42.4359 36.7213L41.9413 36.8344C41.6692 36.8965 41.4249 36.9465 41.3982 36.9453C41.3716 36.9441 41.1836 36.7988 40.9805 36.6223ZM38.743 33.0929C40.0334 32.606 41.0793 32.1899 41.0674 32.1684C41.0366 32.1128 35.2085 26.4616 35.1693 26.4494C35.1516 26.4439 34.7293 27.557 34.231 28.9231L33.3248 31.4068L33.4489 31.5129C33.5172 31.5712 34.1889 32.1501 34.9416 32.7992C35.6943 33.4484 36.3297 33.9793 36.3536 33.9789C36.3775 33.9785 37.4527 33.5798 38.743 33.0929ZM52.7971 30.7877C53.4019 29.3186 53.905 28.0855 53.9151 28.0474C53.9286 27.9965 51.4904 26.3227 44.7097 21.7278C39.6365 18.29 35.4654 15.4773 35.4405 15.4773C35.386 15.4773 32.764 16.6659 32.7099 16.7151C32.6892 16.7339 32.7159 16.7755 32.7693 16.8074C32.8227 16.8394 36.4328 20.599 40.7917 25.1621L48.7169 33.4587H50.2071H51.6974L52.7971 30.7877ZM51.3862 19.5475C51.6151 18.2643 51.8112 17.1841 51.8221 17.147C51.836 17.0994 51.5575 16.8794 50.8694 16.3948C50.3345 16.0181 49.879 15.7099 49.8572 15.7099C49.81 15.7099 44.7918 17.1027 44.7738 17.1208C44.7669 17.1277 46.154 18.2123 47.8562 19.5311C49.5584 20.8499 50.9554 21.9181 50.9606 21.9048C50.9658 21.8914 51.1574 20.8307 51.3862 19.5475Z" fill="#9B3425"/>
<path d="M64.0977 17.5702H65.1268L65.265 17.6473L65.4493 17.7861L65.5722 17.8786L65.6798 18.0327L65.7412 18.1715V30.0743L65.7105 30.3209L65.649 30.583L65.5415 30.8606L65.3418 31.0918L65.1268 31.2306L64.9069 31.2897L64.4356 31.4002H67.907L68.89 31.4773L70.5182 31.6315L71.6548 31.6469L74.0817 31.2461L75.7099 30.506L76.7544 29.7351L77.4917 29.0567L78.06 28.2704L78.5055 27.5303L78.8588 26.7132L79.1199 25.3255L79.3042 24.2771L79.0738 22.7507L78.6437 21.2397L78.06 20.2375L77.1999 19.2199L75.7714 18.3411L74.2354 17.7861L72.3307 17.4314L68.0145 17.416L68.0913 18.1869L70.1496 18.1098L71.3169 18.2023L73.0987 18.7266L74.5118 19.6362L75.7867 21.0238L76.5855 22.8278L76.7851 24.6471L76.7083 26.3277L76.4319 27.4069L75.9096 28.702L74.9726 29.7659L73.5902 30.583L71.4552 30.9068H69.7041L69.1511 30.7218L68.3678 30.1359L68.1067 29.735L68.1221 18.3257L68.0299 17.416L64.1284 17.5239L64.0977 17.5702Z" fill="#837670"/>
<path d="M92.2119 17.9083L91.0171 18.0173L90.0396 18.3444L88.4973 19.5437L87.5415 22.3128L87.4546 24.8203L87.8239 26.4339L88.7363 28.3526L90.3655 30.1188L92.2119 30.882L94.1886 30.9256L95.7961 30.206L96.6433 29.1376L97.4253 27.3933L97.686 24.2534L97.056 21.2226L95.8178 19.3474L93.8193 18.0828C93.8193 18.0828 92.8853 17.9955 92.516 17.9519C92.1467 17.9083 92.3205 17.1016 92.3205 17.1016L93.9714 17.1234L95.6223 17.4286L97.056 18.061L98.229 18.9549L99.4672 20.5249L99.9234 22.0512L100.227 24.3188L99.9668 26.5211L99.2934 27.982L97.4253 30.3587L95.8178 31.2308L93.6021 31.8195H91.5819L89.6703 31.4707L87.8239 30.4023L86.412 29.094L85.7603 28.0692L85 25.976L84.9565 23.9918L85.1738 22.5745L85.8689 20.7211L87.3026 18.8241L89.4531 17.6031L91.6471 17.1452L92.3639 17.1234L92.4074 17.9519L92.2119 17.9083Z" fill="#837670" stroke="#0000FF" stroke-opacity="0.040201"/>
<path d="M105.593 17.1863L105.255 18.3272L105.101 19.0673L105.009 19.5915L105.194 19.9923L105.501 19.3756L105.931 18.7281L106.607 18.4197L110.447 18.3272L110.416 30.2299L110.324 30.4766L110.047 30.97L109.771 31.0934L108.849 31.1859V31.4942L111.706 31.3709L114.748 31.4942L114.809 31.2167L113.334 31.0933L112.843 30.6616L112.689 30.1374L112.751 18.2347L115.7 18.2655L116.806 18.5739L117.236 19.0056L117.359 19.8382L117.512 20.1465L117.789 19.7148L117.635 17.1863L116.683 17.4021L111.737 17.4638L106.361 17.3713L105.777 17.0938L105.593 17.1863Z" fill="#837670"/>
<path d="M123.08 30.8614L122.58 31.1013L121.45 31.1667L121.429 31.581L124.035 31.4283L126.121 31.5592L126.186 31.1231L125.143 31.0794L124.948 30.796L124.926 30.5125L125.665 28.3103L128.532 28.2449L131.399 28.3321L132.464 31.014L131.942 31.2757L132.073 31.5373L134.549 31.4937L136.787 31.5373L136.765 31.1667L135.57 31.1012L134.723 30.3381L133.832 28.6592L134.028 28.3539L135.657 27.9614L137.264 27.7652L137.243 27.4163H133.246L129.01 16.8848L124.557 27.4163L126.099 27.3291L128.532 20.7878C128.532 20.7878 131.008 26.9802 130.965 27.1983C130.921 27.4163 130.813 27.3509 130.813 27.3509L126.099 27.3727L124.535 27.4599L123.08 30.8614Z" fill="#837670"/>
<path d="M124.572 27.3749L124.528 27.4809L126.084 27.3903L126.076 27.3787L126.114 27.2882L125.392 27.2207L124.572 27.3749Z" fill="#837670"/>
<path d="M40.9707 36.608L40.6103 36.2999L40.1236 36.2596C39.5158 36.2093 39.2324 36.1534 38.8895 36.0161L38.62 35.9082L38.3326 36.0236C38.0868 36.1224 37.485 36.2132 37.0288 36.2204C37.0042 36.2208 36.9619 36.1623 36.9349 36.0904C36.9078 36.0185 36.8553 35.948 36.8182 35.9337C36.781 35.9193 36.5052 35.9819 36.2052 36.0726L35.6598 36.2376L35.464 36.1421C35.2161 36.0212 35.1101 36.0224 34.6963 36.1505C34.3816 36.248 34.344 36.2508 34.088 36.1957C33.7125 36.1148 33.3957 36.1207 32.6869 36.2218C31.9119 36.3322 31.8967 36.3316 31.669 36.1767C31.516 36.0726 31.4315 36.0466 31.2462 36.0466C31.0354 36.0466 31.0122 36.0369 30.9874 35.9376C30.9717 35.8749 30.9908 35.7517 31.0323 35.6476C31.1474 35.3587 31.1936 34.6532 31.2075 32.9722L31.2204 31.4023L31.4376 31.4168L31.6549 31.4314L31.6879 30.5229C31.706 30.0232 31.7229 29.3037 31.7254 28.924L31.7298 28.2338L31.6137 28.1488C31.2957 27.9162 31.3111 27.9501 31.179 27.1903C31.1105 26.7966 31.0424 26.2188 31.0277 25.9063C31.0014 25.3509 31.0031 25.3353 31.1046 25.2189L31.2085 25.0999L31.4675 25.3233C31.61 25.4462 31.7336 25.5257 31.7421 25.4999C31.781 25.383 31.6653 23.9742 31.6024 23.798C31.565 23.6931 31.5343 23.5488 31.5343 23.4773C31.5343 23.4059 31.4633 23.2118 31.3765 23.046L31.2187 22.7445L31.2712 22.2081C31.3408 21.4983 31.2528 20.9768 30.9574 20.3475L30.8243 20.064L30.9088 19.3611L30.9933 18.6581L30.902 18.2926L30.8107 17.9272L30.9173 17.5192L31.0238 17.1112L30.9022 16.7132L30.7806 16.3152L30.9294 15.9002C31.0752 15.4932 31.0781 15.4719 31.0757 14.8092C31.073 14.0635 30.9931 13.5784 30.8412 13.3846C30.7089 13.2157 30.7301 13.0995 30.9261 12.9174C31.0217 12.8287 31.0999 12.7176 31.0999 12.6706C31.0999 12.597 31.1316 12.5846 31.328 12.5817C31.4534 12.5798 31.8395 12.5455 32.186 12.5054L32.816 12.4325L33.6414 12.5531C34.4659 12.6736 34.4682 12.6737 35.5975 12.6254L36.7281 12.5771L36.9965 12.7376L37.265 12.8981L38.364 12.8819L39.463 12.8656L39.8323 12.7315C40.0354 12.6577 40.358 12.5267 40.5492 12.4404C40.7403 12.3541 41.0829 12.2337 41.3105 12.173L41.7243 12.0625L42.2586 12.2324L42.7928 12.4023L43.2543 12.2471L43.7158 12.092L44.2118 12.2559C44.4846 12.346 44.9937 12.5674 45.3433 12.7478L45.9789 13.0759L46.6459 13.0555C47.1498 13.0401 47.322 13.0204 47.35 12.9748C47.3704 12.9417 47.4322 12.7499 47.4872 12.5486L47.5873 12.1827L48.2172 12.2041C48.6874 12.2201 49.1094 12.2716 49.8813 12.4074L50.9154 12.5892L51.1847 12.4815C51.3327 12.4222 51.6117 12.3521 51.8046 12.3257C52.1317 12.281 52.1873 12.286 52.6301 12.3988C53.0458 12.5047 53.1858 12.5196 53.7565 12.5189C54.1149 12.5185 54.4885 12.504 54.5867 12.4867C54.7562 12.4568 54.7838 12.4686 55.1285 12.7185C55.3283 12.8633 55.5059 13.0049 55.5233 13.0331C55.5406 13.0613 55.5767 13.2144 55.6035 13.3734L55.652 13.6625L55.432 14.0759C55.3109 14.3033 55.2119 14.5091 55.2119 14.5332C55.2119 14.5574 55.26 14.5991 55.3187 14.626C55.3775 14.6529 55.4783 14.7548 55.5427 14.8525L55.6598 15.0301L55.6313 17.4162C55.6157 18.7286 55.5902 19.8983 55.5748 20.0156L55.5468 20.2287L55.1884 20.2033L54.83 20.1779L54.8006 20.3747C54.7845 20.4829 54.7713 20.6821 54.7713 20.8175C54.7713 21.0179 54.7401 21.1239 54.6032 21.3893L54.4351 21.715L54.5281 21.8489C54.5792 21.9226 54.7571 22.1249 54.9234 22.2986L55.2258 22.6143L55.1341 22.9527L55.0425 23.2911L55.1514 24.0106C55.282 24.8731 55.2712 25.0912 55.0605 25.8399C54.9765 26.1385 54.9078 26.4166 54.9078 26.4579C54.9078 26.5356 54.9664 26.5554 55.3531 26.6087C55.5258 26.6324 55.5596 26.6523 55.56 26.7302C55.5603 26.7815 55.5885 27.8831 55.6228 29.1783C55.7353 33.4335 55.7457 34.3623 55.6918 35.3263C55.6637 35.8296 55.6333 36.2487 55.6243 36.2578C55.6152 36.2669 55.2696 36.1285 54.8561 35.9503L54.1042 35.6264L53.7791 35.7682C53.4454 35.9139 53.4119 35.9514 53.3666 36.2308C53.3366 36.416 53.3584 36.4069 52.5337 36.5762L52.0495 36.6757L51.5779 36.5169C51.1406 36.3696 51.0795 36.3598 50.7371 36.3818C50.4786 36.3984 50.3029 36.3865 50.1515 36.3417C49.9352 36.2779 49.935 36.278 49.5708 36.4461L49.2065 36.6142L47.8539 36.613C46.4293 36.6118 46.1364 36.6338 45.1544 36.8159C44.4769 36.9414 44.2388 36.9389 43.0514 36.7934L42.4256 36.7166L41.987 36.8168C41.7458 36.8719 41.4996 36.9168 41.4398 36.9165C41.3687 36.9161 41.2068 36.8097 40.9707 36.608ZM38.3351 32.7553C39.3804 32.3602 40.2418 32.0307 40.2494 32.0231C40.2629 32.0095 36.1735 28.0278 35.6312 27.5266C35.4787 27.3856 35.3451 27.2792 35.3342 27.2902C35.3233 27.3011 34.991 28.1915 34.5956 29.2689C34.1601 30.4557 33.8903 31.2499 33.9111 31.2837C33.9374 31.3264 36.399 33.4668 36.4283 33.4725C36.4317 33.4732 37.2898 33.1505 38.3351 32.7553ZM52.3899 30.5738C52.9332 29.2546 53.3652 28.1626 53.3499 28.147C53.3288 28.1257 43.1256 21.2087 35.98 16.3717L35.4077 15.9843L34.4695 16.4083C33.9534 16.6414 33.5381 16.8528 33.5464 16.878C33.5548 16.9032 37.0107 20.5386 41.2261 24.9566L48.8906 32.9894L50.1463 32.9808L51.402 32.9722L52.3899 30.5738ZM50.9742 19.2381C51.1544 18.2342 51.3018 17.3794 51.3018 17.3385C51.3018 17.2921 51.0383 17.078 50.5984 16.7672C50.2116 16.4938 49.87 16.2547 49.8395 16.2359C49.7839 16.2018 45.7818 17.2879 45.787 17.3357C45.7905 17.3676 50.6176 21.0924 50.6341 21.0759C50.641 21.069 50.794 20.242 50.9742 19.2381Z" fill="#9B3425"/>
</g>
</svg>
