<svg width="15" height="15" viewBox="0 0 15 15" fill="none" xmlns="http://www.w3.org/2000/svg">
<path d="M7.4998 11.2497C7.71229 11.2497 7.89041 11.1778 8.03416 11.0341C8.1779 10.8903 8.24978 10.7122 8.24978 10.4997C8.24978 10.2872 8.1779 10.1091 8.03416 9.96535C7.89041 9.82161 7.71229 9.74974 7.4998 9.74974C7.2873 9.74974 7.10918 9.82161 6.96544 9.96535C6.82169 10.1091 6.74982 10.2872 6.74982 10.4997C6.74982 10.7122 6.82169 10.8903 6.96544 11.0341C7.10918 11.1778 7.2873 11.2497 7.4998 11.2497ZM6.74982 8.24978H8.24978V3.7499H6.74982V8.24978ZM7.4998 14.9996C6.46232 14.9996 5.48735 14.8027 4.57488 14.409C3.6624 14.0152 2.86867 13.4809 2.19369 12.8059C1.51871 12.1309 0.984348 11.3372 0.590609 10.4247C0.19687 9.51224 0 8.53727 0 7.4998C0 6.46232 0.19687 5.48735 0.590609 4.57488C0.984348 3.6624 1.51871 2.86867 2.19369 2.19369C2.86867 1.51871 3.6624 0.984348 4.57488 0.590609C5.48735 0.19687 6.46232 0 7.4998 0C8.53727 0 9.51224 0.19687 10.4247 0.590609C11.3372 0.984348 12.1309 1.51871 12.8059 2.19369C13.4809 2.86867 14.0152 3.6624 14.409 4.57488C14.8027 5.48735 14.9996 6.46232 14.9996 7.4998C14.9996 8.53727 14.8027 9.51224 14.409 10.4247C14.0152 11.3372 13.4809 12.1309 12.8059 12.8059C12.1309 13.4809 11.3372 14.0152 10.4247 14.409C9.51224 14.8027 8.53727 14.9996 7.4998 14.9996ZM7.4998 13.4996C9.17475 13.4996 10.5935 12.9184 11.7559 11.7559C12.9184 10.5935 13.4996 9.17475 13.4996 7.4998C13.4996 5.82484 12.9184 4.40613 11.7559 3.24366C10.5935 2.08119 9.17475 1.49996 7.4998 1.49996C5.82484 1.49996 4.40613 2.08119 3.24366 3.24366C2.08119 4.40613 1.49996 5.82484 1.49996 7.4998C1.49996 9.17475 2.08119 10.5935 3.24366 11.7559C4.40613 12.9184 5.82484 13.4996 7.4998 13.4996Z" fill="#FF1D0D"/>
</svg>
