<svg width="140" height="40" viewBox="0 0 140 40" fill="none" xmlns="http://www.w3.org/2000/svg">
<rect x="0.5" y="0.5" width="139" height="39" rx="19.5" fill="#1A1A1F"/>
<rect x="0.5" y="0.5" width="139" height="39" rx="19.5" stroke="#222229"/>
<path d="M20.0137 16.707H21.9648C22.6641 16.707 23.2832 16.8555 23.8223 17.1523C24.3652 17.4453 24.791 17.8613 25.0996 18.4004C25.4082 18.9355 25.5625 19.5645 25.5625 20.2871C25.5625 20.9863 25.4082 21.5957 25.0996 22.1152C24.791 22.6348 24.3652 23.0391 23.8223 23.3281C23.2832 23.6133 22.6641 23.7559 21.9648 23.7559H20.0137C19.3105 23.7559 18.6875 23.6152 18.1445 23.334C17.6016 23.0488 17.1758 22.6465 16.8672 22.127C16.5586 21.6035 16.4043 20.9883 16.4043 20.2812C16.4043 19.5586 16.5605 18.9297 16.873 18.3945C17.1855 17.8594 17.6133 17.4453 18.1562 17.1523C18.6992 16.8555 19.3184 16.707 20.0137 16.707ZM20.0137 18.248C19.6387 18.248 19.3086 18.3242 19.0234 18.4766C18.7422 18.625 18.5215 18.8496 18.3613 19.1504C18.2012 19.4512 18.1191 19.8281 18.1152 20.2812C18.1191 20.7109 18.2012 21.0703 18.3613 21.3594C18.5254 21.6445 18.75 21.8594 19.0352 22.0039C19.3203 22.1445 19.6465 22.2148 20.0137 22.2148H21.9766C22.3516 22.2148 22.6777 22.1426 22.9551 21.998C23.2363 21.8535 23.4531 21.6387 23.6055 21.3535C23.7617 21.0645 23.8398 20.709 23.8398 20.2871C23.8398 19.834 23.7617 19.457 23.6055 19.1562C23.4531 18.8555 23.2363 18.6289 22.9551 18.4766C22.6777 18.3242 22.3516 18.248 21.9766 18.248H20.0137ZM21.8594 15.6172V24.8633H20.1133V15.6172H21.8594ZM28.7144 22.1035L31.0698 17.9492H32.8628V24.5H31.1343V20.3398L28.7847 24.5H26.9859V17.9492H28.7144V22.1035ZM34.0225 24.5L34.0166 23.0645H34.2334C34.4405 23.0605 34.6084 22.9902 34.7373 22.8535C34.8702 22.7168 34.9698 22.4883 35.0362 22.168C35.1065 21.8438 35.1514 21.4062 35.1709 20.8555L35.2823 17.9492H40.2569V24.5H38.5284V19.3789H36.9112L36.8057 21.3828C36.7784 21.9297 36.712 22.4004 36.6065 22.7949C36.501 23.1895 36.3545 23.5137 36.167 23.7676C35.9834 24.0176 35.7569 24.2031 35.4873 24.3242C35.2217 24.4414 34.9151 24.5 34.5674 24.5H34.0225ZM42.94 19.9707H44.9029C45.7701 19.9668 46.4439 20.1719 46.9244 20.5859C47.4088 21 47.6529 21.5527 47.6568 22.2441C47.6568 22.6934 47.5474 23.0879 47.3287 23.4277C47.1099 23.7637 46.7955 24.0273 46.3853 24.2188C45.9752 24.4062 45.481 24.5 44.9029 24.5H41.8091V17.9492H43.5377V23.0703H44.9029C45.2037 23.0703 45.4517 22.9941 45.647 22.8418C45.8423 22.6895 45.942 22.4941 45.9459 22.2559C45.942 22.002 45.8423 21.7949 45.647 21.6348C45.4517 21.4746 45.2037 21.3965 44.9029 21.4004H42.94V19.9707ZM47.9083 19.3789V17.9492H53.8321V19.3789H51.7286V24.5H50.0001V19.3789H47.9083ZM55.0387 26.9492V17.9492H56.8199V19.0566H56.902C56.984 18.877 57.1012 18.6953 57.2535 18.5117C57.4059 18.3281 57.6051 18.1758 57.8512 18.0547C58.0973 17.9297 58.402 17.8672 58.7652 17.8672C59.2457 17.8672 59.6852 17.9922 60.0836 18.2422C60.4859 18.4883 60.8082 18.8613 61.0504 19.3613C61.2926 19.8613 61.4137 20.4863 61.4137 21.2363C61.4137 21.9629 61.2965 22.5781 61.0621 23.082C60.8277 23.582 60.5094 23.9609 60.107 24.2188C59.7086 24.4766 59.2594 24.6055 58.7594 24.6055C58.4078 24.6055 58.109 24.5469 57.8629 24.4297C57.6168 24.3125 57.4156 24.166 57.2594 23.9902C57.107 23.8105 56.9879 23.6309 56.902 23.4512H56.8492V26.9492H55.0387ZM58.1852 23.1641C58.482 23.1641 58.732 23.082 58.9352 22.918C59.1383 22.7539 59.2926 22.5273 59.398 22.2383C59.5035 21.9453 59.5563 21.6094 59.5563 21.2305C59.5563 20.8516 59.5035 20.5195 59.398 20.2344C59.2965 19.9453 59.1441 19.7188 58.941 19.5547C58.7379 19.3906 58.4859 19.3086 58.1852 19.3086C57.8922 19.3086 57.6422 19.3887 57.4352 19.5488C57.232 19.7051 57.0758 19.9277 56.9664 20.2168C56.8609 20.502 56.8082 20.8398 56.8082 21.2305C56.8082 21.6172 56.8629 21.9551 56.9723 22.2441C57.0816 22.5332 57.2379 22.7598 57.441 22.9238C57.648 23.084 57.8961 23.1641 58.1852 23.1641ZM63.8214 19.9707H65.7843C66.6515 19.9668 67.3253 20.1719 67.8058 20.5859C68.2902 21 68.5343 21.5527 68.5382 22.2441C68.5382 22.6934 68.4288 23.0879 68.2101 23.4277C67.9913 23.7637 67.6769 24.0273 67.2667 24.2188C66.8566 24.4062 66.3624 24.5 65.7843 24.5H62.6905V17.9492H64.4191V23.0703H65.7843C66.0851 23.0703 66.3331 22.9941 66.5284 22.8418C66.7238 22.6895 66.8234 22.4941 66.8273 22.2559C66.8234 22.002 66.7238 21.7949 66.5284 21.6348C66.3331 21.4746 66.0851 21.3965 65.7843 21.4004H63.8214V19.9707ZM69.2413 24.5V17.9492H71.0519V24.5H69.2413Z" fill="#71717D"/>
<rect x="76" y="11.5" width="20" height="17" rx="8.5" fill="#A4F40F"/>
<path d="M85.8906 24.6172C85.4453 24.6172 85.0137 24.543 84.5957 24.3945C84.1777 24.2461 83.8047 24.0059 83.4766 23.6738C83.1484 23.3418 82.8867 22.9023 82.6914 22.3555C82.5 21.8047 82.4043 21.1309 82.4043 20.334C82.4043 19.5996 82.4863 18.9434 82.6504 18.3652C82.8184 17.7871 83.0566 17.2969 83.3652 16.8945C83.6777 16.4883 84.0527 16.1797 84.4902 15.9688C84.9277 15.7578 85.416 15.6523 85.9551 15.6523C86.5371 15.6523 87.0508 15.7656 87.4961 15.9922C87.9414 16.2188 88.2988 16.5254 88.5684 16.9121C88.8418 17.2988 89.0059 17.7305 89.0605 18.207H87.25C87.1797 17.9023 87.0293 17.6641 86.7988 17.4922C86.5684 17.3203 86.2871 17.2344 85.9551 17.2344C85.3848 17.2344 84.9512 17.4824 84.6543 17.9785C84.3613 18.4707 84.2148 19.1406 84.2148 19.9883H84.2734C84.4062 19.7305 84.582 19.5098 84.8008 19.3262C85.0234 19.1426 85.2773 19.002 85.5625 18.9043C85.8477 18.8066 86.1484 18.7578 86.4648 18.7578C86.9844 18.7578 87.4453 18.8789 87.8477 19.1211C88.2539 19.3633 88.5723 19.6973 88.8027 20.123C89.0371 20.5449 89.1543 21.0293 89.1543 21.5762C89.1543 22.166 89.0156 22.6914 88.7383 23.1523C88.4648 23.6094 88.084 23.9688 87.5957 24.2305C87.1074 24.4883 86.5391 24.6172 85.8906 24.6172ZM85.8789 23.1641C86.1641 23.1641 86.418 23.0977 86.6406 22.9648C86.8633 22.8281 87.0391 22.6426 87.168 22.4082C87.3008 22.1738 87.3672 21.9121 87.3672 21.623C87.3672 21.334 87.3027 21.0742 87.1738 20.8438C87.0449 20.6133 86.8691 20.4316 86.6465 20.2988C86.4277 20.1621 86.1758 20.0938 85.8906 20.0938C85.6094 20.0938 85.3555 20.1641 85.1289 20.3047C84.9023 20.4414 84.7227 20.627 84.5898 20.8613C84.4609 21.0918 84.3965 21.3477 84.3965 21.6289C84.3965 21.9102 84.4609 22.168 84.5898 22.4023C84.7188 22.6367 84.8945 22.8223 85.1172 22.959C85.3438 23.0957 85.5977 23.1641 85.8789 23.1641Z" fill="#1A1A1F"/>
<path d="M121.501 13.334H115.668" stroke="#71717D" stroke-width="2" stroke-linecap="square" stroke-linejoin="round"/>
<path d="M112.333 13.332H106.5" stroke="#71717D" stroke-width="2" stroke-linecap="square" stroke-linejoin="round"/>
<path d="M121.5 20H114" stroke="#71717D" stroke-width="2" stroke-linecap="square" stroke-linejoin="round"/>
<path d="M110.667 20H106.5" stroke="#71717D" stroke-width="2" stroke-linecap="square" stroke-linejoin="round"/>
<path d="M121.499 26.666H117.332" stroke="#71717D" stroke-width="2" stroke-linecap="square" stroke-linejoin="round"/>
<path d="M114 26.668H106.5" stroke="#71717D" stroke-width="2" stroke-linecap="square" stroke-linejoin="round"/>
<path d="M115.668 11.666V14.9993" stroke="#71717D" stroke-width="2" stroke-linecap="square" stroke-linejoin="round"/>
<path d="M110.668 18.334V21.6673" stroke="#71717D" stroke-width="2" stroke-linecap="square" stroke-linejoin="round"/>
<path d="M117.332 25V28.3333" stroke="#71717D" stroke-width="2" stroke-linecap="square" stroke-linejoin="round"/>
</svg>
