<svg width="165" height="45" viewBox="0 0 165 45" fill="none" xmlns="http://www.w3.org/2000/svg">
<path d="M17.0211 9.02008C17.0211 8.69727 17.1733 8.46688 17.3862 8.46688C17.5028 8.46688 19.2381 8.47695 20.8183 8.48529C20.9793 8.48595 21.1461 8.66563 21.3023 8.66602C21.3865 8.66668 21.4338 8.52011 21.5154 8.52051C21.5702 8.52077 21.675 8.73554 21.812 8.65861C21.9106 8.60339 21.8948 8.49098 22.0911 8.49204C22.8309 8.49707 23.3615 8.498 23.4192 8.49707C23.6409 8.4935 23.8157 8.50502 23.9971 8.69211C24.1734 8.87404 25.1222 9.82948 25.2239 9.94229C25.3251 10.0548 25.4569 10.1469 25.4569 9.94229C25.4569 9.73719 25.4581 8.96487 25.4581 8.8314C25.4581 8.63928 25.5377 8.48648 25.68 8.48648C25.8219 8.48648 30.0094 8.49681 30.1817 8.49681C30.3932 8.49681 30.5692 8.54832 30.7619 8.7125C30.9546 8.87615 33.3082 11.1141 33.4195 11.237C33.5311 11.3597 33.7504 11.4793 33.7504 11.2717C33.7504 11.0666 33.7317 8.95811 33.7301 8.83497C33.7275 8.60829 33.9228 8.48635 34.0953 8.48635C34.2678 8.48635 37.2735 8.4931 37.4767 8.4931C37.7274 8.4931 37.8367 8.49668 37.9988 8.64047C38.1611 8.784 41.2842 11.9917 41.4158 12.1352C41.5476 12.2783 41.6791 12.3398 41.6893 12.1756C41.6995 12.0115 41.7044 8.93481 41.7044 8.78082C41.7044 8.62749 41.7298 8.49654 41.8617 8.49654C41.9935 8.49654 45.3439 8.49998 45.476 8.49654C45.6244 8.49297 45.7802 8.50833 45.8767 8.60948C45.9963 8.73501 46.982 9.71614 47.1037 9.83941C47.2255 9.96215 47.4294 10.0248 47.4283 9.8083C47.4268 9.584 47.4307 8.86318 47.4307 8.7501C47.4307 8.63756 47.4419 8.47774 47.6168 8.48118C47.7588 8.48449 51.0198 8.49654 51.2023 8.49654C51.3848 8.49654 51.5532 8.51998 51.6851 8.64246C51.8168 8.76573 58.2643 14.9498 58.4338 15.1068C58.571 15.2338 58.7684 15.4295 58.7684 15.126C58.7684 15.0169 58.7554 13.6983 58.7671 12.294C58.7684 12.0861 59.4528 12.294 59.4528 12.0401C59.4528 11.54 59.3311 11.8399 59.3311 11.5942C59.3311 11.4259 59.3694 11.3251 59.1868 11.0177C59.0733 10.8266 58.7658 10.6623 58.7658 10.4568L58.7648 8.80426C58.7648 8.6504 58.7943 8.48609 58.9867 8.48609C59.1053 8.48609 60.8389 8.48688 62.1981 8.48688C62.2675 8.48688 62.3511 8.54289 62.4187 8.54289C62.4857 8.54289 62.5364 8.48688 62.6011 8.48688C63.2642 8.48688 63.7675 8.48688 63.8231 8.48609C64.0726 8.48489 64.1677 8.52726 64.2891 8.66073C64.4108 8.79393 65.6174 10.0339 65.7087 10.1365C65.8003 10.2386 66.023 10.4296 66.023 10.2182C66.0236 9.16533 67.0419 8.47006 67.7467 8.47629C68.1216 8.47986 71.8019 8.49336 72.0151 8.49654C72.2582 8.50091 72.3394 8.48622 72.5017 8.64021C72.6639 8.79393 75.4002 11.3251 75.5469 11.4634C75.7181 11.6248 75.8398 11.6901 75.8362 11.4519C75.8334 11.2878 75.8362 8.97149 75.8259 8.80783C75.8157 8.64352 75.8475 8.48224 75.9996 8.49257C76.1019 8.49919 78.3898 8.49389 79.9464 8.48966C80.035 8.48939 80.1595 8.55043 80.2429 8.55043C80.3298 8.54977 80.3758 8.48873 80.4557 8.4882C80.9572 8.48675 81.3099 8.48568 81.3632 8.48568C82.5051 8.4886 84.0253 10.1409 84.2326 10.7408C84.2845 10.8903 84.5885 10.9866 84.5874 10.72C84.587 10.5752 84.557 8.94712 84.557 8.76268C84.557 8.57784 84.5988 8.48833 84.7827 8.48449C84.8816 8.48277 86.2985 8.48357 87.7176 8.48423C88.0028 8.4845 88.4322 8.66496 88.7061 8.66496C89.1528 8.66563 89.4241 8.70946 89.7627 8.64987C89.938 8.61942 90.0792 8.48569 90.2044 8.48582L90.6605 8.48568C90.8769 8.48449 90.9305 8.48741 91.0822 8.63067C91.2346 8.7742 92.413 9.92601 92.5345 10.0485C92.6562 10.1719 92.8158 10.306 92.8091 10.1151C92.8033 9.90998 92.8124 8.9262 92.8124 8.75368C92.8124 8.58804 92.8603 8.45483 93.0631 8.45483C93.1604 8.45483 94.3399 8.46318 95.5648 8.47126C95.7041 8.47218 95.8592 8.5413 95.9983 8.54222C96.1161 8.54288 96.2176 8.47536 96.3334 8.47602C96.4049 8.47681 96.4758 8.47695 96.5461 8.47774C96.6546 8.4784 96.7693 8.79393 96.8729 8.8032C97.2078 8.83378 96.994 8.66642 97.1542 8.67238C97.3517 8.68032 97.1018 8.79883 97.4354 8.81061C97.6487 8.81842 97.344 8.48608 97.5724 8.4841C98.0287 8.48026 98.3331 8.48847 98.3904 8.4882C99.4204 8.48013 101.573 10.8404 101.975 11.4372C102.203 11.7752 102.289 11.7036 102.289 11.5501C102.289 11.3963 102.3 8.88542 102.3 8.74189C102.3 8.59836 102.381 8.50608 102.523 8.50608C102.596 8.50608 103.701 8.50317 104.789 8.50091C104.987 8.50025 105.199 8.80333 105.389 8.80333C105.678 8.80333 105.465 8.65437 105.686 8.65715C105.938 8.6606 106.215 8.65715 106.408 8.65715C106.659 8.65715 106.393 8.49562 106.644 8.49654C106.798 8.49654 106.901 8.49562 106.933 8.49562C107.166 8.49562 107.397 8.52369 107.632 8.74666C107.881 8.98248 108.83 9.97963 108.961 10.1612C109.153 10.4276 109.332 10.5404 109.326 10.2944C109.301 9.32077 110.051 8.48012 110.638 8.48012C111.227 8.48012 114.673 8.47033 115.008 8.47509C115.363 8.48013 115.774 8.63928 116.007 8.82332C116.211 8.9846 118.211 11.0108 118.45 11.2727C118.643 11.4831 118.694 11.4267 118.704 11.2727C118.714 11.1193 118.728 10.2687 118.724 10.1251C118.709 9.4692 119.347 8.49535 120.072 8.49535H121.297C121.641 8.49535 121.806 8.67238 122.612 8.68019C122.735 8.68125 122.644 8.49535 122.764 8.49535H124.737C124.965 8.49535 125.112 8.51587 125.345 8.71117C125.403 8.75897 125.734 9.08258 126.204 9.54587C126.316 9.65669 126.22 10.0082 126.346 10.1326C126.448 10.2328 126.768 10.1042 126.877 10.2117C127.066 10.3994 127.265 10.5969 127.467 10.7982C127.544 10.8754 127.365 11.1471 127.373 11.324C127.379 11.4779 127.358 11.6697 127.829 11.6314C128.102 11.609 128.265 11.5926 128.382 11.7099C129.444 12.7685 130.401 13.7299 130.516 13.855C130.709 14.0654 130.84 14.091 130.84 13.8859C130.84 13.6903 130.846 10.35 130.845 10.1041C130.84 9.07953 131.834 8.4698 132.483 8.4796C132.747 8.48397 133.67 8.48688 134.688 8.48781C134.854 8.48807 135.15 8.50224 135.281 8.603C135.441 8.72561 135.765 8.66404 136.118 8.66404C136.262 8.66404 136.083 8.86013 136.482 8.8028C136.589 8.78744 136.3 8.49495 136.558 8.48966C137.327 8.47311 137.919 8.48992 138.009 8.48992C138.272 8.48992 138.394 8.45947 138.556 8.66404C138.625 8.75116 140.246 10.6054 142.104 12.7279C142.216 12.8563 142.019 13.2922 142.133 13.4223C142.21 13.5101 142.407 13.5051 142.452 13.6142C142.49 13.7066 142.405 13.9734 142.475 14.0523C142.569 14.1596 142.881 14.1907 143.023 14.1907C143.205 14.1907 143.386 14.192 143.496 14.3179C144.827 15.8377 146.159 17.3565 147.492 18.8746C147.609 19.008 147.47 19.4915 147.486 19.5096C147.689 19.7348 147.996 19.4547 147.996 19.7017C147.996 19.8172 147.993 20.8959 147.991 22.1227C147.991 22.2998 147.586 22.4876 147.585 22.6684C147.585 22.7684 147.635 22.7377 147.639 22.8374C147.654 23.2374 147.502 22.7991 147.525 23.4602C147.537 23.821 147.981 23.6218 147.988 23.9211C148.01 24.9407 147.984 25.7742 147.985 25.8916C147.986 25.9782 147.925 26.3143 147.79 26.5726C147.646 26.8497 145.979 30.0106 145.867 30.2318C145.725 30.5106 145.592 30.758 145.805 30.977C146.019 31.1964 147.605 32.7425 147.771 32.9145C147.932 33.082 147.95 33.1617 147.955 33.4089C147.96 33.6676 147.963 35.825 147.963 36.0708C147.963 36.3168 147.915 36.5448 147.671 36.5448C147.565 36.5448 146.112 36.5408 144.49 36.5364C144.269 36.5359 144.061 36.2201 143.837 36.2196C143.707 36.2191 143.577 36.4659 143.448 36.4653C143.338 36.4644 143.321 36.227 143.213 36.227C143.043 36.2264 142.769 36.5318 142.605 36.5314C141.186 36.5272 140 36.5243 139.905 36.5243C139.661 36.5243 139.458 36.4346 139.296 36.2373C139.138 36.0448 136.391 32.7707 136.249 32.6069C136.107 32.443 136.03 32.4965 135.98 32.7197C135.909 33.0373 135.479 34.4107 134.652 34.413C134.52 34.414 133.977 34.4165 133.319 34.4198C133.179 34.4205 133.071 34.1631 132.969 34.0059C132.84 33.8062 132.513 33.8825 132.3 34.1212C132.184 34.2506 131.994 34.4267 131.828 34.4271C131.126 34.4305 130.531 34.4333 130.382 34.4333C129.996 34.4333 129.938 34.4101 129.725 34.2285C129.428 33.9744 127.228 32.1914 126.924 31.9147C126.825 31.825 126.777 31.7072 126.711 31.6533C126.573 31.5413 126.422 31.642 126.414 31.8147C126.407 31.9995 126.552 32.0101 126.551 32.0992C126.543 32.9689 126.435 34.4763 125.051 34.4949C124.982 34.4959 124.893 34.4969 124.787 34.4976C124.699 34.4983 124.599 34.4991 124.491 34.4996C124.318 34.5006 124.186 34.1894 123.981 34.1901C123.838 34.1906 123.644 34.2744 123.494 34.2749C123.332 34.2755 123.169 34.2054 123.007 34.2054C122.659 34.2069 122.306 34.5073 122.027 34.5073C121.743 34.5073 121.519 34.5069 121.4 34.5055C121.356 34.5051 121.311 34.5051 121.266 34.5051C120.997 34.5055 120.75 34.2673 120.506 34.2053C120.339 34.1633 120.075 34.2383 119.951 34.1131C119.616 33.7751 116.35 30.4321 116.027 30.109C115.591 29.6733 114.963 30.0661 115.398 30.4983C115.977 31.0722 116.488 31.4834 116.727 31.738C116.98 32.0101 117.142 32.2095 117.148 32.6143C117.153 33.0155 117.142 33.766 117.148 34.0747C117.153 34.3924 117.148 34.5004 116.782 34.5004C116.418 34.5004 113.168 34.5056 112.772 34.5056C112.377 34.5056 112.438 34.4751 112.225 34.3206C112.012 34.1672 110.933 33.2089 110.699 33.0038C110.483 32.8138 110.233 32.8095 110.233 33.0348C110.233 33.2521 110.229 33.9721 110.223 34.2596C110.218 34.4798 110.243 34.5308 109.934 34.5308C109.628 34.5308 107.277 34.516 107.125 34.516C106.973 34.516 106.887 34.5008 106.735 34.3573C106.586 34.2164 106.167 33.6807 106.045 33.5576C105.923 33.4349 105.761 33.3989 105.761 33.6039V34.1984C105.761 34.3829 105.721 34.5673 105.508 34.5673C105.295 34.5673 103.338 34.5621 103.034 34.5621C102.73 34.5621 102.563 34.4186 102.37 34.2339C102.192 34.0639 99.8457 31.6774 99.7542 31.5854C99.6631 31.4928 99.3639 31.3286 99.3589 31.5957C99.3555 31.78 99.3641 33.8911 99.3589 34.1371C99.3541 34.3606 99.374 34.5008 99.1161 34.5057C98.8707 34.5106 96.6724 34.5106 96.4593 34.5106C96.2463 34.5106 96.1754 34.5326 95.8915 34.2904C95.5976 34.0397 93.8995 32.3793 93.7322 32.2C93.5691 32.0251 93.3365 31.7951 93.3365 32.0769V33.9678C93.3365 34.2135 93.3417 34.4545 92.9971 34.4596C92.9548 34.4602 92.8857 34.4606 92.7967 34.4606C92.6472 34.4606 92.4867 34.0449 92.2567 34.0447C92.1282 34.0438 91.9081 34.1457 91.7699 34.1445C91.6561 34.144 91.4583 34.1595 91.3441 34.2135C91.1795 34.2915 91.108 34.4533 90.9491 34.4525C90.6368 34.4506 90.3937 34.4493 90.3201 34.4493C90.0768 34.4493 89.9984 34.4479 89.8285 34.2804C89.6459 34.101 89.2962 33.7578 89.1337 33.6042C88.985 33.4633 88.8246 33.3682 88.8246 33.5838C88.8246 33.7991 88.8298 34.1167 88.8298 34.2805C88.8298 34.4369 88.7992 34.5061 88.5866 34.5061C88.3736 34.5061 86.4068 34.511 86.133 34.511C85.8576 34.511 85.7933 34.5061 85.4895 34.2602C85.1852 34.0146 83.8383 32.6414 83.7253 32.5383C83.5782 32.405 83.3737 32.359 83.3751 32.5942C83.3803 33.3942 82.6961 34.4853 82.1078 34.4908C81.9304 34.4921 81.2513 34.4937 80.4629 34.4959C80.2135 34.4963 80.0597 34.1133 79.6643 34.1219C79.307 34.1294 79.3051 34.498 79.1168 34.498C79.0422 34.4984 78.9684 34.4984 78.8961 34.499C78.7779 34.499 78.8003 34.2192 78.6909 34.2138C78.3716 34.1988 78.1958 34.4995 78.0446 34.4998C77.6994 34.5003 77.4644 34.501 77.4234 34.501C77.2409 34.501 77.2461 34.5368 76.9724 34.2906C76.6988 34.045 72.7244 30.3029 72.5265 30.1301C72.3744 29.9962 72.1662 29.7191 72.1615 30.0326C72.1594 30.1756 72.1601 31.2003 72.1615 32.3532C72.1615 32.4954 71.9236 32.538 71.7559 32.6688C71.6497 32.7515 71.5114 32.879 71.505 33.0146C71.49 33.3374 71.657 33.1217 71.657 33.3216C71.657 33.5064 71.49 33.3909 71.4974 33.7985C71.4992 33.8947 71.7559 33.8212 71.7559 34.1829C71.7559 34.3832 72.1641 34.3717 72.1644 34.4898L72.1665 35.8888C72.1665 36.1343 72.1767 36.5346 71.842 36.5346C71.4456 36.5346 69.6268 36.5194 69.3835 36.5194C69.1402 36.5194 68.9423 36.4733 68.5772 36.1963C68.4402 36.0926 67.5327 35.2027 66.4416 34.1204C66.221 33.9014 66.4864 33.744 65.9689 33.26C65.5659 32.8837 65.49 33.0741 65.3455 32.9296C65.2534 32.8381 65.2014 32.6369 65.1098 32.5454C64.9956 32.4318 64.8262 32.513 64.7137 32.4006C63.8643 31.5526 63.0162 30.7033 62.1695 29.8526C61.9843 29.6656 61.7537 29.5041 61.7537 29.7809C61.7537 30.0578 61.7338 33.6755 61.7338 33.9821C61.7338 34.2899 61.7289 34.5101 61.475 34.5101C61.2296 34.5101 59.6147 34.5155 59.3915 34.5101C59.1764 34.5057 59.0875 34.5052 58.8746 34.3517C58.6615 34.1979 58.3219 33.7935 58.1751 33.6447C58.0374 33.5051 57.7494 33.373 57.7494 33.7008V34.2543C57.7494 34.4696 57.7292 34.5102 57.5162 34.5102C57.3033 34.5102 56.4415 34.5053 56.198 34.5053C55.955 34.5053 55.8084 34.4494 55.61 34.2491C55.4071 34.0442 54.7736 33.46 54.6267 33.3162C54.4864 33.1797 54.282 32.9938 54.282 33.2087V34.0444C54.282 34.3205 54.3324 34.5159 54.0387 34.5208C53.7632 34.5257 52.2794 34.5208 52.0616 34.5208C51.8401 34.5208 51.7726 34.5363 51.5292 34.3519C51.286 34.167 50.3431 33.194 50.1655 33.0245C50.0059 32.8728 49.7194 32.7223 49.7194 32.9989V34.0697C49.7194 34.2853 49.7092 34.5006 49.4661 34.5006C49.3729 34.5006 49.051 34.5008 48.678 34.502C48.478 34.5027 48.2786 34.0746 48.0773 34.0751C47.908 34.0758 47.5982 34.1371 47.4463 34.1751C47.3706 34.1944 47.393 34.3678 47.4387 34.4367C47.481 34.5004 47.2524 34.5057 47.2257 34.5057C46.9772 34.5057 46.9163 34.5619 46.6731 34.3471C46.4299 34.1317 45.4514 33.1684 45.279 32.9992C45.1215 32.8447 44.9139 32.7229 44.9139 32.9992V34.0857C44.9139 34.4239 44.9697 34.5266 44.6705 34.5212C44.3952 34.5166 42.4807 34.5264 42.1968 34.5212C41.9212 34.5166 41.8773 34.5776 41.6697 34.3778C41.4799 34.1952 41.0764 33.737 40.899 33.5529C40.7462 33.3938 40.5289 33.2965 40.5289 33.5731C40.5289 33.8495 40.5341 34.042 40.5391 34.2597C40.5441 34.4799 40.4943 34.513 40.207 34.4826C40.0625 34.4673 40.093 34.2214 39.8345 34.2057C39.7111 34.1987 39.5478 34.3441 39.3707 34.3441C39.2392 34.3441 39.1719 34.5119 39.0203 34.5119H38.7471C38.6525 34.5125 38.5863 34.3176 38.4887 34.3209C38.2909 34.3287 38.1907 34.5126 38.0558 34.5126C37.132 34.5134 36.2111 34.5131 35.9769 34.5105C35.49 34.5056 35.4599 34.5211 35.1657 34.2037C34.8704 33.8846 32.5902 31.5184 32.408 31.3341C32.2255 31.1492 31.9719 30.9396 31.9719 31.2467C31.9719 31.4933 31.9681 34.1424 31.9646 35.3819C31.9634 35.6867 31.5791 35.7331 31.5309 35.7353C31.371 35.7431 31.318 35.8429 31.2952 36.1811C31.2902 36.2569 31.3189 36.5423 31.0442 36.5424C30.3172 36.5427 29.2466 36.5384 29.0368 36.5346C28.9894 36.5337 28.9327 36.5351 28.8693 36.5309C28.6947 36.5191 28.6457 36.25 28.3981 35.9654C28.3772 35.9411 27.9307 35.7522 27.7975 35.612C27.615 35.42 27.6453 35.9501 27.2334 35.514C25.2172 33.3789 19.1115 26.9973 18.9486 26.824C18.7797 26.6446 18.609 26.5323 18.6041 26.204C18.6024 26.0866 18.6025 24.2757 18.6038 22.0613C18.6038 21.942 18.8971 22.0367 18.9006 21.9153C18.9085 21.6542 18.6041 21.4196 18.6041 21.2776C18.6041 21.2086 18.6045 21.1395 18.6045 21.0699C18.6042 20.9396 19.0302 21.1006 19.0223 20.9621C19.0019 20.5936 18.6045 20.4462 18.6047 20.2091C18.6066 17.0222 18.6092 13.7318 18.6092 13.6041C18.6092 13.3584 18.6143 13.1023 18.4267 12.9128C18.2585 12.7428 17.4686 11.9648 17.2657 11.7544C17.0828 11.5649 17.002 11.4983 17.002 11.1551C17.0008 10.848 17.0211 9.02008 17.0211 9.02008Z" fill="url(#paint0_linear_718_4565)"/>
<g opacity="0.3">
<path d="M21.7392 29.1477C21.4066 29.1477 21.0687 28.9405 21.0637 28.4773C21.0622 28.3273 21.0634 26.2518 21.0658 23.182C21.0666 22.8678 21.3616 22.8536 21.5566 22.8439C21.5713 22.8433 21.5804 22.8419 21.586 22.8407C21.5886 22.8253 21.5887 22.7972 21.5887 22.7773C21.589 22.7062 21.5894 22.6088 21.6584 22.5317C21.7277 22.4537 21.8179 22.4494 21.8718 22.4466C21.8774 22.4464 21.8831 22.446 21.8887 22.4455C21.8977 22.3604 21.8724 22.1408 21.7463 22.0622C21.6987 22.0328 21.6149 22.0029 21.5339 21.9737C21.3219 21.898 21.0816 21.8118 21.0751 21.6016C21.0671 21.3549 21.0677 21.0848 21.0684 20.8237C21.0687 20.7083 21.0689 20.5953 21.0684 20.4874C21.0676 20.3353 21.1414 20.2163 21.2007 20.1206C21.2226 20.0854 21.2555 20.0323 21.2573 20.0132C21.2573 19.9996 21.2553 19.9955 21.2401 19.971C21.2181 19.9355 21.185 19.8823 21.185 19.7947C21.185 19.6529 21.3306 19.6241 21.4394 19.6084C21.4218 19.594 21.4043 19.5802 21.3899 19.5687C21.3522 19.5396 21.3155 19.5091 21.2798 19.4775L21.2708 19.4694C21.2011 19.4069 21.0714 19.2907 21.0693 19.084C21.0474 17.031 21.0637 15.315 21.0697 14.6691C21.0709 14.5359 21.0718 14.4565 21.0714 14.439C21.0679 14.1742 21.0371 14.1545 20.8468 14.1521C20.5719 14.1485 19.8369 14.1484 19.7539 14.1484C19.4549 14.1484 19.2617 13.9269 19.2617 13.5839C19.2617 13.5654 19.262 11.7259 19.2696 11.5479C19.2869 11.1447 19.5113 10.9139 19.9015 10.8979C20.0062 10.8937 20.8078 10.8914 22.2842 10.8914C23.5209 10.8914 24.9021 10.893 25.5373 10.8937L25.883 10.894C26.1841 10.894 26.5305 10.9621 26.5354 11.4927C26.5387 11.8397 26.5433 13.3688 26.5433 13.5839C26.5433 13.8967 26.3384 14.1325 26.0667 14.1325C25.9532 14.1325 25.6802 14.1305 25.4175 14.1285C25.2288 14.1269 25.04 14.1257 24.8512 14.1251C24.676 14.1251 24.632 14.1473 24.632 14.3149L24.6338 20.8116L24.636 28.385C24.636 28.6085 24.636 29.1313 24.0367 29.1314L24.0251 29.1313C23.9737 29.1307 23.8985 29.1303 23.8066 29.1303C23.2078 29.1303 21.9665 29.1404 21.7632 29.147L21.7392 29.1477ZM28.572 27.2189C28.2224 27.2189 28.0438 27.0304 28.0102 26.6257C28.0019 26.5244 27.9979 25.5311 27.9979 23.6731C27.9979 23.5963 28.0509 23.3724 28.2133 23.368C28.2321 23.368 28.249 23.3704 28.2642 23.3745C28.2636 23.3399 28.2607 23.3054 28.2555 23.2712C28.2468 23.2509 28.189 23.1776 28.1682 23.1609C28.1594 23.154 28.1504 23.1475 28.1412 23.1412C28.0877 23.1029 27.9981 23.039 27.9981 22.9124C28.0002 18.5769 28.0191 11.8134 28.0217 11.6037C28.0267 11.2115 28.3231 10.9228 28.7265 10.9174C28.9337 10.9147 30.7854 10.9181 31.8977 10.92L32.7075 10.9212C33.1212 10.9212 33.2733 11.1997 33.2779 11.4601C33.2818 11.6801 33.2887 12.7688 33.2857 12.9619C33.2805 13.2856 33.0231 13.5576 32.7118 13.568L32.6704 13.5695C32.6349 13.5711 32.5917 13.5729 32.5428 13.5729L32.5242 13.5728C32.4058 13.571 32.345 13.4613 32.3008 13.3813C32.2875 13.356 32.2726 13.3316 32.2564 13.3081C32.2489 13.3076 32.2414 13.3073 32.234 13.3073C32.2013 13.3073 32.1812 13.3128 32.1721 13.3165C32.1682 13.3271 32.1644 13.3383 32.1606 13.3494C32.133 13.4303 32.0815 13.581 31.9194 13.5835C31.7423 13.5858 31.5853 13.5878 31.5035 13.5878C31.3673 13.5878 31.2921 13.7712 31.2921 13.898C31.2921 14.0525 31.2938 16.336 31.2979 16.5267C31.3026 16.7471 31.5496 16.7535 31.5778 16.7535C31.6726 16.7535 31.8737 16.7572 32.0907 16.7614C32.3374 16.7662 32.6172 16.7715 32.7679 16.7715C33.082 16.7715 33.28 16.9645 33.2971 17.2877C33.3097 17.5201 33.2958 18.7592 33.2856 19.0123C33.2717 19.3664 32.9501 19.6405 32.6723 19.6487C32.4928 19.6541 31.9383 19.6548 31.5368 19.6548C31.4456 19.6548 31.4139 19.6871 31.4035 19.6978C31.3347 19.7679 31.3263 19.9393 31.3276 20.1144L31.3285 20.2059C31.3394 21.283 31.334 22.1754 31.3124 22.8585C31.3074 23.0183 31.175 23.0841 31.1039 23.1196L31.0834 23.1299C31.0807 23.1751 31.0861 23.2733 31.0944 23.3157C31.0959 23.3223 31.0973 23.325 31.0973 23.325C31.0985 23.3248 31.1157 23.3289 31.1269 23.3318C31.1709 23.3439 31.3047 23.38 31.3044 23.5389C31.3032 23.9024 31.3078 24.2506 31.3101 24.3128C31.3152 24.4761 31.3542 24.5137 31.5194 24.5137C31.7163 24.5137 32.466 24.5148 32.6897 24.5171C33.0317 24.522 33.2704 24.8065 33.2704 25.2087C33.2704 25.4294 33.2667 26.3922 33.2627 26.6451C33.2576 26.9945 33.066 27.2115 32.7628 27.2115C32.6569 27.2115 31.7328 27.2133 30.7781 27.2152C29.7571 27.2168 28.7012 27.2189 28.572 27.2189ZM35.1392 27.3377C34.9698 27.3377 34.7811 27.3203 34.667 27.1914C34.5886 27.1028 34.5592 26.9808 34.5772 26.8185C34.5912 26.6943 36.3725 11.9381 36.4038 11.7394C36.4498 11.4524 36.6609 11.0215 37.0544 11.0088C37.1502 11.0069 37.2459 11.0062 37.3417 11.0066C37.9482 11.0066 39.2791 11.0183 39.4872 11.0205C39.9387 11.0253 40.1798 11.2511 40.2692 11.7526C40.3041 11.9467 41.0275 17.1479 41.6087 21.3271C41.9826 24.0148 42.3053 26.3359 42.33 26.4972C42.3782 26.8143 42.3842 27.056 42.2566 27.2063C42.1847 27.2911 42.0798 27.3338 41.9447 27.3338H41.9446C41.6446 27.3338 40.1351 27.3145 39.8572 27.306C39.3999 27.2923 39.1625 27.0856 39.1518 26.6913C39.1493 26.6024 39.151 26.3695 39.1531 26.0749C39.1571 25.5335 39.1626 24.792 39.1426 24.6018C39.1099 24.2889 39.0639 24.1414 38.7858 24.1414C38.6519 24.1414 38.5035 24.1426 38.3658 24.1436C38.2461 24.1447 38.1343 24.1455 38.0472 24.1455C37.7993 24.1455 37.7652 24.2673 37.7652 24.3988C37.7652 24.572 37.7547 25.1313 37.7454 25.625C37.7376 26.0384 37.7302 26.4287 37.7302 26.5283C37.7302 27.1565 37.3881 27.285 37.184 27.3054C36.9067 27.3337 35.7838 27.3377 35.1392 27.3377ZM38.4111 17.4284C38.3496 17.8607 38.0478 20.6119 38.0352 20.7915C38.0233 20.9555 38.0787 21.0421 38.2093 21.0637C38.3604 21.0893 38.4959 21.0809 38.6616 21.0368C38.7241 21.0204 38.7585 21.0113 38.739 20.7626C38.7319 20.6711 38.6877 20.1264 38.634 19.4935C38.6168 19.2888 38.8349 19.2388 38.9652 19.2088L38.9853 19.2042C38.9554 19.183 38.9236 19.1617 38.899 19.1449C38.771 19.0584 38.6907 19.0024 38.6516 18.9423C38.5707 18.818 38.564 18.7384 38.5556 18.6379L38.5522 18.599C38.471 17.7606 38.4296 17.5053 38.4111 17.4284ZM88.6285 27.3283C88.2955 27.3283 87.9575 27.1211 87.9529 26.6578C87.9511 26.4594 87.9542 23.3068 87.9571 20.258C87.9599 17.4646 87.9625 14.8262 87.9611 14.7061C87.9575 14.4422 87.9266 14.4225 87.736 14.4198C87.4548 14.4158 87.044 14.4156 86.9246 14.4156C86.6049 14.4156 86.4322 14.0758 86.4322 13.7562C86.4322 13.5135 86.4507 11.7962 86.4571 11.633C86.4734 11.2299 86.6974 10.9988 87.088 10.9825C87.1658 10.9792 87.5795 10.9784 88.1519 10.9771L88.3874 10.9764C88.5456 10.9764 88.5893 11.1202 88.6057 11.1743L88.6092 11.1862C88.6869 11.1952 88.7686 11.2097 88.8547 11.2251C89.0061 11.252 89.1628 11.2799 89.3103 11.2799C89.3872 11.2799 89.4537 11.2724 89.5136 11.257C89.5225 11.2495 89.5486 11.2011 89.564 11.1721C89.6056 11.0942 89.6686 10.9764 89.7977 10.9764C90.8148 10.9764 91.8402 10.9778 92.3241 10.9783L92.6009 10.9786C92.9019 10.9786 93.2479 11.0468 93.2531 11.5778C93.2557 11.8143 93.2506 12.6103 93.2471 13.1916C93.2457 13.3799 93.2447 13.5682 93.2441 13.7565C93.2441 14.0263 93.0784 14.4001 92.7674 14.4001C92.6535 14.4001 92.4308 14.398 92.2168 14.3958C92.0194 14.394 91.8295 14.392 91.7392 14.392C91.5642 14.392 91.52 14.4145 91.52 14.5821L91.5214 17.8763C91.5214 17.9761 91.4699 18.0587 91.4247 18.1317C91.3964 18.177 91.3646 18.2284 91.3646 18.2583C91.3646 18.282 91.3855 18.3266 91.4041 18.3658C91.4342 18.4299 91.4686 18.5027 91.4686 18.5848C91.4686 18.6097 91.4788 18.6437 91.4897 18.6796C91.5046 18.7297 91.5218 18.7865 91.5218 18.8503C91.522 19.4964 91.5204 20.1718 91.519 20.8429C91.516 22.1879 91.513 23.4582 91.5236 24.4851C91.5245 24.5616 91.5033 24.6228 91.4607 24.6662C91.4333 24.6943 91.3835 24.7277 91.3025 24.7277C91.2529 24.7277 91.2054 24.7158 91.1632 24.7054C91.1466 24.7013 91.1217 24.6951 91.113 24.6946C91.076 24.6972 90.9899 24.7993 90.9899 24.8568C90.9957 24.8687 91.0445 24.897 91.1428 24.897C91.1738 24.897 91.2047 24.8938 91.2277 24.8883C91.3093 24.8686 91.3841 24.8891 91.4376 24.9434C91.5262 25.0337 91.525 25.1896 91.5245 25.2647L91.5244 25.2761L91.5246 26.5661C91.5246 26.7895 91.5246 27.3126 90.9243 27.3126H90.9139C90.8623 27.312 90.7869 27.3119 90.6948 27.3119C90.1043 27.3119 88.8633 27.3217 88.6518 27.328L88.6285 27.3283ZM104.562 27.2198C104.199 27.2198 103.998 27.0186 103.965 26.6216C103.933 26.2326 103.975 11.7301 103.977 11.5994C103.981 11.2157 104.3 10.9227 104.717 10.9178C104.924 10.9151 106.782 10.9185 107.893 10.9204L108.698 10.9216C109.044 10.9216 109.262 11.128 109.269 11.4601C109.272 11.6758 109.279 12.7621 109.276 12.962C109.271 13.286 109.013 13.5578 108.702 13.5682C108.486 13.5749 107.715 13.588 107.494 13.588C107.358 13.588 107.283 13.7716 107.283 13.8984C107.283 14.1001 107.284 16.3393 107.288 16.5267C107.293 16.7474 107.54 16.7537 107.568 16.7537C107.663 16.7537 107.864 16.7575 108.081 16.7617C108.328 16.7665 108.608 16.7716 108.759 16.7716C109.072 16.7716 109.27 16.9647 109.288 17.2877C109.3 17.5147 109.286 18.7559 109.276 19.0125C109.262 19.3668 108.94 19.6406 108.662 19.6488C108.46 19.6549 107.758 19.6549 107.527 19.6549C107.436 19.6549 107.404 19.6872 107.394 19.6979C107.325 19.7681 107.316 19.9397 107.318 20.1145C107.318 20.2224 107.315 20.7821 107.31 21.4907C107.304 22.6076 107.294 24.1369 107.3 24.3138C107.305 24.4765 107.344 24.514 107.51 24.514C107.724 24.514 108.459 24.5152 108.68 24.5174C109.022 24.5224 109.26 24.8067 109.26 25.209C109.26 25.4194 109.257 26.3891 109.253 26.6453C109.248 26.9947 109.056 27.2118 108.753 27.2118C108.647 27.2118 107.723 27.2137 106.768 27.2155C105.748 27.2176 104.692 27.2198 104.562 27.2198ZM64.1958 29.1675C64.09 29.1675 63.5444 29.1666 62.9807 29.1657C62.3783 29.1645 61.7554 29.1634 61.6262 29.1634C61.2624 29.1634 61.0612 28.9622 61.0285 28.5656C61.0145 28.3959 61.0208 25.2774 61.0282 21.6667C61.0346 18.5048 61.0418 14.9211 61.0357 12.9974C61.035 12.8087 61.1587 12.7635 61.2116 12.7442L61.221 12.7409L61.2212 12.7368C61.2213 12.7343 61.2213 12.7318 61.2212 12.7294C61.2186 12.7288 61.2161 12.7281 61.2136 12.7273C61.1656 12.7126 61.0388 12.6736 61.0369 12.5022C61.0333 12.1711 61.0342 11.8603 61.0397 11.5778L61.0401 11.5517C61.0447 11.1614 61.3435 10.8749 61.7505 10.8704C61.9574 10.8677 63.8753 10.871 65.0127 10.8729C65.4295 10.8737 65.7413 10.8742 65.8251 10.8742C66.1707 10.8742 66.3893 11.0805 66.3956 11.4125C66.3991 11.6285 66.4063 13.0977 66.4033 13.2941C66.3982 13.618 66.1407 13.8899 65.8292 13.8997C65.6187 13.907 65.1287 13.9197 64.9025 13.9197C64.7663 13.9197 64.6908 14.1035 64.6908 14.2303C64.6908 14.414 64.6928 17.239 64.6967 17.4277C64.6995 17.5576 64.7937 17.6237 64.9767 17.6237C65.0704 17.6237 65.1966 17.6209 65.3326 17.6181C65.4957 17.6141 65.6588 17.6117 65.822 17.6109C66.1362 17.6109 66.334 17.804 66.3512 18.1275C66.3628 18.3478 66.35 19.8378 66.3397 20.1028C66.3258 20.4552 66.0268 20.7004 65.7565 20.7086C65.5647 20.7143 65.2448 20.7143 64.9354 20.7143C64.8535 20.7143 64.8158 20.743 64.7944 20.7649C64.7274 20.8332 64.6941 20.9811 64.6955 21.2049C64.6966 21.3661 64.6927 21.5912 64.6882 21.8521C64.6782 22.4315 64.6646 23.225 64.6965 23.9091C64.7027 24.0483 64.6391 24.1197 64.5968 24.1667C64.5636 24.2039 64.5512 24.2178 64.5526 24.2731L64.5529 24.2823C64.6678 24.3326 64.6634 24.4671 64.6615 24.5287C64.6569 24.6746 64.5619 24.7446 64.4858 24.8012C64.417 24.852 64.3459 24.9044 64.2946 25.0274C64.2727 25.0795 64.2754 25.1154 64.2792 25.1252C64.2808 25.1253 64.2858 25.1264 64.2955 25.1264C64.3023 25.126 64.3137 25.124 64.3268 25.1221C64.3588 25.1173 64.3986 25.1113 64.4408 25.1113C64.522 25.1113 64.5862 25.1348 64.6317 25.1809C64.6615 25.2112 64.6968 25.266 64.6963 25.3554C64.6886 27.0214 64.6959 28.5824 64.6959 28.5981C64.6902 28.9505 64.4985 29.1675 64.1958 29.1675ZM52.8508 27.191C52.4258 27.191 51.9992 27.1892 51.766 27.1883L51.596 27.1877C51.379 27.1877 51.1602 27.0445 51.1602 26.7245V20.5823C51.0504 21.1624 50.7539 22.8695 50.5282 24.1697C50.315 25.3975 50.1467 26.3677 50.1226 26.4737L50.1045 26.5557C50.0492 26.8102 49.9864 27.0988 49.696 27.0988C49.5874 27.0988 49.3667 27.0972 49.1524 27.0959C48.9897 27.0945 48.8269 27.0936 48.6642 27.0931C48.4205 27.0931 48.2466 26.9398 48.1743 26.6612C48.1145 26.4318 47.045 21.2053 46.9085 20.5363C46.8893 21.2246 46.8777 26.1283 46.8777 26.6114C46.8777 26.9199 46.7411 27.07 46.4599 27.07C46.3954 27.07 46.1922 27.0764 45.9349 27.0844C45.5077 27.0979 44.9229 27.1163 44.6062 27.1163C44.502 27.1163 44.4349 27.1143 44.3952 27.1102C44.0309 27.0739 44.0309 26.7658 44.0309 26.6176C44.0307 26.5419 44.0304 26.4661 44.03 26.3903C44.005 21.3966 44.0037 17.2581 44.0265 14.7375C44.0283 14.5412 44.2105 14.4983 44.298 14.4778C44.308 14.4753 44.3203 14.4725 44.3326 14.4693C44.2689 14.4323 44.1509 14.363 44.1575 14.2176C44.1641 14.07 44.2637 14.0152 44.3365 13.9917C44.3048 13.9582 44.2723 13.9252 44.2393 13.8928C44.0989 13.7538 44.0258 13.677 44.0258 13.5855L44.0248 11.7075C44.0206 11.4789 44.0705 11.3075 44.1734 11.1998C44.2505 11.1194 44.3522 11.0777 44.476 11.0759C45.4679 11.0688 46.4597 11.0642 47.4516 11.0622C47.6525 11.0622 47.7671 11.0629 47.8016 11.0644C48.0674 11.0744 48.3303 11.2941 48.3875 11.5543C48.4091 11.6529 48.5414 12.4019 48.6944 13.2692C48.8624 14.2203 49.0712 15.4039 49.0962 15.5038C49.0982 15.512 49.1003 15.5192 49.1026 15.5258C49.1036 15.5221 49.1045 15.5184 49.1052 15.5147C49.1605 15.2497 49.756 11.5939 49.7609 11.5619C49.8058 11.2668 50.0264 11.062 50.3099 11.0526C50.3253 11.052 50.3657 11.0518 50.4258 11.0518C50.801 11.0518 51.9891 11.0625 52.7752 11.0695C53.1835 11.0731 53.4921 11.0759 53.5425 11.0759C53.9137 11.0759 54.2972 11.2721 54.3123 11.6472C54.3248 11.9596 54.4824 26.4687 54.4824 26.5755C54.4824 26.9765 54.2846 27.1478 54.0997 27.1745C54.0694 27.1791 53.9888 27.191 52.8508 27.191ZM72.8499 27.2566C71.6799 27.2566 70.1306 27.251 69.778 27.2429C68.6408 27.2168 68.0631 26.5524 68.0609 25.2678C68.0609 25.0443 68.3157 25.0241 68.4678 25.012L68.4801 25.0109C68.4565 24.9916 68.4327 24.9726 68.4086 24.954C68.2469 24.8272 68.0638 24.6837 68.0646 24.4934C68.0808 20.3691 68.1112 13.3576 68.1314 12.7382C68.1732 11.4701 69.2649 10.7122 70.2965 10.7122C70.6288 10.7122 71.2259 10.7143 71.8236 10.7164C72.5758 10.719 73.3295 10.7217 73.5559 10.7201H73.5708C74.1989 10.7201 74.7934 10.9735 75.2448 11.4338C75.6514 11.8483 75.8822 12.3717 75.8781 12.8703C75.8775 12.9461 75.8762 13.1731 75.8767 13.4509C75.8767 13.5622 75.801 13.6308 75.7392 13.6753C75.8039 13.7162 75.8158 13.7811 75.8158 13.8237L75.8159 13.8343C75.8166 13.8769 75.8185 14.007 75.6755 14.0579C75.6482 14.0676 75.6222 14.0692 75.4731 14.0745C75.4173 14.0765 75.3242 14.0798 75.2516 14.0846C75.2585 14.1067 75.2644 14.1309 75.2644 14.1579C75.2643 14.2077 75.2481 14.2493 75.2352 14.2824C75.2327 14.2888 75.2303 14.2952 75.2279 14.3017C75.2609 14.3386 75.3397 14.403 75.3898 14.4436C75.5225 14.552 75.5989 14.6168 75.6231 14.691C75.6361 14.7307 75.6362 14.7745 75.6363 14.8209C75.6363 14.8368 75.6363 14.861 75.6376 14.8809C75.6936 14.8828 75.765 14.8946 75.8167 14.9486C75.8776 15.0123 75.8749 15.0922 75.8726 15.1565C75.8671 15.3349 75.8129 15.4134 75.7625 15.4735L75.7567 15.4804L75.7673 15.4923C75.8067 15.5361 75.8725 15.6094 75.8717 15.7457C75.8713 15.8623 75.8713 15.9814 75.8713 16.1023C75.8713 16.1897 75.8081 16.251 75.7571 16.3003C75.7444 16.3127 75.7255 16.3308 75.7185 16.3402C75.6881 16.4241 75.6579 16.5281 75.646 16.607C75.7174 16.6262 75.8701 16.676 75.8699 16.8594C75.8692 18.5955 75.8669 20.5863 75.8648 22.1859C75.8628 23.1785 75.8621 24.1711 75.8625 25.1637C75.8707 26.4472 75.0516 27.2324 74.2551 27.2503C74.0802 27.2545 73.5812 27.2566 72.8499 27.2566ZM71.6647 13.825C71.4619 13.825 71.4064 13.883 71.4064 14.0946L71.4056 14.5108C71.4034 15.6084 71.3963 18.9491 71.398 21.36C71.398 21.4985 71.398 21.6339 71.3985 21.7667L71.3988 22.0709C71.4011 23.7492 71.4089 24.0679 71.4132 24.1083C71.4338 24.2952 71.5024 24.2987 71.6161 24.3044C71.7144 24.3095 71.8324 24.3075 71.9458 24.306C72.0029 24.305 72.0587 24.3041 72.1103 24.3041C72.1884 24.3041 72.2738 24.287 72.2991 24.0825C72.3287 23.8109 72.3608 14.5207 72.3608 14.0546C72.3608 13.8395 72.1639 13.8333 72.1415 13.8333C72.0759 13.8333 71.9859 13.8311 71.8968 13.829C71.8113 13.8272 71.726 13.825 71.6647 13.825ZM82.1563 26.7685C82.1481 26.7642 82.1403 26.7571 82.1291 26.7527C82.112 26.7478 82.1078 26.7474 82.0928 26.7527C82.0774 26.7581 81.9278 26.7429 81.9252 26.7992C81.9472 26.9652 82.0425 27.1309 82.3052 27.1399C82.3236 27.1389 82.4022 27.0661 82.3942 27.0498C82.3165 26.9745 82.2442 27.0862 82.1674 26.9696C82.1364 26.9232 82.1753 26.7779 82.1563 26.7685Z" fill="black"/>
<path d="M82.3069 27.2661L82.3017 27.2658C82.0211 27.2563 81.8392 27.0921 81.8024 26.8162L81.8008 26.8048L81.8013 26.7935C81.8088 26.6313 82.0002 26.6291 82.0632 26.6284L82.0706 26.6283C82.0989 26.6209 82.1399 26.6247 82.1646 26.6319L82.1748 26.6352C82.194 26.6427 82.2082 26.6521 82.2158 26.657C82.297 26.6974 82.2891 26.7881 82.284 26.8482C82.2824 26.8649 82.2813 26.8816 82.2806 26.8984C82.3549 26.8893 82.4271 26.9062 82.4816 26.9592L82.4973 26.9744L82.507 26.994C82.5165 27.0135 82.535 27.0659 82.4991 27.1277C82.4871 27.1482 82.4018 27.2612 82.3122 27.2656L82.3069 27.2661Z" fill="black"/>
<path d="M84.6723 27.2351C84.3946 27.2351 83.8105 27.226 83.295 27.2179L82.7887 27.2098C82.6517 27.2042 82.6381 27.0551 82.6335 27.0055C82.6326 26.9953 82.6319 26.9855 82.6307 26.9769C82.6108 26.9452 82.5607 26.9037 82.5198 26.87C82.4779 26.8353 82.4345 26.7995 82.4006 26.7593C82.3876 26.744 82.3701 26.7266 82.3513 26.7076C82.2785 26.6341 82.196 26.5511 82.1795 26.4494C82.1792 26.4473 82.1787 26.4456 82.1783 26.4439C82.1653 26.4485 82.1536 26.4562 82.1442 26.4663C82.1348 26.4764 82.1279 26.4887 82.1242 26.5021L82.1188 26.5192C82.1031 26.5698 82.0663 26.688 81.9483 26.688L81.9329 26.687C81.9029 26.6834 81.8056 26.66 81.8085 26.5084C81.8086 26.3338 81.8148 25.0903 81.8207 23.8876C81.8266 22.6985 81.8321 21.5753 81.8321 21.4243C81.8321 21.0642 81.7426 21.0642 81.6294 21.0642L81.614 21.0645C81.5252 21.0659 81.4364 21.065 81.3476 21.0618C81.2849 21.0596 81.2221 21.0584 81.1593 21.0582C80.9439 21.0582 80.9439 21.1689 80.9439 21.2285C80.9439 21.3474 80.9379 22.6258 80.9321 23.8621C80.9264 25.0968 80.9203 26.3734 80.9203 26.4915C80.9203 26.9238 80.7288 27.1924 80.4205 27.1924C80.3451 27.1924 80.1918 27.1934 79.9992 27.1949C79.6725 27.1973 79.2333 27.2003 78.8683 27.2003C78.53 27.2003 78.3198 27.1977 78.2263 27.192C77.8522 27.1704 77.6926 26.9908 77.6926 26.592C77.6926 26.3916 77.7118 21.1391 77.7271 16.9188C77.7368 14.2241 77.7453 11.8966 77.7453 11.8405C77.7453 11.5056 77.94 10.9741 78.4622 10.9741C78.5879 10.9741 79.2185 10.9773 79.9917 10.9815C81.2422 10.9879 82.7985 10.996 83.2972 10.996C83.3654 10.996 83.413 10.9958 83.4365 10.9956L83.4654 10.9955C84.6445 10.9955 85.2967 12.0033 85.3143 12.731C85.318 12.8938 85.3202 13.2797 85.3211 13.8786C85.3211 13.9869 85.2202 14.0397 85.1315 14.0864C85.1143 14.0952 85.0972 14.1044 85.0803 14.1139C85.0979 14.1277 85.123 14.1447 85.1405 14.1565C85.2251 14.2136 85.3211 14.2786 85.3211 14.3886C85.3202 15.5363 85.3139 16.9744 85.3064 17.2029C85.2694 18.3512 84.478 18.8735 84.18 19.0703C84.1463 19.0925 84.1188 19.1107 84.0997 19.1251C84.0159 19.1884 83.9774 19.2617 83.9825 19.3013C83.9864 19.3315 84.0244 19.3528 84.0558 19.3654C84.2598 19.4482 85.2763 19.8962 85.2834 20.6115C85.289 21.1985 85.2893 25.6026 85.2893 26.4795C85.2893 26.8873 85.2509 27.2255 84.7797 27.2339C84.7525 27.2349 84.7163 27.2351 84.6723 27.2351ZM81.1158 13.6014V13.7274C81.0771 13.7274 80.9966 13.7274 80.9966 14.0697C80.9966 14.0695 80.9997 17.1026 80.9997 17.3162V17.3444C80.9992 17.6021 81.0204 17.6482 81.0804 17.649L81.0998 17.6494C81.3027 17.6523 81.4743 17.655 81.711 17.6522C81.8192 17.6509 81.9873 17.3301 82.0414 16.9187C82.08 16.6253 82.0634 15.1423 82.0572 14.5843C82.0559 14.4779 82.055 14.3976 82.0549 14.3547C82.0538 14.1195 81.5665 13.7385 81.4189 13.7334L81.3756 13.7319C81.2764 13.7285 81.2764 13.7285 81.2121 13.7282L81.1175 13.7275L81.1158 13.6014ZM101.474 27.2672C101.21 27.2672 100.645 27.258 100.147 27.2497C99.7389 27.2429 99.3531 27.2366 99.2072 27.2366C98.8223 27.2366 98.6018 26.9812 98.6018 26.5359C98.6018 26.3664 98.608 25.1227 98.6139 23.9199C98.6198 22.7308 98.6253 21.6075 98.6253 21.4566C98.6253 21.0965 98.5355 21.0965 98.422 21.0965L98.407 21.0966C98.3063 21.0989 98.2239 21.0966 98.1397 21.0941C98.0806 21.0925 98.0207 21.0907 97.9528 21.0907C97.7373 21.0907 97.7373 21.2014 97.7373 21.2608C97.7373 21.38 97.7312 22.6582 97.7255 23.8945C97.7197 25.1292 97.7138 26.406 97.7138 26.5241C97.7138 26.9566 97.522 27.2249 97.2137 27.2249C97.1384 27.2249 96.9848 27.2261 96.7919 27.2275C96.4653 27.2298 96.026 27.2329 95.6611 27.2329C95.3228 27.2329 95.1127 27.2302 95.0193 27.2248C94.6451 27.2028 94.4855 27.0234 94.4855 26.6247C94.4855 26.5923 94.4872 26.4265 94.4897 26.1538C94.535 21.4437 94.5472 17.8188 94.5261 15.3796C94.5245 15.2119 94.6662 15.1653 94.7477 15.1463C94.7332 15.1332 94.7184 15.1205 94.7033 15.108C94.6209 15.0385 94.5276 14.9597 94.5278 14.845C94.528 14.8195 94.5271 14.7896 94.5262 14.7602C94.5252 14.7337 94.5247 14.7073 94.5245 14.6809C94.5245 14.6079 94.5552 14.5209 94.6894 14.4905C94.6724 14.4638 94.6542 14.4379 94.6348 14.4129C94.5829 14.3436 94.5294 14.2721 94.5301 14.1826L94.5367 12.3163L94.5383 11.8732C94.5383 11.5378 94.7328 11.0058 95.2549 11.0058C95.3826 11.0058 96.0326 11.0092 96.8238 11.0133C98.071 11.0199 99.6232 11.0282 100.102 11.0282C100.164 11.0282 100.207 11.028 100.229 11.0276L100.259 11.0275C101.439 11.0275 102.09 12.0352 102.107 12.7626C102.121 13.3397 102.111 16.845 102.099 17.2346C102.062 18.3822 101.271 18.9048 100.973 19.1015C100.939 19.1242 100.912 19.1423 100.892 19.1567C100.809 19.2203 100.77 19.2935 100.775 19.333C100.779 19.3633 100.817 19.3849 100.849 19.3975C101.052 19.4798 102.069 19.9271 102.076 20.6433C102.078 20.8396 102.079 21.4748 102.081 22.531C102.081 22.622 102.058 22.6789 102.04 22.7246C102.025 22.7618 102.016 22.7843 102.018 22.8306C102.024 22.9971 101.915 23.0662 101.85 23.1076C101.79 23.1455 101.778 23.1556 101.777 23.2084C101.777 23.2488 101.785 23.2651 101.797 23.2921C101.814 23.3277 101.836 23.3759 101.833 23.4508C101.83 23.5131 101.803 23.554 101.785 23.5812C101.775 23.5939 101.768 23.6086 101.765 23.6243C101.784 23.6294 101.818 23.6345 101.875 23.6378C101.9 23.6391 101.917 23.6402 101.935 23.6455L101.944 23.648C102.069 23.6805 102.08 23.7593 102.082 23.8441L102.082 26.5119C102.082 26.9193 102.043 27.2574 101.572 27.2663C101.539 27.267 101.506 27.2673 101.474 27.2672ZM97.9094 13.6329V13.7589C97.8706 13.7589 97.7899 13.7589 97.7899 14.1011C97.7899 14.1009 97.7931 17.1344 97.7931 17.3475V17.3757C97.7925 17.6342 97.8136 17.6804 97.8738 17.6813L97.9577 17.6825C98.1337 17.6846 98.2928 17.6866 98.5033 17.6838C98.612 17.6827 98.7801 17.3622 98.8344 16.9504C98.8727 16.6597 98.8566 15.186 98.8505 14.6311C98.8492 14.5171 98.8482 14.4313 98.848 14.3863C98.8468 14.1514 98.3595 13.7702 98.212 13.7649L98.1711 13.7635C98.07 13.7601 98.07 13.7601 98.0056 13.7598L97.9101 13.759L97.9094 13.6329ZM116.06 27.0957C115.484 27.0957 114.723 27.0941 114.03 27.0928C113.126 27.0911 112.334 27.0894 112.227 27.0917L112.208 27.092C111.921 27.0921 111.566 26.9462 111.28 26.7116C110.947 26.4384 110.763 26.0974 110.763 25.7513C110.763 25.5632 110.76 24.3969 110.757 23.2963C110.754 22.3124 110.751 21.381 110.751 21.2468C110.751 20.8055 110.907 20.5817 111.216 20.5817H113.602C114.02 20.5817 114.101 20.8277 114.125 21.0684C114.142 21.2378 114.128 22.3883 114.114 23.4533C114.111 23.7238 114.108 23.9251 114.108 23.9849C114.108 24.1208 114.142 24.3509 114.271 24.3509C114.346 24.3509 114.412 24.3516 114.473 24.3524C114.583 24.3537 114.679 24.3548 114.794 24.3509C114.879 24.3483 114.955 24.2087 114.973 24.0261C114.995 23.8099 115.008 21.3585 115.008 20.9449C115.008 20.6973 114.977 20.6659 114.849 20.5732C114.723 20.4821 112.752 18.9984 111.693 18.2014C111.494 18.0512 111.294 17.901 111.095 17.7508L111.06 17.7256C110.913 17.617 110.746 17.4938 110.746 17.122L110.745 16.9499C110.744 16.732 110.743 16.3473 110.743 15.8907C110.743 15.7699 110.796 15.7103 110.825 15.6781C110.796 15.6559 110.743 15.6088 110.742 15.5145C110.742 15.4904 110.746 15.4666 110.755 15.4442C110.764 15.4219 110.777 15.4016 110.794 15.3845C110.856 15.3213 110.949 15.316 111.039 15.316L111.104 15.3163C111.143 15.3163 111.168 15.3147 111.184 15.3127C111.18 15.2751 111.165 15.2526 111.145 15.2236C111.122 15.1909 111.092 15.1461 111.091 15.0847C111.091 15.0238 111.107 14.9736 111.119 14.9332C111.129 14.9016 111.137 14.8764 111.135 14.8544C111.132 14.8204 111.086 14.7745 111.053 14.7412C111.042 14.7307 111.032 14.72 111.021 14.7091C111 14.6989 110.978 14.6898 110.956 14.6818C110.86 14.6447 110.74 14.5988 110.74 14.4768C110.738 13.5175 110.738 12.446 110.739 12.3608C110.756 11.6354 111.227 10.8558 112.065 10.8386C112.178 10.8364 112.506 10.8343 112.92 10.8329C112.997 10.8329 113.051 10.8734 113.1 10.9094C113.146 10.9437 113.187 10.9735 113.249 10.9759C113.263 10.8382 113.382 10.8339 113.396 10.8339H113.426C113.497 10.8339 113.56 10.8344 113.624 10.8348C113.691 10.8354 113.759 10.8359 113.839 10.8359H113.856C113.933 10.8359 113.984 10.8775 114.021 10.9079C114.055 10.936 114.08 10.9564 114.134 10.9616C114.14 10.9621 114.145 10.9624 114.151 10.9624C114.173 10.9624 114.173 10.9624 114.19 10.9361C114.209 10.9054 114.255 10.8339 114.348 10.8339L115.258 10.8338C115.976 10.8338 116.663 10.8344 116.824 10.8388C117.479 10.8559 118.212 11.3798 118.212 12.0551C118.212 12.3889 118.22 13.4401 118.226 14.3677C118.231 15.0825 118.236 15.7167 118.236 15.8721C118.236 16.0808 118.236 16.5695 117.739 16.5826C117.434 16.5907 115.744 16.5907 115.726 16.5907C115.707 16.5907 115.688 16.591 115.669 16.5914C115.648 16.5916 115.627 16.592 115.606 16.592C115.483 16.592 115.155 16.592 115.125 16.2018C115.109 15.9937 115.114 15.1889 115.118 14.6013C115.12 14.3159 115.121 14.0694 115.119 14.0157C115.11 13.7508 114.929 13.7221 114.851 13.7221H114.452C114.29 13.7221 114.167 13.8568 114.167 14.0351C114.167 14.1601 114.163 14.5794 114.16 14.9753C114.157 15.329 114.155 15.6638 114.155 15.7535C114.155 15.9355 114.155 15.9905 114.288 16.1444C114.409 16.2815 116.266 17.6371 117.059 18.2159C117.375 18.4461 117.602 18.6123 117.67 18.6633C117.939 18.8669 118.259 19.1855 118.259 19.5464C118.259 19.6268 118.257 20.0992 118.253 20.7436C118.244 22.3811 118.23 25.1221 118.235 25.3753C118.254 26.1889 117.601 27.0713 116.965 27.0923C116.887 27.0944 116.59 27.0957 116.06 27.0957ZM125.536 27.001C124.961 27.001 124.2 26.9995 123.506 26.9983C122.602 26.9964 121.811 26.9948 121.703 26.9972L121.684 26.9975C121.397 26.9975 121.042 26.8517 120.755 26.6169C120.422 26.3438 120.239 26.0027 120.239 25.6563C120.239 25.4686 120.236 24.3027 120.233 23.2023C120.23 22.2184 120.227 21.2865 120.227 21.1522C120.227 20.7109 120.384 20.487 120.692 20.487H123.078C123.496 20.487 123.577 20.7328 123.601 20.9732C123.618 21.143 123.605 22.2421 123.59 23.3532C123.587 23.6264 123.584 23.83 123.584 23.8905C123.584 24.0264 123.618 24.2566 123.747 24.2566C123.822 24.2566 123.888 24.2574 123.949 24.2578C124.002 24.2585 124.053 24.259 124.104 24.259H124.104C124.158 24.259 124.212 24.2584 124.271 24.2566C124.354 24.2539 124.431 24.1138 124.449 23.9313C124.471 23.7154 124.484 21.2636 124.484 20.85C124.484 20.6024 124.453 20.5711 124.325 20.4784C124.191 20.3819 121.944 18.6901 120.985 17.9676L120.538 17.6315C120.389 17.5228 120.221 17.3996 120.221 17.0271C120.221 16.8049 120.211 12.4375 120.215 12.2654C120.232 11.5411 120.702 10.7615 121.541 10.7433C121.686 10.7406 122.184 10.7381 122.84 10.737C122.926 10.737 122.971 10.787 122.992 10.8113C123.005 10.8254 123.017 10.8389 123.088 10.8403C123.109 10.8056 123.156 10.7377 123.265 10.7363L123.314 10.7354C123.363 10.7341 123.413 10.733 123.462 10.7363C123.54 10.7418 123.594 10.7787 123.634 10.8057C123.653 10.8188 123.667 10.8278 123.68 10.8334C123.703 10.7942 123.75 10.7359 123.844 10.7359H123.982C124.597 10.7359 126.055 10.7367 126.3 10.7435C126.955 10.761 127.688 11.285 127.688 11.9598C127.688 12.2936 127.695 13.3449 127.702 14.2724C127.707 14.9874 127.711 15.6216 127.711 15.7768C127.711 15.9855 127.711 16.4742 127.215 16.4873C126.909 16.4954 125.22 16.4954 125.202 16.4954C125.183 16.4954 125.164 16.4958 125.145 16.496C125.123 16.4964 125.099 16.495 125.081 16.4967C124.957 16.4967 124.631 16.4958 124.601 16.1062C124.586 15.8983 124.59 15.095 124.594 14.5086C124.596 14.2219 124.597 13.9743 124.595 13.9202C124.585 13.6558 124.404 13.6273 124.327 13.6273H123.928C123.765 13.6273 123.642 13.7617 123.642 13.9398C123.642 14.0648 123.639 14.4845 123.636 14.8807C123.633 15.2343 123.631 15.569 123.631 15.6582C123.631 15.8405 123.631 15.8954 123.764 16.049C123.885 16.1863 125.738 17.5391 126.53 18.1169C126.848 18.3492 127.078 18.5169 127.146 18.5682C127.414 18.772 127.735 19.0908 127.735 19.4513C127.735 19.5299 127.732 19.9787 127.729 20.5963C127.726 21.2647 127.721 22.1303 127.718 22.9368C127.716 23.1043 127.581 23.1957 127.471 23.2692C127.415 23.3073 127.351 23.3503 127.336 23.3854C127.245 23.5998 127.199 23.8202 127.23 23.8986C127.241 23.9259 127.253 23.9326 127.292 23.9514C127.343 23.9765 127.451 24.0288 127.447 24.1844C127.443 24.377 127.331 24.4292 127.271 24.4572C127.26 24.4616 127.251 24.4667 127.241 24.4726C127.241 24.4726 127.235 24.4837 127.234 24.5183C127.232 24.5967 127.262 24.62 127.425 24.6651C127.536 24.696 127.721 24.7475 127.711 24.9412C127.702 25.1038 127.707 25.1901 127.71 25.2419C127.711 25.2566 127.712 25.2689 127.712 25.2798C127.73 26.0941 127.078 26.9767 126.442 26.9973C126.363 26.9998 126.067 27.001 125.536 27.001ZM133.082 29.4548C132.808 29.4548 132.397 29.2853 132.386 28.8181C132.381 28.5404 132.363 26.7789 132.363 26.5469C132.363 26.0984 132.553 25.735 132.719 25.4684C132.863 25.2338 136.851 18.2309 136.943 18.0497C137.098 17.7433 137.153 17.3633 137.153 17.1097C137.153 16.9792 137.152 16.3181 137.151 15.6793C137.15 15.0813 137.149 14.5022 137.149 14.3951C137.149 14.2997 137.149 14.2049 137.125 14.151C137.115 14.1306 137.098 14.0926 136.983 14.0926L136.97 14.0927C136.786 14.0976 136.73 14.0963 136.623 14.0942L136.524 14.0926C136.32 14.0926 136.302 14.1336 136.302 14.2509L136.303 14.6429C136.305 15.3646 136.307 16.708 136.302 16.9093C136.298 17.0938 136.285 17.6562 135.771 17.6562C135.665 17.6562 135.074 17.659 134.463 17.6617C133.809 17.6649 133.133 17.668 133.004 17.668C132.68 17.668 132.333 17.4889 132.333 17.0957C132.333 16.8891 132.337 15.0797 132.341 13.8525C132.341 13.6894 132.524 13.6779 132.584 13.6742C132.597 13.6734 132.61 13.6727 132.621 13.6714C132.623 13.6713 132.67 13.6657 132.69 13.6466C132.681 13.6406 132.671 13.6347 132.661 13.629C132.585 13.5833 132.457 13.5073 132.456 13.336C132.455 13.2168 132.553 13.1724 132.589 13.1557L132.595 13.1534C132.589 13.0757 132.58 12.9982 132.569 12.921C132.569 12.921 132.552 12.8856 132.437 12.8493C132.384 12.8341 132.346 12.7825 132.344 12.7222C132.338 12.2513 132.568 11.7314 132.961 11.3293C133.328 10.9528 133.763 10.7547 134.183 10.7747C134.329 10.7821 134.699 10.7859 135.285 10.7859C135.777 10.7859 136.409 10.7833 137.218 10.7779C137.315 10.7779 137.399 10.8544 137.461 10.9102L137.48 10.9273C137.505 10.949 137.556 10.9637 137.606 10.9637C137.62 10.9637 137.631 10.9629 137.64 10.9613L137.642 10.9518C137.655 10.903 137.69 10.7737 137.826 10.7737H137.888C138.197 10.7737 138.447 10.77 138.597 10.7676L138.726 10.7661C139.882 10.7661 141.298 11.8797 141.302 13.1795C141.305 13.7914 141.282 17.686 141.275 18.1406C141.265 18.7193 141.147 19.2165 140.922 19.6188L140.901 19.6572C140.502 20.3819 140.092 21.0998 139.67 21.8107C139.641 21.8584 139.555 22.0041 139.41 22.0041C139.371 22.0041 139.338 21.9939 139.308 21.9791C139.388 22.0643 139.444 22.1478 139.386 22.2398C139.268 22.4247 139.096 22.4432 138.994 22.4539C138.972 22.4563 138.944 22.4592 138.935 22.4627C138.914 22.4722 138.85 22.5025 138.834 22.6728C138.828 22.7385 138.804 22.8171 138.779 22.9003C138.762 22.9554 138.735 23.0472 138.736 23.0749C138.739 23.133 138.748 23.1601 138.758 23.186C138.797 23.296 138.783 23.3609 138.683 23.5325C138.247 24.2771 137.818 25.026 137.397 25.7791C137.264 26.0166 137.267 26.1232 137.279 26.1441C137.281 26.1482 137.299 26.1599 137.351 26.1599C137.497 26.1599 138.247 26.1535 138.973 26.1471C139.664 26.1415 140.318 26.1359 140.439 26.1359C140.866 26.1359 141.087 26.2862 141.095 26.5825C141.101 26.7847 141.095 27.6767 141.091 28.2668C141.089 28.5171 141.088 28.716 141.088 28.7906V28.8053C141.088 29.0418 141.088 29.3992 140.603 29.4303C140.25 29.4531 133.153 29.4548 133.082 29.4548ZM56.0243 26.1162C55.9858 26.1162 55.9478 26.1098 55.9116 26.0978C55.0651 25.8153 52.259 24.6335 51.7 21.2897C51.6603 21.0525 51.6929 20.8693 51.7968 20.7451C51.9106 20.6087 52.0708 20.5883 52.1561 20.5883C52.1773 20.5883 52.193 20.5896 52.2011 20.5904C52.3033 20.5953 54.1958 20.687 54.4139 20.7213C54.4404 20.7254 54.4675 20.7285 54.4947 20.7317C54.6799 20.7533 54.9336 20.783 55.1014 21.1349C55.298 21.5468 55.8357 22.2933 56.416 22.6631C56.6991 22.8443 56.7256 22.9596 56.7084 23.3368C56.6932 23.6775 56.561 25.3775 56.5278 25.6169C56.4945 25.8533 56.2795 26.1162 56.0243 26.1162ZM54.924 19.2221C54.8733 19.2221 54.8157 19.2194 54.7499 19.2163L54.6941 19.2137C54.3522 19.1978 52.4808 19.0781 52.2588 19.0466C52.1075 19.0247 52.028 18.9418 51.9879 18.8764C51.9181 18.7626 51.9088 18.6033 51.9625 18.4396C52.1578 17.8418 52.5639 16.9512 53.3895 16.103C53.4465 16.044 53.5449 16.0497 53.6784 16.0756C53.7356 16.0868 53.8006 16.0995 53.8488 16.0995C53.8639 16.0995 53.8735 16.0981 53.8792 16.097C53.8861 16.0693 53.8752 15.9959 53.8692 15.9551C53.8544 15.8549 53.8378 15.7416 53.8945 15.6501C53.9724 15.5256 54.0782 15.4625 54.2089 15.4625C54.2853 15.4625 54.3573 15.4839 54.421 15.503C54.4592 15.5144 54.4958 15.5252 54.5248 15.5291C54.5241 15.5229 54.5233 15.5168 54.5225 15.5107C54.5076 15.3948 54.485 15.2199 54.619 15.1226C55.2567 14.6625 55.8425 14.4981 56.7664 14.3403C57.0203 14.2971 57.2087 14.3467 57.3237 14.4852C57.4548 14.6429 57.4344 14.8531 57.4272 14.904C57.4188 15.085 57.3267 16.7986 57.2935 17.0153C57.2895 17.0419 57.2865 17.0689 57.2833 17.0962C57.2621 17.2838 57.233 17.5406 56.8845 17.7099C56.6667 17.8161 56.1145 18.1175 55.6897 18.6198C55.6733 18.6398 55.6528 18.6558 55.6296 18.6669C55.6064 18.6779 55.5811 18.6837 55.5555 18.6838C55.497 18.6838 55.4415 18.6553 55.391 18.5989C55.3594 18.5633 55.3378 18.5152 55.3126 18.4595C55.2833 18.3942 55.2284 18.2724 55.1807 18.2724C55.172 18.2727 55.1634 18.2745 55.1553 18.2777C55.1388 18.2834 55.1196 18.2896 55.0986 18.2964C55.034 18.3174 54.8715 18.3698 54.8438 18.4266C54.8814 18.4599 54.9837 18.5103 55.0478 18.5418C55.2274 18.6303 55.4131 18.7217 55.3692 18.8902C55.2984 19.1656 55.1399 19.2221 54.924 19.2221ZM63.1314 19.8942C63.1183 19.8942 63.1083 19.8936 63.1021 19.8929C63.0502 19.8908 62.8823 19.8871 62.6608 19.8819C61.8426 19.8633 61.0316 19.8433 60.8882 19.8208C60.8532 19.8153 60.8123 19.8133 60.769 19.8111C60.5765 19.8012 60.3132 19.7875 60.1403 19.4637C59.9282 19.0666 59.6182 18.5614 59.0979 18.1781C58.8274 17.979 58.8195 17.8552 58.8355 17.4937C58.8389 17.4209 58.8445 17.2831 58.8517 17.1083C58.8889 16.2106 58.9305 15.2387 58.954 15.0716C58.9863 14.8436 59.1889 14.6716 59.4255 14.6716C59.4832 14.6716 59.5393 14.6822 59.5921 14.7031C59.9209 14.8338 60.2423 14.9828 60.5548 15.1496C60.6629 15.2073 60.6934 15.3097 60.7116 15.3707C60.7146 15.381 60.7189 15.3952 60.7225 15.4046C60.7333 15.4061 60.7536 15.4071 60.7822 15.4071H60.8203C60.9023 15.4071 60.9965 15.412 61.0768 15.4721C62.2619 16.3559 63.0139 17.5348 63.4435 19.1824C63.5116 19.4437 63.498 19.6391 63.4033 19.7633C63.3399 19.8464 63.2408 19.8942 63.1314 19.8942ZM58.5574 26.2528C58.4023 26.2528 58.2829 26.2061 58.2029 26.1143C58.099 25.995 58.1056 25.8467 58.1089 25.811C58.1134 25.714 58.2017 23.8085 58.2349 23.5889C58.2404 23.5516 58.2418 23.5035 58.2431 23.4525C58.2488 23.2465 58.2573 22.9354 58.5855 22.7754C59.0981 22.5254 59.5148 22.1474 59.8242 21.6518C59.9712 21.4165 60.1029 21.3446 60.3878 21.3446C60.4303 21.3446 60.4772 21.3461 60.5294 21.3486C60.8367 21.3624 62.616 21.4588 62.8477 21.492C63.0007 21.514 63.1462 21.6145 63.2275 21.754C63.2973 21.8741 63.3117 22.0105 63.267 22.1282C63.1565 22.4179 63.0232 22.7413 62.7977 23.141C62.7377 23.2473 62.6351 23.2788 62.5527 23.3041C62.507 23.3181 62.4639 23.3313 62.4406 23.3536C62.3474 23.4429 62.2584 23.563 62.1724 23.6794L62.162 23.6934C62.1512 23.7155 62.1491 23.8098 62.1481 23.8659C62.1452 23.9983 62.1424 24.1233 62.0733 24.2058C61.5417 24.8452 60.9056 25.3551 60.1828 25.7207C60.1488 25.7377 60.1133 25.7465 60.0773 25.7465C59.9992 25.7465 59.9377 25.7062 59.8833 25.6708C59.8215 25.6306 59.7632 25.5925 59.67 25.5925C59.5835 25.5925 59.4991 25.6786 59.4534 25.7524C59.44 25.7742 59.4265 25.8028 59.412 25.8331C59.3575 25.9462 59.2895 26.0869 59.1596 26.1256C59.0375 26.1614 58.923 26.192 58.8094 26.2193C58.7171 26.2416 58.6323 26.2528 58.5574 26.2528Z" fill="black"/>
</g>
<path d="M19.9066 11.025C20.1895 11.0134 25.6332 11.0212 25.8831 11.0212C26.1805 11.0212 26.4071 11.088 26.4109 11.4952C26.4143 11.8446 26.4189 13.3641 26.4189 13.5852C26.4189 13.8063 26.2861 14.0077 26.067 14.0077C25.8485 14.0077 25.0393 14.0002 24.8515 14.0002C24.6638 14.0002 24.5076 14.0314 24.5076 14.3161L24.5116 28.3863C24.5116 28.7653 24.4333 29.0107 24.0265 29.0065C23.6502 29.0025 22.0096 29.0143 21.7594 29.0223C21.5094 29.0299 21.1933 28.8917 21.1888 28.4767C21.1872 28.3201 21.1888 25.9405 21.1909 23.183C21.1913 22.987 21.3714 22.9801 21.5688 22.9706C21.8046 22.9591 21.6561 22.7238 21.7513 22.6171C21.8235 22.5361 21.949 22.613 21.9985 22.5211C22.034 22.4548 22.0289 22.0908 21.8122 21.9558C21.6352 21.8465 21.2062 21.7849 21.2002 21.5986C21.1888 21.245 21.1952 20.8378 21.1937 20.488C21.1926 20.2841 21.3824 20.1343 21.3824 20.0153C21.3824 19.9122 21.3101 19.8985 21.3101 19.796C21.3101 19.7135 21.6448 19.7498 21.6448 19.6681C21.6448 19.5892 21.4735 19.4849 21.3634 19.385C21.2999 19.3276 21.196 19.2426 21.1943 19.0841C21.1676 16.5821 21.198 14.536 21.1964 14.4386C21.1923 14.1384 21.1337 14.0313 20.8487 14.0275C20.4839 14.0247 20.1191 14.0234 19.7543 14.0238C19.5118 14.0238 19.3867 13.8381 19.3867 13.5854C19.3867 13.3325 19.3876 11.7155 19.3944 11.5545C19.4062 11.2778 19.5235 11.0406 19.9066 11.025ZM28.147 11.6059C28.1445 11.8 28.1255 18.5293 28.1234 22.9132C28.1234 22.9882 28.1899 23.0188 28.245 23.062C28.2827 23.0916 28.3617 23.1916 28.3759 23.2375C28.3919 23.2879 28.4038 23.6168 28.3615 23.6239C28.2675 23.6391 28.3009 23.4919 28.2171 23.4947C28.1631 23.4961 28.1231 23.6202 28.1231 23.6738C28.1231 25.3312 28.1265 26.5105 28.1349 26.6158C28.1665 26.9949 28.3224 27.0936 28.5724 27.0936C28.8226 27.0936 32.5438 27.0857 32.7629 27.0857C33.013 27.0857 33.1343 26.9081 33.1381 26.6433C33.1422 26.3902 33.1458 25.4303 33.1458 25.2089C33.1458 24.8967 32.9816 24.6477 32.6885 24.6434C32.4698 24.6411 31.7388 24.64 31.5197 24.64C31.3009 24.64 31.1934 24.5629 31.1858 24.3175C31.1808 24.058 31.1789 23.7984 31.18 23.5389C31.1803 23.4094 31.0062 23.5032 30.9726 23.341C30.9618 23.2867 30.9491 23.1164 30.9711 23.0632C30.9958 23.0038 31.1839 22.9889 31.1881 22.8548C31.2242 21.7102 31.2044 20.2906 31.2032 20.1155C31.201 19.8114 31.2246 19.5291 31.5371 19.5291C31.8497 19.5291 32.4787 19.5288 32.6689 19.5231C32.8685 19.5172 33.1495 19.3037 33.1613 19.0075C33.1715 18.7524 33.185 17.518 33.173 17.2946C33.1613 17.0753 33.05 16.8976 32.7683 16.8976C32.4871 16.8976 31.7831 16.8798 31.5782 16.8798C31.4189 16.8798 31.1795 16.7965 31.1737 16.5297C31.1697 16.3402 31.168 14.0881 31.168 13.8984C31.168 13.7086 31.2853 13.4621 31.5041 13.4621C31.5856 13.4621 31.742 13.4601 31.918 13.4577C32.0091 13.4564 32.0262 13.3478 32.0607 13.2598C32.0913 13.1831 32.2136 13.1742 32.2914 13.1855C32.3878 13.1993 32.4345 13.4455 32.5258 13.4471C32.6021 13.4478 32.6654 13.4436 32.7081 13.4422C32.9546 13.434 33.1574 13.2126 33.1614 12.96C33.1644 12.768 33.1576 11.6861 33.1536 11.4625C33.1496 11.2377 33.0205 11.0474 32.7079 11.0474C32.3954 11.0474 29.0117 11.0401 28.7286 11.0435C28.3851 11.0487 28.151 11.2859 28.147 11.6059ZM42.2074 26.5171C42.1448 26.1063 40.2041 12.0929 40.1471 11.7758C40.0613 11.2937 39.8345 11.1511 39.4866 11.1474C39.2677 11.1448 37.3132 11.1279 37.0592 11.1354C36.7466 11.1455 36.5668 11.5149 36.5275 11.7599C36.4975 11.9501 34.738 26.5129 34.7017 26.8332C34.6658 27.1574 34.8582 27.2125 35.1397 27.2125C35.4212 27.2125 36.8595 27.2125 37.1722 27.1809C37.4848 27.1495 37.6062 26.8908 37.6062 26.5292C37.6062 26.3079 37.6412 24.7155 37.6412 24.3997C37.6412 24.0836 37.8599 24.0203 38.0479 24.0203C38.2352 24.0203 38.5363 24.0164 38.7865 24.0164C39.2005 24.0164 39.2392 24.3209 39.2672 24.5894C39.2985 24.8891 39.2697 26.4345 39.2769 26.6887C39.2886 27.1156 39.6092 27.1733 39.8613 27.1809C40.131 27.1892 41.6322 27.2087 41.9447 27.2087C42.2579 27.2088 42.27 26.9285 42.2074 26.5171ZM38.6938 21.1597C38.5034 21.2101 38.3478 21.2158 38.1897 21.1891C38.0516 21.1662 37.8906 21.0711 37.9113 20.7835C37.9269 20.5607 38.2641 17.5053 38.2982 17.3506C38.3256 17.2285 38.4231 17.1611 38.5173 17.3506C38.5554 17.4278 38.6162 17.9631 38.677 18.5881C38.6881 18.7069 38.6844 18.7631 38.7566 18.8742C38.8149 18.9641 39.1775 19.1508 39.1851 19.2231C39.1999 19.3601 38.7438 19.3045 38.7587 19.4837C38.8125 20.117 38.8568 20.6621 38.8639 20.7536C38.8814 20.9763 38.871 21.1128 38.6938 21.1597ZM87.0938 11.1092C87.1793 11.1056 87.6999 11.1049 88.3885 11.1033C88.5118 11.1033 88.4628 11.299 88.5611 11.3084C88.8449 11.3351 89.2307 11.461 89.5451 11.3799C89.664 11.3493 89.6902 11.1031 89.7986 11.1034C91.1293 11.1034 92.4749 11.1055 92.6016 11.1055C92.8985 11.1055 93.1252 11.1726 93.1291 11.5799C93.1328 11.9291 93.12 13.5358 93.12 13.7574C93.12 13.9785 92.987 14.2749 92.7681 14.2749C92.549 14.2749 91.9279 14.2669 91.7399 14.2669C91.5522 14.2669 91.3962 14.2985 91.3962 14.5829C91.3962 14.6804 91.3966 16.0729 91.3973 17.8771C91.3973 18.005 91.2405 18.1276 91.2405 18.2591C91.2405 18.3639 91.3447 18.4786 91.3447 18.5856C91.3447 18.6736 91.3977 18.7614 91.3977 18.8512C91.3985 20.7652 91.3835 22.9361 91.3997 24.4873C91.4018 24.6883 91.1895 24.564 91.109 24.5697C90.9951 24.577 90.8659 24.7425 90.8659 24.8575C90.8659 25.0228 91.1299 25.0425 91.2576 25.0115C91.4108 24.9745 91.4005 25.2103 91.4005 25.2767L91.4006 26.5669C91.4006 26.9457 91.3223 27.1909 90.9158 27.1872C90.5399 27.1833 88.899 27.1953 88.6488 27.2027C88.3985 27.2105 88.0823 27.0726 88.0782 26.6573C88.0747 26.2784 88.0893 14.9579 88.0863 14.7053C88.0824 14.4052 88.0235 14.2985 87.7384 14.2945C87.4674 14.2914 87.1964 14.29 86.9253 14.2902C86.6826 14.2902 86.5575 14.0096 86.5575 13.7568C86.5575 13.5041 86.576 11.8 86.5824 11.6388C86.5935 11.362 86.7108 11.1251 87.0938 11.1092ZM104.102 11.6019C104.098 11.8863 104.059 26.2334 104.09 26.6119C104.121 26.9914 104.313 27.0946 104.563 27.0946C104.813 27.0946 108.534 27.0866 108.754 27.0866C109.003 27.0866 109.125 26.909 109.128 26.6441C109.132 26.3911 109.136 25.4311 109.136 25.2097C109.136 24.8975 108.972 24.6486 108.679 24.6442C108.46 24.6418 107.729 24.6408 107.51 24.6408C107.291 24.6408 107.183 24.5639 107.176 24.3186C107.167 24.0323 107.196 20.4027 107.193 20.1162C107.191 19.812 107.215 19.5298 107.528 19.5298C107.84 19.5298 108.469 19.5296 108.659 19.5238C108.859 19.5178 109.14 19.3044 109.152 19.0082C109.162 18.7531 109.176 17.5188 109.164 17.2954C109.152 17.076 109.041 16.8984 108.759 16.8984C108.478 16.8984 107.774 16.8806 107.569 16.8806C107.409 16.8806 107.17 16.7974 107.164 16.5305C107.16 16.341 107.158 14.0889 107.158 13.8992C107.158 13.7094 107.276 13.4629 107.495 13.4629C107.713 13.4629 108.48 13.4498 108.699 13.4432C108.945 13.4349 109.148 13.2136 109.152 12.9609C109.155 12.7689 109.148 11.687 109.144 11.4634C109.14 11.2386 109.012 11.0484 108.699 11.0484C108.386 11.0484 105.002 11.0412 104.719 11.0446C104.376 11.0487 104.106 11.2816 104.102 11.6019ZM64.5715 21.207C64.5694 20.9027 64.6234 20.5895 64.9361 20.5895C65.249 20.5895 65.5634 20.5895 65.7535 20.5838C65.9527 20.5779 66.204 20.3952 66.2158 20.099C66.2257 19.8441 66.2392 18.3584 66.2273 18.1353C66.2158 17.9157 66.1039 17.738 65.8227 17.738C65.541 17.738 65.1826 17.7509 64.9773 17.7509C64.8181 17.7509 64.5785 17.6986 64.5727 17.4318C64.5686 17.2423 64.5668 14.4214 64.5668 14.2316C64.5668 14.0423 64.6843 13.7951 64.9031 13.7951C65.1218 13.7951 65.6068 13.7826 65.8258 13.7751C66.0722 13.7673 66.2751 13.5462 66.279 13.2933C66.2822 13.1011 66.2751 11.6403 66.2716 11.4161C66.2673 11.1913 66.1385 11.0013 65.8258 11.0013C65.513 11.0013 62.0355 10.9942 61.7524 10.9976C61.4085 11.0013 61.1691 11.2345 61.1654 11.5545C61.165 11.5937 61.156 11.9374 61.1621 12.502C61.164 12.6677 61.3505 12.5442 61.3464 12.7406C61.3429 12.9249 61.1602 12.8019 61.161 12.9983C61.1742 17.0518 61.1276 28.2433 61.1532 28.5562C61.1847 28.9351 61.3762 29.0385 61.6268 29.0385C61.8767 29.0385 63.9776 29.0425 64.1964 29.0425C64.4464 29.0425 64.5675 28.8642 64.5718 28.5999C64.5718 28.5999 64.5643 27.0419 64.5722 25.3561C64.5731 25.1798 64.3576 25.2544 64.2941 25.2537C64.1447 25.2513 64.1263 25.1086 64.1802 24.9798C64.3043 24.6826 64.5318 24.7028 64.5375 24.5259C64.5451 24.2875 64.434 24.4951 64.4285 24.2775C64.4234 24.0722 64.5806 24.0957 64.5724 23.9163C64.5263 22.9236 64.5749 21.7281 64.5715 21.207ZM44.15 11.7085C44.1458 11.4796 44.1965 11.2068 44.4783 11.2028C44.666 11.2003 47.6083 11.1835 47.797 11.1912C48.0005 11.199 48.2192 11.3689 48.2663 11.5824C48.313 11.7955 48.9286 15.3456 48.9759 15.5354C49.0226 15.7252 49.1807 15.7662 49.2278 15.5414C49.2821 15.282 49.8627 11.7245 49.8848 11.5823C49.9197 11.353 50.0881 11.1869 50.3148 11.1794C50.4805 11.1734 53.3791 11.2027 53.5432 11.2027C53.8544 11.2027 54.1767 11.3626 54.1884 11.6533C54.198 11.8912 54.3584 26.292 54.3584 26.5764C54.3584 26.861 54.2466 27.027 54.0827 27.0507C53.9185 27.0747 51.7609 27.0625 51.5968 27.0625C51.4325 27.0625 51.2857 26.962 51.2857 26.7253V20.3776C51.2857 20.1644 51.1627 20.0575 51.0807 20.3537C51.0099 20.6091 50.0583 26.1978 50.0019 26.4464C49.9375 26.731 49.9079 26.9735 49.6969 26.9735C49.486 26.9735 48.8527 26.9678 48.665 26.9678C48.4776 26.9678 48.3522 26.8479 48.2957 26.6299C48.2372 26.4051 47.0584 20.6506 47.0175 20.4427C46.9796 20.2511 46.8124 20.2355 46.7886 20.4487C46.7655 20.6625 46.7538 26.3756 46.7538 26.6122C46.7538 26.8499 46.6719 26.9448 46.4608 26.9448C46.2499 26.9448 44.6432 27.0098 44.4086 26.9858C44.1741 26.9624 44.1564 26.8083 44.1564 26.6187C44.1564 26.4844 44.113 19.0592 44.1519 14.7398C44.1537 14.5473 44.4957 14.6551 44.4957 14.4708C44.4957 14.363 44.2768 14.3553 44.2829 14.2246C44.2905 14.0553 44.511 14.142 44.5107 14.0321C44.5107 13.9403 44.1512 13.6737 44.1512 13.5866C44.1503 12.4471 44.15 11.7138 44.15 11.7085ZM75.754 12.8702C75.762 11.9219 74.8237 10.8392 73.5572 10.8472C73.151 10.85 71.0478 10.8391 70.297 10.8391C69.3275 10.8391 68.2958 11.5501 68.2565 12.7434C68.2343 13.4248 68.2002 21.8498 68.1897 24.4949C68.1888 24.7213 68.6847 24.9357 68.6844 25.069C68.684 25.1892 68.1862 25.0771 68.1862 25.2684C68.1889 26.8492 69.0932 27.102 69.7814 27.1177C70.3141 27.1299 73.7208 27.1372 74.2532 27.1254C74.9648 27.1095 75.7463 26.3826 75.7387 25.1658C75.736 24.8274 75.7446 20.3344 75.7459 16.8604C75.7461 16.6945 75.5165 16.7546 75.5166 16.6683C75.5166 16.562 75.5661 16.3953 75.6041 16.2918C75.625 16.2349 75.7472 16.1631 75.7472 16.1035C75.7472 15.9823 75.7472 15.863 75.7477 15.746C75.7486 15.592 75.6269 15.5753 75.6271 15.4846C75.6271 15.3787 75.741 15.3999 75.7486 15.158C75.7518 15.0625 75.7565 15.0029 75.6005 15.0077C75.4751 15.012 75.5282 14.8007 75.5054 14.7315C75.4754 14.6397 75.0985 14.4105 75.0985 14.3201C75.0985 14.2653 75.1402 14.2111 75.1404 14.1588C75.1404 14.1209 75.1023 14.0668 75.1023 13.9862C75.1023 13.9496 75.6018 13.9519 75.6345 13.9399C75.699 13.9169 75.6918 13.8695 75.6918 13.8245C75.6918 13.7248 75.5434 13.8132 75.5472 13.6942C75.5499 13.6072 75.7527 13.5709 75.7527 13.4519C75.7522 13.1736 75.7533 12.9462 75.754 12.8702ZM72.4236 24.0991C72.3923 24.3519 72.2673 24.4312 72.1109 24.4312C71.9545 24.4312 71.7591 24.4391 71.6105 24.4312C71.4815 24.4246 71.3213 24.4074 71.29 24.1233C71.2809 24.0424 71.2763 23.2168 71.2746 22.0718L71.2745 21.768C71.2739 21.6352 71.2739 21.4996 71.2739 21.3609C71.2718 18.4492 71.2822 14.2633 71.2822 14.0953C71.2822 13.85 71.3602 13.6998 71.6651 13.6998C71.7904 13.6998 72.0133 13.708 72.1422 13.708C72.2909 13.708 72.4861 13.8026 72.4861 14.0554C72.4862 14.3084 72.455 23.8465 72.4236 24.0991ZM82.1569 26.7692C82.1486 26.7651 82.1409 26.758 82.1296 26.7536C82.1126 26.7486 82.1084 26.7483 82.0933 26.7536C82.078 26.7589 81.9284 26.7437 81.9258 26.8001C81.9478 26.966 82.043 27.1316 82.3058 27.1406C82.3241 27.1397 82.4027 27.067 82.3948 27.0507C82.3171 26.9753 82.2448 27.0871 82.168 26.9704C82.137 26.924 82.1759 26.7788 82.1569 26.7692Z" fill="white"/>
<path d="M84.0257 19.0256C84.2132 18.8835 85.1433 18.4172 85.1826 17.2002C85.1898 16.9823 85.1962 15.5808 85.1971 14.39C85.1971 14.3052 84.9493 14.2212 84.9493 14.1388V14.0749C84.9493 14.0088 85.1971 13.9438 85.1971 13.8801C85.1964 13.3465 85.1944 12.9118 85.1903 12.7355C85.1749 12.0873 84.5884 11.1075 83.4391 11.123C83.1344 11.1274 78.815 11.1017 78.4631 11.1017C78.0117 11.1017 77.8709 11.5817 77.8709 11.8421C77.8709 11.9847 77.8184 26.2623 77.8184 26.5937C77.8184 26.9263 77.9292 27.0502 78.2347 27.068C78.5396 27.086 80.1169 27.068 80.4216 27.068C80.7267 27.068 80.7968 26.7303 80.7968 26.4933C80.7968 26.2563 80.8204 21.4676 80.8204 21.2303C80.8204 20.9929 80.9963 20.934 81.1604 20.934C81.3246 20.934 81.4421 20.9439 81.612 20.9401C81.8581 20.934 81.9578 21.0465 81.9578 21.426C81.9578 21.734 81.9342 26.1729 81.9342 26.5047C81.9342 26.5231 81.9309 26.5614 81.9486 26.5634C81.9797 26.5642 81.9939 26.5029 82.0056 26.4676C82.0539 26.3037 82.2736 26.251 82.3033 26.4304C82.317 26.5148 82.4415 26.6141 82.4963 26.6788C82.5632 26.7583 82.7008 26.8353 82.747 26.9288C82.765 26.9646 82.7521 27.0874 82.7914 27.0854C83.4169 27.0943 84.5183 27.1143 84.7785 27.1097C85.107 27.1037 85.1654 26.9316 85.1654 26.4811C85.1654 26.0306 85.1654 21.2306 85.1597 20.6143C85.1537 20.0034 84.2449 19.579 84.0106 19.484C83.7753 19.3892 83.8381 19.1678 84.0257 19.0256ZM82.1659 16.9366C82.1192 17.292 81.9524 17.7765 81.7132 17.7796C81.4679 17.7824 81.2919 17.7796 81.0796 17.7765C80.8658 17.7735 80.876 17.5306 80.876 17.3175C80.876 17.1041 80.8729 14.0712 80.8729 14.0712C80.8729 13.7865 80.9244 13.6011 81.1193 13.6029C81.3067 13.6042 81.2348 13.6022 81.4241 13.6088C81.6353 13.6162 82.179 14.0515 82.1805 14.3555C82.182 14.6407 82.2128 16.581 82.1659 16.9366ZM100.818 19.0575C101.006 18.915 101.936 18.4491 101.975 17.232C101.987 16.8757 101.997 13.3598 101.983 12.7668C101.968 12.1191 101.381 11.1393 100.232 11.1552C99.9275 11.1593 95.6079 11.1333 95.2561 11.1333C94.8049 11.1333 94.6641 11.6137 94.6641 11.8747L94.656 14.1855C94.6549 14.2889 94.8429 14.4111 94.8479 14.5753C94.8499 14.6407 94.6504 14.5649 94.6504 14.6825C94.6504 14.7302 94.654 14.7984 94.6535 14.8467C94.6532 14.9591 94.9185 15.0683 94.9185 15.1849C94.9185 15.3026 94.6502 15.2259 94.6517 15.38C94.6887 19.6703 94.6109 26.3994 94.6109 26.6263C94.6109 26.9581 94.7223 27.0827 95.0272 27.1005C95.3319 27.1183 96.9095 27.1005 97.2144 27.1005C97.5195 27.1005 97.5899 26.7626 97.5899 26.5258C97.5899 26.2886 97.6133 21.4999 97.6133 21.2623C97.6133 21.0255 97.7892 20.9661 97.9535 20.9661C98.1175 20.9661 98.235 20.9759 98.4048 20.9721C98.651 20.9661 98.7507 21.0785 98.7507 21.458C98.7507 21.7661 98.7272 26.2052 98.7272 26.5373C98.7272 26.8688 98.8563 27.1121 99.2079 27.1121C99.5599 27.1121 101.242 27.1478 101.571 27.142C101.9 27.1358 101.958 26.9639 101.958 26.5137C101.958 26.2997 101.958 25.1074 101.958 23.8474C101.957 23.7769 101.955 23.7828 101.901 23.768C101.876 23.7607 101.632 23.7741 101.637 23.6528C101.642 23.5226 101.706 23.5132 101.709 23.446C101.714 23.3533 101.653 23.3391 101.654 23.2096C101.654 22.9713 101.901 23.0329 101.894 22.8368C101.889 22.6951 101.957 22.6697 101.957 22.5329C101.956 21.6283 101.954 20.8676 101.952 20.6462C101.946 20.0357 101.038 19.6111 100.803 19.516C100.568 19.4207 100.631 19.1996 100.818 19.0575ZM98.9589 16.9684C98.912 17.324 98.7451 17.8086 98.5056 17.811C98.2611 17.8142 98.0852 17.811 97.8727 17.8085C97.6589 17.8052 97.6691 17.5624 97.6691 17.3487C97.6691 17.1356 97.666 14.1023 97.666 14.1023C97.666 13.8182 97.7176 13.6329 97.9121 13.6341C98.1 13.6358 98.0283 13.634 98.2172 13.6401C98.4281 13.6476 98.9721 14.0832 98.9736 14.3868C98.975 14.6726 99.0057 16.6127 98.9589 16.9684ZM110.865 12.3639C110.88 11.6926 111.31 10.9812 112.069 10.9656C112.178 10.9633 112.497 10.9612 112.922 10.9599C113.008 10.9599 113.077 11.1051 113.262 11.103C113.439 11.1013 113.333 10.9608 113.397 10.9608C113.562 10.9606 113.679 10.9631 113.857 10.9628C113.934 10.9628 113.964 11.0727 114.123 11.0878C114.303 11.105 114.281 10.9608 114.349 10.9608C115.472 10.9606 116.611 10.9599 116.822 10.9657C117.416 10.9813 118.089 11.4634 118.089 12.0561C118.089 12.649 118.112 15.5175 118.112 15.8731C118.112 16.2285 118.042 16.4496 117.736 16.4577C117.455 16.4651 115.939 16.4658 115.727 16.4658C115.516 16.4658 115.274 16.5014 115.251 16.1931C115.227 15.885 115.251 14.1776 115.245 14.0121C115.233 13.6921 115.016 13.597 114.852 13.597H114.453C114.213 13.597 114.043 13.7984 114.043 14.0358C114.043 14.2726 114.031 15.5645 114.031 15.7542C114.031 15.944 114.031 16.0386 114.195 16.2282C114.359 16.4182 117.327 18.561 117.596 18.765C117.878 18.9783 118.136 19.2633 118.136 19.5474C118.136 19.8318 118.104 25.0237 118.112 25.3791C118.129 26.1495 117.496 26.9497 116.962 26.9672C116.634 26.9783 112.483 26.9616 112.225 26.9672C111.721 26.9793 110.889 26.4402 110.889 25.7526C110.889 25.3967 110.876 21.5324 110.876 21.2482C110.876 20.9635 110.935 20.709 111.217 20.709H113.603C113.908 20.709 113.978 20.8452 114.002 21.0823C114.026 21.3191 113.984 23.7496 113.984 23.9863C113.984 24.2231 114.061 24.4782 114.271 24.4782C114.483 24.4782 114.617 24.4842 114.799 24.4782C114.965 24.4731 115.075 24.2768 115.098 24.0397C115.122 23.8028 115.133 21.2303 115.133 20.946C115.133 20.6619 115.087 20.5904 114.923 20.4719C114.758 20.3532 111.37 17.801 111.17 17.6508C111.012 17.5322 110.871 17.4555 110.871 17.1232C110.871 17.0187 110.868 16.5246 110.869 15.8918C110.869 15.7533 110.964 15.7724 110.956 15.6685C110.948 15.5688 110.868 15.596 110.868 15.5148C110.867 15.3612 111.305 15.5328 111.311 15.3485C111.316 15.1895 111.217 15.1454 111.217 15.0846C111.217 14.9982 111.266 14.9336 111.26 14.8463C111.252 14.7439 111.154 14.6697 111.108 14.6186C111.068 14.5734 110.865 14.5375 110.865 14.4779C110.864 13.4236 110.863 12.4421 110.865 12.3639ZM120.34 12.2695C120.356 11.5977 120.785 10.8868 121.544 10.8705C121.69 10.8677 122.202 10.8652 122.841 10.8642C122.921 10.8639 122.882 10.9673 123.1 10.9673C123.212 10.9673 123.171 10.8646 123.267 10.8634C123.329 10.8627 123.392 10.8587 123.455 10.8631C123.551 10.8699 123.592 10.9673 123.714 10.9673C123.795 10.9673 123.764 10.8631 123.845 10.8631C124.957 10.8628 126.088 10.8648 126.298 10.8705C126.892 10.8865 127.564 11.3684 127.564 11.9609C127.564 12.5538 127.587 15.4223 127.587 15.7778C127.587 16.1333 127.517 16.3543 127.213 16.3624C126.93 16.3698 125.414 16.3704 125.203 16.3704C124.992 16.3704 124.75 16.406 124.727 16.0975C124.703 15.7894 124.727 14.0827 124.721 13.9167C124.709 13.5968 124.492 13.5022 124.328 13.5022H123.929C123.688 13.5022 123.518 13.7032 123.518 13.9408C123.518 14.1772 123.507 15.4699 123.507 15.6591C123.507 15.8489 123.507 15.9438 123.671 16.1332C123.835 16.3233 126.802 18.4656 127.071 18.6699C127.353 18.8835 127.611 19.1677 127.611 19.4525C127.611 19.6156 127.601 21.3861 127.594 22.9374C127.592 23.1168 127.288 23.1796 127.222 23.3373C127.161 23.4807 127.053 23.7905 127.115 23.9466C127.177 24.1006 127.327 24.0393 127.323 24.1826C127.318 24.4131 127.117 24.2733 127.11 24.5156C127.101 24.8586 127.598 24.7254 127.587 24.9356C127.577 25.147 127.587 25.2348 127.588 25.2843C127.606 26.0547 126.973 26.8552 126.439 26.8725C126.111 26.8835 121.959 26.867 121.701 26.8725C121.197 26.8844 120.365 26.3454 120.365 25.6576C120.365 25.3019 120.353 21.4378 120.353 21.1535C120.353 20.8686 120.411 20.6142 120.693 20.6142H123.079C123.384 20.6142 123.454 20.7502 123.478 20.9872C123.501 21.2243 123.46 23.6545 123.46 23.8917C123.46 24.1281 123.537 24.3838 123.747 24.3838C123.959 24.3838 124.093 24.389 124.275 24.3838C124.441 24.378 124.551 24.182 124.574 23.9449C124.598 23.7081 124.609 21.1361 124.609 20.8512C124.609 20.5668 124.563 20.4956 124.398 20.3769C124.234 20.2588 120.846 17.7063 120.646 17.5559C120.487 17.4375 120.347 17.3604 120.347 17.0282C120.346 16.6963 120.336 12.4352 120.34 12.2695ZM132.47 12.7201C132.459 11.866 133.321 10.8589 134.178 10.9022C134.527 10.9199 136.031 10.9134 137.221 10.9056C137.277 10.9052 137.358 10.9884 137.399 11.0242C137.481 11.0949 137.628 11.1067 137.713 11.0739C137.778 11.0491 137.751 10.9007 137.827 10.9014C138.271 10.902 138.607 10.8948 138.716 10.8938C139.861 10.8864 141.175 11.9923 141.179 13.1815C141.181 13.8138 141.159 17.6965 141.152 18.1403C141.144 18.6163 141.056 19.1263 140.815 19.5585C140.724 19.723 140.208 20.6652 139.564 21.7472C139.393 22.0348 139.297 21.7672 139.215 21.7498C139.169 21.7404 139.027 21.7959 139.027 21.8345C139.027 21.9163 139.315 22.1199 139.281 22.1736C139.161 22.363 138.968 22.3101 138.884 22.3495C138.774 22.4012 138.724 22.5161 138.711 22.6627C138.7 22.7768 138.607 22.9934 138.612 23.0836C138.623 23.3023 138.721 23.2241 138.576 23.4698C138.14 24.2153 137.711 24.9649 137.289 25.7186C137.123 26.0159 137.062 26.2874 137.352 26.2874C137.635 26.2874 140.19 26.2633 140.44 26.2633C140.69 26.2633 140.964 26.3105 140.972 26.5876C140.979 26.8717 140.964 28.5395 140.964 28.792C140.964 29.0452 140.972 29.2819 140.596 29.3059C140.252 29.3278 133.302 29.3299 133.083 29.3299C132.864 29.3299 132.52 29.203 132.512 28.8164C132.507 28.5313 132.489 26.7691 132.489 26.5479C132.489 26.1291 132.668 25.789 132.825 25.5364C132.981 25.2834 136.964 18.2862 137.055 18.1083C137.227 17.7686 137.279 17.3659 137.279 17.1107C137.279 16.8578 137.275 14.6178 137.275 14.3962C137.275 14.1751 137.277 13.9601 136.968 13.9679C136.75 13.9736 136.714 13.9707 136.553 13.9679C136.335 13.9639 136.179 13.9994 136.179 14.2521C136.179 14.5052 136.185 16.6525 136.179 16.9072C136.171 17.2352 136.1 17.5312 135.772 17.5312C135.553 17.5312 133.255 17.5432 133.005 17.5432C132.754 17.5432 132.458 17.413 132.458 17.0969C132.458 16.8903 132.463 15.0811 132.467 13.854C132.467 13.7974 132.571 13.8054 132.637 13.7976C132.685 13.7923 132.825 13.7614 132.825 13.6286C132.825 13.5196 132.583 13.5143 132.582 13.3365C132.581 13.2544 132.722 13.2893 132.721 13.1704C132.72 13.1044 132.701 12.9561 132.693 12.9039C132.677 12.7937 132.516 12.7429 132.475 12.7302C132.471 12.7288 132.47 12.7201 132.47 12.7201Z" fill="white"/>
<path d="M52.1915 20.7163C52.3634 20.7245 54.1919 20.814 54.3951 20.8459C54.5984 20.878 54.8292 20.854 54.9896 21.1899C55.199 21.6289 55.7556 22.3911 56.3499 22.7701C56.5813 22.918 56.6001 22.9837 56.5843 23.3312C56.5688 23.6792 56.4356 25.378 56.4047 25.5996C56.3737 25.8209 56.1494 26.045 55.9513 25.9783C54.5075 25.4965 52.3003 24.1218 51.8233 21.269C51.7203 20.6541 52.1915 20.7163 52.1915 20.7163ZM57.3033 14.8915C57.2956 15.0653 57.2021 16.7911 57.1706 16.9964C57.1393 17.2017 57.1626 17.435 56.8307 17.5966C56.469 17.7729 55.9754 18.0883 55.5952 18.5381C55.5738 18.5631 55.5366 18.5734 55.4836 18.5144C55.4139 18.4357 55.3488 18.076 55.1144 18.1587C54.9925 18.202 54.7155 18.2656 54.7155 18.4432C54.7155 18.5942 55.2846 18.7217 55.2491 18.8584C55.1802 19.1258 55.0438 19.1031 54.7001 19.0875C54.3562 19.0714 52.4952 18.9525 52.2765 18.9215C52.0577 18.8899 52.0156 18.6795 52.0811 18.4789C52.3126 17.7705 52.7531 16.9365 53.4786 16.1912C53.5296 16.1385 53.8624 16.2892 53.9655 16.1912C54.0708 16.0907 53.9302 15.8299 54.0004 15.717C54.1871 15.4185 54.4669 15.7499 54.6396 15.6283C54.695 15.589 54.5695 15.3141 54.6923 15.2249C55.3068 14.7815 55.8742 14.6207 56.7877 14.4646C57.3952 14.3609 57.3033 14.8915 57.3033 14.8915ZM63.1121 19.7672C62.9403 19.7594 61.1108 19.728 60.9076 19.6963C60.7045 19.6649 60.4258 19.7321 60.2506 19.4038C60.0398 19.0089 59.719 18.4794 59.1718 18.0764C58.951 17.9137 58.9453 17.8472 58.9607 17.4994C58.9766 17.1518 59.0467 15.3107 59.078 15.0894C59.1092 14.868 59.3529 14.7435 59.5471 14.8204C59.8716 14.9495 60.1888 15.0966 60.4972 15.2612C60.6083 15.3206 60.5766 15.4644 60.6497 15.5102C60.7316 15.5621 60.9028 15.4986 61.0031 15.5735C61.9521 16.2811 62.8338 17.3366 63.3233 19.2146C63.4802 19.8169 63.1121 19.7672 63.1121 19.7672ZM58.2336 25.8205C58.2415 25.6462 58.3276 23.8129 58.3586 23.6077C58.3897 23.4022 58.3079 23.0506 58.6403 22.8887C59.0746 22.6767 59.555 22.32 59.9302 21.7189C60.0761 21.4852 60.1804 21.4583 60.5242 21.4742C60.8686 21.4896 62.6115 21.5849 62.8308 21.6164C63.0495 21.6479 63.2262 21.8855 63.1513 22.0826C63.0303 22.4 62.8984 22.7088 62.6901 23.0783C62.6256 23.1923 62.4548 23.1676 62.3559 23.2614C62.2506 23.3625 62.1525 23.4965 62.0629 23.6176C61.9917 23.7135 62.0579 24.0297 61.9786 24.1242C61.5128 24.6844 60.9087 25.2126 60.1274 25.6077C59.9997 25.6723 59.9233 25.4664 59.6705 25.4664C59.5239 25.4664 59.4068 25.5911 59.3481 25.6854C59.2913 25.7774 59.2306 25.9731 59.1248 26.0045C59.011 26.0381 58.8964 26.0688 58.7811 26.0965C58.181 26.2403 58.2336 25.8205 58.2336 25.8205Z" fill="black"/>
<defs>
<linearGradient id="paint0_linear_718_4565" x1="82.4993" y1="8.45536" x2="82.4993" y2="36.5456" gradientUnits="userSpaceOnUse">
<stop offset="0.081" stop-color="#BB8B2F"/>
<stop offset="0.5" stop-color="#925E22"/>
<stop offset="0.946" stop-color="#612A14"/>
</linearGradient>
</defs>
</svg>
