<svg width="165" height="45" viewBox="0 0 165 45" fill="none" xmlns="http://www.w3.org/2000/svg">
<path d="M35.7402 11.5312H57.6257V33.468H35.7402V11.5312Z" fill="#C5412B"/>
<path d="M38.6846 25.025L38.6621 20.5513C38.6621 20.5513 41.0991 21.4017 42.764 21.4298L42.791 24.2971C42.791 24.2971 40.8314 24.2964 38.7375 25.059" fill="black"/>
<path d="M43.623 21.4042L44.9653 21.3779L44.9921 24.2978H43.6767L43.623 21.4042Z" fill="black"/>
<path d="M47.1401 21.9692L46.2734 22.8751L47.1959 23.7915L48.0499 22.8433L47.1401 21.9692Z" fill="black"/>
<path d="M45.8242 19.2587L48.7071 19.2456L48.7339 20.6118H45.8644L45.8242 19.2587Z" fill="black"/>
<path d="M49.5789 23.2646L47.5273 25.2613L48.533 26.2203L50.4639 24.2972L49.5789 23.2646Z" fill="black"/>
<path d="M44.9917 14.3267L49.5583 14.3047C49.5583 14.3047 48.65 16.8103 48.6213 18.4414L45.842 18.4547C45.842 18.4547 45.7354 16.4298 44.957 14.3786" fill="black"/>
<path d="M54.7797 27.1432L51.5752 30.3306C51.5752 30.3306 50.4024 27.9327 49.2422 26.7626L51.1925 24.8228C51.1925 24.8228 52.7331 26.1766 54.7666 27.0825" fill="black"/>
<path d="M59.8555 11.5312H75.6616V16.0973H59.8555V11.5312Z" fill="#999999"/>
<path d="M59.8555 16.0981V33.4689H64.7189V27.0829H66.8467V33.4689H75.6616V28.8036H71.2035V27.0829H75.6616V16.0981H71.2035V22.541H64.7189V16.0981H59.8555Z" fill="#999999"/>
<path d="M78.0918 11.5312V33.468H93.594V11.5312H89.1358V28.8027H82.7526V11.5312H78.0918Z" fill="#999999"/>
<path d="M111.428 11.5312H96.0273V24.2963H106.869V28.8027H96.0273V33.468H111.428V19.6333H100.587V16.0973H111.428V11.5312Z" fill="#999999"/>
<path d="M113.758 11.5312H129.26V16.0973H123.789V33.468H119.432V16.0973H113.758V11.5312Z" fill="#999999"/>
</svg>
