<svg width="165" height="45" viewBox="0 0 165 45" fill="none" xmlns="http://www.w3.org/2000/svg">
<path d="M39.4814 34.6223L39.1122 34.3015L38.4753 34.252C37.9208 34.2089 37.7921 34.1837 37.4796 34.0572L37.1207 33.9118L36.8131 34.0406C36.5525 34.1496 36.4275 34.1731 35.9954 34.1941L35.4854 34.2188L35.4192 34.0598C35.3828 33.9723 35.3314 33.9008 35.3051 33.9008C35.2788 33.9008 35.0138 33.9789 34.7162 34.0744L34.1751 34.248L33.9623 34.1398C33.6988 34.0058 33.6832 34.0059 33.228 34.1452L32.8568 34.2589L32.4986 34.1834C32.1162 34.1029 31.9943 34.1097 30.848 34.2758L30.404 34.3401L30.1746 34.1813C29.9673 34.0379 29.9252 34.025 29.7371 34.0471C29.5478 34.0693 29.5247 34.062 29.4812 33.9662C29.4424 33.8807 29.4522 33.8174 29.5335 33.6301C29.6267 33.415 29.6379 33.294 29.6973 31.8547C29.7527 30.5098 29.7529 30.2521 29.6986 29.8611C29.6283 29.3551 29.6284 29.3549 29.9265 29.4097C30.0324 29.4292 30.1267 29.4375 30.136 29.4282C30.1454 29.4189 30.1756 28.7485 30.2031 27.9384C30.2489 26.5925 30.2364 26.1832 30.1496 26.1813C30.1328 26.181 30.0465 26.1172 29.9578 26.0396L29.7966 25.8986L29.6604 25.1136C29.5854 24.6819 29.5136 24.1195 29.5006 23.8638C29.479 23.4368 29.485 23.3862 29.5735 23.2424C29.6266 23.1563 29.6842 23.0858 29.7017 23.0858C29.7192 23.0858 29.7909 23.1465 29.8611 23.2206C29.9313 23.2948 30.0457 23.3965 30.1153 23.4467L30.2419 23.538L30.2128 22.7634C30.1884 22.1145 30.1688 21.954 30.0919 21.7745C30.04 21.6535 30.011 21.5184 30.0252 21.4639C30.0421 21.399 29.994 21.2652 29.8778 21.0539L29.7053 20.7403L29.7637 20.2264C29.8113 19.8081 29.812 19.649 29.7677 19.3711C29.7032 18.9672 29.5656 18.5336 29.4171 18.2669L29.3102 18.0749L29.3992 17.3754L29.4883 16.676L29.3961 16.2941L29.3039 15.9121L29.4133 15.5011L29.5226 15.0901L29.4388 14.847C29.2645 14.3411 29.2611 14.2695 29.3966 13.965C29.6334 13.4331 29.6663 12.786 29.5038 11.8565C29.4482 11.5387 29.4145 11.447 29.3265 11.3745C29.171 11.2465 29.2209 11.0413 29.4432 10.8936C29.5734 10.807 29.6027 10.7636 29.5868 10.6803C29.5688 10.5857 29.5809 10.5763 29.7126 10.5826C29.7928 10.5865 30.1873 10.5517 30.5893 10.5054L31.3203 10.4212L32.1751 10.5442L33.0298 10.6671L34.13 10.6174L35.2301 10.5676L35.4768 10.7158L35.7234 10.864L36.5853 10.8924C37.7172 10.9297 38.184 10.8522 38.8471 10.5168C39.1232 10.3772 39.4602 10.2504 39.756 10.1748L40.226 10.0547L40.7633 10.2229L41.3005 10.3912L41.7559 10.2381L42.2112 10.0851L42.7253 10.2452C43.0751 10.3542 43.4298 10.5087 43.8349 10.7287L44.4303 11.0519L45.1346 11.0399L45.839 11.0279L45.8726 10.9189C45.8911 10.859 45.9473 10.6676 45.9975 10.4937L46.0888 10.1776H46.6023C46.9812 10.1776 47.3027 10.2113 47.8278 10.3062C48.2194 10.377 48.7423 10.467 48.9899 10.5062L49.44 10.5776L49.6873 10.4662C49.8443 10.3955 50.082 10.338 50.3382 10.3089C50.7003 10.2677 50.7669 10.2719 50.9875 10.349C51.1227 10.3963 51.4288 10.4658 51.6678 10.5034C52.0507 10.5638 52.1718 10.5648 52.6887 10.5119L53.2752 10.4519L53.6011 10.6867C53.7803 10.8159 53.9572 10.9455 53.9943 10.9748C54.0338 11.006 54.0819 11.1608 54.1105 11.3495L54.1594 11.6711L53.9189 12.1071C53.7294 12.4506 53.6909 12.5511 53.7375 12.5808C53.77 12.6014 53.8207 12.6186 53.8503 12.619C53.8798 12.6194 53.958 12.7016 54.0241 12.8017L54.1441 12.9838L54.1581 14.2735C54.1716 15.5282 54.1059 18.1892 54.0602 18.235C54.0478 18.2476 53.882 18.2397 53.6921 18.2175L53.3467 18.1771L53.2949 18.4528C53.2663 18.6045 53.2551 18.8046 53.2699 18.8975C53.2929 19.0419 53.2717 19.1102 53.1231 19.3688C53.0276 19.5352 52.9494 19.6861 52.9494 19.7042C52.9494 19.7597 53.2108 20.0843 53.4816 20.3651L53.7387 20.6316L53.6436 20.9523L53.5484 21.2729L53.6684 22.0595C53.8065 22.9651 53.8 23.0573 53.532 23.9652C53.4118 24.3727 53.3888 24.501 53.431 24.5272C53.4612 24.5459 53.6168 24.5744 53.777 24.5905L54.0682 24.6199L54.0965 25.6953C54.2478 31.4331 54.2588 32.1871 54.2071 33.2249C54.1784 33.8005 54.1494 34.2779 54.1426 34.2857C54.1357 34.2936 53.7886 34.1496 53.371 33.9658L52.6118 33.6317L52.2702 33.779L51.9285 33.9264L51.8903 34.166L51.852 34.4057L51.1951 34.5472L50.5382 34.6887L50.0821 34.5203C49.6332 34.3546 49.6205 34.3526 49.2897 34.3951C49.0063 34.4315 48.9134 34.4261 48.6982 34.3607L48.4429 34.2831L48.0801 34.4475L47.7172 34.612L46.9989 34.6309C46.6039 34.6413 46.1047 34.6316 45.8896 34.6094C45.4247 34.5616 44.3695 34.6645 43.5641 34.8363C43.1084 34.9335 43.017 34.9396 42.5503 34.9043C42.2681 34.8829 41.7896 34.833 41.487 34.7934L40.9368 34.7213L40.4422 34.8344C40.1702 34.8965 39.9258 34.9465 39.8992 34.9453C39.8725 34.9441 39.6845 34.7988 39.4814 34.6223ZM37.244 31.0929C38.5343 30.606 39.5803 30.1899 39.5683 30.1684C39.5376 30.1128 33.7095 24.4616 33.6703 24.4494C33.6526 24.4439 33.2303 25.557 32.7319 26.9231L31.8258 29.4068L31.9499 29.5129C32.0182 29.5712 32.6899 30.1501 33.4426 30.7992C34.1953 31.4484 34.8306 31.9793 34.8545 31.9789C34.8784 31.9785 35.9537 31.5798 37.244 31.0929ZM51.298 28.7877C51.9029 27.3186 52.406 26.0855 52.4161 26.0474C52.4296 25.9965 49.9914 24.3227 43.2106 19.7278C38.1375 16.29 33.9664 13.4773 33.9414 13.4773C33.887 13.4773 31.265 14.6659 31.2109 14.7151C31.1902 14.7339 31.2169 14.7755 31.2703 14.8074C31.3237 14.8394 34.9338 18.599 39.2926 23.1621L47.2179 31.4587H48.7081H50.1984L51.298 28.7877ZM49.8872 17.5475C50.116 16.2643 50.3122 15.1841 50.3231 15.147C50.337 15.0994 50.0585 14.8794 49.3704 14.3948C48.8355 14.0181 48.38 13.7099 48.3582 13.7099C48.311 13.7099 43.2928 15.1027 43.2748 15.1208C43.2679 15.1277 44.655 16.2123 46.3572 17.5311C48.0594 18.8499 49.4564 19.9181 49.4616 19.9048C49.4668 19.8914 49.6583 18.8307 49.8872 17.5475Z" fill="#9B3425"/>
<path d="M62.5996 15.5709H63.6287L63.767 15.648L63.9513 15.7868L64.0742 15.8793L64.1817 16.0335L64.2431 16.1722V28.075L64.2124 28.3217L64.151 28.5838L64.0435 28.8613L63.8438 29.0926L63.6287 29.2313L63.4089 29.2905L62.9375 29.4009H66.4089L67.392 29.478L69.0201 29.6322L70.1568 29.6477L72.5837 29.2468L74.2119 28.5067L75.2564 27.7358L75.9937 27.0574L76.562 26.2711L77.0074 25.531L77.3607 24.7139L77.6218 23.3263L77.8062 22.2778L77.5758 20.7514L77.1457 19.2404L76.562 18.2383L75.7018 17.2207L74.2733 16.3418L72.7373 15.7868L70.8326 15.4322L66.5164 15.4168L66.5932 16.1877L68.6515 16.1106L69.8189 16.2031L71.6007 16.7273L73.0138 17.637L74.2887 19.0246L75.0874 20.8285L75.2871 22.6478L75.2103 24.3284L74.9338 25.4077L74.4116 26.7028L73.4746 27.7666L72.0922 28.5838L69.9571 28.9076H68.2061L67.6531 28.7225L66.8697 28.1366L66.6086 27.7358L66.624 16.3264L66.5319 15.4167L62.6304 15.5247L62.5996 15.5709Z" fill="#837670"/>
<path d="M90.7124 15.9073L89.5176 16.0164L88.5401 16.3434L86.9978 17.5427L86.042 20.3118L85.9551 22.8194L86.3244 24.4329L87.2368 26.3517L88.866 28.1178L90.7124 28.881L92.6891 28.9246L94.2966 28.2051L95.1438 27.1366L95.9258 25.3923L96.1864 22.2524L95.5565 19.2216L94.3183 17.3464L92.3198 16.0818C92.3198 16.0818 91.3858 15.9946 91.0165 15.951C90.6472 15.9074 90.821 15.1006 90.821 15.1006L92.4719 15.1224L94.1228 15.4276L95.5565 16.06L96.7295 16.954L97.9677 18.5239L98.4239 20.0502L98.728 22.3178L98.4673 24.5201L97.7939 25.981L95.9258 28.3577L94.3183 29.2299L92.1026 29.8186H90.0824L88.1708 29.4697L86.3244 28.4013L84.9125 27.093L84.2608 26.0682L83.5005 23.975L83.457 21.9908L83.6743 20.5735L84.3694 18.7201L85.8031 16.8231L87.9536 15.6021L90.1476 15.1442L90.8644 15.1224L90.9079 15.951L90.7124 15.9073Z" fill="#837670" stroke="#0000FF" stroke-opacity="0.040201"/>
<path d="M104.093 15.186L103.756 16.327L103.602 17.067L103.51 17.5912L103.694 17.9921L104.001 17.3754L104.431 16.7278L105.107 16.4195L108.947 16.327L108.917 28.2297L108.824 28.4764L108.548 28.9698L108.271 29.0931L107.35 29.1856V29.494L110.207 29.3706L113.248 29.494L113.31 29.2165L111.835 29.0931L111.343 28.6614L111.19 28.1372L111.251 16.2344L114.2 16.2653L115.306 16.5736L115.736 17.0053L115.859 17.8379L116.013 18.1463L116.289 17.7146L116.136 15.186L115.183 15.4019L110.238 15.4635L104.861 15.371L104.278 15.0935L104.093 15.186Z" fill="#837670"/>
<path d="M121.581 28.8607L121.081 29.1005L119.951 29.1659L119.93 29.5802L122.536 29.4276L124.622 29.5584L124.687 29.1223L123.644 29.0787L123.449 28.7953L123.427 28.5118L124.166 26.3096L127.033 26.2441L129.9 26.3314L130.965 29.0133L130.443 29.275L130.574 29.5366L133.05 29.493L135.288 29.5366L135.266 29.1659L134.071 29.1005L133.224 28.3374L132.333 26.6584L132.529 26.3532L134.158 25.9607L135.765 25.7644L135.744 25.4156H131.747L127.511 14.884L123.058 25.4156L124.6 25.3284L127.033 18.787C127.033 18.787 129.509 24.9795 129.466 25.1975C129.422 25.4156 129.314 25.3502 129.314 25.3502L124.6 25.372L123.036 25.4592L121.581 28.8607Z" fill="#837670"/>
<path d="M123.073 25.3747L123.029 25.4806L124.585 25.3901L124.577 25.3785L124.615 25.2879L123.893 25.2205L123.073 25.3747Z" fill="#837670"/>
<path d="M39.4712 34.6072L39.1108 34.2992L38.6241 34.2589C38.0162 34.2085 37.7329 34.1526 37.3899 34.0154L37.1205 33.9075L36.8331 34.0229C36.5872 34.1216 35.9855 34.2125 35.5293 34.2197C35.5047 34.2201 35.4624 34.1616 35.4353 34.0897C35.4083 34.0178 35.3558 33.9473 35.3187 33.933C35.2815 33.9186 35.0057 33.9812 34.7057 34.0719L34.1603 34.2369L33.9645 34.1414C33.7166 34.0205 33.6106 34.0217 33.1967 34.1498C32.8821 34.2473 32.8444 34.2501 32.5885 34.1949C32.213 34.1141 31.8962 34.12 31.1874 34.221C30.4123 34.3315 30.3972 34.3308 30.1695 34.1759C30.0165 34.0719 29.932 34.0459 29.7467 34.0459C29.5359 34.0459 29.5127 34.0362 29.4879 33.9369C29.4722 33.8742 29.4913 33.751 29.5327 33.6469C29.6479 33.358 29.6941 32.6525 29.7079 30.9715L29.7209 29.4016L29.9381 29.4161L30.1553 29.4306L30.1884 28.5221C30.2065 28.0224 30.2234 27.303 30.2258 26.9233L30.2303 26.233L30.1142 26.1481C29.7962 25.9154 29.8116 25.9493 29.6795 25.1896C29.611 24.7959 29.5429 24.2181 29.5281 23.9055C29.5019 23.3501 29.5036 23.3346 29.6051 23.2182L29.709 23.0991L29.968 23.3226C30.1105 23.4455 30.2341 23.5249 30.2426 23.4992C30.2814 23.3823 30.1658 21.9734 30.1029 21.7973C30.0655 21.6923 30.0348 21.548 30.0348 21.4766C30.0348 21.4052 29.9638 21.2111 29.877 21.0453L29.7192 20.7438L29.7717 20.2074C29.8413 19.4976 29.7533 18.976 29.4579 18.3468L29.3248 18.0633L29.4093 17.3603L29.4938 16.6574L29.4025 16.2919L29.3112 15.9265L29.4178 15.5184L29.5243 15.1104L29.4027 14.7125L29.2811 14.3145L29.4299 13.8994C29.5757 13.4925 29.5786 13.4711 29.5762 12.8084C29.5735 12.0628 29.4936 11.5777 29.3417 11.3838C29.2094 11.215 29.2305 11.0988 29.4266 10.9167C29.5222 10.8279 29.6004 10.7168 29.6004 10.6698C29.6004 10.5963 29.632 10.5839 29.8285 10.581C29.9539 10.5791 30.34 10.5447 30.6865 10.5047L31.3164 10.4318L32.1419 10.5524C32.9664 10.6729 32.9687 10.673 34.098 10.6247L35.2286 10.5764L35.497 10.7369L35.7655 10.8974L36.8645 10.8811L37.9635 10.8649L38.3328 10.7307C38.5359 10.657 38.8585 10.526 39.0497 10.4397C39.2408 10.3533 39.5834 10.233 39.811 10.1722L40.2248 10.0618L40.759 10.2316L41.2933 10.4015L41.7548 10.2464L42.2163 10.0913L42.7123 10.2551C42.985 10.3453 43.4942 10.5666 43.8438 10.7471L44.4794 11.0751L45.1464 11.0548C45.6503 11.0394 45.8225 11.0197 45.8505 10.9741C45.8709 10.9409 45.9327 10.7491 45.9877 10.5479L46.0878 10.182L46.7177 10.2034C47.1879 10.2193 47.6099 10.2709 48.3818 10.4066L49.4159 10.5885L49.6852 10.4807C49.8332 10.4214 50.1122 10.3514 50.3051 10.325C50.6322 10.2803 50.6878 10.2852 51.1305 10.398C51.5463 10.5039 51.6862 10.5189 52.257 10.5182C52.6154 10.5178 52.989 10.5033 53.0872 10.486C53.2567 10.4561 53.2843 10.4679 53.629 10.7178C53.8288 10.8626 54.0064 11.0041 54.0238 11.0323C54.0411 11.0605 54.0772 11.2137 54.1039 11.3727L54.1525 11.6618L53.9325 12.0752C53.8114 12.3026 53.7124 12.5084 53.7124 12.5325C53.7124 12.5566 53.7605 12.5984 53.8192 12.6253C53.878 12.6521 53.9788 12.7541 54.0432 12.8518L54.1603 13.0294L54.1318 15.4155C54.1162 16.7279 54.0907 17.8976 54.0753 18.0148L54.0473 18.228L53.6889 18.2026L53.3305 18.1772L53.3011 18.374C53.285 18.4822 53.2717 18.6814 53.2717 18.8167C53.2717 19.0171 53.2406 19.1231 53.1037 19.3885L52.9356 19.7143L53.0285 19.8482C53.0797 19.9218 53.2576 20.1242 53.4239 20.2978L53.7263 20.6136L53.6346 20.952L53.5429 21.2904L53.6519 22.0099C53.7825 22.8724 53.7717 23.0905 53.561 23.8392C53.477 24.1377 53.4083 24.4158 53.4083 24.4572C53.4083 24.5348 53.4669 24.5547 53.8536 24.6079C54.0263 24.6317 54.06 24.6515 54.0605 24.7295C54.0608 24.7807 54.089 25.8824 54.1233 27.1776C54.2357 31.4328 54.2462 32.3615 54.1923 33.3256C54.1642 33.8288 54.1338 34.248 54.1248 34.257C54.1157 34.2662 53.7701 34.1277 53.3565 33.9496L52.6047 33.6256L52.2796 33.7675C51.9458 33.9132 51.9124 33.9507 51.8671 34.2301C51.8371 34.4152 51.8589 34.4062 51.0342 34.5755L50.5499 34.6749L50.0784 34.5161C49.6411 34.3688 49.58 34.359 49.2376 34.3811C48.9791 34.3977 48.8033 34.3857 48.6519 34.341C48.4357 34.2772 48.4354 34.2773 48.0713 34.4453L47.707 34.6135L46.3543 34.6123C44.9298 34.611 44.6369 34.6331 43.6549 34.8151C42.9774 34.9407 42.7392 34.9382 41.5519 34.7926L40.9261 34.7159L40.4875 34.8161C40.2463 34.8712 40.0001 34.916 39.9403 34.9158C39.8692 34.9154 39.7073 34.809 39.4712 34.6072ZM36.8356 30.7546C37.8808 30.3595 38.7423 30.03 38.7499 30.0223C38.7634 30.0087 34.674 26.027 34.1317 25.5258C33.9792 25.3849 33.8456 25.2785 33.8347 25.2894C33.8238 25.3003 33.4914 26.1908 33.0961 27.2682C32.6606 28.4549 32.3908 29.2492 32.4116 29.283C32.4379 29.3257 34.8994 31.4661 34.9287 31.4718C34.9322 31.4725 35.7903 31.1497 36.8356 30.7546ZM50.8904 28.573C51.4337 27.2539 51.8657 26.1618 51.8504 26.1463C51.8293 26.1249 41.6261 19.208 34.4805 14.371L33.9082 13.9836L32.97 14.4075C32.4539 14.6407 32.0386 14.8521 32.0469 14.8773C32.0553 14.9025 35.5112 18.5379 39.7266 22.9559L47.3911 30.9886L48.6468 30.98L49.9025 30.9715L50.8904 28.573ZM49.4747 17.2373C49.6549 16.2335 49.8023 15.3787 49.8023 15.3378C49.8023 15.2913 49.5388 15.0773 49.0989 14.7664C48.7121 14.493 48.3705 14.254 48.34 14.2352C48.2844 14.2011 44.2823 15.2872 44.2875 15.335C44.291 15.3669 49.1181 19.0917 49.1346 19.0751C49.1415 19.0682 49.2945 18.2412 49.4747 17.2373Z" fill="#9B3425"/>
</svg>
