<svg width="165" height="45" viewBox="0 0 165 45" fill="none" xmlns="http://www.w3.org/2000/svg">
<path d="M133.437 11.353C136.287 11.353 138.208 14.2481 137.091 16.8534L137.091 16.8536L134.622 22.6049C134.007 24.0365 132.609 24.9734 131.051 25.0047H114.009L114.009 25.0052L112.479 28.5694L112.479 28.5697H129.054C130.477 28.5698 131.439 30.0171 130.881 31.3186L130.881 31.319L129.88 33.6483H103.924L107.781 24.663L107.781 24.6628L107.841 24.5271C109.122 21.6948 111.956 19.8656 115.088 19.8656H129.423L129.423 19.865L130.926 16.3655L130.926 16.3651H111.345L113.497 11.353H133.437ZM112.838 15.3873H132.419L130.332 20.2485L130.331 20.2495L130.075 20.8434H115.088C112.305 20.8434 109.786 22.495 108.69 25.0455L105.417 32.6705H129.227L129.972 30.9363C130.255 30.2746 129.764 29.5476 129.054 29.5475H110.985L113.101 24.6218L113.101 24.6208L113.358 24.0269H131.036C132.201 24.0015 133.25 23.3002 133.713 22.2224L136.182 16.4711C137.025 14.5043 135.572 12.3308 133.437 12.3308H114.151L112.838 15.3873Z" fill="#E38717"/>
<path fill-rule="evenodd" clip-rule="evenodd" d="M32.4249 11.9624C31.2219 11.9624 30.1355 12.6664 29.6594 13.7517L27.7078 18.2612C27.2851 19.239 28.014 20.3224 29.0925 20.3224H35.4471C35.7493 20.3224 36.0219 20.1445 36.1384 19.8726L36.7705 18.4177H30.0841L31.8718 14.2934L30.9019 13.8417H38.2599C38.5621 13.8417 38.8347 13.6637 38.9513 13.3919L39.5715 11.9624H32.4249ZM48.8179 18.5213C48.3458 19.6145 47.2574 20.3224 46.0505 20.3224H39.3345C38.256 20.3224 37.5291 19.2371 37.9518 18.2593L39.9034 13.7596C40.3755 12.6684 41.4639 11.9604 42.6688 11.9604H49.3849C50.4634 11.9604 51.1903 13.0458 50.7676 14.0236L48.8179 18.5213ZM46.6194 17.9679L48.4071 13.8417H41.1873L42.1118 14.2934L40.3241 18.4177H45.93C46.2303 18.4177 46.5009 18.2417 46.6194 17.9679ZM54.7044 32.7676H53.2762L56.0891 26.2849C55.9784 26.2849 52.9779 26.2849 52.9779 26.2849L53.7997 24.4056H62.4377L61.8668 25.7373C61.7305 26.0561 61.3414 26.2849 60.9621 26.2849H58.5049L56.0891 31.8661C55.854 32.4136 55.3088 32.7676 54.7044 32.7676ZM82.975 30.4424H82.2145L80.1483 30.4404L79.1212 32.7676H76.7468L80.3834 24.4076H82.7518L81.0392 28.3539L86.6629 24.5386C86.7893 24.4525 86.9375 24.4076 87.0915 24.4076H90.651L84.3498 28.7176L87.1942 32.7695H84.5928L82.975 30.4424ZM78.4318 24.4056H75.9982L72.3676 32.7676H74.1394C74.5207 32.7676 74.9276 32.5192 75.0639 32.2004L77.1814 27.2998L78.4318 24.4056ZM71.3128 32.7676H68.7765L67.7315 30.8629H63.2436L62.8071 31.868C62.57 32.4136 62.0249 32.7676 61.4224 32.7676H59.9765L63.6051 24.4076H71.6742C72.7547 24.4076 73.4836 25.4929 73.0589 26.4707L71.4945 30.0748C71.2871 30.5539 70.8091 30.8629 70.2816 30.8629L71.3128 32.7676ZM72.1068 28.6257L70.7636 26.2869L64.1108 26.2927L65.0313 26.7308L64.0495 29.0031H69.0925C69.3947 29.0031 69.6673 28.8252 69.7858 28.5514L70.7636 26.2849L72.1068 28.6257ZM92.2668 27.8787H97.7226L97.2091 29.0579C97.0905 29.3297 96.8179 29.5057 96.5177 29.5057H91.5557L90.9651 30.8609H97.6298L97.0036 32.3158C96.8851 32.5896 96.6145 32.7676 96.3123 32.7676H88.8495C88.3103 32.7676 87.9468 32.2239 88.1582 31.735L90.9434 25.3052C91.1804 24.7596 91.7236 24.4056 92.3261 24.4056H100.431L99.8125 25.8351C99.694 26.1089 99.4214 26.2849 99.1212 26.2849H91.8244L92.7646 26.7269L92.2668 27.8787ZM52.6895 18.4177L55.4629 11.9644H54.015C53.4125 11.9644 52.8693 12.3183 52.6323 12.8639L50.2856 18.2612C49.8609 19.239 50.5898 20.3244 51.6683 20.3244H57.8273C59.0362 20.3244 60.1266 19.6145 60.5987 18.5194L63.4273 11.9644L61.9952 11.9624C61.3908 11.9624 60.8456 12.3164 60.6086 12.8639L58.4041 17.964C58.2876 18.2378 58.013 18.4177 57.7108 18.4177H52.6895ZM77.5152 20.3244H76.0871L78.9019 13.8417C78.7913 13.8417 75.7908 13.8417 75.7908 13.8417L76.6125 11.9624H85.2505L84.6797 13.2941C84.5434 13.6129 84.1542 13.8417 83.775 13.8417H81.3177L78.9019 19.4228C78.6649 19.9684 78.1197 20.3244 77.5152 20.3244ZM103.769 18.4177L104.802 20.3224H102.266L101.219 18.4177H96.731L96.2945 19.4228C96.0574 19.9684 95.5123 20.3224 94.9098 20.3224H93.4619L97.0905 11.9624H105.16C106.24 11.9624 106.969 13.0477 106.544 14.0255L104.98 17.6296C104.776 18.1087 104.298 18.4177 103.769 18.4177ZM104.253 13.8417L103.275 16.1082C103.157 16.382 102.884 16.5599 102.582 16.5599H97.5389L98.5187 14.2876L97.5982 13.8495L104.253 13.8417ZM92.8989 15.4355H87.4293L87.9291 14.2837L86.9868 13.8417H94.2994C94.6016 13.8417 94.8742 13.6637 94.9928 13.3919L95.613 11.9624H87.4886C86.8841 11.9624 86.3389 12.3164 86.1019 12.862L83.3088 19.2918C83.0975 19.7807 83.4609 20.3224 84.0021 20.3224H91.4826C91.7849 20.3224 92.0574 20.1444 92.176 19.8707L92.8041 18.4157H86.1236L86.7162 17.0605H91.69C91.9903 17.0605 92.2629 16.8845 92.3834 16.6127L92.8989 15.4355ZM64.257 19.4228C64.0199 19.9684 63.4747 20.3224 62.8723 20.3224H61.4244L65.055 11.9624L66.8683 11.9604C67.1468 11.9604 67.4036 12.111 67.534 12.3555L70.4298 17.743L72.5592 12.862C72.7962 12.3183 73.3394 11.9644 73.9419 11.9644L75.4115 11.9624L71.9725 19.8726C71.854 20.1445 71.5814 20.3224 71.2792 20.3224H69.7384C69.4599 20.3224 69.2031 20.1718 69.0728 19.9293L66.2836 14.753L64.257 19.4228ZM47.4036 30.8629L47.9844 29.5252H43.4649H42.9118C41.8332 29.5252 41.1044 28.4419 41.5251 27.4661L41.7503 26.9439L42.0663 26.2125C42.5384 25.1174 43.6288 24.4056 44.8397 24.4056H52.575L51.9567 25.8351C51.8382 26.1089 51.5656 26.2869 51.2634 26.2869H43.2693L44.2155 26.7386L43.8441 27.599H48.9108C49.9913 27.599 50.7202 28.6844 50.2955 29.6621L49.7286 30.9685C49.2545 32.0597 48.1641 32.7676 46.9592 32.7676H39.2219L39.8579 31.3107C39.9765 31.0389 40.2491 30.8629 40.5493 30.8629H47.4036Z" fill="white"/>
</svg>
