<svg width="258" height="258" viewBox="0 0 258 258" fill="none" xmlns="http://www.w3.org/2000/svg">
<g clip-path="url(#clip0_257_8974)">
<path d="M129.961 258.411H133.408L129.518 208.761L129.961 258.411Z" fill="#32323D"/>
<path d="M154.716 258.41H157.096L145.424 206.929L154.716 258.41Z" fill="#32323D"/>
<path d="M185.466 258.41H190.32L161.919 200.949L185.466 258.41Z" fill="#32323D"/>
<path d="M231.94 258.41H240.196L179.002 189.039L231.94 258.41Z" fill="#32323D"/>
<path d="M258.249 211.475V203.823L194.85 168.58L258.249 211.475Z" fill="#32323D"/>
<path d="M258.249 149.602V142.842L204.134 138.849L258.249 149.602Z" fill="#32323D"/>
<path d="M258.25 91.9853V84.7922L201.39 106.211L258.25 91.9853Z" fill="#32323D"/>
<path d="M188.436 80.226L258.25 27.1761V18.884L188.436 80.226Z" fill="#32323D"/>
<path d="M215.851 0.410889H210.233L171.709 63.8221L215.851 0.410889Z" fill="#32323D"/>
<path d="M175.208 0.410889H172.26L154.978 54.7921L175.208 0.410889Z" fill="#32323D"/>
<path d="M143.151 0.410889L139.023 50.7157L147.207 0.410889H143.151Z" fill="#32323D"/>
<path d="M125.52 0.410889H121.254L127.25 50.2874L125.52 0.410889Z" fill="#32323D"/>
<path d="M80.7081 0.410889H78.0317L94.7914 53.3731L80.7081 0.410889Z" fill="#32323D"/>
<path d="M58.6785 0.410889H53.9761L90.9525 61.0408L58.6785 0.410889Z" fill="#32323D"/>
<path d="M0.25 2.69702V11.985L73.8864 75.5304L0.25 2.69702Z" fill="#32323D"/>
<path d="M0.25 70.9014V78.5588L59.3972 99.4464L0.25 70.9014Z" fill="#32323D"/>
<path d="M0.25 129.685V137.352L53.8588 131.516L0.25 129.685Z" fill="#32323D"/>
<path d="M0.25 189.184V197.224L60.8764 162.925L0.25 189.184Z" fill="#32323D"/>
<path d="M2.96436 258.411H11.8739L76.0194 185.624L2.96436 258.411Z" fill="#32323D"/>
<path d="M65.6892 258.411L93.2367 199.148L60.5396 258.411H65.6892Z" fill="#32323D"/>
<path d="M98.0627 258.411L109.986 206.145L95.5137 258.411H98.0627Z" fill="#32323D"/>
<path d="M122.827 258.41H126.295L126.016 208.684L122.827 258.41Z" fill="#32323D"/>
<path d="M191.5 258.411H196.928L164.334 199.664L191.5 258.411Z" fill="#32323D"/>
<path d="M258.249 178.921V171.563L200.829 154.462L258.249 178.921Z" fill="#32323D"/>
<path d="M258.249 39.0285V30.7261L190.433 83.0072L258.249 39.0285Z" fill="#32323D"/>
<path d="M165.077 0.410889L151.146 53.4556L167.743 0.410889H165.077Z" fill="#32323D"/>
<path d="M110.34 0.410889L121.833 51.6703L112.682 0.410889H110.34Z" fill="#32323D"/>
<path d="M0.25 149.091V155.995L54.853 142.46L0.25 149.091Z" fill="#32323D"/>
<path d="M44.6294 258.411H51.3855L87.9595 195.82L44.6294 258.411Z" fill="#32323D"/>
</g>
<defs>
<clipPath id="clip0_257_8974">
<rect width="258" height="258" fill="white"/>
</clipPath>
</defs>
</svg>
