<svg width="100" height="100" viewBox="0 0 100 100" fill="none" xmlns="http://www.w3.org/2000/svg">
<path d="M88.14 25.9C85.55 25.9 83.44 28.01 83.44 30.6C83.44 31.44 83.66 32.24 84.06 32.94C80.9 37.76 77.8 41.25 75.45 42.7C75.34 41.05 75.28 39.59 75.24 38.5C76.3 38.27 77.1 37.32 77.1 36.19C77.1 34.88 76.04 33.82 74.73 33.82C73.42 33.82 72.36 34.88 72.36 36.19C72.36 36.91 72.68 37.57 73.23 38.01C72.59 39.36 71.86 40.62 71.07 41.83C69.73 39.94 68.72 36.55 68.24 32.16C69.56 31.33 70.42 29.86 70.42 28.2C70.42 25.61 68.31 23.5 65.72 23.5C63.13 23.5 61.02 25.61 61.02 28.2C61.02 29.24 61.36 30.23 61.97 31.03C58.51 37.75 54.58 40.62 52.2 41.82C51.89 40.9 51.63 40.02 51.44 39.25C52.24 38.86 52.78 38.04 52.78 37.12C52.78 35.81 51.72 34.75 50.41 34.75C49.1 34.75 48.04 35.81 48.04 37.12C48.04 38.04 48.58 38.87 49.38 39.25C49.19 40.02 48.94 40.9 48.62 41.82C46.25 40.63 42.32 37.76 38.85 31.03C39.45 30.23 39.8 29.24 39.8 28.2C39.8 25.61 37.69 23.5 35.1 23.5C32.51 23.5 30.4 25.61 30.4 28.2C30.4 29.86 31.27 31.33 32.58 32.16C32.1 36.55 31.09 39.94 29.75 41.83C28.98 40.64 28.26 39.41 27.63 38.08C28.22 37.64 28.58 36.94 28.58 36.19C28.58 34.88 27.52 33.82 26.21 33.82C24.9 33.82 23.84 34.88 23.84 36.19C23.84 37.29 24.57 38.2 25.58 38.47C25.55 39.56 25.49 41.03 25.37 42.7C23.02 41.25 19.92 37.75 16.76 32.93C17.16 32.23 17.38 31.43 17.38 30.59C17.38 28 15.27 25.89 12.68 25.89C10.09 25.89 8 28.01 8 30.6C8 32.79 9.51 34.64 11.55 35.16C12.7 40.44 14.6 51.92 14.6 69.85C14.6 69.96 14.6 70.07 14.62 70.18C15.45 75.83 34.55 77.02 50.42 77.02C66.29 77.02 85.38 75.83 86.22 70.18C86.24 70.07 86.24 69.96 86.24 69.85C86.24 51.92 88.14 40.44 89.29 35.16C91.33 34.64 92.84 32.8 92.84 30.6C92.84 28.01 90.73 25.9 88.14 25.9ZM10.25 30.6C10.25 29.24 11.35 28.15 12.7 28.15C14.05 28.15 15.15 29.25 15.15 30.6C15.15 31.49 14.67 32.27 13.96 32.7C13.57 32.91 13.35 32.96 13.35 32.96C13.14 33.02 12.93 33.06 12.7 33.06C11.35 33.06 10.25 31.96 10.25 30.61V30.6ZM27.48 45.69C27.88 45.69 28.27 45.63 28.65 45.5C33.43 43.89 34.67 35.01 35 30.64C33.7 30.57 32.67 29.51 32.67 28.2C32.67 26.89 33.77 25.75 35.12 25.75C36.47 25.75 37.57 26.85 37.57 28.2C37.57 29.21 36.96 30.08 36.09 30.45C42.16 43.51 50.43 44.84 50.43 44.84C50.43 44.84 57.12 43.76 62.88 34.03C62.73 47.74 59.75 57.11 56.24 63.42C57.2 63.41 58.16 63.4 59.1 63.4C60.12 63.39 61.13 63.37 62.13 63.36C64.12 63.33 66.04 63.28 67.86 63.23C69.68 63.17 71.4 63.1 72.99 63.03C74.58 62.94 76.03 62.85 77.32 62.74C78.61 62.62 79.72 62.51 80.64 62.38C81.55 62.24 82.28 62.12 82.76 62C83.24 61.88 83.49 61.78 83.49 61.78C83.49 61.78 83.26 61.91 82.79 62.09C82.32 62.27 81.62 62.48 80.71 62.7C79.8 62.92 78.69 63.15 77.4 63.36C76.12 63.57 74.66 63.78 73.07 63.96C72.27 64.05 71.45 64.13 70.59 64.23C69.73 64.3 68.84 64.37 67.93 64.45C66.1 64.58 64.18 64.73 62.18 64.8C60.19 64.89 58.12 64.97 56.02 65.01C53.92 65.06 51.8 65.06 49.67 65.08C47.53 65.05 45.41 65.05 43.31 65C41.21 64.97 39.15 64.87 37.16 64.78C35.16 64.69 33.24 64.56 31.41 64.41C29.58 64.28 27.86 64.09 26.27 63.91C24.68 63.72 23.23 63.51 21.95 63.29C20.67 63.07 19.55 62.85 18.65 62.63C17.74 62.43 17.04 62.2 16.56 62.05C16.09 61.89 15.84 61.78 15.84 61.78C15.84 61.78 16.09 61.86 16.58 61.97C17.07 62.07 17.79 62.2 18.71 62.32C19.58 62.44 20.65 62.55 21.85 62.66C20.98 53.11 18.36 42.01 17.21 37.44C20.18 41.44 24.14 45.7 27.5 45.7L27.48 45.69ZM65.73 25.75C67.09 25.75 68.18 26.85 68.18 28.2C68.18 29.55 67.15 30.58 65.85 30.64C65.14 30.6 64.76 30.45 64.76 30.45C63.89 30.07 63.28 29.21 63.28 28.2C63.28 26.84 64.38 25.75 65.73 25.75ZM88.14 28.15C89.5 28.15 90.59 29.25 90.59 30.6C90.59 31.95 89.49 33.05 88.14 33.05C87.91 33.05 87.7 33.01 87.49 32.95C87.12 32.84 86.88 32.69 86.88 32.69C86.17 32.26 85.69 31.49 85.69 30.59C85.69 29.23 86.79 28.14 88.14 28.14V28.15ZM85.61 43.9C85.85 42.47 86.14 41.06 86.45 39.64C86.76 38.23 87.12 36.83 87.49 35.43C86.86 38.25 86.29 41.08 85.88 43.94C85.66 45.37 85.48 46.8 85.32 48.23C85.16 49.66 85.02 51.1 84.91 52.54C84.79 53.98 84.7 55.42 84.61 56.86C84.54 58.3 84.45 59.74 84.41 61.18C84.39 61.9 84.35 62.62 84.34 63.34L84.3 65.5C84.27 66.94 84.29 68.39 84.26 69.83V69.86V69.87C84.21 70.06 84.16 70.12 84.1 70.22C84.04 70.31 83.97 70.39 83.91 70.47C83.77 70.61 83.62 70.74 83.47 70.86C83.17 71.09 82.84 71.28 82.51 71.45C81.85 71.78 81.17 72.05 80.47 72.27C79.78 72.49 79.08 72.69 78.37 72.85C77.67 73.02 76.96 73.17 76.25 73.3C74.83 73.57 73.4 73.77 71.97 73.94C70.54 74.12 69.1 74.23 67.67 74.35C66.23 74.45 64.8 74.54 63.36 74.6C61.92 74.66 60.48 74.71 59.05 74.74C57.61 74.76 56.17 74.78 54.73 74.78C53.29 74.78 51.85 74.76 50.42 74.74L54.73 74.63C56.17 74.59 57.6 74.53 59.04 74.47C60.48 74.4 61.91 74.34 63.34 74.25C64.77 74.16 66.21 74.05 67.64 73.92C70.5 73.64 73.35 73.33 76.16 72.79C76.86 72.66 77.56 72.51 78.25 72.34C78.94 72.17 79.63 71.98 80.3 71.76C80.97 71.54 81.63 71.28 82.25 70.96C82.56 70.8 82.86 70.62 83.12 70.42C83.25 70.32 83.38 70.21 83.49 70.09C83.54 70.03 83.59 69.97 83.63 69.91C83.66 69.87 83.69 69.8 83.7 69.78C83.7 68.35 83.71 66.91 83.75 65.48L83.81 63.31C83.82 62.59 83.86 61.86 83.89 61.14C83.94 59.69 84.03 58.25 84.11 56.8C84.21 55.36 84.31 53.91 84.46 52.47C84.59 51.03 84.76 49.59 84.95 48.16C85.14 46.72 85.35 45.29 85.59 43.87L85.61 43.9ZM16.56 67.74C17.05 67.84 17.77 67.97 18.69 68.09C19.61 68.22 20.73 68.33 22.01 68.45C22.04 68.45 22.08 68.45 22.12 68.45C22.12 66.99 22.05 65.44 21.93 63.83C23.18 64.11 24.59 64.39 26.14 64.64C27.73 64.89 29.46 65.14 31.3 65.32C32.22 65.43 33.16 65.51 34.13 65.59C35.09 65.68 36.08 65.76 37.09 65.81C38.09 65.87 39.11 65.93 40.15 65.99C41.18 66.03 42.23 66.06 43.28 66.1C45.39 66.17 47.53 66.17 49.68 66.2C51.32 66.17 52.96 66.16 54.59 66.13C53.81 67.29 53.03 68.31 52.26 69.22C53.52 69.22 54.77 69.22 56 69.2C57.04 69.18 58.08 69.18 59.1 69.18C60.12 69.17 61.13 69.15 62.13 69.14C64.12 69.11 66.04 69.06 67.86 69.01C69.68 68.95 71.4 68.88 72.99 68.81C74.58 68.72 76.03 68.63 77.32 68.52C78.61 68.4 79.72 68.29 80.64 68.16C81.55 68.02 82.28 67.9 82.76 67.78C83.24 67.66 83.49 67.56 83.49 67.56C83.49 67.56 83.26 67.69 82.79 67.87C82.32 68.05 81.62 68.26 80.71 68.48C79.8 68.7 78.69 68.93 77.4 69.14C76.12 69.35 74.66 69.56 73.07 69.74C72.27 69.83 71.45 69.91 70.59 70.01C69.73 70.08 68.84 70.15 67.93 70.23C66.1 70.36 64.18 70.51 62.18 70.58C60.19 70.67 58.12 70.75 56.02 70.79C53.92 70.84 51.8 70.84 49.67 70.86C47.53 70.83 45.41 70.83 43.31 70.78C41.21 70.75 39.15 70.65 37.16 70.56C35.16 70.47 33.24 70.34 31.41 70.19C29.58 70.06 27.86 69.87 26.27 69.69C24.68 69.5 23.23 69.29 21.95 69.07C20.67 68.85 19.55 68.63 18.65 68.41C17.74 68.21 17.04 67.98 16.56 67.83C16.09 67.67 15.84 67.56 15.84 67.56C15.84 67.56 16.09 67.64 16.58 67.75L16.56 67.74ZM22.1 69.65C23.31 69.92 24.66 70.18 26.14 70.42C27.73 70.67 29.46 70.92 31.3 71.1C32.22 71.21 33.16 71.29 34.13 71.37C35.09 71.46 36.08 71.54 37.09 71.59C38.09 71.65 39.11 71.71 40.15 71.77C41.18 71.81 42.23 71.84 43.28 71.88C45.37 71.95 47.48 71.95 49.61 71.98C48.13 73.33 46.84 74.21 45.95 74.74C33.08 74.55 25.9 73.53 21.9 72.47C22.01 71.6 22.08 70.66 22.11 69.66L22.1 69.65Z" fill="#A4F40F"/>
<path d="M58.23 56.4901C58.43 56.0101 58.66 55.4801 58.85 54.9201C59.05 54.3601 59.27 53.7601 59.46 53.1301C59.86 51.8801 60.21 50.5301 60.51 49.1701C60.65 48.4901 60.78 47.8001 60.9 47.1301C61.01 46.4501 61.11 45.7801 61.19 45.1401C61.27 44.4901 61.32 43.8601 61.37 43.2601C61.43 42.6601 61.44 42.1001 61.46 41.5701C61.51 40.5301 61.48 39.6501 61.46 39.0401C61.44 38.4301 61.4 38.0801 61.4 38.0801C61.4 38.0801 61.29 38.4201 61.13 39.0101C61.05 39.3001 60.95 39.6601 60.85 40.0701C60.75 40.4801 60.63 40.9401 60.51 41.4501C60.38 41.9501 60.26 42.5001 60.13 43.0801C59.99 43.6601 59.85 44.2601 59.72 44.8901C59.57 45.5201 59.43 46.1701 59.29 46.8301C59.15 47.4901 59 48.1601 58.85 48.8301C58.56 50.1701 58.28 51.5101 58.01 52.7701C57.88 53.4001 57.75 54.0101 57.63 54.5901C57.51 55.1701 57.39 55.7201 57.29 56.2201C57.08 57.2301 56.91 58.0801 56.8 58.6801C56.69 59.2801 56.62 59.6301 56.62 59.6301C56.62 59.6301 56.82 59.3401 57.11 58.8001C57.4 58.2601 57.8 57.4801 58.21 56.5101L58.23 56.4901Z" fill="#A4F40F"/>
<path d="M65.38 30.1801C65.65 30.2301 66.01 30.2201 66.32 30.1101C66.64 30.0101 66.94 29.8301 67.19 29.5901C67.43 29.3401 67.61 29.0401 67.71 28.7201C67.76 28.5601 67.79 28.4101 67.8 28.2101C67.8 28.1001 67.8 28.0801 67.8 28.0101C67.8 27.8901 67.78 27.8401 67.77 27.7601C67.67 27.1401 67.27 26.6701 66.88 26.4501C66.48 26.2201 66.11 26.2201 65.88 26.2601C65.64 26.3001 65.54 26.3801 65.54 26.3801C65.54 26.3801 65.67 26.4401 65.82 26.5601C65.98 26.6801 66.17 26.8701 66.28 27.1101C66.4 27.3501 66.44 27.6201 66.4 27.8601C66.4 27.8801 66.39 27.9401 66.38 27.9301C66.38 27.9701 66.37 28.0701 66.35 28.0601C66.33 28.0801 66.31 28.1501 66.28 28.2001C66.22 28.3001 66.16 28.4001 66.08 28.4801C66 28.5601 65.9 28.6301 65.8 28.6801C65.69 28.7301 65.6 28.7701 65.44 28.7901C65.24 28.8301 64.94 28.7901 64.71 28.6701C64.47 28.5601 64.28 28.3701 64.16 28.2101C64.04 28.0501 63.98 27.9301 63.98 27.9301C63.98 27.9301 63.91 28.0401 63.86 28.2701C63.82 28.5001 63.83 28.8701 64.05 29.2701C64.28 29.6601 64.72 30.0601 65.38 30.1601V30.1801Z" fill="#A4F40F"/>
<path d="M87.82 32.6601C88.09 32.7101 88.45 32.7001 88.76 32.5901C89.08 32.4901 89.38 32.3101 89.63 32.0701C89.87 31.8201 90.05 31.5201 90.15 31.2001C90.2 31.0401 90.23 30.8901 90.24 30.6901C90.24 30.5801 90.24 30.5601 90.24 30.4901C90.24 30.3701 90.22 30.3201 90.21 30.2401C90.11 29.6201 89.71 29.1501 89.32 28.9301C88.92 28.7001 88.55 28.7001 88.32 28.7401C88.08 28.7801 87.98 28.8601 87.98 28.8601C87.98 28.8601 88.11 28.9201 88.26 29.0401C88.42 29.1601 88.61 29.3501 88.72 29.5901C88.84 29.8301 88.88 30.1001 88.84 30.3401C88.84 30.3601 88.83 30.4201 88.82 30.4101C88.82 30.4501 88.81 30.5501 88.79 30.5401C88.77 30.5601 88.75 30.6301 88.72 30.6801C88.66 30.7801 88.6 30.8801 88.52 30.9601C88.44 31.0401 88.34 31.1101 88.24 31.1601C88.13 31.2101 88.04 31.2501 87.88 31.2701C87.68 31.3101 87.38 31.2701 87.15 31.1501C86.91 31.0401 86.72 30.8501 86.59 30.6901C86.47 30.5301 86.41 30.4101 86.41 30.4101C86.41 30.4101 86.34 30.5201 86.29 30.7501C86.25 30.9801 86.26 31.3501 86.48 31.7501C86.71 32.1401 87.15 32.5401 87.81 32.6401L87.82 32.6601Z" fill="#A4F40F"/>
<path d="M35.72 30.1101C36.04 30.0101 36.34 29.8301 36.59 29.5901C36.83 29.3401 37.01 29.0401 37.11 28.7201C37.16 28.5601 37.19 28.4101 37.2 28.2101C37.2 28.1001 37.2 28.0801 37.2 28.0101C37.2 27.8901 37.18 27.8401 37.17 27.7601C37.07 27.1401 36.67 26.6701 36.28 26.4501C35.88 26.2201 35.51 26.2201 35.28 26.2601C35.04 26.3001 34.94 26.3801 34.94 26.3801C34.94 26.3801 35.07 26.4401 35.22 26.5601C35.38 26.6801 35.57 26.8701 35.68 27.1101C35.8 27.3501 35.84 27.6201 35.8 27.8601C35.8 27.8801 35.79 27.9401 35.78 27.9301C35.78 27.9701 35.77 28.0701 35.75 28.0601C35.73 28.0801 35.71 28.1501 35.68 28.2001C35.62 28.3001 35.56 28.4001 35.48 28.4801C35.4 28.5601 35.3 28.6301 35.2 28.6801C35.09 28.7301 35 28.7701 34.84 28.7901C34.64 28.8301 34.34 28.7901 34.11 28.6701C33.87 28.5601 33.68 28.3701 33.56 28.2101C33.44 28.0501 33.38 27.9301 33.38 27.9301C33.38 27.9301 33.31 28.0401 33.26 28.2701C33.22 28.5001 33.23 28.8701 33.45 29.2701C33.68 29.6601 34.12 30.0601 34.78 30.1601C35.05 30.2101 35.41 30.2001 35.72 30.0901V30.1101Z" fill="#A4F40F"/>
<path d="M14.14 32.05C14.38 31.8 14.56 31.5 14.66 31.18C14.71 31.02 14.74 30.87 14.75 30.67C14.75 30.56 14.75 30.54 14.75 30.47C14.75 30.35 14.73 30.3 14.72 30.22C14.62 29.6 14.22 29.13 13.83 28.91C13.43 28.68 13.06 28.68 12.83 28.72C12.59 28.76 12.49 28.84 12.49 28.84C12.49 28.84 12.62 28.9 12.77 29.02C12.93 29.14 13.12 29.33 13.23 29.57C13.35 29.81 13.39 30.08 13.35 30.32C13.35 30.34 13.34 30.4 13.33 30.39C13.33 30.43 13.32 30.53 13.3 30.52C13.28 30.54 13.26 30.61 13.23 30.66C13.17 30.76 13.11 30.86 13.03 30.94C12.95 31.02 12.85 31.09 12.75 31.14C12.64 31.19 12.55 31.23 12.39 31.25C12.19 31.29 11.89 31.25 11.66 31.13C11.42 31.02 11.23 30.83 11.1 30.67C10.98 30.51 10.92 30.39 10.92 30.39C10.92 30.39 10.85 30.5 10.8 30.73C10.76 30.96 10.77 31.33 10.99 31.73C11.22 32.12 11.66 32.52 12.32 32.62C12.59 32.67 12.95 32.66 13.26 32.55C13.58 32.45 13.88 32.27 14.13 32.03L14.14 32.05Z" fill="#A4F40F"/>
<path d="M35.9503 34.1701C36.0103 34.4301 36.0903 34.7301 36.2003 35.0801C36.3203 35.4201 36.4403 35.8201 36.6303 36.2301C36.8003 36.6501 37.0103 37.0901 37.2503 37.5501C37.4903 38.0101 37.7803 38.4701 38.0903 38.9501C38.2603 39.1801 38.4203 39.4101 38.5903 39.6501C38.7603 39.8901 38.9403 40.1201 39.1403 40.3501C39.3403 40.5801 39.5303 40.8001 39.7303 41.0301C39.9303 41.2501 40.1603 41.4601 40.3703 41.6701C40.8003 42.1001 41.2703 42.4901 41.7503 42.8501C42.2103 43.2401 42.7203 43.5301 43.2003 43.8401C43.6703 44.1601 44.1903 44.3701 44.6503 44.6001C44.8903 44.7101 45.1103 44.8301 45.3403 44.9101C45.5703 44.9901 45.8003 45.0601 46.0103 45.1301C46.4403 45.2701 46.8303 45.4101 47.1903 45.4801C47.5503 45.5501 47.8703 45.6001 48.1303 45.6401C48.6503 45.7201 48.9403 45.7501 48.9403 45.7501C48.9403 45.7501 48.6803 45.5801 48.2303 45.3301C48.0103 45.2001 47.7403 45.0501 47.4203 44.8801C47.1103 44.7101 46.7803 44.4701 46.4103 44.2601C46.0403 44.0401 45.6503 43.7901 45.2603 43.5001C44.8603 43.2101 44.4303 42.9501 44.0203 42.6101C43.6103 42.2801 43.1603 41.9701 42.7603 41.5901C42.3403 41.2301 41.9103 40.8701 41.5203 40.4601C41.1003 40.0801 40.7203 39.6701 40.3403 39.2701C39.9403 38.8801 39.6103 38.4401 39.2503 38.0601C38.9203 37.6501 38.5803 37.2601 38.2803 36.8701C37.9803 36.4801 37.6903 36.1201 37.4403 35.7701C36.9303 35.0701 36.5103 34.4701 36.2303 34.0401C35.9403 33.6101 35.7803 33.3601 35.7803 33.3601C35.7803 33.3601 35.8003 33.6601 35.9203 34.1701H35.9503Z" fill="#A4F40F"/>
</svg>
