<svg width="100" height="100" viewBox="0 0 100 100" fill="none" xmlns="http://www.w3.org/2000/svg">
<path d="M77.4384 37.3358C76.7137 38.2584 77.5326 39.7547 77.5326 39.7547C77.5326 39.7547 78.0616 39.3189 78.3515 39.0792C78.6414 38.8395 80.185 39.0283 80.6198 38.6942C81.0546 38.3528 80.7648 37.147 80.7648 37.147L77.4311 37.3431L77.4384 37.3358Z" fill="#A4F40F"/>
<path d="M80.5328 35.3529C80.5328 35.3529 79.8081 34.6265 79.1342 35.3529L79.1849 36.8057L80.5836 36.7112L80.5328 35.3529Z" fill="#A4F40F"/>
<path d="M84.5912 29.636C83.6708 29.5416 79.569 29.4907 79.569 29.4907C79.569 29.4907 78.5037 29.5852 78.3153 30.7474L78.2211 34.5755C78.2211 34.5755 78.2211 35.1057 78.5109 35.3527L78.8008 35.5924C78.8008 35.5924 78.895 34.9169 79.7647 34.866C80.6343 34.8152 80.83 35.3019 80.83 35.3019V35.5416H84.3085C84.3085 35.5416 85.2724 35.4471 85.3231 34.7643C85.3739 34.0888 85.3231 30.8418 85.3231 30.8418C85.3231 30.8418 85.5188 29.7304 84.5984 29.6287L84.5912 29.636Z" fill="#A4F40F"/>
<path d="M78.2138 35.3963C78.2138 35.3963 77.9239 34.9096 77.9746 33.7038C78.0254 32.498 77.9746 30.4132 77.9746 30.4132C77.9746 30.4132 78.1703 29.251 79.0834 29.1566C80.0038 29.0621 83.6273 29.0621 83.6273 29.0621C83.6273 29.0621 83.1925 24.8491 83.0475 23.8829C82.9026 22.9168 82.7576 22.1396 82.0837 21.8999C81.4097 21.6602 78.1196 21.3696 78.1196 21.3696C78.1196 21.3696 77.4456 21.3696 77.4456 22.2922L77.2499 34.4011C77.2499 34.4011 77.1992 34.6917 77.4891 35.0767C77.779 35.4617 78.2138 35.4181 78.2138 35.4181V35.3963Z" fill="#A4F40F"/>
<path d="M90.0989 35.7379C90.0989 35.7379 90.3888 35.2513 89.954 31.4304C89.5191 27.6023 88.7944 23.3893 88.7944 23.3893C88.7944 23.3893 86.2797 22.612 85.3666 22.4667C85.3666 22.4667 84.352 22.1762 84.5477 23.0987C84.7434 24.0212 85.6565 28.859 85.8014 31.0382C85.9464 33.2174 86.142 35.6362 86.142 35.6362L90.1061 35.7307L90.0989 35.7379Z" fill="#A4F40F"/>
<path d="M91.8816 35.7379L95.2152 35.8323C95.2152 35.8323 94.9761 31.1325 94.4905 28.8589C94.005 26.5853 93.7151 25.0817 93.7151 25.0817C93.7151 25.0817 93.4252 24.595 92.7947 24.3044C92.1643 24.0139 90.28 23.7742 90.28 23.7742C90.28 23.7742 91.3888 30.3117 91.5845 32.6362C91.7802 34.9606 91.8744 35.7379 91.8744 35.7379H91.8816Z" fill="#A4F40F"/>
<path d="M96.0052 51.6385C95.9617 51.624 95.9472 51.6313 95.9182 51.624C95.853 51.624 95.8312 51.624 95.7878 51.6313C95.6283 51.6676 95.5341 51.7693 95.4544 51.8637C95.3747 51.9582 95.3095 52.0599 95.2515 52.1615C95.0341 52.5756 94.9036 53.0114 94.7877 53.4545C94.5558 54.348 94.4181 55.285 94.3311 56.2366C94.2369 57.1882 94.2007 58.1616 94.1934 59.1349C94.2007 60.1083 94.2297 61.0817 94.3311 62.0332C94.4253 62.9848 94.563 63.9218 94.7877 64.8153C94.9036 65.2584 95.0341 65.7015 95.2515 66.1083C95.3095 66.21 95.3674 66.3117 95.4544 66.4061C95.5414 66.5005 95.6138 66.595 95.8095 66.6386H95.8457H95.8675H95.8747C95.8747 66.6386 95.9182 66.6386 95.9037 66.6386C95.9399 66.6386 95.9834 66.6313 96.0197 66.6168C96.0921 66.595 96.1501 66.5514 96.2008 66.5151C96.3023 66.4279 96.3603 66.3335 96.4255 66.239C96.6429 65.8468 96.7444 65.4545 96.8313 65.0696C96.9183 64.6846 96.9835 64.3068 97.027 63.9509C97.2227 62.5126 97.2589 61.2996 97.2951 60.457C97.3169 59.6216 97.3096 59.1495 97.3096 59.1349C97.3096 59.1349 97.3169 58.6337 97.2951 57.8056C97.2661 56.963 97.2227 55.7499 97.027 54.3117C96.9763 53.9485 96.9183 53.578 96.8313 53.193C96.7371 52.808 96.6357 52.4085 96.4255 52.0235C96.3675 51.9291 96.3023 51.8274 96.2008 51.7475C96.1501 51.7039 96.0921 51.6676 96.0052 51.6385ZM97.3169 59.1277C97.3169 59.055 97.3169 58.9896 97.3169 58.917C97.3169 59.0478 97.3169 59.1131 97.3169 59.1277ZM97.3169 59.1422C97.3169 59.1422 97.3169 59.2294 97.3169 59.3528C97.3169 59.2802 97.3169 59.2148 97.3169 59.1422ZM96.8458 59.1349C96.8458 62.6071 96.382 65.5127 95.7588 66.2972C95.737 66.2754 95.708 66.2463 95.6863 66.2173C95.6283 66.1446 95.5848 66.0575 95.5414 65.9703C95.3674 65.5998 95.266 65.1712 95.179 64.7354C95.0123 63.8637 94.9181 62.934 94.8529 61.9969C94.7949 61.0526 94.7587 60.101 94.7659 59.1422C94.7659 58.1833 94.7949 57.2245 94.8529 56.2875C94.9181 55.3504 95.0123 54.4206 95.179 53.549C95.266 53.1131 95.3747 52.6846 95.5414 52.3141C95.5993 52.1833 95.679 52.0599 95.766 51.9799C96.3893 52.7645 96.8458 55.67 96.8458 59.1422V59.1349Z" fill="#A4F40F"/>
<path d="M87.345 55.3867C87.229 55.4012 87.1131 55.4157 86.9899 55.4375C86.8667 55.452 86.787 55.4593 86.7 55.4375C86.5333 55.4085 86.4319 55.2922 86.3449 55.0961C86.2652 54.9 86.2217 54.653 86.2362 54.4206C86.2362 54.1518 86.2362 53.8758 86.2362 53.6143C86.2362 53.3455 86.229 53.084 86.2217 52.8297C86.2072 52.3213 86.1855 51.8491 86.1565 51.4423C86.0985 50.6288 86.0116 50.084 86.0116 50.084C86.0116 50.084 85.9101 50.6215 85.8304 51.4351C85.7869 51.8419 85.7507 52.314 85.7217 52.8225C85.7072 53.0767 85.6927 53.3382 85.6854 53.607C85.6782 53.8758 85.6709 54.1445 85.6637 54.4133C85.6637 54.7184 85.7072 55.0235 85.8376 55.3213C85.9028 55.4666 86.0043 55.6191 86.142 55.7281C86.2797 55.8515 86.4609 55.9169 86.6275 55.9387C86.7942 55.9605 86.9609 55.9242 87.0769 55.8951C87.1928 55.8661 87.3088 55.8298 87.4247 55.8007C87.6494 55.7426 87.8595 55.6845 88.0552 55.6264C88.8379 55.4012 89.3452 55.1978 89.3452 55.1978C89.3452 55.1978 88.7944 55.2123 87.99 55.2995C87.7871 55.3213 87.5697 55.3431 87.3378 55.3794L87.345 55.3867Z" fill="#A4F40F"/>
<path d="M93.9688 42.7983C93.7369 42.7983 93.4977 42.7983 93.2586 42.8055C93.1426 42.8055 93.0194 42.8273 92.9035 42.8419C92.773 42.8709 92.6426 42.8927 92.5411 42.9436C92.4107 43.0089 92.3237 43.0743 92.2223 43.1615C92.1281 43.2414 92.0411 43.3431 91.9686 43.4375C91.9251 43.4956 91.8889 43.561 91.8527 43.6336C91.8527 43.5392 91.8454 43.4302 91.8382 43.314C91.8019 42.6966 91.7657 41.8176 91.7005 40.7716C91.6353 39.7184 91.57 38.4908 91.4758 37.176C91.4251 36.515 91.3744 35.8394 91.3019 35.1494C91.2367 34.4593 91.1497 33.762 91.07 33.0574C90.8816 31.6627 90.6642 30.268 90.4468 28.9678C90.2293 27.6675 89.9829 26.4617 89.7728 25.423C89.5626 24.3915 89.3597 23.5343 89.222 22.9314C89.0771 22.3358 88.9901 21.9944 88.9901 21.9944C88.9901 21.9944 89.2582 23.3745 89.6206 25.452C89.809 26.4908 90.0047 27.7038 90.2076 29.0041C90.4178 30.3043 90.6207 31.6917 90.7946 33.0864C90.8816 33.7837 90.9758 34.4811 91.041 35.1639C91.1207 35.854 91.1787 36.5295 91.2367 37.1833C91.3381 38.498 91.4541 39.7256 91.5411 40.7716C91.628 41.8249 91.7222 42.6966 91.7802 43.3068C91.7947 43.4448 91.8092 43.5755 91.8164 43.6845C91.8019 43.7063 91.7947 43.7353 91.7802 43.7571C91.7295 43.8733 91.6932 43.9896 91.6715 44.1276V44.1131L91.1135 46.699L90.5844 49.2922C90.4033 50.1566 90.2511 51.0283 90.0844 51.8927C89.9177 52.7571 89.7655 53.6288 89.6206 54.5005C89.838 53.6433 90.0482 52.7862 90.2438 51.929C90.4395 51.0646 90.6497 50.2075 90.8308 49.3503L91.3889 46.7644L91.9179 44.1712V44.1566C91.9324 44.0622 91.9614 43.9532 92.0049 43.8516C92.0483 43.7499 92.0991 43.6554 92.157 43.5683C92.2223 43.4811 92.2875 43.4012 92.3672 43.3285C92.4397 43.2559 92.5411 43.1833 92.6209 43.1397C92.7296 43.0816 92.831 43.067 92.9252 43.038C93.0339 43.0235 93.1499 43.0017 93.2658 42.9944C93.4977 42.9726 93.7297 42.9581 93.9616 42.9581C94.4254 42.9581 94.8892 42.9581 95.3602 42.9799C95.824 42.9944 96.2951 43.0235 96.7589 43.0525C96.2951 42.9799 95.8313 42.9218 95.3675 42.8782C94.9037 42.8273 94.4326 42.7983 93.9616 42.7838L93.9688 42.7983Z" fill="#A4F40F"/>
<path d="M98.875 46.2704C98.7373 44.2946 98.1938 43.8878 97.7155 43.6118C97.2372 43.3358 96.0124 43.2704 94.7225 43.2704C93.4325 43.2704 92.4759 43.5464 92.4759 43.5464C92.4759 43.5464 93.6354 43.7498 94.1065 44.0912C94.5848 44.4326 94.7152 45.1808 94.7152 45.1808L92.2875 56.084L89.9032 55.0888L92.2078 56.469V56.4908H92.244L92.6208 56.7159C92.3382 56.7886 92.0193 56.7886 92.0193 56.7886H89.1495L78.8008 58.7353C78.6776 58.3939 78.5327 58.038 78.3877 57.7038L83.1418 56.9048H83.1852L83.207 56.8903C83.3157 56.8467 83.3592 56.8176 83.4244 56.774C83.4824 56.7377 83.5331 56.6941 83.5911 56.6578C83.6925 56.5779 83.7868 56.4835 83.8737 56.3963C84.0476 56.2147 84.1853 56.0113 84.323 55.8079C84.5767 55.3939 84.7579 54.9508 84.91 54.5077C85.055 54.0646 85.1564 53.5997 85.2434 53.1639C85.3376 52.728 85.4173 52.2704 85.4898 51.82C85.5623 51.3697 85.6275 50.9193 85.6855 50.469C85.7362 50.0186 85.7942 49.5682 85.8304 49.1106C85.8739 48.6602 85.9029 48.2026 85.9246 47.7522C85.9464 47.3019 85.9681 46.8443 85.9753 46.3939C86.0188 44.5852 85.9609 42.7692 85.8449 40.9677L85.4753 35.5634L85.671 40.975C85.729 42.7765 85.729 44.5852 85.6275 46.3794C85.5985 46.8297 85.5695 47.2801 85.5333 47.7232C85.4898 48.1735 85.4536 48.6167 85.3956 49.0598C85.3449 49.5029 85.2796 49.9532 85.2144 50.3963C85.1419 50.8394 85.0695 51.2825 84.9825 51.7183C84.8955 52.1614 84.8086 52.59 84.6926 53.0331C84.5912 53.4762 84.4825 53.8903 84.3375 54.3043C84.1853 54.7111 84.0042 55.1033 83.7795 55.452C83.6636 55.6191 83.5404 55.7862 83.3954 55.9242C83.3229 55.9968 83.2505 56.0549 83.178 56.113C83.1418 56.1348 83.1055 56.1639 83.0693 56.1857C83.0476 56.2002 83.0331 56.2075 83.0186 56.2147C83.0186 56.2147 83.0186 56.2147 83.0113 56.2147L78.0761 56.8757L78.0979 57.021C77.8877 56.5852 77.7283 56.2801 77.7283 56.2801C77.6775 56.1566 77.6123 55.8443 77.5543 55.452C77.5761 54.8128 77.5833 54.1808 77.5543 53.5416C77.5326 53.1493 77.5036 52.7571 77.4529 52.3648L77.2789 51.2171L76.9601 49.1106H77.0688L76.4455 39.6384L76.489 46.6481C76.489 46.6481 76.489 46.6409 76.489 46.6336C76.2789 45.8854 76.0397 45.13 75.6194 44.4326C75.5179 44.2583 75.3947 44.0912 75.257 43.9387C75.1773 43.866 75.1193 43.7861 75.0251 43.7208L74.8947 43.6191L74.8222 43.5755L74.7642 40.1542L57.1178 41.883C57.1178 41.883 58.4875 42.0646 58.4875 42.8346C58.4875 43.2777 58.2918 43.6627 58.1251 43.9169C58.0599 43.9895 58.0019 44.0622 57.944 44.1348C57.915 44.1711 57.8932 44.2147 57.8642 44.251C57.8425 44.2728 57.8063 44.3091 57.7555 44.3527C57.4294 44.6578 56.596 45.3915 56.3858 45.0791C56.2844 44.9266 56.1612 44.6288 56.0597 44.3382C56.067 44.0694 56.067 43.8225 56.0597 43.6191C55.98 42.5367 55.7046 41.7668 55.1828 41.1639L75.6339 38.9919L75.8513 39.5876L75.9093 38.4544L76.3803 29.251L76.5905 24.6457L76.7644 20.5125C76.7644 20.5125 76.7717 20.5125 76.7789 20.5052C77.076 20.2801 78.7791 20.2801 78.7791 20.2801L87.9683 21.9871L88.3306 21.8055L89.3814 22.0743C89.6423 22.1469 89.9177 22.2195 90.2076 22.2994C90.7439 22.4447 91.3236 22.6118 91.9324 22.7934C92.2368 22.8878 92.5484 22.9822 92.86 23.0912C93.0194 23.1421 93.1716 23.2074 93.3238 23.2655L93.418 23.3164C93.418 23.3164 93.4615 23.3382 93.4542 23.3382L93.4977 23.3818C93.4977 23.3818 93.5485 23.4399 93.563 23.4762C93.5847 23.5052 93.5992 23.5343 93.6209 23.5706C93.9181 24.1663 94.0775 24.8781 94.2514 25.5827C94.4181 26.2946 94.563 27.021 94.7007 27.7474C94.9761 29.2002 95.1935 30.6675 95.3892 32.0476C95.4834 32.7377 95.5704 33.3987 95.6573 34.0307C95.7371 34.6626 95.8095 35.2583 95.8458 35.8103C95.9182 36.9217 95.9979 37.8442 96.0487 38.4907C96.0849 38.9484 96.1139 39.2607 96.1211 39.4133L95.4689 39.3769C95.3457 39.3697 95.2515 39.3769 95.1428 39.3769H94.8312L94.2007 39.3987L92.9397 39.4423C92.5194 39.4641 92.0991 39.4786 91.6787 39.5149C92.0991 39.5513 92.5194 39.5658 92.9397 39.5876L94.2007 39.6312L94.8312 39.6457H95.1428C95.2443 39.653 95.3602 39.6457 95.4472 39.6602L96.6429 39.7329C96.8966 40.0307 97.1502 40.3212 97.4039 40.6118C97.4401 41.1058 97.4981 41.5924 97.5488 42.0864C97.5995 42.5949 97.6647 43.0961 97.7372 43.6045C97.7372 43.0961 97.7372 42.5876 97.7155 42.0791C97.6937 41.5706 97.6865 41.0622 97.6575 40.5537V40.5174L97.6285 40.4811C97.3604 40.1542 97.0922 39.8273 96.8241 39.5077L96.7879 39.4641H96.7299L96.1284 39.4278C96.1284 39.2825 96.1139 38.9629 96.0994 38.5053C96.0777 37.8588 96.0487 36.929 96.0052 35.8176C95.9834 35.2583 95.9255 34.6554 95.8675 34.0234C95.8023 33.3842 95.7298 32.7159 95.6356 32.0258C95.4544 30.6457 95.2515 29.1711 94.9834 27.7038C94.8384 26.9701 94.6862 26.2438 94.5123 25.5319C94.3891 25.0379 94.2659 24.5513 94.0992 24.0791C94.1934 23.7014 94.2949 22.6699 92.7948 22.067C90.9395 21.3261 83.5331 19.619 81.2358 19.096C78.9385 18.573 76.9383 18.5004 76.1991 18.3551C76.1991 18.3551 76.9383 18.7256 77.163 19.2486C77.2789 19.5174 77.3297 19.7571 77.3587 19.9387C77.0108 19.9895 76.8006 20.0476 76.8006 20.0476C76.8006 20.0476 76.5253 20.6796 76.7644 20.5343L76.4455 24.6457L76.0977 29.2438L75.5252 37.4302C75.4527 37.2704 75.373 37.1179 75.286 36.9653C75.0324 36.5149 74.7425 36.0718 74.3294 35.7087C74.2352 35.6142 74.1193 35.5343 74.0033 35.4544L73.9816 35.4399L73.9453 35.4181L73.9018 35.3963L73.8221 35.3527C73.7642 35.3237 73.7134 35.2946 73.641 35.2656C73.5105 35.2147 73.3728 35.1639 73.2496 35.1275C73.1192 35.0912 72.996 35.0549 72.8655 35.0331C72.3582 34.9241 71.8509 34.8733 71.3437 34.837C70.8364 34.8007 70.3291 34.7861 69.8218 34.7934H69.4377L69.3435 34.8007H69.2638H69.0753H68.3217H65.3214C63.3212 34.8007 61.3211 34.8007 59.3136 34.8152L53.3059 34.8515L47.2981 34.8951L41.2904 34.9677C39.2902 34.9895 37.29 35.0113 35.2826 35.0549C34.2825 35.0694 33.2752 35.084 32.2751 35.1639C31.275 35.2365 30.2822 35.3455 29.2893 35.498C30.2822 35.3818 31.2822 35.3164 32.2823 35.2728C33.2824 35.2292 34.2753 35.2438 35.2826 35.2583C37.2828 35.2873 39.2829 35.3019 41.2904 35.3164L47.2981 35.36H53.3059L59.3136 35.3672C61.3138 35.3672 63.314 35.3672 65.3214 35.3527L68.3217 35.3382H69.0753H69.2638H69.3652H69.4594H69.829C70.3218 35.3237 70.8219 35.3382 71.3074 35.3672C71.8002 35.3963 72.2858 35.4472 72.7568 35.5488C72.8728 35.5706 72.9887 35.5997 73.1047 35.636C73.2206 35.6651 73.3221 35.7014 73.4235 35.7377C73.6482 35.8321 73.8294 35.9338 73.9961 36.0936C74.6773 36.7183 75.1193 37.6481 75.4527 38.5416L75.6266 39.021L54.6103 40.6917C53.8422 40.1542 52.342 39.4714 50.8057 39.3406C49.1389 39.2026 38.0292 38.9702 37.5509 38.9629C37.406 38.9629 23.1366 39.2462 20.2813 39.435C17.6072 39.6094 16.5998 40.2777 16.4042 40.4229C16.1433 40.561 14.491 41.5343 14.0271 44.4326C13.6286 46.9024 13.9112 49.1469 14.0271 49.9096L13.3822 50.0622C13.3169 49.0888 13.2807 48.1082 13.2807 47.1348C13.2807 46.0961 13.3894 45.0646 13.5778 44.0476C13.6793 43.5392 13.7952 43.038 13.9619 42.5585C14.0416 42.3188 14.1431 42.0936 14.2735 41.883C14.404 41.6651 14.5489 41.4689 14.7156 41.2728C15.3606 40.4956 16.194 39.8781 17.0636 39.3479C17.5057 39.0936 17.955 38.8467 18.4261 38.6433C18.8899 38.4254 19.3682 38.2365 19.8465 38.0622C20.3248 37.8878 20.8248 37.728 21.3104 37.5755C21.8032 37.4302 22.3032 37.2849 22.8033 37.1542C23.8033 36.8927 24.8107 36.6602 25.8253 36.4496C26.8398 36.2389 27.8617 36.0573 28.8762 35.8903L29.0937 35.8539L29.1661 35.6433C30.159 32.7668 31.1735 29.8902 32.1954 27.0283C32.7027 25.5973 33.2172 24.159 33.7535 22.7425C33.8839 22.3866 34.0289 22.0379 34.1666 21.6893C34.2028 21.6021 34.239 21.5222 34.2753 21.4423C34.3115 21.3697 34.355 21.2607 34.384 21.2098L34.5217 20.9629L34.6521 20.7668C34.8478 20.498 35.0869 20.2728 35.3623 20.113C35.5 20.0258 35.6449 19.9605 35.7899 19.9096C35.8624 19.8806 35.9421 19.866 36.0145 19.8515C36.0798 19.837 36.1812 19.8224 36.2102 19.8224H36.2392H36.2464L45.8994 19.1469C46.6966 19.096 47.5155 19.0452 48.3127 19.0161C49.1171 18.9798 49.9215 18.9508 50.7259 18.929L55.5669 18.7982C58.7919 18.7183 62.024 18.6602 65.2562 18.6166L74.9382 18.4496C75.3585 18.544 75.7861 18.6965 76.1412 18.958C76.3151 19.0888 76.4673 19.2631 76.5832 19.4447C76.6992 19.6336 76.7861 19.8442 76.7861 20.0694C76.8006 19.8442 76.7209 19.619 76.6122 19.4229C76.5035 19.2268 76.3586 19.0452 76.1846 18.8999C76.0107 18.7546 75.8151 18.6384 75.6049 18.544C75.3947 18.4496 75.1846 18.3696 74.9599 18.3115H74.9527L70.1044 18.2171C68.4883 18.1881 66.8723 18.1517 65.2562 18.1445C62.024 18.1227 58.7919 18.1082 55.5597 18.1154C54.748 18.1154 53.9436 18.1154 53.1319 18.1299L50.7042 18.1663C49.8925 18.1808 49.0881 18.2026 48.2765 18.2244C47.4648 18.2462 46.6676 18.2825 45.8487 18.3261L36.1595 18.9653H36.203C36.0435 18.9653 35.9566 18.9871 35.8334 19.0089C35.7247 19.0307 35.616 19.0597 35.5072 19.096C35.2971 19.1687 35.0942 19.2559 34.9057 19.3793C34.5289 19.6045 34.2028 19.9169 33.9491 20.2655L33.7607 20.5488L33.623 20.7958C33.5578 20.912 33.5361 20.9847 33.4926 21.0864C33.4563 21.1808 33.4056 21.2752 33.3694 21.3624C33.2244 21.7183 33.0795 22.0815 32.9491 22.4375C32.4128 23.8684 31.9055 25.3067 31.3982 26.745C30.4126 29.5561 29.4705 32.3745 28.5211 35.2002C27.5573 35.3672 26.6152 35.5706 25.6658 35.7813C24.6512 36.0137 23.6367 36.268 22.6293 36.5585C22.1293 36.7038 21.6292 36.8563 21.1292 37.0162C20.6219 37.1832 20.1436 37.3503 19.6436 37.5392C19.1508 37.7353 18.6652 37.9387 18.1942 38.1711C17.7159 38.3963 17.2593 38.6578 16.8027 38.9338C15.9114 39.5004 15.0635 40.1614 14.404 41.0186C14.2446 41.2292 14.0851 41.4617 13.9619 41.6869C13.8315 41.9193 13.7373 42.159 13.6648 42.406L13.6503 42.2898C13.6503 42.2898 12.7879 42.4278 11.4907 42.6457C10.8457 42.7547 10.092 42.8854 9.28036 43.038C8.87453 43.1106 8.46145 43.1978 8.03388 43.2849C7.61355 43.3794 7.17873 43.4738 6.75116 43.6263C5.9105 43.9314 5.13508 44.4762 4.67851 45.1953C4.43936 45.5513 4.32341 45.9508 4.23645 46.314C4.14224 46.6844 4.06977 47.0259 4.00454 47.3527C3.74365 48.6384 3.59871 49.5028 3.59871 49.5028C3.59871 49.5028 3.77264 48.6457 4.09151 47.3673C4.17123 47.0476 4.25819 46.7062 4.36689 46.343C4.46835 45.9871 4.5988 45.6094 4.8307 45.2898C5.28726 44.6288 6.0337 44.1493 6.84537 43.8951C7.2512 43.7716 7.67877 43.699 8.0991 43.6191C8.51942 43.5464 8.93975 43.4811 9.34558 43.4229C10.1572 43.3067 10.9109 43.205 11.5632 43.1179C12.3676 43.0234 12.9981 42.9435 13.3749 42.8999C13.0343 43.0888 12.4111 43.4738 12.0705 43.9605C11.5849 44.6506 11.4182 45.6312 11.295 46.4447C11.2081 47.0331 11.1211 48.6239 11.0776 49.4738L3.61321 49.9459L11.0559 50.0259H11.1211H11.3458L13.3314 49.9459C13.3314 49.9459 13.1792 48.4496 13.1358 47.1348C13.172 48.1082 13.2662 49.0815 13.3749 50.0476L12.9763 50.1421C12.4835 50.1566 11.2081 50.2874 9.52676 51.1082C7.35266 52.176 5.51917 54.3043 5.51917 54.3043L5.88876 54.3188C5.31625 54.3188 4.74374 54.3188 4.17122 54.3188C3.7364 54.3188 3.30883 54.3334 2.87401 54.3552C2.82328 54.3552 2.76531 54.3624 2.70733 54.3697C2.67834 54.3697 2.64936 54.3769 2.62761 54.3842C2.59138 54.3915 2.56964 54.406 2.54065 54.4205C2.43919 54.4714 2.34498 54.5295 2.25802 54.6021C2.09134 54.7474 1.9464 54.9145 1.83044 55.1033V55.1179L1.85943 56.4254L1.88117 55.6118C1.92466 56.4108 2.07684 57.9653 2.57689 58.7208C3.26535 59.7523 5.3235 59.9266 8.9325 60.1009C12.5415 60.2753 17.0854 60.3552 17.0854 60.3552C17.0854 60.3552 16.8462 61.0816 16.2665 61.1324C15.6867 61.1833 4.81621 60.3552 3.70742 60.021C2.59863 59.6796 2.06235 58.9096 2.01887 58.4738C1.96814 58.038 1.87393 56.6796 1.87393 56.6796C1.87393 56.6796 1.59129 58.7353 2.75806 59.8249C2.77255 60.0646 2.903 61.0089 3.89584 61.6699C4.34515 61.9678 5.10609 62.1494 5.35249 62.6651C5.49018 62.9557 5.50467 63.2898 5.52641 63.6167C5.65686 65.5852 6.27285 67.4811 6.88885 69.3552C6.54099 67.8079 6.51925 66.2026 6.6352 64.6264C6.69318 63.8346 6.70767 62.9702 6.88885 62.1929C6.91059 62.0985 7.11351 61.5174 7.22946 61.1542C9.06295 61.4448 10.766 61.6118 10.766 61.6118C10.766 61.6118 16.9477 62.4326 18.2521 62.5343C19.5566 62.6288 19.8465 62.0985 19.8465 62.0985H18.6362L18.3464 56.3818L19.0493 54.9726L22.0641 55.0162L49.7041 55.1469V55.8661C49.7041 55.8661 53.2841 56.1276 54.3857 55.0816C55.4945 54.0355 55.9438 52.6699 56.009 52.1469C56.0742 51.6239 56.0742 50.9121 56.0742 50.9121L55.6901 50.8903C56.0525 50.9121 56.4221 50.9266 56.7844 50.9411C56.7699 51.2026 56.6467 53.2874 55.6177 54.6966C54.8785 55.7062 52.9 55.946 51.6825 55.9968C53.7407 55.9895 55.7988 55.9823 57.8497 55.975C59.6615 55.975 61.5095 56.0694 63.3212 55.9605C64.3141 55.9024 64.3575 55.0888 64.9301 54.3188C64.9735 54.2607 65.0243 54.2026 65.0678 54.1372C65.6113 53.4544 66.2853 52.8661 67.0389 52.423C68.3144 51.6675 69.7928 51.3479 71.2639 51.4351C70.1769 51.2752 69.1116 51.0646 68.0245 50.9629H68.1985V50.6796H66.7346C66.9665 49.7208 67.1839 48.7547 67.4448 47.8104C67.51 47.5634 67.5897 47.3164 67.6694 47.0549C67.7491 46.8007 67.8289 46.5537 67.9158 46.314C68.0898 45.8346 68.3144 45.3769 68.6405 45.021C68.6768 44.9774 68.7202 44.9338 68.7637 44.8975C68.8072 44.8539 68.8507 44.8176 68.8942 44.7886C68.9594 44.7305 69.1188 44.6433 69.1985 44.607L69.3652 44.5416L69.5464 44.4907C69.6624 44.4544 69.7928 44.4254 69.9232 44.3963C70.4305 44.2801 70.9523 44.1929 71.4741 44.1203C71.9959 44.0404 72.5177 43.9677 73.0467 43.9024L74.257 43.7571C74.3729 43.8007 74.4889 43.8515 74.5903 43.9169L74.7135 43.9968L74.8077 44.0767C74.8729 44.1203 74.9309 44.2002 74.9889 44.2583C75.1049 44.3963 75.2063 44.5416 75.3005 44.7014C75.6701 45.3406 75.8948 46.0743 76.0904 46.8079C76.2861 47.5416 76.3803 48.297 76.4963 49.0598L76.8079 51.3479L76.9601 52.4956C77.0036 52.8661 77.0253 53.2438 77.0398 53.6215C77.0615 54.377 77.047 55.1469 76.9963 55.9024H77.076C77.0688 55.9823 77.0615 56.0549 77.0543 56.1203C76.2499 54.82 75.257 53.7087 74.0975 52.975C73.4308 52.5464 72.7133 52.2559 72.0031 52.1251C71.648 52.0525 71.2784 52.0307 70.9596 52.0307C70.6045 52.038 70.2856 52.0743 69.9667 52.1397C68.7057 52.4084 67.7709 53.0622 67.0969 53.6506C66.4302 54.2535 66.0026 54.8273 65.7272 55.2123C65.5823 55.4084 65.4881 55.561 65.4229 55.6627C65.3576 55.7644 65.3214 55.8225 65.3214 55.8225C65.3214 55.8225 65.3576 55.7716 65.4301 55.6699C65.5026 55.5682 65.6113 55.423 65.7635 55.2341C66.0606 54.8636 66.5244 54.3334 67.2056 53.7668C67.8868 53.222 68.8289 52.6336 70.0247 52.4375C70.3218 52.3866 70.6407 52.3721 70.9451 52.3794C71.2857 52.3939 71.5973 52.4302 71.9162 52.5101C72.5684 52.6627 73.2206 52.946 73.8221 53.3673C75.0469 54.2026 76.0615 55.5101 76.8514 57.0283C77.6341 58.5537 78.1921 60.3043 78.5327 62.1493C78.6994 63.0719 78.8081 64.0234 78.8588 64.9896C78.866 65.2293 78.8733 65.4762 78.8878 65.7159C78.8878 65.9557 78.8878 66.2026 78.8878 66.4423C78.8878 66.6893 78.8805 66.9363 78.8733 67.1905C78.8588 67.4375 78.8515 67.6772 78.8371 67.9242C78.7066 69.8927 78.3298 71.883 77.6413 73.7498C76.9601 75.6094 75.9672 77.3963 74.5541 78.6821C74.2062 79.0089 73.8221 79.285 73.4163 79.5174C73.0177 79.7499 72.5974 79.946 72.1553 80.0695C71.7205 80.193 71.2567 80.2511 70.8291 80.2511V80.222C70.8291 80.222 70.7784 80.2293 70.7059 80.2438H70.474L70.1551 80.1929C69.9377 80.1566 69.7203 80.1131 69.5102 80.0404C68.655 79.7934 67.8941 79.2995 67.2274 78.7256C66.5606 78.1445 66.0099 77.4617 65.5316 76.7571C64.5895 75.3261 63.9735 73.8007 63.5386 72.3552C63.372 71.7959 63.2415 71.2438 63.1256 70.7063C63.2633 69.8564 64.0894 69.2172 64.8431 68.9629C64.8431 68.9629 64.7127 67.2704 64.7127 65.3092C64.7127 63.791 65.3359 62.2002 65.6185 61.561C66.0171 61.0162 66.4519 60.1881 66.6693 59.1494C67.0172 57.4714 67.3071 56.1348 67.3071 56.1348C67.3071 56.1348 65.7272 56.2365 65.2852 56.3309C64.8431 56.4326 64.401 57.021 64.401 57.021L64.5967 61.0743L63.7343 57.0937L48.5736 57.2244C48.5736 57.2244 48.3924 58.4012 47.675 59.3092C46.9575 60.2244 46.5662 57.4859 46.5662 57.4859C46.5662 57.4859 42.7325 57.4859 41.8846 57.4205C41.0367 57.3552 41.9498 55.8588 41.9498 55.8588C41.9281 55.8733 41.9136 55.8879 41.8919 55.9024C42.1745 55.4302 42.4209 55.2704 42.5368 55.2196C42.3339 55.2922 41.6744 55.5828 41.2251 56.2874C40.6816 57.13 40.7831 59.7958 40.7831 59.7958V61.7208C40.7831 61.7208 42.0151 63.2535 42.9064 63.2026C43.7906 63.1518 54.6393 62.7595 54.6393 62.7595C54.6393 62.7595 54.9872 62.7523 55.5597 62.7305C55.5597 62.7595 55.5524 62.7813 55.5452 62.8031C55.5307 62.8758 55.5235 62.9484 55.509 63.021C54.5741 63.0719 50.8347 63.2607 49.7766 63.3043C48.5663 63.3552 43.5442 63.4496 42.8702 63.3987C42.1962 63.3479 41.6165 62.9629 41.4715 62.8176C41.3266 62.6724 41.0874 62.3818 41.0874 62.3818L20.1653 62.0912C20.1653 62.0912 19.7813 62.9629 18.4768 62.8176C17.1723 62.6724 11.6646 62.0912 11.6646 62.0912C11.6646 62.0912 10.9907 63.3479 11.2298 65.3382C11.469 67.3213 11.8096 68.2438 12.7299 68.9702C13.6503 69.6966 15.7229 70.1324 16.694 69.3116C17.6579 68.4908 18.0492 67.7644 18.0492 67.7644C18.0492 67.7644 19.2595 68.0549 19.9334 67.7644C20.6074 67.4738 21.0422 67.038 21.0422 67.038C21.0422 67.038 22.9265 66.7983 23.5569 66.7983C24.1874 66.7983 26.2601 67.2341 26.2601 67.2341C26.2601 67.2341 26.9848 67.5247 27.1804 67.5247C27.3761 67.5247 27.0862 68.0549 27.0862 68.0549C27.0862 68.0549 29.1661 68.1058 30.1807 67.8588C31.1953 67.6191 34.0434 67.808 35.3043 67.9097C36.5653 68.0113 37.2393 68.5416 37.2393 68.5416H38.7394L38.6887 67.9605L42.2615 68.0113C42.2615 68.0113 43.5152 70.0961 45.3559 70.3866C47.1894 70.6772 48.5953 69.6094 48.5953 69.6094C48.5953 69.6094 49.9505 68.883 50.6752 68.7886C51.3999 68.6941 55.3133 68.6942 55.3133 68.6942C55.3133 68.6942 55.3133 68.6288 55.3133 68.5271C55.3713 69.3406 55.4727 70.1978 55.6322 71.0767C55.7916 71.9557 56.0235 72.8491 56.3206 73.7426C56.625 74.6288 57.0018 75.515 57.4657 76.3576C57.9222 77.2002 58.473 77.9993 59.118 78.7039C59.7702 79.4012 60.5239 80.0186 61.3863 80.3818C62.2342 80.745 63.1038 80.9339 63.9155 81.0719C64.7271 81.2026 65.4881 81.3043 66.22 81.3552C67.6622 81.4496 68.8724 81.3552 69.7058 81.2607C70.1262 81.2099 70.4523 81.1591 70.6769 81.1227C70.8943 81.0864 71.0103 81.0646 71.0103 81.0646V81.0283C71.4813 81.0283 71.9379 80.9629 72.3945 80.8467C73.4163 80.5779 74.3512 80.0114 75.1266 79.3068C75.9093 78.6022 76.5687 77.7668 77.1123 76.8733C77.663 75.9799 78.1051 75.0283 78.4675 74.0477C79.1777 72.0791 79.5545 70.0162 79.685 67.9823C79.6994 67.728 79.7067 67.4665 79.7212 67.2123C79.7212 66.9653 79.7212 66.7111 79.7284 66.4641C79.7284 66.2099 79.7212 65.9557 79.7139 65.7014C79.6994 65.4472 79.685 65.2002 79.6777 64.9532C79.6487 64.4883 79.598 64.0234 79.54 63.5658C79.7357 63.5077 80.4169 63.3188 81.3518 63.0573C81.4315 63.3043 81.6199 63.6312 82.033 63.7038C82.7214 63.8273 83.4679 63.8927 83.7143 63.7038L83.9607 63.515L86.3884 63.6239C86.4102 63.8564 86.4536 64.0452 86.5189 64.1397C86.7073 64.4084 87.2001 64.9532 87.5552 65.3382C87.9103 68.3527 88.635 70.4157 89.4756 70.4157L94.1862 70.3866C94.1862 70.3866 95.7443 70.5755 96.6212 68.8249C97.4981 67.0743 98.4329 62.3818 98.4329 56.6288C98.4329 56.6288 98.4547 53.4908 98.4619 50.7595L98.9837 50.9338C98.9837 50.9338 99.0489 48.2752 98.9185 46.2995L98.875 46.2704ZM13.114 47.084C13.0995 46.5828 13.0995 46.1106 13.1285 45.7619C13.1068 46.205 13.0995 46.6481 13.114 47.084ZM2.80154 59.883C2.85227 59.9266 2.903 59.9629 2.95373 59.9992C2.88851 59.9629 2.83778 59.9193 2.80154 59.883ZM55.0017 50.8249L54.8712 51.3479C54.8712 51.3479 54.6103 52.8443 53.7624 53.6288C52.9145 54.4133 51.7478 54.6748 50.9651 54.6748C50.1824 54.6748 25.9919 54.2825 25.9919 54.2825L16.4331 53.8903L13.3749 53.9556L12.3966 54.8709L17.8101 54.9435L16.9404 56.4181C16.9404 56.4181 13.4329 56.4762 9.48327 56.2147C5.74382 55.9677 2.21454 55.1978 1.85219 55.1179C1.97538 54.9508 2.12032 54.791 2.27976 54.6675C2.35948 54.6021 2.45369 54.5513 2.5479 54.5077C2.56964 54.5004 2.59863 54.4859 2.61312 54.4859C2.64211 54.4859 2.6711 54.4786 2.69284 54.4786C2.74357 54.4786 2.7943 54.4786 2.84502 54.4786C3.2726 54.4786 3.70742 54.4932 4.13499 54.5004C4.99738 54.5295 5.85978 54.5731 6.72217 54.6167C8.44695 54.7038 10.1717 54.8055 11.8965 54.9145L11.911 54.5295H11.9545C11.9545 54.5295 12.4835 54.0501 12.7734 53.8539C13.0633 53.6578 16.107 53.7595 16.107 53.7595C16.107 53.7595 14.7518 53.7087 14.1286 52.9823C13.6213 52.4012 13.4329 51.1009 13.3749 50.607L14.6504 50.3164L14.5997 50.0476C14.5997 50.0476 14.0851 47.3745 14.5562 44.498C15.0055 41.7377 16.5853 40.9314 16.6506 40.8951L16.7158 40.8515C16.7158 40.8515 17.5854 40.1542 20.2885 39.9798C23.1221 39.791 37.3842 39.5149 37.5147 39.5077C37.6306 39.5077 49.0736 39.7474 50.7259 39.8854C52.3348 40.0234 53.8494 40.8079 54.4074 41.251C54.4364 41.2728 54.4654 41.2946 54.4871 41.3164C55.0814 41.8467 55.364 42.5513 55.451 43.6627C55.5452 44.9338 55.0307 48.0355 55.0234 48.0428L54.3494 50.8176L54.9002 50.9484L54.9364 50.8104H55.0452C55.0452 50.8104 55.7191 49.0888 56.4076 47.3963C56.009 48.4351 55.6249 49.4883 55.2481 50.5416C55.2336 50.5924 55.2191 50.6433 55.2118 50.7014C55.2118 50.7305 55.2118 50.7523 55.2118 50.7813C55.2118 50.7958 55.2118 50.8176 55.2263 50.8249L54.9872 50.8104L55.0017 50.8249ZM72.996 43.7135C72.4669 43.7353 71.9379 43.7571 71.4016 43.8007C70.8726 43.8443 70.3436 43.9024 69.8073 43.9895C69.6768 44.0186 69.5392 44.0331 69.4087 44.0694L69.2058 44.1203L68.9956 44.1929L68.9449 44.2147C68.9014 44.2292 68.9087 44.2292 68.8869 44.2438L68.8 44.2874C68.742 44.3091 68.6768 44.3527 68.6115 44.3963C68.5463 44.4399 68.4811 44.4835 68.4304 44.5343C68.3724 44.5779 68.3144 44.6288 68.2709 44.6796C67.8578 45.0936 67.6042 45.6094 67.4013 46.1106C67.2998 46.3648 67.2129 46.6191 67.1259 46.8733C67.0389 47.1203 66.952 47.3818 66.8795 47.6433C66.6114 48.6021 66.3722 49.561 66.1476 50.5271C65.2924 50.5343 64.4445 50.5416 63.5894 50.5561C62.6618 50.5707 61.7341 50.5852 60.8138 50.6142L59.4223 50.6578L58.0309 50.7087C57.125 50.7522 56.2119 50.7886 55.306 50.8467H55.2263C55.2263 50.8467 55.2118 50.8104 55.2118 50.7958C55.2118 50.7668 55.2118 50.745 55.2118 50.7159C55.2191 50.6651 55.2336 50.6142 55.2481 50.5561C55.7916 49.1106 56.3424 47.6723 56.9439 46.2559C57.0961 45.8999 57.2482 45.5513 57.4149 45.2026C57.5816 44.8539 57.7555 44.5125 57.9947 44.222C58.1686 43.9968 58.3715 43.8007 58.5889 43.6336C58.9948 43.3648 59.5455 43.0597 60.2413 42.8636C60.4804 42.8055 60.7196 42.7765 60.966 42.7401C61.2703 42.7038 61.5747 42.6748 61.8718 42.6457C62.6835 42.6021 63.4662 42.5513 64.1256 42.5004C64.2199 42.5004 64.3141 42.4932 64.4083 42.4859C65.1765 42.4568 65.9446 42.4496 66.7056 42.4714C67.4738 42.4932 68.2347 42.5585 68.9956 42.653C69.7566 42.7474 70.5175 42.8636 71.2712 42.9944C72.0249 43.1324 72.7786 43.2849 73.5033 43.4956C73.6989 43.5537 73.9018 43.6118 74.0975 43.6844C73.7207 43.6844 73.3511 43.699 72.9742 43.7135H72.996ZM64.9663 62.2002C65.1112 62.1058 65.3359 61.8951 65.575 61.5755C65.4229 61.8951 65.2489 62.2365 65.017 62.4617C64.5967 62.8757 63.872 62.9484 63.2343 62.9774C63.0748 62.9774 62.9226 62.992 62.7777 62.992C62.7705 62.992 62.756 62.992 62.7487 63.0065C62.7777 62.7305 62.8067 62.5271 62.8212 62.4109C63.9952 62.3382 64.8503 62.2656 64.9663 62.2002ZM62.669 73.2486C61.1761 67.5755 61.8211 62.883 61.8211 62.883L56.3569 63.0791C56.3569 63.0791 55.1828 65.8176 56.4873 71.6796C57.2337 75.0356 58.5962 77.2438 59.6253 78.515C59.56 78.4496 59.4948 78.3915 59.4296 78.3261C58.7991 77.6796 58.2483 76.9242 57.7773 76.1179C56.8279 74.5126 56.2047 72.7184 55.8351 70.9968C55.4655 69.2753 55.3423 67.6191 55.3278 66.2026C55.3278 65.5707 55.3423 64.9968 55.3785 64.4665C55.5162 63.6748 55.6901 62.992 55.6901 62.992C55.6901 62.992 55.6249 62.992 55.5235 62.9992C55.5307 62.9266 55.5452 62.854 55.5524 62.7886C55.5524 62.7595 55.5597 62.7377 55.5669 62.7087C57.2048 62.6578 60.5819 62.5343 62.8139 62.4036C62.7922 62.5198 62.7487 62.7232 62.698 62.9992C62.6907 63.0501 62.6762 63.1082 62.669 63.1663C62.6473 63.268 62.6255 63.3987 62.6038 63.5586C62.5386 63.9653 62.4806 64.4665 62.4298 65.0549C62.3574 65.9484 62.3284 67.038 62.3936 68.2874C62.4588 69.5368 62.6328 70.946 63.0241 72.4496C63.4154 73.946 63.9952 75.544 64.9518 77.0695C65.4374 77.8249 66.0099 78.5658 66.7128 79.2123C66.8433 79.3285 66.981 79.4448 67.1187 79.561C65.5388 78.4569 63.5096 76.4738 62.6545 73.2268L62.669 73.2486ZM86.3232 62.7159L84.3593 62.607C84.3593 62.607 84.2433 62.4472 84.0766 62.2438C84.8303 62.0331 85.613 61.8152 86.3812 61.5973C86.3594 61.9024 86.3377 62.3092 86.3304 62.7159H86.3232ZM95.8023 68.3891C94.6138 68.3891 93.6572 64.2922 93.6572 59.2292C93.6572 57.2752 93.8021 55.4593 94.0485 53.9774L94.4906 52.0016C94.8529 50.7958 95.3095 50.0767 95.8095 50.0767C96.998 50.0767 97.9546 54.1736 97.9546 59.2365C97.9546 64.2995 96.9908 68.3963 95.8095 68.3963L95.8023 68.3891ZM97.701 45.6602C97.701 45.6602 96.0777 45.7837 95.7081 46.038C95.3312 46.2849 95.0848 47.5416 95.0848 47.5416C95.0848 47.5416 93.3021 55.4956 93.0484 56.4036C93.2368 55.5101 95.0051 47.1857 95.1356 46.4084C95.2732 45.5876 95.8168 45.1808 95.8168 45.1808C95.8168 45.1808 97.9257 44.7014 98.1286 45.1808C98.172 45.2898 98.2083 45.6457 98.2373 46.1179C98.0343 45.6966 97.7082 45.6602 97.7082 45.6602H97.701Z" fill="#A4F40F"/>
<path d="M75.5106 53.5127C75.5106 53.5127 75.4599 52.256 75.4164 51.9146C75.3657 51.5732 75.1773 49.1035 74.9816 48.0865C74.8367 47.3311 74.4816 46.6047 74.054 46.3214C74.4453 46.4739 74.9744 46.8226 75.1773 47.6071C75.5179 48.9146 75.8078 53.7596 75.8078 53.7596L76.4817 54.7258C76.4817 54.7258 76.576 53.8032 76.4817 52.4957C76.3875 51.1882 76.0469 47.8977 75.4672 47.026C75.0251 46.3577 74.1482 46.227 73.7714 46.2052C73.7134 46.1979 73.6482 46.1906 73.5829 46.2052C72.9525 46.2996 70.0102 46.641 69.329 47.3674C68.6477 48.0938 68.1694 50.8032 68.1694 50.8032C68.1694 50.8032 69.184 50.8541 71.3581 51.1446C73.5322 51.4352 75.5106 53.5199 75.5106 53.5199V53.5127Z" fill="#A4F40F"/>
<path d="M42.5151 55.2051C42.5586 55.1906 42.5803 55.1833 42.5803 55.1833C42.5803 55.1833 42.5586 55.1833 42.5151 55.2051Z" fill="#A4F40F"/>
<path d="M70.8798 76.1543C74.0902 76.1543 76.6992 71.7742 76.6992 66.3916C76.6992 61.009 74.0902 56.6289 70.8798 56.6289C67.6694 56.6289 65.0605 61.009 65.0605 66.3916C65.0605 71.7742 67.6694 76.1543 70.8798 76.1543ZM74.699 60.6095C75.0324 60.704 75.7063 61.8008 75.9745 63.6604C76.1556 64.8662 76.3078 66.2972 76.3875 67.1471C76.3078 68.8105 75.9817 70.3577 75.4672 71.6725C75.1556 72.3045 74.7787 72.9146 74.3801 73.4013C73.7641 74.1568 73.3366 73.8735 73.2061 73.75C73.2496 73.6991 73.2858 73.6483 73.3293 73.5974C73.5032 73.3359 73.7062 73.0744 73.8583 72.7766C74.2062 72.2028 74.4743 71.5417 74.7135 70.8589C74.8077 70.5103 74.9381 70.1616 75.0106 69.7911C75.0541 69.6095 75.0976 69.4279 75.1338 69.2391C75.1628 69.0502 75.1918 68.8614 75.2208 68.6725C75.2933 68.2948 75.315 67.9098 75.3512 67.5175C75.3802 67.1253 75.3875 66.7621 75.3947 66.3626C75.373 65.5853 75.3367 64.8081 75.2063 64.0599C75.1048 63.3045 74.8947 62.5781 74.6773 61.8807C74.6483 61.8008 74.6193 61.7282 74.5903 61.6483C74.5323 61.1471 74.4961 60.5514 74.6917 60.6095H74.699ZM70.503 58.5684C71.9017 58.9388 73.0032 59.7524 73.4453 60.3408C73.5395 60.4715 73.6192 60.566 73.6772 60.6459C73.7351 60.7839 73.7931 60.9292 73.8583 61.0672C73.996 61.3723 74.0903 61.7064 74.2134 62.0333C74.4091 62.7015 74.5758 63.4061 74.6773 64.1398C74.7932 64.8662 74.8294 65.6144 74.8439 66.3626C74.8367 66.7258 74.8367 67.1253 74.8077 67.4885C74.7715 67.8589 74.757 68.2221 74.6917 68.5853C74.5975 69.319 74.4309 70.0236 74.2424 70.6919C74.025 71.3529 73.8004 71.9994 73.4887 72.5587C73.3583 72.8493 73.1771 73.1035 73.0249 73.365C72.9452 73.4957 72.851 73.6047 72.764 73.7209C72.6771 73.8372 72.5974 73.9534 72.4959 74.0551C72.4017 74.1568 72.3075 74.2585 72.2205 74.3601C72.1336 74.4618 72.0249 74.5345 71.9306 74.6217C71.7495 74.8032 71.5466 74.9267 71.3581 75.0575C71.3291 75.0793 71.3002 75.1011 71.2639 75.1156C70.8581 75.3335 70.4523 75.4643 70.1261 75.5442C70.0319 75.5587 69.9377 75.566 69.8508 75.5878C69.7855 75.595 69.7276 75.6023 69.6768 75.6095C69.6551 75.6095 69.6333 75.6095 69.6116 75.6095C67.6259 74.8105 66.0461 72.1737 65.5243 68.8032C65.8214 70.2778 66.3794 71.5417 67.1114 72.4352L68.3216 67.6338L65.3431 66.2246C65.3721 62.9776 66.3649 60.1301 67.8433 58.4594C68.2347 58.394 69.3652 58.2633 70.4957 58.5611L70.503 58.5684Z" fill="#A4F40F"/>
<path d="M70.2928 68.0621C70.8798 68.0621 71.3364 67.3284 71.3364 66.3914C71.3364 65.4544 70.8798 64.7207 70.2928 64.7207C69.7058 64.7207 69.2493 65.4544 69.2493 66.3914C69.2493 67.3284 69.7058 68.0621 70.2928 68.0621ZM70.2928 65.0113C70.7059 65.0113 71.0538 65.6432 71.0538 66.3914C71.0538 67.1396 70.7059 67.7716 70.2928 67.7716C69.8798 67.7716 69.5319 67.1396 69.5319 66.3914C69.5319 65.6432 69.8798 65.0113 70.2928 65.0113Z" fill="#A4F40F"/>
<path d="M71.8654 59.9773L71.6407 63.5366L73.4597 62.6722C73.0757 61.5608 72.5249 60.631 71.8654 59.9846V59.9773Z" fill="#A4F40F"/>
<path d="M73.6554 69.5298C73.9163 68.5782 74.0613 67.5249 74.0613 66.4135C74.0613 66.3336 74.0613 66.2537 74.0613 66.1738L72.3655 67.3215L73.6627 69.537L73.6554 69.5298Z" fill="#A4F40F"/>
<path d="M69.0753 73.7718C69.271 73.8154 69.4739 73.8444 69.6768 73.8444C70.5754 73.8444 71.4161 73.3868 72.1118 72.5951L70.5392 69.9873L69.0753 73.7718Z" fill="#A4F40F"/>
<path d="M69.242 63.9221L69.5536 58.9827C68.0752 59.048 66.7853 60.3556 66.0171 62.3095L69.2348 63.9221H69.242Z" fill="#A4F40F"/>
<path d="M23.5207 67.2635C22.7163 69.3192 21.738 71.4765 19.7378 72.6024C17.4985 73.8591 14.6649 73.525 12.8966 71.6218C11.1573 69.755 10.7153 67.278 10.6428 64.801C10.6428 64.5903 10.679 61.8664 10.9617 61.8881C10.9399 61.8881 7.3889 61.6484 7.3889 61.6484C7.3889 61.6484 6.08444 67.9899 8.54842 72.3482C10.5848 75.9511 14.4692 78.5226 18.7087 77.5565C20.3175 77.1933 21.8032 76.5395 22.9482 75.3773C24.115 74.1933 25.0788 72.8785 25.7021 71.324C26.376 69.6315 26.6659 67.9317 26.6659 67.9317C26.6659 67.9317 25.0716 67.4959 24.6368 67.4015C24.2019 67.307 23.528 67.2562 23.528 67.2562L23.5207 67.2635Z" fill="#A4F40F"/>
<path d="M18.1724 77.9197C17.897 77.9633 17.6144 77.9996 17.339 78.0286C17.0636 78.0577 16.781 78.0795 16.5056 78.094C16.223 78.1085 15.9476 78.1158 15.665 78.1158C15.3823 78.1231 15.1069 78.1158 14.8243 78.1158C14.5417 78.1158 14.2663 78.0867 13.9909 78.0722L13.1502 78.0068C12.8821 77.9851 12.5995 77.9415 12.3241 77.9124C12.0487 77.8761 11.7733 77.8252 11.4979 77.7817C11.2298 77.7236 10.9544 77.6727 10.6863 77.6146C10.4181 77.5492 10.15 77.4911 9.8891 77.4112C9.62096 77.3386 9.36731 77.2441 9.10642 77.157C8.85278 77.0553 8.59913 76.9608 8.35998 76.8446C8.11358 76.7284 7.88168 76.6049 7.65702 76.4669C7.54107 76.4015 7.43961 76.3289 7.33091 76.249C7.2367 76.1763 7.1135 76.0819 7.06277 76.0311L7.02653 75.9947L6.96856 75.9584C6.71491 75.7986 6.41779 75.5662 6.16414 75.3337C5.90325 75.1013 5.6641 74.8398 5.42495 74.5783C5.19304 74.3168 4.96838 74.0407 4.76547 73.7502C4.65676 73.6122 4.56255 73.4596 4.46834 73.3071C4.36688 73.1618 4.27267 73.0093 4.19296 72.8494C4.01178 72.5444 3.85235 72.2248 3.69291 71.9051C3.54073 71.5855 3.39579 71.2514 3.27259 70.9245C3.15664 70.5904 3.02619 70.2708 2.93198 69.9076L2.77979 69.3773L2.65659 68.8616C2.56238 68.5129 2.50441 68.157 2.43194 67.7938C2.35947 67.4378 2.32323 67.0746 2.26525 66.7187C2.22902 66.3555 2.17829 65.9923 2.15655 65.6291C2.12756 65.2659 2.10582 64.9027 2.09857 64.5395C2.08408 64.1763 2.09133 63.8059 2.09857 63.4427C2.09857 63.0795 2.12031 62.709 2.1493 62.3458C2.17104 61.9826 2.20728 61.6122 2.25076 61.249C2.29424 60.8858 2.34497 60.5153 2.41744 60.1521C2.30149 60.5008 2.20003 60.864 2.11307 61.2199C2.0261 61.5831 1.96088 61.9463 1.89566 62.3095C1.83768 62.6799 1.78695 63.0431 1.74347 63.4136C1.70724 63.7841 1.671 64.1545 1.65651 64.5322C1.63477 64.9027 1.63477 65.2804 1.63477 65.6509C1.63477 66.0214 1.65651 66.3991 1.671 66.7695C1.70724 67.14 1.72898 67.5177 1.77971 67.8882C1.83043 68.2587 1.87392 68.6364 1.95363 68.9996C1.98987 69.1884 2.01886 69.3555 2.06234 69.5662L2.20003 70.1037C2.27975 70.4596 2.41019 70.8301 2.52615 71.1933C2.58412 71.3821 2.65659 71.5492 2.72906 71.7308C2.80153 71.9051 2.85951 72.0867 2.94647 72.2611C3.10591 72.6025 3.27259 72.9511 3.46826 73.278C3.55522 73.4451 3.65668 73.6122 3.76538 73.772C3.86684 73.9318 3.9683 74.0988 4.08425 74.2514C4.30166 74.5637 4.54081 74.8688 4.79446 75.1594C5.0481 75.4499 5.31624 75.726 5.60612 75.9802C5.88875 76.2272 6.16414 76.4524 6.50475 76.663C6.62795 76.7792 6.72941 76.8519 6.84536 76.939C6.96856 77.0262 7.099 77.1134 7.22945 77.186C7.49034 77.3386 7.75848 77.4766 8.02662 77.5928C8.29476 77.709 8.57739 77.8107 8.85278 77.9124C9.13541 77.9996 9.4108 78.0867 9.69343 78.1521C9.97606 78.232 10.2587 78.2829 10.5413 78.341C10.824 78.3918 11.1138 78.4354 11.3965 78.479C11.6864 78.508 11.969 78.5444 12.2589 78.5662C12.5487 78.5807 12.8314 78.6097 13.1213 78.617C13.4039 78.617 13.6865 78.6388 13.9692 78.6388C14.259 78.6388 14.5489 78.6388 14.8316 78.617C15.1142 78.6025 15.4041 78.5952 15.6867 78.5662C15.9693 78.5444 16.2592 78.5081 16.5418 78.4717C16.8245 78.4354 17.1071 78.3846 17.3897 78.3265C17.6724 78.2683 17.9478 78.203 18.2231 78.1231C18.7739 77.9633 19.3174 77.7744 19.803 77.4838C19.5421 77.6001 19.274 77.68 18.9986 77.7453C18.7232 77.818 18.4478 77.8688 18.1724 77.9197Z" fill="#A4F40F"/>
<path d="M20.6074 42.5298C20.4697 42.2755 20.2958 42.0431 20.0856 41.8324C19.8827 41.6218 19.6363 41.4402 19.3609 41.3167C19.187 41.2368 18.9841 41.1787 18.7884 41.1423C18.5565 41.077 18.3174 41.0407 18.071 41.0552C17.9043 41.0552 17.7159 41.0915 17.5419 41.1351C17.455 41.1641 17.368 41.1859 17.2883 41.2222L17.0419 41.3385C16.4187 41.6871 15.9404 42.261 15.6505 42.9075C15.5055 43.2271 15.3896 43.5685 15.3244 43.9099C15.2519 44.2586 15.2302 44.6072 15.2374 44.9632C15.2374 45.2973 15.3026 45.6678 15.3823 46.0019C15.4693 46.3433 15.5998 46.6702 15.7592 46.9825C15.9259 47.2949 16.136 47.5782 16.3897 47.8324C16.6361 48.0794 16.9332 48.2973 17.2666 48.4281C17.5999 48.5661 17.955 48.6242 18.3174 48.5951C18.4841 48.5951 18.6725 48.5443 18.8392 48.4934C19.0058 48.4426 19.1653 48.3627 19.3247 48.2828C19.6291 48.1085 19.89 47.8687 20.1146 47.6C20.332 47.3312 20.5205 47.0334 20.6509 46.7138C20.7886 46.3942 20.8901 46.06 20.9408 45.7259C20.9553 45.6605 20.9553 45.5951 20.9625 45.5225C21.0133 45.3191 21.0495 45.1085 21.0712 44.8905C21.1147 44.3966 21.0785 43.8518 20.9263 43.3143C20.8466 43.0455 20.7451 42.784 20.6002 42.537L20.6074 42.5298ZM20.8683 44.8687C20.8393 45.3409 20.7306 45.7985 20.5639 46.1835C20.3973 46.5685 20.1799 46.8954 19.9407 47.1424C19.7016 47.3893 19.4479 47.5564 19.2233 47.6581C18.9986 47.7525 18.8029 47.8034 18.6725 47.8179C18.542 47.8324 18.4696 47.8397 18.4696 47.8397C18.4696 47.8397 18.542 47.8397 18.6725 47.8397C18.8029 47.8324 19.0058 47.8034 19.245 47.7162C19.4841 47.6218 19.7523 47.462 20.0132 47.2223C20.2741 46.9825 20.5205 46.6557 20.7089 46.2562C20.7161 46.2344 20.7234 46.2126 20.7379 46.1908C20.6871 46.3506 20.6219 46.5104 20.5495 46.6629C20.4118 46.968 20.2233 47.2586 20.0059 47.5055C19.7885 47.7598 19.5349 47.9777 19.2377 48.1375C18.9406 48.2973 18.6362 48.3845 18.3029 48.399C17.9768 48.4135 17.6507 48.3482 17.3535 48.2174C17.0564 48.0867 16.7883 47.8905 16.5636 47.6581C16.3389 47.4256 16.1433 47.1569 15.9911 46.8591C15.8389 46.5612 15.723 46.2562 15.6432 45.9293C15.636 45.8857 15.6287 45.8421 15.6142 45.7985C15.6215 45.6823 15.6577 45.5806 15.7302 45.5661C15.8534 45.537 15.9693 45.6823 16.0563 45.8058C16.107 45.9583 16.165 46.1109 16.2302 46.2489C16.4187 46.6484 16.6651 46.9753 16.926 47.215C17.1868 47.4547 17.455 47.6145 17.6941 47.7089C17.9333 47.7961 18.129 47.8252 18.2666 47.8324C18.4043 47.8324 18.4696 47.8324 18.4696 47.8324C18.4696 47.8324 18.3971 47.8252 18.2666 47.8106C18.1362 47.7961 17.9405 47.7453 17.7159 47.6508C17.4912 47.5491 17.2376 47.3821 16.9984 47.1351C16.7593 46.8881 16.5419 46.5612 16.3752 46.1762C16.2085 45.7913 16.0998 45.3409 16.0708 44.8615C16.0708 44.7453 16.0636 44.6145 16.0708 44.4983C16.0781 44.3748 16.0781 44.2368 16.0998 44.1206C16.1288 43.8736 16.1723 43.6193 16.252 43.3724C16.4042 42.8784 16.6651 42.3845 17.0492 42.014C17.4187 41.629 17.955 41.3893 18.4696 41.3893C18.7667 41.3893 18.9986 41.4474 19.2522 41.5564C19.4986 41.6653 19.716 41.8252 19.9045 42.014C20.2886 42.3917 20.5495 42.8784 20.7016 43.3724C20.8466 43.8736 20.9046 44.3748 20.8756 44.8687H20.8683Z" fill="#A4F40F"/>
<path d="M26.3253 34.7935L26.521 34.9388L28.166 34.5538L29.7096 29.7087H28.6951L27.2457 29.7596C27.2457 29.7596 26.1803 29.8104 26.0861 31.0162C25.9919 32.2293 26.0354 34.2632 26.0354 34.2632C26.0354 34.2632 26.1296 34.6482 26.3253 34.7935Z" fill="#A4F40F"/>
<path d="M51.6536 55.9678C51.3202 55.9678 50.9796 55.9678 50.6462 55.9678C50.6462 55.9678 51.0593 55.9896 51.6536 55.9678Z" fill="#A4F40F"/>
<path d="M73.8077 19.7284C73.8077 19.7284 70.9089 19.634 69.0754 19.5832C67.2419 19.5323 53.6755 19.634 47.1097 19.9682C40.5439 20.3096 36.2465 20.6001 35.5725 20.9343C34.8985 21.2757 34.2173 22.2418 33.6883 23.7381C33.1592 25.2418 30.6445 33.2684 30.6445 33.2684C30.7895 32.7817 74.2932 33.174 74.2932 33.174C74.2932 33.174 74.4381 31.772 74.5831 30.5154C74.728 29.2587 75.1628 22.8229 75.2136 21.2248C75.2643 19.6268 73.8149 19.7212 73.8149 19.7212L73.8077 19.7284ZM74.1193 22.2999C73.8801 21.5444 73.583 20.9125 73.2714 20.818C72.4597 20.5856 47.7909 23.2587 41.8846 27.4355C35.9783 31.6122 38.2974 31.8447 39.1018 31.9609C39.9134 32.0771 45.3704 32.5275 45.3704 32.5275C41.1599 32.5275 37.848 32.542 35.5363 32.5783C33.4491 32.6074 32.3693 32.6364 31.804 32.6946C32.3186 31.0456 34.1666 25.1546 34.6014 23.927C35.0724 22.605 35.6812 21.6752 36.2827 21.3701C36.9422 21.0432 42.2325 20.7236 47.3126 20.4621C52.5812 20.1933 62.6618 20.0771 66.8868 20.0771C67.6622 20.0771 68.2202 20.0771 68.4956 20.0916C70.2639 20.1352 73.0612 20.2297 73.0612 20.2297H73.1192C73.2351 20.2297 73.6265 20.2514 73.8874 20.5202C74.0758 20.7163 74.1628 21.0069 74.1555 21.3919C74.1555 21.6098 74.1338 21.9149 74.1193 22.2926V22.2999Z" fill="#A4F40F"/>
<path d="M24.5353 41.7013C24.1875 42.0499 24.0135 43.0959 24.0135 43.0959C24.0135 43.0959 23.2019 49.7715 23.4338 51.2243C23.5135 51.7109 23.8831 52.0015 24.2817 52.0596C23.9555 52.125 23.6077 52.0814 23.3396 51.9216C23.1221 51.7981 22.9989 51.5802 22.9265 51.3187C22.7598 50.7085 22.8902 49.8514 22.9192 49.3429C22.97 48.355 23.0569 47.3744 23.1439 46.3865C23.2598 45.1298 23.3975 43.8732 23.5497 42.6165C23.5497 42.6165 23.6439 42.0499 23.8323 41.5923C23.4772 41.9918 23.3033 43.0523 23.3033 43.0523C23.3033 43.0523 22.4337 50.1928 22.6801 51.7473C22.8395 52.7642 24.2817 52.8732 24.9266 52.2412C25.0933 52.0741 25.202 51.8562 25.2455 51.6238C25.2817 51.5657 25.318 51.5003 25.3397 51.4277C25.5644 50.8175 25.4992 50.062 25.5281 49.4228C25.5861 48.0862 26.1659 43.4446 26.1659 43.4446C26.1659 43.4446 26.3978 42.108 26.0499 41.8175C25.7021 41.5269 24.8904 41.3526 24.5426 41.7013H24.5353Z" fill="#A4F40F"/>
<path d="M28.2675 41.7013C27.9196 42.0499 27.7457 43.0959 27.7457 43.0959C27.7457 43.0959 26.934 49.7715 27.1659 51.2243C27.2457 51.7109 27.6153 52.0015 28.0138 52.0596C27.6877 52.125 27.3399 52.0814 27.0717 51.9216C26.8543 51.7981 26.7311 51.5802 26.6586 51.3187C26.492 50.7085 26.6224 49.8514 26.6514 49.3429C26.7021 48.355 26.7891 47.3744 26.8761 46.3865C26.992 45.1298 27.1297 43.8732 27.2819 42.6165C27.2819 42.6165 27.3761 42.0499 27.5645 41.5923C27.2094 41.9918 27.0355 43.0523 27.0355 43.0523C27.0355 43.0523 26.1659 50.1928 26.4123 51.7473C26.5717 52.7642 28.0138 52.8732 28.6588 52.2412C28.8255 52.0741 28.9342 51.8562 28.9777 51.6238C29.0139 51.5657 29.0502 51.5003 29.0719 51.4277C29.2966 50.8175 29.2313 50.062 29.2603 49.4228C29.3183 48.0862 29.8981 43.4446 29.8981 43.4446C29.8981 43.4446 30.13 42.108 29.7821 41.8175C29.4342 41.5269 28.6226 41.3526 28.2747 41.7013H28.2675Z" fill="#A4F40F"/>
<path d="M31.9925 41.7013C31.6446 42.0499 31.4707 43.0959 31.4707 43.0959C31.4707 43.0959 30.659 49.7715 30.8909 51.2243C30.9706 51.7109 31.3402 52.0015 31.7388 52.0596C31.4127 52.125 31.0648 52.0814 30.7967 51.9216C30.5793 51.7981 30.4561 51.5802 30.3836 51.3187C30.2169 50.7085 30.3474 49.8514 30.3764 49.3429C30.4271 48.355 30.5141 47.3744 30.601 46.3865C30.717 45.1298 30.8547 43.8732 31.0069 42.6165C31.0069 42.6165 31.1011 42.0499 31.2895 41.5923C30.9344 41.9918 30.7605 43.0523 30.7605 43.0523C30.7605 43.0523 29.8908 50.1928 30.1372 51.7473C30.2967 52.7642 31.7388 52.8732 32.3838 52.2412C32.5505 52.0741 32.6592 51.8562 32.7027 51.6238C32.7389 51.5657 32.7751 51.5003 32.7969 51.4277C33.0215 50.8175 32.9563 50.062 32.9853 49.4228C33.0433 48.0862 33.623 43.4446 33.623 43.4446C33.623 43.4446 33.8549 42.108 33.5071 41.8175C33.1592 41.5269 32.3476 41.3526 31.9997 41.7013H31.9925Z" fill="#A4F40F"/>
<path d="M35.7246 41.7013C35.3768 42.0499 35.2029 43.0959 35.2029 43.0959C35.2029 43.0959 34.3912 49.7715 34.6231 51.2243C34.7028 51.7109 35.0724 52.0015 35.471 52.0596C35.1449 52.125 34.797 52.0814 34.5289 51.9216C34.3115 51.7981 34.1883 51.5802 34.1158 51.3187C33.9491 50.7085 34.0796 49.8514 34.1086 49.3429C34.1593 48.355 34.2462 47.3744 34.3332 46.3865C34.4492 45.1298 34.5869 43.8732 34.739 42.6165C34.739 42.6165 34.8333 42.0499 35.0217 41.5923C34.6666 41.9918 34.4926 43.0523 34.4926 43.0523C34.4926 43.0523 33.623 50.1928 33.8694 51.7473C34.0288 52.7642 35.471 52.8732 36.116 52.2412C36.2827 52.0741 36.3914 51.8562 36.4348 51.6238C36.4711 51.5657 36.5073 51.5003 36.5291 51.4277C36.7537 50.8175 36.6885 50.062 36.7175 49.4228C36.7754 48.0862 37.3552 43.4446 37.3552 43.4446C37.3552 43.4446 37.5871 42.108 37.2393 41.8175C36.8914 41.5269 36.0797 41.3526 35.7319 41.7013H35.7246Z" fill="#A4F40F"/>
<path d="M39.4569 41.7013C39.109 42.0499 38.9351 43.0959 38.9351 43.0959C38.9351 43.0959 38.1234 49.7715 38.3553 51.2243C38.435 51.7109 38.8046 52.0015 39.2032 52.0596C38.8771 52.125 38.5293 52.0814 38.2611 51.9216C38.0437 51.7981 37.9205 51.5802 37.848 51.3187C37.6814 50.7085 37.8118 49.8514 37.8408 49.3429C37.8915 48.355 37.9785 47.3744 38.0655 46.3865C38.1814 45.1298 38.3191 43.8732 38.4713 42.6165C38.4713 42.6165 38.5655 42.0499 38.7539 41.5923C38.3988 41.9918 38.2249 43.0523 38.2249 43.0523C38.2249 43.0523 37.3552 50.1928 37.6016 51.7473C37.7611 52.7642 39.2032 52.8732 39.8482 52.2412C40.0149 52.0741 40.1236 51.8562 40.1671 51.6238C40.2033 51.5657 40.2396 51.5003 40.2613 51.4277C40.486 50.8175 40.4207 50.062 40.4497 49.4228C40.5077 48.0862 41.0875 43.4446 41.0875 43.4446C41.0875 43.4446 41.3194 42.108 40.9715 41.8175C40.6236 41.5269 39.812 41.3526 39.4641 41.7013H39.4569Z" fill="#A4F40F"/>
<path d="M43.1891 41.7013C42.8412 42.0499 42.6673 43.0959 42.6673 43.0959C42.6673 43.0959 41.8556 49.7715 42.0875 51.2243C42.1672 51.7109 42.5368 52.0015 42.9354 52.0596C42.6093 52.125 42.2614 52.0814 41.9933 51.9216C41.7759 51.7981 41.6527 51.5802 41.5802 51.3187C41.4135 50.7085 41.544 49.8514 41.573 49.3429C41.6237 48.355 41.7107 47.3744 41.7976 46.3865C41.9136 45.1298 42.0513 43.8732 42.2035 42.6165C42.2035 42.6165 42.2977 42.0499 42.4861 41.5923C42.131 41.9918 41.9571 43.0523 41.9571 43.0523C41.9571 43.0523 41.0874 50.1928 41.3338 51.7473C41.4933 52.7642 42.9354 52.8732 43.5804 52.2412C43.7471 52.0741 43.8558 51.8562 43.8993 51.6238C43.9355 51.5657 43.9717 51.5003 43.9935 51.4277C44.2181 50.8175 44.1529 50.062 44.1819 49.4228C44.2399 48.0862 44.8196 43.4446 44.8196 43.4446C44.8196 43.4446 45.0515 42.108 44.7037 41.8175C44.3558 41.5269 43.5442 41.3526 43.1963 41.7013H43.1891Z" fill="#A4F40F"/>
<path d="M54.5089 45.0646C54.5886 44.4617 54.5089 43.7717 54.2335 43.147C54.1031 42.8346 53.9074 42.5368 53.69 42.2608C53.4653 41.992 53.1972 41.7523 52.9073 41.5489C52.6102 41.3455 52.2768 41.193 51.9362 41.084C51.7405 41.0259 51.5449 40.9823 51.3419 40.9605C51.0593 40.8951 50.7694 40.8516 50.4723 40.8516C50.0447 40.8516 49.6027 40.9169 49.1896 41.0404C48.7765 41.1712 48.3852 41.3746 48.0301 41.6288C47.675 41.883 47.3633 42.1954 47.1097 42.5513C46.8561 42.9073 46.6531 43.2995 46.5154 43.7136C46.385 44.1349 46.327 44.5634 46.327 45.0065C46.327 45.4206 46.414 45.8782 46.5517 46.285C46.6894 46.699 46.8995 47.084 47.1604 47.4327C47.4213 47.7741 47.7329 48.0937 48.0953 48.3334C48.4504 48.5804 48.849 48.7692 49.2621 48.8927C49.6824 49.0162 50.11 49.0598 50.5448 49.0525L50.8564 49.0307L51.1825 48.9799C51.2912 48.9654 51.3927 48.9291 51.4941 48.9073C51.5956 48.8855 51.7043 48.8492 51.7985 48.8056C52.2043 48.6603 52.5812 48.4496 52.9145 48.1736C53.2479 47.9048 53.5378 47.5852 53.7769 47.2293C54.0088 46.8734 54.1828 46.4738 54.2987 46.0671C54.3495 45.8855 54.3857 45.6966 54.4074 45.5077C54.4437 45.3625 54.4727 45.2172 54.4944 45.0646H54.5089ZM54.306 45.0501C54.248 45.624 54.0451 46.1688 53.7697 46.5973C53.4871 47.0332 53.1392 47.3673 52.7913 47.607C52.4435 47.854 52.0956 47.992 51.8058 48.0792C51.6608 48.1228 51.5304 48.1591 51.4072 48.1736C51.2912 48.1954 51.1898 48.2172 51.11 48.2172C50.9506 48.2317 50.8636 48.239 50.8564 48.239C50.8564 48.239 50.9434 48.239 51.11 48.239C51.1898 48.239 51.2912 48.2317 51.4144 48.2172C51.5376 48.2099 51.6681 48.1809 51.8203 48.1445C52.1174 48.0646 52.4797 47.9412 52.8493 47.7087C53.2189 47.4763 53.5958 47.1494 53.9001 46.699C54.0233 46.5174 54.132 46.3068 54.2263 46.0889C54.1031 46.4738 53.9291 46.8443 53.7045 47.1784C53.4653 47.5198 53.1754 47.8177 52.8493 48.0719C52.5232 48.3261 52.1536 48.5223 51.7623 48.653C51.6681 48.6893 51.5666 48.7184 51.4651 48.7402C51.3637 48.762 51.2695 48.7983 51.168 48.8056L50.8636 48.8492L50.552 48.8637C50.1462 48.8637 49.7331 48.8128 49.3418 48.6893C48.9504 48.5586 48.5881 48.377 48.2475 48.1445C47.9069 47.9121 47.6242 47.6143 47.3778 47.2874C47.1387 46.9605 46.9358 46.5973 46.8198 46.2051C46.8126 46.0017 46.8343 45.7983 46.9865 45.7692C47.2039 45.7329 47.4213 45.9799 47.5228 46.1252C47.617 46.3286 47.7112 46.5174 47.8344 46.6918C48.1388 47.1421 48.5156 47.469 48.8852 47.7014C49.2548 47.9339 49.6172 48.0646 49.9143 48.1373C50.0665 48.1736 50.1969 48.2027 50.3201 48.2099C50.4361 48.2245 50.5375 48.239 50.6245 48.2317C50.7912 48.2317 50.8781 48.2317 50.8781 48.2317C50.8781 48.2317 50.7912 48.2245 50.6245 48.2099C50.5448 48.2099 50.4433 48.1881 50.3274 48.1663C50.2114 48.1518 50.081 48.1155 49.9288 48.0719C49.6389 47.9847 49.291 47.8467 48.9432 47.5998C48.5953 47.36 48.2475 47.0259 47.9648 46.5901C47.6895 46.1542 47.4865 45.624 47.4213 45.0356C47.4141 44.8903 47.4068 44.7378 47.4068 44.5925C47.4213 44.4399 47.4213 44.2801 47.4503 44.1349C47.4938 43.837 47.588 43.532 47.7112 43.2414C47.8416 42.9508 48.0156 42.6748 48.2257 42.4206C48.4359 42.1736 48.6895 41.9484 48.9649 41.7668C49.2403 41.5852 49.5519 41.4472 49.8708 41.3455C50.1969 41.2511 50.5303 41.2075 50.8709 41.2002C51.2187 41.2075 51.5449 41.2511 51.871 41.3455C52.1898 41.4472 52.5015 41.5852 52.7769 41.7668C53.0522 41.9557 53.2986 42.1736 53.516 42.4206C53.719 42.6748 53.9001 42.9436 54.0306 43.2414C54.2842 43.8225 54.3784 44.4472 54.3205 45.0429L54.306 45.0501Z" fill="#A4F40F"/>
<path d="M53.6755 50.8178C53.5957 50.5127 53.3856 50.0696 52.9363 49.7427C52.7116 49.5829 52.429 49.4521 52.1029 49.4013C51.7912 49.3577 51.4289 49.3868 51.0955 49.5248C50.9288 49.5902 50.7694 49.6846 50.6172 49.8008C50.4723 49.917 50.3418 50.0623 50.2331 50.2149C50.1244 50.3747 50.0375 50.549 49.9795 50.7379C49.9215 50.9195 49.8925 51.1374 49.8925 51.3117C49.8925 51.7185 50.0157 52.1035 50.2331 52.4231C50.4505 52.7427 50.7622 52.9824 51.0955 53.1132C51.2622 53.1785 51.4289 53.2294 51.6101 53.2439C51.697 53.2584 51.7767 53.2512 51.8565 53.2585C51.9434 53.2585 52.0231 53.2512 52.1029 53.2366C52.4217 53.1858 52.7116 53.0623 52.9363 52.8953C53.3928 52.5611 53.603 52.1253 53.6755 51.8202C53.7189 51.6676 53.7334 51.5369 53.7334 51.457C53.7334 51.3698 53.7334 51.3262 53.7334 51.3262C53.7334 51.3262 53.7334 51.3698 53.7262 51.457C53.7262 51.5442 53.7044 51.6676 53.661 51.8202C53.6175 51.9727 53.545 52.1543 53.4218 52.3359C53.2986 52.5175 53.1247 52.7064 52.8928 52.8444C52.6609 52.9824 52.3855 53.0841 52.0811 53.1059C52.0086 53.1059 51.9289 53.1059 51.8565 53.1059C51.7767 53.0986 51.6898 53.0986 51.6173 53.0769C51.4651 53.0551 51.3129 52.9969 51.168 52.9316C50.8781 52.7863 50.6245 52.5611 50.4433 52.2778C50.3563 52.1325 50.2911 51.98 50.2404 51.8202C50.1969 51.6604 50.1752 51.4788 50.1679 51.3262C50.1679 51.1301 50.1896 50.9848 50.2404 50.8178C50.2911 50.658 50.3563 50.5054 50.4505 50.3601C50.6317 50.0768 50.8854 49.8517 51.1752 49.7064C51.4651 49.5611 51.784 49.5103 52.0956 49.5321C52.3927 49.5538 52.6754 49.6555 52.9 49.7936C53.1319 49.9316 53.3059 50.1204 53.4291 50.302C53.5595 50.4836 53.6247 50.6652 53.6682 50.8178C53.7117 50.9703 53.7262 51.0938 53.7334 51.181C53.7334 51.2681 53.7407 51.3117 53.7407 51.3117C53.7407 51.3117 53.7407 51.2681 53.7407 51.181C53.7407 51.0938 53.7262 50.9703 53.6827 50.8178H53.6755Z" fill="#A4F40F"/>
<path d="M52.0521 49.5684C51.1463 49.5684 50.4143 50.302 50.4143 51.21C50.4143 52.118 51.1463 52.8516 52.0521 52.8516C52.958 52.8516 53.6899 52.118 53.6899 51.21C53.6899 50.302 52.958 49.5684 52.0521 49.5684Z" fill="#A4F40F"/>
<path d="M17.8246 50.2802C17.8028 50.1494 17.7521 49.9969 17.6796 49.8298C17.6071 49.6628 17.4912 49.4812 17.3318 49.3213C17.1723 49.1543 16.9549 49.0163 16.6795 48.9654C16.4186 48.9146 16.107 48.9509 15.8461 49.1034C15.578 49.2487 15.3606 49.4884 15.2156 49.7717C15.0635 50.0477 15.0055 50.3819 14.9982 50.6942C15.0055 51.0138 15.0707 51.3335 15.2156 51.6168C15.3606 51.9 15.578 52.1398 15.8461 52.285C15.9766 52.3577 16.1215 52.4085 16.2665 52.4303C16.3462 52.4448 16.4114 52.4448 16.4766 52.4448C16.5491 52.4448 16.6143 52.4376 16.6868 52.423C16.9549 52.3722 17.1796 52.2269 17.339 52.0671C17.4984 51.9001 17.6144 51.7257 17.6869 51.5586C17.7593 51.3916 17.8101 51.239 17.8318 51.1083C17.8535 50.9775 17.868 50.8758 17.868 50.8032C17.868 50.8758 17.8535 50.9775 17.8246 51.101C17.8028 51.2318 17.7521 51.3843 17.6651 51.5441C17.5854 51.7039 17.4622 51.8783 17.2955 52.0163C17.1288 52.1615 16.9114 52.2705 16.665 52.2923C16.6071 52.2996 16.5418 52.2923 16.4839 52.2923C16.4186 52.2923 16.3534 52.2778 16.2954 52.2632C16.1795 52.2342 16.0563 52.1833 15.9476 52.1034C15.7302 51.9582 15.5635 51.7402 15.4475 51.4933C15.3316 51.2463 15.2736 50.963 15.2736 50.687C15.2736 50.3964 15.3316 50.1349 15.4475 49.8807C15.5635 49.6337 15.7302 49.4158 15.9476 49.2705C16.165 49.1252 16.4186 49.0599 16.665 49.0889C16.8172 49.1034 16.9622 49.1615 17.0926 49.2342C16.9477 49.1615 16.7882 49.118 16.6216 49.118C15.9548 49.118 15.4186 49.779 15.4186 50.5998C15.4186 51.4206 15.9548 52.0816 16.6216 52.0816C17.2883 52.0816 17.8246 51.4206 17.8246 50.5998C17.8246 50.302 17.7521 50.0187 17.6289 49.7862C17.6361 49.8008 17.6506 49.8226 17.6579 49.8371C17.7376 49.9969 17.7883 50.1494 17.8173 50.2802C17.8463 50.4109 17.8535 50.5126 17.8608 50.578C17.8608 50.5054 17.8535 50.4037 17.8246 50.2729V50.2802Z" fill="#A4F40F"/>
<path d="M18.7605 56.4386L18.7534 57.0125L40.1811 57.2786L40.1882 56.7048L18.7605 56.4386Z" fill="#A4F40F"/>
</svg>
