<svg width="100" height="100" viewBox="0 0 100 100" fill="none" xmlns="http://www.w3.org/2000/svg">
<path d="M16.4119 19.8974C16.3454 20.075 14.84 24.3675 15.5558 28.5267C16.4561 33.7886 18.2124 37.7332 20.9207 40.5825C23.2821 43.0618 25.983 44.3199 28.5584 45.3042C29.3111 45.5928 30.1376 46.2885 31.0084 47.0286C32.44 48.2423 34.1741 49.6929 36.506 50.1221C36.1518 51.6467 35.9378 53.3488 35.9378 55.2434C35.9378 63.8949 37.9967 67.5731 39.5021 70.2596C40.3876 71.8359 40.9706 72.8795 40.9706 74.5594C40.9706 76.1062 40.4688 76.5798 39.3766 77.6233C37.672 79.2441 35.3401 81.4643 35.3401 88.0658C35.3401 88.7319 35.6648 89.361 36.2256 89.7236C36.5503 89.9382 36.9267 90.0492 37.303 90.0492C37.5687 90.0492 37.8343 89.9974 38.0852 89.8864C38.1147 89.8716 41.1182 88.6431 47.7227 88.6431C50.6745 88.6431 53.9141 88.8873 57.3455 89.3684C61.8174 89.99 65.7654 91.7144 69.0935 94.4897C71.6026 96.5841 72.798 98.5231 72.8054 98.5379C73.167 99.1374 73.809 99.5 74.4953 99.5C74.5691 99.5 74.6429 99.5 74.7167 99.4852C75.4841 99.3964 76.1261 98.8709 76.3697 98.1383C76.473 97.8274 78.6499 90.8189 71.9863 80.3098C72.9604 79.5697 74.1189 78.4152 75.1521 76.6834C75.3661 76.6908 75.6022 76.6982 75.8531 76.6982C78.8418 76.6982 81.0039 75.8472 82.0961 74.2338C83.9483 71.5029 85.9408 60.6164 85.5866 56.805C85.5423 56.3313 85.3283 55.8947 84.9888 55.5617C84.9372 55.5099 79.8896 50.6328 74.6724 44.2237C68.5991 36.7711 61.8322 36.1421 55.4195 36.1421C53.4935 36.1421 51.5158 36.4307 49.6193 36.9562C49.2208 36.6897 48.7928 36.3715 48.3943 35.9941C46.852 34.5213 46.4018 32.8561 47.0291 30.9171C47.6489 29.0003 48.5123 27.4758 49.3462 26.003C51.1689 22.7911 52.8883 19.7568 51.2944 14.2062C49.5602 8.16719 55.4711 4.00056 55.722 3.83034L58.7919 1.73593L55.1833 0.862637C55.1243 0.847836 53.6632 0.5 51.7298 0.5C48.0917 0.5 45.2285 1.65452 43.3541 3.85995C42.3505 3.4233 40.8968 2.96445 39.2807 2.96445C37.3325 2.96445 34.7792 3.63052 32.6835 6.41321L32.5433 6.16158L31.9455 5.10327L30.7648 5.3623C30.0859 5.51032 24.3743 7.12368 20.0573 20.297L19.157 19.3201L17.3195 17.3367L16.4119 19.89V19.8974ZM74.51 97.5166C74.51 97.5166 69.4551 89.0501 57.6333 87.4072C53.737 86.8669 50.4531 86.6671 47.7375 86.6671C47.1914 86.6671 46.6675 86.6745 46.1657 86.6893C47.2578 86.4821 48.4754 86.297 49.7742 86.1712C50.6155 86.0972 51.4936 86.0306 52.3939 86.0232C53.2868 86.001 54.2019 86.0232 55.1095 86.0676C56.0172 86.1268 56.9323 86.2082 57.8252 86.334C58.7181 86.4599 59.5962 86.6079 60.4375 86.8003C61.2787 86.9779 62.0905 87.1999 62.8506 87.4294C63.2269 87.5478 63.6033 87.6588 63.9575 87.7846C64.3117 87.9104 64.6511 88.0362 64.9758 88.1546C65.3079 88.273 65.6105 88.4137 65.9056 88.5321C66.2008 88.6579 66.4812 88.7615 66.7395 88.8873C67.2487 89.1315 67.7062 89.3313 68.0678 89.5238C68.791 89.9086 69.2042 90.1306 69.2042 90.1306C69.2042 90.1306 68.8205 89.8568 68.149 89.3832C67.8169 89.1389 67.3889 88.8873 66.9019 88.5691C66.6657 88.4063 66.3927 88.2656 66.1123 88.0954C65.8318 87.94 65.544 87.755 65.2267 87.5922C64.9094 87.4294 64.5847 87.2591 64.2453 87.0815C63.8984 86.9113 63.5368 86.7485 63.1679 86.5709C62.4226 86.2378 61.6256 85.8974 60.7843 85.6014C59.9431 85.2905 59.0575 85.0093 58.1499 84.7651C57.2422 84.5135 56.2976 84.3062 55.3531 84.1138C54.4085 83.9436 53.4492 83.7882 52.5046 83.692C51.56 83.581 50.6229 83.5218 49.7152 83.4847C48.0696 83.4181 46.5125 83.4699 45.1473 83.5736C48.2983 80.9981 52.8883 79.9916 55.4638 79.6216C55.6482 79.6734 55.8253 79.7178 56.0172 79.7622C56.6666 79.8954 57.3012 80.0656 57.9506 80.1544C58.5926 80.258 59.2199 80.369 59.8324 80.406C60.1423 80.4356 60.4375 80.4652 60.7327 80.4874C61.0278 80.517 61.3156 80.5096 61.5961 80.517C62.1569 80.517 62.6882 80.5614 63.1753 80.5096C63.6623 80.48 64.1124 80.4504 64.5035 80.4208C64.8947 80.369 65.2341 80.3024 65.5145 80.2654C66.0754 80.1766 66.3927 80.1248 66.3927 80.1248C66.3927 80.1248 66.068 80.1248 65.5071 80.1396C65.2267 80.1396 64.8873 80.1544 64.4962 80.1544C64.1051 80.1248 63.6697 80.0878 63.19 80.0508C62.7103 80.036 62.2012 79.9176 61.6625 79.8362C61.3968 79.7844 61.1164 79.7622 60.836 79.6882C60.5556 79.6216 60.2751 79.5549 59.98 79.4809C59.397 79.3625 58.814 79.1627 58.2237 78.9777C57.6259 78.8075 57.043 78.5558 56.4526 78.3412C55.8622 78.1192 55.294 77.8454 54.7258 77.6011C54.7037 77.5863 54.6815 77.5789 54.6594 77.5715C50.1137 74.2486 41.5019 66.6776 41.5019 56.8864C41.5019 51.247 43.0885 47.0286 45.4499 44.0387C45.6344 44.0239 45.8336 44.0091 46.0329 43.9943C46.5273 43.9499 47.066 43.9573 47.6416 43.9425C47.9294 43.9425 48.2172 43.9573 48.5197 43.9647C48.8223 43.9795 49.1322 43.9795 49.4422 44.0165C50.0694 44.0683 50.7114 44.1201 51.3682 44.2311C51.6929 44.2829 52.0249 44.3199 52.357 44.3865C52.6817 44.4605 53.0138 44.5271 53.3459 44.6011L53.8403 44.7048C54.0026 44.7418 54.165 44.7936 54.3273 44.838C54.652 44.9342 54.9767 45.023 55.294 45.1192C55.6187 45.2006 55.9287 45.319 56.2312 45.4374C56.5412 45.5484 56.8437 45.6669 57.1389 45.7779C57.4414 45.8815 57.7219 46.0147 58.0023 46.1479C58.2827 46.2811 58.5557 46.4069 58.8214 46.5253C59.3675 46.7548 59.8398 47.0508 60.2899 47.3024C60.5113 47.4282 60.7253 47.554 60.9319 47.6651C61.1385 47.7761 61.3304 47.8945 61.5001 48.0129C61.847 48.2497 62.1495 48.4569 62.4004 48.6272C62.9022 48.9676 63.1826 49.1674 63.1826 49.1674C63.1826 49.1674 62.9244 48.938 62.4668 48.5383C62.2381 48.3385 61.9576 48.0943 61.6403 47.8131C61.4854 47.6651 61.3083 47.5318 61.109 47.3912C60.9171 47.2506 60.7179 47.1026 60.5039 46.9472C60.0833 46.6438 59.6331 46.2811 59.1166 45.9851C58.8583 45.8297 58.6 45.6669 58.327 45.4966C58.0613 45.3264 57.7809 45.1562 57.4857 45.0156C57.1905 44.8676 56.8954 44.7122 56.5928 44.5567C56.2902 44.4013 55.9877 44.2385 55.663 44.1127C55.3457 43.9795 55.021 43.8389 54.6963 43.6982C54.5339 43.6316 54.3716 43.5576 54.2093 43.4984L53.7075 43.3282C53.3754 43.2098 53.0359 43.0988 52.7038 42.9804C52.3718 42.8694 52.0249 42.788 51.6855 42.6917C51.014 42.4919 50.3351 42.3587 49.6783 42.2181C49.3536 42.1441 49.0215 42.0997 48.7042 42.0479C48.505 42.0183 48.3057 41.9887 48.1139 41.9591C48.505 41.8037 48.933 41.6482 49.3905 41.4928C50.0104 41.2782 50.6893 41.071 51.4125 40.8786C52.1356 40.6861 52.9105 40.5085 53.7222 40.3679C54.5266 40.2125 55.3752 40.1163 56.2312 40.0349C57.0872 39.9757 57.9728 39.9313 58.8435 39.9683L59.5003 39.9905L60.1571 40.0423C60.5925 40.0645 61.0278 40.1459 61.4558 40.1977C61.8839 40.2569 62.3045 40.3531 62.7251 40.4345C63.1384 40.5307 63.5442 40.6417 63.9501 40.7453C64.3412 40.8786 64.7323 40.997 65.116 41.1302C65.485 41.2782 65.854 41.4262 66.2082 41.5668C66.555 41.7296 66.8871 41.8925 67.2192 42.0479C67.5439 42.2107 67.839 42.3957 68.1342 42.5585C68.4294 42.714 68.6951 42.899 68.9533 43.0692C69.2042 43.2394 69.4625 43.3948 69.6765 43.5576C70.1045 43.8981 70.503 44.1719 70.7982 44.4383C71.3959 44.9638 71.7354 45.2672 71.7354 45.2672C71.7354 45.2672 71.4254 44.9342 70.8867 44.3495C70.6137 44.0535 70.2521 43.7353 69.8462 43.3504C69.647 43.158 69.4035 42.9804 69.1673 42.7806C68.9238 42.5807 68.6729 42.3661 68.3851 42.1737C68.1047 41.9739 67.8169 41.7593 67.4996 41.5594C67.1823 41.367 66.8502 41.1672 66.5107 40.96C66.1565 40.775 65.7949 40.5825 65.426 40.3901C65.0496 40.2125 64.6511 40.0423 64.2526 39.8647C63.8468 39.7092 63.4335 39.5538 63.0055 39.4058C62.5775 39.28 62.1421 39.132 61.6994 39.021C61.2566 38.9174 60.8065 38.7915 60.3416 38.7175L59.6553 38.5917L58.9616 38.4955C58.0318 38.3623 57.0946 38.3105 56.1722 38.2883C55.9582 38.2883 55.7516 38.2883 55.5449 38.2883C56.1648 38.2069 56.7847 38.1625 57.3898 38.1625C63.0867 38.3475 68.3482 39.5686 73.167 45.4892C75.5136 48.3681 77.8086 50.9288 79.6535 52.9048C71.9641 55.6209 66.7838 56.7458 66.7838 56.7458C73.7204 57.0196 79.7125 55.9095 82.0371 55.3989C82.6938 56.0649 83.1735 56.546 83.4318 56.7976C83.1144 56.8494 82.7676 56.9012 82.3913 56.9604C82.0961 57.0048 81.7714 57.0492 81.4393 57.101C81.1072 57.1454 80.753 57.1898 80.3841 57.2416C79.6535 57.3527 78.8565 57.4193 78.0153 57.5303C77.5946 57.5673 77.1666 57.6117 76.7239 57.6487C76.2811 57.6857 75.8383 57.7449 75.3808 57.7671C74.9233 57.7967 74.4584 57.8337 73.9935 57.8633C73.5212 57.9003 73.0489 57.9003 72.5693 57.9299C72.0896 57.9521 71.6099 57.9817 71.1229 57.9891C70.6358 57.9891 70.1488 57.9965 69.6618 58.0039L68.9312 58.0187C68.6877 58.0187 68.4442 58.0039 68.2006 58.0039C67.7136 57.9891 67.2339 57.9817 66.7543 57.9743C65.7949 57.9743 64.8578 57.8707 63.9353 57.8411C63.7066 57.8263 63.4778 57.8263 63.2564 57.8041C63.035 57.7819 62.8137 57.7597 62.5923 57.7375C62.1495 57.7005 61.7215 57.6635 61.3009 57.6265C60.4891 57.5821 59.7364 57.4711 59.028 57.3823C59.5298 57.2934 60.0611 57.1898 60.6294 57.0788C61.2197 56.9678 61.8322 56.8272 62.4742 56.694C63.1088 56.546 63.7656 56.4054 64.4371 56.2425C65.1013 56.0797 65.7802 55.9169 66.4517 55.7319C67.1232 55.5543 67.7948 55.3767 68.4515 55.1768C68.7762 55.0806 69.1083 54.9844 69.4256 54.8956C69.7429 54.792 70.0603 54.6958 70.3702 54.5996C70.6801 54.5034 70.9827 54.4072 71.2852 54.3109C71.5804 54.2073 71.8682 54.1111 72.156 54.0149C72.7168 53.8225 73.2555 53.6375 73.7352 53.4525C74.2222 53.2674 74.665 53.0972 75.0635 52.9492C75.4546 52.7864 75.7941 52.6458 76.0745 52.5274C76.6353 52.2905 76.9526 52.1647 76.9526 52.1647C76.9526 52.1647 76.6206 52.2683 76.045 52.4534C75.7572 52.5422 75.4103 52.6532 75.0045 52.779C74.5986 52.89 74.1411 53.0232 73.6467 53.1564C73.1522 53.3044 72.6062 53.4302 72.0306 53.5783C71.7428 53.6523 71.4476 53.7263 71.145 53.8003C70.8425 53.8669 70.5325 53.9335 70.2152 54.0075C69.8979 54.0741 69.5806 54.1481 69.2559 54.2221C68.9312 54.2887 68.5991 54.3479 68.2671 54.4146C67.6029 54.5478 66.924 54.6662 66.2451 54.7846C65.5662 54.9104 64.8873 55.0066 64.2231 55.1102C63.5516 55.2138 62.8948 55.2952 62.2602 55.3841C61.6182 55.4581 61.0057 55.5395 60.4153 55.5987C59.8324 55.6579 59.2789 55.7171 58.7624 55.7615C57.7366 55.8577 56.888 55.9095 56.2903 55.9465C55.8253 55.9687 55.5228 55.9835 55.4121 55.9909C54.4159 55.3322 53.3163 55.1842 52.4308 55.3322C51.9438 55.4137 51.5231 55.5617 51.1837 55.7541C51.0066 55.8355 50.8664 55.9465 50.7262 56.0353C50.5933 56.1389 50.4826 56.2425 50.3793 56.324C50.1875 56.5164 50.0546 56.6792 49.9808 56.7976C49.8997 56.916 49.8554 56.9752 49.8554 56.9752C49.8554 56.9752 49.9218 56.9382 50.0399 56.8716C50.1506 56.7976 50.3424 56.7162 50.5638 56.6126C50.6819 56.5682 50.8073 56.5238 50.9476 56.4794C51.0951 56.4498 51.2353 56.3906 51.3977 56.3684C51.7224 56.3017 52.0914 56.2869 52.4677 56.324C52.8514 56.361 53.2499 56.4498 53.6337 56.62C54.0174 56.7902 54.3864 57.0344 54.6815 57.3304L54.8217 57.4785L54.8955 57.5525C54.8365 57.5007 54.8808 57.5451 54.8734 57.5377L54.8882 57.5599L54.9177 57.5895C54.9841 57.6783 55.0653 57.7597 55.1243 57.8559C55.1833 57.9521 55.2498 58.0409 55.3014 58.1445C55.3531 58.2407 55.4121 58.3444 55.449 58.448C55.6261 58.8624 55.722 59.3213 55.722 59.7801C55.722 60.239 55.6261 60.6904 55.449 61.1122C55.3678 61.3195 55.2424 61.5267 55.1464 61.6821L55.1095 61.7487L55.0431 61.8301L54.9103 61.9929L54.8808 62.0299L54.866 62.0521H54.8586C54.8586 62.0521 54.8586 62.0595 54.8586 62.0669L54.8217 62.1039L54.7037 62.2224C54.0764 62.8514 53.2352 63.1845 52.4677 63.2437C52.084 63.2733 51.715 63.2659 51.3977 63.1993C51.228 63.1771 51.0878 63.1179 50.9476 63.0882C50.8073 63.0438 50.6819 62.992 50.5638 62.955C50.3498 62.8514 50.158 62.77 50.0399 62.696C49.9144 62.6294 49.8554 62.5924 49.8554 62.5924C49.8554 62.5924 49.8997 62.6516 49.9808 62.77C50.0546 62.8884 50.1875 63.0438 50.3867 63.2437C50.49 63.3325 50.6007 63.4287 50.7335 63.5323C50.8664 63.6211 51.014 63.7321 51.1911 63.8135C51.5305 64.0059 51.9512 64.154 52.4382 64.2354C52.7776 64.2872 53.154 64.302 53.5451 64.2576C53.7001 64.4574 53.8698 64.6572 54.0543 64.8792C54.2609 65.1235 54.4749 65.3899 54.7184 65.6563C54.962 65.9153 55.2276 66.1966 55.4933 66.4778C55.7589 66.7664 56.0615 67.0551 56.3714 67.3437C56.6814 67.6323 57.0061 67.9431 57.3529 68.2392C57.7071 68.5278 58.0613 68.8312 58.4303 69.1347C58.8066 69.4307 59.2051 69.7119 59.611 70.008C60.4301 70.5778 61.2935 71.1403 62.2159 71.6435C62.6661 71.91 63.1457 72.1394 63.6254 72.3762C64.1051 72.613 64.5995 72.8128 65.0865 73.0349C65.5883 73.2273 66.0827 73.4197 66.5919 73.5973C66.7321 73.6417 66.8723 73.6861 67.0126 73.7305C66.6805 73.6639 66.3558 73.5973 66.0237 73.5233C65.5145 73.4197 65.0127 73.2717 64.5183 73.1385C64.0165 73.0127 63.5442 72.835 63.0719 72.687C62.5997 72.5464 62.1643 72.3466 61.7363 72.1912C61.3083 72.0358 60.9171 71.8507 60.5556 71.6879C60.194 71.5177 59.8545 71.3845 59.5667 71.2291C59.2789 71.0737 59.028 70.9479 58.8214 70.8368C58.4081 70.6148 58.1646 70.489 58.1646 70.489C58.1646 70.489 58.3639 70.6666 58.7255 70.9701C58.9026 71.1255 59.124 71.3105 59.3675 71.5325C59.6184 71.7545 59.9209 71.9618 60.2382 72.2134C60.5629 72.465 60.9098 72.7388 61.3009 72.9905C61.692 73.2495 62.0905 73.5529 62.5332 73.8046C62.976 74.0636 63.4262 74.3596 63.9058 74.6112C64.3855 74.8629 64.8651 75.1441 65.3669 75.3735C65.8687 75.6177 66.3705 75.8546 66.8797 76.0618C67.3815 76.2838 67.8907 76.4762 68.3777 76.6538C68.8722 76.8389 69.3592 76.9869 69.8167 77.1423C70.2816 77.2755 70.717 77.4161 71.1376 77.5197C71.4328 77.6011 71.7206 77.6677 71.9789 77.727C70.5252 79.2589 69.2264 79.6956 69.2264 79.6956C76.8567 90.5081 74.5469 97.5462 74.5469 97.5462L74.51 97.5166ZM82.62 57.7967C83.0111 57.6413 83.3506 57.4785 83.6605 57.3304C83.8376 61.0826 81.9633 70.9331 80.48 73.1237C80.3693 73.2791 80.2439 73.4271 80.1036 73.5529C79.2107 73.5751 77.9858 73.5677 76.5468 73.4493C75.7941 73.3901 74.9823 73.2939 74.1263 73.1607C73.2777 73.0423 72.3848 72.8499 71.4771 72.65C70.5694 72.4206 69.6396 72.1838 68.7098 71.8729C67.78 71.5769 66.8428 71.2291 65.9278 70.8516C65.4702 70.6518 65.0127 70.4668 64.5626 70.2522C64.1198 70.0302 63.6623 69.8451 63.2269 69.6083C63.0055 69.4973 62.7915 69.3789 62.5775 69.2679C62.3561 69.1643 62.1421 69.0459 61.9355 68.9275C61.5149 68.6906 61.0943 68.4686 60.6884 68.2244C60.2825 67.9801 59.884 67.7433 59.4929 67.5065C59.1092 67.2623 58.7328 67.0181 58.3639 66.7886C57.9949 66.5592 57.6554 66.3076 57.3086 66.0781C57.1389 65.9671 56.9692 65.8487 56.8068 65.7377C56.6445 65.6193 56.4895 65.5083 56.3345 65.3973C55.7073 64.9532 55.1317 64.5462 54.6373 64.1614C54.5561 64.1021 54.4823 64.0503 54.4085 63.9911C54.8439 63.8431 55.2793 63.6211 55.6778 63.3103L55.8696 63.1549L55.9656 63.0734L56.0689 62.9698L56.2165 62.8218L56.2903 62.7478L56.3788 62.6442C56.6223 62.3556 56.8068 62.0743 56.9544 61.7635C57.2643 61.1418 57.4267 60.4388 57.4341 59.7283C57.4341 59.188 57.3307 58.6552 57.1463 58.1519C57.6038 58.3222 58.113 58.4702 58.6443 58.6478C59.0059 58.7588 59.3896 58.8772 59.7807 59.003C59.9726 59.0696 60.1792 59.1214 60.3858 59.1658C60.5925 59.2102 60.7991 59.2621 61.0131 59.3139C61.4411 59.4101 61.8765 59.5063 62.3266 59.6025C62.548 59.6469 62.7768 59.6987 63.0055 59.7431C63.2343 59.7875 63.4704 59.8097 63.7066 59.8467C64.1789 59.9133 64.6585 59.9725 65.1456 60.0391C65.3891 60.0687 65.6326 60.0983 65.8835 60.1353C66.127 60.1649 66.3779 60.1649 66.6288 60.1871C67.1306 60.2167 67.6324 60.2463 68.1416 60.2686C68.3925 60.276 68.6508 60.2982 68.9017 60.2982H69.6691C70.1783 60.276 70.6875 60.2686 71.1967 60.2538C71.7059 60.2464 72.2077 60.1797 72.7095 60.1427C73.7131 60.0761 74.6872 59.9281 75.6243 59.7727C76.0966 59.7061 76.5541 59.6099 77.0043 59.5137C77.4544 59.4101 77.8898 59.3287 78.3178 59.2176C79.1591 58.9808 79.9561 58.781 80.6792 58.5294C81.0408 58.4036 81.3877 58.2926 81.7124 58.1741C82.0371 58.0483 82.3396 57.9225 82.6274 57.8115L82.62 57.7967ZM46.6822 36.1643C47.1914 36.8525 47.8113 37.4742 48.4976 38.0145C49.1912 38.5473 49.9292 39.0284 50.7335 39.4058C49.8923 39.1246 49.0879 38.7323 48.3352 38.2439C47.5752 37.7628 46.8741 37.1782 46.2838 36.4825C45.6934 35.7868 45.2137 34.9654 44.9555 34.0551C44.7046 33.1448 44.6603 32.1753 44.8153 31.2502L44.8743 30.9023L44.9628 30.5619C44.9924 30.4435 45.0145 30.3473 45.0588 30.2141L45.1621 29.8958C45.3023 29.474 45.4351 29.0595 45.6196 28.6303L45.8779 27.9938L46.1583 27.3796C46.3428 26.9651 46.5494 26.5655 46.756 26.1658L48.0179 23.8272C48.2319 23.4424 48.409 23.0575 48.6009 22.6653C48.7632 22.273 48.9477 21.8882 49.0732 21.4886C49.1396 21.2887 49.2281 21.0963 49.2724 20.8965L49.4274 20.297C49.4864 20.0972 49.4938 19.89 49.5381 19.6902C49.5676 19.483 49.6119 19.2831 49.6119 19.0759C49.634 18.6615 49.6635 18.247 49.6193 17.8326C49.6045 17.6254 49.6045 17.4181 49.5824 17.2109L49.4864 16.5893C49.4422 16.1748 49.3241 15.7604 49.2281 15.3459L49.0732 14.7021C49.0215 14.48 48.9625 14.2876 48.9182 14.0434C48.7263 13.0813 48.6747 12.1488 48.7559 11.2015C48.837 10.2616 49.051 9.32911 49.3905 8.45582C49.7299 7.58253 50.1727 6.76104 50.6893 5.99137C51.2132 5.22909 51.7888 4.51121 52.4382 3.86735C52.8293 3.47511 53.2352 3.11247 53.6632 2.75723C53.5303 2.73503 53.3975 2.71283 53.2573 2.69803C52.7629 2.63142 52.2685 2.58701 51.774 2.57221C50.7778 2.53521 49.7816 2.61662 48.8075 2.80904C48.564 2.86824 48.3205 2.92005 48.0843 2.99406C47.8408 3.06066 47.6121 3.14207 47.3759 3.23088L47.0291 3.3715L46.6896 3.53431C46.4682 3.64532 46.2469 3.76374 46.0329 3.89695L45.7155 4.10417L45.413 4.33359C45.2137 4.48901 45.0293 4.65923 44.8448 4.82945L44.5791 5.09587L44.3282 5.3845C44.1511 5.56952 44.0183 5.79154 43.8633 5.99877C43.9961 5.77674 44.1068 5.53992 44.2544 5.3327L44.4684 5.01446L44.7119 4.71103C44.8743 4.51121 45.0588 4.31879 45.2433 4.14118L45.5311 3.87475L45.8336 3.63052C46.6601 2.98666 47.6342 2.54261 48.6452 2.23918C48.8961 2.17257 49.1544 2.09856 49.4126 2.04676C49.6709 1.98755 49.9292 1.95055 50.1875 1.91355C50.704 1.83954 51.2353 1.79513 51.7593 1.78033C52.2832 1.76553 52.8072 1.78033 53.3311 1.81734C53.5968 1.83954 53.855 1.86174 54.1133 1.89874C54.379 1.93575 54.6299 1.97275 54.9103 2.03196L55.936 2.24658L55.0726 2.90525C54.4159 3.4011 53.7739 4.00796 53.2057 4.62963C52.6301 5.25869 52.0987 5.93216 51.6486 6.65003C51.1984 7.36791 50.8147 8.11539 50.5343 8.90727C50.2613 9.69175 50.0694 10.5058 50.0104 11.3273C49.944 12.1414 50.0104 12.9999 50.1653 13.7696C50.2022 13.9694 50.2686 14.1914 50.3203 14.406L50.4826 15.0499C50.5933 15.4939 50.7114 15.9454 50.7631 16.4116L50.8664 17.0999C50.8885 17.3293 50.8959 17.5662 50.9033 17.803C50.9476 18.2692 50.9033 18.7429 50.8738 19.2165C50.8738 19.4534 50.8147 19.6828 50.7852 19.9196C50.7409 20.149 50.7188 20.3932 50.6524 20.6153L50.4679 21.2961C50.4089 21.5256 50.3129 21.7402 50.2391 21.9622C50.0915 22.4063 49.8775 22.8133 49.6857 23.2351C49.4717 23.6348 49.2724 24.0492 49.0437 24.4341L47.7154 26.7357C47.5087 27.1205 47.28 27.4906 47.0955 27.8828L46.8003 28.4601L46.5347 29.0447C46.3502 29.4222 46.1952 29.844 46.0402 30.2585L45.9222 30.5693C45.8926 30.6433 45.8631 30.7617 45.8336 30.8579C45.7672 31.0577 45.7155 31.2576 45.6713 31.4574C45.4794 32.2641 45.4646 33.1078 45.6344 33.9218C45.8115 34.7359 46.1804 35.513 46.6749 36.2013L46.6822 36.1643ZM30.4918 6.71664L31.2297 6.27259L30.9124 7.10148C30.7722 7.46412 30.6541 7.88596 30.5361 8.2856C30.418 8.69264 30.3073 9.09969 30.2114 9.51413C30.0048 10.3356 29.8276 11.1645 29.6653 11.9934C29.348 13.6586 29.1045 15.3385 28.9643 17.0185C28.8167 18.7059 28.7576 20.3932 28.8167 22.0806C28.8757 23.768 29.038 25.448 29.348 27.0983C29.503 27.9272 29.6948 28.7413 29.9236 29.548C30.1523 30.3547 30.4106 31.154 30.7206 31.931C31.0305 32.7081 31.3773 33.4704 31.7684 34.2179C32.1522 34.9654 32.5949 35.6758 33.0672 36.3715C34.0044 37.7628 35.1335 39.0358 36.3806 40.1755C37.0004 40.7453 37.6646 41.2782 38.3509 41.7815C39.0298 42.2921 39.753 42.7435 40.4762 43.195C39.7087 42.8176 38.9412 42.4401 38.218 41.9739C37.4875 41.5298 36.7791 41.034 36.1075 40.4937C35.7681 40.2273 35.4434 39.9461 35.1187 39.6574C34.8088 39.3614 34.4841 39.0654 34.1889 38.7545C33.5838 38.1329 33.0156 37.4816 32.499 36.7785C31.9824 36.0829 31.4954 35.3576 31.0748 34.6027C30.6468 33.8478 30.2557 33.0634 29.9162 32.2641C29.5767 31.4648 29.2889 30.6433 29.0307 29.807C28.7724 28.9781 28.5658 28.127 28.4034 27.276C28.0787 25.5738 27.8721 23.842 27.8278 22.1102C27.7835 20.3784 27.85 18.6467 28.0197 16.9297C28.2042 15.2127 28.4846 13.5105 28.8609 11.8232C29.0528 10.9795 29.2668 10.1506 29.5103 9.32171C29.6727 8.75925 29.8424 8.21159 30.0416 7.66394C30.0048 7.68614 29.9605 7.71574 29.9236 7.73795C29.6432 7.91556 29.3627 8.10058 29.0897 8.2856C28.5362 8.66304 28.0049 9.07008 27.4958 9.49933C26.9866 9.93597 26.4921 10.3874 26.042 10.8907C25.5919 11.3865 25.1712 11.912 24.8096 12.4892C25.1122 11.8824 25.4738 11.3051 25.8944 10.7649C26.315 10.2246 26.7652 9.71395 27.2596 9.2403C27.7467 8.76665 28.2632 8.31521 28.8019 7.89336C29.0749 7.68614 29.348 7.47892 29.6284 7.2865C29.9088 7.08668 30.1892 6.90166 30.4918 6.71664ZM44.8817 36.9044C45.2506 37.1856 45.568 37.378 45.7893 37.5038C46.0107 37.6296 46.1362 37.6888 46.1362 37.6888C46.1362 37.6888 46.0033 37.674 45.7524 37.6148C45.627 37.5778 45.472 37.5482 45.2949 37.4816C45.2064 37.452 45.1104 37.4224 45.0071 37.3854C44.9112 37.341 44.8005 37.2966 44.6898 37.2522C44.2397 37.0672 43.7157 36.7785 43.1475 36.3789C42.6088 35.9571 41.9889 35.4464 41.4798 34.7433C40.9263 34.0699 40.4983 33.2188 40.1219 32.2863C40.0334 32.0494 39.9743 31.8052 39.9006 31.561C39.8341 31.3168 39.7456 31.0651 39.6939 30.8061C39.6497 30.5471 39.6054 30.2881 39.5685 30.029C39.5463 29.8958 39.5242 29.7626 39.5094 29.6294L39.4799 29.4296V29.2298C39.4504 28.6969 39.4061 28.1418 39.4209 27.5942C39.4357 27.3204 39.4578 27.0465 39.4725 26.7653L39.5021 26.3509L39.5168 26.1436V26.04L39.5316 25.9882V25.9734V25.9364V25.9142C39.6128 25.3888 39.6939 24.8559 39.7751 24.3231C39.8784 23.7754 40.0112 23.2129 40.1293 22.6579C40.2769 22.1176 40.4319 21.5774 40.5942 21.0445C40.7713 20.5191 40.9484 19.9862 41.1551 19.483C41.251 19.2313 41.3543 18.9797 41.4502 18.7281C41.5535 18.4839 41.6569 18.2396 41.7602 17.9954C41.9594 17.5218 42.1587 17.0481 42.3579 16.5819C42.7416 15.6716 43.0368 14.7983 43.2434 13.9546C43.3984 13.1109 43.5017 12.2894 43.4648 11.5123C43.4574 11.1275 43.4501 10.7501 43.3984 10.3948C43.3541 10.0396 43.3246 9.69175 43.273 9.37352C43.2065 9.05528 43.1401 8.75925 43.0958 8.47802C43.0442 8.19679 42.9999 7.93777 42.9335 7.71574C42.808 7.2569 42.7343 6.89426 42.6678 6.64263C42.6088 6.39101 42.5793 6.25779 42.5793 6.25779C42.5793 6.25779 42.6457 6.37621 42.7712 6.59823C42.8892 6.82025 43.0811 7.15329 43.3025 7.58253C43.5312 8.00437 43.7379 8.55203 44.0035 9.1811C44.2101 9.82496 44.4832 10.5502 44.6086 11.4013C44.7784 12.245 44.7931 13.1923 44.7119 14.1914C44.5865 15.1831 44.3356 16.2044 44.0035 17.1961C43.6714 18.1804 43.2951 19.1647 42.9556 20.1416C42.7712 20.6301 42.6383 21.1333 42.4686 21.6292C42.321 22.1324 42.1882 22.6357 42.048 23.1389C41.9373 23.6422 41.8118 24.1306 41.7085 24.6413C41.6126 25.1741 41.5166 25.6996 41.4281 26.2251C41.3986 26.4693 41.3764 26.7061 41.3543 26.9503C41.3248 27.202 41.2953 27.4462 41.2657 27.6904C41.2289 27.9346 41.251 28.1789 41.2362 28.4231C41.2362 28.6673 41.2215 28.9041 41.2141 29.1484C41.2141 29.622 41.2805 30.0808 41.3026 30.5471C41.3691 30.9985 41.4576 31.4278 41.5388 31.857C41.7749 32.6859 42.0406 33.4704 42.4317 34.1217C42.5276 34.2845 42.6088 34.4621 42.7121 34.6101C42.8154 34.7581 42.9187 34.9061 43.0221 35.0542C43.118 35.2022 43.2287 35.3354 43.3394 35.4612C43.4501 35.587 43.5534 35.7128 43.6567 35.8312C44.0994 36.2753 44.5127 36.6675 44.8964 36.934L44.8817 36.9044ZM33.0082 43.676C32.3588 43.5132 31.6577 43.3208 30.9419 43.0544C30.2188 42.7954 29.4734 42.4771 28.7207 42.0997C28.3444 41.9073 27.968 41.7074 27.5917 41.4854C27.2153 41.2708 26.8464 41.0266 26.4774 40.7823C26.1084 40.5307 25.7542 40.2643 25.3926 39.9905C25.0532 39.6944 24.6916 39.428 24.3595 39.1098C24.0274 38.7989 23.6953 38.4955 23.3928 38.1625C23.2378 37.9997 23.0829 37.8368 22.9279 37.674C22.7877 37.5038 22.6401 37.3336 22.4999 37.1634C22.2047 36.8303 21.9464 36.4677 21.6955 36.1199C21.4299 35.772 21.2085 35.402 20.9797 35.0468C20.7436 34.6915 20.5517 34.3215 20.3598 33.9662C20.1606 33.611 19.9909 33.2558 19.8359 32.9005C19.4965 32.2049 19.2751 31.5092 19.0463 30.8875C18.8544 30.2437 18.67 29.6664 18.5666 29.1335C18.4486 28.6081 18.3453 28.1492 18.3084 27.7644C18.2051 26.9947 18.1608 26.5581 18.1608 26.5581C18.1608 26.5581 18.3379 26.9651 18.6183 27.6756C18.7438 28.0308 18.9578 28.4527 19.157 28.9337C19.2603 29.178 19.371 29.4296 19.5112 29.696C19.6367 29.9624 19.7695 30.2363 19.9097 30.5249C20.0499 30.8135 20.2196 31.1022 20.3894 31.4056C20.4779 31.5536 20.5517 31.7164 20.6403 31.8644C20.7288 32.0124 20.8248 32.1679 20.9207 32.3233C21.1125 32.6341 21.297 32.9597 21.5184 33.2706C21.7398 33.5814 21.9317 33.9218 22.1826 34.2327C22.6475 34.8691 23.1493 35.513 23.7027 36.1273C23.8429 36.2827 23.9758 36.4381 24.116 36.5861L24.5514 37.0302C24.8392 37.3336 25.1491 37.6148 25.4517 37.8961C25.7542 38.1921 26.0863 38.4437 26.3962 38.7175C26.7283 38.9692 27.0456 39.243 27.3777 39.4798C28.0418 39.9683 28.7207 40.4197 29.3996 40.8268C30.0785 41.2338 30.7501 41.6038 31.4068 41.9221C32.0562 42.2477 32.6909 42.5363 33.2812 42.7806C33.879 43.0174 34.425 43.232 34.9194 43.4096C35.4139 43.5798 35.8493 43.7279 36.2182 43.8389C36.5798 43.9499 36.8676 44.0313 37.0669 44.0831C37.2661 44.1349 37.3694 44.1645 37.3694 44.1645C37.3694 44.1645 36.9267 44.2089 36.1592 44.1645C35.3917 44.1275 34.2848 44.0017 32.986 43.6834L33.0082 43.676ZM39.4209 40.6417C39.1036 40.3753 38.7272 40.0423 38.3287 39.6204C37.9303 39.1986 37.5022 38.7027 37.0816 38.1255C36.6684 37.5408 36.233 36.8969 35.8493 36.1643C35.4655 35.439 35.0892 34.6471 34.794 33.796C34.4767 32.9523 34.2258 32.0569 34.0192 31.1318C33.8273 30.2067 33.6723 29.2594 33.5985 28.3047C33.5543 27.831 33.5321 27.35 33.5247 26.8763C33.4952 26.4027 33.5247 25.929 33.5247 25.4554C33.5247 24.9817 33.569 24.5229 33.6059 24.064C33.6354 23.6052 33.6945 23.1537 33.7609 22.7171C33.8199 22.273 33.8789 21.8438 33.9675 21.422C34.0561 21.0001 34.1151 20.5931 34.2184 20.1934C34.3143 19.8012 34.4176 19.4163 34.5062 19.0463C34.6021 18.6763 34.7202 18.3284 34.8235 17.988C34.9342 17.655 35.0228 17.3293 35.1335 17.0259C35.2441 16.7225 35.3548 16.4412 35.4581 16.1748C35.5615 15.9084 35.65 15.6568 35.7459 15.4273C35.8493 15.1979 35.9378 14.9907 36.019 14.8057C36.3584 14.0582 36.5651 13.6364 36.5651 13.6364C36.5651 13.6364 36.4913 14.1026 36.3289 14.9019C36.292 15.1017 36.2477 15.3237 36.1961 15.5606C36.1592 15.8048 36.1075 16.0638 36.0559 16.3376C35.9526 16.8927 35.8419 17.5144 35.7386 18.2026C35.6205 18.8835 35.5393 19.6236 35.436 20.4007C35.3844 20.7929 35.3548 21.1925 35.3106 21.5996C35.2884 21.8068 35.2663 22.014 35.2515 22.2212C35.2368 22.4285 35.222 22.6431 35.2146 22.8503C35.1851 23.2721 35.1482 23.7088 35.1482 24.1454C35.1408 24.5821 35.1113 25.0261 35.1261 25.4702C35.1261 25.9142 35.1261 26.3657 35.1556 26.8097C35.1703 27.2612 35.1925 27.7052 35.2368 28.1566C35.2589 28.3787 35.2663 28.6081 35.2958 28.8301L35.3844 29.4962C35.436 29.9402 35.5172 30.3769 35.5836 30.8135C35.6648 31.2502 35.7533 31.672 35.8493 32.1013C35.9599 32.5157 36.0485 32.9375 36.174 33.3372C36.4027 34.1513 36.6831 34.9135 36.9635 35.6314C37.2513 36.3493 37.5687 37.008 37.8786 37.6148C38.2033 38.2143 38.5206 38.7545 38.8232 39.2208C39.1331 39.6796 39.4135 40.0793 39.657 40.4049C39.9079 40.7231 40.1072 40.9674 40.2548 41.1302C40.4024 41.293 40.4835 41.3744 40.4835 41.3744C40.4835 41.3744 40.0703 41.1524 39.4283 40.6269L39.4209 40.6417Z" fill="#A4F40F"/>
<path d="M82.2216 60.5422C82.2216 60.5422 82.1256 60.5644 81.9559 60.6014C81.7788 60.6384 81.5279 60.6902 81.2032 60.7568C80.8785 60.8234 80.48 60.8826 80.0299 60.9788C79.5723 61.0454 79.0705 61.149 78.5097 61.2304C78.2293 61.2748 77.9415 61.3192 77.6463 61.3637C77.3438 61.4007 77.0338 61.4451 76.7165 61.4821C76.0819 61.5783 75.4103 61.6227 74.7167 61.7115C74.023 61.7633 73.3072 61.8299 72.5766 61.8669C71.8461 61.8817 71.1081 61.9483 70.3702 61.9261C70.0012 61.9261 69.6323 61.9261 69.2633 61.9261C68.8943 61.9187 68.5327 61.8965 68.1638 61.8817C67.8022 61.8669 67.4406 61.8521 67.0864 61.8373C66.7321 61.8003 66.3779 61.7707 66.0385 61.7337C65.6916 61.6967 65.3522 61.6745 65.0201 61.6375C64.688 61.5857 64.3707 61.5339 64.0534 61.4895C63.7361 61.4451 63.4262 61.4007 63.131 61.3562C62.8358 61.3118 62.5554 61.2378 62.275 61.186C61.7289 61.0602 61.2197 60.9714 60.777 60.8752C60.3416 60.7494 59.9505 60.6458 59.6331 60.5644C58.9911 60.3941 58.6148 60.3127 58.6148 60.3127C58.6148 60.3127 58.9395 60.5052 59.5298 60.8308C59.825 60.9862 60.1792 61.186 60.5998 61.4007C61.0279 61.5857 61.5149 61.7781 62.061 61.9853C62.334 62.0815 62.6071 62.2073 62.9096 62.2961C63.2122 62.3776 63.5221 62.4664 63.8394 62.5552C64.1567 62.6366 64.4888 62.7254 64.8283 62.8142C64.9685 62.8438 65.1161 62.8734 65.2636 62.8956C65.1382 64.0427 64.8947 65.8189 64.4593 67.4545C63.8394 67.1732 63.2417 66.892 62.6882 66.596C62.1274 66.2926 61.6035 65.9891 61.1312 65.7005C60.895 65.5451 60.6736 65.4045 60.4596 65.2639C60.253 65.1158 60.0538 64.9752 59.8693 64.8494C59.4929 64.5904 59.1978 64.324 58.9321 64.1315C58.4303 63.7023 58.1425 63.4581 58.1425 63.4581C58.1425 63.4581 58.2015 63.5321 58.3048 63.6727C58.4155 63.8133 58.5631 64.0279 58.7845 64.2869C59.0133 64.5312 59.2642 64.8494 59.611 65.1676C59.7807 65.3305 59.9578 65.5007 60.1497 65.6783C60.3489 65.8485 60.563 66.0261 60.7843 66.2111C61.2345 66.5664 61.7363 66.9438 62.2971 67.2917C62.8506 67.6469 63.4557 68.0021 64.0977 68.3278C64.7397 68.6534 65.4112 68.9716 66.1123 69.2529C66.8133 69.5267 67.5365 69.7931 68.2597 70.0299C68.9903 70.252 69.7282 70.4592 70.4588 70.6368C71.1893 70.8218 71.9125 70.955 72.6135 71.0883C74.023 71.3399 75.3439 71.4879 76.4804 71.5619C77.6168 71.6433 78.5687 71.6433 79.2329 71.6285C79.897 71.6137 80.2734 71.5767 80.2734 71.5767C80.2734 71.5767 79.7126 71.4953 78.7754 71.3399C79.2772 69.8005 80.3988 65.9965 80.9892 61.1934C81.0925 61.149 81.1958 61.0972 81.2917 61.0528C81.5943 60.9196 81.8304 60.7938 81.9854 60.7124C82.1478 60.631 82.2289 60.5792 82.2289 60.5792L82.2216 60.5422ZM67.2561 63.1768C67.5291 63.2064 67.8022 63.2286 68.0826 63.2508C68.3335 63.2656 68.5918 63.2878 68.85 63.31C68.6582 64.8346 68.3261 66.892 67.7726 68.7126C67.3373 68.5646 66.9019 68.4166 66.4739 68.2538C66.3706 68.2094 66.2599 68.1724 66.1566 68.1279C66.5034 66.9808 66.9535 65.2491 67.2635 63.1842L67.2561 63.1768ZM71.3517 63.3175C71.7944 63.2952 72.2372 63.2582 72.68 63.2286C72.7907 63.2286 72.894 63.2064 72.9973 63.199C72.7611 65.064 72.3331 67.6617 71.5804 69.8301C71.2853 69.7561 70.9901 69.6747 70.6949 69.6007C70.4366 69.5341 70.1783 69.4601 69.9127 69.3861C70.3333 68.0687 70.931 65.9299 71.3443 63.3249L71.3517 63.3175ZM75.8826 62.755C76.2368 62.6884 76.5837 62.6144 76.9084 62.5182C77.1667 62.4516 77.4102 62.3924 77.6537 62.3257C77.388 64.583 76.8272 68.0909 75.7498 70.7552C75.4325 70.6886 75.1004 70.6294 74.761 70.5628C74.5248 70.5184 74.2887 70.4592 74.0452 70.4074C74.547 68.9346 75.3661 66.1889 75.8826 62.755Z" fill="#A4F40F"/>
<path d="M70.2816 86.6817C69.9938 86.5337 69.6617 86.3635 69.3149 86.171C68.9755 85.9712 68.5696 85.8084 68.1637 85.6086C67.7579 85.4014 67.3077 85.2311 66.8502 85.0387C66.6214 84.9499 66.3927 84.8389 66.1491 84.7575C65.9056 84.6761 65.6621 84.5873 65.4186 84.4985C64.9315 84.3061 64.4224 84.1654 63.9206 83.9952C63.4188 83.825 62.9022 83.6992 62.4078 83.5512C61.8986 83.4328 61.4116 83.2773 60.9245 83.1737C60.4375 83.0701 59.9726 82.9443 59.5224 82.8555C59.0723 82.7667 58.6516 82.6779 58.2532 82.5965C57.8547 82.5225 57.4931 82.4559 57.1758 82.3892C56.8511 82.33 56.5707 82.2856 56.3419 82.2412C55.877 82.1598 55.6113 82.1154 55.6113 82.1154C55.6113 82.1154 56.6961 81.9526 58.327 82.0266C58.7328 82.0414 59.1756 82.0636 59.6405 82.1228C60.1054 82.1672 60.5998 82.2338 61.1016 82.3152C61.6034 82.3967 62.1274 82.5003 62.6513 82.6187C63.1679 82.7593 63.7066 82.8851 64.2231 83.0479C64.7397 83.2255 65.271 83.3736 65.7654 83.5956C66.2672 83.7954 66.7543 84.0026 67.2118 84.2394C67.4405 84.3579 67.6693 84.4615 67.8907 84.5799C68.1121 84.6909 68.3113 84.8315 68.5106 84.9499C68.909 85.2015 69.3002 85.4162 69.6175 85.6826C69.9495 85.9268 70.2447 86.1636 70.503 86.3709C70.7539 86.5929 70.9531 86.8001 71.1303 86.9629C71.4697 87.296 71.6542 87.4958 71.6542 87.4958C71.6542 87.4958 71.4107 87.3626 71.0122 87.1183C70.8129 86.9925 70.5694 86.8445 70.289 86.6743L70.2816 86.6817Z" fill="#A4F40F"/>
<path d="M49.6485 71.244C49.2278 70.9184 48.7998 70.4965 48.3275 70.0377C48.0914 69.8083 47.87 69.5492 47.6191 69.2902C47.501 69.157 47.3756 69.0238 47.2575 68.8906C47.1395 68.75 47.0288 68.6019 46.9107 68.4539C46.431 67.8693 45.9735 67.2106 45.5307 66.5001C45.0954 65.7897 44.6821 65.0274 44.3353 64.2281C44.1582 63.8284 43.9811 63.4214 43.8409 62.9996C43.7671 62.7923 43.6933 62.5777 43.6195 62.3705L43.4276 61.7266C43.2948 61.2974 43.2136 60.8607 43.1103 60.4315C43.0217 59.9949 42.9553 59.5582 42.8889 59.129C42.8373 58.6923 42.7782 58.2631 42.7635 57.8338C42.7487 57.6192 42.7413 57.4046 42.7266 57.1974C42.7266 56.9827 42.7266 56.7755 42.7266 56.5683C42.7266 55.7394 42.7782 54.9327 42.8668 54.1779C42.9479 53.423 43.0955 52.7199 43.2431 52.076C43.5457 50.7957 43.9294 49.767 44.2467 49.0713C44.5567 48.3757 44.7928 48.0056 44.7928 48.0056C44.7928 48.0056 44.6895 48.4275 44.5567 49.1675C44.4902 49.5376 44.4238 49.989 44.35 50.4997C44.2836 51.0103 44.2246 51.595 44.1729 52.2241C44.1287 52.8531 44.0991 53.5414 44.0991 54.2593C44.0918 54.9771 44.1213 55.732 44.1803 56.5091C44.232 57.2862 44.3427 58.0781 44.4755 58.8847C44.6231 59.684 44.7928 60.4907 45.0216 61.2826L45.1913 61.8746L45.3905 62.4593C45.516 62.8515 45.6636 63.229 45.8112 63.6064C46.1137 64.3613 46.4458 65.0866 46.8 65.7822C47.1616 66.4705 47.5306 67.1292 47.9143 67.7361C48.0102 67.8915 48.0988 68.0395 48.1947 68.1875C48.2906 68.3281 48.394 68.4761 48.4899 68.6167C48.6818 68.898 48.8589 69.1792 49.0507 69.4308C49.4418 69.9267 49.7665 70.4151 50.106 70.8074C50.4381 71.207 50.7037 71.577 50.962 71.8509C51.4564 72.4133 51.7295 72.7612 51.7295 72.7612C51.7295 72.7612 51.3679 72.5317 50.7406 72.0951C50.4233 71.8805 50.0691 71.5918 49.6558 71.2514L49.6485 71.244Z" fill="#A4F40F"/>
</svg>
