<svg width="100" height="100" viewBox="0 0 100 100" fill="none" xmlns="http://www.w3.org/2000/svg">
<path d="M77.0731 48.7391C77.083 48.6842 77.0972 48.631 77.103 48.5752C77.1246 48.3582 77.2668 46.8902 77.3367 44.6472C77.4631 42.6711 77.5222 40.1718 77.3508 37.4231C77.2244 35.4004 76.9807 33.4784 76.6314 31.6569C75.8388 26.4273 74.2711 20.9722 71.2803 16.8769C67.6466 11.9017 63.9406 10.7698 61.2351 9.94389C60.0616 9.58543 59.0486 9.27605 58.271 8.73379C55.2611 6.63459 50.3699 6.32104 47.7209 6.32104C44.8441 6.32104 42.0313 6.67453 39.8024 7.31576C38.4509 7.705 33.7027 9.14383 29.3197 11.3237C24.2721 13.8346 21.6141 16.3862 21.194 19.1241C20.9894 20.4557 20.2559 22.3287 19.4059 24.4977C17.3741 29.6858 14.5904 36.791 16.6438 43.6267C16.8002 44.149 17.1529 44.5798 17.6161 44.8409C17.9089 47.6521 18.5817 49.8328 19.173 51.7506C19.9681 54.3281 20.542 56.1902 19.9748 58.7036C18.9343 63.3129 21.1608 65.4129 22.9506 67.1004C24.5142 68.575 25.9921 69.9689 26.215 73.5402C26.3048 74.9707 26.3605 76.1351 26.4096 77.1614C26.6774 82.7213 26.8479 83.5313 30.3843 86.1562C31.3939 86.9047 32.372 87.7339 33.3168 88.5356C35.6289 90.4968 37.813 92.349 40.4394 93.1116C41.3385 93.3719 42.1303 93.5 42.8605 93.5C44.1588 93.5 45.0395 93.095 45.6824 92.7989C46.2081 92.5577 46.4967 92.4247 47.088 92.4247C47.6793 92.4247 47.9688 92.5577 48.4936 92.7989C49.1365 93.0941 50.0164 93.5 51.3155 93.5C52.0457 93.5 52.8375 93.3728 53.7357 93.1116C56.3631 92.349 58.5471 90.4968 60.8592 88.5356C61.804 87.7339 62.7821 86.9047 63.7909 86.1562C67.3281 83.5322 67.4978 82.7213 67.7656 77.1614C67.8155 76.1351 67.8712 74.9699 67.9602 73.5402C67.9793 73.2383 68.0101 72.9564 68.0467 72.6844C68.0791 72.4898 68.1082 72.306 68.134 72.1321C68.6131 69.5714 69.8856 68.3637 71.2246 67.1004C71.6496 66.6995 72.0987 66.2745 72.5229 65.7996C72.6892 67.7791 73.6174 69.3069 74.8791 70.2692C76.945 71.846 75.6625 73.1268 77.9397 75.2726C80.216 77.4184 79.0292 68.7272 77.7875 67.1553C76.8693 65.9942 77.6028 64.1263 77.9389 61.3966C78.0154 61.9863 78.1168 62.645 78.2624 63.3861C79.312 68.7488 80.7533 64.2053 82.5872 69.1888C83.8813 72.7052 84.1774 68.4037 84.3421 64.4007C84.5067 60.3978 80.9521 59.5611 80.4472 54.3355C80.2094 51.8521 78.6466 50 77.0731 48.7391ZM56.4945 89.3024C56.3414 89.0979 56.1709 88.885 55.9655 88.6712C55.8333 88.5323 55.6877 88.3968 55.5347 88.2662L55.2976 88.0757L55.2827 88.0641L55.2794 88.0607C55.2744 88.0549 55.3193 88.1023 55.2993 88.0815L55.2976 88.0799L55.291 88.074L55.2644 88.0516L55.2112 88.0067L55.1039 87.9169L54.9625 87.7713L54.8219 87.5792C54.7363 87.442 54.6606 87.2956 54.5982 87.1459C54.4734 86.844 54.3978 86.5346 54.3504 86.2643C54.2572 85.7229 54.2655 85.3461 54.2655 85.3461C54.2655 85.3461 54.1574 85.7037 54.1 86.2734C54.0734 86.5587 54.0618 86.8972 54.1067 87.269C54.13 87.4553 54.169 87.6482 54.2273 87.8462C54.2597 87.9443 54.2996 88.0424 54.3379 88.1422C54.3894 88.2445 54.4502 88.3552 54.51 88.455L54.5891 88.5706L54.6281 88.628L54.6481 88.6562L54.6531 88.6637L54.6539 88.6654L54.6772 88.6895L54.6789 88.6928L54.688 88.7061L54.8352 88.9099C54.9284 89.0488 55.0132 89.1885 55.0881 89.3282C55.2203 89.5736 55.3201 89.8115 55.3999 90.0277C54.6597 90.4751 53.9112 90.8328 53.1394 91.0565C52.3884 91.2752 51.802 91.3592 51.3155 91.3592C49.5856 91.3592 49.124 90.2847 47.088 90.2847C45.052 90.2847 44.5913 91.3592 42.8605 91.3592C42.374 91.3592 41.7868 91.2744 41.0366 91.0565C39.9404 90.7388 38.8917 90.1508 37.8479 89.4172C37.8545 89.3698 37.8604 89.3216 37.8678 89.27C37.9028 89.023 37.9485 88.7361 38.0117 88.4367C38.0749 88.1389 38.1564 87.8212 38.2671 87.5509C38.3136 87.432 38.4076 87.2848 38.4974 87.1201C38.5856 86.9612 38.6604 86.8099 38.7336 86.6602C38.8775 86.3633 39.0006 86.0838 39.1037 85.8434C39.3092 85.3635 39.4331 85.04 39.4331 85.04C39.4331 85.04 39.221 85.3145 38.8892 85.7129C38.7237 85.9117 38.5274 86.1412 38.312 86.3774C38.2047 86.4938 38.0899 86.6161 37.976 86.7275C37.8678 86.8373 37.7339 86.9471 37.5926 87.1159C37.3705 87.3879 37.2041 87.6649 37.0536 87.9327C36.9638 87.8304 36.8681 87.7223 36.7634 87.6058C36.2028 86.9837 35.4351 86.1753 34.6226 85.4176C33.8108 84.6583 32.9517 83.9555 32.278 83.4731C31.9387 83.2353 31.6551 83.0406 31.4472 82.9192C31.2434 82.7928 31.127 82.7196 31.127 82.7196C31.127 82.7196 31.2276 82.8119 31.4047 82.9741C31.5852 83.1305 31.8273 83.3716 32.1134 83.6636C32.6806 84.2516 33.3809 85.0816 34.0238 85.9524C34.2583 86.2693 34.4812 86.5886 34.6958 86.903C33.7243 86.0788 32.7213 85.228 31.6568 84.4379C28.5296 82.1183 28.8149 82.1915 28.4655 75.4755C28.4456 75.2485 28.4256 75.0173 28.4065 74.7861C28.3716 74.3511 28.3408 73.9194 28.3175 73.5186C28.6078 74.0716 28.9596 74.6805 29.3397 75.2651C29.8694 76.0818 30.4466 76.8478 30.8999 77.3976C31.1211 77.677 31.3191 77.8983 31.453 78.0546C31.5877 78.211 31.6642 78.2992 31.6642 78.2992C31.6642 78.2992 31.6318 78.1861 31.5736 77.9881C31.517 77.791 31.4305 77.5115 31.3465 77.1714C31.1669 76.4952 30.9681 75.5887 30.8359 74.6879C30.8242 74.6089 30.8159 74.5316 30.8051 74.4534C31.2293 75.1013 31.7258 75.7242 32.2281 76.3871C32.5783 76.852 32.9467 77.3419 33.2095 77.8242C33.331 78.0322 33.4083 78.2958 33.3983 78.3233C33.3983 78.3291 33.395 78.3582 33.395 78.3582L33.3925 78.374L33.3858 78.4356C33.3809 78.473 33.3759 78.5803 33.3767 78.6493C33.38 78.7965 33.3983 78.9786 33.4856 79.1857C33.5696 79.3936 33.7426 79.5883 33.8982 79.6964C34.0529 79.8062 34.1843 79.8619 34.2999 79.9085C34.7423 80.0673 35.0359 80.1197 35.3578 80.2212C35.6713 80.3127 35.9757 80.4208 36.2801 80.5464C36.5837 80.6711 36.8848 80.8184 37.185 80.9781L37.6483 81.2384C37.8046 81.3273 37.9701 81.4197 38.1623 81.5161C39.5894 82.2306 41.0956 82.7154 42.6667 83.0955C44.2361 83.4681 45.8654 83.6985 47.523 83.7501C49.1772 83.8 50.8805 83.6569 52.519 83.0797C52.7227 83.0065 52.9257 82.9284 53.1244 82.8369L53.6675 82.5907C54.021 82.4277 54.3387 82.2971 54.683 82.1549C55.3584 81.8771 56.032 81.6509 56.6899 81.492C57.3578 81.3282 57.9566 81.2525 58.6502 81.2317C58.8274 81.2226 59.0228 81.2167 59.2598 81.1876C59.4927 81.1602 59.7863 81.0995 60.0657 80.9647C60.6371 80.6844 60.9465 80.2744 61.1752 79.9534C61.6401 79.2514 61.992 78.5603 62.283 77.8883C62.2623 77.9623 62.244 78.0363 62.2215 78.1095C62.0834 78.5087 61.947 78.9021 61.8156 79.2822C61.6593 79.6565 61.5079 80.0191 61.3648 80.3626C61.2185 80.7069 61.0471 81.0163 60.9049 81.3132C60.7585 81.6076 60.6288 81.8829 60.4874 82.1091C60.3527 82.3412 60.2346 82.5441 60.1381 82.7113C59.9427 83.0465 59.8312 83.2386 59.8312 83.2386C59.8312 83.2386 59.9884 83.083 60.2645 82.8102C60.4034 82.6739 60.5714 82.5067 60.7652 82.3154C60.9656 82.1283 61.1636 81.8954 61.3881 81.6442C61.6077 81.3889 61.863 81.1244 62.1034 80.82C62.3429 80.5123 62.5941 80.1871 62.8553 79.8511C63.0964 79.496 63.346 79.13 63.5996 78.7583C63.83 78.3873 64.0521 78.0006 64.2791 77.6122C64.1011 78.4987 63.8433 79.387 63.4308 80.1164L63.38 80.2062L63.3667 80.2287C63.3884 80.2037 63.3634 80.2387 63.3634 80.2387L63.3276 80.2911L63.1879 80.4998C63.0948 80.6379 63.0008 80.7843 62.911 80.9048C62.7305 81.1585 62.5484 81.4138 62.3471 81.6708C61.9578 82.1848 61.5495 82.6822 61.1528 83.1612C60.3544 84.1177 59.5776 84.9935 58.9055 85.7378C57.5574 87.2257 56.6234 88.1905 56.6234 88.1905C56.6234 88.1905 57.7121 87.4079 59.3097 86.1745C60.1073 85.5573 61.033 84.8288 62.0061 84.0129C62.491 83.6037 62.9925 83.177 63.489 82.7188C63.7377 82.4967 63.9905 82.2514 64.245 82.0019C64.3773 81.8763 64.487 81.7573 64.6051 81.6359L64.7798 81.4546L64.823 81.4097C64.8363 81.3939 64.8239 81.4122 64.858 81.3689L64.8813 81.3415L64.9761 81.2275C65.1125 81.0637 65.2372 80.8965 65.3553 80.7269C65.0734 82.4901 64.443 83.0099 62.5143 84.4404C60.3394 86.0547 58.4215 87.9202 56.4945 89.3024ZM59.0012 76.7855C59.0752 77.0059 59.0378 77.1314 58.9396 77.4691C58.8756 77.6895 58.8457 77.7145 58.6793 77.8534C58.6377 77.8883 58.5887 77.929 58.5313 77.9789C58.4323 78.0679 58.3608 78.0588 58.1695 77.9806C58.2102 77.8259 58.2352 77.6529 58.2377 77.4425C58.2443 76.9427 58.1753 76.5983 58.0323 76.3954C58.1437 76.2815 58.2876 76.2058 58.4207 76.1559C58.4897 76.1301 58.5496 76.1318 58.6078 76.1592C58.6893 76.1991 58.8481 76.3322 59.0012 76.7855ZM56.1718 80.3285C56.1476 80.4399 56.0919 80.6944 56.0437 80.8366C55.9963 80.8084 55.9389 80.7709 55.8882 80.7385C55.7434 80.6445 55.563 80.5281 55.3226 80.4033C55.3035 80.3934 55.291 80.3701 55.2818 80.3393C55.4241 80.0998 55.5056 79.8511 55.4598 79.3238C55.459 79.3072 55.4557 79.2939 55.454 79.2772C55.4706 79.2165 55.4873 79.1558 55.5064 79.0892C55.6187 79.0418 55.7351 78.9445 55.8474 78.7782C55.9813 78.8348 56.1909 78.9129 56.3905 78.9445C56.3872 79.2573 56.3073 79.7072 56.1718 80.3285ZM54.3429 81.0462C54.2522 81.3989 54.1532 81.4729 54.1258 81.487C54.0501 81.5236 53.8763 81.4554 53.7208 81.3947C53.6667 81.3731 53.611 81.354 53.5552 81.334C53.6417 80.9331 53.6758 80.509 53.6467 80.138C53.6318 79.9434 53.5993 79.7804 53.5594 79.6332C53.5594 79.6324 53.5594 79.6324 53.5602 79.6315C53.7806 79.7371 54.0185 79.8278 54.1832 79.8278C54.1982 79.8278 54.2123 79.827 54.2256 79.8253C54.4601 79.7987 54.718 79.575 54.8934 79.298C54.8968 79.3238 54.9043 79.3438 54.9067 79.3712C54.9475 79.8436 54.8735 79.955 54.7396 80.158C54.6231 80.3326 54.4651 80.5722 54.3429 81.0462ZM36.6702 78.6817C36.6511 78.463 36.6619 78.2459 36.6877 78.0438C36.8033 78.1361 36.9164 78.1711 37.027 78.1711C37.0445 78.1711 37.0619 78.1644 37.0794 78.1628C37.0445 78.3881 37.032 78.6285 37.0228 78.8522C37.0179 78.9753 37.0104 79.0976 37.0021 79.2173C36.7184 79.2049 36.7068 79.1067 36.6702 78.6817ZM36.4831 77.2213C36.4049 76.9235 36.3716 76.7996 36.4523 76.5867C36.6195 76.1467 36.7833 76.0186 36.8673 75.982C36.8973 75.9679 36.928 75.9621 36.9596 75.9621C36.9912 75.9621 37.0237 75.9687 37.0586 75.982C37.1892 76.032 37.3289 76.1093 37.4362 76.2208C37.215 76.5135 37.2033 77.0358 37.1992 77.2421C37.195 77.4483 37.2141 77.618 37.2499 77.7694C37.0536 77.8434 36.9779 77.8509 36.8831 77.7627C36.8274 77.712 36.7792 77.6704 36.7384 77.6355C36.5779 77.4957 36.5488 77.4699 36.4831 77.2213ZM37.7938 76.3638L37.8454 76.3513C38.0009 76.3122 38.1248 76.2806 38.2396 76.2806C38.2529 76.2806 38.2654 76.284 38.2787 76.2848C38.1781 76.496 38.1631 76.7647 38.1523 77.0292C38.1465 77.1739 38.1406 77.3186 38.119 77.4475C38.0774 77.6887 38.0999 77.8941 38.1556 78.0688C37.9776 78.0821 37.808 78.0796 37.7589 78.0388C37.5992 77.8642 37.5368 77.6355 37.5451 77.247C37.5593 76.4819 37.7389 76.3788 37.7938 76.3638ZM40.4927 76.3247C40.2348 76.6824 40.2448 77.455 40.2823 78.2293C40.2872 78.3391 40.2914 78.4289 40.2922 78.5004C40.259 78.5412 40.1583 78.6177 40.0685 78.6127C39.9937 78.6035 39.799 78.5195 39.6285 77.924C39.4131 77.1697 39.4713 76.4902 39.7699 76.2731C39.9645 76.1318 40.2382 76.1991 40.4927 76.3247ZM43.441 76.5967C44.4116 76.5967 44.4981 76.7331 44.5472 76.9618C44.5372 77.0258 44.5355 77.0932 44.5439 77.1647C44.5663 77.3552 44.548 77.5099 44.5272 77.6895C44.4948 77.9532 44.4598 78.2526 44.5463 78.715C44.553 78.7483 44.558 78.7832 44.5638 78.8173C44.5339 79.1766 44.489 79.4685 44.4307 79.5608C44.301 79.7663 43.8693 79.96 43.4452 79.9434C43.2356 79.9293 42.9603 79.8577 42.8331 79.5874C42.4854 78.8456 42.423 78.6809 42.5536 77.9066C42.5694 77.8159 42.5827 77.7261 42.596 77.6388C42.7058 76.8969 42.7773 76.5967 43.441 76.5967ZM47.3001 77.3527C47.7534 77.5922 47.602 78.2584 47.3566 79.1034C47.2618 79.4302 47.1803 79.7114 47.1687 79.9442C47.1645 80.0374 47.1288 80.079 47.098 80.1031C46.8659 80.2969 46.1449 80.1963 45.7573 80.1422L45.6142 80.1231C45.2907 80.0806 45.1951 79.6374 45.0869 78.9662C45.0686 78.8506 45.0495 78.7358 45.0287 78.6235C44.9564 78.2343 44.9855 77.9864 45.0138 77.7461C45.037 77.5539 45.0603 77.3544 45.0312 77.1057C45.0179 76.9976 45.0528 76.9643 45.0886 76.9402C45.1726 76.8836 45.314 76.8562 45.4936 76.8562C45.9777 76.857 46.7262 77.0499 47.3001 77.3527ZM49.9199 76.8736C50.1137 76.8736 50.2667 76.9019 50.3532 76.9643C50.3807 76.9834 50.4248 77.0159 50.4065 77.1381C50.369 77.391 50.3857 77.5939 50.4023 77.7902C50.4231 78.0355 50.4447 78.29 50.3591 78.6859C50.3341 78.8007 50.3117 78.9179 50.2892 79.036C50.1586 79.7188 50.0488 80.1696 49.7236 80.2071L49.5798 80.2245C49.1947 80.2703 48.4744 80.3568 48.2482 80.1605C48.2183 80.1339 48.1833 80.0906 48.1817 79.9933C48.1783 79.7571 48.1052 79.4677 48.022 79.1342C47.9954 79.0261 47.9696 78.9221 47.9463 78.8206C48.0677 78.3515 48.1501 77.845 47.9995 77.445C48.0378 77.4051 48.0835 77.3702 48.1384 77.3419C48.7056 77.0533 49.4367 76.8736 49.9199 76.8736ZM52.8267 77.7294C52.8367 77.8184 52.8475 77.9107 52.86 78.0039C52.9656 78.7982 52.8982 78.9645 52.5248 79.7163C52.3859 79.995 52.1031 80.0615 51.8894 80.0682C51.5051 80.0831 51.0718 79.8977 50.9354 79.6606C50.8789 79.5642 50.8423 79.2689 50.8231 78.9088C50.8306 78.8697 50.8381 78.8306 50.8464 78.7915C50.9479 78.3224 50.9221 78.0172 50.8997 77.7486C50.8839 77.5648 50.8705 77.4067 50.8997 77.2113C50.9105 77.1389 50.9105 77.0699 50.903 77.0042C50.9595 76.7697 51.0477 76.6274 52.0208 76.6499C52.6703 76.664 52.7352 76.9385 52.8267 77.7294ZM55.691 76.3929C55.988 76.6183 56.0245 77.3136 55.7817 78.0862C55.6495 78.5087 55.4756 78.7682 55.3176 78.7815C55.2303 78.7882 55.1346 78.7058 55.103 78.6634C55.1072 78.5902 55.1138 78.4979 55.123 78.3848C55.1854 77.5964 55.2211 76.8079 54.9733 76.4378C55.2835 76.2931 55.5339 76.2732 55.691 76.3929ZM56.7997 76.4761C56.9386 76.5942 56.9411 76.9077 56.9436 77.2104C56.9452 77.3685 56.9461 77.5332 56.9669 77.6829C57.0317 78.1603 56.7947 78.4538 56.5943 78.6094C56.5153 78.6385 56.1959 78.547 56.0096 78.4738C56.0462 78.389 56.0811 78.2958 56.1144 78.1894C56.3281 77.509 56.3406 76.8961 56.1709 76.4869C56.2458 76.4603 56.3273 76.4386 56.4163 76.4253C56.5968 76.3971 56.7248 76.4145 56.7997 76.4761ZM58.3774 78.6817C58.3416 79.1067 58.3308 79.204 58.0456 79.2182C58.0372 79.0984 58.0298 78.977 58.0248 78.8539C58.0181 78.6934 58.0106 78.5237 57.994 78.3582C58.0081 78.3391 58.0248 78.3216 58.0373 78.3016C58.1445 78.3466 58.2601 78.3898 58.3849 78.3906C58.3874 78.4871 58.3857 78.5844 58.3774 78.6817ZM57.6181 76.5177L57.6696 76.5326C57.7237 76.5476 57.8983 76.6566 57.8875 77.4392C57.8825 77.8359 57.8127 78.0696 57.648 78.2451C57.5989 78.2858 57.4301 78.285 57.2538 78.2676C57.3145 78.0921 57.3444 77.8825 57.3112 77.6363C57.2929 77.5041 57.292 77.356 57.2912 77.2071C57.2896 76.9377 57.2829 76.6632 57.1881 76.4461C57.3178 76.4378 57.4492 76.4703 57.6181 76.5177ZM54.6548 76.5917C54.8993 76.7996 54.8119 77.8916 54.7753 78.3574C54.7645 78.4954 54.7554 78.611 54.7529 78.6901C54.7412 79.0527 54.3562 79.4602 54.1848 79.4793C54.0584 79.5018 53.6625 79.3088 53.3215 79.1109C53.4205 78.7715 53.4222 78.4638 53.3531 77.9382C53.3407 77.8484 53.3307 77.7594 53.3207 77.6729C53.2866 77.3801 53.2467 77.0741 53.1353 76.8121C53.1552 76.6782 53.1835 76.5792 53.2192 76.5368C53.27 76.4761 53.4164 76.4037 53.6783 76.3813C54.0584 76.3497 54.4759 76.4387 54.6548 76.5917ZM42.3166 76.7322C42.1993 76.9859 42.1502 77.282 42.1078 77.5656C42.0945 77.6504 42.082 77.7369 42.0671 77.8259C41.9806 78.3391 41.9731 78.6401 42.0604 78.9753C41.7111 79.1616 41.2952 79.3255 41.1805 79.3213C41.01 79.2989 40.639 78.8922 40.639 78.5395C40.639 78.4613 40.6332 78.3491 40.6266 78.2127C40.6049 77.7552 40.5526 76.6848 40.8046 76.4861C40.9759 76.3505 41.2944 76.2881 41.5905 76.2881C41.8833 76.2881 42.1561 76.3488 42.245 76.4594C42.2775 76.4985 42.3008 76.5967 42.3166 76.7322ZM39.2975 78.0189C39.3275 78.1228 39.3599 78.2135 39.3923 78.2975C39.2035 78.3657 38.8875 78.4538 38.8093 78.4239C38.6047 78.2626 38.3777 77.9723 38.4575 77.5065C38.4825 77.3593 38.4891 77.1988 38.4958 77.0441C38.5074 76.7489 38.5199 76.4428 38.6621 76.3297C38.7128 76.2889 38.7869 76.2681 38.8842 76.2681C38.9349 76.2681 38.9906 76.274 39.053 76.2856C39.1403 76.3014 39.2202 76.3231 39.2934 76.3497C39.1129 76.7472 39.1062 77.3485 39.2975 78.0189ZM37.6 79.6531C37.541 79.5933 37.5443 79.4519 37.5518 79.3729C37.5659 79.214 37.5726 79.0435 37.5801 78.8764C37.5876 78.6842 37.5975 78.5038 37.6142 78.3499C37.7073 78.3973 37.8329 78.4214 38.0009 78.4214C38.0408 78.4214 38.0841 78.4197 38.129 78.4173C38.1381 78.4164 38.1606 78.4148 38.188 78.4131C38.0641 78.7358 38.0874 79.1641 38.1864 79.723C37.9577 79.7372 37.689 79.7455 37.6 79.6531ZM38.6704 78.73C38.7253 78.7516 38.7869 78.7657 38.8576 78.7657C39.0347 78.7657 39.2451 78.7092 39.4106 78.6518C39.4115 78.6551 39.4123 78.6584 39.414 78.6626C39.4847 78.8905 39.5437 79.0926 39.5936 79.2764C39.5919 79.293 39.5886 79.3072 39.5878 79.3238C39.542 79.8511 39.6235 80.0998 39.7658 80.3393C39.7566 80.3701 39.7441 80.3934 39.7258 80.4033C39.4855 80.5281 39.305 80.6445 39.1603 80.7385C39.1096 80.7709 39.0522 80.8084 39.0039 80.8366C38.9557 80.6944 38.9 80.4391 38.8759 80.3285C38.7062 79.5484 38.6197 79.0319 38.6704 78.73ZM40.3089 80.1588C40.175 79.9559 40.1009 79.8445 40.1425 79.372C40.1583 79.1957 40.1949 79.0543 40.2373 78.9304C40.2798 78.9171 40.3222 78.9055 40.3621 78.883C40.506 79.2764 40.8561 79.6257 41.1356 79.6623C41.1514 79.6648 41.1688 79.6656 41.1863 79.6656C41.2686 79.6656 41.3684 79.6448 41.4757 79.6116C41.4799 79.6199 41.4849 79.6274 41.4899 79.634C41.45 79.7821 41.4175 79.9451 41.4025 80.1389C41.3734 80.509 41.4075 80.9331 41.4932 81.3348C41.4375 81.3548 41.3817 81.3739 41.3277 81.3955C41.173 81.4554 40.9967 81.5253 40.9235 81.4879C40.8952 81.4729 40.7971 81.3989 40.7064 81.0471C40.5833 80.5722 40.4245 80.3326 40.3089 80.1588ZM41.9564 80.1813C41.9997 79.6191 42.1494 79.4868 42.1951 79.4602C42.2051 79.4544 42.2209 79.4569 42.2326 79.4535C42.2775 79.5583 42.3274 79.6689 42.3873 79.7962C42.5586 80.1605 42.9179 80.3859 43.3753 80.4266C43.3745 80.4948 43.367 80.5589 43.3712 80.6312C43.4011 81.1585 43.456 81.5935 43.5741 81.986C43.4926 82.154 43.3928 82.2963 43.2672 82.3761C43.1957 82.421 42.9769 82.5599 42.5145 82.2281C42.2001 82.0043 41.8882 81.062 41.9564 80.1813ZM43.9267 80.5996C43.9226 80.5223 43.9276 80.4582 43.9292 80.3892C44.2877 80.3085 44.6079 80.1272 44.7917 79.8935C44.8516 80.0648 44.9322 80.2162 45.0412 80.3376C44.9198 80.637 44.8757 81.0213 44.9256 81.5186C44.9614 81.8771 45.0512 82.1923 45.1759 82.4651C44.9722 82.5608 44.7717 82.6215 44.6229 82.6015C44.5364 82.589 44.4756 82.5524 44.4249 82.4834C44.3684 82.4061 44.3185 82.327 44.2744 82.248C44.0373 81.8155 43.9667 81.3165 43.9267 80.5996ZM45.4803 81.4637C45.4437 81.0986 45.4654 80.815 45.5336 80.6063C45.5402 80.6071 45.5452 80.6104 45.5519 80.6113L45.6916 80.6304C45.9561 80.667 46.2671 80.7111 46.564 80.7111C46.7944 80.7111 47.0131 80.6819 47.1978 80.6063C47.1994 80.6212 47.2003 80.6354 47.2028 80.6504C47.2127 80.7468 47.2261 80.8591 47.2427 80.9797C47.0822 82.0676 46.7661 82.9309 46.5773 82.9309C45.9985 82.9159 45.5677 82.3403 45.4803 81.4637ZM47.755 80.5863L47.7534 80.5763C47.7334 80.4358 47.7392 80.3817 47.7334 80.3784C47.7442 80.3717 47.7633 80.3668 47.785 80.3609C47.8216 80.425 47.8656 80.484 47.923 80.5339C48.1426 80.726 48.4794 80.7826 48.8304 80.7826C49.0757 80.7826 49.3253 80.7551 49.5515 80.7285C49.5906 80.9223 49.5981 81.1677 49.5681 81.4646C49.4808 82.3412 49.0508 82.9167 48.4736 82.9309H48.4719C48.2607 82.93 47.8889 81.8513 47.755 80.5863ZM50.1212 81.5195C50.1578 81.1568 50.1453 80.8541 50.0912 80.598C50.315 80.4749 50.4597 80.2545 50.5603 79.9891C50.6884 80.1646 50.8847 80.3102 51.1184 80.4117C51.1201 80.474 51.125 80.5314 51.1209 80.6004C51.0801 81.3165 51.0103 81.8164 50.7716 82.2497C50.7275 82.3295 50.6784 82.406 50.6219 82.4842C50.5703 82.5533 50.5096 82.5899 50.4239 82.6023C50.2726 82.6206 50.0729 82.5616 49.87 82.4668C49.9956 82.1923 50.0854 81.8771 50.1212 81.5195ZM51.6773 80.6312C51.6789 80.6046 51.6748 80.5813 51.6756 80.5555C51.733 80.5613 51.7912 80.5655 51.8494 80.5655C51.8677 80.5655 51.886 80.5655 51.9043 80.5647C52.39 80.5497 52.7785 80.321 52.9689 79.9376C52.993 79.8894 53.0113 79.8494 53.0338 79.8045C53.0579 79.9018 53.0795 80.0233 53.0912 80.1813C53.1585 81.062 52.8467 82.0043 52.5331 82.2281C52.0707 82.5591 51.8519 82.421 51.7804 82.3761C51.6548 82.2963 51.555 82.154 51.4735 81.986C51.5925 81.5935 51.6473 81.1585 51.6773 80.6312ZM56.9394 78.7632C56.9868 78.715 57.0359 78.6618 57.0816 78.5986C57.164 78.6102 57.2338 78.616 57.2638 78.6185C57.3253 78.6235 57.3819 78.6268 57.4351 78.6268C57.4426 78.6268 57.4492 78.6252 57.4567 78.6252C57.4609 78.7067 57.4659 78.789 57.4692 78.8772C57.4759 79.0444 57.4833 79.2132 57.4975 79.3729C57.505 79.4519 57.5083 79.5933 57.4484 79.6531C57.3586 79.7455 57.0891 79.7388 56.8621 79.7247C56.9278 79.3471 56.9619 79.0294 56.9394 78.7632ZM31.1411 71.8319C31.1469 71.8311 31.1494 71.8294 31.1561 71.8286C31.3158 71.7912 31.5603 71.7546 31.8589 71.7246C32.0061 71.7196 32.1724 71.698 32.3421 71.7046C32.5159 71.7005 32.6972 71.7072 32.8843 71.7255C33.0773 71.7313 33.2594 71.777 33.4599 71.8044C33.647 71.8535 33.8499 71.8935 34.0362 71.965C34.2209 72.0398 34.4205 72.1047 34.5876 72.212C34.6766 72.2611 34.7656 72.3101 34.853 72.3592C34.932 72.4199 35.0101 72.4798 35.0867 72.5397C35.253 72.6528 35.3836 72.7925 35.5092 72.9297C35.5732 72.9988 35.6364 73.0661 35.6971 73.131C35.6988 73.1343 35.7013 73.1368 35.7038 73.1402C35.6888 73.3755 35.6672 73.6242 35.6381 73.9012C35.609 74.2688 35.5724 74.6572 35.6597 75.1562C35.7079 75.4024 35.8111 75.7167 36.0564 75.9887C36.1196 76.0586 36.1887 76.1184 36.2594 76.1725C36.2136 76.2598 36.1712 76.3571 36.1296 76.4661C36.0098 76.7821 36.0656 76.9926 36.1587 77.3452C36.1778 77.4184 36.197 77.4766 36.2178 77.5282C36.1146 77.9357 36.0855 78.3965 36.1138 78.7316C36.1163 78.7591 36.1213 78.7799 36.1246 78.8065C36.014 78.7715 35.9034 78.7358 35.7936 78.7058C35.4734 78.6152 35.1274 78.5378 34.917 78.4713L34.9187 78.4297C34.9336 78.0862 34.853 77.8451 34.7781 77.6363C34.6974 77.4325 34.6068 77.2579 34.5145 77.0965C34.1385 76.4636 33.736 75.9779 33.3576 75.5038C32.6041 74.5715 31.8971 73.7523 31.4538 73.0187C31.4081 72.9356 31.3632 72.8524 31.3183 72.7717C31.2966 72.7318 31.2717 72.6686 31.2484 72.6187C31.2409 72.607 31.2234 72.553 31.2101 72.5222C31.1611 72.375 31.1311 72.2186 31.1253 72.0573C31.1245 71.9816 31.1378 71.9068 31.1411 71.8319ZM34.9145 78.6052C34.9153 78.5961 34.9137 78.5969 34.9128 78.5911C34.917 78.6102 34.9162 78.6185 34.9145 78.6052ZM59.6541 78.8339C59.4836 79.0585 59.3214 79.1882 59.2557 79.2099C59.2158 79.2331 59.0611 79.2539 58.824 79.2622C58.8756 79.1225 58.9139 78.952 58.933 78.7291C58.9488 78.547 58.9455 78.3274 58.9255 78.0995C59.1043 77.9482 59.1883 77.86 59.2831 77.5331C59.3779 77.2104 59.4403 76.9967 59.3322 76.674C59.2332 76.3796 59.1151 76.1683 58.9796 76.0211C59.027 75.9954 59.0752 75.9762 59.1209 75.9471C59.3513 75.7999 59.5476 75.6136 59.7023 75.4256C59.8528 75.2368 59.9818 75.0614 60.099 74.8011C60.2263 74.5133 60.2678 74.2313 60.2595 73.9652C60.2537 73.7007 60.2013 73.472 60.1539 73.2824C60.1015 73.0836 60.0716 72.9713 60.0333 72.78C59.9842 72.5646 59.9177 72.3767 59.8179 72.1762C59.8645 72.0922 59.9144 72.0099 59.9792 71.9317C60.0258 71.8693 60.0724 71.8061 60.1198 71.7421L60.2911 71.5708C60.3968 71.4518 60.5365 71.357 60.6612 71.2597C60.9257 71.0742 61.211 70.927 61.4954 70.8222C61.6352 70.7673 61.7732 70.7233 61.9079 70.6875C61.9154 70.685 61.9237 70.6833 61.9312 70.6808C61.9462 70.7133 61.9603 70.7407 61.9761 70.7731C62.1192 71.0792 62.2714 71.4219 62.4003 71.7862C62.4627 71.965 62.5201 72.1571 62.5425 72.3118C62.5517 72.4091 62.5517 72.3708 62.54 72.439C62.5209 72.5214 62.4951 72.6195 62.4627 72.7293C62.2049 73.5968 61.7965 74.6064 61.3557 75.6677C60.885 76.7173 60.3635 77.8717 59.6541 78.8339ZM72.3041 53.6419C72.2334 54.1027 72.1744 54.5077 72.1686 54.8462C72.1236 55.5207 72.0979 55.905 72.0979 55.905C72.0979 55.905 72.0862 55.519 72.0654 54.8445C72.0446 54.5069 72.0721 54.0977 72.1078 53.6236C72.1278 53.3883 72.1311 53.1329 72.1677 52.8709C72.2093 52.609 72.2542 52.3328 72.3 52.0451C72.3391 51.7556 72.4073 51.4604 72.4796 51.1552C72.5536 50.8508 72.6127 50.5289 72.7067 50.2095C72.8056 49.8427 72.9121 49.4635 73.0235 49.0809C73.1483 49.2622 73.2123 49.3695 73.2148 49.3737C73.2498 49.4377 73.2897 49.4968 73.3304 49.555C73.2439 49.8128 73.1591 50.069 73.0793 50.3168C72.972 50.6287 72.8996 50.9398 72.8123 51.2367C72.7266 51.5336 72.6468 51.8222 72.5944 52.1041C72.5345 52.3852 72.4763 52.6539 72.4214 52.91C72.3632 53.1662 72.3424 53.4124 72.3041 53.6419ZM25.6261 35.2898C25.9372 35.0943 26.3098 34.8357 26.7631 34.5936C27.2089 34.3325 27.7253 34.0655 28.2992 33.7936C28.8739 33.5249 29.5035 33.2421 30.1863 32.9893C30.8691 32.739 31.5894 32.4604 32.357 32.2583C33.118 32.0245 33.9148 31.8249 34.7315 31.6478C35.5441 31.4507 36.3883 31.3534 37.2241 31.2078C38.0658 31.1039 38.9116 31.0323 39.7425 30.96C40.5758 30.9225 41.3976 30.9259 42.1902 30.9076C42.9836 30.9217 43.7487 30.9799 44.4732 31.0224C45.1976 31.0498 45.8771 31.182 46.5033 31.2602C47.1288 31.3484 47.7026 31.4207 48.2033 31.5488C48.7056 31.6561 49.1398 31.7667 49.4974 31.8541C50.2118 32.0304 50.6144 32.1493 50.6144 32.1493C50.6144 32.1493 50.1902 32.1676 49.4575 32.1693C49.0916 32.1693 48.6474 32.1734 48.1418 32.1585C47.6369 32.1352 47.063 32.1792 46.4434 32.1792C46.134 32.1842 45.8105 32.19 45.477 32.1959C45.1435 32.1975 44.8 32.1917 44.4457 32.2192C43.7379 32.2583 42.9936 32.2948 42.2259 32.319C41.4591 32.3805 40.6682 32.4604 39.8647 32.5103C39.0655 32.6042 38.2529 32.7007 37.4404 32.7955C37.0362 32.8562 36.6319 32.9169 36.2294 32.9777C35.8269 33.0375 35.4235 33.0891 35.0301 33.1723C34.635 33.2496 34.2417 33.3178 33.8524 33.3827C33.4615 33.4442 33.0848 33.5449 32.7088 33.6222C31.957 33.7802 31.2359 33.9557 30.5506 34.1246C30.2038 34.1994 29.8811 34.3125 29.5584 34.3932C29.2382 34.4822 28.9213 34.5521 28.6286 34.6485C28.0397 34.8332 27.4908 34.987 27.0134 35.1509C26.531 35.3047 26.1177 35.4553 25.7709 35.5725C25.4324 35.7039 25.1562 35.7938 24.9766 35.8695C24.7928 35.9418 24.6946 35.9801 24.6946 35.9801C24.6946 35.9801 25.0124 35.7048 25.6261 35.2898ZM49.8842 12.1005C50.7849 12.1986 51.6274 12.3575 52.4 12.5097C53.9461 12.8291 55.2028 13.2158 56.0645 13.531C56.9269 13.8446 57.3952 14.0791 57.3952 14.0791C57.3952 14.0791 56.887 13.9543 55.9929 13.7963C55.5472 13.714 55.0024 13.6325 54.3795 13.541C53.7565 13.4495 53.0496 13.3788 52.2828 13.2956C51.5126 13.2307 50.6809 13.1684 49.8001 13.1309C48.9194 13.0919 47.9904 13.0894 47.0323 13.1019C46.0733 13.106 45.0861 13.1867 44.0839 13.2557C43.0834 13.3397 42.0696 13.4595 41.0649 13.63C40.5625 13.7131 40.0569 13.7838 39.5612 13.892C39.0622 13.9859 38.5673 14.0899 38.0808 14.2138C37.5917 14.3261 37.1102 14.4534 36.6344 14.5814C36.1562 14.7004 35.6913 14.8434 35.2347 14.9881C34.7739 15.1204 34.3323 15.2834 33.8957 15.4322C33.4565 15.577 33.0307 15.7275 32.6232 15.8947C31.7981 16.2041 31.0371 16.5434 30.3236 16.8428C29.9751 17.0083 29.6399 17.1672 29.3222 17.3169C29.0003 17.4633 28.6959 17.6038 28.4198 17.7527C27.8659 18.0512 27.3586 18.2758 26.9677 18.5062C26.1726 18.9453 25.7076 19.189 25.7076 19.189C25.7076 19.189 26.1035 18.8514 26.8163 18.2742C27.1689 17.9789 27.628 17.667 28.1487 17.2944C28.666 16.9177 29.2864 16.5467 29.9576 16.1317C30.6454 15.7466 31.3873 15.315 32.2123 14.9391C32.6182 14.7353 33.0432 14.5457 33.4832 14.3627C33.9181 14.1672 34.3731 13.9918 34.8405 13.8279C35.3054 13.6558 35.7795 13.4844 36.2685 13.3372C36.5122 13.2599 36.7567 13.1825 37.0029 13.1052C37.2532 13.0403 37.5044 12.9754 37.7564 12.9097C38.2596 12.7733 38.7719 12.6569 39.2884 12.5504C39.8024 12.4315 40.3255 12.3467 40.847 12.256C41.8941 12.0955 42.9478 11.9874 43.9866 11.9167C45.0262 11.8501 46.0517 11.8468 47.0414 11.8793C48.0311 11.9026 48.9851 11.9924 49.8842 12.1005ZM46.8418 14.9141C47.3076 14.9075 47.7567 14.974 48.1808 15.0039C48.6058 15.0297 49.0051 15.0996 49.3718 15.162C49.7386 15.2235 50.0746 15.2742 50.3674 15.3483C50.6618 15.4189 50.9155 15.4896 51.1242 15.5445C51.5417 15.6601 51.7763 15.7333 51.7763 15.7333C51.7763 15.7333 51.5267 15.7366 51.0968 15.7267C50.883 15.7192 50.6227 15.7092 50.325 15.7001C50.028 15.6851 49.6904 15.7025 49.3261 15.6917C48.9618 15.6876 48.5676 15.6793 48.1509 15.6942C47.7342 15.7117 47.2968 15.7001 46.8443 15.7292C46.3919 15.7558 45.9253 15.7691 45.4521 15.8082C44.9788 15.8489 44.4973 15.8689 44.0191 15.9354C43.5392 15.9803 43.0593 16.0278 42.5902 16.1018C42.1195 16.1633 41.6562 16.2282 41.2096 16.3022C40.7621 16.3804 40.3305 16.4544 39.9205 16.5251C39.5146 16.6149 39.1237 16.6756 38.7686 16.7571C37.3414 17.0566 36.3858 17.3135 36.3858 17.3135C36.3858 17.3135 37.2233 16.7696 38.6189 16.249C38.9648 16.1101 39.3483 15.9878 39.7541 15.8564C40.1633 15.7408 40.5933 15.6002 41.0491 15.5046C41.5032 15.404 41.9706 15.2851 42.4555 15.2169C42.937 15.1304 43.4302 15.0696 43.9251 15.0139C44.4191 14.954 44.9165 14.944 45.4047 14.9133C45.8937 14.8758 46.3769 14.9174 46.8418 14.9141ZM34.4562 23.0564C34.4562 23.0564 35.0717 22.831 36.1612 22.4592C36.7035 22.2638 37.3746 22.07 38.1498 21.8604C38.5374 21.7581 38.9465 21.6292 39.3857 21.5294C39.8265 21.4321 40.2889 21.3306 40.7729 21.225C41.2553 21.1111 41.7635 21.0221 42.2916 20.9347C42.8197 20.8516 43.3637 20.7493 43.9292 20.6877C44.4956 20.6245 45.077 20.5596 45.6708 20.4931C46.2671 20.444 46.8792 20.4241 47.5005 20.3875C48.7447 20.3525 50.0347 20.3367 51.3429 20.4299C51.9975 20.464 52.6537 20.5488 53.3149 20.607C53.9736 20.6852 54.6331 20.7875 55.2927 20.8832C56.6017 21.1385 57.9067 21.4204 59.165 21.7997C60.4325 22.1457 61.6343 22.6339 62.792 23.1005C63.9373 23.6011 65.0235 24.1309 66.0107 24.709C67.0062 25.2712 67.9111 25.8642 68.7137 26.453C69.5254 27.0286 70.2257 27.6149 70.8279 28.1505C71.4367 28.6795 71.9249 29.186 72.3233 29.6035C72.7225 30.021 73.0036 30.3778 73.199 30.6165C73.3903 30.8585 73.4851 30.9924 73.4851 30.9924C73.4851 30.9924 73.0169 30.5292 72.1236 29.8197C71.2312 29.1103 69.9172 28.1488 68.2471 27.1633C67.4154 26.6651 66.4873 26.1752 65.495 25.687C64.5062 25.1905 63.4191 24.763 62.3047 24.3131C61.1736 23.8997 59.9942 23.5063 58.7733 23.1811C57.5599 22.8318 56.3007 22.5773 55.039 22.3486C54.4052 22.2521 53.7723 22.1415 53.1386 22.0584C52.5023 21.9951 51.8711 21.9037 51.2398 21.8629C50.9238 21.843 50.6094 21.8222 50.2967 21.8022C49.984 21.7773 49.6729 21.749 49.3627 21.7456C48.7414 21.7307 48.1284 21.6932 47.5238 21.6974C46.9192 21.7049 46.3245 21.7115 45.7423 21.7174C45.1593 21.744 44.5896 21.7698 44.0349 21.7947C43.4785 21.8147 42.942 21.8887 42.4189 21.9236C41.8957 21.9602 41.3901 22.0018 40.9085 22.0692C39.9421 22.1881 39.0513 22.2846 38.2687 22.4193C37.4844 22.5424 36.7941 22.6322 36.2344 22.7478C35.1075 22.9516 34.4562 23.0564 34.4562 23.0564ZM74.3326 35.4228C74.1438 35.2648 73.9143 35.0769 73.649 34.8656C73.3895 34.6502 73.0718 34.4331 72.7483 34.1786C72.4064 33.9416 72.0488 33.6763 71.6546 33.4151C71.2703 33.1432 70.8395 32.8903 70.4095 32.6117C69.9779 32.3356 69.5105 32.0803 69.0547 31.7983C68.5756 31.5496 68.1099 31.2627 67.62 31.0174C67.1293 30.7745 66.6528 30.5025 66.1612 30.2771C65.6689 30.0551 65.1998 29.8006 64.7257 29.5952C64.2517 29.3906 63.7992 29.1752 63.3667 28.973C62.9268 28.7934 62.5118 28.6163 62.1292 28.4458C61.7458 28.2786 61.3956 28.1156 61.0771 27.9925C60.7602 27.8669 60.4858 27.7421 60.2595 27.6432C59.8063 27.4427 59.5493 27.3113 59.5493 27.3113C59.5493 27.3113 59.8337 27.3246 60.3294 27.3754C60.5764 27.402 60.8791 27.4303 61.2218 27.4802C61.5678 27.5184 61.9529 27.5866 62.3679 27.6839C62.7846 27.7729 63.2395 27.8677 63.7127 27.9941C64.181 28.1347 64.6775 28.2811 65.1857 28.4508C65.6947 28.6171 66.2037 28.84 66.7251 29.0521C67.2499 29.2583 67.7514 29.5411 68.2679 29.789C68.7769 30.0526 69.2659 30.3578 69.7508 30.6464C70.2199 30.9641 70.6857 31.2677 71.1098 31.602C71.5365 31.9322 71.9374 32.2649 72.2966 32.6051C72.6709 32.9269 72.9853 33.2779 73.2805 33.5898C73.5675 33.9133 73.8236 34.2111 74.0282 34.498C74.2436 34.7725 74.4066 35.0328 74.5414 35.244C74.8042 35.6732 74.9132 35.9385 74.9132 35.9385C74.9132 35.9385 74.7044 35.7414 74.3326 35.4228ZM56.0495 11.4335C55.301 11.1357 54.2023 10.7848 52.8674 10.4521C51.5301 10.1302 49.9507 9.84243 48.2424 9.71518C47.3899 9.63783 46.5041 9.63118 45.6076 9.63201C44.711 9.65446 43.7987 9.69605 42.8946 9.81498C41.9872 9.90647 41.0882 10.0653 40.2099 10.2491C39.3333 10.4421 38.4758 10.6608 37.6583 10.9161C36.844 11.179 36.0581 11.4459 35.3303 11.7454C34.9619 11.8834 34.6109 12.0373 34.2741 12.192C33.9373 12.3458 33.6029 12.4789 33.296 12.6344C32.6856 12.9505 32.1067 13.21 31.6218 13.4919C31.132 13.7647 30.6945 13.9892 30.3568 14.2096C29.6632 14.6255 29.2673 14.8634 29.2673 14.8634C29.2673 14.8634 29.6366 14.5839 30.2828 14.0957C30.603 13.8462 31.0205 13.5859 31.4896 13.269C31.9528 12.9422 32.5109 12.6319 33.113 12.2801C33.4141 12.103 33.7426 11.9483 34.0753 11.7711C34.408 11.5932 34.759 11.4251 35.1274 11.268C35.8535 10.9311 36.6411 10.6201 37.4686 10.334C38.2987 10.0562 39.1661 9.79336 40.066 9.59376C40.9651 9.39665 41.8866 9.22532 42.8164 9.12469C43.7454 9.01074 44.6819 8.97663 45.6026 8.96166C46.5233 8.96333 47.429 9.01075 48.2998 9.10806C49.1722 9.18957 50.0056 9.34259 50.7915 9.50145C51.5758 9.66529 52.3077 9.86322 52.9747 10.0703C54.3096 10.4837 55.375 10.9561 56.1044 11.3104C56.833 11.668 57.2197 11.9242 57.2197 11.9242C57.2197 11.9242 56.803 11.7212 56.0495 11.4335ZM21.0735 26.1727C21.5334 25.8492 22.0149 25.5756 22.4632 25.2903C22.9206 25.0192 23.3881 24.7996 23.8147 24.5709C24.2372 24.3322 24.6763 24.1833 25.0598 24.0095C25.4507 23.8507 25.7958 23.6785 26.126 23.5812C26.4495 23.4722 26.7323 23.3783 26.9643 23.2992C27.4276 23.1445 27.6921 23.0556 27.6921 23.0556C27.6921 23.0556 27.4409 23.1778 27.0009 23.3916C26.7822 23.4988 26.5169 23.6278 26.2117 23.7766C25.9014 23.9122 25.5821 24.1284 25.2211 24.3322C24.8676 24.5526 24.4634 24.7489 24.0825 25.0358C23.6966 25.3128 23.2758 25.5806 22.8707 25.8983C22.4757 26.2301 22.0524 26.5487 21.6556 26.9121C21.2739 27.2922 20.8539 27.6382 20.4971 28.0499C20.3707 28.1879 20.2451 28.326 20.1195 28.4649C20.3923 27.7097 20.6726 26.9737 20.9495 26.2617C20.9919 26.2318 21.0335 26.2027 21.0735 26.1727ZM18.1151 36.4076C18.3305 36.2013 18.5634 36.0067 18.7929 35.8013C19.0774 35.5676 19.3768 35.3438 19.6729 35.1209C19.9839 34.9155 20.285 34.6993 20.5961 34.5088C20.9121 34.3267 21.2165 34.1404 21.5201 33.9749C21.8286 33.8202 22.1264 33.6721 22.4092 33.5307C22.6944 33.396 22.973 33.2887 23.2242 33.1798C23.7241 32.9535 24.1649 32.8271 24.4634 32.7165C24.7645 32.6117 24.9358 32.5527 24.9358 32.5527C24.9358 32.5527 24.772 32.6325 24.4859 32.7722C24.2023 32.9178 23.7839 33.0933 23.3182 33.3752C23.0837 33.5124 22.8242 33.6497 22.5614 33.8144C22.3027 33.9848 22.0307 34.1645 21.7488 34.3508C21.4735 34.5454 21.2007 34.7617 20.9196 34.9721C20.6435 35.1908 20.3798 35.4328 20.1087 35.6616C19.8525 35.9094 19.5947 36.1539 19.3543 36.4042C19.124 36.6654 18.8828 36.9074 18.6832 37.1711C18.4719 37.4247 18.2831 37.6784 18.1118 37.9254C18.0719 37.9786 18.0394 38.0327 18.0028 38.0859C18.0186 37.5262 18.0561 36.9656 18.1151 36.4076ZM20.0679 44.539C20.0995 44.5099 21.9002 42.8806 25.6145 41.2613C25.6577 42.2302 25.6935 43.2133 25.7027 44.1964C25.711 45.1137 25.7002 46.0303 25.6478 46.9243C25.6228 47.3718 25.5862 47.8134 25.5322 48.2442C25.5072 48.4613 25.4798 48.6742 25.4415 48.8747C25.4124 49.0751 25.37 49.2839 25.3176 49.4984C25.1712 50.0873 25.0223 50.6844 24.8643 51.2425C24.8568 51.2308 24.8502 51.2217 24.8427 51.2092C24.4634 50.5963 23.9461 49.7405 23.734 48.8381L23.6717 48.4779C23.6559 48.3598 23.6234 48.2268 23.5843 48.092C23.5095 47.8317 23.408 47.6063 23.3007 47.3868C23.0795 46.9559 22.8267 46.5908 22.5979 46.2906C22.1364 45.6901 21.7729 45.3449 21.7729 45.3449C21.7729 45.3449 22.0873 45.7375 22.4582 46.3821C22.642 46.7048 22.8383 47.0915 22.9897 47.5198C23.0612 47.7327 23.1277 47.9615 23.1593 48.1819C23.176 48.2866 23.1901 48.3964 23.1909 48.527L23.2051 48.9104C23.3132 49.9883 23.7415 50.9348 24.0509 51.6375C24.2106 51.9827 24.3553 52.2688 24.4601 52.4684C24.2688 52.9416 24.0426 53.345 23.7498 53.5854C23.1452 54.1118 22.642 54.6333 22.2278 55.114C21.7929 52.0359 20.2592 49.2464 19.7635 44.7769C19.87 44.7079 19.9731 44.6289 20.0679 44.539ZM22.0607 59.1744C22.2628 58.2795 22.3434 57.4511 22.3393 56.6593C22.7726 56.028 23.4504 55.1897 24.4069 54.3281C24.51 54.2349 24.5416 54.1958 24.6131 54.126C24.6847 54.0403 24.7737 53.9388 24.8327 53.8523C24.9541 53.6769 25.0614 53.4947 25.1496 53.3101C25.3309 52.9383 25.4673 52.5524 25.5887 52.1574C25.8274 51.3614 26.0112 50.5638 26.2117 49.6955C26.3048 49.2897 26.3763 48.7848 26.4204 48.3449C26.4703 47.8899 26.5003 47.43 26.5177 46.9692C26.556 46.0452 26.5526 45.1121 26.5277 44.1806C26.5011 43.1617 26.447 42.1479 26.3855 41.1532C26.4545 41.431 26.5244 41.7146 26.5926 41.9974C26.729 42.5538 26.8205 43.1052 26.9053 43.6441C26.9868 44.1789 27.1099 44.6862 27.287 45.1013C27.4817 45.5121 27.7395 45.7999 27.9499 45.9479C28.053 46.0261 28.1362 46.081 28.1977 46.1118C28.2568 46.145 28.2884 46.1633 28.2884 46.1633C28.2884 46.1633 28.2626 46.1384 28.2135 46.091C28.1645 46.0444 28.0929 45.9762 28.0123 45.8814C27.8509 45.6934 27.6497 45.404 27.5307 45.0056C27.3968 44.6131 27.3428 44.1224 27.2771 43.5909C27.2197 43.0603 27.149 42.4714 27.0375 41.9034C26.966 41.5183 26.8862 41.1407 26.8047 40.7715C30.4799 39.336 35.6988 38.0402 42.5744 38.0402C44.5131 38.0402 46.5299 38.1433 48.5684 38.3471C53.5095 38.8411 57.5033 39.8009 60.6995 40.922C60.119 40.7898 59.5343 40.6667 58.9513 40.5344C58.1362 40.3706 57.3145 40.2508 56.5119 40.1094C55.7102 39.9639 54.9101 39.8973 54.1433 39.7917C53.759 39.7443 53.3823 39.6977 53.013 39.652C52.6421 39.6204 52.2794 39.5896 51.9268 39.5597C51.2215 39.5015 50.5553 39.4449 49.939 39.3942C49.3253 39.3401 48.758 39.3326 48.2582 39.3043C47.7575 39.2811 47.3217 39.2611 46.9624 39.2445C46.2447 39.212 45.8355 39.1937 45.8355 39.1937C45.8355 39.1937 46.2413 39.2536 46.9524 39.3592C47.3076 39.4125 47.7384 39.4765 48.2324 39.5497C48.7256 39.6296 49.2853 39.6936 49.8891 39.81C50.493 39.9231 51.1467 40.0454 51.8386 40.1751C52.1838 40.24 52.5381 40.3066 52.9007 40.3756C53.26 40.4579 53.6268 40.5419 54.0002 40.6276C54.7437 40.8089 55.5214 40.9528 56.2915 41.1757C57.0625 41.3944 57.851 41.5915 58.6253 41.8319C59.3929 42.0905 60.1705 42.3184 60.9124 42.5979C61.6476 42.8931 62.3912 43.1343 63.0648 43.4595C63.1214 43.4853 63.1754 43.5094 63.2328 43.5352C62.9118 43.5352 62.6057 43.5502 62.3122 43.5651C61.1603 43.6308 60.2171 43.7797 59.5584 43.8887C58.8997 44.0026 58.5279 44.0874 58.5279 44.0874C58.5279 44.0874 58.908 44.0924 59.5751 44.0999C60.2387 44.1107 61.1894 44.1174 62.313 44.1781C62.8719 44.2122 63.4832 44.2604 64.0812 44.3727C64.235 44.3968 64.3698 44.4434 64.5095 44.4825C64.591 44.5033 64.576 44.5058 64.6683 44.5257C64.7523 44.5432 64.823 44.549 64.907 44.5449C64.9944 44.5432 65.0892 44.5207 65.179 44.4833C65.713 44.7603 66.1837 45.073 66.6336 45.3383C66.7459 45.4173 66.8565 45.493 66.9646 45.5678C66.8748 45.8157 66.7418 46.0951 66.5679 46.3372C66.3708 46.6183 66.1371 46.8462 65.945 46.9859C64.3041 45.6011 60.9174 45.6909 57.7753 46.0635C58.1279 45.8739 58.4839 45.6918 58.8274 45.542C59.0245 45.4539 59.2166 45.3724 59.4021 45.3084C59.5867 45.2352 59.7638 45.1786 59.9302 45.1362C60.0957 45.083 60.2496 45.0489 60.3884 45.0306C60.5265 45.0081 60.6488 44.979 60.7494 44.9848C60.954 44.9807 61.0713 44.979 61.0713 44.979C61.0713 44.979 60.9557 44.9557 60.7536 44.9158C60.6513 44.8883 60.5257 44.89 60.3801 44.8825C60.2338 44.87 60.0691 44.8709 59.8903 44.8884C59.7098 44.895 59.5152 44.9133 59.3131 44.9474C59.1068 44.9715 58.8939 45.0114 58.6743 45.0588C58.345 45.1229 58.004 45.2127 57.6622 45.3084C57.4467 45.5346 57.1582 45.8099 56.7939 46.0926C56.3639 46.4278 55.8383 46.7796 55.2469 47.0915C54.6572 47.41 54.0019 47.6878 53.3315 47.9207C52.9939 48.0297 52.6545 48.1336 52.3152 48.2185C51.9767 48.3058 51.6374 48.3698 51.3088 48.428C50.6485 48.5337 50.023 48.5852 49.4775 48.5778C49.3743 48.5778 49.277 48.5744 49.1797 48.5711C48.9468 48.7748 48.7148 49.0136 48.5044 49.3013C48.3048 49.5758 48.1276 49.8943 48.0153 50.2461C47.9031 50.5913 47.8581 50.9897 47.8864 51.319C47.9089 51.596 47.9438 51.9303 47.9912 52.2197C48.037 52.5142 48.0935 52.7978 48.1551 53.0697C48.2773 53.6145 48.4187 54.1102 48.5501 54.5302C48.8146 55.3694 49.0392 55.9058 49.0392 55.9058C49.0392 55.9058 48.9543 55.3286 48.9077 54.4645C48.8878 54.086 48.8761 53.6502 48.8836 53.1895C48.9676 53.4731 49.0425 53.7617 49.1664 54.0162C49.2912 54.2882 49.3876 54.5726 49.5357 54.8171C49.6729 55.0666 49.8076 55.3111 49.9382 55.5482C50.0788 55.7769 50.2252 55.9898 50.3566 56.1936C50.493 56.3957 50.6102 56.5903 50.7375 56.7599C51.2415 57.4311 51.5783 57.8777 51.5783 57.8777C51.5783 57.8777 51.3912 57.3554 51.1101 56.572C51.0402 56.3774 50.987 56.1586 50.9188 55.9332C50.8755 55.7802 50.8298 55.6172 50.784 55.4559C51.881 57.2914 55.0448 59.1336 58.2635 59.5203C64.7191 60.2946 65.5932 58.5639 67.4254 56.2534C69.2576 53.943 67.027 54.5011 66.9472 49.2423C66.9414 48.8655 66.8798 48.5303 66.78 48.2259C66.785 48.2185 66.79 48.2134 66.795 48.2051C66.8549 48.1078 66.9339 47.9723 67.0054 47.8076C67.136 47.524 67.2441 47.1489 67.299 46.7688C67.63 48.7017 68.1931 50.4648 68.8393 51.9303C69.0622 52.4401 69.2917 52.9125 69.5221 53.3525C69.434 53.7792 69.3042 54.3497 69.1121 55.02C68.9008 55.7552 68.6147 56.6036 68.2122 57.4453C68.0151 57.8711 67.7789 58.282 67.5136 58.6729C67.4512 58.7776 67.373 58.8583 67.3032 58.9531L67.195 59.0912L67.1676 59.1261L67.1543 59.1436L67.1476 59.1527L67.1443 59.1577C67.1202 59.1793 67.1734 59.1319 67.1659 59.1386L67.0961 59.2109C66.9089 59.4022 66.7185 59.6077 66.5455 59.7507L66.2768 59.9902L65.9749 60.2289C65.777 60.3911 65.5641 60.54 65.3545 60.6913C64.9353 60.9908 64.5045 61.271 64.0812 61.5339C63.2337 62.0595 62.4136 62.5153 61.7034 62.8937C60.2812 63.6505 59.2973 64.0947 59.2973 64.0947C59.2973 64.0947 60.3385 63.8135 61.8747 63.2896C62.6423 63.0276 63.5347 62.7041 64.4804 62.3098C64.9528 62.1136 65.4393 61.8981 65.9275 61.657C66.172 61.5347 66.4199 61.4149 66.6627 61.2744C66.9056 61.1438 67.1534 60.9999 67.4079 60.8286C67.6766 60.6631 67.8795 60.5009 68.0957 60.3412L68.1764 60.2813L68.2845 60.1815L68.4492 60.0277C68.5557 59.9229 68.6763 59.8247 68.7686 59.7133C69.1354 59.3191 69.4581 58.9074 69.7409 58.494C69.6319 58.751 69.5338 59.0255 69.3982 59.2742C69.2668 59.5461 69.1296 59.8181 68.9682 60.0684C68.89 60.1973 68.8127 60.3254 68.7362 60.4518C68.6497 60.5716 68.564 60.6889 68.48 60.8053C68.3943 60.9209 68.3137 61.0407 68.2255 61.1488C68.1332 61.2536 68.0434 61.3559 67.9552 61.4557C67.7814 61.6603 67.6084 61.8491 67.4296 62.0013C67.2557 62.1593 67.0969 62.3132 66.948 62.4379C66.7917 62.5543 66.6553 62.655 66.543 62.7373C66.3143 62.9053 66.1837 63.001 66.1837 63.001C66.1837 63.001 66.3376 62.9494 66.6054 62.8596C66.7418 62.813 66.9073 62.7573 67.0969 62.6932C67.2824 62.6176 67.4845 62.5178 67.7123 62.4138C67.9444 62.3157 68.1798 62.1826 68.4251 62.0304C68.5499 61.9555 68.6779 61.879 68.8093 61.8008C68.9374 61.7177 69.0589 61.622 69.1894 61.5297C69.3192 61.4349 69.4498 61.3384 69.5837 61.2395C69.7084 61.1322 69.8348 61.0232 69.9621 60.9126C70.2241 60.6955 70.4661 60.451 70.7056 60.2015C70.9069 60.0077 71.0807 59.794 71.2587 59.5835C71.1797 59.8256 71.0832 60.0975 70.9451 60.3836C70.7971 60.7138 70.5983 61.0515 70.3862 61.3867C70.2706 61.5497 70.1559 61.7135 70.0419 61.8732C69.9172 62.0279 69.7932 62.1801 69.6735 62.3281C69.4173 62.6084 69.1711 62.8737 68.9399 63.08C68.7179 63.3004 68.5099 63.4559 68.3694 63.5748C68.2272 63.6921 68.1456 63.7595 68.1456 63.7595C68.1456 63.7595 68.2438 63.7212 68.4151 63.6547C68.5865 63.5857 68.8393 63.5 69.1254 63.3586C69.4206 63.2305 69.7492 63.0509 70.106 62.8496C70.2781 62.739 70.4561 62.6251 70.6374 62.5086C70.7073 62.4579 70.7788 62.4046 70.8495 62.3514C70.7663 62.482 70.6798 62.6142 70.5867 62.7531C70.1401 63.4127 69.5903 64.1637 68.9383 64.8789C68.3819 65.4869 67.7373 66.0766 67.0553 66.4592C67.0511 66.4226 67.0478 66.386 67.0412 66.3477L67.0403 66.2371V66.1814L67.0395 66.1664V66.1647C67.0545 66.0899 67.0437 66.1431 67.047 66.1257V66.1207L67.0478 66.1107L67.0486 66.0724C67.0653 65.9136 67.0403 65.541 66.968 65.3555C66.9031 65.1334 66.8075 64.9405 66.711 64.7617C66.5089 64.409 66.2793 64.1246 66.0747 63.8926C65.6614 63.4318 65.3453 63.179 65.3453 63.179C65.3453 63.179 65.5907 63.5058 65.8693 64.0356C66.0057 64.2993 66.1488 64.6178 66.2436 64.9588C66.286 65.1301 66.3226 65.3056 66.3276 65.4744C66.3284 65.5584 66.3309 65.6449 66.3151 65.6998C66.3076 65.7356 66.3134 65.7506 66.2985 65.8013L66.2569 65.9477L66.2469 65.9843L66.2444 65.9934L66.2427 65.9984C66.2461 65.9834 66.2352 66.0367 66.2494 65.9643L66.2486 65.9668L66.2419 65.9893L66.2161 66.0807C66.1995 66.1423 66.1804 66.2055 66.1679 66.2679C66.1538 66.3885 66.1263 66.5174 66.1288 66.6338C66.1263 66.6937 66.1305 66.7519 66.1313 66.8101C66.1271 66.811 66.1221 66.8126 66.118 66.8135L65.9733 66.8393L65.7629 66.8534L65.3786 66.8725C64.8571 66.8866 64.3323 66.8642 63.8134 66.8201C62.7787 66.7394 61.7649 66.5739 60.8542 66.6388C60.4009 66.6729 59.9809 66.7744 59.6474 66.9415C59.3114 67.1037 59.0669 67.3141 58.8956 67.5038C58.7242 67.6934 58.6128 67.8572 58.5413 67.9703C58.4722 68.0843 58.4356 68.145 58.4356 68.145C58.4356 68.145 58.4847 68.0934 58.5754 67.997C58.6668 67.903 58.8099 67.7699 59.0053 67.6293C59.2008 67.4896 59.4594 67.3532 59.7722 67.2792C60.0824 67.2002 60.445 67.1927 60.8384 67.2484C61.6285 67.3599 62.5367 67.7142 63.5788 68.0311C63.5846 68.0336 63.5921 68.0344 63.598 68.0369C63.252 68.0069 62.896 67.9803 62.5051 67.9745C61.9337 67.9687 61.2193 68.0194 60.5623 68.4045C59.9119 68.7829 59.4594 69.3451 59.0544 69.8891L58.9089 70.0878L58.7567 70.3049C58.6602 70.448 58.5629 70.5935 58.4656 70.7507C58.3691 70.9137 58.271 71.0676 58.177 71.3212C58.1362 71.4485 58.0747 71.6256 58.1196 71.8993C58.1304 71.9542 58.1495 72.0066 58.1687 72.0573C57.9882 72.2502 57.7819 72.4565 57.5599 72.6569C57.1981 72.9846 56.8038 73.2849 56.4953 73.4969C56.1876 73.7115 55.9705 73.8413 55.9705 73.8413C55.9705 73.8413 56.2192 73.8013 56.5918 73.7165C56.9644 73.6325 57.4609 73.4969 57.9508 73.3173C58.2161 73.2208 58.4772 73.1119 58.7201 73.0013C58.7201 73.0038 58.7209 73.0054 58.7217 73.0079C58.6477 73.0495 58.5695 73.0936 58.4789 73.141C58.0472 73.3689 57.4351 73.6417 56.793 73.8662C56.1518 74.0941 55.4823 74.2688 54.9716 74.376C54.7163 74.4351 54.5009 74.47 54.3495 74.4975C54.1981 74.5249 54.1108 74.5399 54.1108 74.5399C54.1108 74.5399 54.1973 74.5582 54.3479 74.5898C54.4992 74.6214 54.7155 74.6705 54.9774 74.712C55.5022 74.8044 56.2142 74.8967 56.9411 74.9266C57.1997 74.9391 57.4576 74.9416 57.7112 74.9399C57.1673 75.0555 56.5535 75.0971 55.9123 75.1021C55.1371 75.0996 54.352 75.0979 53.5602 75.0955C53.4555 75.0955 53.3482 75.0988 53.2425 75.0996C53.2334 75.078 53.2259 75.0597 53.2159 75.0364C53.1461 74.8618 53.067 74.6563 52.993 74.4384C52.9548 74.3295 52.9207 74.2189 52.8891 74.1074C52.8575 73.9985 52.8358 73.8987 52.8134 73.7589C52.7893 73.6109 52.756 73.4653 52.7211 73.3398C52.6836 73.2125 52.647 73.0869 52.6113 72.9663C52.5364 72.7268 52.4607 72.5081 52.3942 72.3226C52.2561 71.9525 52.1647 71.7063 52.1647 71.7063C52.1647 71.7063 52.158 71.9675 52.1472 72.36C52.1389 72.5555 52.1272 72.7842 52.1081 73.0245C52.0965 73.1443 52.084 73.2666 52.0723 73.3913C52.0574 73.5186 52.0382 73.63 52.0133 73.7406C51.985 73.8587 51.9559 74.0159 51.9401 74.1615C51.9243 74.3029 51.9127 74.4409 51.9052 74.5715C51.8935 74.7761 51.8894 74.9616 51.8877 75.1337C51.6282 75.1445 51.3696 75.152 51.1092 75.1703C50.2817 75.2202 49.4234 75.33 48.6732 75.419C47.9014 75.4997 47.1421 75.5329 46.3935 75.4772C45.6467 75.4298 44.8815 75.2868 44.0673 75.172C43.2581 75.053 42.418 74.994 41.6088 74.9857C41.5023 74.9848 41.3984 74.989 41.2919 74.989C41.2977 74.9008 41.3036 74.811 41.3052 74.7146C41.3061 74.5856 41.3044 74.47 41.2944 74.3153C41.2853 74.2064 41.262 74.0168 41.2296 73.887C41.1979 73.7456 41.1572 73.61 41.1131 73.4786C40.931 72.958 40.7413 72.4806 40.6524 72.0922C40.56 71.708 40.5376 71.4402 40.5376 71.4402C40.5376 71.4402 40.4927 71.703 40.486 72.1114C40.4752 72.5164 40.5442 73.0695 40.5891 73.5851C40.5983 73.7132 40.6033 73.8388 40.5991 73.9569C40.5958 74.0874 40.585 74.154 40.5642 74.2937C40.5451 74.3877 40.5168 74.5124 40.491 74.6089C40.4627 74.7104 40.4344 74.8044 40.4045 74.8884C40.3895 74.93 40.3754 74.9616 40.3613 74.9982C39.9912 75.0081 39.6252 75.0223 39.2643 75.0373C38.8925 75.0514 38.5232 75.0647 38.1581 75.078C37.8113 75.0838 37.4587 75.0788 37.259 75.0289C37.1542 75.0056 37.1401 74.9815 37.1385 74.9882C37.1385 74.9923 37.1093 74.9591 37.0861 74.8584C37.0395 74.6547 37.0386 74.3311 37.0603 74.0093C37.0994 73.3564 37.2033 72.5513 36.9488 71.7512C36.706 70.9445 36.1346 70.3307 35.5799 69.9356C35.0143 69.5323 34.4512 69.2645 33.8857 69.0574C33.8849 69.0574 33.8832 69.0574 33.8824 69.0565C33.8815 69.0532 33.8807 69.0515 33.8799 69.0482C33.8242 68.8544 33.7518 68.5733 33.6828 68.2332C33.6146 67.8938 33.5497 67.4929 33.5281 67.0688C33.5189 66.8567 33.5181 66.638 33.543 66.4251C33.5663 66.2121 33.6079 65.9976 33.6919 65.8163C33.7609 65.6416 33.9231 65.4678 34.057 65.2382C34.2034 64.997 34.2733 64.77 34.3431 64.5396C34.4695 64.0822 34.4987 63.6497 34.5086 63.2837C34.5203 62.5502 34.4354 62.0728 34.4354 62.0728C34.4354 62.0728 34.4537 62.5602 34.3423 63.2688C34.2841 63.6206 34.1967 64.0314 34.0238 64.429C33.9373 64.6211 33.8308 64.8315 33.7061 64.9821C33.5838 65.1484 33.3775 65.3073 33.2228 65.5601C33.0698 65.7988 32.9841 66.0583 32.9201 66.3086C32.8552 66.5615 32.8211 66.8101 32.7987 67.0497C32.7563 67.5296 32.7671 67.9712 32.7887 68.3488C32.7987 68.5101 32.8111 68.6573 32.8245 68.7921C32.6065 68.7588 32.3911 68.7347 32.1832 68.7239C31.0912 68.6806 30.1755 68.9293 29.4777 69.2004C28.7733 69.4716 28.2768 69.7893 27.9432 70.0097C27.8609 70.0645 27.7894 70.1153 27.7278 70.161C27.1091 68.3879 26.1318 67.2227 25.1471 66.2471C25.2652 66.0699 25.4074 65.8703 25.5729 65.6765C25.7409 65.4794 25.9405 65.2757 26.1368 65.1659L26.2083 65.1285L26.3181 65.0869L26.5418 65.002C26.6982 64.9413 26.8379 64.8764 26.9735 64.8074C27.2438 64.6702 27.48 64.5213 27.6746 64.3849C28.063 64.1113 28.2784 63.8851 28.2784 63.8851C28.2784 63.8851 28.0089 64.0439 27.5765 64.1978C27.3611 64.2751 27.1066 64.3508 26.8313 64.4049C26.6949 64.4323 26.5493 64.4564 26.4121 64.4689L26.19 64.4889L26.0753 64.4988L25.9247 64.5238C25.5347 64.6128 25.2377 64.7974 24.9666 64.9696C24.7171 65.1343 24.505 65.3023 24.3229 65.4553C22.6703 63.8942 21.303 62.5302 22.0607 59.1744Z" fill="#A4F40F"/>
<path d="M35.9092 59.5195C39.893 59.0413 43.7962 56.3325 43.7962 54.1676C43.7962 52.7504 44.5472 50.2578 43.881 48.5487C43.5566 48.5245 43.2165 48.4846 42.8655 48.428C42.537 48.3698 42.1976 48.3066 41.8591 48.2185C41.5206 48.1328 41.1813 48.0288 40.8428 47.9207C40.1725 47.6878 39.5171 47.4101 38.9274 47.0915C38.4043 46.8154 37.9369 46.5085 37.5368 46.2091C32.9625 45.5753 27.2862 45.2452 27.2255 49.2423C27.1456 54.5002 24.915 53.9422 26.7473 56.2534C28.5803 58.5622 29.4544 60.293 35.9092 59.5195Z" fill="#A4F40F"/>
<path d="M25.4565 58.781C25.7359 59.0854 26.0029 59.2767 26.2549 59.4962C26.4179 59.6301 26.5884 59.7715 26.7664 59.9104L26.7622 59.9121C26.7622 59.9121 26.9119 60.1267 27.1232 60.4676C27.3328 60.807 27.6081 61.2694 27.8127 61.7451L27.8775 61.9057C27.8983 61.9738 27.9166 62.0396 27.9183 62.0745C27.9391 62.1602 27.9266 62.2866 27.9091 62.393C27.8634 62.6167 27.7586 62.8255 27.6538 62.9943C27.4401 63.3337 27.2355 63.525 27.2355 63.525C27.2355 63.525 27.4792 63.3952 27.7894 63.1058C27.9424 62.9594 28.1137 62.7714 28.2435 62.5128C28.3025 62.3772 28.3599 62.245 28.3741 62.0612C28.3857 61.9605 28.3815 61.894 28.379 61.8275C28.3724 61.7177 28.3583 61.6744 28.3483 61.5929C28.2984 61.3077 28.231 61.0315 28.1595 60.777C28.1645 60.7795 28.1695 60.7829 28.1753 60.7853C28.3583 60.871 28.5437 60.9467 28.7342 61.0116C28.9213 61.0839 29.1118 61.1422 29.3022 61.1929L29.585 61.2736L29.8711 61.3235C30.0607 61.3559 30.2462 61.3925 30.4308 61.4066C30.6155 61.4224 30.7951 61.4515 30.9731 61.4549C31.1494 61.4549 31.3224 61.4557 31.4912 61.4557C31.8264 61.4632 32.1416 61.4158 32.4302 61.3925C32.7188 61.3584 32.9791 61.3027 33.2095 61.2594C33.4399 61.2237 33.6362 61.153 33.7984 61.1114C34.1219 61.0174 34.3024 60.9533 34.3024 60.9533C34.3024 60.9533 34.1094 60.9284 33.7776 60.9001C33.6112 60.8835 33.4116 60.8785 33.1837 60.8511C32.9559 60.8253 32.7005 60.8028 32.4244 60.7779C32.15 60.7338 31.8522 60.7113 31.5428 60.6589C31.2334 60.6107 30.9116 60.5483 30.5847 60.4776C30.257 60.4086 29.926 60.3105 29.5975 60.2048C29.4311 60.1549 29.2665 60.0984 29.1059 60.0293C28.9421 59.9686 28.7833 59.8954 28.6269 59.8181C28.3059 59.68 27.9998 59.507 27.7021 59.3257C27.4093 59.1353 27.109 58.9515 26.8213 58.7502C26.5219 58.5315 26.1983 58.3676 26.0162 58.2196C25.8149 58.0524 25.6403 57.8486 25.513 57.6266C25.256 57.1849 25.1246 56.7342 25.0473 56.4181C24.9699 56.0996 24.9442 55.9075 24.9442 55.9075C24.9442 55.9075 24.8793 56.0904 24.836 56.4298C24.7978 56.7666 24.767 57.2698 24.9525 57.8703C25.0431 58.1672 25.1995 58.4924 25.4565 58.781Z" fill="#A4F40F"/>
<path d="M47.088 60.1C46.7112 58.6295 47.1562 56.5803 46.4443 56.1785C45.9802 55.9182 45.6999 56.3191 45.4421 56.9778C45.4354 56.9861 45.4304 56.9928 45.4238 57.0019C45.2841 57.1899 45.0919 57.4486 44.8499 57.7546C44.6079 58.0598 44.3168 58.4116 43.9908 58.7776C43.8211 58.9631 43.6456 59.1535 43.4676 59.3481C43.3895 59.4338 43.2689 59.5702 43.1815 59.6949C43.0917 59.818 43.0102 59.9478 42.9403 60.0817C42.6526 60.6181 42.5411 61.1995 42.5095 61.7201C42.4771 62.2449 42.5212 62.7198 42.5661 63.1215C42.6176 63.5208 42.6609 63.8518 42.6908 64.0838C42.7191 64.315 42.7241 64.4489 42.7241 64.4489C42.7241 64.4489 42.7432 64.3167 42.7574 64.0821C42.7707 63.8493 42.7881 63.5149 42.8106 63.1157C42.838 62.719 42.883 62.2591 42.9994 61.7942C43.115 61.3309 43.3071 60.866 43.6007 60.5042C43.6731 60.4127 43.7512 60.3279 43.8336 60.2505C43.9168 60.1707 43.9825 60.1199 44.0989 60.0301C44.1413 59.9985 44.1812 59.9694 44.2228 59.9386C43.2489 61.4673 43.6781 64.2177 43.5017 65.7131C43.3238 67.2276 44.7044 69.5447 45.462 69.1438C46.2197 68.743 46.436 66.2479 46.8851 65.6241C47.3334 65.0003 46.6206 68.6099 47.6012 68.7879C48.0029 68.861 48.5551 68.8045 49.0782 68.5758C49.282 68.5242 49.5049 68.4527 49.7436 68.3446C50.241 68.125 50.8048 67.7067 51.155 67.1045C51.333 66.8051 51.4552 66.4907 51.5334 66.1422C51.5567 65.9975 51.5808 65.852 51.6041 65.7064C51.6241 65.5468 51.6498 65.3854 51.6573 65.229C51.7122 64.5995 51.6474 63.9657 51.5401 63.4168C51.4278 62.8787 51.3222 62.3763 51.2323 61.9455C51.1483 61.518 51.0943 61.1587 51.0593 60.9051C51.0277 60.6506 51.0094 60.5067 51.0094 60.5067C51.0094 60.5067 50.9978 60.6522 50.977 60.9076C50.9587 61.1637 50.9379 61.5305 50.9329 61.9721C50.9337 62.4104 50.9338 62.9219 50.9338 63.4692C50.9254 64.0065 50.8664 64.5471 50.7092 65.0644C50.7025 65.091 50.6917 65.1143 50.6842 65.1401C50.6734 64.2252 50.5295 63.8584 50.6285 62.6608C50.7624 61.0365 50.4056 61.1255 49.6929 59.2101C48.9801 57.2939 48.2224 54.9651 47.9106 56.1303C47.602 57.293 47.4648 61.5696 47.088 60.1Z" fill="#A4F40F"/>
<path d="M39.8764 41.8777C40.3006 42.0348 40.9027 42.2619 41.6138 42.5405C42.3224 42.8258 43.1408 43.1701 43.9559 43.6009C44.3576 43.8238 44.7576 44.0716 45.1053 44.3528L45.3889 44.5989C45.4629 44.6688 45.6517 44.7985 45.7814 44.8717C46.0542 45.0314 46.3453 45.132 46.6331 45.1978C47.2111 45.3317 47.7725 45.3342 48.3089 45.3076C48.8454 45.2651 49.3552 45.1745 49.8409 45.0722C50.3275 44.9732 50.7824 44.8318 51.2124 44.7029C51.6424 44.5756 52.0391 44.426 52.405 44.2937C53.1344 44.0234 53.7291 43.7681 54.1458 43.5884C54.5616 43.4046 54.7986 43.299 54.7986 43.299C54.7986 43.299 54.5392 43.3239 54.0884 43.3913C53.6393 43.4587 53.0005 43.5726 52.2445 43.719C51.8669 43.7889 51.4586 43.8654 51.0269 43.9461C50.5978 44.0284 50.1428 44.0908 49.6787 44.1606C49.2147 44.2264 48.7356 44.2704 48.259 44.2821C47.7858 44.2962 47.3067 44.2771 46.8826 44.1648C46.6722 44.1083 46.4701 44.0434 46.2971 43.9461C46.2064 43.8904 46.1748 43.887 46.0567 43.7881L45.7581 43.5427C45.314 43.1892 44.8408 42.9439 44.3792 42.7384C43.9184 42.5305 43.4643 42.3692 43.0285 42.2419C42.5952 42.1097 42.181 42.0074 41.7951 41.9309C41.0275 41.767 40.3771 41.6955 39.9221 41.6597C39.4672 41.6248 39.2036 41.6356 39.2036 41.6356C39.2036 41.6356 39.2659 41.6523 39.3807 41.6947C39.4963 41.7371 39.6635 41.7986 39.8764 41.8777Z" fill="#A4F40F"/>
<path d="M45.3198 70.6891C45.2225 70.487 45.1069 70.2916 44.9472 70.1061C44.8715 70.0196 44.7742 69.9057 44.7027 69.8425C44.6203 69.7635 44.5613 69.7069 44.4532 69.6129C44.3193 69.4873 44.182 69.3651 44.0614 69.2212C43.8136 68.9426 43.599 68.6249 43.4152 68.3005C43.2264 67.9778 43.0776 67.6493 42.9453 67.3574C42.8197 67.0546 42.7158 66.8018 42.6426 66.6246C42.5677 66.4375 42.5245 66.3311 42.5245 66.3311C42.5245 66.3311 42.3357 66.7735 42.3457 67.4805C42.3498 67.6551 42.359 67.8481 42.3964 68.0485C42.4313 68.2481 42.4704 68.4635 42.5478 68.6773C42.5794 68.7862 42.6243 68.8935 42.6725 69.0008C42.7174 69.1098 42.7682 69.2187 42.833 69.3227C42.947 69.5372 43.0983 69.7385 43.2614 69.9298C43.4294 70.1186 43.619 70.2874 43.8203 70.4338C43.8776 70.4787 43.9849 70.5561 44.0664 70.6126C44.1637 70.6767 44.202 70.7249 44.2769 70.7765C44.4066 70.8821 44.5397 70.9994 44.6453 71.1141C44.7493 71.2331 44.8391 71.3503 44.9139 71.4693C44.9763 71.5907 45.0404 71.7088 45.0711 71.8244C45.1044 71.9392 45.126 72.0481 45.1343 72.1404C45.1501 72.3267 45.1318 72.4465 45.1318 72.4465C45.1318 72.4465 45.2325 72.3775 45.3414 72.1903C45.4504 72.0074 45.5527 71.6863 45.5019 71.2921C45.4753 71.0975 45.4196 70.8879 45.3198 70.6891Z" fill="#A4F40F"/>
<path d="M52.44 66.2164C52.4242 66.1573 52.4159 66.1257 52.4159 66.1257C52.4159 66.1257 52.3668 66.2513 52.2761 66.4476C52.232 66.5457 52.168 66.6588 52.0957 66.7819C52.0191 66.9042 51.9285 67.0364 51.8237 67.1728C51.7189 67.3084 51.5916 67.4431 51.4611 67.5845C51.3263 67.7234 51.1708 67.854 51.0119 67.9879C50.6876 68.2499 50.3167 68.4977 49.9291 68.6932C49.8326 68.7372 49.7603 68.783 49.6355 68.8304C49.5848 68.8503 49.5058 68.8828 49.4808 68.8969L49.272 68.9951C48.9968 69.1281 48.7689 69.3169 48.5809 69.5124C48.3938 69.7095 48.2482 69.9216 48.1351 70.127C48.0137 70.3291 47.9347 70.5345 47.8681 70.7225C47.6103 71.4793 47.6702 72.0124 47.6702 72.0124C47.6702 72.0124 47.7442 71.9077 47.8731 71.723C48.0004 71.5425 48.1825 71.2905 48.4054 71.0136C48.5202 70.878 48.6458 70.7358 48.778 70.5961C48.9094 70.4539 49.0658 70.3308 49.218 70.211C49.3752 70.0971 49.5382 69.9981 49.7087 69.9332L50.0247 69.8143C50.132 69.7777 50.2784 69.7053 50.4073 69.6479C50.6543 69.5165 50.8897 69.3768 51.1009 69.2055C51.318 69.045 51.506 68.8528 51.6773 68.6624C51.8478 68.4694 51.9867 68.2615 52.104 68.0561C52.2229 67.8531 52.3111 67.6469 52.3709 67.4498C52.4965 67.058 52.5157 66.7129 52.4857 66.4809C52.4849 66.3669 52.4491 66.2754 52.44 66.2164Z" fill="#A4F40F"/>
<path d="M43.9442 57.5633C44.0981 57.3337 44.158 57.1865 44.158 57.1865C44.158 57.1865 44.0266 57.268 43.7962 57.4111C43.5691 57.5491 43.2398 57.728 42.8439 57.9317C42.6451 58.0315 42.4289 58.1388 42.201 58.2536C41.9715 58.3642 41.7294 58.4798 41.4783 58.6012C40.9767 58.8441 40.442 59.1036 39.9064 59.3631C39.3724 59.6275 38.8385 59.8987 38.3411 60.1632C37.8454 60.4326 37.3813 60.6879 36.9921 60.9283C36.5995 61.162 36.2793 61.3791 36.0581 61.5388C35.9467 61.6161 35.8635 61.6885 35.8069 61.7351C35.7396 61.7883 35.7296 61.8207 35.7296 61.8207C35.7271 61.8182 35.7703 61.7958 35.8336 61.79C35.9051 61.7766 36.009 61.7575 36.1421 61.7334C36.4074 61.6835 36.7858 61.6111 37.2291 61.4922C37.6758 61.3799 38.1856 61.2194 38.7262 61.0273C39.2643 60.831 39.8282 60.5923 40.3796 60.322C41.4824 59.7847 42.522 59.0886 43.2007 58.4316C43.545 58.1089 43.7929 57.7953 43.9442 57.5633Z" fill="#A4F40F"/>
<path d="M51.348 59.6749C51.7156 60.1082 52.311 60.4899 52.998 60.6746C53.3407 60.7685 53.7033 60.8209 54.0659 60.8334C54.1291 60.8342 54.1923 60.8309 54.2564 60.8309C54.352 60.8958 54.4801 60.9873 54.6257 61.1054C54.7803 61.231 54.9517 61.389 55.0889 61.5645C55.1563 61.651 55.2162 61.745 55.2411 61.8231C55.2777 61.9545 55.2794 61.9537 55.3359 62.0743C55.3642 62.1275 55.395 62.1783 55.4274 62.2273C55.4582 62.2673 55.4865 62.2947 55.5164 62.328C55.7551 62.5775 56.0113 62.7338 56.2541 62.8794C56.497 63.0216 56.729 63.1372 56.9286 63.232C57.3287 63.4208 57.6023 63.5256 57.6023 63.5256C57.6023 63.5256 57.3594 63.3609 57.0168 63.0915C56.8463 62.9551 56.6508 62.7929 56.4571 62.6091C56.2658 62.4269 56.0628 62.2157 55.9431 62.0053C55.9297 61.9803 55.9123 61.952 55.9031 61.9304C55.9015 61.9146 55.8982 61.903 55.8923 61.8913C55.8823 61.883 55.8632 61.735 55.8699 61.7291C55.8557 61.5212 55.7917 61.3557 55.7268 61.2052C55.6678 61.0754 55.6021 60.9623 55.5355 60.8559C55.6844 60.8742 55.8399 60.8991 55.9871 60.9249C56.3132 60.9798 56.6334 61.0347 56.9436 61.0871C57.5757 61.1844 58.1811 61.2609 58.7068 61.2701C58.9688 61.2809 59.2108 61.2676 59.4237 61.2526C59.6358 61.2451 59.8221 61.2052 59.9726 61.1852C60.1231 61.1628 60.2396 61.1237 60.3186 61.107C60.3968 61.0862 60.4392 61.0746 60.4392 61.0746C60.4392 61.0746 60.2704 61.043 59.9743 60.9881C59.6815 60.9299 59.2732 60.8334 58.7924 60.6987C58.3109 60.5614 57.7553 60.3901 57.149 60.1988C56.8454 60.1082 56.5277 60.0142 56.1934 59.9335C55.8507 59.852 55.5272 59.7755 55.0972 59.7514C54.9816 59.7422 54.9068 59.7472 54.8211 59.7481L54.6689 59.7539L54.5525 59.7605C54.3961 59.7747 54.2431 59.7747 54.0909 59.7771C53.7873 59.7821 53.4929 59.758 53.2151 59.7156C52.6579 59.6333 52.1688 59.4453 51.7871 59.1908C51.4037 58.938 51.1284 58.6353 50.9504 58.4032C50.7757 58.1703 50.6926 58.0115 50.6926 58.0115C50.6926 58.0115 50.6726 58.1903 50.7425 58.498C50.804 58.8024 50.9695 59.2465 51.348 59.6749Z" fill="#A4F40F"/>
<path d="M33.4 78.3268C33.4009 78.3208 33.4009 78.3217 33.4009 78.3217C33.4 78.3234 33.4009 78.3276 33.3992 78.3276L33.4 78.3268Z" fill="#A4F40F"/>
<path d="M48.882 84.5743C48.5609 84.5627 48.2291 84.5502 47.8914 84.5369C47.5604 84.5228 47.2144 84.5011 46.9034 84.4687C46.7611 84.4521 46.6139 84.4346 46.4343 84.3963L46.1831 84.3448C46.0858 84.324 45.991 84.3057 45.8995 84.2974C45.5269 84.2441 45.1768 84.24 44.8374 84.24C44.1613 84.2475 43.545 84.3348 43.0202 84.4255C42.759 84.4795 42.5187 84.5203 42.3091 84.5802C42.0987 84.6342 41.9157 84.6833 41.7668 84.734C41.4674 84.8263 41.3002 84.9012 41.3002 84.9012C41.3002 84.9012 41.4791 84.9403 41.7876 84.9827C42.0962 85.0317 42.5345 85.0775 43.0543 85.1274C43.5674 85.1665 44.1663 85.2122 44.8075 85.2596C45.1202 85.2862 45.4462 85.3096 45.7531 85.3553C45.8321 85.3653 45.907 85.3761 45.9785 85.3919L46.238 85.4393C46.3977 85.4734 46.5973 85.4925 46.8019 85.5083C47.1853 85.5349 47.5371 85.5274 47.8922 85.5158C48.2432 85.4975 48.5859 85.475 48.9152 85.436C49.5748 85.3686 50.1827 85.2679 50.7017 85.1698C51.7397 84.9685 52.4158 84.7431 52.4158 84.7431C52.4158 84.7431 51.7072 84.6716 50.6601 84.63C50.1395 84.6126 49.5323 84.5943 48.882 84.5743Z" fill="#A4F40F"/>
<path d="M49.7369 89.4331C49.3793 89.2792 48.9793 89.0746 48.5285 88.8609C48.3006 88.7586 48.0636 88.6447 47.8057 88.5623C47.5479 88.4791 47.2884 88.4026 47.009 88.3544C46.8676 88.3269 46.7437 88.3178 46.6114 88.2995C46.4642 88.2854 46.3253 88.2829 46.1839 88.2795C45.9037 88.2895 45.6317 88.3336 45.3797 88.4043C45.1252 88.4675 44.8931 88.5673 44.6819 88.6704C44.469 88.7702 44.281 88.8892 44.1122 89.0014C43.7762 89.2293 43.5292 89.4597 43.367 89.6277C43.2048 89.7966 43.1258 89.9047 43.1258 89.9047C43.1258 89.9047 43.2356 89.829 43.4335 89.7109C43.6298 89.5911 43.9151 89.4298 44.2644 89.2676C44.6154 89.1087 45.0329 88.949 45.4878 88.8617C45.714 88.811 45.9511 88.8027 46.1881 88.7952C46.3054 88.8027 46.4276 88.8077 46.5407 88.8201C46.668 88.8401 46.8069 88.8551 46.9216 88.8817C47.4107 88.9599 47.8897 89.1245 48.3447 89.295C48.7996 89.4705 49.2462 89.6319 49.638 89.7242C50.028 89.8248 50.3624 89.8623 50.5936 89.8855C50.8264 89.898 50.9595 89.9047 50.9595 89.9047C50.9595 89.9047 50.8348 89.8589 50.6169 89.7816C50.4015 89.7009 50.0937 89.5895 49.7369 89.4331Z" fill="#A4F40F"/>
</svg>
