<svg width="100" height="100" viewBox="0 0 100 100" fill="none" xmlns="http://www.w3.org/2000/svg">
<path d="M75.3339 25.1626C65.2077 16.1034 49.7457 16.321 37.8973 21.5554C25.667 26.9588 16.5387 38.6133 16.5727 52.3216C16.5908 59.6045 19.4523 66.61 24.8012 71.59C29.7778 76.2231 36.5985 78.9212 43.423 78.292C44.5612 78.187 44.6011 76.5714 43.423 76.642C31.4559 77.3594 21.4099 67.565 20.0855 55.9815C18.6936 43.806 25.5703 32.5361 35.9732 26.6005C46.0002 20.8796 59.5379 19.3847 69.6292 25.7822C78.6418 31.4958 81.9959 43.5627 79.3453 53.5642C77.7884 59.4395 73.9844 65.1007 69.2703 68.919C66.7774 70.9382 64.0062 72.579 61.0396 73.7962C58.0489 75.0237 54.9031 75.6606 51.7418 76.2682C50.6092 76.4858 50.8882 78.1467 52.0152 78.0881C58.0798 77.7737 64.2916 75.2138 69.3332 71.9024C74.636 68.4193 78.9558 64.0343 81.5953 58.2041C86.5059 47.3577 84.3531 33.2316 75.3339 25.1626Z" fill="#A4F40F"/>
<path d="M61.8734 37.9737C57.8369 32.6753 50.4284 31.1411 44.3686 33.4809C38.3006 35.8238 34.3289 41.7228 34.5807 48.2558C34.8448 55.1116 40.0788 60.7066 46.7722 61.8453C46.8567 61.8597 46.8982 61.7502 46.8096 61.723C41.7466 60.1701 37.8853 55.7041 37.0753 50.4611C36.264 45.2088 38.7536 39.6301 43.4234 37.0097C48.0229 34.4291 53.8511 34.8611 57.8384 38.4128C61.5712 41.7378 62.9163 47.1891 61.1498 51.8748C60.1855 54.4326 58.0649 56.431 55.8628 57.9606C54.5417 58.8782 53.3155 59.6614 51.6314 59.5758C50.2179 59.5039 48.7225 59.2873 47.3414 58.9786C46.5642 58.8048 46.1802 59.8964 46.9968 60.1046C49.882 60.8404 52.5751 59.8679 55.4084 59.2923C58.1475 58.7359 60.4373 56.9625 62.0397 54.7222C65.4958 49.8905 65.4991 42.7331 61.8734 37.9737Z" fill="#A4F40F"/>
<path d="M54.6128 47.2176C54.3215 42.8052 47.9908 41.3319 45.7076 45.0567C45.6937 45.0754 45.6785 45.0926 45.6648 45.1115C44.4764 46.7475 44.7427 48.9762 45.9675 50.5072C48.7701 54.0105 54.915 51.7945 54.6128 47.2176Z" fill="#A4F40F"/>
<path d="M49.8947 65.7082C49.8945 64.6567 49.8065 63.6179 49.5117 62.6691C49.4451 62.4547 49.0828 62.3932 48.9709 62.6055C48.1418 64.1788 47.8977 66.145 47.6631 67.9509C44.8763 75.3238 43.0226 83.5327 43.471 91.4086C43.571 93.1678 45.984 93.3731 46.6925 92.064C47.5041 91.9474 48.2871 91.414 48.4206 90.4858C49.532 82.7597 50.6435 75.0333 51.7549 67.3072C51.9236 66.1325 50.9127 65.6263 49.8947 65.7082Z" fill="#A4F40F"/>
<path d="M27.5477 41.9631C27.3761 41.9762 27.2042 41.9889 27.0323 42.0018C28.0177 41.4074 27.2019 39.7228 25.8281 39.8943C20.2802 40.5862 14.7405 41.3501 9.19781 42.083C8.72866 42.1451 8.35023 42.4809 8.15116 42.8996C6.31921 43.2026 4.49122 43.5233 2.67153 43.8821C0.84042 44.2433 1.26306 47.0517 3.11929 46.8624C4.51073 46.7204 5.90176 46.5731 7.293 46.4268C7.39513 47.0874 7.92489 47.6965 8.77682 47.6453C9.35619 47.6104 9.93556 47.5743 10.5147 47.5392C10.6814 48.0215 11.1093 48.408 11.7451 48.3396C12.6352 48.2802 13.5228 48.1935 14.4088 48.0907C18.0544 47.7889 21.7233 47.6372 25.3673 47.3937C26.1656 47.3403 26.4807 46.628 26.2918 46.102C26.6678 45.5484 26.4951 44.7312 25.7307 44.5489C26.4471 44.4255 27.1641 44.3058 27.8826 44.1946C29.2773 43.9794 28.9273 41.858 27.5477 41.9631Z" fill="#A4F40F"/>
<path d="M54.7491 10.0728C54.7663 9.63875 54.7827 9.20446 54.8014 8.77078C54.8865 6.79005 51.5633 6.46131 51.0798 8.31695C50.9669 8.74979 50.8523 9.18201 50.739 9.61465C49.6411 9.0644 47.9015 9.40665 47.6837 10.6902C47.3358 12.7406 47.3802 14.8798 47.2866 16.9559C47.192 19.0495 47.1419 21.1416 47.0971 23.2369C47.0618 24.8884 49.2552 25.4915 50.422 24.6835C50.4228 25.1471 50.4218 25.6107 50.4291 26.0739C50.4334 26.3644 50.5001 26.61 50.6097 26.8151C50.5472 27.5108 50.4934 28.2065 50.4511 28.9023C50.3583 30.4287 52.7293 30.5249 53.1835 29.2329C53.1906 29.2345 53.1974 29.2364 53.2045 29.2381C53.4154 28.3075 53.6053 27.371 53.782 26.4307C53.822 26.3195 53.8521 26.2009 53.8696 26.0741C53.8912 25.9162 53.9127 25.7583 53.9345 25.6003C54.7713 20.913 55.2699 16.1329 55.9409 11.4397C56.0471 10.6948 55.4501 10.2183 54.7491 10.0728Z" fill="#A4F40F"/>
<path d="M96.8306 37.9348C89.1545 38.1807 81.619 39.4541 74.3421 41.9343C72.7225 42.4862 73.4532 44.7429 75.0537 44.2598C75.1294 44.2369 75.2054 44.216 75.2812 44.1933C75.4884 44.5069 75.7856 44.766 76.1624 44.9104C75.0875 45.1496 74.0122 45.3888 72.9378 45.6286C71.911 45.8578 71.1807 46.9121 71.4761 47.9474C71.806 49.1027 73.0175 49.3928 74.0502 49.264C75.9527 49.0265 77.8544 48.7819 79.7557 48.5336C79.7148 48.7767 79.7279 49.0369 79.8113 49.3093C80.1204 50.3167 81.4282 51.0116 82.4456 50.6566C86.3816 49.2837 90.3075 47.8759 94.2665 46.5707C95.6142 46.1264 95.9233 45.0978 95.566 44.2573C95.599 44.25 95.632 44.2423 95.6652 44.2351C97.3043 43.8735 97.4436 42.0567 96.5114 41.1549C96.7708 41.1011 97.0309 41.0499 97.2904 40.9955C99.1952 40.5965 98.725 37.8742 96.8306 37.9348Z" fill="#A4F40F"/>
</svg>
