<svg width="100" height="100" viewBox="0 0 100 100" fill="none" xmlns="http://www.w3.org/2000/svg">
<path d="M54.261 60.4236H49.6597C47.8428 60.4236 46.3564 61.9099 46.3564 63.7268V67.905C46.3564 69.7219 47.8428 71.2082 49.6597 71.2082H54.261C56.0779 71.2082 57.5642 69.7219 57.5642 67.905V63.7268C57.5642 61.9107 56.0779 60.4236 54.261 60.4236Z" fill="#A4F40F"/>
<path d="M80.7806 62.3436C80.1948 62.129 79.5458 62.4287 79.3304 63.0145C79.1158 63.5996 79.4155 64.2494 80.0013 64.4647C83.4679 65.7387 87.1755 69.7482 86.5799 72.8143C86.11 75.2343 83.9016 77.3651 80.0171 79.1466C73.2691 82.2428 65.3992 83.8579 55.3999 84.1869C68.9772 82.3881 82.8301 76.2756 81.4244 71.675C79.9712 66.9186 75.8856 66.9246 74.059 67.1852C74.2683 67.0044 74.4106 66.7567 74.446 66.4796C74.9874 62.3293 73.443 56.9412 73.3768 56.7138C73.2842 56.3945 73.056 56.1325 72.7533 55.9977C72.4506 55.8607 72.1035 55.8667 71.8031 56.0105C70.8491 56.4683 69.7423 56.8636 68.6075 57.2047C68.015 53.0182 63.245 47.5043 60.633 44.5663C57.8764 41.4649 57.1867 38.8227 57.646 34.3434C58.1053 29.8633 56.7274 29.6336 48.2272 27.566C39.7271 25.4984 42.3692 21.2487 35.3622 19.7548C30.0147 18.6156 24.2704 23.6943 21.6937 26.3184C22.3767 23.4963 23.4707 20.9573 25.6528 18.9883C30.2383 14.8516 36.347 15.0187 39.6028 17.5667C40.3354 18.1405 40.983 18.8385 41.6697 19.5786C42.5808 20.5605 43.5227 21.5755 44.7267 22.3465C46.5865 23.5384 48.7144 23.9277 50.7722 24.3034C52.6975 24.6558 54.5167 24.9879 56.0008 25.9374C58.5081 27.5381 59.6104 30.5199 60.7775 33.677C61.166 34.7281 61.5674 35.8139 62.0244 36.844C62.9837 39.0027 63.7291 39.7511 64.519 40.5432C65.104 41.1313 65.7094 41.7389 66.549 43.1816C67.1212 44.165 67.7966 45.0934 68.4494 45.9901C70.1195 48.2859 71.5614 50.2684 71.1239 52.6297C71.0102 53.2426 71.4153 53.833 72.0282 53.9459C72.6411 54.0626 73.2307 53.6545 73.3444 53.0416C73.9596 49.7248 72.0869 47.1512 70.2761 44.6612C69.6564 43.8096 69.0149 42.9286 68.5006 42.0439C67.515 40.3505 66.7733 39.6058 66.119 38.9492C65.4263 38.2535 64.8796 37.7038 64.0898 35.9253C63.6614 34.9616 63.2894 33.9571 62.8963 32.8932C61.6517 29.5245 60.3641 26.042 57.2175 24.0324C55.3585 22.845 53.2336 22.4557 51.1788 22.08C49.2512 21.7276 47.4298 21.3948 45.9443 20.4438C44.9835 19.8279 44.1778 18.9597 43.3254 18.0418C42.6094 17.2701 41.8685 16.4719 40.995 15.7882C35.9148 11.8096 28.4342 13.4367 24.1386 17.3107C19.9423 21.0958 19.1954 26.5021 18.4733 31.7299L18.3227 32.8096C18.2361 33.4225 18.6585 33.991 19.2707 34.0836C19.8844 34.174 20.4559 33.7598 20.556 33.1499C21.0748 29.9785 24.6852 27.4787 28.136 27.9086C31.4453 28.3205 34.485 31.0966 35.5286 34.6619C36.4833 37.9237 35.9156 41.7939 33.9737 45.2809C33.5649 46.015 33.1108 46.716 32.6297 47.4584C32.0183 48.4011 31.3873 49.3754 30.8587 50.4205C29.6721 52.7698 29.3212 55.0392 29.8445 56.9826C29.8724 57.0865 29.9213 57.1783 29.9748 57.2664C29.3822 58.7814 28.4847 61.672 28.7783 64.6537C28.6616 64.6085 28.5366 64.5777 28.4041 64.5739C24.8245 64.4715 20.3708 64.345 16.6195 66.2161C12.8457 68.0985 9.85572 72.7405 11.6056 76.9586C13.1333 80.6398 17.3574 82.0741 20.8662 82.9129C30.8625 85.3021 41.1276 86.5106 51.41 86.5106C51.9995 86.5106 52.5914 86.5068 53.1817 86.4985C64.589 86.3442 73.4152 84.6606 80.9583 81.1992C85.5423 79.0962 88.1799 76.4202 88.7966 73.245C89.7258 68.4652 84.6463 63.7645 80.7806 62.3436ZM59.9636 61.7691V69.8627C59.9636 71.8542 58.344 73.4739 56.3524 73.4739H47.5699C45.5783 73.4739 43.9587 71.8542 43.9587 69.8627V61.7691C43.9587 59.7776 45.5783 58.1579 47.5699 58.1579H56.3524C58.344 58.1579 59.9636 59.7783 59.9636 61.7691ZM32.0145 58.2686C35.5542 59.9952 39.9981 60.6359 41.7819 60.8347C41.7329 61.1397 41.6998 61.4506 41.6998 61.7699V69.8634C41.6998 70.0863 41.7149 70.3062 41.7397 70.523C34.0287 70.008 31.6237 66.445 31.2992 65.8953C30.48 63.08 31.4039 59.8943 32.0145 58.2686ZM72.2594 65.6898C70.8099 66.6483 65.9488 69.7437 62.1457 70.7647C62.1916 70.4696 62.2225 70.1699 62.2225 69.8627V61.7691C62.2225 61.4823 62.1946 61.2014 62.1547 60.9251C64.0936 60.6299 68.2167 59.898 71.5237 58.5932C71.9032 60.2376 72.4649 63.2095 72.2594 65.6898Z" fill="#A4F40F"/>
<path d="M66.2734 27.2632C66.6498 27.2602 67.0263 27.2715 67.4035 27.276C67.4171 27.276 67.4269 27.2835 67.4404 27.2828C67.5127 27.2873 67.585 27.2873 67.658 27.2903C67.6565 27.5569 67.6558 27.8234 67.6543 28.09C67.6535 28.2669 67.6738 28.4363 67.6874 28.6065C67.6897 28.7526 67.6874 28.8986 67.6897 29.0455C67.6957 29.443 68.024 29.7819 68.426 29.7819C68.8206 29.7819 69.1685 29.4445 69.1632 29.0455C69.1655 28.8986 69.164 28.7526 69.1655 28.6057C69.179 28.4356 69.1993 28.2661 69.1986 28.09C69.1971 27.84 69.1963 27.59 69.1948 27.34C69.6097 27.346 70.0253 27.3506 70.4417 27.3513C70.5569 27.3551 70.6699 27.3287 70.7745 27.282C70.8355 27.2813 70.8958 27.2828 70.956 27.282C71.1984 27.285 71.4228 27.1488 71.5704 26.9568C71.6706 26.8272 71.7413 26.6767 71.7338 26.505C71.7255 26.3265 71.6547 26.1692 71.5538 26.0374C71.4146 25.8537 71.209 25.7242 70.956 25.7272C70.8973 25.7264 70.8385 25.7279 70.7798 25.7272C70.6774 25.6805 70.5637 25.6541 70.4417 25.6579C70.0238 25.6587 69.6082 25.6632 69.1918 25.6692C69.1918 25.0563 69.1918 24.4426 69.1918 23.8297C69.1911 23.4156 68.8402 23.064 68.426 23.064C68.0112 23.064 67.6595 23.4141 67.6603 23.8297C67.661 24.4592 67.6603 25.0894 67.6603 25.7189C67.5865 25.7227 67.5135 25.7227 67.4404 25.7272C67.4284 25.7264 67.4171 25.734 67.4043 25.734C67.0271 25.7392 66.6498 25.7498 66.2734 25.7475C66.0384 25.746 65.8208 25.8763 65.677 26.0615C65.5776 26.1887 65.5076 26.3378 65.5151 26.505C65.5226 26.6774 65.5912 26.8303 65.6891 26.9583C65.8253 27.139 66.0256 27.2647 66.2734 27.2632Z" fill="#A4F40F"/>
<path d="M82.4155 56.7882C82.6798 56.7867 82.9441 56.7935 83.2092 56.7972C83.2182 56.7972 83.2257 56.8025 83.2355 56.8017C83.2867 56.8048 83.3372 56.8047 83.3884 56.8078C83.3876 56.9952 83.3869 57.182 83.3853 57.3695C83.3846 57.4937 83.3989 57.6127 83.4087 57.7316C83.4102 57.834 83.4087 57.9364 83.4102 58.0396C83.414 58.3189 83.6451 58.5569 83.9275 58.5569C84.2046 58.5569 84.4485 58.3205 84.4448 58.0396C84.4463 57.9364 84.4448 57.834 84.4463 57.7309C84.4561 57.6112 84.4704 57.4922 84.4696 57.3687C84.4689 57.1933 84.4681 57.0178 84.4666 56.8424C84.758 56.8469 85.0494 56.8499 85.3423 56.8507C85.4229 56.8529 85.5027 56.8349 85.5765 56.8017C85.6186 56.8017 85.6615 56.8025 85.7037 56.8017C85.8739 56.804 86.0312 56.7084 86.1352 56.5728C86.2052 56.4825 86.2549 56.3756 86.2496 56.2558C86.2443 56.1309 86.1939 56.0202 86.1231 55.9276C86.0252 55.798 85.8807 55.7077 85.7037 55.7099C85.6623 55.7099 85.6216 55.7107 85.5802 55.7099C85.5079 55.6768 85.4289 55.658 85.3423 55.661C85.0494 55.6618 84.7573 55.6648 84.4651 55.6685C84.4651 55.2386 84.4651 54.8079 84.4651 54.3772C84.4644 54.0866 84.2181 53.8396 83.9275 53.8396C83.6361 53.8396 83.3899 54.0858 83.3899 54.3772C83.3906 54.8192 83.3899 55.2612 83.3899 55.7032C83.3387 55.7054 83.2867 55.7062 83.2355 55.7084C83.2265 55.7077 83.2189 55.713 83.2099 55.713C82.9449 55.7167 82.6806 55.7243 82.4155 55.722C82.2506 55.7205 82.0978 55.8124 81.9969 55.9426C81.9269 56.0315 81.8779 56.1361 81.8832 56.2543C81.8885 56.3756 81.9367 56.4825 82.0052 56.5721C82.1016 56.7008 82.2424 56.7897 82.4155 56.7882Z" fill="#A4F40F"/>
<path d="M22.325 52.6047C21.9975 52.6092 21.67 52.6182 21.3424 52.616C21.1391 52.6145 20.9501 52.7274 20.8251 52.8886C20.7393 52.9985 20.6783 53.128 20.6851 53.2741C20.6919 53.4239 20.7514 53.5564 20.8364 53.6679C20.9547 53.8245 21.1286 53.9337 21.3432 53.9322C21.67 53.9299 21.9975 53.9389 22.3243 53.9435C22.3356 53.9435 22.3446 53.9502 22.3567 53.9495C22.4199 53.9532 22.4824 53.9532 22.5457 53.957C22.5449 54.1882 22.5434 54.4201 22.5419 54.6512C22.5411 54.8048 22.5592 54.9517 22.5705 55.1C22.572 55.2265 22.5705 55.3537 22.5728 55.481C22.578 55.8266 22.8627 56.121 23.212 56.121C23.5546 56.121 23.8573 55.8281 23.852 55.481C23.8543 55.3537 23.8528 55.2265 23.8543 55.0992C23.8663 54.9517 23.8837 54.8041 23.8829 54.6512C23.8822 54.4344 23.8806 54.2175 23.8799 53.9999C24.2406 54.0052 24.6005 54.009 24.9626 54.0097C25.0628 54.0127 25.1607 53.9901 25.2518 53.9495C25.3045 53.9495 25.3572 53.9502 25.4099 53.9495C25.62 53.9525 25.815 53.8335 25.943 53.6671C26.0303 53.5549 26.0913 53.4239 26.0846 53.2748C26.0778 53.1197 26.016 52.9834 25.9287 52.869C25.8075 52.7094 25.629 52.5972 25.4099 52.6002C25.3587 52.5994 25.3083 52.6002 25.2571 52.6002C25.1682 52.5595 25.0696 52.5369 24.9634 52.5399C24.6005 52.5407 24.2398 52.5445 23.8784 52.5497C23.8784 52.0174 23.8776 51.485 23.8784 50.9527C23.8776 50.5935 23.5734 50.2878 23.2135 50.2878C22.8536 50.2878 22.5487 50.592 22.5487 50.9527C22.5494 51.4993 22.5487 52.046 22.5487 52.5926C22.4847 52.5957 22.4214 52.5957 22.3574 52.5994C22.3454 52.5987 22.3356 52.6047 22.325 52.6047Z" fill="#A4F40F"/>
</svg>
