<svg width="32" height="32" viewBox="0 0 32 32" fill="none" xmlns="http://www.w3.org/2000/svg">
<path d="M15.9795 0.246094C24.68 0.246094 31.7334 7.29945 31.7334 16C31.7334 24.7005 24.68 31.7539 15.9795 31.7539C8.87953 31.7538 2.87657 27.0524 0.90918 20.5957L6.87207 23.0566C7.16755 24.3994 8.09271 25.5764 9.45215 26.1426C10.5219 26.5871 11.7249 26.5889 12.7959 26.1475C13.8667 25.706 14.7192 24.8581 15.165 23.7891C15.4029 23.2197 15.5168 22.6061 15.501 21.9893L21.0117 18.0479L21.1475 18.0508C24.4482 18.0506 27.1309 15.3589 27.1309 12.0537C27.1306 8.74868 24.453 6.06764 21.1475 6.06055C17.8482 6.06055 15.1633 8.74856 15.1631 12.0537H15.168L15.1699 12.1318L11.3145 17.7314C10.6904 17.7029 10.0643 17.813 9.46973 18.0576C9.21085 18.1628 8.96383 18.2955 8.73242 18.4521L0.266602 14.9629L0.265625 14.9639C0.263581 14.9604 0.261814 14.9566 0.259766 14.9531C0.799405 6.74112 7.63114 0.246267 15.9795 0.246094ZM9.9375 18.9502C10.7144 18.6548 11.5977 18.6451 12.4238 18.9883C13.2607 19.3344 13.9005 19.9859 14.2432 20.8193C14.5858 21.6527 14.5837 22.5714 14.2383 23.4014L14.1719 23.5605C13.4037 25.174 11.498 25.9135 9.83496 25.2207C9.07317 24.9005 8.45524 24.3113 8.09961 23.5654L10.0479 24.373C10.3488 24.4983 10.6721 24.563 10.998 24.5635C11.3237 24.5639 11.6462 24.5001 11.9473 24.376C12.2486 24.2517 12.5231 24.0691 12.7539 23.8389C12.9847 23.6087 13.1679 23.3352 13.293 23.0342C13.5462 22.426 13.5474 21.7421 13.2969 21.1328C13.0463 20.5235 12.564 20.0382 11.9561 19.7842L9.9375 18.9502ZM21.1523 8.0625C22.2101 8.0651 23.2243 8.48593 23.9717 9.23438C24.719 9.98271 25.1393 10.9971 25.1406 12.0547C25.1397 13.1125 24.7191 14.1273 23.9717 14.876C23.2242 15.6246 22.2103 16.0462 21.1523 16.0488C20.0947 16.0459 19.0812 15.6245 18.334 14.876C17.5867 14.1273 17.1669 13.1124 17.166 12.0547C17.1673 10.9974 17.5871 9.98363 18.334 9.23535C19.0812 8.48697 20.0948 8.0654 21.1523 8.0625ZM21.1582 9.04785C20.3637 9.04921 19.6022 9.36625 19.041 9.92871C18.4797 10.4914 18.1644 11.2541 18.165 12.0488C18.1647 12.8434 18.4797 13.6055 19.041 14.168C19.6023 14.7303 20.3637 15.0476 21.1582 15.0488C21.9531 15.048 22.7157 14.7314 23.2773 14.1689C23.839 13.6065 24.1537 12.8437 24.1533 12.0488C24.1533 10.3922 22.8099 9.04785 21.1582 9.04785Z" fill="white"/>
</svg>
