<svg width="183" height="45" viewBox="0 0 183 45" fill="none" xmlns="http://www.w3.org/2000/svg">
<path d="M37.4124 1.36346C38.7911 1.36346 39.7708 2.67979 39.3818 3.99352L35.167 19.8168C34.9085 20.6897 34.1021 21.2893 33.186 21.2893H24.5792C23.0852 21.2893 22.3891 20.859 22.9028 18.967L24.674 12.4119C24.715 12.2937 24.8269 12.2142 24.9528 12.2142H27.3345C27.5289 12.2142 27.6701 12.3979 27.6191 12.5842L26.9963 14.8611C26.9454 15.0474 27.0868 15.2308 27.2812 15.2308H31.1979C31.3311 15.2308 31.448 15.142 31.4828 15.0142L32.2154 12.3212C32.266 12.135 32.1247 11.9519 31.9305 11.9518H28.7208C28.5273 11.9518 28.3863 11.7699 28.4356 11.5841L29.1325 8.96204C29.1667 8.83346 29.2838 8.74375 29.4177 8.7437H32.9495C33.0829 8.74362 33.1998 8.65475 33.2344 8.5268L33.9904 5.72934C34.0406 5.54327 33.8994 5.36057 33.7055 5.36048H29.7966C29.6632 5.36048 29.5463 5.44942 29.5116 5.57739L28.8219 8.12503C28.7873 8.25298 28.6704 8.34189 28.537 8.34194H26.1442C25.9412 8.34189 25.7989 8.14287 25.8656 7.95248L27.0631 3.51593C27.1297 3.32559 26.9874 3.12689 26.7845 3.12675H23.001C22.8745 3.12679 22.7621 3.20672 22.7215 3.32563L18.4546 19.0968C18.0093 20.4071 16.7722 21.2893 15.3798 21.2893H9.28238C7.90373 21.2893 6.91215 19.973 7.30114 18.6593L11.5676 2.83602C11.826 1.96308 12.6327 1.36346 13.5488 1.36346H37.4124Z" fill="#A4F40F"/>
<path d="M31.371 23.7506C32.7496 23.7506 33.7294 25.0669 33.3404 26.3806L29.1256 42.2039C28.8671 43.0768 28.0604 43.6764 27.1443 43.6764H3.24068C1.86208 43.6764 0.870731 42.3601 1.25973 41.0464L5.52615 25.2231C5.78464 24.3502 6.59106 23.7506 7.5071 23.7506L15.5892 23.7534C16.3649 23.7537 16.9319 24.4895 16.6976 25.2239C15.1378 30.1117 13.4382 30.2305 8.01332 30.2333C7.81505 30.2334 7.6377 30.3644 7.58404 30.554L6.61736 33.9695C6.53801 34.2499 6.75196 34.5275 7.04465 34.545C11.924 34.837 11.8471 38.8221 11.4223 41.211C11.3733 41.4864 11.5829 41.7429 11.8644 41.7429H17.1341C17.3279 41.7429 17.4993 41.6155 17.5597 41.4326C19.2174 36.4109 21.9908 34.602 27.0318 34.5303C27.221 34.5276 27.3909 34.4086 27.4521 34.2308L28.6285 30.8152C28.7267 30.53 28.5107 30.2335 28.2072 30.2333C21.3384 30.2292 20.0119 30.0852 21.2469 25.0521C21.4354 24.2841 22.1404 23.7538 22.9363 23.7535L31.371 23.7506Z" fill="#6751F3"/>
<path d="M18.0526 29.1063C18.0526 31.6362 19.3308 32.5179 21.5172 32.6746C18.1662 33.119 16.1602 35.3314 15.1427 38.234C15.026 36.4715 15.0976 33.7563 11.5363 33.0398C16.4133 33.4368 17.6806 30.3303 18.0526 29.1063Z" fill="#6751F3"/>
<path d="M34.1716 43.6764C32.793 43.6764 31.8132 42.3601 32.2022 41.0464L36.4171 25.2231C36.6755 24.3502 37.482 23.7506 38.398 23.7506H47.0048C48.4988 23.7506 49.1949 24.1809 48.6812 26.0729L46.9101 32.628C46.8691 32.7462 46.7571 32.8257 46.6312 32.8257H44.2495C44.0551 32.8257 43.9139 32.642 43.9649 32.4557L44.5878 30.1788C44.6387 29.9924 44.4972 29.809 44.3028 29.809H40.3862C40.2529 29.8091 40.136 29.8979 40.1012 30.0257L39.3686 32.7187C39.318 32.9049 39.4594 33.088 39.6535 33.0881H42.8632C43.0567 33.0881 43.1978 33.27 43.1484 33.4558L42.4515 36.0779C42.4174 36.2064 42.3002 36.2961 42.1663 36.2962H38.6345C38.5012 36.2963 38.3842 36.3851 38.3496 36.5131L37.5937 39.3106C37.5434 39.4966 37.6846 39.6793 37.8786 39.6794H41.7875C41.9209 39.6794 42.0377 39.5905 42.0724 39.4625L42.7621 36.9149C42.7967 36.7869 42.9136 36.698 43.047 36.698H45.4399C45.6428 36.698 45.7851 36.897 45.7185 37.0874L44.5209 41.524C44.4543 41.7143 44.5967 41.913 44.7995 41.9131H48.5831C48.7095 41.9131 48.822 41.8332 48.8625 41.7143L53.1295 25.9431C53.5747 24.6328 54.8119 23.7506 56.2042 23.7506H62.3017C63.6803 23.7506 64.6719 25.0669 64.2829 26.3806L60.0165 42.2039C59.758 43.0768 58.9513 43.6764 58.0352 43.6764H34.1716Z" fill="#A4F40F"/>
<path d="M40.213 21.2893C38.8344 21.2893 37.8546 19.973 38.2436 18.6593L42.4585 2.83602C42.717 1.96308 43.5236 1.36347 44.4397 1.36347H68.3434C69.722 1.36354 70.7133 2.67983 70.3243 3.99352L66.0579 19.8168C65.7994 20.6897 64.993 21.2893 64.0769 21.2893L55.9948 21.2864C55.2192 21.2862 54.6521 20.5504 54.8865 19.816C56.4463 14.9282 58.1459 14.8093 63.5707 14.8065C63.769 14.8064 63.9463 14.6755 64 14.4859L64.9667 11.0703C65.046 10.79 64.8321 10.5124 64.5394 10.4949C59.6601 10.2029 59.737 6.21782 60.1618 3.82885C60.2107 3.55354 60.0012 3.29702 59.7197 3.29702H54.4499C54.2561 3.29702 54.0847 3.42435 54.0244 3.60726C52.3667 8.62901 49.5932 10.4379 44.5522 10.5096C44.3631 10.5123 44.1931 10.6313 44.1319 10.8091L42.9556 14.2247C42.8573 14.5099 43.0733 14.8064 43.3768 14.8066C50.2456 14.8107 51.5721 14.9547 50.3371 19.9878C50.1487 20.7558 49.4436 21.2861 48.6477 21.2864L40.213 21.2893Z" fill="#6751F3"/>
<path d="M53.5314 15.9336C53.5314 13.4036 52.2532 12.522 50.0668 12.3653C53.4179 11.9209 55.4238 9.70852 56.4413 6.80585C56.5581 8.56837 56.4864 11.2836 60.0478 12C55.1707 11.6031 53.9035 14.7096 53.5314 15.9336Z" fill="#6751F3"/>
<path d="M96.5351 3.21956C96.522 3.27795 96.4902 3.33054 96.4445 3.36944L87.2109 11.2191C87.1069 11.3075 87.0832 11.4578 87.1549 11.5735L92.7133 20.5492C92.7511 20.6103 92.7635 20.6837 92.7478 20.7538L92.6605 21.144C92.6323 21.2704 92.5195 21.3602 92.3892 21.3602H88.0165C87.9202 21.3602 87.8308 21.3108 87.7802 21.2295L83.3413 14.1113C83.2576 13.977 83.0776 13.9397 82.9468 14.0297L78.7977 16.8819C78.7438 16.919 78.7049 16.9737 78.6877 17.0365L77.5589 21.1566C77.526 21.2768 77.4161 21.3602 77.2906 21.3602H73.0619C72.879 21.3602 72.7459 21.1878 72.7934 21.0124L77.7246 2.79821C77.7572 2.67761 77.8673 2.59379 77.9931 2.59379H82.222C82.4046 2.59379 82.5376 2.76576 82.4906 2.94105L80.5222 10.2747C80.4527 10.5338 80.7583 10.7293 80.9671 10.5593L90.6735 2.65637C90.7232 2.61591 90.7855 2.59379 90.8497 2.59379H96.3285C96.5064 2.59379 96.6385 2.75738 96.5999 2.92982L96.5351 3.21956Z" fill="white"/>
<path d="M138.921 3.218C138.909 3.27737 138.879 3.3315 138.834 3.3721L127.859 13.2752C127.82 13.3107 127.792 13.3568 127.778 13.4078L125.676 21.1706C125.643 21.2912 125.533 21.375 125.407 21.375H121.179C120.996 21.375 120.863 21.2029 120.91 21.0275L123.048 13.0847C123.066 13.0204 123.059 12.9521 123.03 12.8923L118.363 3.39629C118.335 3.34011 118.328 3.27628 118.341 3.21526L118.432 2.81002C118.46 2.68368 118.573 2.59379 118.703 2.59379H122.89C123 2.59379 123.1 2.65812 123.144 2.75791L125.938 9.00989C126.014 9.18022 126.234 9.22831 126.375 9.10527L133.754 2.66253C133.805 2.61823 133.87 2.59379 133.938 2.59379H138.703C138.877 2.59379 139.008 2.75044 138.976 2.9202L138.921 3.218Z" fill="white"/>
<path d="M143.678 21.6107C140.616 21.6107 138.352 21.1496 136.885 20.2274C135.442 19.2864 134.902 17.9691 135.264 16.2753C135.337 15.9365 135.479 15.5131 135.69 15.0049L135.72 14.9367C135.774 14.8119 135.906 14.7226 136.038 14.7226H140.941C141.094 14.7226 141.178 14.8595 141.116 15.0049C141.034 15.1931 140.983 15.3343 140.963 15.4284C140.822 16.0871 141.114 16.5952 141.839 16.9528C142.568 17.2915 143.683 17.4609 145.183 17.4609C148.142 17.4609 149.848 16.934 150.299 15.8801L150.363 15.7078C150.369 15.6909 150.377 15.6744 150.385 15.6579C150.413 15.6025 150.437 15.526 150.458 15.4284C150.526 15.1084 150.395 14.8544 150.066 14.6662C149.761 14.4592 149.242 14.2898 148.51 14.158L143.772 13.3958C141.983 13.1135 140.688 12.5866 139.887 11.815C139.086 11.0433 138.811 10.0741 139.061 8.90729C139.145 8.51207 139.263 8.1545 139.413 7.83456L139.535 7.55226C140.272 5.83965 141.586 4.55049 143.476 3.68478C145.392 2.80025 147.86 2.35798 150.881 2.35798C153.861 2.35798 156.066 2.80966 157.496 3.71301C158.947 4.61636 159.497 5.8867 159.146 7.52403C159.062 7.91925 158.94 8.29565 158.782 8.65322L158.769 8.67822C158.712 8.79662 158.584 8.87906 158.458 8.87906H153.542C153.418 8.87906 153.345 8.77283 153.387 8.65322C153.424 8.57794 153.46 8.45562 153.496 8.28624C153.75 7.10058 152.449 6.50776 149.592 6.50776C146.797 6.50776 145.207 6.97826 144.821 7.91925L144.747 8.11686C144.593 8.45562 144.658 8.7285 144.942 8.93552C145.227 9.14254 145.756 9.31192 146.529 9.44366L151.329 10.2059C153.175 10.507 154.507 11.0528 155.325 11.8432C156.166 12.6148 156.46 13.5934 156.207 14.7791C156.134 15.1178 156 15.5037 155.805 15.9365L155.646 16.247C154.898 18.0161 153.522 19.3523 151.521 20.2557C149.519 21.159 146.905 21.6107 143.678 21.6107Z" fill="white"/>
<path d="M115.84 2.59379C116.023 2.59379 116.156 2.76599 116.108 2.94135L115.192 6.33882C115.16 6.45956 115.05 6.54352 114.924 6.54352H104.64C104.514 6.54352 104.404 6.62778 104.372 6.74882L103.606 9.61613C103.559 9.79135 103.692 9.96308 103.874 9.96308H113.83C114.013 9.96308 114.146 10.1355 114.099 10.3109L113.194 13.6553C113.161 13.776 113.051 13.8598 112.925 13.8598H102.69C102.565 13.8598 102.456 13.9427 102.422 14.0624L101.589 17.0609C101.54 17.2368 101.673 17.4105 101.857 17.4105H111.811C111.993 17.4105 112.126 17.582 112.08 17.7571L111.174 21.1691C111.141 21.2904 111.031 21.3749 110.905 21.3748L95.5777 21.3606C95.3948 21.3604 95.2619 21.1878 95.3096 21.0124L100.268 2.79784C100.301 2.67742 100.411 2.59379 100.537 2.59379H115.84Z" fill="white"/>
<path d="M76.8866 42.4136C73.8246 42.4136 71.56 41.9525 70.0927 41.0303C68.6501 40.0893 68.11 38.7719 68.4725 37.0781C68.545 36.7394 68.6869 36.3159 68.8984 35.8078L68.928 35.7395C68.9819 35.6147 69.1144 35.5255 69.2457 35.5255H74.1487C74.3017 35.5255 74.3866 35.6624 74.3237 35.8078C74.2423 35.996 74.1916 36.1371 74.1715 36.2312C74.0305 36.8899 74.3225 37.3981 75.0474 37.7556C75.7764 38.0944 76.891 38.2638 78.3911 38.2638C81.3504 38.2638 83.0558 37.7368 83.5074 36.6829L83.5711 36.5107C83.5774 36.4938 83.5854 36.4773 83.5935 36.4608C83.6208 36.4054 83.6448 36.3288 83.6657 36.2312C83.7342 35.9113 83.6036 35.6572 83.2739 35.469C82.9689 35.262 82.4503 35.0926 81.7181 34.9609L76.98 34.1987C75.1909 33.9164 73.8959 33.3894 73.0952 32.6178C72.2944 31.8462 72.0189 30.877 72.2686 29.7101C72.3532 29.3149 72.4708 28.9574 72.6215 28.6374L72.7436 28.3551C73.48 26.6425 74.7936 25.3533 76.6846 24.4876C78.6001 23.6031 81.0683 23.1608 84.0892 23.1608C87.069 23.1608 89.274 23.6125 90.7041 24.5159C92.1548 25.4192 92.705 26.6896 92.3546 28.3269C92.27 28.7221 92.1484 29.0985 91.9896 29.4561L91.9775 29.4811C91.9198 29.5995 91.7919 29.6819 91.6658 29.6819H86.7505C86.6263 29.6819 86.5533 29.5757 86.5952 29.4561C86.6319 29.3808 86.6683 29.2585 86.7045 29.0891C86.9583 27.9034 85.6569 27.3106 82.8004 27.3106C80.0056 27.3106 78.415 27.7811 78.0287 28.7221L77.9555 28.9197C77.8008 29.2585 77.8657 29.5314 78.1502 29.7384C78.4347 29.9454 78.9636 30.1148 79.7369 30.2465L84.5367 31.0087C86.3834 31.3098 87.7154 31.8556 88.5327 32.646C89.3745 33.4177 89.6686 34.3963 89.4149 35.5819C89.3424 35.9207 89.2085 36.3065 89.0131 36.7394L88.8541 37.0499C88.1056 38.819 86.7305 40.1552 84.7288 41.0585C82.7271 41.9619 80.113 42.4136 76.8866 42.4136Z" fill="white"/>
<path d="M94.0516 27.97C93.8739 27.97 93.7505 27.8069 93.7979 27.6348L94.864 23.7627C94.8988 23.6364 95.0165 23.5464 95.1469 23.5464H113.751C113.928 23.5464 114.051 23.7083 114.005 23.88L112.964 27.752C112.93 27.8792 112.812 27.97 112.681 27.97H106.265C106.135 27.97 106.017 28.0597 105.982 28.1857L102.098 42.174C102.063 42.3001 101.945 42.3897 101.815 42.3897H97.1438C96.9657 42.3897 96.8421 42.2258 96.8904 42.0534L100.735 28.3063C100.784 28.1339 100.66 27.97 100.482 27.97H94.0516Z" fill="white"/>
<path d="M123.58 42.6542C121.466 42.6542 119.608 42.3041 118.008 41.604C116.408 40.9039 115.169 39.9294 114.293 38.6805C113.436 37.4316 113.007 35.9935 113.007 34.3661C113.007 33.7228 113.074 33.0794 113.207 32.436L113.264 32.2657C113.855 29.4274 115.188 27.2229 117.265 25.6523C119.341 24.0818 121.989 23.2965 125.209 23.2965C127.324 23.2965 129.181 23.6465 130.781 24.3467C132.382 25.0279 133.61 25.9929 134.468 27.2418C135.344 28.4907 135.782 29.9193 135.782 31.5278C135.782 32.1333 135.706 32.7956 135.554 33.5146L135.525 33.7133C134.934 36.5517 133.601 38.7562 131.524 40.3267C129.467 41.8784 126.819 42.6542 123.58 42.6542ZM123.752 38.0844C125.6 38.0844 127.086 37.6965 128.21 36.9207C129.334 36.1259 130.057 34.9717 130.381 33.4579L130.467 33.1456C130.562 32.7861 130.61 32.3698 130.61 31.8968C130.61 30.6479 130.115 29.6639 129.124 28.9448C128.133 28.2258 126.752 27.8663 124.98 27.8663C123.171 27.8663 121.704 28.2636 120.58 29.0584C119.475 29.8342 118.741 30.9885 118.379 32.5212L118.294 32.8618C118.179 33.2781 118.122 33.6944 118.122 34.1107C118.122 35.3406 118.617 36.3152 119.608 37.0342C120.599 37.7343 121.98 38.0844 123.752 38.0844Z" fill="white"/>
<path d="M152.635 23.679C153.937 23.679 155.066 23.9063 156.021 24.3609C156.978 24.7966 157.689 25.4217 158.153 26.2362C158.618 27.0508 158.804 27.979 158.712 29.0208C158.679 29.3996 158.593 29.8259 158.456 30.2994L158.345 30.5836C157.882 32.1369 157.059 33.3397 155.873 34.1921C154.787 34.9568 153.356 35.4345 151.579 35.6252C151.363 35.6483 151.226 35.8896 151.334 36.0641L154.647 41.4523C154.686 41.5154 154.695 41.594 154.671 41.6691L154.536 42.1031C154.496 42.229 154.376 42.3185 154.245 42.3185H149.447C149.355 42.3185 149.272 42.2729 149.227 42.1969L145.472 35.8481C145.427 35.7721 145.345 35.7265 145.252 35.7265H142.636C142.506 35.7265 142.386 35.8158 142.346 35.9414L140.408 42.1036C140.368 42.2292 140.248 42.3185 140.117 42.3185H135.518C135.34 42.3185 135.222 42.1555 135.276 41.9837L140.938 23.8943C140.977 23.7685 141.098 23.679 141.228 23.679H152.635ZM153.38 29.9016C153.438 29.6743 153.47 29.5228 153.477 29.447C153.519 28.9734 153.369 28.6041 153.029 28.3389C152.708 28.0737 152.222 27.9411 151.571 27.9411H145.1C144.971 27.9411 144.851 28.0288 144.811 28.153L143.692 31.5808C143.636 31.7535 143.754 31.919 143.933 31.919H150.445C151.996 31.919 152.946 31.3413 153.297 30.1858L153.38 29.9016Z" fill="white"/>
<path d="M178.359 23.5373C178.542 23.5373 178.675 23.7095 178.628 23.8848L177.712 27.2823C177.679 27.403 177.569 27.487 177.443 27.487H167.16C167.034 27.487 166.923 27.5713 166.891 27.6923L166.125 30.5596C166.078 30.7348 166.211 30.9066 166.394 30.9066H176.35C176.532 30.9066 176.666 31.0789 176.618 31.2544L175.713 34.5988C175.68 34.7194 175.57 34.8033 175.445 34.8033H165.21C165.085 34.8033 164.975 34.8862 164.942 35.0059L164.108 38.0044C164.06 38.1802 164.193 38.354 164.376 38.354H174.33C174.513 38.354 174.646 38.5254 174.599 38.7006L173.693 42.1126C173.661 42.2339 173.55 42.3184 173.424 42.3183L158.097 42.3041C157.914 42.3039 157.781 42.1313 157.829 41.9559L162.788 23.7413C162.821 23.6209 162.931 23.5373 163.056 23.5373H178.359Z" fill="white"/>
</svg>
