<svg width="66" height="33" viewBox="0 0 66 33" fill="none" xmlns="http://www.w3.org/2000/svg">
<path d="M21.1251 30.8369V28.9255C21.1251 28.1944 20.6777 27.7156 19.9097 27.7156C19.5256 27.7156 19.1081 27.8418 18.821 28.2575C18.5973 27.9086 18.2766 27.7156 17.7957 27.7156C17.475 27.7156 17.1544 27.8121 16.9008 28.161V27.7787H16.2297V30.8369H16.9008V29.1482C16.9008 28.6064 17.1879 28.3503 17.6353 28.3503C18.0827 28.3503 18.3064 28.636 18.3064 29.1482V30.8369H18.9776V29.1482C18.9776 28.6064 19.2982 28.3503 19.712 28.3503C20.1595 28.3503 20.3832 28.636 20.3832 29.1482V30.8369H21.1251ZM31.0799 27.7787H29.9912V26.8546H29.3201V27.7787H28.7124V28.3837H29.3201V29.7866C29.3201 30.488 29.6072 30.8999 30.3752 30.8999C30.6623 30.8999 30.983 30.8035 31.2067 30.6773L31.0128 30.102C30.8189 30.2282 30.5952 30.2616 30.4349 30.2616C30.1142 30.2616 29.9875 30.0686 29.9875 29.7531V28.3837H31.0762V27.7787H31.0799ZM36.7769 27.7119C36.3928 27.7119 36.1356 27.9049 35.9753 28.1573V27.775H35.3042V30.8331H35.9753V29.1111C35.9753 28.6026 36.199 28.3132 36.6166 28.3132C36.7433 28.3132 36.9036 28.3466 37.0341 28.3763L37.228 27.7379C37.0938 27.7119 36.9036 27.7119 36.7769 27.7119ZM28.168 28.0311C27.8474 27.8084 27.4 27.7119 26.919 27.7119C26.151 27.7119 25.6402 28.0942 25.6402 28.6991C25.6402 29.2076 26.0242 29.4971 26.6953 29.5899L27.016 29.6233C27.3664 29.6863 27.5603 29.7828 27.5603 29.9424C27.5603 30.1651 27.303 30.3247 26.8556 30.3247C26.4082 30.3247 26.054 30.1651 25.8303 30.0055L25.5097 30.514C25.8602 30.77 26.3411 30.8962 26.8221 30.8962C27.7169 30.8962 28.2314 30.4806 28.2314 29.909C28.2314 29.3672 27.8138 29.0814 27.1763 28.9849L26.8556 28.9515C26.5686 28.9181 26.3448 28.855 26.3448 28.6657C26.3448 28.4431 26.5686 28.3169 26.9227 28.3169C27.3068 28.3169 27.6908 28.4765 27.8847 28.573L28.168 28.0311ZM46.0233 27.7119C45.6392 27.7119 45.382 27.9049 45.2217 28.1573V27.775H44.5506V30.8331H45.2217V29.1111C45.2217 28.6026 45.4454 28.3132 45.8629 28.3132C45.9897 28.3132 46.15 28.3466 46.2805 28.3763L46.4744 27.7453C46.3439 27.7119 46.1538 27.7119 46.0233 27.7119ZM37.448 29.3078C37.448 30.2319 38.0893 30.8999 39.081 30.8999C39.5284 30.8999 39.8491 30.8034 40.1697 30.5511L39.8491 30.0092C39.5918 30.2022 39.3383 30.295 39.0475 30.295C38.5031 30.295 38.1191 29.9127 38.1191 29.3078C38.1191 28.7325 38.5031 28.3503 39.0475 28.3206C39.3345 28.3206 39.5918 28.4171 39.8491 28.6064L40.1697 28.0645C39.8491 27.8084 39.5284 27.7156 39.081 27.7156C38.0893 27.7119 37.448 28.3837 37.448 29.3078ZM43.6557 29.3078V27.7787H42.9846V28.161C42.7609 27.8752 42.4403 27.7156 42.0227 27.7156C41.1577 27.7156 40.4866 28.3837 40.4866 29.3078C40.4866 30.2319 41.1577 30.8999 42.0227 30.8999C42.4701 30.8999 42.7908 30.7404 42.9846 30.4546V30.8369H43.6557V29.3078ZM41.1913 29.3078C41.1913 28.7659 41.5417 28.3206 42.1196 28.3206C42.664 28.3206 43.048 28.7363 43.048 29.3078C43.048 29.8496 42.664 30.295 42.1196 30.295C41.5455 30.2616 41.1913 29.8459 41.1913 29.3078ZM33.1603 27.7119C32.2655 27.7119 31.6242 28.3503 31.6242 29.3041C31.6242 30.2616 32.2655 30.8962 33.1939 30.8962C33.6413 30.8962 34.0887 30.77 34.4429 30.4806L34.1223 30.0018C33.865 30.1948 33.5444 30.321 33.2274 30.321C32.8099 30.321 32.396 30.128 32.2991 29.5899H34.5697C34.5697 29.4934 34.5697 29.4303 34.5697 29.3338C34.5995 28.3503 34.0216 27.7119 33.1603 27.7119ZM33.1603 28.2872C33.5779 28.2872 33.865 28.5433 33.9284 29.0183H32.3289C32.3923 28.6064 32.6794 28.2872 33.1603 28.2872ZM49.8337 29.3078V26.5688H49.1626V28.161C48.9389 27.8752 48.6182 27.7156 48.2006 27.7156C47.3357 27.7156 46.6646 28.3837 46.6646 29.3078C46.6646 30.2319 47.3357 30.8999 48.2006 30.8999C48.6481 30.8999 48.9687 30.7404 49.1626 30.4546V30.8369H49.8337V29.3078ZM47.3692 29.3078C47.3692 28.7659 47.7197 28.3206 48.2976 28.3206C48.8419 28.3206 49.226 28.7363 49.226 29.3078C49.226 29.8496 48.8419 30.295 48.2976 30.295C47.7197 30.2616 47.3692 29.8459 47.3692 29.3078ZM24.902 29.3078V27.7787H24.2309V28.161C24.0071 27.8752 23.6865 27.7156 23.2689 27.7156C22.4039 27.7156 21.7328 28.3837 21.7328 29.3078C21.7328 30.2319 22.4039 30.8999 23.2689 30.8999C23.7163 30.8999 24.037 30.7404 24.2309 30.4546V30.8369H24.902V29.3078ZM22.4077 29.3078C22.4077 28.7659 22.7581 28.3206 23.336 28.3206C23.8804 28.3206 24.2644 28.7363 24.2644 29.3078C24.2644 29.8496 23.8804 30.295 23.336 30.295C22.7581 30.2616 22.4077 29.8459 22.4077 29.3078Z" fill="white"/>
<path d="M38.0259 4.55322H27.9443V22.5828H38.0259V4.55322Z" fill="#FF5A00"/>
<path d="M28.6154 13.568C28.6154 9.90498 30.3454 6.65387 33 4.55327C31.0463 3.02421 28.5819 2.1001 25.8937 2.1001C19.5256 2.1001 14.373 7.22913 14.373 13.568C14.373 19.907 19.5256 25.036 25.8937 25.036C28.5819 25.036 31.0463 24.1119 33 22.5828C30.3417 20.5119 28.6154 17.2311 28.6154 13.568Z" fill="#EB001B"/>
<path d="M51.627 13.568C51.627 19.907 46.4744 25.036 40.1063 25.036C37.4181 25.036 34.9537 24.1119 33 22.5828C35.6882 20.4785 37.3846 17.2311 37.3846 13.568C37.3846 9.90498 35.6546 6.65387 33 4.55327C34.9499 3.02421 37.4144 2.1001 40.1026 2.1001C46.4744 2.1001 51.627 7.26253 51.627 13.568Z" fill="#F79E1B"/>
</svg>
