<svg width="16" height="16" viewBox="0 0 16 16" fill="none" xmlns="http://www.w3.org/2000/svg">
<path fill-rule="evenodd" clip-rule="evenodd" d="M15.7791 11.4052C15.4697 11.8149 14.7117 12.1072 14.7117 12.1072L9.07238 14.2333V12.6653L13.2225 11.1132C13.6935 10.9361 13.7658 10.6858 13.383 10.5543C13.0009 10.4225 12.309 10.4603 11.8377 10.6382L9.07238 11.6604V10.0332L9.23176 9.97656C9.23176 9.97656 10.0308 9.67974 11.1545 9.54908C12.2781 9.41917 13.6539 9.56683 14.734 9.99658C15.9511 10.4003 16.0882 10.9954 15.7791 11.4052ZM9.60918 8.73527V4.72554C9.60918 4.25462 9.52643 3.8211 9.10548 3.69837C8.78311 3.58999 8.58307 3.90418 8.58307 4.37471V14.416L6.00304 13.5565V1.58398C7.10003 1.79773 8.6982 2.303 9.55737 2.607C11.7423 3.39437 12.4831 4.37434 12.4831 6.58237C12.4831 8.73452 11.2174 9.55021 9.60918 8.73527ZM1.26898 12.5014C0.0194405 12.1321 -0.188516 11.3625 0.381025 10.9191C0.907393 10.5098 1.80254 10.2016 1.80254 10.2016L5.50186 8.82099V10.395L2.8398 11.395C2.36956 11.5721 2.29725 11.8228 2.67934 11.9542C3.06179 12.0857 3.75402 12.0483 4.22498 11.8708L5.50186 11.3844V12.7926C5.42091 12.8077 5.3306 12.8228 5.24713 12.8375C3.96989 13.0566 2.60954 12.9652 1.26898 12.5014ZM14.9574 13.1249C15.1189 13.1249 15.2704 13.1906 15.3845 13.3118C15.4985 13.4312 15.5615 13.5905 15.5615 13.7597C15.5615 13.9297 15.4985 14.0883 15.3845 14.2076C15.2704 14.3281 15.1189 14.3938 14.9574 14.3938C14.7959 14.3938 14.6447 14.3281 14.5303 14.2076C14.4163 14.0883 14.3537 13.9297 14.3537 13.7597C14.3537 13.41 14.6242 13.1249 14.9574 13.1249ZM14.4551 13.7597C14.4551 13.9006 14.5073 14.0331 14.6023 14.1321C14.6969 14.2325 14.8236 14.2869 14.9574 14.2869C15.2348 14.2869 15.4597 14.0505 15.4597 13.7597C15.4597 13.6185 15.4079 13.4859 15.3125 13.3866C15.2179 13.2862 15.0912 13.2322 14.9574 13.2322C14.8236 13.2322 14.6969 13.2862 14.6023 13.3866C14.5073 13.4859 14.4551 13.6185 14.4551 13.7597ZM15.1398 13.418C15.206 13.4485 15.2395 13.5075 15.2395 13.5913C15.2395 13.6343 15.2308 13.6706 15.2132 13.6989C15.2006 13.7193 15.1826 13.7359 15.1625 13.7503C15.1783 13.7601 15.1923 13.7718 15.2028 13.7854C15.2172 13.805 15.2254 13.8364 15.2265 13.879L15.2298 13.9693C15.2308 13.9935 15.2323 14.012 15.2359 14.0233C15.2395 14.0399 15.2463 14.0505 15.2549 14.0539L15.2639 14.0584V14.0686V14.0841V14.0996H15.2492H15.1423H15.1337L15.1294 14.0917C15.1258 14.0841 15.1233 14.0754 15.1207 14.0641C15.1189 14.0539 15.1171 14.0362 15.1161 14.009L15.1107 13.8968C15.1092 13.8579 15.0966 13.8337 15.0729 13.8209C15.0581 13.8137 15.0337 13.8103 15.0006 13.8103H14.8174V14.0841V14.0996H14.8023H14.7153H14.7005V14.0841V13.4093V13.3938H14.7153H15.0128C15.0639 13.3938 15.1067 13.4017 15.1398 13.418ZM14.8174 13.7023H15.0038C15.0412 13.7023 15.0711 13.6951 15.0923 13.6804C15.1117 13.6657 15.1211 13.6389 15.1211 13.6C15.1211 13.5577 15.1078 13.5301 15.0797 13.5154C15.0643 13.5075 15.0427 13.5029 15.0153 13.5029H14.8174V13.7023Z" fill="white"/>
</svg>
