<svg width="16" height="16" viewBox="0 0 16 16" fill="none" xmlns="http://www.w3.org/2000/svg">
<g clip-path="url(#clip0_5045_922)">
<path d="M0.314338 10.142C1.28763 13.3873 4.29785 15.7538 7.85994 15.7538C12.2102 15.7538 15.7369 12.2272 15.7369 7.87692C15.7369 3.52665 12.2102 0 7.85994 0C3.68566 0 0.269785 3.24751 0 7.3536C0.510523 8.20948 0.708677 8.73895 0.313846 10.142H0.314338Z" fill="url(#paint0_linear_5045_922)"/>
<path d="M7.584 6.02695L7.58474 6.06584L5.65735 8.86584C5.34523 8.85157 5.03212 8.90646 4.73477 9.0288C4.60533 9.0814 4.48174 9.1474 4.36603 9.22572L0.133416 7.48123C0.133416 7.48123 0.0354465 9.09255 0.44357 10.2933L3.43582 11.528C3.58351 12.1995 4.04628 12.7883 4.72615 13.0714C5.26103 13.2936 5.86225 13.2945 6.39777 13.0738C6.93329 12.8531 7.35931 12.4289 7.58228 11.8943C7.70123 11.6095 7.75861 11.3028 7.75065 10.9943L10.5058 9.02387L10.5735 9.0251C12.224 9.0251 13.5655 7.67963 13.5655 6.02695C13.5655 4.37427 12.2265 3.03372 10.5735 3.03027C8.92382 3.03027 7.58154 4.37427 7.58154 6.02695H7.584ZM7.12123 11.7008C6.76332 12.5623 5.77575 12.9678 4.91742 12.6101C4.53652 12.45 4.22778 12.1555 4.04997 11.7825L5.024 12.1862C5.17447 12.2488 5.3358 12.2812 5.49879 12.2815C5.66177 12.2817 5.82321 12.2499 5.97388 12.1877C6.12454 12.1256 6.26149 12.0343 6.37688 11.9192C6.49227 11.8041 6.58386 11.6674 6.6464 11.5169C6.77304 11.2128 6.77379 10.8709 6.64848 10.5662C6.52318 10.2615 6.28206 10.0191 5.97809 9.89206L4.96886 9.47483C5.35729 9.32714 5.79889 9.32221 6.21194 9.49378C6.6304 9.66683 6.9504 9.99274 7.12172 10.4095C7.29305 10.8262 7.29206 11.2858 7.11926 11.7008M10.5762 8.02449C10.0474 8.02306 9.54063 7.81208 9.16701 7.43776C8.79339 7.06345 8.58335 6.55631 8.58289 6.02744C8.58348 5.49866 8.79358 4.99165 9.16718 4.61744C9.54079 4.24323 10.0475 4.03232 10.5762 4.03089C11.1051 4.03219 11.6119 4.24305 11.9856 4.61727C12.3593 4.99149 12.5695 5.49857 12.5701 6.02744C12.5696 6.5564 12.3595 7.06361 11.9858 7.43794C11.6121 7.81226 11.1052 8.02319 10.5762 8.02449ZM9.08259 6.02424C9.08226 5.62688 9.23971 5.24564 9.52035 4.96431C9.80098 4.68298 10.1818 4.52459 10.5792 4.52394C11.405 4.52394 12.0768 5.19594 12.0768 6.02424C12.077 6.4217 11.9193 6.80296 11.6385 7.08421C11.3577 7.36546 10.9767 7.52367 10.5792 7.52406C10.1819 7.52347 9.80104 7.36517 9.52036 7.08395C9.23969 6.80272 9.08239 6.42157 9.08259 6.02424Z" fill="white"/>
</g>
<defs>
<linearGradient id="paint0_linear_5045_922" x1="786.843" y1="0" x2="786.843" y2="1575.38" gradientUnits="userSpaceOnUse">
<stop stop-color="#111D2E"/>
<stop offset="0.212" stop-color="#051839"/>
<stop offset="0.407" stop-color="#0A1B48"/>
<stop offset="0.581" stop-color="#132E62"/>
<stop offset="0.738" stop-color="#144B7E"/>
<stop offset="0.873" stop-color="#136497"/>
<stop offset="1" stop-color="#1387B8"/>
</linearGradient>
<clipPath id="clip0_5045_922">
<rect width="16" height="16" fill="white"/>
</clipPath>
</defs>
</svg>
