<svg width="54" height="54" viewBox="0 0 54 54" fill="none" xmlns="http://www.w3.org/2000/svg">
<path d="M0.895508 9.80151C7.07717 5.4088 23.1017 0.0635901 37.748 13.8259C37.9111 13.7078 38.1342 13.2696 38.3311 13.2693C38.5947 13.2693 39.5808 14.564 40.2539 15.3357C39.2688 21.1476 44.2463 22.2885 46.3643 23.5691C48.4822 24.8497 55.8208 40.808 52.7178 44.3542C49.6151 47.9002 50.1566 48.2945 49.1719 50.1658C48.3838 51.6631 47.3989 50.7896 47.0049 50.1658C44.9362 50.1165 42.6213 49.7718 41.2422 47.5554C39.8632 45.339 40.8972 42.4822 42.6211 40.2166C43.9995 38.4044 42.0467 37.0318 40.8975 36.572C42.2763 32.829 39.6985 31.0723 38.2373 30.6619C39.2224 26.4852 36.7102 25.1456 35.3311 24.9978L31.8389 25.9958C31.449 26.1073 31.0305 25.9714 30.7793 25.6531L29.585 24.1414C29.515 24.0527 29.4604 23.95 29.4229 23.8435C24.7226 10.4831 8.46598 8.9107 0.895508 9.80151ZM47.1211 41.073C45.7965 40.5551 44.1775 41.5291 43.5049 43.2488C42.8323 44.9687 43.3609 46.7835 44.6855 47.3015C46.0103 47.8195 47.6292 46.8447 48.3018 45.1248C48.9742 43.4049 48.4458 41.591 47.1211 41.073Z" fill="white"/>
</svg>
