<svg width="12" height="12" viewBox="0 0 12 12" fill="none" xmlns="http://www.w3.org/2000/svg">
<g clip-path="url(#clip0_1205_19778)">
<path d="M8.49 5.94L7.275 4.74H8.31L9.96 1.74H4.275L3.075 0.54H10.95C11.18 0.54 11.3575 0.6375 11.4825 0.8325C11.6075 1.0275 11.61 1.24 11.49 1.47L9.36 5.31C9.25 5.51 9.11 5.665 9.34 5.775C9.17 5.885 9.02 5.94 8.49 5.94ZM3.18 11.34C2.85 11.34 2.5675 11.2225 2.3325 10.9875C2.0975 10.7525 1.98 10.47 1.98 10.14C1.98 9.81 2.0975 9.5275 2.3325 9.2925C2.5675 9.0575 2.85 8.94 3.18 8.94C3.51 8.94 3.7925 9.0575 4.0275 9.2925C4.2625 9.5275 4.38 9.81 4.38 10.14C4.38 10.47 4.2625 10.7525 4.0275 10.9875C3.7925 11.2225 3.51 11.34 3.18 11.34ZM11.28 12.12L7.47 8.34H3.54C2.9 8.34 2.465 8.1525 2.235 7.7775C2.005 7.4025 1.99 7.01 2.19 6.6L3.12 5.31L2.04 2.88L-0.6 0.24L0.24 -0.6L12.12 11.28L11.28 12.12ZM6.27 7.14L5.07 5.94H4.14L3.12 7.14H6.27ZM9.18 11.34C8.85 11.34 8.5675 11.2225 8.3325 10.9875C8.0975 10.7525 7.98 10.47 7.98 10.14C7.98 9.81 8.0975 9.5275 8.3325 9.2925C8.5675 9.0575 8.85 8.94 9.18 8.94C9.51 8.94 9.7925 9.0575 10.0275 9.2925C10.2625 9.5275 10.38 9.81 10.38 10.14C10.38 10.47 10.2625 10.7525 10.0275 10.9875C9.7925 11.2225 9.51 11.34 9.18 11.34Z" fill="#939393"/>
</g>
<defs>
<clipPath id="clip0_1205_19778">
<rect width="12" height="12" fill="white"/>
</clipPath>
</defs>
</svg>