<svg width="12" height="12" viewBox="0 0 12 12" fill="none" xmlns="http://www.w3.org/2000/svg">
<g clip-path="url(#clip0_1205_19777)">
<path d="M11.04 11.895L8.805 9.66C8.615 9.77 8.4175 9.87 8.2125 9.96C8.0075 10.05 7.79 10.125 7.56 10.185V8.925C7.62 8.905 7.68 8.8825 7.74 8.8575C7.8 8.8325 7.86 8.805 7.92 8.775L3.12 3.975C3.01 4.225 2.9225 4.4825 2.8575 4.7475C2.7925 5.0125 2.76 5.285 2.76 5.565C2.76 6.015 2.845 6.4525 3.015 6.8775C3.185 7.3025 3.45 7.695 3.81 8.055L4.02 8.265V6.735H5.16V10.335H1.56V9.135H3.21L2.97 8.925C2.48 8.435 2.1225 7.9025 1.8975 7.3275C1.6725 6.7525 1.56 6.165 1.56 5.565C1.56 5.115 1.6175 4.6825 1.7325 4.2675C1.8475 3.8525 2.015 3.46 2.235 3.09L0 0.855L0.855 0L11.895 11.04L11.04 11.895ZM10.515 7.95L9.615 7.05C9.725 6.81 9.81 6.56 9.87 6.3C9.93 6.04 9.96 5.775 9.96 5.505C9.96 5.055 9.875 4.6175 9.705 4.1925C9.535 3.7675 9.27 3.375 8.91 3.015L8.7 2.805V4.335H7.56V0.735H11.16V1.935H9.51L9.75 2.145C10.24 2.635 10.5975 3.1675 10.8225 3.7425C11.0475 4.3175 11.16 4.905 11.16 5.505C11.16 5.955 11.1025 6.3825 10.9875 6.7875C10.8725 7.1925 10.715 7.57 10.515 7.95ZM4.845 2.28L3.945 1.38C4.135 1.27 4.33 1.175 4.53 1.095C4.73 1.015 4.94 0.945 5.16 0.885V2.145C5.11 2.165 5.0575 2.185 5.0025 2.205C4.9475 2.225 4.895 2.25 4.845 2.28Z" fill="#939393"/>
</g>
<defs>
<clipPath id="clip0_1205_19777">
<rect width="12" height="12" fill="white"/>
</clipPath>
</defs>
</svg>