<svg width="50" height="40" viewBox="0 0 50 40" fill="none" xmlns="http://www.w3.org/2000/svg">
<mask id="mask0_973_19612" style="mask-type:luminance" maskUnits="userSpaceOnUse" x="21" y="8" width="12" height="14">
<path d="M21.197 8.125H32.0786V21.5276H21.197V8.125Z" fill="white"/>
</mask>
<g mask="url(#mask0_973_19612)">
<path fill-rule="evenodd" clip-rule="evenodd" d="M23.8875 8.12549H28.6753C31.2455 8.12549 32.2134 9.46907 32.064 11.4463C31.8175 14.706 29.9091 16.5083 27.3778 16.5083H26.0998C25.7529 16.5083 25.5195 16.745 25.425 17.3887L24.8767 21.1254C24.8412 21.3681 24.7175 21.5105 24.5318 21.5279H21.5297C21.2472 21.5279 21.1467 21.3047 21.2206 20.8213L23.054 8.8346C23.1274 8.35416 23.3819 8.12549 23.8875 8.12549Z" fill="#00A2D3"/>
</g>
<path fill-rule="evenodd" clip-rule="evenodd" d="M20.8942 4H25.6867C27.0365 4 28.6374 4.04517 29.7084 5.02061C30.4238 5.67217 30.7992 6.71026 30.7125 7.82465C30.4186 11.6036 28.2296 13.7203 25.2943 13.7203H22.9306C22.5283 13.7203 22.2617 13.9956 22.1481 14.741L21.4886 19.0739C21.4458 19.3551 21.3278 19.5207 21.1124 19.5407H18.1601C17.8325 19.5407 17.7161 19.2819 17.8019 18.7215L19.9277 4.82218C20.0129 4.2653 20.3078 4 20.8942 4Z" fill="#1C3D92"/>
<path fill-rule="evenodd" clip-rule="evenodd" d="M22.2169 14.3041L23.0539 8.83399C23.1273 8.35367 23.3818 8.125 23.8874 8.125H28.6752C29.4677 8.125 30.108 8.25274 30.6099 8.4883C30.1288 11.8514 28.0224 13.7202 25.2637 13.7202H22.9001C22.589 13.7202 22.3565 13.8843 22.2169 14.3041Z" fill="#1C2E7E"/>
<path fill-rule="evenodd" clip-rule="evenodd" d="M21.7867 26.9327H20.5674C20.3146 26.9327 20.212 27.1236 20.2923 27.3665L21.8118 31.9617L20.3145 34.1472C20.1896 34.3296 20.286 34.4966 20.4623 34.4966H21.8381C22.0434 34.4966 22.1435 34.4424 22.247 34.2893L26.9202 27.3665C27.0642 27.1532 26.9964 26.93 26.7603 26.9298L25.4597 26.9285C25.2364 26.9282 25.1468 27.0194 25.0186 27.2113L23.0693 30.1317L22.2021 27.2063C22.1487 27.0259 22.0211 26.9327 21.7867 26.9327ZM15.7136 31.2122C14.9122 31.2122 14.3537 30.5522 14.4703 29.7429C14.5868 28.9338 15.3355 28.2739 16.1369 28.2739C16.9382 28.2739 17.4968 28.9338 17.3801 29.7429C17.2636 30.5522 16.515 31.2122 15.7136 31.2122ZM16.7235 31.9527C16.8476 31.8365 16.9742 31.7755 16.9559 31.9193L16.9118 32.2638C16.8888 32.4433 16.958 32.5392 17.1203 32.5392H18.3271C18.5301 32.5392 18.6294 32.4543 18.6794 32.1297L19.4231 27.3092C19.4605 27.0669 19.4038 26.9481 19.2257 26.9481H17.8987C17.779 26.9481 17.721 27.0176 17.6897 27.2063L17.6405 27.503C17.6148 27.6579 17.5462 27.6846 17.4825 27.5288C17.2571 26.9782 16.6828 26.7314 15.8775 26.7484C14.0158 26.788 12.7607 28.2473 12.6265 30.1181C12.5227 31.5651 13.527 32.7015 14.8503 32.7015C15.8104 32.7014 16.24 32.4058 16.7235 31.9527ZM8.60664 28.1045L9.71329 28.1047C10.4051 28.0777 10.8651 27.5829 10.9114 26.6902C10.9399 26.1388 10.5794 25.7445 10.0054 25.7472L8.96366 25.7521L8.60664 28.1045ZM10.8197 24.126C12.0506 24.126 13.186 24.8152 13.0305 26.5337C12.8463 28.571 11.783 29.7055 10.1108 29.7101H8.65193C8.44169 29.7101 8.34057 29.8866 8.2854 30.2501L8.00379 32.1042C7.96142 32.3842 7.82245 32.5224 7.61655 32.5224H6.25794C6.0413 32.5224 5.9657 32.3795 6.014 32.0597L7.13703 24.6275C7.19221 24.262 7.3276 24.126 7.56759 24.126H10.8197Z" fill="#1C3D92"/>
<path fill-rule="evenodd" clip-rule="evenodd" d="M42.2451 32.5479H40.8521C40.7414 32.5479 40.6646 32.4583 40.6813 32.3489L41.9063 24.3419C41.9232 24.2324 42.0273 24.1429 42.1381 24.1429H43.5311C43.6418 24.1429 43.7186 24.2324 43.7019 24.3419L42.4768 32.3489C42.4601 32.4583 42.3558 32.5479 42.2451 32.5479ZM36.678 31.2122C35.8766 31.2122 35.3181 30.5522 35.4347 29.7429C35.5512 28.9338 36.2999 28.2739 37.1012 28.2739C37.9027 28.2739 38.4612 28.9338 38.3445 29.7429C38.228 30.5522 37.4794 31.2122 36.678 31.2122ZM37.6879 31.9527C37.812 31.8365 37.9387 31.7755 37.9203 31.9193L37.8762 32.2638C37.8532 32.4433 37.9224 32.5392 38.0848 32.5392H39.2916C39.4946 32.5392 39.5938 32.4543 39.6438 32.1297L40.3876 27.3092C40.425 27.0669 40.3682 26.9481 40.1901 26.9481H38.8631C38.7434 26.9481 38.6854 27.0176 38.6541 27.2063L38.6049 27.503C38.5792 27.6579 38.5106 27.6846 38.4469 27.5288C38.2215 26.9782 37.6473 26.7314 36.8419 26.7485C34.9802 26.788 33.7252 28.2474 33.5909 30.1181C33.4871 31.5652 34.4914 32.7015 35.8147 32.7015C36.7748 32.7014 37.2043 32.4058 37.6879 31.9527ZM29.571 28.1045L30.6778 28.1047C31.3695 28.0777 31.8295 27.583 31.8758 26.6902C31.9043 26.1388 31.5439 25.7445 30.9698 25.7472L29.928 25.7521L29.571 28.1045ZM31.7841 24.126C33.015 24.126 34.1504 24.8152 33.9949 26.5337C33.8107 28.571 32.7474 29.7055 31.0752 29.7102H29.6163C29.4061 29.7102 29.305 29.8866 29.2498 30.2501L28.9682 32.1043C28.9257 32.3842 28.7869 32.5224 28.5808 32.5224H27.2223C27.0057 32.5224 26.9301 32.3796 26.9784 32.0597L28.1014 24.6275C28.1566 24.262 28.2921 24.126 28.5321 24.126H31.7841Z" fill="#00A2D3"/>
</svg>
