<svg width="38" height="31" viewBox="0 0 38 31" fill="none" xmlns="http://www.w3.org/2000/svg">
<mask id="mask0_0_103" style="mask-type:luminance" maskUnits="userSpaceOnUse" x="15" y="4" width="12" height="14">
<path d="M15.3162 4.15736H26.2832V17.6651H15.3162V4.15736Z" fill="white"/>
</mask>
<g mask="url(#mask0_0_103)">
<path fill-rule="evenodd" clip-rule="evenodd" d="M18.0278 4.15736H22.8532C25.4436 4.15736 26.419 5.51148 26.2684 7.50428C26.0201 10.7895 24.0966 12.6059 21.5455 12.6059H20.2575C19.9079 12.6059 19.6726 12.8445 19.5773 13.4932L19.0247 17.2592C18.989 17.5039 18.8643 17.6474 18.6771 17.6649H15.6515C15.3668 17.6649 15.2655 17.4399 15.34 16.9528L17.1877 4.87204C17.2617 4.38783 17.5183 4.15736 18.0278 4.15736Z" fill="#00A2D3"/>
</g>
<path fill-rule="evenodd" clip-rule="evenodd" d="M15.011 0H19.8412C21.2016 0 22.815 0.0455276 23.8944 1.02861C24.6154 1.68529 24.9938 2.73152 24.9063 3.85466C24.6102 7.66328 22.404 9.79651 19.4456 9.79651H17.0634C16.658 9.79651 16.3892 10.0741 16.2748 10.8253L15.6101 15.1922C15.567 15.4756 15.448 15.6424 15.231 15.6626H12.2555C11.9253 15.6626 11.808 15.4018 11.8944 14.8369L14.037 0.828626C14.1228 0.267378 14.4201 0 15.011 0Z" fill="#1C3D92"/>
<path fill-rule="evenodd" clip-rule="evenodd" d="M16.3441 10.385L17.1876 4.87191C17.2616 4.38783 17.5182 4.15736 18.0277 4.15736H22.8531C23.6518 4.15736 24.2972 4.2861 24.8029 4.52351C24.3181 7.913 22.1951 9.79647 19.4148 9.79647H17.0327C16.7191 9.79647 16.4848 9.96186 16.3441 10.385Z" fill="#1C2E7E"/>
<path fill-rule="evenodd" clip-rule="evenodd" d="M15.9105 23.1116H14.6817C14.4269 23.1116 14.3235 23.304 14.4045 23.5488L15.9359 28.1801L14.4268 30.3828C14.3009 30.5666 14.3981 30.7348 14.5757 30.7348H15.9624C16.1693 30.7348 16.2702 30.6803 16.3745 30.5259L21.0843 23.5488C21.2295 23.3338 21.1611 23.109 20.9232 23.1088L19.6124 23.1074C19.3873 23.1071 19.297 23.199 19.1678 23.3924L17.2032 26.3358L16.3292 23.3873C16.2754 23.2056 16.1468 23.1116 15.9105 23.1116ZM9.78986 27.4247C8.98215 27.4247 8.41927 26.7596 8.53674 25.9439C8.65422 25.1285 9.40878 24.4633 10.2164 24.4633C11.024 24.4633 11.587 25.1285 11.4694 25.9439C11.3519 26.7596 10.5975 27.4247 9.78986 27.4247ZM10.8076 28.171C10.9327 28.0539 11.0603 27.9925 11.0418 28.1374L10.9974 28.4846C10.9742 28.6654 11.044 28.7622 11.2075 28.7622H12.4238C12.6284 28.7622 12.7285 28.6765 12.7789 28.3494L13.5284 23.4911C13.5661 23.2469 13.509 23.1272 13.3294 23.1272H11.9921C11.8715 23.1272 11.8129 23.1972 11.7814 23.3873L11.7319 23.6864C11.7059 23.8425 11.6368 23.8694 11.5726 23.7125C11.3454 23.1575 10.7667 22.9088 9.95497 22.9259C8.07871 22.9658 6.81373 24.4366 6.67851 26.3221C6.57385 27.7804 7.58604 28.9257 8.91972 28.9257C9.8874 28.9256 10.3203 28.6277 10.8076 28.171ZM2.62709 24.2926L3.74243 24.2928C4.43968 24.2656 4.90331 23.7669 4.9499 22.8672C4.97865 22.3115 4.61532 21.9141 4.03687 21.9168L2.98691 21.9217L2.62709 24.2926ZM4.85748 20.2829C6.09807 20.2829 7.24235 20.9775 7.08568 22.7095C6.89999 24.7628 5.82839 25.9062 4.14305 25.9108H2.67273C2.46084 25.9108 2.35893 26.0888 2.30333 26.455L2.01951 28.3238C1.97681 28.6059 1.83675 28.7452 1.62923 28.7452H0.259966C0.0416245 28.7452 -0.0345721 28.6012 0.0141065 28.2789L1.14595 20.7883C1.20156 20.42 1.33801 20.2829 1.57989 20.2829H4.85748Z" fill="#1C3D92"/>
<path fill-rule="evenodd" clip-rule="evenodd" d="M36.5295 28.7709H35.1256C35.014 28.7709 34.9365 28.6806 34.9534 28.5703L36.1881 20.5005C36.205 20.3902 36.31 20.2999 36.4216 20.2999H37.8256C37.9372 20.2999 38.0145 20.3902 37.9977 20.5005L36.763 28.5703C36.7461 28.6806 36.6411 28.7709 36.5295 28.7709ZM30.9187 27.4247C30.111 27.4247 29.5481 26.7596 29.6656 25.9439C29.7831 25.1285 30.5376 24.4633 31.3452 24.4633C32.153 24.4633 32.7158 25.1285 32.5983 25.9439C32.4809 26.7596 31.7263 27.4247 30.9187 27.4247ZM31.9365 28.171C32.0616 28.0539 32.1893 27.9925 32.1707 28.1374L32.1263 28.4846C32.1031 28.6654 32.1729 28.7622 32.3365 28.7622H33.5528C33.7574 28.7622 33.8574 28.6765 33.9078 28.3494L34.6574 23.4911C34.6951 23.2469 34.6378 23.1272 34.4583 23.1272H33.1209C33.0003 23.1272 32.9419 23.1972 32.9103 23.3873L32.8607 23.6864C32.8348 23.8425 32.7657 23.8694 32.7014 23.7125C32.4743 23.1575 31.8956 22.9088 31.0838 22.926C29.2076 22.9658 27.9427 24.4367 27.8074 26.3221C27.7027 27.7805 28.7149 28.9257 30.0486 28.9257C31.0163 28.9256 31.4492 28.6277 31.9365 28.171ZM23.756 24.2926L24.8714 24.2928C25.5685 24.2656 26.0322 23.767 26.0788 22.8672C26.1075 22.3115 25.7443 21.9141 25.1657 21.9168L24.1158 21.9217L23.756 24.2926ZM25.9863 20.2829C27.2269 20.2829 28.3712 20.9775 28.2145 22.7095C28.0288 24.7628 26.9573 25.9062 25.2719 25.9109H23.8016C23.5897 25.9109 23.4878 26.0888 23.4322 26.455L23.1484 28.3239C23.1056 28.6059 22.9657 28.7452 22.758 28.7452H21.3888C21.1705 28.7452 21.0943 28.6013 21.143 28.2789L22.2748 20.7883C22.3304 20.42 22.467 20.2829 22.7088 20.2829H25.9863Z" fill="#00A2D3"/>
</svg>
