<svg width="32" height="32" viewBox="0 0 32 32" fill="none" xmlns="http://www.w3.org/2000/svg">
<path fill-rule="evenodd" clip-rule="evenodd" d="M31.5583 22.8103C30.9394 23.6298 29.4233 24.2144 29.4233 24.2144L18.1447 28.4665V25.3307L26.445 22.2265C27.3869 21.8723 27.5315 21.3715 26.7659 21.1087C26.0017 20.8451 24.618 20.9206 23.6754 21.2764L18.1447 23.3209V20.0664L18.4635 19.9531C18.4635 19.9531 20.0617 19.3595 22.3089 19.0982C24.5561 18.8383 27.3078 19.1337 29.4679 19.9932C31.9022 20.8005 32.1764 21.9908 31.5583 22.8103ZM19.2183 17.4705V9.45107C19.2183 8.50925 19.0528 7.6422 18.2109 7.39673C17.5662 7.17997 17.1661 7.80836 17.1661 8.74942V28.8321L12.0061 27.1131V3.16797C14.2 3.59545 17.3964 4.60601 19.1147 5.214C23.4847 6.78874 24.9663 8.74867 24.9663 13.1647C24.9663 17.469 22.4348 19.1004 19.2183 17.4705ZM2.53792 25.0029C0.0388505 24.2642 -0.377062 22.725 0.76202 21.8383C1.81475 21.0196 3.60505 20.4033 3.60505 20.4033L11.0037 17.642V20.79L5.67958 22.7899C4.7391 23.1441 4.59446 23.6456 5.35865 23.9085C6.12355 24.1713 7.50801 24.0965 8.44993 23.7416L11.0037 22.7688V25.5852C10.8418 25.6154 10.6612 25.6456 10.4942 25.6751C7.93975 26.1131 5.21905 25.9303 2.53792 25.0029ZM29.9148 26.2498C30.2379 26.2498 30.5408 26.3812 30.7689 26.6237C30.997 26.8623 31.1229 27.1811 31.1229 27.5194C31.1229 27.8593 30.997 28.1765 30.7689 28.4152C30.5408 28.6561 30.2379 28.7875 29.9148 28.7875C29.5917 28.7875 29.2895 28.6561 29.0606 28.4152C28.8325 28.1765 28.7073 27.8593 28.7073 27.5194C28.7073 26.82 29.2484 26.2498 29.9148 26.2498ZM28.9102 27.5194C28.9102 27.8011 29.0146 28.0662 29.2045 28.2641C29.3938 28.465 29.6471 28.5738 29.9148 28.5738C30.4696 28.5738 30.9193 28.101 30.9193 27.5194C30.9193 27.237 30.8157 26.9719 30.625 26.7732C30.4357 26.5723 30.1824 26.4643 29.9148 26.4643C29.6471 26.4643 29.3938 26.5723 29.2045 26.7732C29.0146 26.9719 28.9102 27.237 28.9102 27.5194ZM30.2796 26.8359C30.412 26.8971 30.4789 27.0149 30.4789 27.1826C30.4789 27.2687 30.4616 27.3412 30.4264 27.3978C30.4012 27.4386 30.3652 27.4718 30.3249 27.5005C30.3566 27.5202 30.3846 27.5436 30.4055 27.5708C30.4343 27.6101 30.4508 27.6727 30.453 27.7581L30.4595 27.9386C30.4616 27.9869 30.4645 28.024 30.4717 28.0466C30.4789 28.0798 30.4926 28.101 30.5099 28.1078L30.5279 28.1169V28.1372V28.1682V28.1992H30.4984H30.2846H30.2674L30.2587 28.1833C30.2515 28.1682 30.2465 28.1509 30.2415 28.1282C30.2379 28.1078 30.2343 28.0723 30.2321 28.0179L30.2213 27.7936C30.2184 27.7158 30.1932 27.6675 30.1457 27.6418C30.1162 27.6275 30.0673 27.6207 30.0011 27.6207H29.6348V28.1682V28.1992H29.6046H29.4305H29.401V28.1682V26.8186V26.7876H29.4305H30.0256C30.1278 26.7876 30.2134 26.8034 30.2796 26.8359ZM29.6349 27.4046H30.0076C30.0824 27.4046 30.1422 27.3903 30.1846 27.3608C30.2235 27.3314 30.2422 27.2777 30.2422 27.2C30.2422 27.1154 30.2155 27.0602 30.1594 27.0308C30.1285 27.0149 30.0853 27.0058 30.0306 27.0058H29.6349V27.4046Z" fill="white"/>
</svg>
