<svg width="49" height="48" viewBox="0 0 49 48" fill="none" xmlns="http://www.w3.org/2000/svg">
<rect x="0.333374" width="48" height="48" rx="16" fill="#A4F40F"/>
<g clip-path="url(#clip0_944_17043)">
<path d="M28.3334 12H20.3334C17.1522 12.0048 14.1028 13.2706 11.8534 15.52C9.60399 17.7694 8.33817 20.8189 8.33337 24L8.33337 29.3333C8.34684 30.81 8.84578 32.2413 9.75324 33.4064C10.6607 34.5714 11.9263 35.4056 13.3547 35.7801C14.7832 36.1547 16.2953 36.0488 17.6576 35.479C19.02 34.9091 20.1571 33.9068 20.8934 32.6267C21.2473 32.0295 21.7506 31.5347 22.3538 31.1911C22.9569 30.8474 23.6392 30.6667 24.3334 30.6667C25.0276 30.6667 25.7098 30.8474 26.313 31.1911C26.9161 31.5347 27.4194 32.0295 27.7734 32.6267C28.3599 33.6448 29.2025 34.4919 30.2177 35.0836C31.2328 35.6754 32.3851 35.9913 33.56 36H33.6667C35.4346 35.9994 37.1299 35.2968 38.3801 34.0467C39.6302 32.7966 40.3327 31.1012 40.3334 29.3333V24C40.3286 20.8189 39.0628 17.7694 36.8134 15.52C34.564 13.2706 31.5145 12.0048 28.3334 12ZM20.3334 24H19V25.3333C19 25.687 18.8596 26.0261 18.6095 26.2761C18.3595 26.5262 18.0203 26.6667 17.6667 26.6667C17.3131 26.6667 16.9739 26.5262 16.7239 26.2761C16.4739 26.0261 16.3334 25.687 16.3334 25.3333V24H15C14.6464 24 14.3073 23.8595 14.0572 23.6095C13.8072 23.3594 13.6667 23.0203 13.6667 22.6667C13.6667 22.313 13.8072 21.9739 14.0572 21.7239C14.3073 21.4738 14.6464 21.3333 15 21.3333H16.3334V20C16.3334 19.6464 16.4739 19.3072 16.7239 19.0572C16.9739 18.8071 17.3131 18.6667 17.6667 18.6667C18.0203 18.6667 18.3595 18.8071 18.6095 19.0572C18.8596 19.3072 19 19.6464 19 20V21.3333H20.3334C20.687 21.3333 21.0261 21.4738 21.2762 21.7239C21.5262 21.9739 21.6667 22.313 21.6667 22.6667C21.6667 23.0203 21.5262 23.3594 21.2762 23.6095C21.0261 23.8595 20.687 24 20.3334 24ZM33.6667 24H28.3334C27.9798 24 27.6406 23.8595 27.3906 23.6095C27.1405 23.3594 27 23.0203 27 22.6667C27 22.313 27.1405 21.9739 27.3906 21.7239C27.6406 21.4738 27.9798 21.3333 28.3334 21.3333H33.6667C34.0203 21.3333 34.3595 21.4738 34.6095 21.7239C34.8596 21.9739 35 22.313 35 22.6667C35 23.0203 34.8596 23.3594 34.6095 23.6095C34.3595 23.8595 34.0203 24 33.6667 24Z" fill="#222229"/>
</g>
<defs>
<clipPath id="clip0_944_17043">
<rect width="32" height="32" fill="white" transform="translate(8.33337 8)"/>
</clipPath>
</defs>
</svg>
