<svg width="49" height="48" viewBox="0 0 49 48" fill="none" xmlns="http://www.w3.org/2000/svg">
<rect x="0.666656" width="48" height="48" rx="16" fill="#A4F40F"/>
<g clip-path="url(#clip0_944_17036)">
<path fill-rule="evenodd" clip-rule="evenodd" d="M10.6666 19.9997V18.0005C10.6666 17.2049 10.9826 16.4417 11.5456 15.8789C12.1076 15.3161 12.8706 15.0005 13.6666 15.0005H35.6666C36.4626 15.0005 37.2256 15.3161 37.7876 15.8789C38.3506 16.4417 38.6666 17.2049 38.6666 18.0005V19.9997H10.6666ZM38.6666 22.0001V31.9997C38.6666 32.7953 38.3506 33.5585 37.7876 34.1213C37.2256 34.6841 36.4626 34.9997 35.6666 34.9997H13.6666C12.8706 34.9997 12.1076 34.6841 11.5456 34.1213C10.9826 33.5585 10.6666 32.7953 10.6666 31.9997V22.0001H38.6666ZM28.5316 30.0137L28.2516 30.2933C27.8616 30.6833 27.8616 31.3169 28.2516 31.7069C28.6426 32.0969 29.2756 32.0969 29.6666 31.7069L31.6286 29.7449C32.0186 29.3537 32.0186 28.7213 31.6286 28.3301C31.4456 28.1357 31.1856 28.0133 30.8976 28.0133H23.4116C22.8596 28.0133 22.4116 28.4621 22.4116 29.0141C22.4116 29.5661 22.8596 30.0137 23.4116 30.0137H28.5316ZM18.6276 26.9861H25.9216C26.4736 26.9861 26.9216 26.5385 26.9216 25.9865C26.9216 25.4345 26.4736 24.9869 25.9216 24.9869H20.8496L21.1286 24.7073C21.5186 24.3173 21.5186 23.6837 21.1286 23.2925C20.7386 22.9025 20.1046 22.9025 19.7146 23.2925L17.7516 25.2557C17.7356 25.2713 17.7206 25.2869 17.7046 25.3037C17.3146 25.6937 17.3146 26.3273 17.7046 26.7173C17.9546 26.9681 18.3056 27.0581 18.6276 26.9861Z" fill="#222229"/>
<path fill-rule="evenodd" clip-rule="evenodd" d="M13.6869 -18.0125L11.6865 -18.0125C11.1348 -18.0125 10.6863 -18.461 10.6863 -19.0127C10.6863 -19.5644 11.1348 -20.0129 11.6865 -20.0129L13.6869 -20.0129L13.6874 -20.513C13.6869 -21.0652 14.1349 -21.5132 14.6876 -21.5132C15.2393 -21.5132 15.6873 -21.0652 15.6878 -20.513L15.6873 -20.0129L20.1746 -20.0129C20.2957 -20.2914 20.4711 -20.5526 20.6992 -20.7807L22.9211 -23.0026C23.1492 -23.2307 23.4104 -23.4061 23.6889 -23.5272L23.6889 -26.0141C23.6889 -26.5658 24.1374 -27.0143 24.6891 -27.0143C25.2408 -27.0143 25.6893 -26.5658 25.6893 -26.0141L25.6893 -23.5272C25.9679 -23.4061 26.2291 -23.2307 26.4571 -23.0026L28.6791 -20.7807C28.9072 -20.5526 29.0826 -20.2914 29.2036 -20.0129L33.691 -20.0129L33.6905 -20.513C33.691 -21.0652 34.139 -21.5132 34.6907 -21.5132C35.2434 -21.5132 35.6914 -21.0652 35.6909 -20.513L35.6914 -20.0129L37.6918 -20.0129C38.2435 -20.0129 38.692 -19.5643 38.692 -19.0127C38.692 -18.461 38.2435 -18.0125 37.6918 -18.0125L35.6914 -18.0125V-15.6341C37.0728 -15.2073 38.0779 -13.9188 38.0784 -12.3978C38.0779 -10.5283 36.5602 -9.0106 34.6912 -9.0106C32.8222 -9.0106 31.3045 -10.5283 31.304 -12.3978C31.304 -13.9193 32.3096 -15.2073 33.691 -15.6341V-18.0125L29.2036 -18.0125C29.0825 -17.7339 28.9072 -17.4727 28.6791 -17.2447L26.4571 -15.0227C26.2291 -14.7946 25.9679 -14.6193 25.6894 -14.4982L25.6893 -4.00957L34.1911 -4.01011C35.5719 -4.00957 36.6916 -2.88991 36.6916 -1.5096C36.6916 -0.128208 35.5719 0.991455 34.1911 0.990914L15.1872 0.990918C13.8063 0.991461 12.6867 -0.128205 12.6867 -1.5096C12.6867 -2.8899 13.8063 -4.00957 15.1872 -4.01012L23.6889 -4.00958L23.6889 -14.4982C23.4104 -14.6192 23.1492 -14.7946 22.9211 -15.0227L20.6992 -17.2447C20.4711 -17.4727 20.2957 -17.7339 20.1746 -18.0125L15.6873 -18.0125L15.6873 -15.6341C17.0687 -15.2073 18.0743 -13.9193 18.0743 -12.3978C18.0738 -10.5283 16.5561 -9.0106 14.6871 -9.0106C12.8181 -9.0106 11.3004 -10.5283 11.2998 -12.3978C11.3004 -13.9188 12.3055 -15.2073 13.6869 -15.6341L13.6869 -18.0125ZM14.6871 -13.7847C13.922 -13.7841 13.3008 -13.1629 13.3003 -12.3978C13.3003 -11.6322 13.9214 -11.011 14.6871 -11.011C15.4527 -11.011 16.0739 -11.6322 16.0739 -12.3978C16.0739 -13.1635 15.4527 -13.7847 14.6871 -13.7847ZM34.6912 -13.7847C33.9256 -13.7847 33.3044 -13.1635 33.3044 -12.3978C33.3044 -11.6322 33.9256 -11.011 34.6912 -11.011C35.4568 -11.011 36.078 -11.6322 36.078 -12.3978C36.0775 -13.1629 35.4563 -13.7841 34.6912 -13.7847Z" fill="#222229"/>
</g>
<defs>
<clipPath id="clip0_944_17036">
<rect width="32" height="32" fill="white" transform="translate(8.66666 8)"/>
</clipPath>
</defs>
</svg>
