<svg width="48" height="48" viewBox="0 0 48 48" fill="none" xmlns="http://www.w3.org/2000/svg">
<rect width="48" height="48" rx="16" fill="#A4F40F"/>
<path fill-rule="evenodd" clip-rule="evenodd" d="M22.0936 14.6152C27.2729 14.6152 31.4783 18.8207 31.4783 23.9999C31.4783 29.1792 27.2729 33.3846 22.0936 33.3846C16.9144 33.3846 12.7089 29.1792 12.7089 23.9999C12.7089 18.8207 16.9144 14.6152 22.0936 14.6152ZM24.4065 25.4262C24.0449 26.3505 23.1454 27.0058 22.0936 27.0058C21.0418 27.0058 20.1423 26.3505 19.7807 25.4262C19.5549 24.848 18.9024 24.5625 18.3251 24.7883C17.7468 25.0141 17.4614 25.6667 17.6872 26.2449C18.3755 28.0062 20.09 29.2544 22.0936 29.2544C24.0972 29.2544 25.8117 28.0062 26.5001 26.2449C26.7258 25.6667 26.4404 25.0141 25.8622 24.7883C25.2849 24.5625 24.6323 24.848 24.4065 25.4262ZM33.6774 23.9999C33.6774 17.6064 28.4871 12.4161 22.0936 12.4161C15.7001 12.4161 10.5098 17.6064 10.5098 23.9999C10.5098 24.6204 10.0059 25.1243 9.3855 25.1243C8.76505 25.1243 8.26117 24.6204 8.26117 23.9999C8.26117 16.3655 14.4592 10.1675 22.0936 10.1675C28.6872 10.1675 34.2088 14.7905 35.5929 20.9693H36.3657C37.2606 20.9693 38.1178 21.3245 38.7511 21.9569C39.3835 22.5902 39.7387 23.4474 39.7387 24.3423V26.8351C39.7387 27.729 39.3835 28.5872 38.7511 29.2196C38.1178 29.8519 37.2606 30.2071 36.3657 30.2071H34.8017C34.6898 30.2071 34.5815 30.1906 34.4796 30.1603C32.2126 34.7063 27.5152 37.8324 22.0936 37.8324C21.4732 37.8324 20.9693 37.3285 20.9693 36.708C20.9693 36.0876 21.4732 35.5837 22.0936 35.5837C28.4871 35.5837 33.6774 30.3935 33.6774 23.9999Z" fill="#222229"/>
</svg>
