<svg width="32" height="32" viewBox="0 0 32 32" fill="none" xmlns="http://www.w3.org/2000/svg">
<g clip-path="url(#clip0_530_2870)">
<path d="M31.4935 18.2347C31.4648 18.248 31.435 18.2602 31.4041 18.2691C31.3732 18.2791 31.3423 18.2869 31.3092 18.2936C31.2761 18.3003 31.243 18.3047 31.2087 18.3081L24.2663 18.9119L19.8815 21.8066L26.5679 21.1538C26.601 21.1505 26.633 21.1461 26.6651 21.1394C26.6971 21.1327 26.7269 21.1249 26.7567 21.1149C26.7865 21.1049 26.8152 21.0938 26.8428 21.0804C26.8704 21.0671 26.898 21.0526 26.9234 21.0371C28.4744 20.0885 30.0253 19.1399 31.5763 18.1902C31.5498 18.2058 31.5222 18.2213 31.4935 18.2347Z" fill="url(#paint0_linear_530_2870)"/>
<path d="M10.6048 1.27672C10.5838 1.18219 10.5739 1.08878 10.5728 0.999813C10.5728 0.910848 10.5827 0.825219 10.6015 0.74515C10.6202 0.665081 10.6489 0.589461 10.6854 0.5194C10.7218 0.44934 10.7671 0.38484 10.8189 0.328125C9.61457 1.63925 8.41021 2.94927 7.20695 4.26039C7.15617 4.31599 7.11201 4.37716 7.07669 4.44499C7.04136 4.51283 7.01266 4.58511 6.99389 4.66185C6.97513 4.73858 6.96409 4.82087 6.96298 4.90539C6.96298 4.98991 6.97071 5.07887 6.99058 5.16895L8.59346 12.6943L12.3688 9.19129L10.6037 1.27561L10.6048 1.27672Z" fill="url(#paint1_linear_530_2870)"/>
<path d="M25.6858 28.5646C25.6604 28.5757 25.6339 28.5846 25.6063 28.5935C25.5787 28.6024 25.5511 28.6091 25.5235 28.6157C25.4948 28.6213 25.4661 28.6269 25.4363 28.6302L18.1991 29.571C18.0268 29.5933 17.8546 29.5755 17.689 29.5243C17.5235 29.4731 17.3656 29.3875 17.2243 29.2752C17.083 29.1629 16.9572 29.0228 16.8556 28.8626C16.7551 28.7025 16.6779 28.5223 16.6348 28.3288L14.7206 19.7415L10.7245 22.7007L12.4554 30.8265C12.4941 31.01 12.5647 31.1791 12.6596 31.3303C12.7546 31.4804 12.8727 31.6116 13.0063 31.7173C13.1398 31.8229 13.29 31.9019 13.4478 31.9497C13.6057 31.9975 13.7702 32.012 13.9347 31.9898L20.876 31.0334C20.9036 31.0289 20.9323 31.0245 20.9588 31.0178C20.9864 31.0111 21.0129 31.0045 21.0394 30.9956C21.0659 30.9867 21.0913 30.9778 21.1156 30.9678C21.1399 30.9578 21.1653 30.9455 21.1884 30.9333C22.7129 30.1315 24.2363 29.3308 25.7597 28.529C25.7354 28.5412 25.7101 28.5535 25.6847 28.5646H25.6858Z" fill="url(#paint2_linear_530_2870)"/>
<path d="M6.69374 20.4399C6.5105 20.4554 6.32725 20.4321 6.15393 20.3743C5.97951 20.3175 5.81503 20.2275 5.66821 20.1107C5.52139 19.9939 5.39334 19.8516 5.29068 19.6903C5.18912 19.5291 5.11405 19.3478 5.07541 19.1543L3.40962 10.9261C3.38864 10.8216 3.37981 10.7182 3.38202 10.6192C3.38423 10.5202 3.39858 10.4246 3.42286 10.3345C3.44715 10.2444 3.48137 10.1588 3.52442 10.081C3.56858 10.002 3.62046 9.92973 3.68228 9.86523C2.55298 11.0607 1.42258 12.2551 0.293281 13.4494C0.234774 13.5117 0.18289 13.5806 0.140942 13.6563C0.098993 13.7319 0.0647718 13.8131 0.0415898 13.8987C0.0184077 13.9843 0.00405686 14.0755 0.000745138 14.1689C-0.00256659 14.2635 0.00516077 14.3602 0.0239272 14.4603L1.53187 22.2481C1.56719 22.4305 1.63674 22.6006 1.73167 22.753C1.82661 22.9053 1.94804 23.0388 2.08603 23.1478C2.22402 23.2567 2.38077 23.3401 2.54525 23.3924C2.70974 23.4447 2.88415 23.4658 3.05857 23.448L10.7263 22.6985L14.7225 19.7393L6.69374 20.4376V20.4399Z" fill="url(#paint3_linear_530_2870)"/>
<path d="M32.0002 17.2248V17.2226C31.9936 17.1414 31.9792 17.0569 31.956 16.9712L30.0419 9.65273C30.0198 9.57044 29.9922 9.48926 29.9569 9.41253V9.41142C29.9226 9.33468 29.8818 9.26018 29.8365 9.19011C29.746 9.04888 29.6345 8.92322 29.5098 8.8198C29.4479 8.76864 29.3839 8.72194 29.3166 8.6819H29.3144L29.3122 8.67968C29.2448 8.63964 29.1753 8.60517 29.1046 8.57737C29.0329 8.54956 28.96 8.52955 28.8872 8.5162C28.8143 8.50286 28.7403 8.49841 28.6664 8.50063L21.7968 8.792L19.9422 1.18769C19.9025 1.02199 19.8318 0.865188 19.7402 0.722843C19.6949 0.651671 19.643 0.583835 19.5878 0.521559C19.5326 0.458171 19.4719 0.400344 19.4079 0.345853C19.2798 0.237982 19.1374 0.152353 18.9884 0.0923015C18.9134 0.0622757 18.8372 0.0389223 18.7599 0.0233534C18.6826 0.00778446 18.6043 0 18.527 0L11.5348 0.0311379C11.452 0.0311379 11.3737 0.0400344 11.2997 0.0567154C11.2257 0.0733964 11.1551 0.0978618 11.0911 0.129C10.9608 0.192387 10.8515 0.283577 10.7665 0.395896C10.6826 0.508214 10.623 0.642774 10.5954 0.791791C10.581 0.8663 10.5744 0.944144 10.5766 1.02533C10.5788 1.10651 10.5888 1.18991 10.6075 1.27665L12.3727 9.19234L4.45546 9.52818C4.27442 9.53597 4.10994 9.58045 3.96643 9.65496C3.89468 9.69166 3.82844 9.73614 3.76883 9.7873V9.78841C3.70922 9.83956 3.65513 9.89628 3.60766 9.95966C3.51272 10.0864 3.44538 10.2355 3.41116 10.3989C3.3935 10.4812 3.38467 10.5657 3.38577 10.6547C3.38577 10.7437 3.3946 10.8349 3.41337 10.9283L5.07917 19.1565C5.09904 19.2532 5.12664 19.3455 5.16307 19.4345V19.4367C5.19949 19.5257 5.24365 19.6113 5.29333 19.6914C5.34411 19.7725 5.40151 19.8482 5.46443 19.9182C5.52736 19.9883 5.5958 20.0528 5.66976 20.1106C5.81658 20.2274 5.98106 20.3174 6.15548 20.3742C6.32879 20.4309 6.51204 20.4553 6.69529 20.4398L14.724 19.7414L16.6382 28.3288C16.6592 28.4244 16.689 28.5167 16.7254 28.6057V28.609L16.7276 28.6124C16.764 28.7002 16.8082 28.7847 16.8579 28.8637C16.9087 28.9437 16.965 29.0183 17.0268 29.0872V29.0883C17.0886 29.1573 17.1548 29.2195 17.2255 29.2763C17.2961 29.3319 17.3701 29.3808 17.4474 29.423H17.4485L17.4507 29.4253C17.5279 29.4664 17.6085 29.5009 17.6902 29.5265C17.773 29.552 17.8569 29.5698 17.9419 29.5776C18.0269 29.5854 18.113 29.5843 18.198 29.5732L25.4352 28.6324C25.5158 28.6224 25.592 28.6023 25.6626 28.5745C25.7333 28.5467 25.7995 28.5112 25.8614 28.4678C25.9221 28.4244 25.9773 28.3744 26.028 28.3188H26.0291L26.0302 28.3154C26.0799 28.2598 26.123 28.1976 26.1605 28.1308C26.2356 27.9952 26.2853 27.8395 26.3051 27.6715C26.3239 27.5036 26.314 27.3235 26.2687 27.1378L24.2629 18.9129L31.2054 18.3091C31.3533 18.2957 31.4858 18.249 31.5984 18.1745C31.7099 18.1 31.8015 17.9988 31.8688 17.8776C31.9019 17.8175 31.9295 17.7519 31.9505 17.683V17.6807C31.9715 17.6118 31.9858 17.5384 31.9936 17.4628C32.0013 17.386 32.0013 17.3071 31.9947 17.2248H32.0002Z" fill="url(#paint4_linear_530_2870)"/>
<path d="M12.3688 17.3374L11.2903 11.7937L5.91318 12.1318L6.9917 17.7888L12.3688 17.3374ZM10.6501 12.6311L11.4261 16.619L7.63417 16.937L6.85923 12.8691L10.6501 12.6311Z" fill="#D07500"/>
<path d="M29.7301 13.5616C29.5623 11.9569 28.1305 10.6514 26.5376 10.6514C25.7726 10.6514 25.0849 10.9505 24.6002 11.4921C24.1112 12.0392 23.8871 12.7676 23.9677 13.5439C24.1355 15.1486 25.5673 16.4541 27.1602 16.4541C27.9252 16.4541 28.613 16.155 29.0976 15.6134C29.5866 15.0663 29.8107 14.3379 29.7301 13.5616ZM28.5169 15.0863C28.1824 15.4599 27.7011 15.6668 27.1613 15.6668C25.9768 15.6668 24.8718 14.657 24.7471 13.4627C24.6897 12.9111 24.8442 12.3995 25.182 12.0203C25.5165 11.6467 25.9978 11.4398 26.5376 11.4398C27.7221 11.4398 28.8271 12.4496 28.9519 13.6439C29.0093 14.1955 28.8547 14.7082 28.5169 15.0863Z" fill="#D07500"/>
<path d="M23.1824 26.3947L23.6681 25.7419L21.3886 24.085L23.0367 21.7852L22.3887 21.2959L20.7417 23.5934L18.2071 21.6796L17.7214 22.3323L20.2548 24.2451L18.3561 26.7962L19.0041 27.2855L20.9017 24.7355L23.1824 26.3947Z" fill="#D07500"/>
<path d="M15.8302 1.19423L13.385 7.15379L19.7447 6.78458L15.8302 1.19312V1.19423ZM18.5646 6.16405L14.6413 6.30417L16.0024 2.66438L18.5635 6.16294L18.5646 6.16405Z" fill="#D07500"/>
</g>
<defs>
<linearGradient id="paint0_linear_530_2870" x1="21.1422" y1="18.317" x2="30.3314" y2="21.6375" gradientUnits="userSpaceOnUse">
<stop stop-color="#D39D04"/>
<stop offset="0.47" stop-color="#C06C11"/>
</linearGradient>
<linearGradient id="paint1_linear_530_2870" x1="6.71681" y1="5.41472" x2="12.9237" y2="7.65729" gradientUnits="userSpaceOnUse">
<stop stop-color="#D39D04"/>
<stop offset="0.47" stop-color="#C06C11"/>
</linearGradient>
<linearGradient id="paint2_linear_530_2870" x1="10.1151" y1="24.391" x2="25.2779" y2="29.8696" gradientUnits="userSpaceOnUse">
<stop stop-color="#D39D04"/>
<stop offset="0.47" stop-color="#C06C11"/>
</linearGradient>
<linearGradient id="paint3_linear_530_2870" x1="-0.473936" y1="15.3155" x2="14.3825" y2="20.6832" gradientUnits="userSpaceOnUse">
<stop stop-color="#D39D04"/>
<stop offset="0.47" stop-color="#C06C11"/>
</linearGradient>
<linearGradient id="paint4_linear_530_2870" x1="10.8835" y1="24.8046" x2="25.2405" y2="4.45196" gradientUnits="userSpaceOnUse">
<stop offset="0.16" stop-color="#FBF6C8"/>
<stop offset="0.48" stop-color="#FACC00"/>
</linearGradient>
<clipPath id="clip0_530_2870">
<rect width="32" height="32" fill="white"/>
</clipPath>
</defs>
</svg>
