<svg width="20" height="20" viewBox="0 0 20 20" fill="none" xmlns="http://www.w3.org/2000/svg">
<path d="M10.0455 17.272C8.01515 17.272 6.28788 16.5675 4.86364 15.1584C3.43939 13.7493 2.72727 12.0296 2.72727 9.99929V9.8402L1.27273 11.2947L0 10.022L3.63636 6.38565L7.27273 10.022L6 11.2947L4.54545 9.8402V9.99929C4.54545 11.5144 5.07955 12.8023 6.14773 13.8629C7.21591 14.9235 8.51515 15.4538 10.0455 15.4538C10.4394 15.4538 10.8258 15.4084 11.2045 15.3175C11.5833 15.2266 11.9545 15.0902 12.3182 14.9084L13.6818 16.272C13.1061 16.6054 12.5152 16.8554 11.9091 17.022C11.303 17.1887 10.6818 17.272 10.0455 17.272ZM16.3636 13.6129L12.7273 9.97656L14 8.70384L15.4545 10.1584V9.99929C15.4545 8.48414 14.9205 7.19626 13.8523 6.13565C12.7841 5.07505 11.4848 4.54474 9.95455 4.54474C9.56061 4.54474 9.17424 4.5902 8.79545 4.68111C8.41667 4.77202 8.04545 4.90838 7.68182 5.0902L6.31818 3.72656C6.89394 3.39323 7.48485 3.14323 8.09091 2.97656C8.69697 2.8099 9.31818 2.72656 9.95455 2.72656C11.9848 2.72656 13.7121 3.43111 15.1364 4.8402C16.5606 6.24929 17.2727 7.96899 17.2727 9.99929V10.1584L18.7273 8.70384L20 9.97656L16.3636 13.6129Z" fill="#71717D"/>
</svg>
