<svg width="168" height="49" viewBox="0 0 168 49" fill="none" xmlns="http://www.w3.org/2000/svg">
<rect x="0.5" y="0.5" width="167" height="48" rx="15.5" fill="#1A1A1F"/>
<rect x="0.5" y="0.5" width="167" height="48" rx="15.5" stroke="#222229"/>
<g style="mix-blend-mode:luminosity">
<path d="M37.2402 13.5312H59.1257V35.468H37.2402V13.5312Z" fill="#C5412B"/>
<path d="M40.1851 27.0246L40.1626 22.5508C40.1626 22.5508 42.5996 23.4012 44.2645 23.4293L44.2915 26.2966C44.2915 26.2966 42.3318 26.2959 40.238 27.0585" fill="black"/>
<path d="M45.1235 23.4033L46.4657 23.377L46.4926 26.2968H45.1772L45.1235 23.4033Z" fill="black"/>
<path d="M48.6401 23.9688L47.7734 24.8747L48.6959 25.791L49.5499 24.8428L48.6401 23.9688Z" fill="black"/>
<path d="M47.3247 21.2592L50.2076 21.2461L50.2344 22.6122H47.3649L47.3247 21.2592Z" fill="black"/>
<path d="M51.0794 25.2656L49.0278 27.2623L50.0335 28.2212L51.9643 26.2981L51.0794 25.2656Z" fill="black"/>
<path d="M46.4912 16.3267L51.0578 16.3047C51.0578 16.3047 50.1495 18.8103 50.1208 20.4414L47.3416 20.4547C47.3416 20.4547 47.235 18.4298 46.4565 16.3786" fill="black"/>
<path d="M56.2792 29.1427L53.0748 32.3302C53.0748 32.3302 51.9019 29.9323 50.7417 28.7621L52.692 26.8223C52.692 26.8223 54.2326 28.1762 56.2661 29.082" fill="black"/>
<path d="M61.355 13.5312H77.1611V18.0973H61.355V13.5312Z" fill="#999999"/>
<path d="M61.355 18.0977V35.4684H66.2184V29.0824H68.3462V35.4684H77.1611V30.8031H72.703V29.0824H77.1611V18.0977H72.703V24.5405H66.2184V18.0977H61.355Z" fill="#999999"/>
<path d="M79.5928 13.5312V35.468H95.095V13.5312H90.6368V30.8027H84.2536V13.5312H79.5928Z" fill="#999999"/>
<path d="M112.927 13.5312H97.5264V26.2963H108.368V30.8027H97.5264V35.468H112.927V21.6333H102.086V18.0973H112.927V13.5312Z" fill="#999999"/>
<path d="M115.258 13.5312H130.76V18.0973H125.289V35.468H120.932V18.0973H115.258V13.5312Z" fill="#999999"/>
</g>
</svg>
