<svg width="66" height="33" viewBox="0 0 66 33" fill="none" xmlns="http://www.w3.org/2000/svg">
<path d="M52.323 13.0048L54.7639 11.2534H46.5898V21.7454H54.7639V19.9926H48.9246V17.3147H53.9154V15.5634H48.9246V13.0048H52.323Z" fill="#21A038"/>
<path d="M40.4142 15.3394H37.5825V13.0048H42.1127L44.555 11.2534H35.2477V21.7454H40.1127C42.8384 21.7454 44.4126 20.5425 44.4126 18.4478C44.4126 16.4391 42.9975 15.3394 40.4142 15.3394ZM40.0248 19.9926H37.5825V17.0907H40.0248C41.5112 17.0907 42.2006 17.5722 42.2006 18.5511C42.2006 19.5301 41.4581 19.9926 40.0248 19.9926Z" fill="#21A038"/>
<path d="M61.3819 11.2534H56.9411V21.7454H59.2759V18.7737H61.4001C64.2303 18.7737 66 17.3322 66 15.0135C66 12.6949 64.2303 11.2534 61.3819 11.2534ZM61.3289 17.0223H59.2592V13.0048H61.3289C62.8334 13.0048 63.647 13.7262 63.647 15.0135C63.647 16.3009 62.8334 17.0223 61.3289 17.0223Z" fill="#21A038"/>
<path d="M31.2478 19.4787C30.6296 19.806 29.9387 19.9776 29.2311 19.9776C27.1251 19.9776 25.6039 18.5172 25.6039 16.5084C25.6039 14.4996 27.1251 13.0392 29.2311 13.0392C29.9917 13.0232 30.7356 13.2632 31.3538 13.6923L33.0356 12.4908L32.9295 12.3875C31.9568 11.5453 30.6463 11.1162 29.1599 11.1162C27.5509 11.1162 26.0812 11.6486 25.0206 12.6101C23.9585 13.6065 23.357 14.9971 23.3919 16.44C23.3737 17.899 23.9585 19.307 25.0206 20.3369C26.1342 21.3507 27.6206 21.918 29.1433 21.8831C30.8235 21.8831 32.2917 21.3158 33.2826 20.286L31.7796 19.2038L31.2478 19.4787Z" fill="#21A038"/>
<path d="M16.0845 11.1865C16.5087 11.7189 16.8633 12.3022 17.1632 12.9204L8.98919 18.7751L5.55594 16.6805V14.1743L8.97101 16.2514L16.0845 11.1865Z" fill="#21A038"/>
<path d="M2.06965 16.5086C2.06965 16.3878 2.06965 16.286 2.08783 16.1653L0.0181814 16.062C0.0181814 16.2002 0 16.3544 0 16.4911C0 18.8956 1.00907 21.076 2.6363 22.6557L4.10445 21.2302C2.84842 20.0287 2.06965 18.3632 2.06965 16.5086Z" fill="url(#paint0_linear_5009_8106)"/>
<path d="M8.97103 9.81055C9.09526 9.81055 9.20132 9.81055 9.32556 9.82801L9.43162 7.81921C9.2892 7.81921 9.13011 7.80176 8.98921 7.80176C6.51199 7.80176 4.26507 8.7807 2.63632 10.3604L4.10447 11.7859C5.34384 10.5669 7.07713 9.81055 8.97103 9.81055Z" fill="url(#paint1_linear_5009_8106)"/>
<path d="M8.971 23.2053C8.84676 23.2053 8.7407 23.2053 8.61646 23.1879L8.51041 25.1967C8.65283 25.1967 8.81191 25.2141 8.95282 25.2141C11.43 25.2141 13.6785 24.2352 15.3057 22.6555L13.8376 21.23C12.5982 22.4664 10.8816 23.2053 8.971 23.2053Z" fill="url(#paint2_linear_5009_8106)"/>
<path d="M12.8633 10.9794L14.6148 9.72559C13.0754 8.52409 11.1118 7.78516 8.97098 7.78516V9.79395C10.4225 9.81141 11.7664 10.2405 12.8633 10.9794Z" fill="url(#paint3_linear_5009_8106)"/>
<path d="M17.9602 16.508C17.9602 15.9757 17.9072 15.4607 17.8178 14.9458L15.889 16.3364C15.889 16.3873 15.889 16.4571 15.889 16.508C15.889 18.4834 15.0042 20.2522 13.6073 21.4711L15.0042 22.965C16.8102 21.3853 17.9602 19.0667 17.9602 16.508Z" fill="#21A038"/>
<path d="M8.97099 23.2056C6.93619 23.2056 5.1135 22.3474 3.85747 20.9902L2.31812 22.3474C3.96353 24.1162 6.33469 25.2144 8.97099 25.2144V23.2056Z" fill="url(#paint4_linear_5009_8106)"/>
<path d="M4.35293 11.5451L2.95448 10.0513C1.13179 11.6484 0 13.9496 0 16.5082H2.06965C2.06965 14.5503 2.95448 12.7655 4.35293 11.5451Z" fill="url(#paint5_linear_5009_8106)"/>
<defs>
<linearGradient id="paint0_linear_5009_8106" x1="2.4156" y1="22.4115" x2="0.440006" y2="16.4363" gradientUnits="userSpaceOnUse">
<stop offset="0.1444" stop-color="#F2E913"/>
<stop offset="0.3037" stop-color="#E7E518"/>
<stop offset="0.5823" stop-color="#CADB26"/>
<stop offset="0.891" stop-color="#A3CD39"/>
</linearGradient>
<linearGradient id="paint1_linear_5009_8106" x1="3.22666" y1="10.1336" x2="8.53966" y2="8.01513" gradientUnits="userSpaceOnUse">
<stop offset="0.0592" stop-color="#0FA8E0"/>
<stop offset="0.5385" stop-color="#0099F9"/>
<stop offset="0.9234" stop-color="#0291EB"/>
</linearGradient>
<linearGradient id="paint2_linear_5009_8106" x1="8.38949" y1="23.5056" x2="14.7625" y2="21.9986" gradientUnits="userSpaceOnUse">
<stop offset="0.1226" stop-color="#A3CD39"/>
<stop offset="0.2846" stop-color="#86C339"/>
<stop offset="0.8693" stop-color="#21A038"/>
</linearGradient>
<linearGradient id="paint3_linear_5009_8106" x1="8.54571" y1="9.06511" x2="13.8284" y2="10.7706" gradientUnits="userSpaceOnUse">
<stop offset="0.0566" stop-color="#0291EB"/>
<stop offset="0.79" stop-color="#0C8ACB"/>
</linearGradient>
<linearGradient id="paint4_linear_5009_8106" x1="2.8444" y1="22.6652" x2="8.50277" y2="24.8773" gradientUnits="userSpaceOnUse">
<stop offset="0.1324" stop-color="#F2E913"/>
<stop offset="0.2977" stop-color="#EBE716"/>
<stop offset="0.5306" stop-color="#D9E01F"/>
<stop offset="0.8023" stop-color="#BBD62D"/>
<stop offset="0.9829" stop-color="#A3CD39"/>
</linearGradient>
<linearGradient id="paint5_linear_5009_8106" x1="1.58632" y1="16.751" x2="3.72549" y2="10.9284" gradientUnits="userSpaceOnUse">
<stop offset="0.0698" stop-color="#A3CD39"/>
<stop offset="0.2599" stop-color="#81C55F"/>
<stop offset="0.9216" stop-color="#0FA8E0"/>
</linearGradient>
</defs>
</svg>
