<svg width="400" height="40" viewBox="0 0 400 40" fill="none" xmlns="http://www.w3.org/2000/svg">
<rect x="0.5" y="0.5" width="399" height="39" rx="19.5" fill="#1A1A1F"/>
<rect x="0.5" y="0.5" width="399" height="39" rx="19.5" stroke="#222229"/>
<path opacity="0.3" d="M17.233 25V14.8182H23.3778V15.9119H18.4659V19.0938H21.0511C21.7803 19.0938 22.3951 19.2131 22.8956 19.4517C23.3994 19.6903 23.7805 20.0268 24.0391 20.4609C24.3009 20.8951 24.4318 21.4072 24.4318 21.9972C24.4318 22.5871 24.3009 23.1075 24.0391 23.5582C23.7805 24.009 23.3994 24.362 22.8956 24.6172C22.3951 24.8724 21.7803 25 21.0511 25H17.233ZM18.4659 23.9261H21.0511C21.5152 23.9261 21.9079 23.8333 22.2294 23.6477C22.5542 23.4588 22.7995 23.2169 22.9652 22.9219C23.1342 22.6236 23.2188 22.3087 23.2188 21.9773C23.2188 21.4901 23.0315 21.0708 22.657 20.7195C22.2824 20.3648 21.7472 20.1875 21.0511 20.1875H18.4659V23.9261ZM27.3166 20.1278H29.5041C30.399 20.1278 31.0834 20.3549 31.5574 20.8089C32.0313 21.263 32.2683 21.8381 32.2683 22.5341C32.2683 22.9915 32.1622 23.4074 31.9501 23.782C31.738 24.1532 31.4264 24.4498 31.0154 24.6719C30.6045 24.8906 30.1007 25 29.5041 25H26.3024V17.3636H27.4757V23.9062H29.5041C29.9681 23.9062 30.3493 23.7836 30.6475 23.5384C30.9458 23.2931 31.095 22.9782 31.095 22.5938C31.095 22.1894 30.9458 21.8596 30.6475 21.6044C30.3493 21.3492 29.9681 21.2216 29.5041 21.2216H27.3166V20.1278ZM33.4814 25V17.3636H34.6547V25H33.4814ZM39.9047 25.1591C39.1887 25.1591 38.5723 24.9901 38.0552 24.652C37.5382 24.3139 37.1404 23.8482 36.862 23.255C36.5836 22.6617 36.4444 21.9839 36.4444 21.2216C36.4444 20.446 36.5869 19.7616 36.872 19.1683C37.1603 18.5717 37.5614 18.1061 38.0751 17.7713C38.5922 17.4332 39.1954 17.2642 39.8848 17.2642C40.4217 17.2642 40.9056 17.3636 41.3365 17.5625C41.7673 17.7614 42.1203 18.0398 42.3954 18.3977C42.6705 18.7557 42.8412 19.1733 42.9075 19.6506H41.7342C41.6447 19.3026 41.4458 18.9943 41.1376 18.7259C40.8327 18.4541 40.4217 18.3182 39.9047 18.3182C39.4473 18.3182 39.0462 18.4375 38.7015 18.6761C38.3601 18.9115 38.0933 19.2446 37.9011 19.6754C37.7122 20.103 37.6177 20.6051 37.6177 21.1818C37.6177 21.7718 37.7105 22.2855 37.8961 22.723C38.085 23.1605 38.3502 23.5002 38.6916 23.7422C39.0363 23.9841 39.4406 24.1051 39.9047 24.1051C40.2096 24.1051 40.4863 24.0521 40.7349 23.946C40.9835 23.84 41.194 23.6875 41.3663 23.4886C41.5386 23.2898 41.6613 23.0511 41.7342 22.7727H42.9075C42.8412 23.2235 42.6771 23.6295 42.4153 23.9908C42.1568 24.3487 41.8137 24.6338 41.3862 24.8459C40.9619 25.0547 40.4681 25.1591 39.9047 25.1591ZM44.0211 18.4574V17.3636H50.2257V18.4574H47.72V25H46.5467V18.4574H44.0211ZM51.9371 27.8636V17.3636H53.0707V18.5767H53.2099C53.296 18.4441 53.4154 18.2751 53.5678 18.0696C53.7236 17.8608 53.9457 17.6752 54.234 17.5128C54.5257 17.3471 54.9201 17.2642 55.4173 17.2642C56.0603 17.2642 56.627 17.425 57.1175 17.7464C57.6081 18.0679 57.9909 18.5237 58.266 19.1136C58.5411 19.7036 58.6786 20.3996 58.6786 21.2017C58.6786 22.0104 58.5411 22.7114 58.266 23.3047C57.9909 23.8946 57.6097 24.352 57.1225 24.6768C56.6353 24.9983 56.0735 25.1591 55.4371 25.1591C54.9466 25.1591 54.5539 25.0779 54.2589 24.9155C53.9639 24.7498 53.7369 24.5625 53.5778 24.3537C53.4187 24.1416 53.296 23.9659 53.2099 23.8267H53.1104V27.8636H51.9371ZM53.0906 21.1818C53.0906 21.7585 53.1751 22.2673 53.3441 22.7081C53.5131 23.1456 53.7601 23.4886 54.0849 23.7372C54.4097 23.9825 54.8074 24.1051 55.2781 24.1051C55.7686 24.1051 56.1779 23.9759 56.506 23.7173C56.8375 23.4555 57.0861 23.1042 57.2518 22.6634C57.4208 22.2192 57.5053 21.7254 57.5053 21.1818C57.5053 20.6449 57.4225 20.161 57.2567 19.7301C57.0943 19.2959 56.8474 18.9529 56.516 18.701C56.1879 18.4458 55.7752 18.3182 55.2781 18.3182C54.8008 18.3182 54.3997 18.4392 54.0749 18.6811C53.7501 18.9197 53.5049 19.2545 53.3391 19.6854C53.1734 20.1129 53.0906 20.6117 53.0906 21.1818ZM61.4826 20.1278H63.6701C64.565 20.1278 65.2494 20.3549 65.7234 20.8089C66.1973 21.263 66.4343 21.8381 66.4343 22.5341C66.4343 22.9915 66.3282 23.4074 66.1161 23.782C65.904 24.1532 65.5924 24.4498 65.1815 24.6719C64.7705 24.8906 64.2667 25 63.6701 25H60.4684V17.3636H61.6417V23.9062H63.6701C64.1341 23.9062 64.5153 23.7836 64.8136 23.5384C65.1119 23.2931 65.261 22.9782 65.261 22.5938C65.261 22.1894 65.1119 21.8596 64.8136 21.6044C64.5153 21.3492 64.1341 21.2216 63.6701 21.2216H61.4826V20.1278ZM67.6474 25V17.3636H68.8207V25H67.6474ZM72.1417 23.2699L75.8207 17.3636H77.1729V25H75.9996V19.0938L72.3406 25H70.9684V17.3636H72.1417V23.2699ZM75.0451 14.8182H76.1388C76.1388 15.3551 75.9532 15.7943 75.582 16.1357C75.2108 16.477 74.707 16.6477 74.0707 16.6477C73.4442 16.6477 72.9454 16.477 72.5742 16.1357C72.2063 15.7943 72.0224 15.3551 72.0224 14.8182H73.1161C73.1161 15.0767 73.1874 15.3037 73.3299 15.4993C73.4757 15.6948 73.7227 15.7926 74.0707 15.7926C74.4187 15.7926 74.6673 15.6948 74.8164 15.4993C74.9689 15.3037 75.0451 15.0767 75.0451 14.8182ZM83.2594 25V17.3636H89.2651V25H88.0918V18.4574H84.4327V25H83.2594ZM94.5101 25.1591C93.8207 25.1591 93.2159 24.995 92.6955 24.6669C92.1784 24.3388 91.7741 23.8797 91.4824 23.2898C91.1941 22.6998 91.0499 22.0104 91.0499 21.2216C91.0499 20.4261 91.1941 19.7318 91.4824 19.1385C91.7741 18.5452 92.1784 18.0845 92.6955 17.7564C93.2159 17.4283 93.8207 17.2642 94.5101 17.2642C95.1995 17.2642 95.8027 17.4283 96.3198 17.7564C96.8401 18.0845 97.2445 18.5452 97.5328 19.1385C97.8245 19.7318 97.9703 20.4261 97.9703 21.2216C97.9703 22.0104 97.8245 22.6998 97.5328 23.2898C97.2445 23.8797 96.8401 24.3388 96.3198 24.6669C95.8027 24.995 95.1995 25.1591 94.5101 25.1591ZM94.5101 24.1051C95.0338 24.1051 95.4647 23.9709 95.8027 23.7024C96.1408 23.4339 96.391 23.081 96.5534 22.6435C96.7159 22.206 96.7971 21.732 96.7971 21.2216C96.7971 20.7112 96.7159 20.2356 96.5534 19.7947C96.391 19.3539 96.1408 18.9976 95.8027 18.7259C95.4647 18.4541 95.0338 18.3182 94.5101 18.3182C93.9864 18.3182 93.5556 18.4541 93.2175 18.7259C92.8794 18.9976 92.6292 19.3539 92.4668 19.7947C92.3044 20.2356 92.2232 20.7112 92.2232 21.2216C92.2232 21.732 92.3044 22.206 92.4668 22.6435C92.6292 23.081 92.8794 23.4339 93.2175 23.7024C93.5556 23.9709 93.9864 24.1051 94.5101 24.1051ZM100.935 23.2699L104.614 17.3636H105.966V25H104.793V19.0938L101.134 25H99.7614V17.3636H100.935V23.2699ZM111.217 25.1591C110.501 25.1591 109.885 24.9901 109.368 24.652C108.851 24.3139 108.453 23.8482 108.175 23.255C107.896 22.6617 107.757 21.9839 107.757 21.2216C107.757 20.446 107.899 19.7616 108.184 19.1683C108.473 18.5717 108.874 18.1061 109.388 17.7713C109.905 17.4332 110.508 17.2642 111.197 17.2642C111.734 17.2642 112.218 17.3636 112.649 17.5625C113.08 17.7614 113.433 18.0398 113.708 18.3977C113.983 18.7557 114.154 19.1733 114.22 19.6506H113.047C112.957 19.3026 112.758 18.9943 112.45 18.7259C112.145 18.4541 111.734 18.3182 111.217 18.3182C110.76 18.3182 110.359 18.4375 110.014 18.6761C109.673 18.9115 109.406 19.2446 109.214 19.6754C109.025 20.103 108.93 20.6051 108.93 21.1818C108.93 21.7718 109.023 22.2855 109.209 22.723C109.398 23.1605 109.663 23.5002 110.004 23.7422C110.349 23.9841 110.753 24.1051 111.217 24.1051C111.522 24.1051 111.799 24.0521 112.047 23.946C112.296 23.84 112.506 23.6875 112.679 23.4886C112.851 23.2898 112.974 23.0511 113.047 22.7727H114.22C114.154 23.2235 113.99 23.6295 113.728 23.9908C113.469 24.3487 113.126 24.6338 112.699 24.8459C112.274 25.0547 111.781 25.1591 111.217 25.1591ZM115.935 25V17.3636H117.108V20.6847H117.884L120.628 17.3636H122.14L119.057 21.0426L122.18 25H120.668L118.162 21.7784H117.108V25H115.935Z" fill="white"/>
<g opacity="0.5" clip-path="url(#clip0_1193_15838)">
<path d="M378.6 23.8596C376.137 23.8596 374.14 21.8628 374.14 19.3995C374.14 16.9363 376.137 14.9395 378.6 14.9395C381.063 14.9395 383.06 16.9363 383.06 19.3995C383.06 21.8628 381.063 23.8596 378.6 23.8596Z" stroke="white" stroke-width="1.5" stroke-linecap="round" stroke-linejoin="round"/>
<path d="M372.955 25.0453L375.317 22.6836" stroke="white" stroke-width="1.5" stroke-linecap="square" stroke-linejoin="round"/>
</g>
<defs>
<clipPath id="clip0_1193_15838">
<rect width="12" height="12" fill="white" transform="matrix(-1 0 0 1 384 14)"/>
</clipPath>
</defs>
</svg>
