<svg width="220" height="38" viewBox="0 0 220 38" fill="none" xmlns="http://www.w3.org/2000/svg">
<rect x="0.5" y="0.5" width="219" height="37" rx="11.5" fill="#1A1A1F"/>
<rect x="0.5" y="0.5" width="219" height="37" rx="11.5" stroke="#222229"/>
<g opacity="0.3">
<path d="M10.3999 16.5996L21.5999 16.6074" stroke="white" stroke-width="2" stroke-linecap="square" stroke-linejoin="round"/>
<path d="M10.3999 21.4004L21.5999 21.4004" stroke="white" stroke-width="2" stroke-linecap="square" stroke-linejoin="round"/>
</g>
<path d="M40.8494 13.8182V24H39.6165V14.9119H34.4858V24H33.2528V13.8182H40.8494ZM46.2797 24.1591C45.5903 24.1591 44.9854 23.995 44.465 23.6669C43.948 23.3388 43.5436 22.8797 43.252 22.2898C42.9636 21.6998 42.8194 21.0104 42.8194 20.2216C42.8194 19.4261 42.9636 18.7318 43.252 18.1385C43.5436 17.5452 43.948 17.0845 44.465 16.7564C44.9854 16.4283 45.5903 16.2642 46.2797 16.2642C46.969 16.2642 47.5723 16.4283 48.0893 16.7564C48.6097 17.0845 49.014 17.5452 49.3024 18.1385C49.594 18.7318 49.7399 19.4261 49.7399 20.2216C49.7399 21.0104 49.594 21.6998 49.3024 22.2898C49.014 22.8797 48.6097 23.3388 48.0893 23.6669C47.5723 23.995 46.969 24.1591 46.2797 24.1591ZM46.2797 23.1051C46.8033 23.1051 47.2342 22.9709 47.5723 22.7024C47.9103 22.4339 48.1606 22.081 48.323 21.6435C48.4854 21.206 48.5666 20.732 48.5666 20.2216C48.5666 19.7112 48.4854 19.2356 48.323 18.7947C48.1606 18.3539 47.9103 17.9976 47.5723 17.7259C47.2342 17.4541 46.8033 17.3182 46.2797 17.3182C45.756 17.3182 45.3251 17.4541 44.987 17.7259C44.649 17.9976 44.3987 18.3539 44.2363 18.7947C44.0739 19.2356 43.9927 19.7112 43.9927 20.2216C43.9927 20.732 44.0739 21.206 44.2363 21.6435C44.3987 22.081 44.649 22.4339 44.987 22.7024C45.3251 22.9709 45.756 23.1051 46.2797 23.1051ZM56.2241 26.8636C56.0252 26.8636 55.8479 26.8471 55.6921 26.8139C55.5363 26.7841 55.4286 26.7543 55.369 26.7244L55.6673 25.6903C55.9523 25.7633 56.2042 25.7898 56.4229 25.7699C56.6417 25.75 56.8356 25.6522 57.0046 25.4766C57.177 25.3042 57.3344 25.0241 57.4769 24.6364L57.6957 24.0398L54.8718 16.3636H56.1445L58.2525 22.4489H58.332L60.44 16.3636H61.7127L58.4712 25.1136C58.3254 25.508 58.1448 25.8345 57.9293 26.093C57.7139 26.3549 57.4637 26.5488 57.1786 26.6747C56.8969 26.8007 56.5787 26.8636 56.2241 26.8636ZM67.4375 22.4091L70.1023 16.3636H71.2159L67.9148 24H66.9602L63.7188 16.3636H64.8125L67.4375 22.4091ZM64.4347 16.3636V24H63.2614V16.3636H64.4347ZM70.4403 24V16.3636H71.6136V24H70.4403ZM76.8636 24.1591C76.1742 24.1591 75.5694 23.995 75.049 23.6669C74.532 23.3388 74.1276 22.8797 73.8359 22.2898C73.5476 21.6998 73.4034 21.0104 73.4034 20.2216C73.4034 19.4261 73.5476 18.7318 73.8359 18.1385C74.1276 17.5452 74.532 17.0845 75.049 16.7564C75.5694 16.4283 76.1742 16.2642 76.8636 16.2642C77.553 16.2642 78.1563 16.4283 78.6733 16.7564C79.1937 17.0845 79.598 17.5452 79.8864 18.1385C80.178 18.7318 80.3239 19.4261 80.3239 20.2216C80.3239 21.0104 80.178 21.6998 79.8864 22.2898C79.598 22.8797 79.1937 23.3388 78.6733 23.6669C78.1563 23.995 77.553 24.1591 76.8636 24.1591ZM76.8636 23.1051C77.3873 23.1051 77.8182 22.9709 78.1562 22.7024C78.4943 22.4339 78.7446 22.081 78.907 21.6435C79.0694 21.206 79.1506 20.732 79.1506 20.2216C79.1506 19.7112 79.0694 19.2356 78.907 18.7947C78.7446 18.3539 78.4943 17.9976 78.1562 17.7259C77.8182 17.4541 77.3873 17.3182 76.8636 17.3182C76.34 17.3182 75.9091 17.4541 75.571 17.7259C75.233 17.9976 74.9827 18.3539 74.8203 18.7947C74.6579 19.2356 74.5767 19.7112 74.5767 20.2216C74.5767 20.732 74.6579 21.206 74.8203 21.6435C74.9827 22.081 75.233 22.4339 75.571 22.7024C75.9091 22.9709 76.34 23.1051 76.8636 23.1051ZM81.4387 24V22.9062H81.7172C81.9458 22.9062 82.1364 22.8615 82.2889 22.772C82.4413 22.6792 82.564 22.5185 82.6568 22.2898C82.7529 22.0578 82.8258 21.7363 82.8755 21.3253C82.9286 20.911 82.9667 20.384 82.9899 19.7443L83.1291 16.3636H88.22V24H87.0467V17.4574H84.2427L84.1234 20.1818C84.0969 20.8082 84.0405 21.3601 83.9544 21.8374C83.8715 22.3113 83.7439 22.709 83.5716 23.0305C83.4025 23.352 83.1771 23.594 82.8954 23.7564C82.6137 23.9188 82.2607 24 81.8365 24H81.4387ZM96.2591 16.3636V24H95.0858V16.3636H96.2591ZM95.8017 20.0028V21.0966C95.5365 21.196 95.273 21.2839 95.0112 21.3601C94.7493 21.433 94.4743 21.491 94.1859 21.5341C93.8975 21.5739 93.581 21.5938 93.2363 21.5938C92.3713 21.5938 91.6769 21.3601 91.1532 20.8928C90.6329 20.4254 90.3727 19.7244 90.3727 18.7898V16.3438H91.546V18.7898C91.546 19.1809 91.6206 19.5024 91.7697 19.7543C91.9189 20.0062 92.121 20.1934 92.3762 20.3161C92.6315 20.4387 92.9181 20.5 93.2363 20.5C93.7335 20.5 94.1826 20.4553 94.5836 20.3658C94.988 20.273 95.394 20.152 95.8017 20.0028ZM100.659 24.179C100.175 24.179 99.7359 24.0878 99.3414 23.9055C98.947 23.7199 98.6338 23.4531 98.4018 23.1051C98.1698 22.7538 98.0538 22.3295 98.0538 21.8324C98.0538 21.3949 98.14 21.0402 98.3123 20.7685C98.4847 20.4934 98.715 20.2779 99.0034 20.1222C99.2917 19.9664 99.6099 19.8504 99.9579 19.7741C100.309 19.6946 100.662 19.6316 101.017 19.5852C101.481 19.5256 101.857 19.4808 102.145 19.451C102.437 19.4179 102.649 19.3632 102.782 19.2869C102.918 19.2107 102.986 19.0781 102.986 18.8892V18.8494C102.986 18.3589 102.851 17.9777 102.583 17.706C102.318 17.4342 101.915 17.2983 101.375 17.2983C100.815 17.2983 100.376 17.4209 100.057 17.6662C99.7392 17.9115 99.5154 18.1733 99.3862 18.4517L98.2725 18.054C98.4714 17.59 98.7366 17.2287 99.068 16.9702C99.4028 16.7083 99.7673 16.526 100.162 16.4233C100.559 16.3172 100.951 16.2642 101.335 16.2642C101.58 16.2642 101.862 16.294 102.18 16.3537C102.502 16.41 102.812 16.5277 103.11 16.7067C103.412 16.8857 103.662 17.1558 103.861 17.517C104.059 17.8783 104.159 18.3622 104.159 18.9688V24H102.986V22.9659H102.926C102.846 23.1316 102.714 23.3089 102.528 23.4979C102.343 23.6868 102.096 23.8475 101.787 23.9801C101.479 24.1127 101.103 24.179 100.659 24.179ZM100.838 23.125C101.302 23.125 101.693 23.0339 102.011 22.8516C102.333 22.6693 102.575 22.4339 102.737 22.1456C102.903 21.8572 102.986 21.554 102.986 21.2358V20.1619C102.936 20.2216 102.827 20.2763 102.657 20.326C102.492 20.3724 102.3 20.4138 102.081 20.4503C101.865 20.4834 101.655 20.5133 101.449 20.5398C101.247 20.563 101.083 20.5829 100.957 20.5994C100.652 20.6392 100.367 20.7038 100.102 20.7933C99.8403 20.8795 99.6281 21.0104 99.4657 21.1861C99.3066 21.3584 99.2271 21.5937 99.2271 21.892C99.2271 22.2997 99.3779 22.608 99.6795 22.8168C99.9844 23.0223 100.371 23.125 100.838 23.125ZM111.411 19.6449V20.7386H107.195V19.6449H111.411ZM107.474 16.3636V24H106.3V16.3636H107.474ZM112.306 16.3636V24H111.133V16.3636H112.306ZM115.622 22.2699L119.301 16.3636H120.653V24H119.48V18.0938L115.821 24H114.449V16.3636H115.622V22.2699ZM126.461 19.7045V20.7983H122.425V19.7045H126.461ZM123.419 16.3636V24H122.246V16.3636H123.419ZM128.808 24.1591C128.119 24.1591 127.514 23.995 126.993 23.6669C126.476 23.3388 126.072 22.8797 125.78 22.2898C125.492 21.6998 125.348 21.0104 125.348 20.2216C125.348 19.4261 125.492 18.7318 125.78 18.1385C126.072 17.5452 126.476 17.0845 126.993 16.7564C127.514 16.4283 128.119 16.2642 128.808 16.2642C129.497 16.2642 130.101 16.4283 130.618 16.7564C131.138 17.0845 131.542 17.5452 131.831 18.1385C132.122 18.7318 132.268 19.4261 132.268 20.2216C132.268 21.0104 132.122 21.6998 131.831 22.2898C131.542 22.8797 131.138 23.3388 130.618 23.6669C130.101 23.995 129.497 24.1591 128.808 24.1591ZM128.808 23.1051C129.332 23.1051 129.763 22.9709 130.101 22.7024C130.439 22.4339 130.689 22.081 130.851 21.6435C131.014 21.206 131.095 20.732 131.095 20.2216C131.095 19.7112 131.014 19.2356 130.851 18.7947C130.689 18.3539 130.439 17.9976 130.101 17.7259C129.763 17.4541 129.332 17.3182 128.808 17.3182C128.284 17.3182 127.854 17.4541 127.515 17.7259C127.177 17.9976 126.927 18.3539 126.765 18.7947C126.602 19.2356 126.521 19.7112 126.521 20.2216C126.521 20.732 126.602 21.206 126.765 21.6435C126.927 22.081 127.177 22.4339 127.515 22.7024C127.854 22.9709 128.284 23.1051 128.808 23.1051Z" fill="white"/>
<path d="M201.906 17.0508L197.994 20.9508L194.094 17.0508" stroke="white" stroke-width="1.5"/>
</svg>
