<svg width="82" height="40" viewBox="0 0 82 40" fill="none" xmlns="http://www.w3.org/2000/svg">
<path d="M65.1971 13.1758V20.7865H62.4621V15.4478H59.8288V20.7865H57.0942V13.1753H65.1971V13.1758Z" fill="white"/>
<path fill-rule="evenodd" clip-rule="evenodd" d="M51.4773 21.0579C53.9253 21.0579 55.7431 19.5662 55.7431 17.3049C55.7431 15.1162 54.4021 13.6952 52.1605 13.6952C51.1257 13.6952 50.2723 14.057 49.6292 14.6815C49.7825 13.3909 50.8811 12.4487 52.0901 12.4487C52.3691 12.4487 54.4703 12.4443 54.4703 12.4443L55.658 10.1851C55.658 10.1851 53.0206 10.2447 51.7942 10.2447C48.9928 10.2932 47.1006 12.8238 47.1006 15.8973C47.1006 19.4781 48.946 21.0579 51.4773 21.0579ZM51.492 15.6963C52.4012 15.6963 53.0313 16.2898 53.0313 17.3047C53.0313 18.2181 52.4711 18.9706 51.492 18.9727C50.5553 18.9727 49.9251 18.2754 49.9251 17.3202C49.9251 16.3052 50.5553 15.6963 51.492 15.6963Z" fill="white"/>
<path d="M44.8746 18.2376C44.8746 18.2376 44.2287 18.6075 43.2641 18.6775C42.1552 18.7102 41.1671 18.0142 41.1671 16.7776C41.1671 15.5713 42.039 14.88 43.2362 14.88C43.9702 14.88 44.9415 15.3856 44.9415 15.3856C44.9415 15.3856 45.6519 14.0898 46.02 13.4418C45.3461 12.9341 44.4482 12.6558 43.404 12.6558C40.7687 12.6558 38.7275 14.3632 38.7275 16.7623C38.7275 19.1919 40.646 20.8597 43.404 20.8094C44.1749 20.7809 45.2383 20.5119 45.8867 20.0981L44.8746 18.2376Z" fill="white"/>
<path d="M10 11.2104L13.7936 17.9487V22.0589L10.0045 28.784L10 11.2104Z" fill="#5B57A2"/>
<path d="M24.5659 15.4975L28.1207 13.3324L35.3957 13.3257L24.5659 19.9184V15.4975Z" fill="#D90751"/>
<path d="M24.5461 11.1713L24.5662 20.0925L20.7637 17.7708V4.43506L24.5461 11.1713Z" fill="#FAB718"/>
<path d="M35.3959 13.3255L28.1206 13.3322L24.5461 11.1713L20.7637 4.43506L35.3959 13.3255Z" fill="#ED6F26"/>
<path d="M24.5662 28.8223V24.494L20.7637 22.2163L20.7658 35.5653L24.5662 28.8223Z" fill="#63B22F"/>
<path d="M28.1117 26.676L13.7933 17.9487L10 11.2104L35.3802 26.6671L28.1117 26.676Z" fill="#1487C9"/>
<path d="M20.7661 35.5647L24.566 28.8217L28.1118 26.6763L35.3803 26.6675L20.7661 35.5647Z" fill="#017F36"/>
<path d="M10.0044 28.7835L20.7944 22.2152L17.1669 20.0034L13.7936 22.0585L10.0044 28.7835Z" fill="#984995"/>
<path d="M41.1679 25.9079C41.0843 26.0138 40.9744 26.0937 40.8426 26.1477C40.7074 26.2024 40.5626 26.2302 40.4166 26.2296C40.2713 26.2316 40.1269 26.2075 39.9903 26.1585C39.8675 26.1143 39.7554 26.0452 39.6608 25.9557C39.5675 25.866 39.4942 25.7578 39.4457 25.6381C39.3933 25.5071 39.3671 25.367 39.3687 25.226C39.3687 25.0859 39.393 24.9561 39.4434 24.8332C39.4917 24.71 39.5619 24.6044 39.6499 24.5157C39.7379 24.4252 39.8433 24.3561 39.9618 24.3022C40.0827 24.2503 40.2145 24.2223 40.3594 24.2223C40.5155 24.2223 40.6604 24.2417 40.7922 24.2804C40.924 24.3193 41.036 24.3841 41.1282 24.4749L40.9679 24.7447C40.8904 24.6749 40.7991 24.6219 40.6998 24.5891C40.6055 24.5589 40.5069 24.5436 40.4077 24.5439C40.32 24.5439 40.2365 24.5611 40.1553 24.5935C40.0753 24.6255 40.0022 24.6724 39.9399 24.7317C39.8763 24.7928 39.8261 24.8663 39.7927 24.9476C39.7553 25.0317 39.7379 25.1245 39.7379 25.228C39.7379 25.3339 39.7574 25.4288 39.7948 25.5108C39.8323 25.5951 39.8827 25.6664 39.9464 25.7266C40.0101 25.7873 40.0848 25.8325 40.1704 25.8628C40.2563 25.8952 40.3463 25.9103 40.4429 25.9103C40.5615 25.9103 40.6693 25.8864 40.7614 25.841C40.8527 25.7972 40.9348 25.7365 41.0032 25.662L41.1679 25.9079ZM41.6203 26.1842V24.2632H41.9675V25.6945L43.0965 24.2632H43.4437V26.1845H43.0965V24.7533L41.9675 26.1845L41.6203 26.1842ZM45.7437 25.9079C45.6581 26.0147 45.5463 26.0973 45.4184 26.1477C45.2833 26.2023 45.1385 26.2302 44.9923 26.2296C44.847 26.2316 44.7028 26.2075 44.5662 26.1585C44.4435 26.1143 44.3312 26.0452 44.2365 25.9557C44.1432 25.866 44.0699 25.7578 44.0214 25.6381C43.969 25.5071 43.9428 25.367 43.9444 25.226C43.9444 25.0859 43.9687 24.9561 44.0191 24.8332C44.0676 24.71 44.1379 24.6044 44.2256 24.5157C44.3135 24.4252 44.419 24.3561 44.5375 24.3022C44.6627 24.2474 44.7985 24.2202 44.9353 24.2223C45.0913 24.2223 45.2361 24.2417 45.368 24.2804C45.4999 24.3193 45.6118 24.3841 45.704 24.4749L45.5436 24.7447C45.466 24.6749 45.3751 24.6219 45.2758 24.5891C45.1813 24.5589 45.0828 24.5437 44.9839 24.5439C44.8092 24.5445 44.6416 24.6118 44.5156 24.7317C44.4525 24.7932 44.4025 24.8666 44.3684 24.9476C44.3311 25.0317 44.3135 25.1245 44.3135 25.228C44.3135 25.3339 44.3334 25.4288 44.3707 25.5108C44.4081 25.5951 44.4584 25.6664 44.5222 25.7266C44.5858 25.7873 44.6608 25.8325 44.7464 25.8628C44.8319 25.8929 44.9219 25.9103 45.0186 25.9103C45.1376 25.9103 45.2428 25.8864 45.3373 25.841C45.4286 25.7972 45.5106 25.7365 45.5788 25.662L45.7437 25.9079ZM45.9215 24.2632H47.7032V24.6044H46.9871V26.1842H46.6399V24.6044H45.9237V24.2632H45.9215Z" fill="white"/>
<path fill-rule="evenodd" clip-rule="evenodd" d="M49.3246 26.165C49.4565 26.1241 49.5684 26.0613 49.6651 25.9752L49.5595 25.7074C49.4957 25.7637 49.4102 25.8112 49.3072 25.8501C49.2038 25.889 49.0871 25.9082 48.9596 25.9082C48.7689 25.9082 48.6107 25.8587 48.4854 25.7573C48.3602 25.6556 48.292 25.5134 48.2769 25.3318H49.7792C49.7948 25.2649 49.801 25.1894 49.801 25.1009C49.801 24.9691 49.7769 24.8506 49.7288 24.7427C49.6838 24.6379 49.6178 24.5432 49.5354 24.4641C49.4516 24.3858 49.3531 24.3249 49.2453 24.2851C49.1325 24.2416 49.0126 24.2196 48.8919 24.2202C48.7292 24.2202 48.5862 24.2483 48.4614 24.3001C48.3428 24.3495 48.2359 24.4223 48.1467 24.5139C48.0603 24.605 47.9939 24.713 47.9515 24.8311C47.9052 24.9569 47.882 25.09 47.8834 25.2239C47.8834 25.3752 47.9101 25.5131 47.9582 25.6364C48.005 25.7557 48.0772 25.8638 48.169 25.9536C48.259 26.0418 48.3687 26.109 48.4984 26.1565C48.6374 26.2054 48.784 26.2295 48.9315 26.2276C49.0648 26.2268 49.1976 26.2055 49.3246 26.165ZM48.4458 24.6864C48.5532 24.5894 48.6962 24.5419 48.8763 24.5419C49.0456 24.5419 49.1815 24.5873 49.2805 24.6781C49.3794 24.7686 49.432 24.8939 49.4409 25.0535H48.2546C48.2715 24.9122 48.3393 24.7816 48.4458 24.6864Z" fill="white"/>
<path d="M50.2734 24.2632H50.5899L51.3412 25.2152L52.0529 24.2632H52.3604V26.1844H52.0133V24.7836L51.3368 25.6749H51.3234L50.6206 24.7833V26.1842H50.2734V24.2632Z" fill="white"/>
<path fill-rule="evenodd" clip-rule="evenodd" d="M53.3047 24.2699C53.1995 24.2973 53.0988 24.3401 53.0061 24.397L53.0983 24.6694C53.1772 24.6305 53.2565 24.5981 53.3354 24.5701C53.4147 24.5418 53.5159 24.5288 53.6367 24.5288C53.7329 24.5288 53.81 24.5441 53.8693 24.5742C53.9286 24.6023 53.9727 24.6456 54.0034 24.6974C54.0342 24.7493 54.0538 24.8139 54.0649 24.8894C54.0761 24.9649 54.0805 25.0469 54.0805 25.1356C54.0092 25.0864 53.9281 25.0532 53.843 25.0383C53.7606 25.022 53.6768 25.0133 53.5926 25.0124C53.4892 25.0124 53.3929 25.0277 53.3002 25.0533C53.208 25.0793 53.1291 25.1182 53.0653 25.1701C53.0003 25.2219 52.9477 25.2875 52.9116 25.3621C52.8728 25.4437 52.8532 25.5331 52.8546 25.6233C52.8546 25.8111 52.9094 25.9579 53.019 26.0617C53.1291 26.1652 53.2739 26.2168 53.454 26.2168C53.6166 26.2168 53.7463 26.1888 53.8452 26.1328C53.9442 26.0765 54.0231 26.0119 54.0805 25.9385V26.1868H54.4054V25.0082C54.4054 24.7576 54.3506 24.5636 54.2387 24.4274C54.1287 24.2915 53.933 24.2225 53.6563 24.2225C53.5333 24.2225 53.4165 24.2396 53.3047 24.2699ZM53.8849 25.8264C53.806 25.8825 53.7026 25.9081 53.5752 25.9081C53.4633 25.9081 53.3751 25.8801 53.314 25.8261C53.2521 25.7701 53.2213 25.6967 53.2213 25.6059C53.2213 25.5522 53.2325 25.5068 53.2565 25.4658C53.281 25.4248 53.314 25.3924 53.351 25.3664C53.392 25.3393 53.4375 25.3196 53.4852 25.3081C53.536 25.2951 53.5863 25.2886 53.6389 25.2886C53.8105 25.2886 53.9575 25.3296 54.0783 25.416V25.6599C54.0213 25.7233 53.9562 25.7795 53.8849 25.8264ZM57.4702 23.5877C57.5401 23.5555 57.6061 23.5015 57.6676 23.4216L57.4786 23.1519C57.4305 23.2167 57.3757 23.2619 57.3142 23.2857C57.2487 23.3111 57.1809 23.3298 57.1119 23.3418L57.0464 23.3534C56.9889 23.3633 56.9278 23.3742 56.8614 23.3851C56.7558 23.4045 56.6524 23.4364 56.5539 23.48C56.3979 23.5469 56.2727 23.6375 56.1782 23.7519C56.0838 23.8663 56.0093 23.9957 55.9585 24.1384C55.9073 24.283 55.8725 24.4328 55.8556 24.5851C55.8377 24.7408 55.8293 24.8894 55.8293 25.0318C55.8293 25.2155 55.8533 25.3815 55.9015 25.5304C55.9501 25.6796 56.0178 25.8046 56.1078 25.9061C56.1978 26.0098 56.3057 26.0876 56.4331 26.1437C56.5606 26.1997 56.7032 26.2277 56.8636 26.2277C57.0107 26.2277 57.1471 26.1997 57.2701 26.1478C57.3886 26.098 57.496 26.0254 57.5865 25.9343C57.6743 25.8456 57.7447 25.7398 57.7928 25.6212C57.8432 25.5024 57.8677 25.375 57.8677 25.2412C57.8677 25.0967 57.8459 24.9652 57.804 24.8484C57.7656 24.7371 57.7041 24.635 57.6239 24.5485C57.5433 24.4635 57.4452 24.3971 57.336 24.354C57.2157 24.3069 57.0874 24.2835 56.9581 24.285C56.8748 24.285 56.7932 24.2959 56.7143 24.3174C56.6372 24.3389 56.5637 24.3702 56.4946 24.4103C56.4278 24.4484 56.3663 24.4955 56.3124 24.5504C56.2598 24.6046 56.2157 24.665 56.1849 24.734H56.176C56.1827 24.6456 56.1938 24.555 56.2134 24.4621C56.233 24.3693 56.2616 24.2806 56.2994 24.1965C56.3364 24.1125 56.385 24.0367 56.4443 23.9677C56.5076 23.8981 56.5856 23.8428 56.6725 23.8058C56.7683 23.7606 56.8694 23.728 56.9737 23.7088L57.0423 23.6963C57.111 23.6839 57.1765 23.672 57.2393 23.659C57.3227 23.6419 57.3998 23.6198 57.4702 23.5877ZM56.2486 25.4334C56.2148 25.3244 56.1983 25.2107 56.2005 25.0967C56.2152 25.0312 56.242 24.969 56.2794 24.9133C56.3168 24.8549 56.365 24.8033 56.4224 24.7576C56.5512 24.6572 56.7108 24.6032 56.8748 24.6046C57.0789 24.6046 57.2326 24.6671 57.3405 24.7903C57.4483 24.9154 57.5009 25.0708 57.5009 25.2586C57.5009 25.3514 57.4831 25.4357 57.4528 25.5133C57.4229 25.5898 57.3779 25.6596 57.3209 25.7186C57.2634 25.7775 57.1948 25.8245 57.1186 25.8565C57.0397 25.891 56.9537 25.9084 56.857 25.9084C56.7607 25.9084 56.6725 25.8889 56.5913 25.85C56.5107 25.8119 56.4394 25.7567 56.3823 25.6881C56.3231 25.6118 56.2776 25.5256 56.2486 25.4334ZM60.53 24.2634H60.1829V26.1847H60.53V24.2634ZM58.3682 24.2634H58.7158V24.8398H59.0362C59.1877 24.8398 59.3107 24.8593 59.4097 24.8959C59.5086 24.9327 59.5879 24.9823 59.6472 25.0427C59.7065 25.1032 59.7479 25.1745 59.7724 25.2541C59.7965 25.334 59.8099 25.416 59.8099 25.5024C59.8099 25.5888 59.7965 25.671 59.768 25.753C59.7417 25.835 59.6953 25.9061 59.6338 25.9709C59.5723 26.0357 59.489 26.0876 59.3834 26.1266C59.2777 26.1652 59.1503 26.1868 58.9965 26.1868H58.3664V24.2634H58.3682ZM58.7158 25.1613V25.8651H58.9685C59.1418 25.8651 59.2648 25.835 59.3352 25.7743C59.4056 25.7138 59.4404 25.6277 59.4404 25.5133C59.4404 25.3966 59.403 25.3083 59.333 25.2477C59.2604 25.1872 59.1396 25.1568 58.9729 25.1568H58.7158V25.1613Z" fill="white"/>
<path d="M62.8255 25.9079C62.7422 26.0138 62.6321 26.0937 62.5006 26.1477C62.3652 26.2023 62.2203 26.2302 62.0746 26.2296C61.9293 26.2316 61.7849 26.2075 61.6481 26.1585C61.5255 26.1143 61.4132 26.0452 61.3188 25.9557C61.2252 25.866 61.1521 25.7578 61.1035 25.6381C61.0509 25.507 61.0251 25.367 61.0264 25.2259C61.0264 25.0859 61.0505 24.9561 61.1013 24.8332C61.1494 24.71 61.2198 24.6044 61.3076 24.5157C61.3959 24.4252 61.501 24.3561 61.6196 24.3022C61.7448 24.2474 61.8803 24.2201 62.0171 24.2223C62.1731 24.2223 62.3184 24.2417 62.4503 24.2804C62.5817 24.3193 62.694 24.3842 62.7859 24.4749L62.6259 24.7447C62.5483 24.6749 62.457 24.6219 62.3576 24.5891C62.2631 24.5589 62.1646 24.5436 62.0657 24.5439C61.9779 24.5439 61.8941 24.5611 61.813 24.5935C61.7328 24.6256 61.6597 24.6725 61.5977 24.7318C61.5345 24.7932 61.4845 24.8666 61.4507 24.9476C61.4132 25.0317 61.3959 25.1245 61.3959 25.228C61.3959 25.3339 61.4155 25.4288 61.4525 25.5108C61.4899 25.5951 61.5407 25.6664 61.6044 25.7266C61.6682 25.7873 61.7426 25.8325 61.8281 25.8628C61.9142 25.8929 62.0042 25.9103 62.1009 25.9103C62.2194 25.9103 62.3246 25.8864 62.4191 25.841C62.5104 25.7972 62.5924 25.7365 62.6611 25.662L62.8255 25.9079ZM63.0033 24.2633H64.785V24.6044H64.0689V26.1842H63.7217V24.6044H63.006V24.2633H63.0033Z" fill="white"/>
<path fill-rule="evenodd" clip-rule="evenodd" d="M65.5103 24.2637H65.1631V27.0394H65.5103V26.0962C65.5807 26.1416 65.664 26.174 65.7607 26.1955C65.857 26.2171 65.9581 26.2277 66.0615 26.2277C66.2153 26.2277 66.3539 26.1997 66.4791 26.1481C66.599 26.097 66.7082 26.023 66.7995 25.9301C66.8895 25.837 66.9577 25.7291 67.0059 25.6017C67.0544 25.4746 67.0785 25.3384 67.0785 25.1939C67.0785 25.0512 67.0567 24.9198 67.0148 24.8009C66.9756 24.6881 66.9145 24.584 66.8347 24.4946C66.7567 24.4073 66.6596 24.3387 66.5513 24.2938C66.4328 24.2431 66.3048 24.2181 66.1756 24.2204C66.0397 24.2204 65.9122 24.2463 65.7915 24.2982C65.6707 24.3501 65.5762 24.4123 65.5103 24.4901V24.2637ZM65.7518 24.6199C65.8507 24.568 65.9586 24.542 66.0749 24.542C66.1761 24.542 66.2661 24.5571 66.3476 24.5895C66.4265 24.6219 66.4925 24.6673 66.5473 24.7278C66.6021 24.7882 66.644 24.8575 66.6703 24.9392C66.6988 25.0212 66.7122 25.1099 66.7122 25.2069C66.7122 25.3107 66.6943 25.4033 66.664 25.4897C66.6351 25.5716 66.5892 25.6466 66.5295 25.7099C66.4697 25.7725 66.3971 25.8217 66.3164 25.8544C66.2269 25.8917 66.1306 25.9101 66.033 25.9083C65.939 25.9083 65.8507 25.8977 65.7674 25.8762C65.676 25.8515 65.5891 25.812 65.5107 25.7595V24.8074C65.5717 24.7342 65.6533 24.6717 65.7518 24.6199ZM69.7413 24.2634H69.3941V26.1846H69.7413V24.2634ZM67.5772 24.2634H67.9243V24.8398H68.2452C68.3967 24.8398 68.5197 24.8593 68.6187 24.8959C68.7176 24.9327 68.7965 24.9822 68.8558 25.0427C68.915 25.1031 68.9569 25.1745 68.981 25.2541C69.0051 25.334 69.0184 25.416 69.0184 25.5024C69.0184 25.5888 69.0051 25.671 68.9765 25.753C68.9502 25.835 68.9043 25.906 68.8424 25.9709C68.7813 26.0357 68.6976 26.0876 68.5924 26.1265C68.4868 26.1652 68.3593 26.1867 68.2056 26.1867H67.575V24.2634H67.5772ZM67.9266 25.1613V25.865H68.1797C68.3526 25.865 68.4761 25.835 68.5465 25.7743C68.6164 25.7138 68.6517 25.6277 68.6517 25.5133C68.6517 25.3965 68.6142 25.3083 68.5443 25.2477C68.4716 25.1872 68.3508 25.1568 68.1837 25.1568H67.9266V25.1613Z" fill="white"/>
<path d="M71.4062 25.1893L72.1487 26.1844H71.7226L71.1491 25.4072L70.567 26.1844H70.1628L70.9008 25.2064L70.207 24.2632H70.633L71.1624 24.9885L71.7003 24.2632H72.105L71.4062 25.1893ZM40.9111 28.5589H39.8457V30.1604H39.4985V28.2395H41.258V30.1604H40.9111V28.5589ZM43.2284 28.5804H42.5432L42.521 28.9041C42.497 29.1783 42.4641 29.3986 42.4179 29.5667C42.3717 29.7353 42.3145 29.8648 42.2487 29.9553C42.1829 30.0461 42.1059 30.1086 42.0179 30.1389C41.9272 30.1717 41.8312 30.1877 41.7347 30.1864L41.7083 29.8539C41.7456 29.8559 41.7895 29.8473 41.8378 29.8258C41.8864 29.8043 41.9346 29.7568 41.9806 29.6857C42.0268 29.6121 42.0686 29.5086 42.1059 29.3747C42.1433 29.2388 42.1675 29.0619 42.1806 28.8393L42.2158 28.2413H43.5756V30.1625H43.2284V28.5804Z" fill="white"/>
<path fill-rule="evenodd" clip-rule="evenodd" d="M44.5114 28.2443C44.3992 28.2744 44.2981 28.3174 44.2125 28.3714L44.3049 28.6435C44.384 28.6046 44.4631 28.5721 44.5419 28.5442C44.621 28.5161 44.7223 28.5031 44.843 28.5031C44.9397 28.5031 45.0164 28.5182 45.0757 28.5483C45.1354 28.5766 45.179 28.6196 45.2098 28.6715C45.2405 28.7234 45.2602 28.7883 45.2713 28.8635C45.2824 28.9392 45.2869 29.0212 45.2869 29.1097C45.2156 29.0606 45.1345 29.0274 45.0494 29.0127C44.9669 28.9964 44.8831 28.9877 44.7989 28.9867C44.696 28.9867 44.5991 29.0018 44.507 29.0277C44.4146 29.0536 44.3355 29.0925 44.2718 29.1444C44.2068 29.1962 44.1542 29.2618 44.118 29.3364C44.0794 29.4181 44.0599 29.5074 44.0611 29.5976C44.0611 29.7852 44.1159 29.9323 44.2258 30.0358C44.3355 30.1393 44.4806 30.1912 44.6608 30.1912C44.8234 30.1912 44.9527 30.1632 45.0516 30.1069C45.1505 30.0508 45.2294 29.986 45.2869 29.9125V30.1608H45.6122V28.9823C45.6122 28.732 45.557 28.5376 45.4451 28.4017C45.335 28.2656 45.1394 28.1968 44.8626 28.1968C44.744 28.1969 44.6259 28.213 44.5114 28.2443ZM45.0935 29.8002C45.0146 29.8565 44.9112 29.8825 44.7838 29.8825C44.6696 29.8825 44.584 29.8544 44.5226 29.8002C44.461 29.7442 44.4302 29.6708 44.4302 29.5803C44.4302 29.5263 44.4412 29.4809 44.4655 29.4399C44.4895 29.3989 44.5226 29.3665 44.5599 29.3405C44.5973 29.3146 44.6432 29.2952 44.6939 29.2822C44.7441 29.2693 44.7958 29.2628 44.8475 29.263C45.0191 29.263 45.1661 29.304 45.2869 29.3901V29.6339C45.2299 29.6974 45.1648 29.7532 45.0935 29.8002Z" fill="white"/>
<path d="M45.9521 28.2397H47.7339V28.5806H47.0173V30.1607H46.6705V28.5809H45.9544V28.2397H45.9521Z" fill="white"/>
<path fill-rule="evenodd" clip-rule="evenodd" d="M49.3554 30.1409C49.4873 30.1 49.5991 30.0372 49.6958 29.951L49.5902 29.6833C49.5265 29.7396 49.4409 29.7871 49.3375 29.826C49.2346 29.865 49.1183 29.8841 48.9908 29.8841C48.7996 29.8841 48.6414 29.8346 48.5162 29.7332C48.391 29.6317 48.3228 29.4893 48.3076 29.3077H49.8099C49.8251 29.2411 49.8322 29.1653 49.8322 29.0768C49.8322 28.9453 49.8077 28.8265 49.7596 28.7186C49.7146 28.6138 49.6486 28.5192 49.5662 28.4402C49.4824 28.3618 49.3839 28.3008 49.2765 28.261C49.1633 28.2175 49.0434 28.1955 48.9226 28.1961C48.76 28.1961 48.6169 28.2241 48.4921 28.276C48.3736 28.3253 48.2666 28.398 48.1779 28.4898C48.091 28.581 48.0246 28.689 47.9823 28.8071C47.936 28.9328 47.9128 29.0659 47.9141 29.1998C47.9141 29.351 47.9404 29.4891 47.9885 29.6123C48.0371 29.7352 48.1098 29.8411 48.1998 29.9295C48.2898 30.018 48.3994 30.0849 48.5296 30.1324C48.6682 30.1814 48.8148 30.2056 48.9618 30.2037C49.0915 30.2037 49.2234 30.182 49.3554 30.1409ZM48.4747 28.6602C48.5822 28.5632 48.7248 28.5157 48.9053 28.5157C49.0764 28.5157 49.2105 28.5632 49.3095 28.6517C49.4079 28.7424 49.461 28.8675 49.4699 29.0273H48.2836C48.3001 28.8859 48.3682 28.7555 48.4747 28.6602ZM50.0011 28.2395H50.4405L51.1103 29.1656L50.3942 30.1604H49.9681L50.7195 29.1653L50.0011 28.2395ZM51.1959 28.2395H51.5431V30.1604H51.1959V28.2395ZM52.7842 30.1604L52.0199 29.1653L52.7338 28.2392H52.3033L51.6286 29.1653L52.3537 30.1604H52.7842ZM54.3703 30.1409C54.5022 30.1 54.6141 30.0372 54.7108 29.951L54.6051 29.6833C54.5419 29.7396 54.4558 29.7871 54.3529 29.826C54.2495 29.865 54.1332 29.8841 54.0057 29.8841C53.8146 29.8841 53.6563 29.8346 53.5311 29.7332C53.4059 29.6317 53.3382 29.4893 53.3226 29.3077H54.8253C54.8404 29.2411 54.8471 29.1653 54.8471 29.0768C54.8471 28.9453 54.8231 28.8265 54.7745 28.7186C54.7295 28.6139 54.664 28.5192 54.5815 28.4402C54.4977 28.3618 54.3993 28.3008 54.2914 28.261C54.1787 28.2175 54.0588 28.1955 53.9376 28.1961C53.7753 28.1961 53.6323 28.2241 53.5071 28.276C53.389 28.3254 53.282 28.3981 53.1929 28.4898C53.1064 28.5808 53.0396 28.6889 52.9977 28.8071C52.9513 28.9328 52.9282 29.0659 52.9295 29.1998C52.9295 29.351 52.9558 29.4891 53.0039 29.6123C53.0525 29.7352 53.1251 29.8411 53.2152 29.9295C53.3052 30.018 53.4148 30.0849 53.5445 30.1324C53.6835 30.1814 53.8297 30.2056 53.9772 30.2037C54.1109 30.2028 54.2433 30.1816 54.3703 30.1409ZM53.4897 28.6602C53.5975 28.5632 53.7401 28.5157 53.9202 28.5157C54.0895 28.5157 54.2254 28.5632 54.3244 28.6517C54.4233 28.7424 54.4763 28.8675 54.4848 29.0273H53.2985C53.3154 28.8859 53.3832 28.7555 53.4897 28.6602ZM56.2554 27.594C56.0513 27.594 55.939 27.4817 55.9216 27.2573H55.594C55.594 27.3434 55.6096 27.4213 55.6382 27.4947C55.6667 27.5681 55.7086 27.6306 55.7634 27.6825C55.8182 27.7344 55.8886 27.7753 55.9697 27.8075C56.0513 27.8399 56.1458 27.855 56.2532 27.855C56.3521 27.855 56.4399 27.8399 56.5192 27.8075C56.5981 27.7774 56.6641 27.7344 56.7211 27.6825C56.7759 27.6306 56.82 27.5681 56.8508 27.4947C56.8815 27.4213 56.8967 27.3434 56.8967 27.2573H56.5718C56.5567 27.4817 56.4488 27.594 56.2554 27.594ZM55.3173 28.2392V30.1604H55.6645L56.7933 28.7292V30.1604H57.1409V28.2392H56.7933L55.6645 29.6704V28.2392H55.3173Z" fill="white"/>
</svg>
