<svg width="66" height="33" viewBox="0 0 66 33" fill="none" xmlns="http://www.w3.org/2000/svg">
<path d="M52.4757 11.0405V17.129H50.2744V12.858H48.1548V17.129H45.9539V11.04H52.4757V11.0405Z" fill="white"/>
<path fill-rule="evenodd" clip-rule="evenodd" d="M41.433 17.3462C43.4033 17.3462 44.8664 16.1529 44.8664 14.3438C44.8664 12.5929 43.7871 11.4561 41.9828 11.4561C41.15 11.4561 40.4631 11.7455 39.9455 12.2451C40.0688 11.2126 40.953 10.4588 41.9262 10.4588C42.1507 10.4588 43.842 10.4553 43.842 10.4553L44.7979 8.64795C44.7979 8.64795 42.6751 8.69567 41.688 8.69567C39.4332 8.73447 37.9102 10.759 37.9102 13.2178C37.9102 16.0824 39.3956 17.3462 41.433 17.3462ZM41.4448 13.0569C42.1765 13.0569 42.6837 13.5318 42.6837 14.3436C42.6837 15.0744 42.2329 15.6764 41.4448 15.6781C40.6908 15.6781 40.1836 15.1202 40.1836 14.3561C40.1836 13.544 40.6908 13.0569 41.4448 13.0569Z" fill="white"/>
<path d="M36.1186 15.09C36.1186 15.09 35.5987 15.3859 34.8223 15.4419C33.9298 15.4681 33.1345 14.9113 33.1345 13.922C33.1345 12.957 33.8363 12.4039 34.7999 12.4039C35.3907 12.4039 36.1724 12.8084 36.1724 12.8084C36.1724 12.8084 36.7442 11.7717 37.0405 11.2533C36.4981 10.8472 35.7754 10.6245 34.935 10.6245C32.8139 10.6245 31.171 11.9905 31.171 13.9097C31.171 15.8534 32.7151 17.1877 34.935 17.1474C35.5554 17.1246 36.4113 16.9094 36.9332 16.5784L36.1186 15.09Z" fill="white"/>
<path d="M8.04877 9.46826L11.1022 14.8589V18.147L8.05235 23.5271L8.04877 9.46826Z" fill="#5B57A2"/>
<path d="M19.7726 12.8976L22.6337 11.1655L28.4892 11.1602L19.7726 16.4343V12.8976Z" fill="#D90751"/>
<path d="M19.7566 9.43682L19.7728 16.5738L16.7122 14.7164V4.04785L19.7566 9.43682Z" fill="#FAB718"/>
<path d="M28.4893 11.1602L22.6337 11.1656L19.7566 9.43682L16.7122 4.04785L28.4893 11.1602Z" fill="#ED6F26"/>
<path d="M19.7728 23.5578V20.0951L16.7122 18.2729L16.7139 28.9521L19.7728 23.5578Z" fill="#63B22F"/>
<path d="M22.6265 21.8407L11.1019 14.8589L8.04877 9.46826L28.4767 21.8336L22.6265 21.8407Z" fill="#1487C9"/>
<path d="M16.7142 28.9517L19.7727 23.5573L22.6266 21.841L28.4769 21.834L16.7142 28.9517Z" fill="#017F36"/>
<path d="M8.05231 23.5265L16.737 18.2719L13.8172 16.5024L11.1021 18.1465L8.05231 23.5265Z" fill="#984995"/>
<path d="M33.1351 21.2261C33.0679 21.3107 32.9794 21.3747 32.8733 21.4178C32.7645 21.4616 32.648 21.4839 32.5304 21.4834C32.4135 21.485 32.2973 21.4657 32.1873 21.4265C32.0885 21.3911 31.9982 21.3358 31.9221 21.2642C31.847 21.1925 31.788 21.106 31.749 21.0102C31.7068 20.9054 31.6857 20.7933 31.687 20.6805C31.687 20.5684 31.7066 20.4646 31.7471 20.3663C31.786 20.2677 31.8425 20.1832 31.9133 20.1122C31.9841 20.0398 32.069 19.9846 32.1644 19.9414C32.2617 19.9 32.3678 19.8775 32.4844 19.8775C32.61 19.8775 32.7266 19.8931 32.8328 19.924C32.9389 19.9552 33.029 20.007 33.1032 20.0797L32.9742 20.2955C32.9118 20.2397 32.8383 20.1972 32.7584 20.171C32.6824 20.1468 32.6031 20.1346 32.5233 20.1349C32.4526 20.1349 32.3854 20.1486 32.3201 20.1745C32.2557 20.2001 32.1969 20.2377 32.1467 20.2851C32.0955 20.3339 32.0552 20.3927 32.0282 20.4578C31.9982 20.525 31.9841 20.5993 31.9841 20.6821C31.9841 20.7668 31.9999 20.8427 32.0299 20.9083C32.0602 20.9758 32.1007 21.0329 32.152 21.081C32.2032 21.1296 32.2634 21.1657 32.3323 21.1899C32.4014 21.2159 32.4739 21.2279 32.5516 21.2279C32.647 21.2279 32.7338 21.2088 32.808 21.1725C32.8815 21.1375 32.9475 21.0889 33.0025 21.0293L33.1351 21.2261ZM33.4992 21.4471V19.9103H33.7787V21.0553L34.6874 19.9103H34.9669V21.4473H34.6874V20.3024L33.7787 21.4473L33.4992 21.4471ZM36.8181 21.2261C36.7492 21.3115 36.6592 21.3776 36.5562 21.4178C36.4475 21.4616 36.331 21.4839 36.2133 21.4834C36.0964 21.485 35.9803 21.4657 35.8704 21.4265C35.7715 21.3911 35.6812 21.3358 35.605 21.2642C35.5299 21.1925 35.4709 21.106 35.4319 21.0102C35.3896 20.9054 35.3686 20.7933 35.3699 20.6805C35.3699 20.5684 35.3894 20.4646 35.43 20.3663C35.4691 20.2677 35.5256 20.1832 35.5962 20.1122C35.667 20.0398 35.7519 19.9846 35.8473 19.9414C35.948 19.8976 36.0573 19.8758 36.1674 19.8775C36.2929 19.8775 36.4095 19.8931 36.5157 19.924C36.6219 19.9552 36.7119 20.007 36.7862 20.0797L36.657 20.2955C36.5946 20.2396 36.5214 20.1972 36.4414 20.171C36.3654 20.1468 36.2861 20.1346 36.2065 20.1349C36.0659 20.1353 35.931 20.1891 35.8296 20.2851C35.7789 20.3343 35.7385 20.393 35.7111 20.4578C35.6811 20.525 35.667 20.5993 35.667 20.6821C35.667 20.7668 35.6829 20.8427 35.713 20.9083C35.7431 20.9758 35.7836 21.0329 35.8349 21.081C35.8861 21.1296 35.9464 21.1657 36.0154 21.1899C36.0842 21.214 36.1566 21.2279 36.2345 21.2279C36.3303 21.2279 36.4149 21.2088 36.4909 21.1725C36.5645 21.1375 36.6305 21.0889 36.6854 21.0293L36.8181 21.2261ZM36.9612 19.9103H38.3953V20.1832H37.8188V21.4471H37.5394V20.1832H36.963V19.9103H36.9612Z" fill="white"/>
<path fill-rule="evenodd" clip-rule="evenodd" d="M39.7003 21.4318C39.8065 21.3991 39.8965 21.3488 39.9743 21.2799L39.8893 21.0657C39.838 21.1108 39.7692 21.1488 39.6863 21.1799C39.6031 21.211 39.5091 21.2264 39.4065 21.2264C39.253 21.2264 39.1257 21.1867 39.0249 21.1056C38.9241 21.0243 38.8692 20.9105 38.857 20.7652H40.0662C40.0787 20.7117 40.0837 20.6513 40.0837 20.5806C40.0837 20.4751 40.0644 20.3803 40.0256 20.2939C39.9894 20.2101 39.9363 20.1343 39.8699 20.0711C39.8025 20.0084 39.7232 19.9597 39.6364 19.9279C39.5457 19.8931 39.4492 19.8755 39.352 19.876C39.2211 19.876 39.1059 19.8984 39.0055 19.9399C38.9101 19.9794 38.824 20.0376 38.7523 20.1109C38.6827 20.1838 38.6292 20.2702 38.5951 20.3647C38.5578 20.4653 38.5392 20.5718 38.5403 20.6789C38.5403 20.7999 38.5618 20.9103 38.6005 21.0089C38.6382 21.1044 38.6963 21.1909 38.7702 21.2627C38.8426 21.3333 38.9309 21.387 39.0353 21.425C39.1472 21.4641 39.2652 21.4834 39.3839 21.4819C39.4912 21.4812 39.5981 21.4642 39.7003 21.4318ZM38.9929 20.2489C39.0794 20.1713 39.1945 20.1333 39.3394 20.1333C39.4757 20.1333 39.5851 20.1697 39.6648 20.2423C39.7444 20.3147 39.7867 20.4149 39.7939 20.5426H38.8391C38.8527 20.4296 38.9072 20.3251 38.9929 20.2489Z" fill="white"/>
<path d="M40.464 19.9102H40.7187L41.3234 20.6718L41.8963 19.9102H42.1438V21.4472H41.8643V20.3265L41.3198 21.0396H41.3091L40.7434 20.3263V21.4469H40.464V19.9102Z" fill="white"/>
<path fill-rule="evenodd" clip-rule="evenodd" d="M42.9037 19.9159C42.8191 19.9378 42.738 19.9721 42.6634 20.0176L42.7377 20.2355C42.8012 20.2044 42.865 20.1785 42.9285 20.156C42.9923 20.1334 43.0738 20.1231 43.171 20.1231C43.2485 20.1231 43.3105 20.1353 43.3582 20.1594C43.4059 20.1818 43.4414 20.2165 43.4662 20.2579C43.4909 20.2995 43.5067 20.3511 43.5157 20.4115C43.5246 20.4719 43.5282 20.5375 43.5282 20.6085C43.4708 20.5691 43.4056 20.5426 43.337 20.5306C43.2707 20.5176 43.2033 20.5107 43.1355 20.5099C43.0522 20.5099 42.9748 20.5221 42.9002 20.5427C42.8259 20.5634 42.7624 20.5946 42.7111 20.6361C42.6588 20.6775 42.6164 20.73 42.5874 20.7897C42.5562 20.855 42.5404 20.9264 42.5415 20.9986C42.5415 21.1489 42.5856 21.2663 42.6738 21.3494C42.7624 21.4321 42.879 21.4735 43.0239 21.4735C43.1548 21.4735 43.2592 21.4511 43.3388 21.4062C43.4185 21.3612 43.482 21.3095 43.5282 21.2508V21.4494H43.7897V20.5066C43.7897 20.3061 43.7456 20.1509 43.6556 20.0419C43.567 19.9332 43.4095 19.878 43.1868 19.878C43.0878 19.878 42.9938 19.8916 42.9037 19.9159ZM43.3708 21.1611C43.3073 21.206 43.2241 21.2265 43.1215 21.2265C43.0314 21.2265 42.9604 21.2041 42.9113 21.1609C42.8614 21.1161 42.8367 21.0574 42.8367 20.9847C42.8367 20.9418 42.8456 20.9055 42.865 20.8727C42.8847 20.8399 42.9113 20.8139 42.9411 20.7932C42.9741 20.7715 43.0106 20.7557 43.049 20.7465C43.0899 20.7361 43.1304 20.7309 43.1728 20.7309C43.3109 20.7309 43.4292 20.7637 43.5264 20.8328V21.0279C43.4805 21.0786 43.4282 21.1236 43.3708 21.1611ZM46.2565 19.3701C46.3128 19.3444 46.3659 19.3012 46.4154 19.2373L46.2633 19.0215C46.2246 19.0734 46.1804 19.1095 46.1309 19.1286C46.0782 19.1488 46.0237 19.1639 45.9681 19.1734L45.9154 19.1827C45.8691 19.1906 45.8199 19.1993 45.7665 19.208C45.6815 19.2236 45.5983 19.2491 45.519 19.284C45.3935 19.3375 45.2927 19.41 45.2166 19.5015C45.1406 19.593 45.0807 19.6966 45.0398 19.8107C44.9985 19.9264 44.9705 20.0463 44.9569 20.1681C44.9426 20.2926 44.9358 20.4115 44.9358 20.5255C44.9358 20.6724 44.9551 20.8052 44.9939 20.9244C45.033 21.0437 45.0875 21.1437 45.1599 21.2249C45.2324 21.3079 45.3192 21.3701 45.4218 21.4149C45.5244 21.4598 45.6392 21.4822 45.7683 21.4822C45.8867 21.4822 45.9964 21.4598 46.0954 21.4183C46.1908 21.3784 46.2773 21.3203 46.3501 21.2475C46.4208 21.1765 46.4774 21.0918 46.5162 20.997C46.5567 20.9019 46.5764 20.8 46.5764 20.6929C46.5764 20.5773 46.5589 20.4721 46.5251 20.3788C46.4943 20.2897 46.4448 20.208 46.3802 20.1388C46.3153 20.0708 46.2364 20.0177 46.1485 19.9832C46.0517 19.9455 45.9484 19.9268 45.8443 19.928C45.7773 19.928 45.7116 19.9367 45.6481 19.9539C45.5861 19.9711 45.5269 19.9961 45.4713 20.0282C45.4175 20.0587 45.368 20.0964 45.3246 20.1403C45.2823 20.1836 45.2467 20.232 45.222 20.2872H45.2148C45.2202 20.2165 45.2292 20.144 45.245 20.0697C45.2607 19.9954 45.2837 19.9245 45.3142 19.8572C45.344 19.79 45.3831 19.7294 45.4308 19.6742C45.4817 19.6185 45.5445 19.5743 45.6144 19.5447C45.6915 19.5084 45.773 19.4824 45.8569 19.467L45.9121 19.4571C45.9674 19.4471 46.0201 19.4376 46.0707 19.4272C46.1377 19.4135 46.1998 19.3959 46.2565 19.3701ZM45.2733 20.8467C45.246 20.7595 45.2328 20.6686 45.2345 20.5773C45.2464 20.525 45.2679 20.4752 45.298 20.4306C45.3282 20.3839 45.3669 20.3426 45.4132 20.3061C45.5168 20.2257 45.6453 20.1826 45.7773 20.1836C45.9415 20.1836 46.0653 20.2337 46.1521 20.3322C46.2389 20.4323 46.2812 20.5566 46.2812 20.7069C46.2812 20.7811 46.2669 20.8486 46.2425 20.9106C46.2185 20.9719 46.1822 21.0277 46.1363 21.0749C46.09 21.122 46.0348 21.1596 45.9735 21.1852C45.91 21.2128 45.8407 21.2267 45.7629 21.2267C45.6854 21.2267 45.6144 21.2111 45.5491 21.18C45.4842 21.1495 45.4268 21.1053 45.3809 21.0505C45.3332 20.9895 45.2966 20.9205 45.2733 20.8467ZM48.7193 19.9107H48.4399V21.4477H48.7193V19.9107ZM46.9792 19.9107H47.259V20.3719H47.5169C47.6389 20.3719 47.7379 20.3875 47.8175 20.4167C47.8971 20.4462 47.961 20.4858 48.0087 20.5342C48.0564 20.5825 48.0898 20.6396 48.1095 20.7033C48.1289 20.7672 48.1396 20.8328 48.1396 20.9019C48.1396 20.971 48.1289 21.0368 48.1059 21.1024C48.0847 21.168 48.0474 21.2249 47.9979 21.2767C47.9484 21.3286 47.8814 21.3701 47.7964 21.4013C47.7113 21.4321 47.6088 21.4494 47.485 21.4494H46.9778V19.9107H46.9792ZM47.259 20.629V21.192H47.4624C47.6019 21.192 47.7009 21.168 47.7576 21.1194C47.8143 21.0711 47.8423 21.0022 47.8423 20.9106C47.8423 20.8173 47.8121 20.7467 47.7558 20.6981C47.6974 20.6498 47.6001 20.6255 47.466 20.6255H47.259V20.629Z" fill="white"/>
<path d="M50.5669 21.2261C50.4998 21.3107 50.4112 21.3747 50.3054 21.4178C50.1963 21.4616 50.0798 21.4839 49.9625 21.4834C49.8455 21.485 49.7293 21.4657 49.6192 21.4265C49.5206 21.3912 49.4302 21.3359 49.3541 21.2642C49.2788 21.1925 49.22 21.106 49.1809 21.0102C49.1385 20.9053 49.1177 20.7933 49.1188 20.6805C49.1188 20.5684 49.1382 20.4646 49.1791 20.3663C49.2178 20.2677 49.2745 20.1832 49.3452 20.1123C49.4162 20.0398 49.5008 19.9846 49.5962 19.9415C49.697 19.8976 49.8061 19.8758 49.9162 19.8775C50.0417 19.8775 50.1587 19.8931 50.2648 19.924C50.3707 19.9552 50.4611 20.007 50.5349 20.0797L50.4062 20.2955C50.3438 20.2397 50.2702 20.1972 50.1902 20.171C50.1142 20.1468 50.0349 20.1346 49.9553 20.1349C49.8846 20.1349 49.8172 20.1486 49.7519 20.1745C49.6873 20.2002 49.6285 20.2377 49.5787 20.2851C49.5277 20.3342 49.4876 20.393 49.4603 20.4578C49.4302 20.525 49.4162 20.5993 49.4162 20.6821C49.4162 20.7668 49.432 20.8428 49.4617 20.9083C49.4919 20.9758 49.5327 21.0329 49.584 21.081C49.6353 21.1296 49.6952 21.1657 49.7641 21.19C49.8333 21.214 49.9058 21.2279 49.9836 21.2279C50.079 21.2279 50.1637 21.2088 50.2397 21.1725C50.3133 21.1375 50.3793 21.0889 50.4345 21.0293L50.5669 21.2261ZM50.71 19.9103H52.1441V20.1832H51.5676V21.4471H51.2882V20.1832H50.7121V19.9103H50.71Z" fill="white"/>
<path fill-rule="evenodd" clip-rule="evenodd" d="M52.7278 19.9107H52.4483V22.1313H52.7278V21.3767C52.7844 21.4131 52.8515 21.439 52.9293 21.4562C53.0068 21.4735 53.0882 21.482 53.1715 21.482C53.2952 21.482 53.4068 21.4596 53.5076 21.4183C53.6041 21.3774 53.6919 21.3182 53.7655 21.2439C53.8379 21.1694 53.8928 21.0831 53.9315 20.9812C53.9706 20.8795 53.99 20.7706 53.99 20.655C53.99 20.5408 53.9724 20.4356 53.9387 20.3406C53.9071 20.2503 53.858 20.167 53.7938 20.0955C53.731 20.0257 53.6528 19.9708 53.5657 19.9348C53.4703 19.8943 53.3673 19.8743 53.2633 19.8761C53.1539 19.8761 53.0513 19.8968 52.9541 19.9383C52.8569 19.9799 52.7808 20.0297 52.7278 20.0919V19.9107ZM52.9222 20.1957C53.0018 20.1542 53.0886 20.1334 53.1822 20.1334C53.2637 20.1334 53.3361 20.1455 53.4017 20.1714C53.4652 20.1974 53.5183 20.2337 53.5624 20.282C53.6066 20.3304 53.6403 20.3858 53.6614 20.4512C53.6844 20.5167 53.6952 20.5877 53.6952 20.6653C53.6952 20.7483 53.6808 20.8224 53.6564 20.8915C53.6331 20.9571 53.5962 21.0171 53.5481 21.0677C53.5 21.1178 53.4416 21.1572 53.3766 21.1833C53.3045 21.2132 53.2271 21.2279 53.1485 21.2265C53.0728 21.2265 53.0018 21.218 52.9347 21.2008C52.8612 21.181 52.7912 21.1494 52.7281 21.1074V20.3457C52.7773 20.2872 52.8429 20.2372 52.9222 20.1957ZM56.1332 19.9105H55.8538V21.4475H56.1332V19.9105ZM54.3914 19.9105H54.6708V20.3717H54.9291C55.051 20.3717 55.15 20.3873 55.2297 20.4165C55.3093 20.446 55.3728 20.4856 55.4205 20.534C55.4682 20.5823 55.5019 20.6394 55.5213 20.7031C55.5406 20.767 55.5514 20.8326 55.5514 20.9017C55.5514 20.9708 55.5407 21.0366 55.5177 21.1022C55.4965 21.1678 55.4596 21.2246 55.4097 21.2765C55.3606 21.3284 55.2932 21.3699 55.2085 21.401C55.1235 21.4319 55.0209 21.4492 54.8971 21.4492H54.3896V19.9105H54.3914ZM54.6726 20.6288V21.1918H54.8763C55.0155 21.1918 55.1149 21.1678 55.1715 21.1192C55.2279 21.0708 55.2562 21.0019 55.2562 20.9104C55.2562 20.817 55.2261 20.7465 55.1698 20.6979C55.1113 20.6496 55.0141 20.6253 54.8796 20.6253H54.6726V20.6288Z" fill="white"/>
<path d="M57.4733 20.6511L58.0709 21.4472H57.728L57.2663 20.8254L56.7979 21.4472H56.4725L57.0665 20.6648L56.508 19.9102H56.851L57.2771 20.4904L57.71 19.9102H58.0357L57.4733 20.6511ZM32.9284 23.3467H32.071V24.628H31.7915V23.0912H33.2077V24.628H32.9284V23.3467ZM34.7936 23.3639H34.2421L34.2242 23.6229C34.2049 23.8423 34.1784 24.0185 34.1412 24.1529C34.104 24.2879 34.058 24.3914 34.005 24.4638C33.9521 24.5365 33.8901 24.5865 33.8193 24.6107C33.7463 24.6369 33.669 24.6498 33.5913 24.6487L33.5701 24.3827C33.6002 24.3843 33.6355 24.3775 33.6743 24.3603C33.7134 24.343 33.7523 24.3051 33.7893 24.2482C33.8265 24.1893 33.8601 24.1065 33.8901 23.9994C33.9202 23.8906 33.9397 23.7491 33.9502 23.571L33.9786 23.0927H35.0731V24.6296H34.7936V23.3639Z" fill="white"/>
<path fill-rule="evenodd" clip-rule="evenodd" d="M35.8262 23.0951C35.7359 23.1192 35.6546 23.1536 35.5857 23.1968L35.66 23.4145C35.7237 23.3834 35.7874 23.3574 35.8508 23.335C35.9145 23.3126 35.996 23.3022 36.0932 23.3022C36.171 23.3022 36.2327 23.3143 36.2804 23.3384C36.3285 23.361 36.3636 23.3954 36.3884 23.4369C36.4131 23.4784 36.4289 23.5303 36.4379 23.5905C36.4468 23.6511 36.4504 23.7167 36.4504 23.7875C36.393 23.7482 36.3277 23.7217 36.2592 23.7098C36.1929 23.6968 36.1254 23.6898 36.0576 23.6891C35.9748 23.6891 35.8968 23.7011 35.8227 23.7219C35.7483 23.7426 35.6846 23.7737 35.6334 23.8153C35.581 23.8567 35.5388 23.9092 35.5096 23.9688C35.4785 24.0342 35.4629 24.1056 35.4638 24.1778C35.4638 24.3278 35.5079 24.4455 35.5964 24.5283C35.6846 24.6111 35.8015 24.6527 35.9464 24.6527C36.0774 24.6527 36.1814 24.6302 36.261 24.5852C36.3407 24.5404 36.4041 24.4885 36.4504 24.4297V24.6283H36.7123V23.6856C36.7123 23.4853 36.6678 23.3298 36.5778 23.2211C36.4892 23.1121 36.3317 23.0571 36.1089 23.0571C36.0135 23.0572 35.9184 23.0701 35.8262 23.0951ZM36.2947 24.3399C36.2313 24.3849 36.148 24.4057 36.0454 24.4057C35.9536 24.4057 35.8846 24.3833 35.8353 24.3399C35.7857 24.2951 35.7609 24.2363 35.7609 24.1639C35.7609 24.1207 35.7697 24.0844 35.7893 24.0516C35.8086 24.0188 35.8353 23.9929 35.8653 23.9721C35.8954 23.9514 35.9323 23.9358 35.9731 23.9254C36.0135 23.9151 36.0551 23.91 36.0967 23.9101C36.2348 23.9101 36.3532 23.9429 36.4504 24.0118V24.2069C36.4045 24.2576 36.3521 24.3023 36.2947 24.3399Z" fill="white"/>
<path d="M36.9859 23.0918H38.4199V23.3645H37.8432V24.6286H37.5641V23.3647H36.9877V23.0918H36.9859Z" fill="white"/>
<path fill-rule="evenodd" clip-rule="evenodd" d="M39.725 24.6126C39.8312 24.5798 39.9212 24.5296 39.9991 24.4606L39.9141 24.2465C39.8628 24.2915 39.7939 24.3295 39.7107 24.3606C39.6278 24.3918 39.5342 24.4071 39.4316 24.4071C39.2777 24.4071 39.1504 24.3675 39.0496 24.2863C38.9488 24.2052 38.8939 24.0913 38.8817 23.946H40.0909C40.1031 23.8927 40.1088 23.832 40.1088 23.7613C40.1088 23.6561 40.0891 23.561 40.0504 23.4747C40.0141 23.3908 39.9611 23.3151 39.8947 23.252C39.8273 23.1892 39.748 23.1404 39.6616 23.1086C39.5704 23.0738 39.474 23.0562 39.3767 23.0567C39.2458 23.0567 39.1307 23.0791 39.0302 23.1206C38.9348 23.1601 38.8487 23.2182 38.7774 23.2916C38.7074 23.3646 38.654 23.451 38.6199 23.5455C38.5826 23.6461 38.5639 23.7525 38.565 23.8596C38.565 23.9806 38.5862 24.0911 38.6249 24.1896C38.664 24.288 38.7225 24.3727 38.7949 24.4434C38.8674 24.5142 38.9556 24.5677 39.0604 24.6057C39.1719 24.6449 39.2899 24.6643 39.4083 24.6628C39.5127 24.6628 39.6189 24.6454 39.725 24.6126ZM39.0163 23.428C39.1027 23.3503 39.2175 23.3124 39.3628 23.3124C39.5005 23.3124 39.6085 23.3503 39.6881 23.4211C39.7674 23.4938 39.8101 23.5938 39.8172 23.7216H38.8624C38.8756 23.6086 38.9305 23.5042 39.0163 23.428ZM40.2448 23.0914H40.5985L41.1376 23.8322L40.5612 24.6281H40.2182L40.823 23.832L40.2448 23.0914ZM41.2065 23.0914H41.4859V24.6281H41.2065V23.0914ZM42.4848 24.6281L41.8697 23.832L42.4443 23.0912H42.0978L41.5547 23.832L42.1383 24.6281H42.4848ZM43.7614 24.6126C43.8676 24.5798 43.9576 24.5296 44.0355 24.4606L43.9505 24.2465C43.8995 24.2915 43.8303 24.3295 43.7475 24.3606C43.6642 24.3918 43.5706 24.4071 43.468 24.4071C43.3141 24.4071 43.1868 24.3675 43.086 24.2863C42.9852 24.2052 42.9307 24.0913 42.9181 23.946H44.1277C44.1399 23.8927 44.1452 23.832 44.1452 23.7613C44.1452 23.6561 44.1259 23.561 44.0868 23.4747C44.0506 23.3909 43.9978 23.3152 43.9315 23.252C43.864 23.1892 43.7848 23.1404 43.698 23.1086C43.6072 23.0738 43.5107 23.0562 43.4131 23.0567C43.2826 23.0567 43.1674 23.0791 43.0666 23.1206C42.9716 23.1601 42.8855 23.2183 42.8138 23.2916C42.7442 23.3645 42.6904 23.4509 42.6567 23.5455C42.6194 23.646 42.6007 23.7525 42.6018 23.8596C42.6018 23.9806 42.6229 24.0911 42.6617 24.1896C42.7008 24.288 42.7592 24.3727 42.8317 24.4434C42.9042 24.5142 42.9924 24.5677 43.0968 24.6057C43.2087 24.6449 43.3263 24.6643 43.4451 24.6628C43.5527 24.662 43.6592 24.6451 43.7614 24.6126ZM43.0527 23.428C43.1395 23.3503 43.2542 23.3124 43.3992 23.3124C43.5355 23.3124 43.6449 23.3503 43.7245 23.4211C43.8041 23.4938 43.8468 23.5938 43.8536 23.7216H42.8988C42.9124 23.6086 42.9669 23.5042 43.0527 23.428ZM45.2787 22.575C45.1144 22.575 45.024 22.4851 45.0101 22.3057H44.7464C44.7464 22.3745 44.759 22.4368 44.7819 22.4955C44.8049 22.5543 44.8386 22.6043 44.8827 22.6458C44.9268 22.6873 44.9835 22.7201 45.0488 22.7458C45.1144 22.7718 45.1905 22.7838 45.2769 22.7838C45.3566 22.7838 45.4272 22.7718 45.4911 22.7458C45.5546 22.7217 45.6076 22.6873 45.6536 22.6458C45.6977 22.6043 45.7332 22.5543 45.7579 22.4955C45.7827 22.4368 45.7949 22.3745 45.7949 22.3057H45.5334C45.5212 22.4851 45.4344 22.575 45.2787 22.575ZM44.5237 23.0912V24.6281H44.8031L45.7117 23.4832V24.6281H45.9915V23.0912H45.7117L44.8031 24.2361V23.0912H44.5237Z" fill="white"/>
</svg>
