<svg width="63" height="32" viewBox="0 0 63 32" fill="none" xmlns="http://www.w3.org/2000/svg">
<path d="M55.9532 8.8605V16.5754H53.1808V11.1636H50.5113V16.5754H47.7394V8.85996H55.9532V8.8605Z" fill="white"/>
<path fill-rule="evenodd" clip-rule="evenodd" d="M42.0455 16.8505C44.527 16.8505 46.3697 15.3385 46.3697 13.0462C46.3697 10.8275 45.0104 9.38698 42.7381 9.38698C41.6891 9.38698 40.824 9.7538 40.1721 10.3868C40.3275 9.07853 41.4411 8.1234 42.6667 8.1234C42.9495 8.1234 45.0795 8.11895 45.0795 8.11895L46.2835 5.82877C46.2835 5.82877 43.6099 5.88924 42.3667 5.88924C39.527 5.93839 37.6088 8.50368 37.6088 11.6193C37.6088 15.2491 39.4795 16.8505 42.0455 16.8505ZM42.0604 11.4155C42.982 11.4155 43.6208 12.0172 43.6208 13.0459C43.6208 13.9718 43.0529 14.7347 42.0604 14.7368C41.1108 14.7368 40.472 14.0299 40.472 13.0617C40.472 12.0327 41.1108 11.4155 42.0604 11.4155Z" fill="white"/>
<path d="M35.3524 13.9916C35.3524 13.9916 34.6976 14.3666 33.7198 14.4376C32.5957 14.4707 31.594 13.7652 31.594 12.5116C31.594 11.2888 32.4779 10.588 33.6915 10.588C34.4356 10.588 35.4201 11.1005 35.4201 11.1005C35.4201 11.1005 36.1402 9.78697 36.5134 9.13011C35.8303 8.61546 34.9201 8.33332 33.8616 8.33332C31.1902 8.33332 29.1211 10.0641 29.1211 12.4961C29.1211 14.959 31.0658 16.6497 33.8616 16.5986C34.6431 16.5697 35.721 16.297 36.3783 15.8776L35.3524 13.9916Z" fill="white"/>
<path d="M0 6.8682L3.84558 13.6988V17.8653L0.00451767 24.6824L0 6.8682Z" fill="#5B57A2"/>
<path d="M14.7655 11.214L18.3689 9.01924L25.7436 9.01241L14.7655 15.6955V11.214Z" fill="#D90751"/>
<path d="M14.7453 6.82849L14.7657 15.872L10.9111 13.5184V0L14.7453 6.82849Z" fill="#FAB718"/>
<path d="M25.7437 9.01219L18.3689 9.01901L14.7453 6.82849L10.9111 0L25.7437 9.01219Z" fill="#ED6F26"/>
<path d="M14.7657 24.7213V20.3337L10.9111 18.0248L10.9132 31.5567L14.7657 24.7213Z" fill="#63B22F"/>
<path d="M18.3599 22.5456L3.84531 13.6988L0 6.8682L25.7279 22.5366L18.3599 22.5456Z" fill="#1487C9"/>
<path d="M10.9136 31.556L14.7655 24.7207L18.3599 22.5459L25.728 22.537L10.9136 31.556Z" fill="#017F36"/>
<path d="M0.00445473 24.682L10.9423 18.0237L7.26505 15.7816L3.84552 17.8649L0.00445473 24.682Z" fill="#984995"/>
<path d="M31.5948 21.767C31.5102 21.8743 31.3988 21.9553 31.2651 22.01C31.128 22.0655 30.9813 22.0937 30.8332 22.0931C30.686 22.0951 30.5396 22.0707 30.4011 22.0211C30.2767 21.9762 30.163 21.9061 30.0672 21.8154C29.9725 21.7246 29.8982 21.6149 29.8491 21.4935C29.7959 21.3607 29.7694 21.2187 29.771 21.0757C29.771 20.9337 29.7957 20.8022 29.8467 20.6776C29.8957 20.5526 29.9669 20.4456 30.056 20.3557C30.1452 20.2639 30.2521 20.1939 30.3723 20.1393C30.4948 20.0867 30.6284 20.0583 30.7753 20.0583C30.9335 20.0583 31.0804 20.078 31.214 20.1172C31.3477 20.1566 31.4612 20.2224 31.5546 20.3144L31.3921 20.5879C31.3136 20.5171 31.221 20.4634 31.1203 20.4301C31.0247 20.3995 30.9248 20.384 30.8243 20.3843C30.7353 20.3843 30.6506 20.4017 30.5683 20.4346C30.4872 20.467 30.4132 20.5146 30.35 20.5747C30.2855 20.6366 30.2347 20.7111 30.2008 20.7935C30.1629 20.8787 30.1452 20.9729 30.1452 21.0778C30.1452 21.1851 30.1651 21.2813 30.2029 21.3644C30.241 21.4499 30.2921 21.5222 30.3566 21.5832C30.4212 21.6448 30.4969 21.6905 30.5837 21.7213C30.6707 21.7541 30.7621 21.7694 30.8599 21.7694C30.9801 21.7694 31.0894 21.7452 31.1828 21.6992C31.2754 21.6548 31.3586 21.5932 31.4279 21.5177L31.5948 21.767ZM32.0534 22.0471V20.0998H32.4054V21.5506L33.5499 20.0998H33.9019V22.0474H33.5499V20.5966L32.4054 22.0474L32.0534 22.0471ZM36.2333 21.767C36.1466 21.8753 36.0332 21.959 35.9035 22.01C35.7667 22.0655 35.6198 22.0937 35.4717 22.0931C35.3244 22.0951 35.1782 22.0707 35.0397 22.0211C34.9153 21.9762 34.8015 21.9061 34.7055 21.8154C34.6109 21.7246 34.5366 21.6149 34.4875 21.4935C34.4343 21.3607 34.4078 21.2187 34.4094 21.0757C34.4094 20.9337 34.434 20.8022 34.4851 20.6776C34.5343 20.5526 34.6055 20.4456 34.6944 20.3557C34.7836 20.2639 34.8905 20.1939 35.0106 20.1393C35.1375 20.0837 35.2751 20.0561 35.4138 20.0583C35.572 20.0583 35.7188 20.078 35.8525 20.1172C35.9862 20.1566 36.0996 20.2224 36.1931 20.3144L36.0305 20.5879C35.9519 20.5171 35.8597 20.4633 35.759 20.4301C35.6632 20.3995 35.5634 20.3841 35.4631 20.3843C35.286 20.3849 35.1161 20.4531 34.9884 20.5747C34.9245 20.637 34.8737 20.7114 34.8392 20.7935C34.8013 20.8787 34.7836 20.9729 34.7836 21.0778C34.7836 21.1851 34.8037 21.2813 34.8416 21.3644C34.8794 21.4499 34.9305 21.5222 34.9951 21.5832C35.0596 21.6448 35.1356 21.6905 35.2223 21.7213C35.309 21.7518 35.4003 21.7694 35.4983 21.7694C35.6189 21.7694 35.7255 21.7452 35.8213 21.6992C35.9139 21.6548 35.9971 21.5932 36.0662 21.5177L36.2333 21.767ZM36.4136 20.0998H38.2197V20.4456H37.4937V22.0471H37.1418V20.4456H36.4158V20.0998H36.4136Z" fill="white"/>
<path fill-rule="evenodd" clip-rule="evenodd" d="M39.8633 22.0276C39.997 21.9861 40.1104 21.9225 40.2084 21.8352L40.1014 21.5638C40.0368 21.6208 39.95 21.669 39.8457 21.7084C39.7409 21.7479 39.6225 21.7673 39.4933 21.7673C39.2999 21.7673 39.1396 21.7171 39.0126 21.6143C38.8857 21.5112 38.8166 21.3671 38.8012 21.183H40.3241C40.3399 21.1152 40.3462 21.0386 40.3462 20.949C40.3462 20.8154 40.3218 20.6952 40.273 20.5858C40.2274 20.4796 40.1605 20.3836 40.077 20.3034C39.992 20.224 39.8922 20.1623 39.7829 20.1219C39.6686 20.0778 39.5471 20.0556 39.4246 20.0562C39.2597 20.0562 39.1147 20.0846 38.9882 20.1372C38.8681 20.1873 38.7596 20.261 38.6693 20.3539C38.5817 20.4463 38.5143 20.5558 38.4714 20.6755C38.4244 20.8029 38.4009 20.9378 38.4023 21.0736C38.4023 21.2269 38.4294 21.3668 38.4782 21.4917C38.5256 21.6128 38.5988 21.7223 38.6919 21.8133C38.7831 21.9028 38.8943 21.9709 39.0257 22.019C39.1667 22.0686 39.3153 22.093 39.4648 22.091C39.5999 22.0902 39.7345 22.0687 39.8633 22.0276ZM38.9724 20.5287C39.0813 20.4304 39.2263 20.3823 39.4088 20.3823C39.5805 20.3823 39.7183 20.4283 39.8186 20.5203C39.9189 20.6121 39.9722 20.7391 39.9812 20.9008H38.7786C38.7958 20.7576 38.8645 20.6253 38.9724 20.5287Z" fill="white"/>
<path d="M40.8251 20.0997H41.1459L41.9075 21.0648L42.629 20.0997H42.9407V22.0473H42.5888V20.6273L41.903 21.5308H41.8895L41.177 20.627V22.047H40.8251V20.0997Z" fill="white"/>
<path fill-rule="evenodd" clip-rule="evenodd" d="M43.8979 20.1066C43.7913 20.1343 43.6892 20.1777 43.5952 20.2354L43.6887 20.5116C43.7687 20.4721 43.8491 20.4392 43.929 20.4108C44.0095 20.3822 44.112 20.369 44.2344 20.369C44.332 20.369 44.4102 20.3845 44.4703 20.415C44.5303 20.4435 44.5751 20.4874 44.6062 20.5399C44.6374 20.5925 44.6573 20.658 44.6686 20.7345C44.6799 20.8111 44.6844 20.8942 44.6844 20.9841C44.6121 20.9342 44.5299 20.9006 44.4436 20.8855C44.36 20.869 44.2751 20.8601 44.1897 20.8592C44.0849 20.8592 43.9873 20.8747 43.8934 20.9007C43.7998 20.927 43.7199 20.9665 43.6553 21.0191C43.5893 21.0716 43.536 21.1381 43.4994 21.2137C43.4601 21.2965 43.4402 21.387 43.4416 21.4785C43.4416 21.6689 43.4972 21.8177 43.6083 21.9229C43.7199 22.0278 43.8667 22.0801 44.0492 22.0801C44.2141 22.0801 44.3456 22.0518 44.4459 21.9949C44.5461 21.9379 44.6261 21.8724 44.6844 21.798V22.0497H45.0137V20.855C45.0137 20.6009 44.9581 20.4043 44.8448 20.2662C44.7332 20.1284 44.5349 20.0585 44.2543 20.0585C44.1296 20.0585 44.0113 20.0758 43.8979 20.1066ZM44.4861 21.6844C44.4061 21.7412 44.3013 21.7672 44.1721 21.7672C44.0587 21.7672 43.9693 21.7388 43.9074 21.6841C43.8446 21.6273 43.8134 21.5529 43.8134 21.4609C43.8134 21.4064 43.8247 21.3604 43.8491 21.3189C43.8739 21.2773 43.9074 21.2444 43.9449 21.2181C43.9864 21.1906 44.0325 21.1706 44.0808 21.159C44.1323 21.1458 44.1834 21.1392 44.2367 21.1392C44.4106 21.1392 44.5597 21.1808 44.6821 21.2684V21.5156C44.6243 21.5799 44.5583 21.6368 44.4861 21.6844ZM48.1205 19.415C48.1914 19.3824 48.2582 19.3277 48.3206 19.2467L48.129 18.9732C48.0802 19.0389 48.0247 19.0847 47.9623 19.1089C47.8959 19.1346 47.8273 19.1536 47.7572 19.1657L47.6908 19.1775C47.6326 19.1875 47.5707 19.1985 47.5033 19.2096C47.3963 19.2293 47.2915 19.2616 47.1916 19.3058C47.0335 19.3737 46.9066 19.4655 46.8108 19.5814C46.715 19.6974 46.6396 19.8286 46.5881 19.9733C46.5361 20.1198 46.5009 20.2717 46.4837 20.4261C46.4657 20.5839 46.4571 20.7345 46.4571 20.8789C46.4571 21.0651 46.4815 21.2334 46.5303 21.3844C46.5795 21.5356 46.6482 21.6623 46.7394 21.7651C46.8307 21.8703 46.94 21.9492 47.0692 22.006C47.1984 22.0628 47.343 22.0912 47.5056 22.0912C47.6547 22.0912 47.7929 22.0628 47.9176 22.0102C48.0378 21.9597 48.1467 21.8861 48.2384 21.7938C48.3274 21.7039 48.3987 21.5966 48.4475 21.4764C48.4986 21.3559 48.5234 21.2268 48.5234 21.0911C48.5234 20.9446 48.5013 20.8114 48.4588 20.693C48.42 20.5802 48.3576 20.4767 48.2763 20.389C48.1945 20.3028 48.0951 20.2355 47.9845 20.1918C47.8625 20.1441 47.7324 20.1203 47.6014 20.1219C47.5169 20.1219 47.4342 20.1329 47.3543 20.1547C47.2761 20.1765 47.2016 20.2082 47.1316 20.2489C47.0638 20.2875 47.0014 20.3353 46.9468 20.3908C46.8935 20.4458 46.8488 20.5071 46.8176 20.577H46.8085C46.8153 20.4874 46.8266 20.3956 46.8465 20.3014C46.8664 20.2073 46.8953 20.1174 46.9337 20.0322C46.9712 19.9469 47.0204 19.8702 47.0805 19.8002C47.1447 19.7296 47.2237 19.6736 47.3118 19.6361C47.4089 19.5902 47.5115 19.5572 47.6172 19.5378L47.6868 19.5251C47.7563 19.5125 47.8227 19.5004 47.8864 19.4873C47.9709 19.4699 48.0491 19.4476 48.1205 19.415ZM46.8822 21.286C46.8478 21.1755 46.8311 21.0603 46.8334 20.9446C46.8483 20.8783 46.8754 20.8153 46.9134 20.7587C46.9513 20.6996 47.0001 20.6472 47.0584 20.6009C47.1889 20.4991 47.3507 20.4444 47.5169 20.4458C47.7238 20.4458 47.8797 20.5092 47.989 20.6341C48.0983 20.7608 48.1516 20.9184 48.1516 21.1088C48.1516 21.2029 48.1336 21.2883 48.1028 21.367C48.0726 21.4446 48.0269 21.5153 47.9691 21.5751C47.9108 21.6348 47.8413 21.6824 47.764 21.7149C47.6841 21.7499 47.5969 21.7675 47.4988 21.7675C47.4013 21.7675 47.3118 21.7478 47.2296 21.7083C47.1478 21.6696 47.0755 21.6137 47.0177 21.5442C46.9576 21.4669 46.9115 21.3794 46.8822 21.286ZM51.2222 20.1H50.8703V22.0476H51.2222V20.1ZM49.0307 20.1H49.3831V20.6843H49.7079C49.8615 20.6843 49.9862 20.7041 50.0865 20.7411C50.1868 20.7784 50.2672 20.8287 50.3273 20.89C50.3874 20.9512 50.4294 21.0236 50.4542 21.1043C50.4786 21.1853 50.4922 21.2684 50.4922 21.3559C50.4922 21.4435 50.4786 21.5268 50.4497 21.61C50.4231 21.6931 50.3761 21.7651 50.3137 21.8309C50.2514 21.8966 50.1669 21.9492 50.0598 21.9887C49.9528 22.0278 49.8236 22.0497 49.6677 22.0497H49.0289V20.1H49.0307ZM49.3831 21.0101V21.7236H49.6393C49.815 21.7236 49.9397 21.6931 50.0111 21.6315C50.0824 21.5703 50.1177 21.4829 50.1177 21.367C50.1177 21.2486 50.0797 21.1592 50.0088 21.0977C49.9352 21.0364 49.8127 21.0056 49.6438 21.0056H49.3831V21.0101Z" fill="white"/>
<path d="M53.5492 21.767C53.4647 21.8743 53.3531 21.9553 53.2198 22.01C53.0825 22.0655 52.9357 22.0937 52.7879 22.0931C52.6407 22.0951 52.4943 22.0707 52.3556 22.0211C52.2314 21.9762 52.1175 21.9062 52.0218 21.8154C51.9269 21.7245 51.8528 21.6148 51.8036 21.4935C51.7503 21.3606 51.7241 21.2187 51.7254 21.0757C51.7254 20.9337 51.7498 20.8022 51.8013 20.6776C51.8501 20.5526 51.9215 20.4456 52.0105 20.3557C52.0999 20.2639 52.2065 20.194 52.3267 20.1393C52.4536 20.0837 52.591 20.0561 52.7297 20.0583C52.8878 20.0583 53.035 20.078 53.1688 20.1172C53.302 20.1566 53.4159 20.2224 53.5089 20.3144L53.3468 20.5879C53.2682 20.5171 53.1755 20.4634 53.0748 20.4301C52.979 20.3995 52.8792 20.384 52.7789 20.3843C52.6899 20.3843 52.605 20.4017 52.5228 20.4346C52.4414 20.4671 52.3674 20.5146 52.3046 20.5747C52.2404 20.637 52.1898 20.7114 52.1555 20.7935C52.1175 20.8787 52.0999 20.9729 52.0999 21.0778C52.0999 21.1851 52.1198 21.2813 52.1573 21.3644C52.1952 21.4499 52.2467 21.5222 52.3113 21.5832C52.3759 21.6448 52.4514 21.6905 52.5381 21.7213C52.6253 21.7518 52.7166 21.7694 52.8146 21.7694C52.9348 21.7694 53.0414 21.7452 53.1371 21.6992C53.2298 21.6548 53.3129 21.5932 53.3825 21.5177L53.5492 21.767ZM53.7294 20.0998H55.5355V20.4456H54.8095V22.0471H54.4576V20.4456H53.7321V20.0998H53.7294Z" fill="white"/>
<path fill-rule="evenodd" clip-rule="evenodd" d="M56.2707 20.1002H55.9187V22.914H56.2707V21.9578C56.342 22.0038 56.4265 22.0368 56.5246 22.0586C56.6221 22.0804 56.7247 22.0912 56.8295 22.0912C56.9853 22.0912 57.1258 22.0628 57.2528 22.0104C57.3743 21.9586 57.485 21.8836 57.5776 21.7895C57.6688 21.6951 57.738 21.5858 57.7868 21.4566C57.836 21.3278 57.8604 21.1897 57.8604 21.0432C57.8604 20.8986 57.8383 20.7653 57.7958 20.6449C57.756 20.5305 57.6942 20.425 57.6133 20.3343C57.5342 20.2459 57.4357 20.1763 57.326 20.1308C57.2058 20.0794 57.0761 20.054 56.9451 20.0563C56.8073 20.0563 56.6781 20.0826 56.5557 20.1352C56.4333 20.1878 56.3375 20.2509 56.2707 20.3298V20.1002ZM56.5155 20.4613C56.6158 20.4087 56.7251 20.3824 56.843 20.3824C56.9456 20.3824 57.0368 20.3976 57.1195 20.4306C57.1995 20.4634 57.2663 20.5094 57.3219 20.5707C57.3775 20.632 57.4199 20.7022 57.4466 20.785C57.4755 20.8681 57.489 20.958 57.489 21.0564C57.489 21.1616 57.471 21.2554 57.4403 21.343C57.4109 21.426 57.3644 21.5021 57.3038 21.5663C57.2433 21.6297 57.1697 21.6796 57.0879 21.7128C56.9971 21.7506 56.8995 21.7692 56.8006 21.7674C56.7052 21.7674 56.6158 21.7567 56.5313 21.7349C56.4387 21.7098 56.3506 21.6698 56.2711 21.6165V20.6514C56.333 20.5773 56.4157 20.5139 56.5155 20.4613ZM60.5596 20.1H60.2077V22.0475H60.5596V20.1ZM58.3659 20.1H58.7178V20.6843H59.0431C59.1967 20.6843 59.3214 20.704 59.4217 20.7411C59.522 20.7784 59.6019 20.8287 59.662 20.8899C59.7221 20.9512 59.7646 21.0235 59.7889 21.1042C59.8133 21.1852 59.8269 21.2683 59.8269 21.3559C59.8269 21.4435 59.8133 21.5269 59.7844 21.61C59.7578 21.6931 59.7112 21.7651 59.6484 21.8308C59.5866 21.8966 59.5016 21.9492 59.395 21.9886C59.2879 22.0278 59.1587 22.0496 59.0029 22.0496H58.3637V20.1H58.3659ZM58.7201 21.0101V21.7235H58.9767C59.152 21.7235 59.2771 21.6931 59.3485 21.6315C59.4194 21.5702 59.4551 21.4829 59.4551 21.367C59.4551 21.2486 59.4172 21.1592 59.3462 21.0977C59.2726 21.0364 59.1502 21.0056 58.9808 21.0056H58.7201V21.0101Z" fill="white"/>
<path d="M62.2474 21.0386L63 22.0473H62.5681L61.9867 21.2594L61.3967 22.0473H60.987L61.7351 21.0559L61.0317 20.0997H61.4636L62.0003 20.835L62.5455 20.0997H62.9557L62.2474 21.0386ZM31.3345 24.4543H30.2546V26.0778H29.9026V24.1305H31.6862V26.0778H31.3345V24.4543ZM33.6836 24.4761H32.989L32.9665 24.8042C32.9421 25.0822 32.9088 25.3055 32.8619 25.4759C32.8151 25.6468 32.7571 25.778 32.6905 25.8698C32.6238 25.9618 32.5457 26.0252 32.4565 26.056C32.3646 26.0891 32.2673 26.1054 32.1694 26.1041L32.1427 25.767C32.1805 25.7691 32.225 25.7604 32.2739 25.7386C32.3232 25.7168 32.3721 25.6686 32.4187 25.5966C32.4655 25.5219 32.5079 25.417 32.5457 25.2813C32.5836 25.1435 32.6082 24.9641 32.6214 24.7385L32.6571 24.1324H34.0356V26.0799H33.6836V24.4761Z" fill="white"/>
<path fill-rule="evenodd" clip-rule="evenodd" d="M34.9842 24.1353C34.8704 24.1659 34.768 24.2095 34.6812 24.2642L34.7748 24.5401C34.855 24.5006 34.9352 24.4677 35.0151 24.4394C35.0953 24.4109 35.198 24.3978 35.3203 24.3978C35.4184 24.3978 35.4961 24.413 35.5561 24.4436C35.6167 24.4722 35.661 24.5159 35.6921 24.5685C35.7233 24.6211 35.7432 24.6868 35.7545 24.7631C35.7658 24.8398 35.7703 24.9229 35.7703 25.0126C35.698 24.9628 35.6158 24.9293 35.5295 24.9143C35.4459 24.8978 35.361 24.889 35.2756 24.888C35.1712 24.888 35.0731 24.9032 34.9797 24.9295C34.886 24.9558 34.8058 24.9953 34.7413 25.0479C34.6754 25.1004 34.6221 25.1668 34.5854 25.2424C34.5462 25.3253 34.5265 25.4158 34.5277 25.5073C34.5277 25.6974 34.5832 25.8465 34.6947 25.9514C34.8058 26.0563 34.953 26.1089 35.1356 26.1089C35.3005 26.1089 35.4315 26.0805 35.5317 26.0235C35.632 25.9667 35.712 25.9009 35.7703 25.8265V26.0782H36.1001V24.8835C36.1001 24.6297 36.044 24.4328 35.9307 24.295C35.8191 24.1569 35.6207 24.0872 35.3402 24.0872C35.22 24.0874 35.1002 24.1037 34.9842 24.1353ZM35.5742 25.7126C35.4943 25.7697 35.3894 25.796 35.2602 25.796C35.1445 25.796 35.0577 25.7676 34.9956 25.7126C34.9331 25.6559 34.9019 25.5814 34.9019 25.4897C34.9019 25.4349 34.913 25.3889 34.9376 25.3474C34.9619 25.3058 34.9956 25.273 35.0334 25.2467C35.0712 25.2204 35.1178 25.2006 35.1691 25.1875C35.22 25.1744 35.2724 25.1679 35.3248 25.168C35.4988 25.168 35.6479 25.2096 35.7703 25.2969V25.5441C35.7125 25.6084 35.6465 25.665 35.5742 25.7126Z" fill="white"/>
<path d="M36.4446 24.1308H38.2508V24.4763H37.5243V26.0781H37.1729V24.4766H36.4469V24.1308H36.4446Z" fill="white"/>
<path fill-rule="evenodd" clip-rule="evenodd" d="M39.8945 26.058C40.0282 26.0165 40.1416 25.9528 40.2396 25.8655L40.1325 25.5941C40.0679 25.6512 39.9812 25.6993 39.8764 25.7388C39.772 25.7783 39.6541 25.7977 39.5249 25.7977C39.3311 25.7977 39.1708 25.7475 39.0438 25.6447C38.9169 25.5418 38.8477 25.3975 38.8324 25.2134H40.3553C40.3706 25.1458 40.3778 25.069 40.3778 24.9793C40.3778 24.846 40.353 24.7256 40.3042 24.6162C40.2586 24.51 40.1917 24.414 40.1082 24.334C40.0232 24.2545 39.9234 24.1927 39.8145 24.1523C39.6998 24.1083 39.5782 24.0859 39.4558 24.0866C39.2909 24.0866 39.1459 24.1149 39.0194 24.1676C38.8993 24.2175 38.7908 24.2912 38.7009 24.3843C38.6128 24.4767 38.5455 24.5862 38.5026 24.7059C38.4556 24.8334 38.4321 24.9682 38.4335 25.104C38.4335 25.2573 38.4601 25.3972 38.5089 25.5221C38.5582 25.6468 38.6318 25.7541 38.7231 25.8437C38.8143 25.9334 38.9255 26.0012 39.0574 26.0494C39.1979 26.0991 39.3465 26.1236 39.4956 26.1217C39.627 26.1217 39.7607 26.0996 39.8945 26.058ZM39.0018 24.557C39.1107 24.4586 39.2552 24.4105 39.4382 24.4105C39.6117 24.4105 39.7477 24.4586 39.8479 24.5483C39.9478 24.6404 40.0015 24.7671 40.0106 24.9291H38.808C38.8247 24.7858 38.8938 24.6536 39.0018 24.557ZM40.5491 24.1305H40.9945L41.6735 25.0693L40.9475 26.0778H40.5156L41.2773 25.069L40.5491 24.1305ZM41.7602 24.1305H42.1121V26.0778H41.7602V24.1305ZM43.3703 26.0778L42.5955 25.069L43.3192 24.1302H42.8828L42.1989 25.069L42.9339 26.0778H43.3703ZM44.9781 26.058C45.1118 26.0165 45.2252 25.9528 45.3232 25.8655L45.2162 25.5941C45.152 25.6512 45.0648 25.6993 44.9605 25.7388C44.8557 25.7783 44.7378 25.7977 44.6086 25.7977C44.4148 25.7977 44.2544 25.7475 44.1274 25.6447C44.0005 25.5418 43.9318 25.3975 43.916 25.2134H45.4393C45.4547 25.1458 45.4615 25.069 45.4615 24.9793C45.4615 24.846 45.4371 24.7256 45.3878 24.6162C45.3422 24.51 45.2758 24.4141 45.1922 24.334C45.1073 24.2545 45.0075 24.1927 44.8981 24.1523C44.7838 24.1082 44.6623 24.0859 44.5394 24.0866C44.375 24.0866 44.23 24.1149 44.103 24.1676C43.9833 24.2176 43.8749 24.2913 43.7845 24.3843C43.6969 24.4766 43.6291 24.5861 43.5867 24.7059C43.5397 24.8333 43.5162 24.9682 43.5176 25.104C43.5176 25.2573 43.5442 25.3972 43.593 25.5221C43.6422 25.6468 43.7159 25.7541 43.8071 25.8437C43.8984 25.9334 44.0095 26.0012 44.141 26.0494C44.2819 26.0991 44.4301 26.1236 44.5796 26.1217C44.7152 26.1207 44.8493 26.0992 44.9781 26.058ZM44.0854 24.557C44.1947 24.4586 44.3393 24.4105 44.5218 24.4105C44.6935 24.4105 44.8313 24.4586 44.9316 24.5483C45.0319 24.6404 45.0856 24.7671 45.0942 24.9291H43.8916C43.9088 24.7858 43.9774 24.6536 44.0854 24.557ZM46.889 23.4762C46.6821 23.4762 46.5683 23.3623 46.5507 23.1349H46.2186C46.2186 23.2222 46.2344 23.3011 46.2633 23.3755C46.2923 23.4499 46.3347 23.5133 46.3903 23.5659C46.4459 23.6185 46.5172 23.66 46.5994 23.6926C46.6821 23.7255 46.7779 23.7408 46.8868 23.7408C46.9871 23.7408 47.0761 23.7255 47.1565 23.6926C47.2364 23.6621 47.3033 23.6185 47.3611 23.5659C47.4167 23.5133 47.4614 23.4499 47.4926 23.3755C47.5237 23.3011 47.5391 23.2222 47.5391 23.1349H47.2098C47.1944 23.3623 47.0851 23.4762 46.889 23.4762ZM45.9381 24.1302V26.0778H46.29L47.4343 24.6269V26.0778H47.7867V24.1302H47.4343L46.29 25.581V24.1302H45.9381Z" fill="white"/>
</svg>
