<svg width="41" height="31" viewBox="0 0 41 31" fill="none" xmlns="http://www.w3.org/2000/svg">
<path d="M22.6568 9.10011L22.659 9.21822L16.806 17.7211C15.8582 17.6777 14.9074 17.8444 14.0044 18.2159C13.6113 18.3757 13.236 18.5761 12.8846 18.8139L0.0313021 13.5164C0.0313021 13.5164 -0.266204 18.4095 0.973157 22.0559L10.0598 25.8053C10.5083 27.8445 11.9136 29.6326 13.9782 30.4922C15.6025 31.1671 17.4283 31.1697 19.0545 30.4995C20.6807 29.8293 21.9744 28.541 22.6515 26.9176C23.0127 26.0529 23.187 25.1216 23.1628 24.1847L31.5296 18.201L31.7352 18.2047C36.7472 18.2047 40.8211 14.1189 40.8211 9.10011C40.8211 4.08137 36.7547 0.0104651 31.7352 0C26.7254 0 22.6493 4.08137 22.6493 9.10011H22.6568ZM21.2514 26.3301C20.1646 28.9463 17.1656 30.1775 14.559 29.0914C13.4024 28.6052 12.4648 27.7108 11.9248 26.5783L14.8827 27.8042C15.3396 27.9944 15.8296 28.0927 16.3245 28.0934C16.8195 28.0942 17.3097 27.9975 17.7672 27.8087C18.2248 27.62 18.6406 27.3429 18.991 26.9934C19.3415 26.6439 19.6196 26.2287 19.8095 25.7717C20.1941 24.8482 20.1964 23.8098 19.8158 22.8846C19.4353 21.9594 18.7031 21.2231 17.78 20.8374L14.7153 19.5704C15.8948 19.1219 17.2359 19.1069 18.4902 19.628C19.7609 20.1535 20.7327 21.1432 21.2529 22.4087C21.7732 23.6742 21.7702 25.0698 21.2455 26.3301M31.7434 15.1661C30.1374 15.1618 28.5985 14.5211 27.4639 13.3844C26.3293 12.2477 25.6915 10.7076 25.6901 9.10161C25.6919 7.49583 26.3299 5.95618 27.4645 4.81981C28.599 3.68344 30.1376 3.04295 31.7434 3.0386C33.3494 3.04256 34.8885 3.68287 36.0233 4.81928C37.1582 5.9557 37.7964 7.49557 37.7982 9.10161C37.7968 10.7079 37.1588 12.2482 36.0238 13.3849C34.8889 14.5216 33.3497 15.1622 31.7434 15.1661ZM27.2076 9.09189C27.2066 7.88519 27.6847 6.72747 28.5369 5.87315C29.3891 5.01884 30.5457 4.53784 31.7524 4.53585C34.2603 4.53585 36.3002 6.57654 36.3002 9.09189C36.3008 10.2988 35.822 11.4566 34.9692 12.3107C34.1164 13.1648 32.9593 13.6452 31.7524 13.6464C30.5458 13.6447 29.3893 13.1639 28.537 12.3099C27.6846 11.4559 27.207 10.2985 27.2076 9.09189Z" fill="white"/>
</svg>
