<svg width="32" height="32" viewBox="0 0 32 32" fill="none" xmlns="http://www.w3.org/2000/svg">
<g clip-path="url(#clip0_406_3188)">
<path d="M0.628677 20.2841C2.57526 26.7746 8.59569 31.5077 15.7199 31.5077C24.4204 31.5077 31.4737 24.4544 31.4737 15.7538C31.4737 7.05329 24.4204 0 15.7199 0C7.37132 0 0.539569 6.49502 0 14.7072C1.02105 16.419 1.41735 17.4779 0.627692 20.2841H0.628677Z" fill="url(#paint0_linear_406_3188)"/>
<path d="M15.168 12.0541L15.1695 12.1319L11.3147 17.7319C10.6905 17.7034 10.0642 17.8132 9.46954 18.0578C9.21066 18.163 8.96348 18.295 8.73206 18.4517L0.266831 14.9627C0.266831 14.9627 0.070893 18.1853 0.887139 20.5868L6.87163 23.0562C7.16702 24.3993 8.09256 25.5769 9.45231 26.143C10.5221 26.5875 11.7245 26.5892 12.7955 26.1478C13.8666 25.7064 14.7186 24.858 15.1646 23.7888C15.4025 23.2193 15.5172 22.6059 15.5013 21.9889L21.0117 18.048L21.1471 18.0505C24.448 18.0505 27.1311 15.3595 27.1311 12.0541C27.1311 8.74879 24.4529 6.06768 21.1471 6.06079C17.8476 6.06079 15.1631 8.74879 15.1631 12.0541H15.168ZM14.2425 23.4018C13.5266 25.1249 11.5515 25.9357 9.83483 25.2204C9.07304 24.9003 8.45557 24.3112 8.09994 23.5653L10.048 24.3727C10.3489 24.4979 10.6716 24.5627 10.9976 24.5632C11.3235 24.5637 11.6464 24.5 11.9478 24.3757C12.2491 24.2514 12.523 24.0689 12.7538 23.8387C12.9845 23.6085 13.1677 23.3351 13.2928 23.0341C13.5461 22.4259 13.5476 21.742 13.297 21.1326C13.0464 20.5233 12.5641 20.0384 11.9562 19.7844L9.93773 18.9499C10.7146 18.6545 11.5978 18.6447 12.4239 18.9878C13.2608 19.3339 13.9008 19.9857 14.2434 20.8192C14.5861 21.6527 14.5841 22.5718 14.2385 23.4018M21.1525 16.0492C20.0948 16.0464 19.0813 15.6244 18.334 14.8758C17.5868 14.1271 17.1667 13.1129 17.1658 12.0551C17.167 10.9976 17.5872 9.98354 18.3344 9.23513C19.0816 8.48671 20.0949 8.06489 21.1525 8.06202C22.2102 8.06463 23.2238 8.48634 23.9713 9.23478C24.7187 9.98322 25.139 10.9974 25.1402 12.0551C25.1393 13.113 24.7191 14.1275 23.9716 14.8761C23.2241 15.6248 22.2104 16.0466 21.1525 16.0492ZM18.1652 12.0487C18.1645 11.254 18.4794 10.4915 19.0407 9.92886C19.602 9.36621 20.3637 9.04942 21.1584 9.04811C22.8101 9.04811 24.1536 10.3921 24.1536 12.0487C24.154 12.8436 23.8387 13.6062 23.277 14.1687C22.7154 14.7312 21.9533 15.0476 21.1584 15.0484C20.3638 15.0472 19.6021 14.7306 19.0407 14.1681C18.4794 13.6057 18.1648 12.8434 18.1652 12.0487Z" fill="white"/>
</g>
<defs>
<linearGradient id="paint0_linear_406_3188" x1="1573.69" y1="0" x2="1573.69" y2="3150.77" gradientUnits="userSpaceOnUse">
<stop stop-color="#111D2E"/>
<stop offset="0.212" stop-color="#051839"/>
<stop offset="0.407" stop-color="#0A1B48"/>
<stop offset="0.581" stop-color="#132E62"/>
<stop offset="0.738" stop-color="#144B7E"/>
<stop offset="0.873" stop-color="#136497"/>
<stop offset="1" stop-color="#1387B8"/>
</linearGradient>
<clipPath id="clip0_406_3188">
<rect width="32" height="32" fill="white"/>
</clipPath>
</defs>
</svg>
