<svg width="54" height="54" viewBox="0 0 54 54" fill="none" xmlns="http://www.w3.org/2000/svg">
<g clip-path="url(#clip0_5009_8297)">
<path d="M26.9658 0.415039C41.648 0.415039 53.5508 12.3178 53.5508 27C53.5507 41.6821 41.648 53.585 26.9658 53.585C14.9843 53.5849 4.85407 45.6508 1.53418 34.7549L11.5957 38.9072C12.0942 41.1736 13.6566 43.1608 15.9512 44.1162C17.7563 44.8662 19.7855 44.8689 21.5928 44.124C23.3999 43.3791 24.8374 41.9476 25.5898 40.1436C25.9913 39.1826 26.185 38.1476 26.1582 37.1064L35.457 30.4561L35.6855 30.46C41.2557 30.46 45.7839 25.9194 45.7842 20.3418C45.7842 14.764 41.2642 10.2392 35.6855 10.2275C30.1178 10.2276 25.5879 14.7641 25.5879 20.3418H25.5957L25.5986 20.4727L19.0938 29.9229C18.0403 29.8747 16.9831 30.0598 15.9795 30.4727C15.5427 30.6502 15.1258 30.8734 14.7354 31.1377L0.450195 25.25C0.450164 25.2505 0.449304 25.2515 0.449219 25.2529C0.44548 25.2467 0.442226 25.2397 0.438477 25.2334C1.34913 11.3755 12.8778 0.415109 26.9658 0.415039ZM16.7695 31.9775C18.0804 31.4791 19.5709 31.4631 20.9648 32.042C22.3772 32.626 23.4579 33.7263 24.0361 35.1328C24.6141 36.5391 24.6104 38.0898 24.0273 39.4902L23.915 39.7588C22.6187 42.4813 19.403 43.7287 16.5967 42.5596C15.3113 42.0193 14.2691 41.0252 13.6689 39.7666L16.9561 41.1289C17.4639 41.3403 18.0085 41.4493 18.5586 41.4502C19.1086 41.451 19.6537 41.3435 20.1621 41.1338C20.6704 40.924 21.1321 40.6159 21.5215 40.2275C21.9109 39.8391 22.2206 39.378 22.4316 38.8701C22.8591 37.8437 22.8614 36.6894 22.4385 35.6611C22.0155 34.633 21.2016 33.8144 20.1758 33.3857L16.7695 31.9775ZM35.6953 13.6045C37.4801 13.609 39.19 14.3211 40.4512 15.584C41.7124 16.8469 42.4218 18.5579 42.4238 20.3428C42.4223 22.128 41.7135 23.8402 40.4521 25.1035C39.1909 26.3668 37.4804 27.0785 35.6953 27.083C33.9104 27.0782 32.1995 26.3659 30.9385 25.1025C29.6777 23.8393 28.9683 22.1276 28.9668 20.3428C28.9688 18.5582 29.6786 16.8469 30.9395 15.584C32.2004 14.3212 33.9108 13.6093 35.6953 13.6045ZM35.7051 15.2686C34.364 15.2708 33.078 15.8054 32.1309 16.7549C31.1838 17.7043 30.6523 18.991 30.6533 20.332C30.6527 21.673 31.1836 22.96 32.1309 23.9092C33.0781 24.8583 34.3641 25.3925 35.7051 25.3945C37.0464 25.3931 38.3325 24.8583 39.2803 23.9092C40.2279 22.96 40.7595 21.6733 40.7588 20.332C40.7587 17.5367 38.4921 15.2687 35.7051 15.2686Z" fill="white"/>
</g>
<defs>
<clipPath id="clip0_5009_8297">
<rect width="54" height="54" fill="white"/>
</clipPath>
</defs>
</svg>
