<svg width="60" height="60" viewBox="0 0 60 60" fill="none" xmlns="http://www.w3.org/2000/svg">
<path d="M29.9355 0C46.5042 0 59.9365 13.4314 59.9365 30C59.9365 46.5686 46.5041 60 29.9355 60C16.4148 59.9999 4.98241 51.0476 1.23583 38.7519L12.5913 43.4374C13.1539 45.9948 14.9156 48.2378 17.5049 49.316C19.5419 50.1624 21.832 50.1653 23.8715 49.3249C25.9111 48.4843 27.5341 46.8679 28.3833 44.8319C28.8362 43.7476 29.0543 42.5798 29.024 41.4051L39.5176 33.8999L39.7755 33.9049C46.0615 33.9049 51.1717 28.7803 51.1717 22.4859C51.1717 16.1914 46.0709 11.086 39.7755 11.0728C33.4925 11.073 28.3803 16.1915 28.3803 22.4859H28.3903L28.3922 22.6336L21.0517 33.2978C19.8631 33.2435 18.6709 33.4529 17.5386 33.9187C17.0458 34.119 16.5747 34.3704 16.1342 34.6686L0.0128938 28.0243C0.0128938 28.0243 0.0120065 28.0255 0.011902 28.0272C0.00786919 28.0205 0.00404311 28.0132 0 28.0064C1.02766 12.368 14.0374 0.000136412 29.9355 0ZM18.4293 35.6177C19.9087 35.0552 21.5911 35.0367 23.1643 35.6902C24.7579 36.3492 25.9763 37.5903 26.6288 39.1774C27.2813 40.7646 27.278 42.5153 26.6198 44.0959L26.4929 44.3985C25.0298 47.4707 21.4007 48.878 18.2339 47.5584C16.7832 46.9487 15.6073 45.8268 14.9301 44.4064L18.6395 45.9447C19.2125 46.1832 19.827 46.3057 20.4476 46.3067C21.0684 46.3077 21.6839 46.1864 22.2577 45.9497C22.8314 45.713 23.3527 45.3654 23.7921 44.9271C24.2316 44.4887 24.5805 43.9679 24.8187 43.3947C25.3008 42.2366 25.3037 40.9347 24.8266 39.7745C24.3494 38.6142 23.4312 37.6904 22.2736 37.2067L18.4293 35.6177ZM39.7864 14.8835C41.8006 14.8885 43.7309 15.6918 45.1542 17.1171C46.5774 18.5423 47.3777 20.4737 47.3799 22.4879C47.3781 24.5024 46.5776 26.434 45.1542 27.8596C43.7309 29.2852 41.8009 30.0892 39.7864 30.0942C37.7721 30.0888 35.8416 29.2843 34.4186 27.8586C32.9959 26.4331 32.1957 24.5019 32.1939 22.4879C32.1962 20.4739 32.9967 18.5423 34.4196 17.1171C35.8425 15.692 37.7726 14.8889 39.7864 14.8835ZM39.7973 16.761C38.284 16.7635 36.8333 17.3668 35.7645 18.4382C34.6957 19.5097 34.096 20.9625 34.0973 22.4759C34.0966 23.9891 34.6957 25.4407 35.7645 26.5117C36.8335 27.5828 38.2841 28.1856 39.7973 28.1879C41.3111 28.1864 42.7625 27.5839 43.8321 26.5127C44.9016 25.4416 45.502 23.9895 45.5014 22.4759C45.5014 19.3212 42.9427 16.761 39.7973 16.761Z" fill="#A4F40F"/>
</svg>
