<svg width="122" height="14" viewBox="0 0 122 14" fill="none" xmlns="http://www.w3.org/2000/svg">
<path d="M8.13259 0.0800869V10.2857H6.29877V1.61491H1.83382V10.2857H2.83783e-06V0.0800869H8.13259ZM13.6527 10.4352C12.8853 10.4352 12.2226 10.2757 11.6644 9.95679C11.1096 9.63455 10.6827 9.17941 10.3838 8.5914C10.0848 8.00006 9.93526 7.30407 9.93526 6.50343C9.93526 5.71609 10.0848 5.02508 10.3838 4.43042C10.6861 3.83244 11.108 3.36734 11.6495 3.03513C12.191 2.69959 12.8272 2.53182 13.5581 2.53182C14.0298 2.53182 14.475 2.60823 14.8935 2.76105C15.3155 2.91055 15.6875 3.1431 16.0098 3.4587C16.3354 3.7743 16.5912 4.17628 16.7772 4.66463C16.9632 5.14966 17.0563 5.72772 17.0563 6.39879V6.95192H10.7824V5.73602H15.3271C15.3238 5.39052 15.249 5.08322 15.1028 4.81413C14.9567 4.54171 14.7524 4.32744 14.4899 4.1713C14.2308 4.01516 13.9285 3.93709 13.583 3.93709C13.2142 3.93709 12.8903 4.02678 12.6112 4.20618C12.3322 4.38225 12.1146 4.6148 11.9584 4.90383C11.8056 5.18953 11.7276 5.50347 11.7242 5.84565V6.90707C11.7242 7.35224 11.8056 7.73429 11.9684 8.05321C12.1312 8.36881 12.3588 8.61133 12.6511 8.78076C12.9435 8.94686 13.2856 9.02992 13.6776 9.02992C13.9401 9.02992 14.1776 8.99337 14.3902 8.92029C14.6029 8.84388 14.7872 8.73259 14.9434 8.58641C15.0995 8.44024 15.2175 8.25918 15.2972 8.04324L16.9815 8.23261C16.8752 8.67777 16.6726 9.06646 16.3736 9.39868C16.0779 9.72757 15.6992 9.98337 15.2374 10.1661C14.7756 10.3455 14.2474 10.4352 13.6527 10.4352ZM18.5824 13.156V2.63149H20.3564V3.89722H20.461C20.5541 3.71118 20.6853 3.51351 20.8547 3.30422C21.0241 3.0916 21.2534 2.91055 21.5424 2.76105C21.8314 2.60823 22.2002 2.53182 22.6487 2.53182C23.24 2.53182 23.7732 2.68298 24.2483 2.98529C24.7267 3.28429 25.1054 3.72779 25.3844 4.31581C25.6668 4.9005 25.808 5.61809 25.808 6.46855C25.808 7.30905 25.6701 8.02331 25.3944 8.61133C25.1187 9.19935 24.7433 9.64784 24.2682 9.95679C23.7931 10.2658 23.2549 10.4202 22.6536 10.4202C22.2151 10.4202 21.8513 10.3471 21.5623 10.201C21.2733 10.0548 21.0407 9.87872 20.8647 9.67275C20.6919 9.46346 20.5574 9.26579 20.461 9.07975H20.3863V13.156H18.5824ZM20.3514 6.45859C20.3514 6.95358 20.4212 7.38712 20.5607 7.7592C20.7035 8.13128 20.9079 8.42197 21.1736 8.63126C21.4427 8.83723 21.7683 8.94022 22.1503 8.94022C22.549 8.94022 22.8829 8.83391 23.152 8.6213C23.4211 8.40536 23.6237 8.11135 23.7599 7.73927C23.8994 7.36387 23.9692 6.93697 23.9692 6.45859C23.9692 5.98352 23.9011 5.56161 23.7649 5.19285C23.6287 4.8241 23.426 4.53507 23.1569 4.32578C22.8879 4.11648 22.5523 4.01183 22.1503 4.01183C21.765 4.01183 21.4377 4.11316 21.1686 4.31581C20.8996 4.51846 20.6952 4.8025 20.5557 5.16794C20.4195 5.53337 20.3514 5.96359 20.3514 6.45859ZM30.7414 10.4352C29.974 10.4352 29.3112 10.2757 28.7531 9.95679C28.1983 9.63455 27.7714 9.17941 27.4724 8.5914C27.1734 8.00006 27.0239 7.30407 27.0239 6.50343C27.0239 5.71609 27.1734 5.02508 27.4724 4.43042C27.7747 3.83244 28.1966 3.36734 28.7381 3.03513C29.2796 2.69959 29.9158 2.53182 30.6467 2.53182C31.1184 2.53182 31.5636 2.60823 31.9822 2.76105C32.4041 2.91055 32.7762 3.1431 33.0984 3.4587C33.424 3.7743 33.6798 4.17628 33.8658 4.66463C34.0519 5.14966 34.1449 5.72772 34.1449 6.39879V6.95192H27.8711V5.73602H32.4157C32.4124 5.39052 32.3377 5.08322 32.1915 4.81413C32.0453 4.54171 31.841 4.32744 31.5786 4.1713C31.3194 4.01516 31.0171 3.93709 30.6716 3.93709C30.3029 3.93709 29.9789 4.02678 29.6999 4.20618C29.4208 4.38225 29.2032 4.6148 29.0471 4.90383C28.8943 5.18953 28.8162 5.50347 28.8129 5.84565V6.90707C28.8129 7.35224 28.8943 7.73429 29.0571 8.05321C29.2198 8.36881 29.4474 8.61133 29.7398 8.78076C30.0321 8.94686 30.3743 9.02992 30.7663 9.02992C31.0287 9.02992 31.2663 8.99337 31.4789 8.92029C31.6915 8.84388 31.8759 8.73259 32.032 8.58641C32.1882 8.44024 32.3061 8.25918 32.3858 8.04324L34.0702 8.23261C33.9638 8.67777 33.7612 9.06646 33.4622 9.39868C33.1665 9.72757 32.7878 9.98337 32.326 10.1661C31.8643 10.3455 31.336 10.4352 30.7414 10.4352ZM37.4101 7.84392L40.4748 2.63149H42.3286V10.2857H40.5844V5.06827L37.5297 10.2857H35.671V2.63149H37.4101V7.84392ZM39.9815 0.000355715H41.3319C41.3319 0.581729 41.121 1.05347 40.6991 1.41558C40.2805 1.77438 39.7124 1.95377 38.9948 1.95377C38.2839 1.95377 37.7174 1.77438 37.2955 1.41558C36.8769 1.05347 36.6693 0.581729 36.6726 0.000355715H38.0131C38.0131 0.239549 38.0862 0.453827 38.2324 0.643188C38.3819 0.829228 38.636 0.922248 38.9948 0.922248C39.347 0.922248 39.5978 0.829228 39.7473 0.643188C39.9001 0.457149 39.9782 0.242872 39.9815 0.000355715ZM43.324 4.1115V2.63149H50.0214V4.1115H47.5447V10.2857H45.8006V4.1115H43.324ZM53.1969 7.84392L56.2616 2.63149H58.1154V10.2857H56.3712V5.06827L53.3165 10.2857H51.4578V2.63149H53.1969V7.84392ZM63.4486 10.2857V2.63149H65.2525V5.72107H65.9103L68.2126 2.63149H70.3852L67.5498 6.38882L70.4151 10.2857H68.2325L66.1346 7.40041H65.2525V10.2857H63.4486ZM78.2575 10.4352C77.51 10.4352 76.8622 10.2707 76.314 9.94184C75.7659 9.61295 75.3406 9.15284 75.0383 8.5615C74.7393 7.97016 74.5898 7.27915 74.5898 6.48849C74.5898 5.69782 74.7393 5.00515 75.0383 4.41049C75.3406 3.81583 75.7659 3.35405 76.314 3.02516C76.8622 2.69627 77.51 2.53182 78.2575 2.53182C79.0049 2.53182 79.6528 2.69627 80.2009 3.02516C80.7491 3.35405 81.1726 3.81583 81.4716 4.41049C81.7739 5.00515 81.9251 5.69782 81.9251 6.48849C81.9251 7.27915 81.7739 7.97016 81.4716 8.5615C81.1726 9.15284 80.7491 9.61295 80.2009 9.94184C79.6528 10.2707 79.0049 10.4352 78.2575 10.4352ZM78.2674 8.99005C78.6727 8.99005 79.0116 8.87876 79.284 8.65618C79.5564 8.43027 79.7591 8.12796 79.8919 7.74924C80.0282 7.37051 80.0963 6.9486 80.0963 6.4835C80.0963 6.01508 80.0282 5.59151 79.8919 5.21279C79.7591 4.83074 79.5564 4.52676 79.284 4.30086C79.0116 4.07495 78.6727 3.962 78.2674 3.962C77.8522 3.962 77.5067 4.07495 77.2309 4.30086C76.9585 4.52676 76.7542 4.83074 76.618 5.21279C76.4851 5.59151 76.4187 6.01508 76.4187 6.4835C76.4187 6.9486 76.4851 7.37051 76.618 7.74924C76.7542 8.12796 76.9585 8.43027 77.2309 8.65618C77.5067 8.87876 77.8522 8.99005 78.2674 8.99005ZM83.4562 10.2857V2.63149H89.9194V10.2857H88.1803V4.1115H85.1804V10.2857H83.4562ZM91.2462 10.2857L91.2362 8.80069H91.5003C91.6996 8.80069 91.8674 8.75584 92.0036 8.66614C92.1398 8.57645 92.2528 8.42695 92.3425 8.21766C92.4322 8.00504 92.5019 7.71934 92.5518 7.36055C92.6016 7.00175 92.6365 6.55493 92.6564 6.02006L92.791 2.63149H98.3722V10.2857H96.628V4.1115H94.4304L94.3108 6.57818C94.2809 7.21603 94.2095 7.76917 94.0966 8.23759C93.9869 8.70269 93.8308 9.08639 93.6281 9.38871C93.4288 9.69102 93.178 9.91693 92.8757 10.0664C92.5734 10.2126 92.2162 10.2857 91.8043 10.2857H91.2462ZM102.391 10.4402C101.906 10.4402 101.469 10.3538 101.081 10.181C100.695 10.005 100.39 9.74584 100.164 9.40366C99.941 9.06148 99.8297 8.63957 99.8297 8.13793C99.8297 7.70605 99.9095 7.34892 100.069 7.06654C100.228 6.78416 100.446 6.55825 100.722 6.38882C100.997 6.21939 101.308 6.09149 101.654 6.00511C102.002 5.91542 102.363 5.85064 102.735 5.81077C103.183 5.76426 103.547 5.72273 103.826 5.68619C104.105 5.64632 104.308 5.58653 104.434 5.50679C104.564 5.42374 104.629 5.29584 104.629 5.12309V5.09319C104.629 4.71779 104.517 4.4271 104.295 4.22113C104.072 4.01516 103.752 3.91217 103.333 3.91217C102.891 3.91217 102.541 4.00851 102.281 4.2012C102.026 4.39388 101.853 4.62145 101.763 4.88389L100.079 4.6447C100.212 4.1796 100.431 3.79091 100.737 3.47863C101.042 3.16303 101.416 2.92716 101.858 2.77102C102.3 2.61155 102.788 2.53182 103.323 2.53182C103.692 2.53182 104.059 2.57501 104.424 2.66139C104.79 2.74776 105.124 2.89061 105.426 3.08994C105.728 3.28595 105.971 3.55338 106.153 3.89224C106.339 4.23109 106.432 4.65467 106.432 5.16295V10.2857H104.698V9.23423H104.639C104.529 9.44685 104.374 9.64617 104.175 9.83221C103.979 10.0149 103.732 10.1628 103.433 10.2757C103.137 10.3853 102.79 10.4402 102.391 10.4402ZM102.86 9.11463C103.222 9.11463 103.536 9.04321 103.801 8.90036C104.067 8.75418 104.271 8.5615 104.414 8.3223C104.56 8.08311 104.634 7.82232 104.634 7.53994V6.63798C104.577 6.68449 104.481 6.72768 104.345 6.76754C104.212 6.80741 104.062 6.84229 103.896 6.87219C103.73 6.90209 103.565 6.92867 103.403 6.95192C103.24 6.97518 103.099 6.99511 102.979 7.01172C102.71 7.04826 102.469 7.10806 102.257 7.19112C102.044 7.27417 101.876 7.39044 101.753 7.53994C101.63 7.68611 101.569 7.87548 101.569 8.10803C101.569 8.44024 101.69 8.69106 101.933 8.86049C102.175 9.02992 102.484 9.11463 102.86 9.11463ZM107.389 4.1115V2.63149H114.087V4.1115H111.61V10.2857H109.866V4.1115H107.389ZM118.596 10.4352C117.829 10.4352 117.166 10.2757 116.608 9.95679C116.053 9.63455 115.626 9.17941 115.327 8.5914C115.029 8.00006 114.879 7.30407 114.879 6.50343C114.879 5.71609 115.029 5.02508 115.327 4.43042C115.63 3.83244 116.052 3.36734 116.593 3.03513C117.135 2.69959 117.771 2.53182 118.502 2.53182C118.974 2.53182 119.419 2.60823 119.837 2.76105C120.259 2.91055 120.631 3.1431 120.954 3.4587C121.279 3.7743 121.535 4.17628 121.721 4.66463C121.907 5.14966 122 5.72772 122 6.39879V6.95192H115.726V5.73602H120.271C120.268 5.39052 120.193 5.08322 120.047 4.81413C119.9 4.54171 119.696 4.32744 119.434 4.1713C119.175 4.01516 118.872 3.93709 118.527 3.93709C118.158 3.93709 117.834 4.02678 117.555 4.20618C117.276 4.38225 117.058 4.6148 116.902 4.90383C116.749 5.18953 116.671 5.50347 116.668 5.84565V6.90707C116.668 7.35224 116.749 7.73429 116.912 8.05321C117.075 8.36881 117.303 8.61133 117.595 8.78076C117.887 8.94686 118.229 9.02992 118.621 9.02992C118.884 9.02992 119.121 8.99337 119.334 8.92029C119.547 8.84388 119.731 8.73259 119.887 8.58641C120.043 8.44024 120.161 8.25918 120.241 8.04324L121.925 8.23261C121.819 8.67777 121.616 9.06646 121.317 9.39868C121.022 9.72757 120.643 9.98337 120.181 10.1661C119.719 10.3455 119.191 10.4352 118.596 10.4352Z" fill="white"/>
</svg>
