<svg width="131" height="14" viewBox="0 0 131 14" fill="none" xmlns="http://www.w3.org/2000/svg">
<path d="M8.15281 0.455139V10.6862H6.31441V1.9938H1.83831V10.6862H-8.91508e-05V0.455139H8.15281ZM10.2897 13.5637V3.01291H12.0681V4.28181H12.1731C12.2663 4.0953 12.3979 3.89714 12.5677 3.68732C12.7376 3.47418 12.9674 3.29267 13.2571 3.1428C13.5469 2.9896 13.9165 2.913 14.3661 2.913C14.959 2.913 15.4935 3.06453 15.9698 3.3676C16.4493 3.66734 16.829 4.11195 17.1088 4.70144C17.3918 5.2876 17.5334 6.00697 17.5334 6.85956C17.5334 7.70216 17.3952 8.4182 17.1187 9.00769C16.8423 9.59718 16.466 10.0468 15.9897 10.3565C15.5135 10.6662 14.974 10.8211 14.3711 10.8211C13.9315 10.8211 13.5668 10.7478 13.2771 10.6013C12.9873 10.4548 12.7542 10.2782 12.5777 10.0718C12.4045 9.86195 12.2696 9.66378 12.1731 9.47728H12.0981V13.5637H10.2897ZM12.0632 6.84957C12.0632 7.3458 12.1331 7.78043 12.273 8.15343C12.4162 8.52644 12.621 8.81785 12.8874 9.02767C13.1572 9.23416 13.4836 9.3374 13.8666 9.3374C14.2662 9.3374 14.6009 9.23083 14.8707 9.01768C15.1405 8.8012 15.3436 8.50646 15.4802 8.13345C15.6201 7.75711 15.69 7.32915 15.69 6.84957C15.69 6.37332 15.6217 5.95035 15.4852 5.58067C15.3486 5.211 15.1455 4.92125 14.8757 4.71143C14.6059 4.50161 14.2696 4.39671 13.8666 4.39671C13.4803 4.39671 13.1522 4.49828 12.8824 4.70144C12.6127 4.9046 12.4079 5.18935 12.268 5.5557C12.1314 5.92204 12.0632 6.35333 12.0632 6.84957ZM22.4291 10.8361C21.6798 10.8361 21.0303 10.6712 20.4808 10.3415C19.9313 10.0118 19.505 9.55055 19.2019 8.95773C18.9022 8.36492 18.7523 7.67219 18.7523 6.87954C18.7523 6.0869 18.9022 5.3925 19.2019 4.79636C19.505 4.20021 19.9313 3.73728 20.4808 3.40757C21.0303 3.07785 21.6798 2.913 22.4291 2.913C23.1785 2.913 23.8279 3.07785 24.3774 3.40757C24.9269 3.73728 25.3516 4.20021 25.6513 4.79636C25.9544 5.3925 26.1059 6.0869 26.1059 6.87954C26.1059 7.67219 25.9544 8.36492 25.6513 8.95773C25.3516 9.55055 24.9269 10.0118 24.3774 10.3415C23.8279 10.6712 23.1785 10.8361 22.4291 10.8361ZM22.4391 9.38736C22.8454 9.38736 23.1851 9.27579 23.4582 9.05265C23.7313 8.82618 23.9345 8.52311 24.0677 8.14344C24.2042 7.76377 24.2725 7.34081 24.2725 6.87455C24.2725 6.40496 24.2042 5.98033 24.0677 5.60066C23.9345 5.21766 23.7313 4.91292 23.4582 4.68645C23.1851 4.45998 22.8454 4.34675 22.4391 4.34675C22.0228 4.34675 21.6764 4.45998 21.4 4.68645C21.1269 4.91292 20.9221 5.21766 20.7856 5.60066C20.6523 5.98033 20.5857 6.40496 20.5857 6.87455C20.5857 7.34081 20.6523 7.76377 20.7856 8.14344C20.9221 8.52311 21.1269 8.82618 21.4 9.05265C21.6764 9.27579 22.0228 9.38736 22.4391 9.38736ZM27.6408 10.6862V3.01291H30.863C31.7722 3.01291 32.4899 3.19442 33.0162 3.55744C33.5457 3.92045 33.8105 4.42668 33.8105 5.07611C33.8105 5.50574 33.6606 5.8571 33.3609 6.1302C33.0644 6.39996 32.6598 6.58147 32.1469 6.67472C32.5499 6.70803 32.9029 6.8096 33.206 6.97946C33.5124 7.14931 33.7522 7.37245 33.9254 7.64887C34.0985 7.9253 34.1851 8.24336 34.1851 8.60304C34.1851 9.02601 34.0736 9.39402 33.8504 9.70708C33.6306 10.0168 33.3092 10.2583 32.8863 10.4314C32.4666 10.6013 31.9571 10.6862 31.3576 10.6862H27.6408ZM29.3344 9.26247H31.3576C31.6906 9.26247 31.9521 9.1842 32.1419 9.02767C32.3317 8.86781 32.4267 8.65133 32.4267 8.37824C32.4267 8.06185 32.3317 7.81373 32.1419 7.63389C31.9521 7.45071 31.6906 7.35913 31.3576 7.35913H29.3344V9.26247ZM29.3344 6.19014H30.898C31.1444 6.19014 31.3559 6.15517 31.5324 6.08524C31.709 6.01197 31.8438 5.91039 31.9371 5.7805C32.0303 5.64728 32.077 5.48909 32.077 5.30591C32.077 5.04281 31.9687 4.83632 31.7523 4.68645C31.5391 4.53658 31.2427 4.46165 30.863 4.46165H29.3344V6.19014ZM39.0746 10.8361C38.3053 10.8361 37.6409 10.6762 37.0814 10.3565C36.5252 10.0335 36.0972 9.57719 35.7975 8.98771C35.4977 8.39489 35.3479 7.69716 35.3479 6.89453C35.3479 6.10522 35.4977 5.41249 35.7975 4.81634C36.1005 4.21686 36.5235 3.7506 37.0664 3.41756C37.6092 3.08119 38.247 2.913 38.9797 2.913C39.4526 2.913 39.8989 2.9896 40.3185 3.1428C40.7415 3.29267 41.1145 3.5258 41.4376 3.84219C41.7639 4.15858 42.0204 4.56156 42.2069 5.05114C42.3934 5.53738 42.4867 6.11687 42.4867 6.78962V7.34414H36.1971V6.1252H40.7532C40.7498 5.77884 40.6749 5.47077 40.5284 5.20101C40.3818 4.92791 40.177 4.7131 39.9139 4.55657C39.6541 4.40004 39.3511 4.32177 39.0047 4.32177C38.635 4.32177 38.3103 4.41169 38.0305 4.59154C37.7508 4.76805 37.5326 5.00118 37.3761 5.29093C37.2229 5.57734 37.1446 5.89207 37.1413 6.2351V7.29918C37.1413 7.74546 37.2229 8.12846 37.3861 8.44818C37.5493 8.76457 37.7774 9.00769 38.0705 9.17754C38.3636 9.34406 38.7066 9.42732 39.0996 9.42732C39.3627 9.42732 39.6008 9.39069 39.814 9.31742C40.0271 9.24082 40.212 9.12925 40.3685 8.98271C40.525 8.83617 40.6433 8.65466 40.7232 8.43819L42.4117 8.62802C42.3051 9.0743 42.102 9.46396 41.8022 9.797C41.5058 10.1267 41.1262 10.3832 40.6632 10.5663C40.2003 10.7462 39.6708 10.8361 39.0746 10.8361ZM44.0166 13.5637V3.01291H45.795V4.28181H45.8999C45.9932 4.0953 46.1247 3.89714 46.2946 3.68732C46.4644 3.47418 46.6942 3.29267 46.984 3.1428C47.2737 2.9896 47.6434 2.913 48.093 2.913C48.6858 2.913 49.2204 3.06453 49.6966 3.3676C50.1762 3.66734 50.5559 4.11195 50.8356 4.70144C51.1187 5.2876 51.2603 6.00697 51.2603 6.85956C51.2603 7.70216 51.122 8.4182 50.8456 9.00769C50.5692 9.59718 50.1929 10.0468 49.7166 10.3565C49.2404 10.6662 48.7008 10.8211 48.098 10.8211C47.6584 10.8211 47.2937 10.7478 47.004 10.6013C46.7142 10.4548 46.4811 10.2782 46.3046 10.0718C46.1314 9.86195 45.9965 9.66378 45.8999 9.47728H45.825V13.5637H44.0166ZM45.79 6.84957C45.79 7.3458 45.86 7.78043 45.9998 8.15343C46.1431 8.52644 46.3479 8.81785 46.6143 9.02767C46.8841 9.23416 47.2105 9.3374 47.5935 9.3374C47.9931 9.3374 48.3278 9.23083 48.5976 9.01768C48.8673 8.8012 49.0705 8.50646 49.207 8.13345C49.3469 7.75711 49.4169 7.32915 49.4169 6.84957C49.4169 6.37332 49.3486 5.95035 49.212 5.58067C49.0755 5.211 48.8723 4.92125 48.6026 4.71143C48.3328 4.50161 47.9964 4.39671 47.5935 4.39671C47.2071 4.39671 46.8791 4.49828 46.6093 4.70144C46.3395 4.9046 46.1347 5.18935 45.9948 5.5557C45.8583 5.92204 45.79 6.35333 45.79 6.84957ZM54.5524 8.23836L57.6247 3.01291H59.4831V10.6862H57.7346V5.45578L54.6723 10.6862H52.8089V3.01291H54.5524V8.23836ZM60.481 4.49662V3.01291H67.1951V4.49662H64.7123V10.6862H62.9638V4.49662H60.481ZM69.8591 5.51074H72.1221C73.1012 5.51074 73.8589 5.74886 74.3951 6.22511C74.9313 6.70136 75.2011 7.32582 75.2044 8.09848C75.2011 8.60138 75.0778 9.04765 74.8347 9.43732C74.5949 9.82698 74.2452 10.1334 73.7856 10.3565C73.3294 10.5763 72.7749 10.6862 72.1221 10.6862H68.6351V3.01291H70.3786V9.20252H72.1221C72.5151 9.20252 72.8381 9.10261 73.0912 8.90278C73.3444 8.69962 73.4709 8.43985 73.4709 8.12346C73.4709 7.79042 73.3444 7.51899 73.0912 7.30917C72.8381 7.09935 72.5151 6.99444 72.1221 6.99444H69.8591V5.51074ZM80.2438 10.6862V3.01291H86.7231V10.6862H84.9796V4.49662H81.9723V10.6862H80.2438ZM88.0532 10.6862L88.0432 9.19752H88.308C88.5078 9.19752 88.676 9.15256 88.8126 9.06264C88.9491 8.97272 89.0623 8.82285 89.1523 8.61303C89.2422 8.39989 89.3121 8.11347 89.3621 7.75378C89.412 7.39409 89.447 6.94615 89.467 6.40995L89.6019 3.01291H95.197V10.6862H93.4485V4.49662H91.2454L91.1255 6.96946C91.0956 7.60891 91.024 8.16342 90.9107 8.63302C90.8008 9.09928 90.6443 9.48394 90.4411 9.78701C90.2413 10.0901 89.9899 10.3165 89.6868 10.4664C89.3837 10.613 89.0257 10.6862 88.6127 10.6862H88.0532ZM99.226 10.8411C98.7397 10.8411 98.3018 10.7545 97.9121 10.5813C97.5258 10.4048 97.2194 10.145 96.9929 9.802C96.7698 9.45896 96.6582 9.036 96.6582 8.5331C96.6582 8.10015 96.7381 7.74213 96.898 7.45904C97.0579 7.17595 97.276 6.94948 97.5524 6.77963C97.8289 6.60978 98.1403 6.48156 98.4866 6.39497C98.8363 6.30504 99.1977 6.2401 99.5707 6.20013C100.02 6.15351 100.385 6.11188 100.665 6.07524C100.944 6.03528 101.148 5.97533 101.274 5.8954C101.404 5.81214 101.469 5.68392 101.469 5.51074V5.48076C101.469 5.10442 101.357 4.81301 101.134 4.60652C100.911 4.40004 100.59 4.29679 100.17 4.29679C99.7272 4.29679 99.3758 4.39338 99.1161 4.58654C98.8596 4.77971 98.6865 5.00784 98.5965 5.27094L96.908 5.03115C97.0412 4.56489 97.261 4.17523 97.5674 3.86217C97.8738 3.54578 98.2485 3.30932 98.6914 3.15279C99.1344 2.99293 99.624 2.913 100.16 2.913C100.53 2.913 100.898 2.95629 101.264 3.04289C101.631 3.12948 101.965 3.27268 102.268 3.47251C102.571 3.66901 102.815 3.93711 102.998 4.27681C103.184 4.61651 103.277 5.04114 103.277 5.5507V10.6862H101.539V9.63215H101.479C101.369 9.84529 101.214 10.0451 101.014 10.2316C100.818 10.4148 100.57 10.563 100.27 10.6762C99.9737 10.7861 99.6256 10.8411 99.226 10.8411ZM99.6956 9.51225C100.059 9.51225 100.373 9.44065 100.64 9.29744C100.906 9.1509 101.111 8.95773 101.254 8.71794C101.401 8.47815 101.474 8.21671 101.474 7.93363V7.02941C101.417 7.07604 101.321 7.11933 101.184 7.1593C101.051 7.19926 100.901 7.23423 100.735 7.26421C100.568 7.29418 100.403 7.32083 100.24 7.34414C100.077 7.36745 99.9354 7.38743 99.8155 7.40409C99.5457 7.44072 99.3042 7.50067 99.0911 7.58393C98.878 7.66719 98.7098 7.78376 98.5865 7.93363C98.4633 8.08016 98.4017 8.27 98.4017 8.50313C98.4017 8.83617 98.5233 9.08762 98.7664 9.25747C99.0095 9.42732 99.3192 9.51225 99.6956 9.51225ZM104.237 4.49662V3.01291H110.951V4.49662H108.468V10.6862H106.719V4.49662H104.237ZM115.472 10.8361C114.702 10.8361 114.038 10.6762 113.479 10.3565C112.922 10.0335 112.494 9.57719 112.195 8.98771C111.895 8.39489 111.745 7.69716 111.745 6.89453C111.745 6.10522 111.895 5.41249 112.195 4.81634C112.498 4.21686 112.921 3.7506 113.464 3.41756C114.006 3.08119 114.644 2.913 115.377 2.913C115.85 2.913 116.296 2.9896 116.716 3.1428C117.139 3.29267 117.512 3.5258 117.835 3.84219C118.161 4.15858 118.418 4.56156 118.604 5.05114C118.791 5.53738 118.884 6.11687 118.884 6.78962V7.34414H112.594V6.1252H117.15C117.147 5.77884 117.072 5.47077 116.926 5.20101C116.779 4.92791 116.574 4.7131 116.311 4.55657C116.051 4.40004 115.748 4.32177 115.402 4.32177C115.032 4.32177 114.707 4.41169 114.428 4.59154C114.148 4.76805 113.93 5.00118 113.773 5.29093C113.62 5.57734 113.542 5.89207 113.539 6.2351V7.29918C113.539 7.74546 113.62 8.12846 113.783 8.44818C113.946 8.76457 114.175 9.00769 114.468 9.17754C114.761 9.34406 115.104 9.42732 115.497 9.42732C115.76 9.42732 115.998 9.39069 116.211 9.31742C116.424 9.24082 116.609 9.12925 116.766 8.98271C116.922 8.83617 117.04 8.65466 117.12 8.43819L118.809 8.62802C118.702 9.0743 118.499 9.46396 118.199 9.797C117.903 10.1267 117.523 10.3832 117.06 10.5663C116.598 10.7462 116.068 10.8361 115.472 10.8361ZM113.833 1.88389C113.57 1.88389 113.342 1.79064 113.149 1.60414C112.959 1.41763 112.864 1.19783 112.864 0.944712C112.864 0.678278 112.959 0.455139 113.149 0.275296C113.342 0.0921222 113.57 0.000535324 113.833 0.000535324C114.103 0.000535324 114.329 0.0921222 114.513 0.275296C114.699 0.455139 114.792 0.678278 114.792 0.944712C114.792 1.19783 114.699 1.41763 114.513 1.60414C114.329 1.79064 114.103 1.88389 113.833 1.88389ZM116.831 1.88389C116.568 1.88389 116.339 1.79064 116.146 1.60414C115.956 1.41763 115.861 1.19783 115.861 0.944712C115.861 0.678278 115.956 0.455139 116.146 0.275296C116.339 0.0921222 116.568 0.000535324 116.831 0.000535324C117.1 0.000535324 117.327 0.0921222 117.51 0.275296C117.697 0.455139 117.79 0.678278 117.79 0.944712C117.79 1.19783 117.697 1.41763 117.51 1.60414C117.327 1.79064 117.1 1.88389 116.831 1.88389ZM119.749 10.6862L122.582 6.72468L119.774 3.01291H121.863L124.046 6.10522H124.475V3.01291H126.284V6.10522H126.703L128.886 3.01291H130.975L128.182 6.72468L131 10.6862H128.866L126.683 7.58893H126.284V10.6862H124.475V7.58893H124.076L121.882 10.6862H119.749Z" fill="white"/>
</svg>
