<svg width="19" height="19" viewBox="0 0 19 19" fill="none" xmlns="http://www.w3.org/2000/svg">
<path d="M9.5 0C14.7467 0 19 4.25329 19 9.5C19 14.7467 14.7467 19 9.5 19C4.25329 19 0 14.7467 0 9.5C0 4.25329 4.25329 0 9.5 0ZM13.3762 5.71089C13.0203 5.7188 12.4663 5.90882 9.8325 7.00823C8.90702 7.39582 7.06332 8.19475 4.29479 9.39708C3.85203 9.57897 3.61492 9.75352 3.5912 9.9275C3.55212 10.2594 4.02643 10.3622 4.61938 10.5519C5.1098 10.7101 5.75867 10.8924 6.0988 10.9003C6.40726 10.9081 6.74736 10.7813 7.12698 10.5203C9.71356 8.77215 11.0428 7.88598 11.1298 7.87016C11.1929 7.85441 11.2715 7.83904 11.3268 7.88599C11.3821 7.93345 11.3822 8.02851 11.3743 8.05224C11.3268 8.24991 8.90099 10.4633 8.75682 10.6073C8.21894 11.161 7.60969 11.5015 8.55099 12.1184C9.36548 12.6562 9.83245 12.9958 10.6707 13.5415C11.2007 13.8895 11.6201 14.3014 12.1739 14.254C12.4269 14.2301 12.6876 13.9926 12.822 13.2812C13.1384 11.6043 13.7553 7.95698 13.8977 6.45406C13.9134 6.32763 13.8977 6.16204 13.8819 6.08297C13.8661 6.00387 13.8422 5.90082 13.7473 5.82172C13.6288 5.72708 13.4554 5.71092 13.3762 5.71089Z" fill="#2881FF"/>
</svg>
