<svg width="32" height="32" viewBox="0 0 32 32" fill="none" xmlns="http://www.w3.org/2000/svg">
<path d="M16 1C24.2843 1 31 7.71573 31 16C31 24.2843 24.2843 31 16 31C7.71573 31 1 24.2843 1 16C1 7.71573 7.71573 1 16 1ZM22.1201 10.0176C21.5581 10.0301 20.6834 10.3294 16.5244 12.0654C15.0631 12.6774 12.1534 13.9395 7.78223 15.8379C7.08315 16.125 6.7077 16.3992 6.66992 16.6738C6.60747 17.1984 7.35723 17.3614 8.29395 17.6611C9.06829 17.9109 10.0928 18.1984 10.6299 18.2109C11.1168 18.2233 11.6537 18.0232 12.2529 17.6113C16.337 14.8511 18.4359 13.4517 18.5732 13.4268C18.673 13.4018 18.7975 13.3774 18.8848 13.4521C18.9719 13.5269 18.9723 13.6759 18.96 13.7139C18.8851 14.026 15.0538 17.5207 14.8262 17.748C13.9769 18.6223 13.0151 19.1597 14.501 20.1338C15.7874 20.9831 16.5247 21.5201 17.8486 22.3818C18.6854 22.9314 19.3474 23.5808 20.2217 23.5059C20.6213 23.4683 21.0338 23.0936 21.2461 21.9697C21.7457 19.3218 22.7195 13.5644 22.9443 11.1914C22.9693 10.9916 22.9439 10.7294 22.9189 10.6045C22.894 10.4796 22.8568 10.3173 22.707 10.1924C22.5198 10.0426 22.2451 10.0176 22.1201 10.0176Z" fill="white"/>
</svg>
