<svg width="20" height="20" viewBox="0 0 20 20" fill="none" xmlns="http://www.w3.org/2000/svg">
<g clip-path="url(#clip0_1079_20249)">
<path d="M10 0.625C15.1777 0.625 19.375 4.82233 19.375 10C19.375 15.1777 15.1777 19.375 10 19.375C4.82233 19.375 0.625 15.1777 0.625 10C0.625 4.82233 4.82233 0.625 10 0.625ZM13.8252 6.26074C13.4739 6.26855 12.9273 6.45607 10.3281 7.54102C9.41482 7.92351 7.59538 8.71193 4.86328 9.89844C4.42635 10.0779 4.19236 10.2502 4.16895 10.4219C4.13038 10.7494 4.59845 10.8508 5.18359 11.0381C5.66757 11.1942 6.3079 11.374 6.64355 11.3818C6.94795 11.3896 7.28358 11.2644 7.6582 11.0068C10.2107 9.28172 11.5225 8.40721 11.6084 8.3916C11.6706 8.37606 11.7482 8.36089 11.8027 8.40723C11.8574 8.45406 11.8574 8.54787 11.8496 8.57129C11.8028 8.76636 9.40888 10.9507 9.2666 11.0928C8.73579 11.6392 8.13456 11.9751 9.06348 12.584C9.86725 13.1146 10.3281 13.4498 11.1553 13.9883C11.6783 14.3317 12.0923 14.7382 12.6387 14.6914C12.8884 14.6679 13.1456 14.4335 13.2783 13.7314C13.5906 12.0766 14.1993 8.47728 14.3398 6.99414C14.3554 6.86938 14.3398 6.70596 14.3242 6.62793C14.3086 6.54987 14.2851 6.44818 14.1914 6.37012C14.0745 6.27673 13.9033 6.26078 13.8252 6.26074Z" fill="#2881FF"/>
</g>
<defs>
<clipPath id="clip0_1079_20249">
<rect width="20" height="20" fill="white"/>
</clipPath>
</defs>
</svg>
