<svg width="82" height="40" viewBox="0 0 82 40" fill="none" xmlns="http://www.w3.org/2000/svg">
<path d="M20.045 21.0515V21.0474C19.8741 21.0596 18.9916 21.1121 17.0278 21.1121C15.4576 21.1121 14.3565 21.0677 13.9669 21.0474V21.0515C7.92864 20.7805 3.42476 19.7127 3.42476 18.4305C3.42476 17.1523 7.93261 16.0805 13.9669 15.8095V19.9877C14.3605 20.016 15.4934 20.0848 17.0557 20.0848C18.9319 20.0848 19.8701 20.0039 20.045 19.9877V15.8135C26.0714 16.0886 30.5633 17.1564 30.5633 18.4345C30.5633 19.7127 26.0674 20.7805 20.045 21.0555M20.045 15.3807V11.6434H28.4525V5.94434H5.56341V11.6434H13.9709V15.3807C7.13758 15.7003 2.00165 17.0755 2.00165 18.7257C2.00165 20.376 7.14155 21.7512 13.9709 22.0748V34.0553H20.049V22.0748C26.8704 21.7553 31.9983 20.38 31.9983 18.7298C31.9983 17.0836 26.8704 15.7043 20.049 15.3848" fill="#4DAA90"/>
<path d="M32.8296 25.3011C32.2117 24.7589 31.3569 23.9308 30.6608 23.3436L30.6196 23.3162C30.5511 23.2639 30.4738 23.2229 30.391 23.1948C28.7124 22.8973 20.9001 21.5094 20.7477 21.527C20.705 21.5327 20.6642 21.5474 20.6283 21.5701L20.5891 21.5994C20.541 21.646 20.5044 21.7021 20.482 21.7639L20.4717 21.7893V21.9283V21.9498C21.3512 24.2773 24.8238 31.9018 25.5076 33.691C25.5488 33.8124 25.627 34.0434 25.7733 34.0551H25.8062C25.8845 34.0551 26.2181 33.6362 26.2181 33.6362C26.2181 33.6362 32.1829 26.7614 32.7863 26.0293C32.8645 25.9391 32.9334 25.8421 32.9923 25.7396C33.0073 25.6594 33.0002 25.5768 32.9717 25.5C32.9432 25.4231 32.8942 25.3546 32.8296 25.3011ZM27.7485 26.1017L30.2942 24.0953L31.7874 25.4029L27.7485 26.1017ZM26.7598 25.9706L22.3769 22.5567L29.4683 23.7997L26.7598 25.9706ZM27.1553 26.8652L31.6412 26.1781L26.5127 32.0506L27.1553 26.8652ZM21.7817 22.8973L26.3932 26.6166L25.7259 32.0545L21.7817 22.8973Z" fill="#F70211"/>
<path d="M37.2285 17.793V16.2695H44.4004V17.793H41.7285V25H39.9062V17.793H37.2285ZM45.1914 25V16.2695H48.6309C49.291 16.2695 49.8535 16.3867 50.3184 16.6211C50.7871 16.8555 51.1445 17.1875 51.3906 17.6172C51.6406 18.043 51.7656 18.5449 51.7656 19.123C51.7656 19.7012 51.6406 20.1992 51.3906 20.6172C51.1406 21.0352 50.7773 21.3555 50.3008 21.5781C49.8281 21.7969 49.2559 21.9062 48.584 21.9062H46.2812V20.4238H48.2852C48.6406 20.4238 48.9336 20.375 49.1641 20.2773C49.3984 20.1797 49.5723 20.0352 49.6855 19.8438C49.8027 19.6523 49.8613 19.4121 49.8613 19.123C49.8613 18.8301 49.8027 18.5859 49.6855 18.3906C49.5723 18.1914 49.3984 18.041 49.1641 17.9395C48.9297 17.834 48.6348 17.7812 48.2793 17.7812H47.0312V25H45.1914ZM50.0371 25L47.9102 21.0273H49.9023L52.0762 25H50.0371ZM56.5879 25.1172C55.8145 25.1172 55.1211 24.9414 54.5078 24.5898C53.8945 24.2383 53.4102 23.7285 53.0547 23.0605C52.6992 22.3926 52.5215 21.5859 52.5215 20.6406C52.5215 19.6875 52.6992 18.877 53.0547 18.209C53.4141 17.5371 53.9004 17.0273 54.5137 16.6797C55.1309 16.3281 55.8223 16.1523 56.5879 16.1523C57.0957 16.1523 57.5664 16.2246 58 16.3691C58.4336 16.5098 58.8164 16.7168 59.1484 16.9902C59.4844 17.2598 59.7578 17.5918 59.9688 17.9863C60.1797 18.377 60.3145 18.8242 60.373 19.3281H58.5098C58.4746 19.0898 58.4043 18.875 58.2988 18.6836C58.1973 18.4922 58.0625 18.3301 57.8945 18.1973C57.7305 18.0645 57.541 17.9629 57.3262 17.8926C57.1152 17.8184 56.8828 17.7812 56.6289 17.7812C56.1836 17.7812 55.791 17.8945 55.4512 18.1211C55.1152 18.3438 54.8535 18.668 54.666 19.0938C54.4824 19.5156 54.3906 20.0312 54.3906 20.6406C54.3906 21.2617 54.4844 21.7852 54.6719 22.2109C54.8594 22.6328 55.1211 22.9512 55.457 23.166C55.793 23.3809 56.1816 23.4883 56.623 23.4883C56.8691 23.4883 57.0977 23.4551 57.3086 23.3887C57.5195 23.3223 57.707 23.2266 57.8711 23.1016C58.0352 22.9766 58.1719 22.8242 58.2812 22.6445C58.3945 22.4609 58.4707 22.252 58.5098 22.0176H60.373C60.3262 22.4199 60.207 22.8066 60.0156 23.1777C59.8281 23.5488 59.5723 23.8809 59.248 24.1738C58.9238 24.4629 58.5391 24.6934 58.0938 24.8652C57.6484 25.0332 57.1465 25.1172 56.5879 25.1172ZM65.3594 20.6992V22.1406H61.375V20.6992H65.3594ZM66.2441 25V23.6758L69.3496 20.793C69.6152 20.5391 69.8379 20.3105 70.0176 20.1074C70.1973 19.9004 70.334 19.6992 70.4277 19.5039C70.5215 19.3047 70.5684 19.0898 70.5684 18.8594C70.5684 18.6016 70.5098 18.3809 70.3926 18.1973C70.2754 18.0137 70.1172 17.8711 69.918 17.7695C69.7188 17.668 69.4902 17.6172 69.2324 17.6172C68.9668 17.6172 68.7344 17.6719 68.5352 17.7812C68.3359 17.8867 68.1816 18.041 68.0723 18.2441C67.9668 18.4434 67.9141 18.6836 67.9141 18.9648H66.1562C66.1562 18.3906 66.2852 17.8945 66.543 17.4766C66.8047 17.0547 67.168 16.7285 67.6328 16.498C68.1016 16.2676 68.6406 16.1523 69.25 16.1523C69.8711 16.1523 70.4141 16.2637 70.8789 16.4863C71.3438 16.7051 71.7051 17.0098 71.9629 17.4004C72.2207 17.7871 72.3496 18.2344 72.3496 18.7422C72.3496 19.0703 72.2852 19.3945 72.1562 19.7148C72.0273 20.0312 71.7988 20.3867 71.4707 20.7812C71.1426 21.1719 70.6777 21.6387 70.0762 22.1816L68.7988 23.4297V23.4941H72.4668V25H66.2441ZM76.8379 25.1172C76.0957 25.1172 75.4609 24.9414 74.9336 24.5898C74.4102 24.2344 74.0078 23.7246 73.7266 23.0605C73.4492 22.3926 73.3105 21.5859 73.3105 20.6406C73.3105 19.6992 73.4512 18.8945 73.7324 18.2266C74.0137 17.5547 74.416 17.041 74.9395 16.6855C75.4668 16.3301 76.0996 16.1523 76.8379 16.1523C77.5801 16.1523 78.2129 16.3301 78.7363 16.6855C79.2637 17.041 79.666 17.5527 79.9434 18.2207C80.2246 18.8887 80.3652 19.6953 80.3652 20.6406C80.3652 21.5859 80.2266 22.3926 79.9492 23.0605C79.6719 23.7246 79.2695 24.2344 78.7422 24.5898C78.2188 24.9414 77.584 25.1172 76.8379 25.1172ZM76.8379 23.5938C77.1934 23.5938 77.4922 23.4805 77.7344 23.2539C77.9805 23.0234 78.166 22.6875 78.291 22.2461C78.4199 21.8047 78.4844 21.2695 78.4844 20.6406C78.4844 20.0078 78.4199 19.4707 78.291 19.0293C78.166 18.5879 77.9805 18.252 77.7344 18.0215C77.4922 17.7871 77.1934 17.6699 76.8379 17.6699C76.3105 17.6699 75.9043 17.9297 75.6191 18.4492C75.334 18.9648 75.1914 19.6953 75.1914 20.6406C75.1914 21.2695 75.2539 21.8047 75.3789 22.2461C75.5078 22.6875 75.6953 23.0234 75.9414 23.2539C76.1875 23.4805 76.4863 23.5938 76.8379 23.5938Z" fill="white"/>
</svg>
