<svg width="32" height="33" viewBox="0 0 32 33" fill="none" xmlns="http://www.w3.org/2000/svg">
<path d="M19.0454 17.5517V17.5477C18.8744 17.5598 17.9918 17.6124 16.0279 17.6124C14.4575 17.6124 13.3562 17.5679 12.9666 17.5477V17.5517C6.92766 17.2807 2.42327 16.2127 2.42327 14.9304C2.42327 13.6521 6.93163 12.5801 12.9666 12.3091V16.4878C13.3602 16.5161 14.4933 16.5849 16.0557 16.5849C17.9322 16.5849 18.8704 16.504 19.0454 16.4878V12.3132C25.0724 12.5882 29.5649 13.6562 29.5649 14.9345C29.5649 16.2127 25.0684 17.2807 19.0454 17.5557M19.0454 11.8803V8.14256H27.4538V2.44287H4.56216V8.14256H12.9706V11.8803C6.13651 12.1999 1 13.5753 1 15.2257C1 16.8762 6.14048 18.2515 12.9706 18.5751V30.557H19.0493V18.5751C25.8715 18.2556 31.0001 16.8802 31.0001 15.2298C31.0001 13.5834 25.8715 12.2039 19.0493 11.8844" fill="white"/>
</svg>
