<svg width="82" height="40" viewBox="0 0 82 40" fill="none" xmlns="http://www.w3.org/2000/svg">
<g clip-path="url(#clip0_1527_25017)">
<path d="M20.045 21.0515V21.0474C19.8741 21.0596 18.9916 21.1121 17.0278 21.1121C15.4576 21.1121 14.3565 21.0677 13.9669 21.0474V21.0515C7.92864 20.7805 3.42476 19.7127 3.42476 18.4305C3.42476 17.1523 7.93261 16.0805 13.9669 15.8095V19.9877C14.3605 20.016 15.4934 20.0848 17.0557 20.0848C18.9319 20.0848 19.8701 20.0039 20.045 19.9877V15.8135C26.0714 16.0886 30.5633 17.1564 30.5633 18.4345C30.5633 19.7127 26.0674 20.7805 20.045 21.0555M20.045 15.3807V11.6434H28.4525V5.94434H5.56341V11.6434H13.9709V15.3807C7.13758 15.7003 2.00165 17.0755 2.00165 18.7257C2.00165 20.376 7.14155 21.7512 13.9709 22.0748V34.0553H20.049V22.0748C26.8704 21.7553 31.9983 20.38 31.9983 18.7298C31.9983 17.0836 26.8704 15.7043 20.049 15.3848" fill="#4DAA90"/>
<path d="M24.2546 26.0291L22.8074 24.582L26.6328 20.7568L30.4582 24.582L29.011 26.0291L26.6328 23.6509L24.2546 26.0291Z" fill="#EBB42E"/>
<path d="M25.2108 27.212L26.6328 25.7901L28.0547 27.212L26.6328 28.634L25.2108 27.212Z" fill="#EBB42E"/>
<path d="M23.2227 27.212L21.8007 25.7901L20.3788 27.212L21.8007 28.634L23.2227 27.212Z" fill="#EBB42E"/>
<path d="M31.5781 25.7901L30.1561 27.212L31.5781 28.634L33 27.212L31.5781 25.7901Z" fill="#EBB42E"/>
<path d="M26.6328 33.5038L22.8074 29.6784L24.2546 28.2313L26.6328 30.6095L29.011 28.2313L30.4582 29.6784L26.6328 33.5038Z" fill="#EBB42E"/>
</g>
<path d="M37.5625 25V16.2695H41.0547C41.6953 16.2695 42.2305 16.3652 42.6602 16.5566C43.0898 16.748 43.4121 17.0117 43.627 17.3477C43.8457 17.6836 43.9551 18.0703 43.9551 18.5078C43.9551 18.8477 43.8848 19.1465 43.7441 19.4043C43.6074 19.6621 43.4199 19.873 43.1816 20.0371C42.9473 20.2012 42.6777 20.3164 42.373 20.3828V20.4707C42.7051 20.4863 43.0176 20.5801 43.3105 20.752C43.6035 20.9238 43.8398 21.166 44.0195 21.4785C44.2031 21.7871 44.2949 22.1562 44.2949 22.5859C44.2949 23.0469 44.1797 23.4609 43.9492 23.8281C43.7227 24.1914 43.3867 24.4785 42.9414 24.6895C42.4961 24.8965 41.9453 25 41.2891 25H37.5625ZM39.4023 23.4941H40.9141C41.4258 23.4941 41.7988 23.3945 42.0332 23.1953C42.2715 22.9961 42.3906 22.7324 42.3906 22.4043C42.3906 22.1621 42.332 21.9492 42.2148 21.7656C42.1016 21.5781 41.9375 21.4316 41.7227 21.3262C41.5078 21.2207 41.252 21.168 40.9551 21.168H39.4023V23.4941ZM39.4023 19.9258H40.7734C41.0273 19.9258 41.252 19.8809 41.4473 19.791C41.6465 19.7012 41.8027 19.5742 41.916 19.4102C42.0293 19.2422 42.0859 19.043 42.0859 18.8125C42.0859 18.5 41.9746 18.248 41.752 18.0566C41.5332 17.8613 41.2188 17.7637 40.8086 17.7637H39.4023V19.9258ZM45.0977 25V16.2695H50.9805V17.793H46.9375V19.8438H50.6758V21.3379H46.9375V23.4766H50.9922V25H45.0977ZM52.0586 25V16.2695H55.498C56.1582 16.2695 56.7207 16.3965 57.1855 16.6504C57.6543 16.9004 58.0117 17.248 58.2578 17.6934C58.5078 18.1387 58.6328 18.6523 58.6328 19.2344C58.6328 19.8125 58.5078 20.3223 58.2578 20.7637C58.0078 21.2051 57.6445 21.5508 57.168 21.8008C56.6953 22.0469 56.123 22.1699 55.4512 22.1699H53.2598V20.6934H55.1523C55.5078 20.6934 55.8008 20.6309 56.0312 20.5059C56.2656 20.3809 56.4395 20.209 56.5527 19.9902C56.6699 19.7715 56.7285 19.5195 56.7285 19.2344C56.7285 18.9414 56.6699 18.6875 56.5527 18.4727C56.4395 18.2539 56.2656 18.084 56.0312 17.9629C55.7969 17.8418 55.502 17.7812 55.1465 17.7812H53.8984V25H52.0586ZM63.2617 20.6992V22.1406H59.2773V20.6992H63.2617ZM64.1465 25V23.6758L67.252 20.793C67.5176 20.5391 67.7402 20.3105 67.9199 20.1074C68.0996 19.9004 68.2363 19.6992 68.3301 19.5039C68.4238 19.3047 68.4707 19.0898 68.4707 18.8594C68.4707 18.6016 68.4121 18.3809 68.2949 18.1973C68.1777 18.0137 68.0195 17.8711 67.8203 17.7695C67.6211 17.668 67.3926 17.6172 67.1348 17.6172C66.8691 17.6172 66.6367 17.6719 66.4375 17.7812C66.2383 17.8867 66.084 18.041 65.9746 18.2441C65.8691 18.4434 65.8164 18.6836 65.8164 18.9648H64.0586C64.0586 18.3906 64.1875 17.8945 64.4453 17.4766C64.707 17.0547 65.0703 16.7285 65.5352 16.498C66.0039 16.2676 66.543 16.1523 67.1523 16.1523C67.7734 16.1523 68.3164 16.2637 68.7812 16.4863C69.2461 16.7051 69.6074 17.0098 69.8652 17.4004C70.123 17.7871 70.252 18.2344 70.252 18.7422C70.252 19.0703 70.1875 19.3945 70.0586 19.7148C69.9297 20.0312 69.7012 20.3867 69.373 20.7812C69.0449 21.1719 68.5801 21.6387 67.9785 22.1816L66.7012 23.4297V23.4941H70.3691V25H64.1465ZM74.7402 25.1172C73.998 25.1172 73.3633 24.9414 72.8359 24.5898C72.3125 24.2344 71.9102 23.7246 71.6289 23.0605C71.3516 22.3926 71.2129 21.5859 71.2129 20.6406C71.2129 19.6992 71.3535 18.8945 71.6348 18.2266C71.916 17.5547 72.3184 17.041 72.8418 16.6855C73.3691 16.3301 74.002 16.1523 74.7402 16.1523C75.4824 16.1523 76.1152 16.3301 76.6387 16.6855C77.166 17.041 77.5684 17.5527 77.8457 18.2207C78.127 18.8887 78.2676 19.6953 78.2676 20.6406C78.2676 21.5859 78.1289 22.3926 77.8516 23.0605C77.5742 23.7246 77.1719 24.2344 76.6445 24.5898C76.1211 24.9414 75.4863 25.1172 74.7402 25.1172ZM74.7402 23.5938C75.0957 23.5938 75.3945 23.4805 75.6367 23.2539C75.8828 23.0234 76.0684 22.6875 76.1934 22.2461C76.3223 21.8047 76.3867 21.2695 76.3867 20.6406C76.3867 20.0078 76.3223 19.4707 76.1934 19.0293C76.0684 18.5879 75.8828 18.252 75.6367 18.0215C75.3945 17.7871 75.0957 17.6699 74.7402 17.6699C74.2129 17.6699 73.8066 17.9297 73.5215 18.4492C73.2363 18.9648 73.0938 19.6953 73.0938 20.6406C73.0938 21.2695 73.1562 21.8047 73.2812 22.2461C73.4102 22.6875 73.5977 23.0234 73.8438 23.2539C74.0898 23.4805 74.3887 23.5938 74.7402 23.5938Z" fill="white"/>
<defs>
<clipPath id="clip0_1527_25017">
<rect width="32" height="32" fill="white" transform="translate(1 4)"/>
</clipPath>
</defs>
</svg>
