<svg width="168" height="49" viewBox="0 0 168 49" fill="none" xmlns="http://www.w3.org/2000/svg">
<rect x="0.5" y="0.5" width="167" height="48" rx="15.5" fill="#1A1A1F"/>
<rect x="0.5" y="0.5" width="167" height="48" rx="15.5" stroke="#222229"/>
<g style="mix-blend-mode:luminosity">
<path d="M18.5216 11.0203C18.5216 10.6975 18.6738 10.4671 18.8867 10.4671C19.0033 10.4671 20.7386 10.4772 22.3188 10.4855C22.4797 10.4862 22.6466 10.6659 22.8028 10.6663C22.887 10.6669 22.9343 10.5204 23.0159 10.5208C23.0707 10.521 23.1755 10.7358 23.3125 10.6589C23.4111 10.6036 23.3953 10.4912 23.5916 10.4923C24.3313 10.4973 24.862 10.4982 24.9196 10.4973C25.1414 10.4937 25.3162 10.5053 25.4976 10.6924C25.6739 10.8743 26.6227 11.8297 26.7244 11.9425C26.8256 12.0551 26.9574 12.1471 26.9574 11.9425C26.9574 11.7374 26.9586 10.9651 26.9586 10.8316C26.9586 10.6395 27.0382 10.4867 27.1805 10.4867C27.3223 10.4867 31.5098 10.4971 31.6822 10.4971C31.8937 10.4971 32.0697 10.5486 32.2624 10.7127C32.4551 10.8764 34.8087 13.1143 34.92 13.2372C35.0316 13.36 35.2509 13.4795 35.2509 13.2719C35.2509 13.0668 35.2322 10.9584 35.2306 10.8352C35.228 10.6085 35.4233 10.4866 35.5958 10.4866C35.7683 10.4866 38.774 10.4933 38.9772 10.4933C39.2279 10.4933 39.3371 10.4969 39.4993 10.6407C39.6616 10.7842 42.7847 13.9919 42.9163 14.1355C43.0481 14.2786 43.1796 14.34 43.1898 14.1758C43.2 14.0118 43.2049 10.9351 43.2049 10.7811C43.2049 10.6277 43.2303 10.4968 43.3622 10.4968C43.494 10.4968 46.8444 10.5002 46.9765 10.4968C47.1249 10.4932 47.2806 10.5086 47.3772 10.6097C47.4968 10.7353 48.4825 11.7164 48.6042 11.8397C48.726 11.9624 48.9299 12.025 48.9288 11.8085C48.9272 11.5842 48.9312 10.8634 48.9312 10.7503C48.9312 10.6378 48.9424 10.478 49.1173 10.4814C49.2593 10.4847 52.5203 10.4968 52.7028 10.4968C52.8852 10.4968 53.0537 10.5202 53.1856 10.6427C53.3173 10.766 59.7648 16.95 59.9343 17.1071C60.0715 17.234 60.2689 17.4297 60.2689 17.1263C60.2689 17.0172 60.2559 15.6985 60.2676 14.2942C60.2689 14.0863 60.9533 14.2942 60.9533 14.0404C60.9533 13.5403 60.8316 13.8402 60.8316 13.5944C60.8316 13.4262 60.8699 13.3254 60.6873 13.0179C60.5738 12.8269 60.2662 12.6626 60.2662 12.4571L60.2653 10.8045C60.2653 10.6506 60.2948 10.4863 60.4872 10.4863C60.6058 10.4863 62.3394 10.4871 63.6986 10.4871C63.768 10.4871 63.8516 10.5431 63.9192 10.5431C63.9862 10.5431 64.0369 10.4871 64.1016 10.4871C64.7647 10.4871 65.268 10.4871 65.3235 10.4863C65.5731 10.4851 65.6682 10.5275 65.7896 10.661C65.9113 10.7942 67.1179 12.0342 67.2092 12.1368C67.3008 12.2389 67.5235 12.4298 67.5235 12.2185C67.5241 11.1656 68.5423 10.4703 69.2472 10.4765C69.6221 10.4801 73.3024 10.4936 73.5155 10.4968C73.7587 10.5012 73.8399 10.4865 74.0022 10.6405C74.1644 10.7942 76.9007 13.3254 77.0474 13.4636C77.2186 13.625 77.3403 13.6903 77.3366 13.4521C77.3339 13.2881 77.3366 10.9717 77.3264 10.8081C77.3162 10.6438 77.348 10.4825 77.5001 10.4928C77.6024 10.4994 79.8902 10.4941 81.4469 10.4899C81.5355 10.4896 81.66 10.5507 81.7434 10.5507C81.8303 10.55 81.8763 10.489 81.9562 10.4884C82.4577 10.487 82.8104 10.4859 82.8637 10.4859C84.0056 10.4888 85.5258 12.1411 85.7331 12.7411C85.785 12.8906 86.089 12.9868 86.0879 12.7203C86.0875 12.5754 86.0575 10.9474 86.0575 10.7629C86.0575 10.5781 86.0993 10.4886 86.2832 10.4847C86.3821 10.483 87.799 10.4838 89.2181 10.4845C89.5033 10.4847 89.9327 10.6652 90.2066 10.6652C90.6533 10.6659 90.9246 10.7097 91.2632 10.6501C91.4385 10.6197 91.5797 10.4859 91.7049 10.4861L92.161 10.4859C92.3774 10.4847 92.431 10.4877 92.5827 10.6309C92.735 10.7744 93.9135 11.9263 94.035 12.0487C94.1567 12.1721 94.3163 12.3063 94.3096 12.1153C94.3038 11.9102 94.3129 10.9264 94.3129 10.7539C94.3129 10.5883 94.3608 10.4551 94.5636 10.4551C94.6609 10.4551 95.8404 10.4634 97.0653 10.4715C97.2046 10.4724 97.3597 10.5415 97.4988 10.5425C97.6165 10.5431 97.7181 10.4756 97.8339 10.4763C97.9054 10.4771 97.9762 10.4772 98.0466 10.478C98.1551 10.4786 98.2698 10.7942 98.3734 10.8034C98.7082 10.834 98.4945 10.6667 98.6547 10.6726C98.8522 10.6806 98.6023 10.7991 98.9359 10.8109C99.1492 10.8187 98.8445 10.4863 99.0729 10.4843C99.5292 10.4805 99.8336 10.4887 99.8909 10.4884C100.921 10.4804 103.074 12.8407 103.476 13.4374C103.704 13.7754 103.79 13.7038 103.79 13.5504C103.79 13.3965 103.8 10.8857 103.8 10.7421C103.8 10.5986 103.881 10.5063 104.023 10.5063C104.097 10.5063 105.202 10.5034 106.289 10.5012C106.487 10.5005 106.7 10.8036 106.89 10.8036C107.178 10.8036 106.965 10.6546 107.186 10.6574C107.438 10.6608 107.715 10.6574 107.909 10.6574C108.16 10.6574 107.894 10.4959 108.144 10.4968C108.299 10.4968 108.402 10.4959 108.433 10.4959C108.666 10.4959 108.898 10.5239 109.133 10.7469C109.382 10.9827 110.33 11.9799 110.461 12.1614C110.654 12.4278 110.833 12.5406 110.826 12.2946C110.801 11.321 111.551 10.4804 112.139 10.4804C112.727 10.4804 116.173 10.4706 116.509 10.4753C116.864 10.4804 117.274 10.6395 117.508 10.8236C117.711 10.9848 119.711 13.0111 119.951 13.273C120.144 13.4834 120.194 13.4269 120.204 13.273C120.215 13.1195 120.228 12.2689 120.225 12.1254C120.21 11.4694 120.848 10.4956 121.573 10.4956H122.797C123.141 10.4956 123.307 10.6726 124.113 10.6804C124.235 10.6815 124.144 10.4956 124.265 10.4956H126.237C126.465 10.4956 126.612 10.5161 126.845 10.7114C126.903 10.7592 127.235 11.0828 127.704 11.5461C127.817 11.6569 127.721 12.0085 127.847 12.1328C127.948 12.233 128.269 12.1045 128.377 12.212C128.567 12.3996 128.765 12.5972 128.967 12.7984C129.045 12.8756 128.865 13.1473 128.873 13.3242C128.88 13.4782 128.858 13.6699 129.33 13.6316C129.602 13.6093 129.765 13.5929 129.883 13.7102C130.944 14.7688 131.901 15.7302 132.017 15.8553C132.209 16.0657 132.341 16.0912 132.341 15.8861C132.341 15.6906 132.347 12.3502 132.346 12.1043C132.341 11.0798 133.334 10.47 133.983 10.4798C134.248 10.4842 135.17 10.4871 136.188 10.4881C136.354 10.4883 136.651 10.5025 136.782 10.6032C136.942 10.7259 137.266 10.6643 137.618 10.6643C137.763 10.6643 137.583 10.8604 137.983 10.803C138.089 10.7877 137.8 10.4952 138.059 10.4899C138.827 10.4734 139.419 10.4902 139.509 10.4902C139.772 10.4902 139.894 10.4597 140.057 10.6643C140.125 10.7514 141.746 12.6056 143.604 14.7281C143.717 14.8565 143.519 15.2924 143.633 15.4226C143.71 15.5104 143.907 15.5053 143.952 15.6144C143.991 15.7069 143.906 15.9737 143.975 16.0526C144.07 16.1598 144.381 16.1909 144.523 16.1909C144.706 16.1909 144.886 16.1923 144.996 16.3182C146.328 17.8379 147.66 19.3568 148.993 20.8748C149.11 21.0083 148.971 21.4917 148.987 21.5098C149.19 21.7351 149.496 21.4549 149.496 21.702C149.496 21.8174 149.494 22.8961 149.491 24.1229C149.491 24.3001 149.086 24.4878 149.085 24.6687C149.085 24.7686 149.135 24.7379 149.139 24.8376C149.155 25.2376 149.002 24.7994 149.025 25.4605C149.037 25.8213 149.481 25.622 149.488 25.9214C149.511 26.9409 149.485 27.7744 149.486 27.8919C149.487 27.9784 149.426 28.3145 149.291 28.5728C149.147 28.8499 147.479 32.0109 147.368 32.232C147.226 32.5109 147.093 32.7582 147.306 32.9772C147.519 33.1966 149.105 34.7427 149.271 34.9147C149.432 35.0822 149.451 35.1619 149.456 35.4091C149.461 35.6678 149.463 37.8253 149.463 38.071C149.463 38.317 149.415 38.545 149.172 38.545C149.065 38.545 147.612 38.5411 145.99 38.5367C145.77 38.5362 145.561 38.2204 145.337 38.2198C145.207 38.2193 145.078 38.4661 144.949 38.4656C144.839 38.4647 144.822 38.2273 144.713 38.2273C144.544 38.2266 144.27 38.5321 144.105 38.5317C142.687 38.5274 141.501 38.5245 141.405 38.5245C141.162 38.5245 140.959 38.4349 140.796 38.2376C140.638 38.0451 137.891 34.7709 137.75 34.6071C137.608 34.4432 137.531 34.4967 137.481 34.7199C137.41 35.0376 136.979 36.4109 136.153 36.4133C136.021 36.4142 135.478 36.4167 134.819 36.42C134.679 36.4207 134.571 36.1633 134.469 36.0061C134.34 35.8065 134.013 35.8827 133.801 36.1215C133.685 36.2508 133.494 36.4269 133.329 36.4273C132.626 36.4308 132.031 36.4335 131.882 36.4335C131.496 36.4335 131.438 36.4104 131.225 36.2287C130.928 35.9746 128.729 34.1916 128.424 33.9149C128.326 33.8253 128.278 33.7074 128.211 33.6535C128.074 33.5415 127.922 33.6423 127.915 33.8149C127.907 33.9998 128.053 34.0104 128.052 34.0995C128.044 34.9691 127.936 36.4766 126.551 36.4951C126.483 36.4962 126.393 36.4971 126.287 36.4979C126.2 36.4986 126.099 36.4993 125.991 36.4999C125.819 36.5008 125.686 36.1896 125.481 36.1903C125.339 36.1908 125.144 36.2747 124.994 36.2752C124.833 36.2757 124.669 36.2057 124.508 36.2057C124.159 36.2071 123.807 36.5076 123.527 36.5076C123.244 36.5076 123.019 36.5072 122.901 36.5057C122.856 36.5053 122.812 36.5053 122.766 36.5053C122.497 36.5057 122.251 36.2675 122.006 36.2055C121.839 36.1636 121.575 36.2385 121.451 36.1134C121.117 35.7753 117.851 32.4323 117.528 32.1093C117.091 31.6735 116.463 32.0664 116.899 32.4985C117.477 33.0724 117.989 33.4837 118.227 33.7383C118.481 34.0104 118.643 34.2098 118.648 34.6145C118.653 35.0157 118.643 35.7662 118.648 36.075C118.653 36.3926 118.648 36.5007 118.283 36.5007C117.918 36.5007 114.669 36.5058 114.273 36.5058C113.878 36.5058 113.938 36.4754 113.726 36.3209C113.513 36.1674 112.433 35.2092 112.2 35.0041C111.983 34.8141 111.733 34.8097 111.733 35.0351C111.733 35.2523 111.73 35.9724 111.723 36.2598C111.718 36.48 111.744 36.531 111.434 36.531C111.129 36.531 108.778 36.5163 108.626 36.5163C108.473 36.5163 108.388 36.5011 108.235 36.3575C108.086 36.2167 107.667 35.6809 107.546 35.5578C107.424 35.4352 107.262 35.3992 107.262 35.6041V36.1987C107.262 36.3831 107.221 36.5675 107.009 36.5675C106.796 36.5675 104.839 36.5624 104.535 36.5624C104.231 36.5624 104.063 36.4188 103.871 36.2341C103.693 36.0641 101.346 33.6776 101.255 33.5856C101.164 33.4931 100.864 33.3289 100.859 33.5959C100.856 33.7802 100.865 35.8913 100.859 36.1373C100.855 36.3608 100.875 36.5011 100.617 36.506C100.371 36.5109 98.1729 36.5109 97.9597 36.5109C97.7467 36.5109 97.6759 36.5328 97.392 36.2907C97.0981 36.0399 95.4 34.3795 95.2327 34.2002C95.0696 34.0253 94.837 33.7953 94.837 34.0771V35.968C94.837 36.2137 94.8422 36.4547 94.4976 36.4599C94.4553 36.4604 94.3862 36.4608 94.2971 36.4608C94.1477 36.4608 93.9872 36.0452 93.7572 36.0449C93.6287 36.044 93.4086 36.146 93.2704 36.1448C93.1566 36.1442 92.9588 36.1597 92.8445 36.2137C92.68 36.2917 92.6085 36.4535 92.4496 36.4527C92.1373 36.4509 91.8942 36.4496 91.8206 36.4496C91.5773 36.4496 91.4988 36.4481 91.3289 36.2806C91.1463 36.1012 90.7967 35.758 90.6341 35.6044C90.4855 35.4635 90.3251 35.3685 90.3251 35.584C90.3251 35.7993 90.3302 36.117 90.3302 36.2807C90.3302 36.4371 90.2997 36.5064 90.0871 36.5064C89.8741 36.5064 87.9072 36.5113 87.6335 36.5113C87.3581 36.5113 87.2938 36.5064 86.99 36.2605C86.6857 36.0149 85.3388 34.6417 85.2258 34.5385C85.0787 34.4052 84.8742 34.3593 84.8756 34.5944C84.8807 35.3944 84.1966 36.4856 83.6083 36.491C83.4309 36.4923 82.7518 36.4939 81.9634 36.4962C81.714 36.4966 81.5602 36.1135 81.1648 36.1221C80.8075 36.1297 80.8056 36.4983 80.6173 36.4983C80.5427 36.4987 80.4689 36.4987 80.3965 36.4992C80.2784 36.4992 80.3008 36.2194 80.1914 36.214C79.872 36.199 79.6962 36.4997 79.5451 36.5C79.1999 36.5005 78.9649 36.5012 78.9239 36.5012C78.7414 36.5012 78.7465 36.5371 78.4729 36.2908C78.1992 36.0452 74.2249 32.3031 74.0269 32.1303C73.8749 31.9965 73.6667 31.7193 73.662 32.0329C73.6599 32.1759 73.6605 33.2006 73.662 34.3534C73.662 34.4956 73.4241 34.5383 73.2564 34.6691C73.1502 34.7517 73.0119 34.8792 73.0054 35.0148C72.9905 35.3376 73.1575 35.1219 73.1575 35.3219C73.1575 35.5067 72.9905 35.3911 72.9978 35.7988C72.9997 35.8949 73.2564 35.8214 73.2564 36.1832C73.2564 36.3835 73.6646 36.372 73.6649 36.4901L73.667 37.8891C73.667 38.1346 73.6772 38.5348 73.3425 38.5348C72.9461 38.5348 71.1273 38.5196 70.884 38.5196C70.6407 38.5196 70.4428 38.4735 70.0777 38.1965C69.9407 38.0929 69.0332 37.203 67.9421 36.1207C67.7215 35.9017 67.9869 35.7442 67.4694 35.2603C67.0664 34.884 66.9904 35.0744 66.846 34.9298C66.7539 34.8383 66.7019 34.6372 66.6103 34.5457C66.4961 34.4321 66.3267 34.5132 66.2142 34.4008C65.3648 33.5529 64.5167 32.7035 63.67 31.8528C63.4848 31.6658 63.2542 31.5043 63.2542 31.7812C63.2542 32.058 63.2343 35.6758 63.2343 35.9823C63.2343 36.2901 63.2293 36.5103 62.9755 36.5103C62.7301 36.5103 61.1152 36.5158 60.892 36.5103C60.6769 36.506 60.588 36.5054 60.3751 36.352C60.162 36.1981 59.8224 35.7938 59.6756 35.6449C59.5379 35.5054 59.2499 35.3732 59.2499 35.7011V36.2545C59.2499 36.4698 59.2297 36.5105 59.0167 36.5105C58.8038 36.5105 57.942 36.5056 57.6985 36.5056C57.4555 36.5056 57.3089 36.4497 57.1105 36.2494C56.9076 36.0444 56.2741 35.4602 56.1272 35.3164C55.9869 35.1799 55.7824 34.994 55.7824 35.2089V36.0447C55.7824 36.3207 55.8329 36.5162 55.5392 36.5211C55.2637 36.526 53.7799 36.5211 53.5621 36.5211C53.3406 36.5211 53.2731 36.5366 53.0297 36.3521C52.7865 36.1673 51.8436 35.1942 51.6659 35.0247C51.5064 34.873 51.2199 34.7226 51.2199 34.9992V36.07C51.2199 36.2855 51.2097 36.5008 50.9666 36.5008C50.8734 36.5008 50.5514 36.5011 50.1785 36.5023C49.9785 36.5029 49.7791 36.0749 49.5778 36.0754C49.4085 36.076 49.0987 36.1373 48.9468 36.1753C48.871 36.1947 48.8934 36.368 48.9392 36.437C48.9815 36.5007 48.7529 36.506 48.7262 36.506C48.4777 36.506 48.4168 36.5621 48.1736 36.3473C47.9304 36.1319 46.9518 35.1687 46.7795 34.9994C46.622 34.8449 46.4144 34.7231 46.4144 34.9994V36.086C46.4144 36.4241 46.4702 36.5269 46.171 36.5215C45.8956 36.5168 43.9812 36.5266 43.6973 36.5215C43.4217 36.5168 43.3778 36.5779 43.1702 36.3781C42.9804 36.1955 42.5769 35.7372 42.3995 35.5532C42.2467 35.394 42.0293 35.2967 42.0293 35.5733C42.0293 35.8498 42.0346 36.0423 42.0396 36.26C42.0445 36.4802 41.9948 36.5132 41.7075 36.4828C41.563 36.4676 41.5935 36.2217 41.3349 36.2059C41.2115 36.1989 41.0483 36.3443 40.8712 36.3443C40.7397 36.3443 40.6724 36.5122 40.5208 36.5122H40.2476C40.153 36.5127 40.0868 36.3178 39.9892 36.3211C39.7914 36.3289 39.6912 36.5128 39.5563 36.5128C38.6325 36.5136 37.7116 36.5134 37.4774 36.5107C36.9905 36.5058 36.9604 36.5213 36.6662 36.2039C36.3709 35.8848 34.0907 33.5186 33.9085 33.3343C33.726 33.1495 33.4724 32.9399 33.4724 33.2469C33.4724 33.4936 33.4686 36.1426 33.4651 37.3821C33.4639 37.6869 33.0795 37.7334 33.0313 37.7355C32.8715 37.7433 32.8185 37.8431 32.7957 38.1813C32.7907 38.2572 32.8194 38.5425 32.5447 38.5426C31.8177 38.5429 30.7471 38.5387 30.5373 38.5348C30.4899 38.5339 30.4332 38.5354 30.3698 38.5311C30.1952 38.5193 30.1462 38.2503 29.8986 37.9656C29.8776 37.9414 29.4312 37.7524 29.298 37.6122C29.1155 37.4202 29.1458 37.9504 28.7339 37.5142C26.7177 35.3792 20.612 28.9976 20.4491 28.8243C20.2802 28.6448 20.1095 28.5326 20.1046 28.2042C20.1029 28.0869 20.103 26.276 20.1043 24.0616C20.1043 23.9423 20.3976 24.037 20.4011 23.9155C20.409 23.6544 20.1046 23.4198 20.1046 23.2779C20.1046 23.2089 20.1049 23.1398 20.1049 23.0701C20.1047 22.9398 20.5307 23.1008 20.5228 22.9623C20.5024 22.5939 20.1049 22.4465 20.1052 22.2094C20.107 19.0225 20.1097 15.732 20.1097 15.6044C20.1097 15.3586 20.1148 15.1026 19.9272 14.9131C19.759 14.7431 18.9691 13.965 18.7662 13.7547C18.5833 13.5652 18.5025 13.4986 18.5025 13.1554C18.5013 12.8482 18.5216 11.0203 18.5216 11.0203Z" fill="url(#paint0_linear_1193_15833)"/>
<g opacity="0.3">
<path d="M23.2402 31.1484C22.9076 31.1484 22.5696 30.9412 22.5647 30.478C22.5632 30.328 22.5644 28.2525 22.5668 25.1827C22.5675 24.8685 22.8625 24.8543 23.0576 24.8447C23.0723 24.844 23.0814 24.8427 23.0869 24.8415C23.0895 24.826 23.0897 24.7979 23.0897 24.7781C23.0899 24.707 23.0903 24.6095 23.1594 24.5324C23.2287 24.4545 23.3189 24.4501 23.3728 24.4473C23.3784 24.4471 23.384 24.4468 23.3897 24.4462C23.3987 24.3611 23.3734 24.1416 23.2473 24.0629C23.1997 24.0335 23.1159 24.0036 23.0349 23.9745C22.8228 23.8987 22.5826 23.8125 22.5761 23.6023C22.5681 23.3556 22.5687 23.0855 22.5694 22.8244C22.5696 22.7091 22.5699 22.596 22.5694 22.4881C22.5686 22.3361 22.6423 22.217 22.7017 22.1213C22.7236 22.0861 22.7564 22.033 22.7583 22.0139C22.7583 22.0003 22.7563 21.9962 22.7411 21.9717C22.7191 21.9362 22.686 21.883 22.686 21.7955C22.686 21.6537 22.8316 21.6248 22.9403 21.6092C22.9228 21.5947 22.9052 21.581 22.8908 21.5694C22.8531 21.5403 22.8165 21.5099 22.7808 21.4782L22.7718 21.4701C22.7021 21.4076 22.5724 21.2914 22.5703 21.0847C22.5484 19.0317 22.5647 17.3157 22.5707 16.6699C22.5719 16.5367 22.5728 16.4572 22.5724 16.4397C22.5688 16.1749 22.5381 16.1552 22.3477 16.1528C22.0729 16.1492 21.3379 16.1491 21.2548 16.1491C20.9559 16.1491 20.7627 15.9276 20.7627 15.5847C20.7627 15.5661 20.763 13.7266 20.7706 13.5486C20.7878 13.1455 21.0122 12.9147 21.4025 12.8987C21.5071 12.8944 22.3088 12.8922 23.7851 12.8922C25.0218 12.8922 26.4031 12.8938 27.0382 12.8944L27.3839 12.8947C27.6851 12.8947 28.0314 12.9629 28.0364 13.4934C28.0397 13.8405 28.0443 15.3695 28.0443 15.5847C28.0443 15.8974 27.8394 16.1332 27.5677 16.1332C27.4541 16.1332 27.1812 16.1312 26.9185 16.1292C26.7298 16.1276 26.541 16.1265 26.3522 16.1258C26.177 16.1258 26.1329 16.1481 26.1329 16.3157L26.1348 22.8123L26.137 30.3857C26.137 30.6093 26.137 31.132 25.5377 31.1321L25.526 31.132C25.4747 31.1315 25.3995 31.1311 25.3075 31.1311C24.7088 31.1311 23.4675 31.1411 23.2642 31.1477L23.2402 31.1484ZM30.073 29.2196C29.7234 29.2196 29.5448 29.0311 29.5112 28.6265C29.5029 28.5252 29.4988 27.5319 29.4988 25.6738C29.4988 25.597 29.5519 25.3731 29.7143 25.3687C29.7331 25.3687 29.75 25.3711 29.7652 25.3752C29.7646 25.3406 29.7617 25.3061 29.7565 25.2719C29.7477 25.2517 29.69 25.1783 29.6691 25.1616C29.6603 25.1548 29.6514 25.1482 29.6421 25.1419C29.5887 25.1036 29.4991 25.0397 29.4991 24.9131C29.5012 20.5776 29.5201 13.8141 29.5227 13.6044C29.5277 13.2122 29.8241 12.9236 30.2274 12.9181C30.4347 12.9155 32.2864 12.9188 33.3987 12.9208L34.2085 12.922C34.6222 12.922 34.7742 13.2004 34.7788 13.4609C34.7828 13.6808 34.7897 14.7696 34.7867 14.9626C34.7815 15.2864 34.524 15.5583 34.2128 15.5688L34.1714 15.5702C34.1359 15.5718 34.0927 15.5737 34.0438 15.5737L34.0252 15.5735C33.9068 15.5717 33.846 15.4621 33.8017 15.3821C33.7884 15.3568 33.7736 15.3323 33.7573 15.3089C33.7499 15.3083 33.7424 15.3081 33.7349 15.3081C33.7023 15.3081 33.6821 15.3135 33.6731 15.3172C33.6692 15.3278 33.6654 15.339 33.6616 15.3502C33.6339 15.4311 33.5825 15.5817 33.4204 15.5843C33.2433 15.5865 33.0863 15.5885 33.0045 15.5885C32.8683 15.5885 32.7931 15.7719 32.7931 15.8987C32.7931 16.0532 32.7948 18.3367 32.7989 18.5274C32.8036 18.7479 33.0506 18.7542 33.0788 18.7542C33.1736 18.7542 33.3747 18.7579 33.5916 18.7622C33.8384 18.7669 34.1182 18.7722 34.2689 18.7722C34.583 18.7722 34.7809 18.9653 34.7981 19.2885C34.8107 19.5208 34.7968 20.7599 34.7866 21.0131C34.7727 21.3671 34.4511 21.6412 34.1732 21.6494C33.9938 21.6548 33.4393 21.6555 33.0378 21.6555C32.9466 21.6555 32.9149 21.6878 32.9044 21.6985C32.8357 21.7686 32.8273 21.9401 32.8286 22.1151L32.8295 22.2066C32.8404 23.2837 32.835 24.1761 32.8134 24.8592C32.8084 25.019 32.676 25.0848 32.6048 25.1203L32.5844 25.1307C32.5817 25.1758 32.587 25.2741 32.5954 25.3164C32.5969 25.323 32.5983 25.3257 32.5983 25.3257C32.5995 25.3256 32.6166 25.3297 32.6279 25.3326C32.6719 25.3446 32.8057 25.3808 32.8054 25.5397C32.8042 25.9031 32.8088 26.2513 32.811 26.3136C32.8161 26.4768 32.8552 26.5144 33.0204 26.5144C33.2172 26.5144 33.9669 26.5155 34.1907 26.5179C34.5327 26.5228 34.7714 26.8072 34.7714 27.2094C34.7714 27.4302 34.7677 28.3929 34.7636 28.6458C34.7585 28.9952 34.567 29.2122 34.2638 29.2122C34.1579 29.2122 33.2338 29.2141 32.2791 29.2159C31.2581 29.2175 30.2021 29.2196 30.073 29.2196ZM36.6401 29.3384C36.4708 29.3384 36.2821 29.3211 36.168 29.1921C36.0896 29.1035 36.0602 28.9816 36.0782 28.8192C36.0922 28.695 37.8734 13.9388 37.9047 13.7401C37.9507 13.4532 38.1619 13.0222 38.5554 13.0095C38.6511 13.0076 38.7469 13.0069 38.8427 13.0074C39.4492 13.0074 40.7801 13.019 40.9882 13.0213C41.4396 13.026 41.6808 13.2518 41.7701 13.7533C41.8051 13.9475 42.5285 19.1487 43.1097 23.3278C43.4835 26.0155 43.8063 28.3366 43.8309 28.4979C43.8791 28.815 43.8852 29.0568 43.7576 29.2071C43.6857 29.2918 43.5807 29.3346 43.4457 29.3346H43.4455C43.1456 29.3346 41.6361 29.3152 41.3582 29.3068C40.9009 29.293 40.6635 29.0863 40.6528 28.692C40.6503 28.6032 40.652 28.3702 40.6541 28.0756C40.6581 27.5342 40.6636 26.7928 40.6436 26.6025C40.6108 26.2896 40.5649 26.1421 40.2868 26.1421C40.1529 26.1421 40.0045 26.1433 39.8668 26.1444C39.7471 26.1454 39.6353 26.1462 39.5482 26.1462C39.3002 26.1462 39.2662 26.268 39.2662 26.3995C39.2662 26.5727 39.2557 27.132 39.2464 27.6257C39.2385 28.0391 39.2312 28.4294 39.2312 28.529C39.2312 29.1573 38.889 29.2857 38.685 29.3061C38.4076 29.3344 37.2848 29.3384 36.6401 29.3384ZM39.9121 19.4291C39.8505 19.8614 39.5487 22.6127 39.5362 22.7922C39.5242 22.9563 39.5796 23.0429 39.7102 23.0645C39.8614 23.09 39.9969 23.0817 40.1626 23.0376C40.2251 23.0212 40.2595 23.012 40.24 22.7634C40.2329 22.6719 40.1886 22.1271 40.1349 21.4942C40.1178 21.2895 40.3359 21.2395 40.4662 21.2096L40.4863 21.2049C40.4564 21.1837 40.4246 21.1624 40.3999 21.1456C40.2719 21.0591 40.1916 21.0031 40.1526 20.943C40.0717 20.8187 40.065 20.7391 40.0566 20.6386L40.0532 20.5997C39.972 19.7613 39.9306 19.506 39.9121 19.4291ZM90.1294 29.329C89.7965 29.329 89.4585 29.1218 89.4539 28.6585C89.4521 28.4602 89.4552 25.3075 89.4581 22.2588C89.4609 19.4654 89.4635 16.8269 89.462 16.7068C89.4585 16.4429 89.4276 16.4232 89.237 16.4205C88.9557 16.4166 88.5449 16.4163 88.4256 16.4163C88.1059 16.4163 87.9332 16.0766 87.9332 15.7569C87.9332 15.5142 87.9517 13.7969 87.9581 13.6338C87.9743 13.2306 88.1983 12.9996 88.589 12.9833C88.6668 12.98 89.0804 12.9792 89.6529 12.9778L89.8884 12.9772C90.0465 12.9772 90.0903 13.121 90.1067 13.175L90.1102 13.1869C90.1879 13.1959 90.2696 13.2105 90.3557 13.2258C90.5071 13.2527 90.6638 13.2807 90.8113 13.2807C90.8882 13.2807 90.9547 13.2731 91.0146 13.2577C91.0235 13.2502 91.0496 13.2019 91.065 13.1729C91.1065 13.0949 91.1695 12.9772 91.2987 12.9772C92.3158 12.9772 93.3412 12.9785 93.8251 12.979L94.1019 12.9793C94.4029 12.9793 94.7488 13.0475 94.7541 13.5786C94.7567 13.815 94.7516 14.6111 94.748 15.1923C94.7467 15.3806 94.7457 15.5689 94.745 15.7572C94.745 16.027 94.5793 16.4008 94.2683 16.4008C94.1545 16.4008 93.9318 16.3987 93.7178 16.3966C93.5204 16.3947 93.3304 16.3927 93.2402 16.3927C93.0652 16.3927 93.021 16.4153 93.021 16.5829L93.0223 19.877C93.0223 19.9769 92.9708 20.0595 92.9257 20.1324C92.8974 20.1777 92.8655 20.2291 92.8655 20.259C92.8655 20.2827 92.8865 20.3273 92.9051 20.3665C92.9352 20.4306 92.9695 20.5034 92.9695 20.5855C92.9695 20.6104 92.9798 20.6445 92.9906 20.6803C93.0056 20.7304 93.0227 20.7872 93.0227 20.851C93.023 21.4972 93.0214 22.1726 93.02 22.8436C93.017 24.1886 93.0139 25.4589 93.0246 26.4858C93.0255 26.5624 93.0043 26.6235 92.9617 26.667C92.9343 26.695 92.8845 26.7284 92.8034 26.7284C92.7539 26.7284 92.7064 26.7165 92.6642 26.7062C92.6476 26.7021 92.6227 26.6958 92.614 26.6953C92.577 26.698 92.4909 26.8 92.4909 26.8575C92.4967 26.8694 92.5455 26.8978 92.6438 26.8978C92.6748 26.8978 92.7057 26.8946 92.7286 26.889C92.8103 26.8693 92.885 26.8898 92.9386 26.9441C93.0272 27.0344 93.026 27.1904 93.0255 27.2655L93.0253 27.2768L93.0256 28.5669C93.0256 28.7902 93.0256 29.3134 92.4253 29.3134H92.4149C92.3633 29.3127 92.2878 29.3126 92.1958 29.3126C91.6052 29.3126 90.3643 29.3224 90.1528 29.3287L90.1294 29.329ZM106.063 29.2206C105.7 29.2206 105.499 29.0193 105.466 28.6224C105.434 28.2333 105.476 13.7308 105.478 13.6002C105.482 13.2164 105.801 12.9234 106.218 12.9185C106.425 12.9159 108.283 12.9192 109.394 12.9212L110.199 12.9224C110.545 12.9224 110.763 13.1288 110.77 13.4609C110.773 13.6765 110.78 14.7628 110.777 14.9627C110.772 15.2867 110.514 15.5586 110.203 15.5689C109.987 15.5757 109.216 15.5888 108.995 15.5888C108.859 15.5888 108.784 15.7723 108.784 15.8991C108.784 16.1008 108.785 18.34 108.789 18.5274C108.794 18.7481 109.041 18.7545 109.069 18.7545C109.164 18.7545 109.365 18.7582 109.582 18.7624C109.829 18.7672 110.109 18.7724 110.259 18.7724C110.573 18.7724 110.771 18.9654 110.789 19.2885C110.801 19.5154 110.787 20.7566 110.777 21.0132C110.763 21.3675 110.441 21.6413 110.163 21.6496C109.961 21.6556 109.259 21.6556 109.028 21.6556C108.937 21.6556 108.905 21.688 108.895 21.6987C108.826 21.7689 108.817 21.9404 108.819 22.1152C108.819 22.2231 108.816 22.7828 108.811 23.4915C108.805 24.6083 108.795 26.1376 108.801 26.3145C108.806 26.4772 108.845 26.5147 109.011 26.5147C109.225 26.5147 109.96 26.5159 110.18 26.5181C110.523 26.5232 110.761 26.8075 110.761 27.2097C110.761 27.4201 110.758 28.3898 110.754 28.6461C110.749 28.9955 110.557 29.2125 110.254 29.2125C110.148 29.2125 109.224 29.2145 108.269 29.2162C107.249 29.2183 106.193 29.2206 106.063 29.2206ZM65.6968 31.1683C65.5909 31.1683 65.0453 31.1673 64.4817 31.1664C63.8792 31.1652 63.2563 31.1642 63.1272 31.1642C62.7634 31.1642 62.5622 30.9629 62.5295 30.5663C62.5154 30.3966 62.5217 27.2782 62.5292 23.6674C62.5356 20.5056 62.5428 16.9218 62.5367 14.9981C62.536 14.8094 62.6597 14.7643 62.7126 14.7449L62.722 14.7416L62.7222 14.7375C62.7223 14.7351 62.7223 14.7326 62.7222 14.7301C62.7196 14.7295 62.7171 14.7288 62.7146 14.728C62.6666 14.7133 62.5398 14.6744 62.5378 14.5029C62.5343 14.1719 62.5352 13.861 62.5407 13.5786L62.5411 13.5525C62.5457 13.1621 62.8445 12.8756 63.2515 12.8711C63.4583 12.8685 65.3762 12.8718 66.5137 12.8736C66.9305 12.8744 67.2422 12.875 67.3261 12.875C67.6716 12.875 67.8903 13.0812 67.8966 13.4132C67.9001 13.6293 67.9073 15.0985 67.9043 15.2948C67.8992 15.6187 67.6416 15.8907 67.3301 15.9005C67.1196 15.9077 66.6297 15.9204 66.4035 15.9204C66.2673 15.9204 66.1918 16.1042 66.1918 16.2311C66.1918 16.4147 66.1938 19.2398 66.1977 19.4284C66.2004 19.5583 66.2946 19.6244 66.4776 19.6244C66.5714 19.6244 66.6976 19.6216 66.8335 19.6188C66.9966 19.6148 67.1598 19.6124 67.3229 19.6117C67.6372 19.6117 67.835 19.8047 67.8522 20.1282C67.8638 20.3485 67.851 21.8385 67.8406 22.1036C67.8267 22.4559 67.5278 22.7011 67.2574 22.7093C67.0657 22.715 66.7458 22.715 66.4364 22.715C66.3545 22.715 66.3168 22.7438 66.2954 22.7656C66.2284 22.8339 66.1951 22.9818 66.1965 23.2056C66.1976 23.3669 66.1936 23.592 66.1892 23.8528C66.1792 24.4322 66.1656 25.2257 66.1974 25.9099C66.2037 26.049 66.1401 26.1204 66.0977 26.1674C66.0646 26.2046 66.0522 26.2185 66.0536 26.2739L66.0539 26.283C66.1688 26.3333 66.1644 26.4678 66.1625 26.5294C66.1579 26.6753 66.0629 26.7454 65.9868 26.8019C65.918 26.8527 65.8469 26.9052 65.7955 27.0282C65.7737 27.0802 65.7764 27.1161 65.7802 27.1259C65.7818 27.126 65.7868 27.1271 65.7965 27.1271C65.8033 27.1267 65.8147 27.1247 65.8278 27.1228C65.8597 27.1181 65.8996 27.112 65.9417 27.112C66.023 27.112 66.0871 27.1356 66.1327 27.1816C66.1625 27.212 66.1978 27.2668 66.1973 27.3561C66.1896 29.0221 66.1969 30.5832 66.1969 30.5988C66.1911 30.9513 65.9995 31.1683 65.6968 31.1683ZM54.3517 29.1917C53.9268 29.1917 53.5002 29.19 53.267 29.1891L53.097 29.1884C52.88 29.1884 52.6611 29.0453 52.6611 28.7252V22.583C52.5514 23.1631 52.2549 24.8702 52.0292 26.1704C51.816 27.3983 51.6476 28.3684 51.6235 28.4745L51.6054 28.5564C51.5502 28.8109 51.4874 29.0995 51.197 29.0995C51.0884 29.0995 50.8677 29.098 50.6534 29.0966C50.4906 29.0952 50.3279 29.0943 50.1652 29.0939C49.9215 29.0939 49.7476 28.9405 49.6752 28.6619C49.6155 28.4325 48.5459 23.206 48.4095 22.5371C48.3903 23.2253 48.3787 28.129 48.3787 28.6122C48.3787 28.9207 48.242 29.0707 47.9609 29.0707C47.8963 29.0707 47.6932 29.0772 47.4359 29.0851C47.0087 29.0986 46.4238 29.117 46.1072 29.117C46.003 29.117 45.9359 29.115 45.8962 29.1109C45.5319 29.0747 45.5319 28.7665 45.5319 28.6184C45.5317 28.5426 45.5314 28.4668 45.531 28.391C45.506 23.3973 45.5047 19.2588 45.5274 16.7382C45.5293 16.542 45.7115 16.4991 45.799 16.4785C45.8089 16.476 45.8213 16.4732 45.8336 16.4701C45.7699 16.433 45.6519 16.3637 45.6584 16.2184C45.6651 16.0707 45.7647 16.0159 45.8375 15.9925C45.8057 15.9589 45.7733 15.9259 45.7403 15.8936C45.5999 15.7545 45.5268 15.6777 45.5268 15.5863L45.5257 13.7082C45.5215 13.4797 45.5715 13.3082 45.6744 13.2005C45.7514 13.1202 45.8532 13.0785 45.977 13.0766C46.9688 13.0695 47.9607 13.065 48.9526 13.063C49.1535 13.063 49.2681 13.0636 49.3026 13.0651C49.5684 13.0752 49.8313 13.2948 49.8885 13.555C49.9101 13.6536 50.0424 14.4027 50.1954 15.2699C50.3634 16.221 50.5722 17.4046 50.5972 17.5046C50.5991 17.5128 50.6012 17.5199 50.6036 17.5265C50.6046 17.5229 50.6055 17.5192 50.6062 17.5154C50.6615 17.2505 51.257 13.5946 51.2619 13.5627C51.3068 13.2675 51.5274 13.0627 51.8108 13.0533C51.8263 13.0528 51.8667 13.0525 51.9268 13.0525C52.3019 13.0525 53.4901 13.0632 54.2762 13.0703C54.6845 13.0738 54.9931 13.0766 55.0435 13.0766C55.4146 13.0766 55.7982 13.2728 55.8133 13.6479C55.8258 13.9603 55.9834 28.4694 55.9834 28.5763C55.9834 28.9772 55.7856 29.1485 55.6006 29.1753C55.5704 29.1798 55.4898 29.1917 54.3517 29.1917ZM74.3509 29.2574C73.1809 29.2574 71.6316 29.2517 71.279 29.2436C70.1418 29.2175 69.5641 28.5531 69.5619 27.2685C69.5619 27.045 69.8167 27.0249 69.9688 27.0127L69.9811 27.0116C69.9575 26.9923 69.9336 26.9734 69.9096 26.9547C69.7479 26.828 69.5648 26.6844 69.5656 26.4942C69.5818 22.3698 69.6122 15.3584 69.6324 14.739C69.6742 13.4708 70.7659 12.7129 71.7974 12.7129C72.1298 12.7129 72.7268 12.715 73.3246 12.7171C74.0767 12.7198 74.8305 12.7224 75.0568 12.7208H75.0718C75.6999 12.7208 76.2943 12.9743 76.7458 13.4345C77.1524 13.8491 77.3832 14.3725 77.3791 14.871C77.3785 14.9469 77.3772 15.1738 77.3777 15.4516C77.3777 15.5629 77.302 15.6315 77.2401 15.676C77.3048 15.7169 77.3168 15.7818 77.3168 15.8244L77.3169 15.835C77.3175 15.8777 77.3195 16.0077 77.1765 16.0587C77.1492 16.0683 77.1232 16.0699 76.9741 16.0752C76.9183 16.0772 76.8251 16.0805 76.7526 16.0853C76.7595 16.1074 76.7654 16.1316 76.7654 16.1586C76.7653 16.2084 76.749 16.25 76.7362 16.2831C76.7337 16.2895 76.7312 16.296 76.7289 16.3024C76.7619 16.3394 76.8407 16.4037 76.8908 16.4444C77.0235 16.5527 77.0998 16.6176 77.1241 16.6917C77.137 16.7314 77.1372 16.7753 77.1373 16.8216C77.1373 16.8375 77.1373 16.8617 77.1386 16.8816C77.1945 16.8836 77.2659 16.8954 77.3177 16.9494C77.3786 17.0131 77.3758 17.0929 77.3736 17.1573C77.3681 17.3356 77.3139 17.4141 77.2635 17.4742L77.2577 17.4811L77.2683 17.493C77.3077 17.5369 77.3735 17.6101 77.3727 17.7465C77.3723 17.863 77.3723 17.9822 77.3723 18.103C77.3723 18.1904 77.309 18.2517 77.2581 18.301C77.2454 18.3134 77.2265 18.3316 77.2194 18.341C77.189 18.4248 77.1589 18.5289 77.147 18.6078C77.2184 18.627 77.3711 18.6768 77.3709 18.8601C77.3702 20.5963 77.3678 22.587 77.3658 24.1866C77.3638 25.1792 77.3631 26.1718 77.3635 27.1644C77.3716 28.448 76.5525 29.2331 75.7561 29.251C75.5812 29.2553 75.0821 29.2574 74.3509 29.2574ZM73.1657 15.8258C72.9629 15.8258 72.9074 15.8838 72.9074 16.0954L72.9066 16.5115C72.9044 17.6092 72.8973 20.9498 72.899 23.3608C72.899 23.4993 72.899 23.6346 72.8995 23.7674L72.8998 24.0717C72.9021 25.7499 72.9098 26.0686 72.9142 26.109C72.9347 26.296 73.0034 26.2994 73.1171 26.3051C73.2153 26.3103 73.3334 26.3083 73.4468 26.3067C73.5039 26.3058 73.5597 26.3048 73.6113 26.3048C73.6894 26.3048 73.7748 26.2878 73.8001 26.0832C73.8297 25.8116 73.8618 16.5214 73.8618 16.0554C73.8618 15.8402 73.6649 15.834 73.6425 15.834C73.5769 15.834 73.4869 15.8319 73.3978 15.8297C73.3123 15.8279 73.227 15.8258 73.1657 15.8258ZM83.6573 28.7692C83.649 28.765 83.6413 28.7578 83.63 28.7534C83.613 28.7485 83.6088 28.7481 83.5937 28.7534C83.5784 28.7589 83.4288 28.7436 83.4262 28.7999C83.4482 28.9659 83.5434 29.1316 83.8062 29.1406C83.8246 29.1397 83.9032 29.0668 83.8952 29.0506C83.8175 28.9752 83.7452 29.087 83.6684 28.9703C83.6374 28.924 83.6763 28.7786 83.6573 28.7692Z" fill="black"/>
<path d="M83.8069 29.2668L83.8017 29.2666C83.5211 29.257 83.3392 29.0928 83.3024 28.8169L83.3008 28.8055L83.3013 28.7943C83.3088 28.6321 83.5002 28.6298 83.5632 28.6291L83.5706 28.629C83.5989 28.6216 83.6399 28.6254 83.6646 28.6326L83.6748 28.6359C83.694 28.6434 83.7082 28.6528 83.7158 28.6577C83.797 28.6981 83.7891 28.7888 83.784 28.8489C83.7824 28.8656 83.7813 28.8824 83.7806 28.8991C83.8549 28.89 83.9271 28.9069 83.9816 28.9599L83.9973 28.9751L84.007 28.9947C84.0165 29.0142 84.035 29.0666 83.9991 29.1285C83.9871 29.149 83.9018 29.2619 83.8122 29.2663L83.8069 29.2668Z" fill="black"/>
<path d="M86.1733 29.2354C85.8956 29.2354 85.3114 29.2262 84.796 29.2182L84.2897 29.2101C84.1527 29.2044 84.139 29.0553 84.1345 29.0058C84.1335 28.9956 84.1329 28.9858 84.1317 28.9772C84.1118 28.9454 84.0616 28.904 84.0208 28.8702C83.9788 28.8355 83.9355 28.7998 83.9016 28.7595C83.8886 28.7443 83.871 28.7268 83.8523 28.7079C83.7795 28.6344 83.6969 28.5514 83.6804 28.4497C83.6802 28.4476 83.6797 28.4458 83.6793 28.4441C83.6663 28.4487 83.6546 28.4564 83.6452 28.4666C83.6357 28.4767 83.6289 28.489 83.6252 28.5024L83.6198 28.5195C83.6041 28.57 83.5673 28.6883 83.4492 28.6883L83.4339 28.6872C83.4039 28.6836 83.3066 28.6602 83.3095 28.5086C83.3096 28.3341 83.3157 27.0905 83.3216 25.8879C83.3275 24.6987 83.333 23.5755 83.333 23.4246C83.333 23.0644 83.2436 23.0644 83.1304 23.0644L83.1149 23.0647C83.0262 23.0662 82.9374 23.0653 82.8486 23.0621C82.7859 23.0598 82.7231 23.0587 82.6603 23.0585C82.4449 23.0585 82.4449 23.1692 82.4449 23.2288C82.4449 23.3477 82.4389 24.626 82.4331 25.8623C82.4273 27.097 82.4213 28.3737 82.4213 28.4918C82.4213 28.9241 82.2298 29.1926 81.9214 29.1926C81.8461 29.1926 81.6927 29.1937 81.5002 29.1951C81.1735 29.1975 80.7342 29.2006 80.3693 29.2006C80.0309 29.2006 79.8208 29.1979 79.7273 29.1922C79.3532 29.1706 79.1936 28.9911 79.1936 28.5923C79.1936 28.3918 79.2127 23.1394 79.2281 18.919C79.2378 16.2243 79.2463 13.8969 79.2463 13.8407C79.2463 13.5059 79.4409 12.9744 79.9632 12.9744C80.0888 12.9744 80.7194 12.9776 81.4927 12.9818C82.7432 12.9881 84.2995 12.9962 84.7982 12.9962C84.8663 12.9962 84.914 12.9961 84.9375 12.9958L84.9664 12.9957C86.1455 12.9957 86.7977 14.0036 86.8153 14.7313C86.8189 14.894 86.8212 15.28 86.8221 15.8789C86.8221 15.9872 86.7212 16.04 86.6325 16.0866C86.6153 16.0954 86.5982 16.1046 86.5813 16.1141C86.5989 16.1279 86.624 16.145 86.6414 16.1568C86.7261 16.2138 86.8221 16.2789 86.8221 16.3889C86.8212 17.5366 86.8149 18.9747 86.8074 19.2032C86.7703 20.3514 85.979 20.8738 85.681 21.0705C85.6473 21.0928 85.6198 21.1109 85.6007 21.1253C85.5168 21.1886 85.4783 21.262 85.4834 21.3016C85.4874 21.3318 85.5254 21.3531 85.5568 21.3657C85.7608 21.4484 86.7773 21.8965 86.7844 22.6117C86.79 23.1987 86.7902 27.6028 86.7902 28.4797C86.7902 28.8875 86.7519 29.2257 86.2807 29.2342C86.2534 29.2351 86.2173 29.2354 86.1733 29.2354ZM82.6168 15.6016V15.7276C82.5781 15.7276 82.4976 15.7276 82.4976 16.0699C82.4976 16.0698 82.5007 19.1028 82.5007 19.3164V19.3446C82.5002 19.6024 82.5214 19.6485 82.5814 19.6493L82.6008 19.6497C82.8037 19.6526 82.9753 19.6552 83.212 19.6524C83.3202 19.6511 83.4883 19.3303 83.5424 18.9189C83.581 18.6255 83.5644 17.1425 83.5582 16.5846C83.5569 16.4781 83.556 16.3979 83.5559 16.355C83.5548 16.1197 83.0675 15.7388 82.9199 15.7336L82.8765 15.7321C82.7774 15.7287 82.7774 15.7287 82.713 15.7284L82.6185 15.7278L82.6168 15.6016ZM102.975 29.2674C102.711 29.2674 102.146 29.2583 101.648 29.2499C101.24 29.2432 100.854 29.2368 100.708 29.2368C100.323 29.2368 100.103 28.9814 100.103 28.5361C100.103 28.3667 100.109 27.123 100.115 25.9202C100.121 24.731 100.126 23.6077 100.126 23.4569C100.126 23.0967 100.037 23.0967 99.923 23.0967L99.908 23.0969C99.8073 23.0991 99.7249 23.0969 99.6407 23.0944C99.5816 23.0928 99.5217 23.0909 99.4537 23.0909C99.2382 23.0909 99.2382 23.2016 99.2382 23.2611C99.2382 23.3802 99.2322 24.6585 99.2265 25.8948C99.2207 27.1295 99.2148 28.4062 99.2148 28.5244C99.2148 28.9568 99.023 29.2252 98.7147 29.2252C98.6393 29.2252 98.4858 29.2264 98.2929 29.2277C97.9663 29.2301 97.5269 29.2331 97.1621 29.2331C96.8238 29.2331 96.6136 29.2305 96.5202 29.2251C96.1461 29.2031 95.9864 29.0237 95.9864 28.625C95.9864 28.5925 95.9881 28.4268 95.9906 28.154C96.036 23.4439 96.0481 19.819 96.0271 17.3798C96.0255 17.2122 96.1672 17.1656 96.2487 17.1465C96.2341 17.1335 96.2193 17.1207 96.2043 17.1082C96.1219 17.0387 96.0286 16.96 96.0288 16.8453C96.029 16.8197 96.0281 16.7898 96.0272 16.7604C96.0262 16.734 96.0256 16.7075 96.0255 16.6811C96.0255 16.6081 96.0561 16.5212 96.1904 16.4907C96.1734 16.464 96.1552 16.4381 96.1358 16.4131C96.0839 16.3439 96.0303 16.2724 96.0311 16.1829L96.0377 14.3166L96.0392 13.8734C96.0392 13.538 96.2338 13.006 96.7559 13.006C96.8836 13.006 97.5336 13.0095 98.3248 13.0136C99.572 13.0202 101.124 13.0284 101.603 13.0284C101.665 13.0284 101.708 13.0283 101.73 13.0279L101.759 13.0277C102.939 13.0277 103.591 14.0355 103.608 14.7628C103.622 15.34 103.612 18.8453 103.6 19.2348C103.563 20.3824 102.772 20.905 102.474 21.1018C102.44 21.1244 102.413 21.1426 102.393 21.157C102.31 21.2205 102.271 21.2938 102.276 21.3332C102.28 21.3635 102.318 21.3851 102.349 21.3977C102.553 21.4801 103.57 21.9273 103.577 22.6435C103.579 22.8399 103.58 23.475 103.581 24.5312C103.581 24.6222 103.559 24.6791 103.54 24.7248C103.526 24.762 103.517 24.7845 103.518 24.8309C103.525 24.9973 103.416 25.0664 103.351 25.1079C103.291 25.1457 103.279 25.1558 103.278 25.2086C103.278 25.249 103.286 25.2653 103.298 25.2923C103.315 25.3279 103.337 25.3761 103.334 25.4511C103.331 25.5133 103.304 25.5542 103.286 25.5815C103.276 25.5942 103.269 25.6088 103.266 25.6245C103.285 25.6297 103.319 25.6347 103.376 25.638C103.401 25.6393 103.418 25.6404 103.436 25.6457L103.445 25.6482C103.57 25.6808 103.581 25.7596 103.583 25.8443L103.583 28.5122C103.583 28.9196 103.544 29.2576 103.073 29.2665C103.04 29.2673 103.007 29.2676 102.975 29.2674ZM99.4104 15.6331V15.7592C99.3716 15.7592 99.2909 15.7592 99.2909 16.1013C99.2909 16.1012 99.2941 19.1346 99.2941 19.3478V19.376C99.2935 19.6344 99.3146 19.6806 99.3747 19.6816L99.4587 19.6828C99.6346 19.6849 99.7938 19.6869 100.004 19.6841C100.113 19.6829 100.281 19.3625 100.335 18.9507C100.374 18.6599 100.358 17.1862 100.351 16.6313C100.35 16.5173 100.349 16.4315 100.349 16.3865C100.348 16.1516 99.8605 15.7704 99.713 15.7651L99.6721 15.7638C99.571 15.7603 99.571 15.7603 99.5065 15.7601L99.411 15.7593L99.4104 15.6331ZM117.561 29.096C116.985 29.096 116.224 29.0944 115.531 29.093C114.627 29.0913 113.835 29.0896 113.728 29.092L113.709 29.0922C113.422 29.0924 113.067 28.9465 112.781 28.7118C112.448 28.4387 112.264 28.0976 112.264 27.7515C112.264 27.5635 112.261 26.3971 112.258 25.2965C112.255 24.3126 112.252 23.3813 112.252 23.247C112.252 22.8057 112.408 22.5819 112.717 22.5819H115.103C115.521 22.5819 115.602 22.828 115.626 23.0687C115.643 23.238 115.629 24.3885 115.615 25.4536C115.612 25.7241 115.609 25.9253 115.609 25.9852C115.609 26.121 115.643 26.3512 115.772 26.3512C115.847 26.3512 115.913 26.3518 115.974 26.3526C116.084 26.3539 116.18 26.355 116.295 26.3512C116.38 26.3485 116.456 26.209 116.474 26.0264C116.496 25.8102 116.509 23.3588 116.509 22.9451C116.509 22.6975 116.478 22.6662 116.35 22.5735C116.224 22.4824 114.253 20.9986 113.194 20.2017C112.995 20.0514 112.795 19.9012 112.596 19.7511L112.561 19.7258C112.414 19.6172 112.247 19.4941 112.247 19.1223L112.246 18.9502C112.245 18.7322 112.244 18.3476 112.244 17.8909C112.244 17.7701 112.297 17.7106 112.326 17.6784C112.297 17.6561 112.244 17.609 112.243 17.5147C112.243 17.4907 112.247 17.4668 112.256 17.4445C112.265 17.4222 112.278 17.4018 112.295 17.3847C112.357 17.3216 112.45 17.3163 112.54 17.3163L112.605 17.3165C112.644 17.3165 112.669 17.3149 112.685 17.3129C112.681 17.2753 112.666 17.2528 112.646 17.2238C112.623 17.1911 112.593 17.1464 112.592 17.0849C112.592 17.024 112.608 16.9739 112.62 16.9335C112.63 16.9018 112.638 16.8767 112.636 16.8547C112.633 16.8207 112.587 16.7747 112.554 16.7415C112.543 16.731 112.532 16.7203 112.522 16.7093C112.501 16.6992 112.479 16.6901 112.457 16.682C112.36 16.645 112.241 16.599 112.241 16.4771C112.239 15.5178 112.239 14.4462 112.24 14.3611C112.257 13.6356 112.728 12.856 113.566 12.8388C113.679 12.8367 114.007 12.8346 114.421 12.8331C114.498 12.8331 114.552 12.8736 114.601 12.9096C114.647 12.9439 114.688 12.9737 114.75 12.9761C114.764 12.8384 114.883 12.8342 114.897 12.8342H114.927C114.998 12.8342 115.061 12.8347 115.125 12.8351C115.192 12.8356 115.26 12.8361 115.34 12.8361H115.357C115.434 12.8361 115.485 12.8777 115.522 12.9082C115.556 12.9362 115.581 12.9566 115.635 12.9618C115.641 12.9623 115.646 12.9626 115.652 12.9626C115.674 12.9626 115.674 12.9626 115.691 12.9364C115.71 12.9057 115.756 12.8342 115.849 12.8342L116.758 12.834C117.477 12.834 118.164 12.8347 118.325 12.8391C118.98 12.8561 119.713 13.3801 119.713 14.0553C119.713 14.3891 119.721 15.4403 119.727 16.368C119.732 17.0827 119.737 17.7169 119.737 17.8724C119.737 18.081 119.737 18.5698 119.24 18.5829C118.935 18.5909 117.245 18.5909 117.227 18.5909C117.208 18.5909 117.189 18.5912 117.17 18.5916C117.149 18.5919 117.128 18.5923 117.107 18.5923C116.984 18.5923 116.656 18.5923 116.626 18.2021C116.61 17.9939 116.615 17.1892 116.619 16.6015C116.621 16.3162 116.622 16.0697 116.62 16.0159C116.611 15.7511 116.43 15.7223 116.352 15.7223H115.953C115.791 15.7223 115.668 15.857 115.668 16.0354C115.668 16.1604 115.664 16.5797 115.661 16.9756C115.658 17.3292 115.656 17.6641 115.656 17.7537C115.656 17.9358 115.656 17.9907 115.789 18.1446C115.91 18.2818 117.767 19.6373 118.56 20.2161C118.875 20.4464 119.103 20.6125 119.17 20.6635C119.44 20.8671 119.76 21.1857 119.76 21.5467C119.76 21.627 119.758 22.0995 119.754 22.7439C119.745 24.3813 119.731 27.1223 119.736 27.3756C119.755 28.1891 119.102 29.0716 118.466 29.0925C118.388 29.0946 118.091 29.096 117.561 29.096ZM127.037 29.0013C126.462 29.0013 125.701 28.9997 125.007 28.9985C124.103 28.9967 123.312 28.9951 123.204 28.9974L123.185 28.9977C122.898 28.9977 122.543 28.8519 122.256 28.6172C121.923 28.344 121.74 28.0029 121.74 27.6566C121.74 27.4688 121.737 26.303 121.734 25.2025C121.731 24.2186 121.728 23.2867 121.728 23.1525C121.728 22.7112 121.885 22.4873 122.193 22.4873H124.579C124.997 22.4873 125.078 22.733 125.102 22.9735C125.119 23.1432 125.106 24.2423 125.091 25.3535C125.088 25.6266 125.085 25.8303 125.085 25.8908C125.085 26.0266 125.119 26.2569 125.248 26.2569C125.323 26.2569 125.389 26.2577 125.45 26.2581C125.503 26.2587 125.554 26.2593 125.605 26.2593H125.605C125.659 26.2593 125.713 26.2586 125.772 26.2569C125.855 26.2541 125.932 26.114 125.95 25.9316C125.972 25.7156 125.985 23.2638 125.985 22.8502C125.985 22.6026 125.954 22.5714 125.826 22.4787C125.692 22.3821 123.445 20.6904 122.486 19.9678L122.039 19.6318C121.89 19.5231 121.722 19.3998 121.722 19.0274C121.722 18.8052 121.712 14.4377 121.716 14.2656C121.733 13.5413 122.203 12.7617 123.042 12.7436C123.187 12.7408 123.685 12.7383 124.341 12.7372C124.427 12.7372 124.472 12.7873 124.493 12.8115C124.506 12.8257 124.518 12.8392 124.589 12.8405C124.61 12.8058 124.657 12.7379 124.766 12.7366L124.815 12.7356C124.864 12.7343 124.914 12.7333 124.963 12.7366C125.041 12.742 125.095 12.7789 125.135 12.806C125.154 12.8191 125.168 12.8281 125.181 12.8336C125.204 12.7944 125.251 12.7362 125.345 12.7362H125.483C126.098 12.7362 127.556 12.737 127.801 12.7437C128.456 12.7612 129.189 13.2853 129.189 13.96C129.189 14.2938 129.196 15.3451 129.203 16.2726C129.208 16.9876 129.212 17.6219 129.212 17.777C129.212 17.9857 129.212 18.4744 128.716 18.4875C128.41 18.4956 126.721 18.4956 126.703 18.4956C126.684 18.4956 126.665 18.496 126.646 18.4963C126.624 18.4967 126.6 18.4952 126.582 18.4969C126.458 18.4969 126.132 18.496 126.102 18.1065C126.087 17.8986 126.091 17.0953 126.095 16.5088C126.097 16.2222 126.098 15.9746 126.096 15.9204C126.086 15.656 125.905 15.6275 125.828 15.6275H125.429C125.266 15.6275 125.143 15.7619 125.143 15.94C125.143 16.065 125.14 16.4847 125.137 16.8809C125.134 17.2346 125.132 17.5693 125.132 17.6584C125.132 17.8407 125.132 17.8957 125.265 18.0493C125.386 18.1866 127.239 19.5394 128.031 20.1172C128.349 20.3494 128.579 20.5172 128.646 20.5684C128.915 20.7722 129.236 21.091 129.236 21.4516C129.236 21.5301 129.233 21.979 129.23 22.5965C129.227 23.2649 129.222 24.1306 129.219 24.9371C129.217 25.1046 129.082 25.1959 128.972 25.2694C128.916 25.3075 128.852 25.3506 128.837 25.3857C128.746 25.6 128.7 25.8205 128.731 25.8989C128.742 25.9261 128.754 25.9329 128.793 25.9517C128.844 25.9767 128.952 26.029 128.948 26.1846C128.944 26.3772 128.832 26.4294 128.772 26.4575C128.761 26.4618 128.752 26.467 128.742 26.4728C128.742 26.4728 128.736 26.484 128.735 26.5185C128.733 26.5969 128.763 26.6202 128.926 26.6654C129.037 26.6962 129.222 26.7477 129.212 26.9414C129.203 27.104 129.208 27.1904 129.211 27.2421C129.212 27.2568 129.213 27.2691 129.213 27.28C129.231 28.0943 128.579 28.9769 127.943 28.9976C127.864 29.0001 127.568 29.0013 127.037 29.0013ZM134.583 31.455C134.309 31.455 133.898 31.2856 133.887 30.8183C133.882 30.5406 133.864 28.7791 133.864 28.5471C133.864 28.0987 134.054 27.7352 134.22 27.4687C134.364 27.2341 138.352 20.2312 138.444 20.0499C138.599 19.7435 138.654 19.3635 138.654 19.11C138.654 18.9794 138.653 18.3183 138.652 17.6796C138.651 17.0815 138.65 16.5025 138.65 16.3954C138.65 16.2999 138.65 16.2051 138.626 16.1512C138.616 16.1308 138.599 16.0928 138.484 16.0928L138.471 16.093C138.287 16.0979 138.231 16.0965 138.124 16.0944L138.025 16.0928C137.821 16.0928 137.803 16.1339 137.803 16.2512L137.804 16.6431C137.806 17.3649 137.808 18.7083 137.803 18.9095C137.799 19.0941 137.786 19.6564 137.272 19.6564C137.166 19.6564 136.575 19.6592 135.964 19.662C135.31 19.6652 134.634 19.6682 134.505 19.6682C134.181 19.6682 133.834 19.4892 133.834 19.0959C133.834 18.8894 133.838 17.0799 133.842 15.8528C133.842 15.6896 134.025 15.6781 134.085 15.6744C134.098 15.6736 134.111 15.673 134.122 15.6716C134.124 15.6715 134.171 15.6659 134.191 15.6469C134.182 15.6408 134.172 15.6349 134.162 15.6293C134.086 15.5836 133.958 15.5076 133.957 15.3363C133.956 15.2171 134.054 15.1726 134.09 15.1559L134.096 15.1537C134.09 15.0759 134.081 14.9984 134.07 14.9213C134.07 14.9213 134.053 14.8858 133.938 14.8495C133.885 14.8343 133.847 14.7828 133.845 14.7224C133.839 14.2516 134.069 13.7316 134.462 13.3295C134.829 12.9531 135.264 12.755 135.684 12.775C135.83 12.7824 136.2 12.7861 136.786 12.7861C137.278 12.7861 137.91 12.7836 138.719 12.7782C138.816 12.7782 138.9 12.8547 138.962 12.9104L138.981 12.9275C139.006 12.9492 139.057 12.9639 139.107 12.9639C139.121 12.9639 139.132 12.9631 139.141 12.9615L139.143 12.952C139.156 12.9033 139.191 12.7739 139.327 12.7739H139.389C139.698 12.7739 139.948 12.7702 140.098 12.7678L140.227 12.7664C141.383 12.7664 142.799 13.8799 142.803 15.1797C142.806 15.7916 142.783 19.6862 142.776 20.1409C142.766 20.7195 142.648 21.2167 142.423 21.6191L142.402 21.6575C142.003 22.3821 141.593 23.1 141.171 23.8109C141.142 23.8586 141.056 24.0044 140.911 24.0044C140.872 24.0044 140.839 23.9942 140.809 23.9794C140.889 24.0645 140.945 24.148 140.887 24.2401C140.769 24.4249 140.597 24.4434 140.495 24.4542C140.473 24.4566 140.444 24.4595 140.436 24.4629C140.415 24.4724 140.351 24.5028 140.335 24.673C140.329 24.7387 140.305 24.8174 140.28 24.9005C140.263 24.9556 140.236 25.0475 140.237 25.0752C140.24 25.1333 140.249 25.1603 140.259 25.1863C140.298 25.2963 140.284 25.3612 140.184 25.5328C139.748 26.2774 139.319 27.0262 138.898 27.7793C138.765 28.0168 138.768 28.1234 138.78 28.1444C138.782 28.1485 138.8 28.1601 138.852 28.1601C138.998 28.1601 139.748 28.1537 140.474 28.1474C141.165 28.1417 141.818 28.1361 141.94 28.1361C142.367 28.1361 142.588 28.2864 142.596 28.5827C142.602 28.7849 142.596 29.677 142.592 30.2671C142.59 30.5173 142.589 30.7162 142.589 30.7909V30.8056C142.589 31.0421 142.589 31.3994 142.104 31.4305C141.751 31.4533 134.654 31.455 134.583 31.455ZM57.5253 28.1164C57.4868 28.1164 57.4488 28.1101 57.4125 28.098C56.566 27.8156 53.76 26.6337 53.2009 23.2899C53.1612 23.0528 53.1939 22.8695 53.2977 22.7453C53.4116 22.609 53.5718 22.5886 53.6571 22.5886C53.6783 22.5886 53.694 22.5899 53.7021 22.5907C53.8043 22.5956 55.6968 22.6872 55.9149 22.7215C55.9413 22.7256 55.9685 22.7288 55.9957 22.732C56.1809 22.7535 56.4345 22.7832 56.6023 23.1351C56.799 23.5471 57.3367 24.2936 57.917 24.6634C58.2001 24.8445 58.2265 24.9598 58.2094 25.3371C58.1942 25.6777 58.062 27.3777 58.0287 27.6171C57.9955 27.8536 57.7805 28.1164 57.5253 28.1164ZM56.425 21.2224C56.3743 21.2224 56.3166 21.2196 56.2509 21.2166L56.1951 21.2139C55.8532 21.198 53.9818 21.0783 53.7598 21.0468C53.6085 21.025 53.5289 20.9421 53.4889 20.8767C53.419 20.7628 53.4097 20.6035 53.4634 20.4399C53.6588 19.842 54.0648 18.9515 54.8905 18.1033C54.9475 18.0442 55.0459 18.0499 55.1793 18.0759C55.2366 18.087 55.3016 18.0997 55.3498 18.0997C55.3648 18.0997 55.3745 18.0984 55.3802 18.0972C55.3871 18.0695 55.3762 17.9962 55.3702 17.9554C55.3554 17.8552 55.3388 17.7418 55.3955 17.6503C55.4734 17.5259 55.5791 17.4627 55.7099 17.4627C55.7862 17.4627 55.8583 17.4842 55.9219 17.5032C55.9602 17.5146 55.9967 17.5255 56.0258 17.5293C56.0251 17.5232 56.0243 17.517 56.0235 17.5109C56.0085 17.395 55.986 17.2201 56.12 17.1228C56.7577 16.6627 57.3435 16.4984 58.2674 16.3406C58.5213 16.2974 58.7096 16.3469 58.8247 16.4854C58.9558 16.6431 58.9353 16.8534 58.9281 16.9042C58.9198 17.0852 58.8277 18.7988 58.7945 19.0156C58.7905 19.0422 58.7874 19.0692 58.7843 19.0965C58.7631 19.2841 58.734 19.5408 58.3854 19.7102C58.1677 19.8164 57.6154 20.1177 57.1906 20.6201C57.1743 20.64 57.1538 20.6561 57.1306 20.6671C57.1074 20.6782 57.0821 20.6839 57.0565 20.684C56.9979 20.684 56.9425 20.6556 56.892 20.5992C56.8604 20.5635 56.8388 20.5155 56.8136 20.4597C56.7843 20.3944 56.7294 20.2726 56.6817 20.2726C56.673 20.273 56.6644 20.2748 56.6563 20.2779C56.6398 20.2836 56.6205 20.2898 56.5996 20.2966C56.535 20.3177 56.3724 20.3701 56.3448 20.4269C56.3824 20.4601 56.4847 20.5106 56.5488 20.5421C56.7283 20.6305 56.9141 20.7219 56.8702 20.8904C56.7993 21.1659 56.6408 21.2224 56.425 21.2224ZM64.6324 21.8945C64.6193 21.8945 64.6092 21.8938 64.6031 21.8932C64.5512 21.891 64.3833 21.8873 64.1618 21.8822C63.3436 21.8635 62.5326 21.8435 62.3891 21.821C62.3542 21.8156 62.3133 21.8136 62.2699 21.8113C62.0775 21.8014 61.8142 21.7878 61.6413 21.4639C61.4292 21.0668 61.1191 20.5617 60.5988 20.1784C60.3283 19.9792 60.3205 19.8554 60.3365 19.494C60.3399 19.4211 60.3455 19.2833 60.3527 19.1085C60.3899 18.2108 60.4314 17.2389 60.455 17.0718C60.4872 16.8438 60.6899 16.6718 60.9265 16.6718C60.9842 16.6718 61.0403 16.6824 61.0931 16.7033C61.4219 16.834 61.7433 16.9831 62.0558 17.1498C62.1638 17.2076 62.1944 17.3099 62.2126 17.3709C62.2156 17.3813 62.2199 17.3954 62.2234 17.4048C62.2343 17.4063 62.2546 17.4074 62.2832 17.4074H62.3213C62.4033 17.4074 62.4975 17.4123 62.5778 17.4724C63.7629 18.3562 64.5149 19.535 64.9444 21.1827C65.0126 21.4439 64.9989 21.6393 64.9042 21.7635C64.8408 21.8467 64.7418 21.8945 64.6324 21.8945ZM60.0584 28.2531C59.9033 28.2531 59.7839 28.2063 59.7039 28.1146C59.6 27.9953 59.6066 27.847 59.6098 27.8112C59.6144 27.7143 59.7027 25.8087 59.7358 25.5892C59.7413 25.5518 59.7428 25.5038 59.7441 25.4528C59.7497 25.2468 59.7582 24.9356 60.0865 24.7757C60.5991 24.5257 61.0158 24.1477 61.3252 23.6521C61.4722 23.4168 61.6038 23.3449 61.8887 23.3449C61.9313 23.3449 61.9782 23.3463 62.0303 23.3488C62.3377 23.3626 64.117 23.459 64.3487 23.4922C64.5017 23.5142 64.6472 23.6147 64.7284 23.7543C64.7983 23.8744 64.8127 24.0107 64.768 24.1285C64.6574 24.4182 64.5242 24.7415 64.2986 25.1412C64.2386 25.2476 64.1361 25.2791 64.0537 25.3044C64.008 25.3184 63.9649 25.3315 63.9416 25.3539C63.8484 25.4431 63.7593 25.5632 63.6734 25.6796L63.6629 25.6936C63.6522 25.7157 63.6501 25.81 63.649 25.8662C63.6462 25.9986 63.6434 26.1236 63.5742 26.206C63.0427 26.8454 62.4066 27.3553 61.6837 27.7209C61.6498 27.738 61.6143 27.7467 61.5783 27.7467C61.5002 27.7467 61.4386 27.7065 61.3843 27.671C61.3225 27.6309 61.2642 27.5927 61.171 27.5927C61.0844 27.5927 61.0001 27.6788 60.9544 27.7527C60.941 27.7744 60.9275 27.803 60.913 27.8333C60.8585 27.9464 60.7905 28.0871 60.6605 28.1258C60.5385 28.1617 60.424 28.1923 60.3104 28.2196C60.218 28.2418 60.1333 28.2531 60.0584 28.2531Z" fill="black"/>
</g>
<path d="M21.4071 13.0257C21.6899 13.0141 27.1337 13.0219 27.3836 13.0219C27.681 13.0219 27.9076 13.0888 27.9114 13.4959C27.9148 13.8453 27.9194 15.3648 27.9194 15.586C27.9194 15.8071 27.7866 16.0085 27.5675 16.0085C27.349 16.0085 26.5397 16.0009 26.352 16.0009C26.1643 16.0009 26.008 16.0322 26.008 16.3168L26.0121 30.387C26.0121 30.766 25.9338 31.0115 25.527 31.0072C25.1507 31.0033 23.5101 31.015 23.2599 31.023C23.0098 31.0307 22.6938 30.8924 22.6893 30.4775C22.6877 30.3208 22.6893 27.9412 22.6914 25.1837C22.6918 24.9878 22.8719 24.9809 23.0693 24.9713C23.3051 24.9598 23.1566 24.7245 23.2518 24.6178C23.324 24.5368 23.4495 24.6137 23.499 24.5218C23.5345 24.4555 23.5294 24.0915 23.3127 23.9566C23.1357 23.8472 22.7067 23.7856 22.7007 23.5993C22.6893 23.2457 22.6957 22.8385 22.6941 22.4887C22.6931 22.2848 22.8829 22.1351 22.8829 22.016C22.8829 21.9129 22.8106 21.8992 22.8106 21.7968C22.8106 21.7143 23.1453 21.7506 23.1453 21.6689C23.1453 21.5899 22.9739 21.4856 22.8639 21.3858C22.8004 21.3283 22.6965 21.2433 22.6948 21.0848C22.6681 18.5829 22.6985 16.5368 22.6969 16.4393C22.6928 16.1392 22.6341 16.032 22.3492 16.0282C21.9844 16.0254 21.6196 16.0242 21.2548 16.0245C21.0123 16.0245 20.8872 15.8389 20.8872 15.5861C20.8872 15.3332 20.8881 13.7162 20.8949 13.5552C20.9067 13.2785 21.024 13.0414 21.4071 13.0257ZM29.6475 13.6066C29.645 13.8007 29.626 20.53 29.6239 24.9139C29.6239 24.989 29.6904 25.0195 29.7454 25.0627C29.7832 25.0924 29.8622 25.1923 29.8764 25.2383C29.8924 25.2886 29.9043 25.6175 29.862 25.6246C29.768 25.6399 29.8014 25.4926 29.7175 25.4954C29.6636 25.4969 29.6236 25.6209 29.6236 25.6746C29.6236 27.3319 29.627 28.5112 29.6354 28.6165C29.667 28.9956 29.8229 29.0944 30.0729 29.0944C30.3231 29.0944 34.0443 29.0864 34.2634 29.0864C34.5135 29.0864 34.6348 28.9089 34.6386 28.644C34.6427 28.3909 34.6463 27.4311 34.6463 27.2097C34.6463 26.8975 34.4821 26.6484 34.189 26.6442C33.9703 26.6418 33.2393 26.6407 33.0202 26.6407C32.8014 26.6407 32.6939 26.5637 32.6863 26.3182C32.6813 26.0587 32.6794 25.7992 32.6805 25.5396C32.6808 25.4101 32.5067 25.5039 32.4731 25.3417C32.4623 25.2874 32.4496 25.1171 32.4716 25.0639C32.4963 25.0046 32.6844 24.9896 32.6886 24.8555C32.7246 23.711 32.7049 22.2913 32.7037 22.1163C32.7015 21.8121 32.725 21.5298 33.0376 21.5298C33.3501 21.5298 33.9792 21.5296 34.1694 21.5239C34.369 21.5179 34.65 21.3045 34.6618 21.0083C34.672 20.7531 34.6855 19.5187 34.6734 19.2953C34.6618 19.0761 34.5504 18.8984 34.2688 18.8984C33.9876 18.8984 33.2836 18.8805 33.0787 18.8805C32.9194 18.8805 32.68 18.7972 32.6742 18.5304C32.6702 18.3409 32.6684 16.0888 32.6684 15.8991C32.6684 15.7094 32.7858 15.4628 33.0046 15.4628C33.0861 15.4628 33.2425 15.4608 33.4185 15.4585C33.5096 15.4571 33.5267 15.3486 33.5612 15.2605C33.5918 15.1838 33.714 15.175 33.7919 15.1862C33.8883 15.2 33.935 15.4463 34.0263 15.4479C34.1026 15.4485 34.1658 15.4443 34.2086 15.443C34.4551 15.4348 34.6579 15.2134 34.6619 14.9607C34.6649 14.7687 34.6581 13.6869 34.6541 13.4632C34.6501 13.2384 34.521 13.0481 34.2084 13.0481C33.8959 13.0481 30.5122 13.0408 30.2291 13.0443C29.8856 13.0494 29.6515 13.2866 29.6475 13.6066ZM43.7079 28.5179C43.6453 28.107 41.7046 14.0936 41.6476 13.7765C41.5618 13.2944 41.335 13.1518 40.9871 13.1481C40.7682 13.1456 38.8137 13.1286 38.5597 13.1362C38.2471 13.1462 38.0673 13.5156 38.028 13.7606C37.998 13.9509 36.2384 28.5136 36.2022 28.8339C36.1663 29.1582 36.3587 29.2133 36.6402 29.2133C36.9217 29.2133 38.36 29.2133 38.6727 29.1816C38.9853 29.1502 39.1067 28.8915 39.1067 28.5299C39.1067 28.3087 39.1417 26.7162 39.1417 26.4004C39.1417 26.0844 39.3604 26.0211 39.5484 26.0211C39.7357 26.0211 40.0368 26.0171 40.287 26.0171C40.701 26.0171 40.7397 26.3216 40.7677 26.5901C40.799 26.8898 40.7702 28.4352 40.7774 28.6895C40.7891 29.1163 41.1097 29.1741 41.3618 29.1816C41.6315 29.19 43.1327 29.2094 43.4452 29.2094C43.7584 29.2096 43.7705 28.9292 43.7079 28.5179ZM40.1943 23.1604C40.0039 23.2109 39.8483 23.2166 39.6901 23.1898C39.5521 23.1669 39.3911 23.0718 39.4118 22.7843C39.4274 22.5614 39.7645 19.506 39.7987 19.3513C39.8261 19.2293 39.9236 19.1619 40.0178 19.3513C40.0559 19.4285 40.1167 19.9639 40.1774 20.5888C40.1886 20.7076 40.1849 20.7639 40.2571 20.8749C40.3154 20.9648 40.678 21.1515 40.6856 21.2238C40.7004 21.3609 40.2442 21.3053 40.2592 21.4844C40.313 22.1177 40.3573 22.6628 40.3644 22.7543C40.3819 22.977 40.3714 23.1135 40.1943 23.1604ZM88.5943 13.11C88.6798 13.1064 89.2004 13.1056 89.889 13.104C90.0123 13.104 89.9633 13.2997 90.0615 13.3091C90.3454 13.3358 90.7312 13.4618 91.0456 13.3806C91.1645 13.35 91.1907 13.1039 91.299 13.1041C92.6298 13.1041 93.9754 13.1062 94.1021 13.1062C94.399 13.1062 94.6256 13.1734 94.6296 13.5807C94.6332 13.9298 94.6205 15.5366 94.6205 15.7581C94.6205 15.9792 94.4874 16.2757 94.2686 16.2757C94.0495 16.2757 93.4284 16.2676 93.2404 16.2676C93.0527 16.2676 92.8967 16.2992 92.8967 16.5836C92.8967 16.6811 92.897 18.0736 92.8978 19.8778C92.8978 20.0057 92.741 20.1283 92.741 20.2598C92.741 20.3646 92.8452 20.4793 92.8452 20.5863C92.8452 20.6743 92.8982 20.7621 92.8982 20.8519C92.899 22.766 92.8839 24.9368 92.9002 26.4881C92.9023 26.6891 92.6899 26.5647 92.6095 26.5704C92.4955 26.5777 92.3664 26.7432 92.3664 26.8583C92.3664 27.0235 92.6303 27.0432 92.7581 27.0123C92.9113 26.9752 92.901 27.211 92.901 27.2775L92.9011 28.5676C92.9011 28.9465 92.8228 29.1917 92.4163 29.188C92.0403 29.184 90.3995 29.196 90.1493 29.2035C89.899 29.2113 89.5828 29.0733 89.5787 28.6581C89.5752 28.2791 89.5898 16.9586 89.5868 16.706C89.5829 16.406 89.5239 16.2992 89.2389 16.2953C88.9679 16.2922 88.6968 16.2907 88.4258 16.2909C88.1831 16.2909 88.058 16.0103 88.058 15.7576C88.058 15.5048 88.0765 13.8007 88.0829 13.6396C88.094 13.3627 88.2112 13.1258 88.5943 13.11ZM105.602 13.6026C105.599 13.8871 105.559 28.2341 105.591 28.6127C105.622 28.9921 105.813 29.0953 106.063 29.0953C106.314 29.0953 110.035 29.0873 110.254 29.0873C110.504 29.0873 110.625 28.9098 110.629 28.6448C110.633 28.3918 110.637 27.4319 110.637 27.2105C110.637 26.8983 110.473 26.6493 110.179 26.645C109.961 26.6426 109.23 26.6415 109.011 26.6415C108.792 26.6415 108.684 26.5646 108.676 26.3194C108.667 26.033 108.696 22.4034 108.694 22.1169C108.692 21.8128 108.716 21.5305 109.028 21.5305C109.34 21.5305 109.97 21.5304 110.16 21.5245C110.36 21.5186 110.641 21.3051 110.652 21.0089C110.662 20.7538 110.676 19.5195 110.664 19.2961C110.652 19.0767 110.541 18.8992 110.26 18.8992C109.978 18.8992 109.274 18.8813 109.069 18.8813C108.91 18.8813 108.671 18.7981 108.665 18.5312C108.66 18.3417 108.659 16.0896 108.659 15.8999C108.659 15.7102 108.776 15.4636 108.995 15.4636C109.214 15.4636 109.98 15.4505 110.199 15.4439C110.445 15.4357 110.648 15.2143 110.653 14.9617C110.656 14.7697 110.648 13.6878 110.645 13.4641C110.64 13.2393 110.512 13.0492 110.199 13.0492C109.886 13.0492 106.503 13.0419 106.22 13.0453C105.876 13.0494 105.606 13.2823 105.602 13.6026ZM66.072 23.2077C66.0699 22.9034 66.1239 22.5903 66.4366 22.5903C66.7495 22.5903 67.0639 22.5903 67.254 22.5846C67.4532 22.5786 67.7045 22.3959 67.7163 22.0997C67.7262 21.8448 67.7397 20.3591 67.7278 20.136C67.7163 19.9165 67.6044 19.7388 67.3231 19.7388C67.0415 19.7388 66.6831 19.7516 66.4778 19.7516C66.3185 19.7516 66.079 19.6993 66.0732 19.4325C66.0691 19.243 66.0673 16.4221 66.0673 16.2324C66.0673 16.043 66.1848 15.7958 66.4036 15.7958C66.6223 15.7958 67.1073 15.7834 67.3263 15.7758C67.5727 15.768 67.7756 15.5469 67.7795 15.294C67.7827 15.1019 67.7756 13.641 67.7721 13.4169C67.7677 13.192 67.639 13.002 67.3263 13.002C67.0135 13.002 63.536 12.9949 63.2529 12.9983C62.909 13.002 62.6696 13.2352 62.6659 13.5552C62.6655 13.5944 62.6565 13.9382 62.6626 14.5027C62.6645 14.6684 62.851 14.545 62.8469 14.7413C62.8434 14.9256 62.6607 14.8026 62.6614 14.999C62.6747 19.0525 62.628 30.244 62.6537 30.5569C62.6852 30.9359 62.8767 31.0393 63.1273 31.0393C63.3772 31.0393 65.4781 31.0433 65.6968 31.0433C65.9469 31.0433 66.068 30.8649 66.0723 30.6006C66.0723 30.6006 66.0648 29.0426 66.0727 27.3568C66.0736 27.1806 65.8581 27.2551 65.7946 27.2544C65.6452 27.252 65.6268 27.1093 65.6807 26.9805C65.8048 26.6834 66.0323 26.7035 66.038 26.5266C66.0456 26.2883 65.9345 26.4959 65.929 26.2782C65.9239 26.073 66.0811 26.0964 66.0729 25.917C66.0268 24.9243 66.0754 23.7288 66.072 23.2077ZM45.6505 13.7092C45.6463 13.4803 45.697 13.2075 45.9788 13.2036C46.1665 13.2011 49.1088 13.1842 49.2975 13.1919C49.501 13.1997 49.7197 13.3696 49.7668 13.5832C49.8135 13.7962 50.4291 17.3463 50.4764 17.5362C50.5231 17.7259 50.6812 17.767 50.7283 17.5421C50.7826 17.2828 51.3632 13.7252 51.3853 13.583C51.4202 13.3537 51.5886 13.1877 51.8152 13.1801C51.981 13.1742 54.8796 13.2034 55.0437 13.2034C55.3548 13.2034 55.6772 13.3634 55.6889 13.654C55.6984 13.8919 55.8589 28.2928 55.8589 28.5772C55.8589 28.8617 55.747 29.0278 55.5832 29.0515C55.419 29.0754 53.2614 29.0632 53.0973 29.0632C52.933 29.0632 52.7862 28.9627 52.7862 28.726V22.3783C52.7862 22.1651 52.6632 22.0583 52.5812 22.3545C52.5104 22.6099 51.5588 28.1985 51.5024 28.4472C51.438 28.7317 51.4084 28.9743 51.1973 28.9743C50.9864 28.9743 50.3532 28.9686 50.1655 28.9686C49.978 28.9686 49.8527 28.8486 49.7962 28.6307C49.7377 28.4058 48.5589 22.6513 48.518 22.4434C48.4801 22.2518 48.3128 22.2362 48.2891 22.4494C48.2659 22.6632 48.2543 28.3763 48.2543 28.6129C48.2543 28.8506 48.1724 28.9455 47.9613 28.9455C47.7504 28.9455 46.1437 29.0105 45.9091 28.9866C45.6746 28.9631 45.6569 28.809 45.6569 28.6194C45.6569 28.4852 45.6134 21.0599 45.6524 16.7405C45.6542 16.548 45.9962 16.6558 45.9962 16.4715C45.9962 16.3637 45.7773 16.356 45.7833 16.2254C45.7909 16.056 46.0115 16.1427 46.0111 16.0328C46.0111 15.9411 45.6517 15.6744 45.6517 15.5873C45.6508 14.4478 45.6505 13.7145 45.6505 13.7092ZM77.2545 14.871C77.2625 13.9227 76.3242 12.84 75.0577 12.8479C74.6515 12.8507 72.5482 12.8398 71.7975 12.8398C70.828 12.8398 69.7963 13.5509 69.757 14.7441C69.7347 15.4255 69.7007 23.8505 69.6902 26.4956C69.6893 26.722 70.1852 26.9364 70.1848 27.0697C70.1845 27.19 69.6867 27.0778 69.6867 27.2691C69.6894 28.8499 70.5937 29.1027 71.2819 29.1185C71.8145 29.1306 75.2213 29.1379 75.7537 29.1261C76.4652 29.1102 77.2468 28.3833 77.2392 27.1665C77.2365 26.8281 77.245 22.3351 77.2464 18.8612C77.2466 18.6953 77.017 18.7554 77.0171 18.6691C77.0171 18.5627 77.0666 18.396 77.1046 18.2925C77.1255 18.2357 77.2477 18.1638 77.2477 18.1042C77.2477 17.9831 77.2477 17.8638 77.2482 17.7467C77.2491 17.5927 77.1274 17.576 77.1275 17.4853C77.1275 17.3794 77.2415 17.4006 77.2491 17.1587C77.2523 17.0632 77.257 17.0036 77.101 17.0084C76.9756 17.0128 77.0286 16.8015 77.0059 16.7322C76.9759 16.6404 76.599 16.4113 76.599 16.3208C76.599 16.266 76.6406 16.2118 76.6409 16.1595C76.6409 16.1217 76.6028 16.0675 76.6028 15.9869C76.6028 15.9503 77.1023 15.9526 77.135 15.9407C77.1995 15.9176 77.1923 15.8702 77.1923 15.8252C77.1923 15.7255 77.0438 15.814 77.0476 15.6949C77.0504 15.6079 77.2532 15.5717 77.2532 15.4526C77.2526 15.1743 77.2538 14.947 77.2545 14.871ZM73.9241 26.0998C73.8928 26.3526 73.7678 26.4319 73.6114 26.4319C73.455 26.4319 73.2595 26.4399 73.111 26.4319C72.982 26.4253 72.8218 26.4081 72.7905 26.1241C72.7814 26.0432 72.7768 25.2175 72.7751 24.0726L72.775 23.7687C72.7743 23.6359 72.7743 23.5003 72.7743 23.3617C72.7722 20.4499 72.7827 16.264 72.7827 16.096C72.7827 15.8508 72.8607 15.7005 73.1656 15.7005C73.2909 15.7005 73.5138 15.7087 73.6427 15.7087C73.7914 15.7087 73.9866 15.8034 73.9866 16.0561C73.9867 16.3092 73.9555 25.8472 73.9241 26.0998ZM83.6574 28.77C83.6491 28.7659 83.6414 28.7587 83.6301 28.7543C83.6131 28.7493 83.6089 28.749 83.5938 28.7543C83.5785 28.7596 83.4289 28.7444 83.4263 28.8008C83.4483 28.9667 83.5435 29.1324 83.8063 29.1414C83.8246 29.1404 83.9032 29.0677 83.8952 29.0515C83.8176 28.976 83.7453 29.0879 83.6685 28.9711C83.6374 28.9247 83.6763 28.7795 83.6574 28.77Z" fill="white"/>
<path d="M85.5261 21.0258C85.7137 20.8838 86.6438 20.4174 86.6831 19.2005C86.6903 18.9825 86.6967 17.581 86.6976 16.3903C86.6976 16.3054 86.4498 16.2214 86.4498 16.1391V16.0751C86.4498 16.0091 86.6976 15.9441 86.6976 15.8804C86.6968 15.3468 86.6949 14.9121 86.6908 14.7357C86.6754 14.0876 86.0889 13.1078 84.9396 13.1233C84.6349 13.1276 80.3155 13.1019 79.9636 13.1019C79.5122 13.1019 79.3714 13.5819 79.3714 13.8424C79.3714 13.985 79.3188 28.2625 79.3188 28.5939C79.3188 28.9265 79.4297 29.0505 79.7351 29.0682C80.0401 29.0862 81.6174 29.0682 81.9221 29.0682C82.2272 29.0682 82.2973 28.7306 82.2973 28.4936C82.2973 28.2566 82.3208 23.4678 82.3208 23.2305C82.3208 22.9931 82.4968 22.9342 82.6609 22.9342C82.825 22.9342 82.9425 22.9441 83.1124 22.9403C83.3586 22.9342 83.4583 23.0468 83.4583 23.4262C83.4583 23.7342 83.4347 28.1731 83.4347 28.505C83.4347 28.5234 83.4314 28.5616 83.4491 28.5636C83.4801 28.5644 83.4944 28.5031 83.5061 28.4679C83.5544 28.304 83.7741 28.2513 83.8038 28.4307C83.8175 28.515 83.942 28.6143 83.9968 28.6791C84.0637 28.7585 84.2013 28.8356 84.2475 28.9291C84.2655 28.9648 84.2526 29.0877 84.2919 29.0857C84.9174 29.0946 86.0188 29.1146 86.279 29.1099C86.6075 29.104 86.6659 28.9318 86.6659 28.4814C86.6659 28.0308 86.6659 23.2308 86.6602 22.6146C86.6541 22.0036 85.7454 21.5793 85.5111 21.4842C85.2758 21.3894 85.3386 21.168 85.5261 21.0258ZM83.6664 18.9368C83.6197 19.2922 83.4529 19.7767 83.2137 19.7799C82.9684 19.7827 82.7924 19.7799 82.5801 19.7767C82.3663 19.7738 82.3765 19.5308 82.3765 19.3178C82.3765 19.1043 82.3734 16.0714 82.3734 16.0714C82.3734 15.7868 82.4249 15.6014 82.6198 15.6031C82.8072 15.6044 82.7353 15.6024 82.9246 15.6091C83.1358 15.6165 83.6795 16.0517 83.681 16.3557C83.6825 16.6409 83.7133 18.5812 83.6664 18.9368ZM102.319 21.0577C102.506 20.9153 103.437 20.4493 103.476 19.2322C103.487 18.8759 103.498 15.36 103.484 14.7671C103.469 14.1194 102.882 13.1396 101.733 13.1554C101.428 13.1595 97.1084 13.1336 96.7566 13.1336C96.3054 13.1336 96.1646 13.614 96.1646 13.8749L96.1565 16.1857C96.1554 16.2891 96.3434 16.4113 96.3484 16.5755C96.3503 16.6409 96.1508 16.5652 96.1508 16.6828C96.1508 16.7304 96.1545 16.7986 96.154 16.8469C96.1537 16.9594 96.419 17.0686 96.419 17.1851C96.419 17.3028 96.1507 17.2262 96.1521 17.3803C96.1892 21.6705 96.1114 28.3997 96.1114 28.6265C96.1114 28.9583 96.2228 29.0829 96.5277 29.1008C96.8324 29.1185 98.41 29.1008 98.7149 29.1008C99.02 29.1008 99.0904 28.7629 99.0904 28.526C99.0904 28.2889 99.1138 23.5001 99.1138 23.2626C99.1138 23.0257 99.2897 22.9664 99.454 22.9664C99.618 22.9664 99.7355 22.9762 99.9053 22.9723C100.152 22.9664 100.251 23.0788 100.251 23.4583C100.251 23.7664 100.228 28.2054 100.228 28.5375C100.228 28.8691 100.357 29.1123 100.708 29.1123C101.06 29.1123 102.742 29.1481 103.071 29.1422C103.4 29.136 103.458 28.9641 103.458 28.514C103.458 28.3 103.458 27.1077 103.458 25.8477C103.457 25.7771 103.456 25.7831 103.402 25.7682C103.377 25.761 103.132 25.7743 103.138 25.653C103.143 25.5229 103.207 25.5135 103.209 25.4462C103.214 25.3535 103.154 25.3394 103.154 25.2099C103.155 24.9715 103.402 25.0331 103.394 24.837C103.389 24.6953 103.457 24.6699 103.457 24.5331C103.456 23.6285 103.455 22.8679 103.453 22.6465C103.447 22.036 102.538 21.6113 102.303 21.5163C102.069 21.4209 102.131 21.1998 102.319 21.0577ZM100.459 18.9686C100.412 19.3243 100.246 19.8089 100.006 19.8113C99.7616 19.8144 99.5856 19.8113 99.3732 19.8087C99.1594 19.8054 99.1696 19.5626 99.1696 19.3489C99.1696 19.1359 99.1665 16.1025 99.1665 16.1025C99.1665 15.8184 99.2181 15.6332 99.4126 15.6344C99.6004 15.6361 99.5288 15.6342 99.7177 15.6403C99.9286 15.6479 100.473 16.0835 100.474 16.3871C100.475 16.6728 100.506 18.613 100.459 18.9686ZM112.365 14.3642C112.381 13.6929 112.811 12.9815 113.569 12.9658C113.679 12.9636 113.997 12.9615 114.422 12.9601C114.509 12.9601 114.578 13.1054 114.762 13.1033C114.939 13.1015 114.834 12.9611 114.897 12.9611C115.062 12.9608 115.179 12.9633 115.357 12.9631C115.434 12.9631 115.464 13.0729 115.623 13.088C115.804 13.1053 115.782 12.9611 115.85 12.9611C116.973 12.9608 118.112 12.9601 118.322 12.966C118.916 12.9816 119.589 13.4637 119.589 14.0563C119.589 14.6492 119.612 17.5177 119.612 17.8734C119.612 18.2287 119.542 18.4499 119.237 18.4579C118.955 18.4653 117.439 18.466 117.228 18.466C117.017 18.466 116.775 18.5016 116.751 18.1934C116.728 17.8853 116.751 16.1779 116.746 16.0124C116.734 15.6924 116.517 15.5973 116.353 15.5973H115.954C115.713 15.5973 115.544 15.7987 115.544 16.0361C115.544 16.2728 115.531 17.5647 115.531 17.7545C115.531 17.9442 115.531 18.0389 115.696 18.2285C115.86 18.4185 118.827 20.5612 119.096 20.7652C119.378 20.9786 119.636 21.2635 119.636 21.5476C119.636 21.832 119.604 27.024 119.612 27.3794C119.63 28.1497 118.996 28.95 118.463 28.9674C118.135 28.9786 113.983 28.9619 113.725 28.9674C113.222 28.9795 112.389 28.4405 112.389 27.7529C112.389 27.397 112.377 23.5327 112.377 23.2484C112.377 22.9637 112.435 22.7092 112.717 22.7092H115.103C115.408 22.7092 115.479 22.8455 115.502 23.0825C115.526 23.3194 115.485 25.7498 115.485 25.9866C115.485 26.2233 115.561 26.4785 115.772 26.4785C115.983 26.4785 116.118 26.4844 116.3 26.4785C116.466 26.4733 116.575 26.2771 116.599 26.0399C116.622 25.8031 116.634 23.2305 116.634 22.9463C116.634 22.6621 116.587 22.5906 116.423 22.4721C116.259 22.3535 112.87 19.8012 112.67 19.651C112.512 19.5324 112.372 19.4557 112.372 19.1234C112.372 19.0189 112.369 18.5248 112.369 17.892C112.369 17.7535 112.464 17.7726 112.456 17.6688C112.449 17.5691 112.369 17.5962 112.368 17.5151C112.368 17.3615 112.806 17.5331 112.812 17.3488C112.816 17.1897 112.718 17.1456 112.717 17.0849C112.717 16.9984 112.767 16.9338 112.761 16.8465C112.753 16.7442 112.654 16.6699 112.609 16.6188C112.569 16.5736 112.366 16.5378 112.366 16.4782C112.364 15.4238 112.364 14.4423 112.365 14.3642ZM121.841 14.2698C121.856 13.5979 122.286 12.8871 123.045 12.8708C123.19 12.868 123.703 12.8655 124.342 12.8644C124.421 12.8641 124.383 12.9676 124.6 12.9676C124.712 12.9676 124.671 12.8648 124.768 12.8636C124.83 12.863 124.892 12.859 124.955 12.8634C125.052 12.8701 125.092 12.9676 125.214 12.9676C125.295 12.9676 125.264 12.8634 125.346 12.8634C126.457 12.8631 127.589 12.8651 127.798 12.8708C128.392 12.8868 129.065 13.3686 129.065 13.9611C129.065 14.5541 129.088 17.4225 129.088 17.778C129.088 18.1335 129.018 18.3545 128.713 18.3626C128.431 18.37 126.915 18.3707 126.704 18.3707C126.493 18.3707 126.25 18.4063 126.227 18.0978C126.203 17.7897 126.227 16.083 126.221 15.9169C126.209 15.597 125.992 15.5025 125.828 15.5025H125.43C125.189 15.5025 125.019 15.7035 125.019 15.941C125.019 16.1775 125.007 17.4702 125.007 17.6594C125.007 17.8491 125.007 17.9441 125.171 18.1334C125.335 18.3235 128.302 20.4659 128.572 20.6702C128.853 20.8838 129.112 21.1679 129.112 21.4527C129.112 21.6158 129.101 23.3864 129.094 24.9376C129.093 25.1171 128.789 25.1798 128.723 25.3375C128.661 25.4809 128.554 25.7907 128.616 25.9469C128.677 26.1008 128.827 26.0395 128.824 26.1828C128.819 26.4133 128.618 26.2735 128.611 26.5158C128.601 26.8589 129.099 26.7257 129.088 26.9358C129.077 27.1473 129.087 27.235 129.089 27.2846C129.106 28.0549 128.473 28.8554 127.94 28.8728C127.612 28.8838 123.46 28.8672 123.202 28.8728C122.697 28.8847 121.865 28.3457 121.865 27.6578C121.865 27.3022 121.853 23.438 121.853 23.1537C121.853 22.8688 121.912 22.6144 122.193 22.6144H124.58C124.884 22.6144 124.955 22.7504 124.979 22.9874C125.002 23.2246 124.961 25.6548 124.961 25.8919C124.961 26.1284 125.037 26.3841 125.248 26.3841C125.459 26.3841 125.594 26.3892 125.776 26.3841C125.942 26.3782 126.051 26.1823 126.075 25.9451C126.098 25.7084 126.11 23.1364 126.11 22.8515C126.11 22.567 126.063 22.4958 125.899 22.3772C125.735 22.2591 122.346 19.7065 122.146 19.5561C121.988 19.4377 121.847 19.3607 121.847 19.0285C121.846 18.6965 121.837 14.4354 121.841 14.2698ZM133.971 14.7204C133.959 13.8662 134.822 12.8591 135.678 12.9024C136.027 12.9202 137.531 12.9137 138.721 12.9059C138.777 12.9055 138.859 12.9886 138.9 13.0245C138.982 13.0952 139.129 13.107 139.214 13.0741C139.278 13.0494 139.252 12.901 139.328 12.9016C139.772 12.9023 140.107 12.895 140.216 12.8941C141.361 12.8867 142.675 13.9925 142.679 15.1818C142.682 15.814 142.659 19.6967 142.652 20.1406C142.644 20.6166 142.556 21.1266 142.315 21.5588C142.225 21.7232 141.708 22.6654 141.065 23.7474C140.894 24.035 140.797 23.7674 140.715 23.7501C140.67 23.7407 140.527 23.7962 140.527 23.8347C140.527 23.9165 140.816 24.1202 140.782 24.1738C140.662 24.3633 140.468 24.3103 140.384 24.3498C140.274 24.4014 140.225 24.5163 140.211 24.6629C140.201 24.777 140.107 24.9937 140.113 25.0838C140.124 25.3026 140.221 25.2243 140.077 25.4701C139.641 26.2155 139.212 26.9651 138.79 27.7189C138.624 28.0161 138.563 28.2877 138.853 28.2877C139.136 28.2877 141.691 28.2636 141.94 28.2636C142.19 28.2636 142.464 28.3107 142.472 28.5878C142.48 28.872 142.464 30.5398 142.464 30.7923C142.464 31.0454 142.472 31.2822 142.096 31.3061C141.752 31.328 134.802 31.3301 134.583 31.3301C134.365 31.3301 134.021 31.2033 134.012 30.8166C134.007 30.5316 133.989 28.7694 133.989 28.5481C133.989 28.1293 134.169 27.7893 134.325 27.5367C134.481 27.2836 138.465 20.2865 138.555 20.1085C138.727 19.7689 138.779 19.3661 138.779 19.111C138.779 18.8581 138.775 16.618 138.775 16.3965C138.775 16.1754 138.777 15.9603 138.469 15.9682C138.25 15.9739 138.214 15.9709 138.054 15.9682C137.835 15.9642 137.679 15.9997 137.679 16.2523C137.679 16.5055 137.685 18.6527 137.679 18.9074C137.672 19.2354 137.601 19.5315 137.272 19.5315C137.054 19.5315 134.755 19.5434 134.505 19.5434C134.255 19.5434 133.959 19.4132 133.959 19.0972C133.959 18.8905 133.964 17.0813 133.967 15.8543C133.967 15.7976 134.072 15.8057 134.137 15.7979C134.186 15.7926 134.326 15.7616 134.326 15.6288C134.326 15.5198 134.083 15.5145 134.082 15.3367C134.082 15.2546 134.222 15.2896 134.221 15.1707C134.221 15.1046 134.202 14.9563 134.194 14.9041C134.178 14.794 134.016 14.7431 133.976 14.7304C133.971 14.7291 133.971 14.7204 133.971 14.7204Z" fill="white"/>
<path d="M53.692 22.7163C53.8639 22.7245 55.6924 22.814 55.8956 22.8459C56.0989 22.878 56.3297 22.854 56.4901 23.1899C56.6995 23.6289 57.2561 24.3911 57.8504 24.7701C58.0818 24.918 58.1006 24.9837 58.0848 25.3312C58.0693 25.6792 57.9361 27.378 57.9052 27.5996C57.8741 27.8209 57.6499 28.045 57.4518 27.9783C56.008 27.4965 53.8007 26.1218 53.3238 23.269C53.2208 22.6541 53.692 22.7163 53.692 22.7163ZM58.8038 16.8915C58.7961 17.0653 58.7026 18.7911 58.6711 18.9964C58.6398 19.2017 58.6631 19.435 58.3312 19.5966C57.9695 19.7729 57.4759 20.0883 57.0956 20.5381C57.0743 20.5631 57.0371 20.5734 56.984 20.5144C56.9144 20.4357 56.8492 20.076 56.6149 20.1587C56.4929 20.202 56.216 20.2656 56.216 20.4432C56.216 20.5942 56.7851 20.7217 56.7496 20.8584C56.6807 21.1258 56.5443 21.1031 56.2006 21.0875C55.8567 21.0714 53.9957 20.9525 53.777 20.9215C53.5581 20.8899 53.5161 20.6795 53.5816 20.4789C53.8131 19.7705 54.2536 18.9365 54.979 18.1912C55.0301 18.1385 55.3629 18.2892 55.4659 18.1912C55.5713 18.0907 55.4307 17.8299 55.5009 17.717C55.6876 17.4185 55.9674 17.7499 56.14 17.6283C56.1955 17.589 56.07 17.3141 56.1928 17.2249C56.8073 16.7815 57.3747 16.6207 58.2882 16.4646C58.8956 16.3609 58.8038 16.8915 58.8038 16.8915ZM64.6126 21.7672C64.4408 21.7594 62.6113 21.728 62.4081 21.6963C62.205 21.6649 61.9263 21.7321 61.7511 21.4038C61.5403 21.0089 61.2195 20.4794 60.6723 20.0764C60.4515 19.9137 60.4458 19.8472 60.4612 19.4994C60.4771 19.1518 60.5472 17.3107 60.5785 17.0894C60.6097 16.868 60.8534 16.7435 61.0476 16.8204C61.3721 16.9495 61.6893 17.0966 61.9977 17.2612C62.1088 17.3206 62.0771 17.4644 62.1502 17.5102C62.2321 17.5621 62.4033 17.4986 62.5036 17.5735C63.4525 18.2811 64.3343 19.3366 64.8238 21.2146C64.9807 21.8169 64.6126 21.7672 64.6126 21.7672ZM59.7341 27.8205C59.742 27.6462 59.8281 25.8129 59.8591 25.6077C59.8901 25.4022 59.8084 25.0506 60.1407 24.8887C60.5751 24.6767 61.0555 24.32 61.4306 23.7189C61.5766 23.4852 61.6808 23.4583 62.0247 23.4742C62.3691 23.4896 64.112 23.5849 64.3313 23.6164C64.55 23.6479 64.7267 23.8855 64.6518 24.0826C64.5308 24.4 64.3988 24.7088 64.1906 25.0783C64.1261 25.1923 63.9553 25.1676 63.8564 25.2614C63.7511 25.3625 63.653 25.4965 63.5634 25.6176C63.4922 25.7135 63.5584 26.0297 63.4791 26.1242C63.0133 26.6844 62.4092 27.2126 61.6279 27.6077C61.5002 27.6723 61.4238 27.4664 61.171 27.4664C61.0244 27.4664 60.9073 27.5911 60.8486 27.6854C60.7918 27.7774 60.7311 27.9731 60.6253 28.0045C60.5115 28.0381 60.3969 28.0688 60.2816 28.0965C59.6815 28.2403 59.7341 27.8205 59.7341 27.8205Z" fill="black"/>
</g>
<defs>
<linearGradient id="paint0_linear_1193_15833" x1="83.9998" y1="10.4556" x2="83.9998" y2="38.5458" gradientUnits="userSpaceOnUse">
<stop offset="0.081" stop-color="#BB8B2F"/>
<stop offset="0.5" stop-color="#925E22"/>
<stop offset="0.946" stop-color="#612A14"/>
</linearGradient>
</defs>
</svg>
