<svg width="66" height="33" viewBox="0 0 66 33" fill="none" xmlns="http://www.w3.org/2000/svg">
<path d="M41.4901 7.7002C37.4938 7.7002 33.9223 9.784 33.9223 13.6331C33.9223 18.0478 40.2562 18.3527 40.2562 20.5708C40.2562 21.5047 39.1925 22.3406 37.3749 22.3406C34.7962 22.3406 32.8687 21.1726 32.8687 21.1726L32.0439 25.0574C32.0439 25.0574 34.2643 26.0441 37.2121 26.0441C41.5814 26.0441 45.0199 23.8583 45.0199 19.9429C45.0199 15.2777 38.6595 14.9819 38.6595 12.9236C38.6595 12.192 39.5328 11.3906 41.3447 11.3906C43.3894 11.3906 45.0571 12.2401 45.0571 12.2401L45.8644 8.48849C45.8644 8.48849 44.0491 7.7002 41.4895 7.7002H41.4901ZM4.92616 7.98355L4.82925 8.5497C4.82925 8.5497 6.51048 8.85912 8.02494 9.47684C9.97492 10.1847 10.1135 10.5972 10.442 11.8769L14.0202 25.7517H18.8171L26.2069 7.98355H21.4213L16.6728 20.0641L14.7352 9.82366C14.5577 8.6517 13.6574 7.98298 12.5559 7.98298H4.92672L4.92616 7.98355ZM28.1315 7.98355L24.3775 25.7517H28.9411L32.6817 7.98355H28.1315ZM53.5843 7.98355C52.484 7.98355 51.9009 8.57633 51.4732 9.61171L44.7872 25.7517H49.5728L50.4985 23.0615H56.3287L56.8916 25.7517H61.1144L57.4308 7.98355H53.5843ZM54.2069 12.7842L55.6256 19.4515H51.8254L54.2075 12.7842H54.2069Z" fill="#1434CB"/>
</svg>
